G75*
%MOIN*%
%OFA0B0*%
%FSLAX25Y25*%
%IPPOS*%
%LPD*%
%AMOC8*
5,1,8,0,0,1.08239X$1,22.5*
%
%ADD10C,0.06000*%
%ADD11OC8,0.05200*%
%ADD12C,0.05937*%
%ADD13R,0.04600X0.06300*%
%ADD14C,0.07050*%
%ADD15R,0.06300X0.04600*%
%ADD16R,0.09843X0.09843*%
%ADD17C,0.01181*%
%ADD18C,0.02978*%
%ADD19C,0.04724*%
%ADD20C,0.03937*%
%ADD21C,0.03150*%
%ADD22C,0.01969*%
D10*
X0051709Y0077331D02*
X0051709Y0083331D01*
X0061709Y0083331D02*
X0061709Y0077331D01*
X0108559Y0076346D02*
X0108559Y0082346D01*
X0118559Y0082346D02*
X0118559Y0076346D01*
X0128559Y0076346D02*
X0128559Y0082346D01*
X0138559Y0082346D02*
X0138559Y0076346D01*
X0148559Y0076346D02*
X0148559Y0082346D01*
X0148559Y0248591D02*
X0148559Y0254591D01*
X0138559Y0254591D02*
X0138559Y0248591D01*
X0128559Y0248591D02*
X0128559Y0254591D01*
X0118559Y0254591D02*
X0118559Y0248591D01*
X0108559Y0248591D02*
X0108559Y0254591D01*
X0061709Y0255575D02*
X0061709Y0249575D01*
X0051709Y0249575D02*
X0051709Y0255575D01*
D11*
X0047535Y0241748D03*
X0047535Y0231906D03*
X0047535Y0222063D03*
X0087535Y0222063D03*
X0094780Y0222063D03*
X0094780Y0231413D03*
X0087535Y0231906D03*
X0087535Y0241748D03*
X0094780Y0241748D03*
X0134780Y0241748D03*
X0134780Y0231413D03*
X0134780Y0222063D03*
X0134780Y0069504D03*
X0134780Y0059169D03*
X0134780Y0049819D03*
X0094780Y0049819D03*
X0087535Y0049819D03*
X0087535Y0059661D03*
X0094780Y0059169D03*
X0094780Y0069504D03*
X0087535Y0069504D03*
X0047535Y0069504D03*
X0047535Y0059661D03*
X0047535Y0049819D03*
D12*
X0075409Y0079346D03*
X0085252Y0079346D03*
X0095094Y0079346D03*
X0095094Y0251591D03*
X0085252Y0251591D03*
X0075409Y0251591D03*
D13*
X0181614Y0232890D03*
X0187614Y0232890D03*
X0193614Y0232890D03*
X0193614Y0060646D03*
X0187614Y0060646D03*
X0181614Y0060646D03*
D14*
X0121669Y0027596D02*
X0121669Y0020546D01*
X0101984Y0020546D02*
X0101984Y0027596D01*
X0082299Y0027596D02*
X0082299Y0020546D01*
X0062614Y0020546D02*
X0062614Y0027596D01*
X0042929Y0027596D02*
X0042929Y0020546D01*
X0023244Y0020546D02*
X0023244Y0027596D01*
X0021609Y0055724D02*
X0028659Y0055724D01*
X0028659Y0075409D02*
X0021609Y0075409D01*
X0023244Y0192790D02*
X0023244Y0199840D01*
X0042929Y0199840D02*
X0042929Y0192790D01*
X0062614Y0192790D02*
X0062614Y0199840D01*
X0082299Y0199840D02*
X0082299Y0192790D01*
X0101984Y0192790D02*
X0101984Y0199840D01*
X0121669Y0199840D02*
X0121669Y0192790D01*
X0028659Y0227969D02*
X0021609Y0227969D01*
X0021609Y0247654D02*
X0028659Y0247654D01*
D15*
X0025541Y0260402D03*
X0025541Y0266402D03*
X0040961Y0266449D03*
X0040961Y0260449D03*
X0040961Y0254449D03*
X0071144Y0260402D03*
X0071144Y0266402D03*
X0094110Y0266402D03*
X0094110Y0260402D03*
X0163008Y0260402D03*
X0163008Y0266402D03*
X0163008Y0094157D03*
X0163008Y0088157D03*
X0094110Y0088157D03*
X0094110Y0094157D03*
X0071144Y0094157D03*
X0071144Y0088157D03*
X0040961Y0088205D03*
X0040961Y0094205D03*
X0040961Y0082205D03*
X0025541Y0088157D03*
X0025541Y0094157D03*
D16*
X0016110Y0100465D03*
X0016110Y0168465D03*
X0016110Y0272709D03*
X0016110Y0340709D03*
X0172110Y0340709D03*
X0172110Y0272709D03*
X0172110Y0168465D03*
X0172110Y0100465D03*
D17*
X0009134Y0076974D02*
X0009134Y0019711D01*
X0009737Y0019961D01*
X0013129Y0019961D01*
X0016264Y0018662D01*
X0018662Y0016264D01*
X0019961Y0013129D01*
X0019961Y0010118D01*
X0029834Y0010118D01*
X0024122Y0015830D01*
X0022306Y0015830D01*
X0020573Y0016548D01*
X0019246Y0017875D01*
X0018529Y0019608D01*
X0018529Y0028534D01*
X0019246Y0030267D01*
X0020573Y0031594D01*
X0022306Y0032311D01*
X0024182Y0032311D01*
X0025915Y0031594D01*
X0027242Y0030267D01*
X0027960Y0028534D01*
X0027960Y0022041D01*
X0034558Y0015443D01*
X0068647Y0015443D01*
X0077584Y0024380D01*
X0077584Y0028534D01*
X0078302Y0030267D01*
X0079628Y0031594D01*
X0081361Y0032311D01*
X0082209Y0032311D01*
X0081680Y0032841D01*
X0048807Y0065713D01*
X0045965Y0065713D01*
X0043745Y0067934D01*
X0043745Y0070773D01*
X0042318Y0069346D01*
X0048212Y0063452D01*
X0049106Y0063452D01*
X0051326Y0061232D01*
X0051326Y0058091D01*
X0049106Y0055871D01*
X0045965Y0055871D01*
X0043745Y0058091D01*
X0043745Y0058984D01*
X0037203Y0065527D01*
X0036314Y0066415D01*
X0035833Y0067576D01*
X0035833Y0078706D01*
X0035765Y0078541D01*
X0034876Y0077653D01*
X0034876Y0077653D01*
X0033374Y0076151D01*
X0033374Y0074471D01*
X0032656Y0072738D01*
X0031330Y0071412D01*
X0029597Y0070694D01*
X0020671Y0070694D01*
X0018938Y0071412D01*
X0017611Y0072738D01*
X0016893Y0074471D01*
X0016893Y0076347D01*
X0017611Y0078081D01*
X0018938Y0079407D01*
X0020671Y0080125D01*
X0028413Y0080125D01*
X0029928Y0081639D01*
X0029928Y0084845D01*
X0029667Y0084585D01*
X0029305Y0084375D01*
X0028900Y0084267D01*
X0026100Y0084267D01*
X0026100Y0085976D01*
X0024981Y0085976D01*
X0024981Y0084267D01*
X0022181Y0084267D01*
X0021777Y0084375D01*
X0021414Y0084585D01*
X0021118Y0084881D01*
X0020909Y0085244D01*
X0020800Y0085648D01*
X0020800Y0085976D01*
X0019961Y0085976D01*
X0019961Y0083556D01*
X0018662Y0080421D01*
X0016264Y0078023D01*
X0013129Y0076724D01*
X0009737Y0076724D01*
X0009134Y0076974D01*
X0009134Y0076304D02*
X0016893Y0076304D01*
X0016893Y0075125D02*
X0009134Y0075125D01*
X0009134Y0073945D02*
X0017111Y0073945D01*
X0017600Y0072766D02*
X0009134Y0072766D01*
X0009134Y0071586D02*
X0018764Y0071586D01*
X0017364Y0077484D02*
X0014963Y0077484D01*
X0016904Y0078664D02*
X0018194Y0078664D01*
X0018084Y0079843D02*
X0019991Y0079843D01*
X0018911Y0081023D02*
X0029311Y0081023D01*
X0029928Y0082202D02*
X0019400Y0082202D01*
X0019889Y0083382D02*
X0029928Y0083382D01*
X0029928Y0084562D02*
X0029627Y0084562D01*
X0026100Y0084562D02*
X0024981Y0084562D01*
X0024981Y0085741D02*
X0026100Y0085741D01*
X0021454Y0084562D02*
X0019961Y0084562D01*
X0019961Y0085741D02*
X0020800Y0085741D01*
X0024981Y0096339D02*
X0024981Y0098048D01*
X0022622Y0098048D01*
X0022622Y0099874D01*
X0016701Y0099874D01*
X0016701Y0101055D01*
X0022622Y0101055D01*
X0022622Y0105595D01*
X0022514Y0106000D01*
X0022304Y0106362D01*
X0022008Y0106659D01*
X0021645Y0106868D01*
X0021241Y0106976D01*
X0016701Y0106976D01*
X0016701Y0101055D01*
X0015520Y0101055D01*
X0015520Y0106976D01*
X0010980Y0106976D01*
X0010575Y0106868D01*
X0010212Y0106659D01*
X0009916Y0106362D01*
X0009707Y0106000D01*
X0009598Y0105595D01*
X0009598Y0101055D01*
X0015520Y0101055D01*
X0015520Y0099874D01*
X0009598Y0099874D01*
X0009598Y0096339D01*
X0009134Y0096339D01*
X0009134Y0172591D01*
X0009998Y0172591D01*
X0009998Y0163050D01*
X0010696Y0162353D01*
X0021525Y0162353D01*
X0022222Y0163050D01*
X0022222Y0172591D01*
X0030393Y0172591D01*
X0028711Y0170909D01*
X0027329Y0168516D01*
X0026614Y0165846D01*
X0026614Y0163083D01*
X0027329Y0160413D01*
X0028711Y0158020D01*
X0030666Y0156066D01*
X0033059Y0154684D01*
X0035728Y0153969D01*
X0038492Y0153969D01*
X0041162Y0154684D01*
X0043555Y0156066D01*
X0045509Y0158020D01*
X0046891Y0160413D01*
X0047606Y0163083D01*
X0047606Y0165846D01*
X0046891Y0168516D01*
X0045509Y0170909D01*
X0043828Y0172591D01*
X0165998Y0172591D01*
X0165998Y0163050D01*
X0166696Y0162353D01*
X0177525Y0162353D01*
X0178222Y0163050D01*
X0178222Y0172591D01*
X0179740Y0172591D01*
X0179740Y0096339D01*
X0178622Y0096339D01*
X0178622Y0099874D01*
X0172701Y0099874D01*
X0172701Y0101055D01*
X0178622Y0101055D01*
X0178622Y0105595D01*
X0178514Y0106000D01*
X0178304Y0106362D01*
X0178008Y0106659D01*
X0177645Y0106868D01*
X0177241Y0106976D01*
X0172701Y0106976D01*
X0172701Y0101055D01*
X0171520Y0101055D01*
X0171520Y0106976D01*
X0166980Y0106976D01*
X0166575Y0106868D01*
X0166212Y0106659D01*
X0165916Y0106362D01*
X0165707Y0106000D01*
X0165598Y0105595D01*
X0165598Y0101055D01*
X0171520Y0101055D01*
X0171520Y0099874D01*
X0165598Y0099874D01*
X0165598Y0098048D01*
X0163567Y0098048D01*
X0163567Y0096339D01*
X0162448Y0096339D01*
X0162448Y0097959D01*
X0162509Y0098020D01*
X0163891Y0100413D01*
X0164606Y0103083D01*
X0164606Y0105846D01*
X0163891Y0108516D01*
X0162509Y0110909D01*
X0160555Y0112863D01*
X0158162Y0114245D01*
X0155492Y0114961D01*
X0152728Y0114961D01*
X0150059Y0114245D01*
X0147666Y0112863D01*
X0145711Y0110909D01*
X0144329Y0108516D01*
X0143614Y0105846D01*
X0143614Y0103083D01*
X0144329Y0100413D01*
X0145711Y0098020D01*
X0147393Y0096339D01*
X0098851Y0096339D01*
X0098851Y0096667D01*
X0098742Y0097071D01*
X0098533Y0097434D01*
X0098237Y0097730D01*
X0097874Y0097940D01*
X0097470Y0098048D01*
X0094670Y0098048D01*
X0094670Y0096339D01*
X0093551Y0096339D01*
X0093551Y0098048D01*
X0090751Y0098048D01*
X0090346Y0097940D01*
X0089984Y0097730D01*
X0089687Y0097434D01*
X0089478Y0097071D01*
X0089370Y0096667D01*
X0089370Y0096339D01*
X0075885Y0096339D01*
X0075885Y0096667D01*
X0075777Y0097071D01*
X0075567Y0097434D01*
X0075271Y0097730D01*
X0074908Y0097940D01*
X0074504Y0098048D01*
X0071704Y0098048D01*
X0071704Y0096339D01*
X0070585Y0096339D01*
X0070585Y0098048D01*
X0067785Y0098048D01*
X0067380Y0097940D01*
X0067018Y0097730D01*
X0066722Y0097434D01*
X0066512Y0097071D01*
X0066404Y0096667D01*
X0066404Y0096339D01*
X0045301Y0096339D01*
X0045301Y0096998D01*
X0044604Y0097695D01*
X0044120Y0097695D01*
X0044120Y0130172D01*
X0043639Y0131333D01*
X0028971Y0146001D01*
X0027809Y0146482D01*
X0026553Y0146482D01*
X0025392Y0146001D01*
X0024503Y0145112D01*
X0024022Y0143951D01*
X0024022Y0142694D01*
X0024503Y0141533D01*
X0037802Y0128235D01*
X0037802Y0097695D01*
X0037317Y0097695D01*
X0036620Y0096998D01*
X0036620Y0096339D01*
X0030281Y0096339D01*
X0030281Y0096667D01*
X0030173Y0097071D01*
X0029963Y0097434D01*
X0029667Y0097730D01*
X0029305Y0097940D01*
X0028900Y0098048D01*
X0026100Y0098048D01*
X0026100Y0096339D01*
X0024981Y0096339D01*
X0024981Y0096358D02*
X0026100Y0096358D01*
X0026100Y0097537D02*
X0024981Y0097537D01*
X0022622Y0098717D02*
X0037802Y0098717D01*
X0037802Y0099897D02*
X0016701Y0099897D01*
X0016701Y0101076D02*
X0015520Y0101076D01*
X0015520Y0099897D02*
X0009134Y0099897D01*
X0009134Y0101076D02*
X0009598Y0101076D01*
X0009598Y0102256D02*
X0009134Y0102256D01*
X0009134Y0103435D02*
X0009598Y0103435D01*
X0009598Y0104615D02*
X0009134Y0104615D01*
X0009134Y0105795D02*
X0009652Y0105795D01*
X0009134Y0106974D02*
X0010972Y0106974D01*
X0009134Y0108154D02*
X0037802Y0108154D01*
X0037802Y0109334D02*
X0009134Y0109334D01*
X0009134Y0110513D02*
X0037802Y0110513D01*
X0037802Y0111693D02*
X0009134Y0111693D01*
X0009134Y0112872D02*
X0037802Y0112872D01*
X0037802Y0114052D02*
X0009134Y0114052D01*
X0009134Y0115232D02*
X0037802Y0115232D01*
X0037802Y0116411D02*
X0009134Y0116411D01*
X0009134Y0117591D02*
X0037802Y0117591D01*
X0037802Y0118770D02*
X0009134Y0118770D01*
X0009134Y0119950D02*
X0037802Y0119950D01*
X0037802Y0121130D02*
X0009134Y0121130D01*
X0009134Y0122309D02*
X0037802Y0122309D01*
X0037802Y0123489D02*
X0009134Y0123489D01*
X0009134Y0124669D02*
X0037802Y0124669D01*
X0037802Y0125848D02*
X0009134Y0125848D01*
X0009134Y0127028D02*
X0037802Y0127028D01*
X0037802Y0128207D02*
X0009134Y0128207D01*
X0009134Y0129387D02*
X0036649Y0129387D01*
X0035470Y0130567D02*
X0009134Y0130567D01*
X0009134Y0131746D02*
X0034290Y0131746D01*
X0033111Y0132926D02*
X0009134Y0132926D01*
X0009134Y0134105D02*
X0031931Y0134105D01*
X0030751Y0135285D02*
X0009134Y0135285D01*
X0009134Y0136465D02*
X0029572Y0136465D01*
X0028392Y0137644D02*
X0009134Y0137644D01*
X0009134Y0138824D02*
X0027212Y0138824D01*
X0026033Y0140004D02*
X0009134Y0140004D01*
X0009134Y0141183D02*
X0024853Y0141183D01*
X0024159Y0142363D02*
X0009134Y0142363D01*
X0009134Y0143542D02*
X0024022Y0143542D01*
X0024341Y0144722D02*
X0009134Y0144722D01*
X0009134Y0145902D02*
X0025292Y0145902D01*
X0029070Y0145902D02*
X0179740Y0145902D01*
X0179740Y0147081D02*
X0009134Y0147081D01*
X0009134Y0148261D02*
X0179740Y0148261D01*
X0179740Y0149440D02*
X0009134Y0149440D01*
X0009134Y0150620D02*
X0179740Y0150620D01*
X0179740Y0151800D02*
X0009134Y0151800D01*
X0009134Y0152979D02*
X0179740Y0152979D01*
X0179740Y0154159D02*
X0039203Y0154159D01*
X0035018Y0154159D02*
X0009134Y0154159D01*
X0009134Y0155338D02*
X0031925Y0155338D01*
X0030213Y0156518D02*
X0009134Y0156518D01*
X0009134Y0157698D02*
X0029033Y0157698D01*
X0028216Y0158877D02*
X0009134Y0158877D01*
X0009134Y0160057D02*
X0027535Y0160057D01*
X0027109Y0161237D02*
X0009134Y0161237D01*
X0009134Y0162416D02*
X0010632Y0162416D01*
X0009998Y0163596D02*
X0009134Y0163596D01*
X0009134Y0164775D02*
X0009998Y0164775D01*
X0009998Y0165955D02*
X0009134Y0165955D01*
X0009134Y0167135D02*
X0009998Y0167135D01*
X0009998Y0168314D02*
X0009134Y0168314D01*
X0009134Y0169494D02*
X0009998Y0169494D01*
X0009998Y0170673D02*
X0009134Y0170673D01*
X0009134Y0171853D02*
X0009998Y0171853D01*
X0019961Y0182953D02*
X0019961Y0185373D01*
X0018662Y0188508D01*
X0016264Y0190906D01*
X0013129Y0192205D01*
X0009737Y0192205D01*
X0009134Y0191955D01*
X0009134Y0249218D01*
X0009737Y0248969D01*
X0013129Y0248969D01*
X0016264Y0250267D01*
X0018662Y0252666D01*
X0019961Y0255800D01*
X0019961Y0258220D01*
X0020800Y0258220D01*
X0020800Y0257892D01*
X0020909Y0257488D01*
X0021118Y0257125D01*
X0021414Y0256829D01*
X0021777Y0256619D01*
X0022181Y0256511D01*
X0024981Y0256511D01*
X0024981Y0258220D01*
X0026100Y0258220D01*
X0026100Y0256511D01*
X0028900Y0256511D01*
X0029305Y0256619D01*
X0029667Y0256829D01*
X0029928Y0257089D01*
X0029928Y0253883D01*
X0028413Y0252369D01*
X0020671Y0252369D01*
X0018938Y0251651D01*
X0017611Y0250325D01*
X0016893Y0248592D01*
X0016893Y0246716D01*
X0017611Y0244982D01*
X0018938Y0243656D01*
X0020671Y0242938D01*
X0029597Y0242938D01*
X0031330Y0243656D01*
X0032656Y0244982D01*
X0033374Y0246716D01*
X0033374Y0248395D01*
X0034876Y0249897D01*
X0035765Y0250785D01*
X0035833Y0250950D01*
X0035833Y0239820D01*
X0036314Y0238659D01*
X0037203Y0237771D01*
X0043745Y0231228D01*
X0043745Y0230335D01*
X0045965Y0228115D01*
X0049106Y0228115D01*
X0051326Y0230335D01*
X0051326Y0233476D01*
X0049106Y0235696D01*
X0048212Y0235696D01*
X0042318Y0241591D01*
X0043745Y0243017D01*
X0043745Y0240178D01*
X0045965Y0237957D01*
X0048807Y0237957D01*
X0081680Y0205085D01*
X0082209Y0204555D01*
X0081361Y0204555D01*
X0079628Y0203838D01*
X0078302Y0202511D01*
X0077584Y0200778D01*
X0077584Y0196624D01*
X0068647Y0187687D01*
X0034558Y0187687D01*
X0027960Y0194285D01*
X0027960Y0200778D01*
X0027242Y0202511D01*
X0025915Y0203838D01*
X0024182Y0204555D01*
X0022306Y0204555D01*
X0020573Y0203838D01*
X0019246Y0202511D01*
X0018529Y0200778D01*
X0018529Y0191852D01*
X0019246Y0190119D01*
X0020573Y0188792D01*
X0022306Y0188074D01*
X0024122Y0188074D01*
X0029243Y0182953D01*
X0019961Y0182953D01*
X0019961Y0183649D02*
X0028547Y0183649D01*
X0027367Y0184829D02*
X0019961Y0184829D01*
X0019698Y0186008D02*
X0026188Y0186008D01*
X0025008Y0187188D02*
X0019209Y0187188D01*
X0018720Y0188368D02*
X0021598Y0188368D01*
X0019818Y0189547D02*
X0017623Y0189547D01*
X0016443Y0190727D02*
X0018995Y0190727D01*
X0018529Y0191907D02*
X0013849Y0191907D01*
X0018529Y0193086D02*
X0009134Y0193086D01*
X0009134Y0194266D02*
X0018529Y0194266D01*
X0018529Y0195445D02*
X0009134Y0195445D01*
X0009134Y0196625D02*
X0018529Y0196625D01*
X0018529Y0197805D02*
X0009134Y0197805D01*
X0009134Y0198984D02*
X0018529Y0198984D01*
X0018529Y0200164D02*
X0009134Y0200164D01*
X0009134Y0201343D02*
X0018763Y0201343D01*
X0019258Y0202523D02*
X0009134Y0202523D01*
X0009134Y0203703D02*
X0020438Y0203703D01*
X0026050Y0203703D02*
X0040123Y0203703D01*
X0040258Y0203838D02*
X0038931Y0202511D01*
X0038214Y0200778D01*
X0038214Y0191852D01*
X0038931Y0190119D01*
X0040258Y0188792D01*
X0041991Y0188074D01*
X0043867Y0188074D01*
X0045600Y0188792D01*
X0046927Y0190119D01*
X0047645Y0191852D01*
X0047645Y0200778D01*
X0046927Y0202511D01*
X0045600Y0203838D01*
X0043867Y0204555D01*
X0041991Y0204555D01*
X0040258Y0203838D01*
X0038943Y0202523D02*
X0027230Y0202523D01*
X0027725Y0201343D02*
X0038448Y0201343D01*
X0038214Y0200164D02*
X0027960Y0200164D01*
X0027960Y0198984D02*
X0038214Y0198984D01*
X0038214Y0197805D02*
X0027960Y0197805D01*
X0027960Y0196625D02*
X0038214Y0196625D01*
X0038214Y0195445D02*
X0027960Y0195445D01*
X0027979Y0194266D02*
X0038214Y0194266D01*
X0038214Y0193086D02*
X0029159Y0193086D01*
X0030338Y0191907D02*
X0038214Y0191907D01*
X0038680Y0190727D02*
X0031518Y0190727D01*
X0032698Y0189547D02*
X0039503Y0189547D01*
X0041283Y0188368D02*
X0033877Y0188368D01*
X0044575Y0188368D02*
X0060025Y0188368D01*
X0059933Y0188415D02*
X0060650Y0188049D01*
X0061416Y0187800D01*
X0062030Y0187703D01*
X0062030Y0195730D01*
X0063199Y0195730D01*
X0063199Y0187703D01*
X0063812Y0187800D01*
X0064578Y0188049D01*
X0065295Y0188415D01*
X0065947Y0188888D01*
X0066516Y0189457D01*
X0066989Y0190109D01*
X0067355Y0190826D01*
X0067604Y0191592D01*
X0067730Y0192387D01*
X0067730Y0195730D01*
X0063199Y0195730D01*
X0063199Y0196899D01*
X0067730Y0196899D01*
X0067730Y0200243D01*
X0067604Y0201038D01*
X0067355Y0201804D01*
X0066989Y0202521D01*
X0066516Y0203173D01*
X0065947Y0203742D01*
X0065295Y0204215D01*
X0064578Y0204581D01*
X0063812Y0204830D01*
X0063199Y0204927D01*
X0063199Y0196899D01*
X0062030Y0196899D01*
X0062030Y0195730D01*
X0057499Y0195730D01*
X0057499Y0192387D01*
X0057625Y0191592D01*
X0057873Y0190826D01*
X0058239Y0190109D01*
X0058712Y0189457D01*
X0059282Y0188888D01*
X0059933Y0188415D01*
X0058647Y0189547D02*
X0046355Y0189547D01*
X0047179Y0190727D02*
X0057924Y0190727D01*
X0057575Y0191907D02*
X0047645Y0191907D01*
X0047645Y0193086D02*
X0057499Y0193086D01*
X0057499Y0194266D02*
X0047645Y0194266D01*
X0047645Y0195445D02*
X0057499Y0195445D01*
X0057499Y0196899D02*
X0062030Y0196899D01*
X0062030Y0204927D01*
X0061416Y0204830D01*
X0060650Y0204581D01*
X0059933Y0204215D01*
X0059282Y0203742D01*
X0058712Y0203173D01*
X0058239Y0202521D01*
X0057873Y0201804D01*
X0057625Y0201038D01*
X0057499Y0200243D01*
X0057499Y0196899D01*
X0057499Y0197805D02*
X0047645Y0197805D01*
X0047645Y0198984D02*
X0057499Y0198984D01*
X0057499Y0200164D02*
X0047645Y0200164D01*
X0047410Y0201343D02*
X0057724Y0201343D01*
X0058240Y0202523D02*
X0046915Y0202523D01*
X0045735Y0203703D02*
X0059242Y0203703D01*
X0061749Y0204882D02*
X0009134Y0204882D01*
X0009134Y0206062D02*
X0080703Y0206062D01*
X0081882Y0204882D02*
X0063479Y0204882D01*
X0063199Y0204882D02*
X0062030Y0204882D01*
X0062030Y0203703D02*
X0063199Y0203703D01*
X0063199Y0202523D02*
X0062030Y0202523D01*
X0062030Y0201343D02*
X0063199Y0201343D01*
X0063199Y0200164D02*
X0062030Y0200164D01*
X0062030Y0198984D02*
X0063199Y0198984D01*
X0063199Y0197805D02*
X0062030Y0197805D01*
X0062030Y0196625D02*
X0047645Y0196625D01*
X0062030Y0195445D02*
X0063199Y0195445D01*
X0063199Y0194266D02*
X0062030Y0194266D01*
X0062030Y0193086D02*
X0063199Y0193086D01*
X0063199Y0191907D02*
X0062030Y0191907D01*
X0062030Y0190727D02*
X0063199Y0190727D01*
X0063199Y0189547D02*
X0062030Y0189547D01*
X0062030Y0188368D02*
X0063199Y0188368D01*
X0065203Y0188368D02*
X0069328Y0188368D01*
X0070507Y0189547D02*
X0066581Y0189547D01*
X0067304Y0190727D02*
X0071687Y0190727D01*
X0072866Y0191907D02*
X0067654Y0191907D01*
X0067730Y0193086D02*
X0074046Y0193086D01*
X0075226Y0194266D02*
X0067730Y0194266D01*
X0067730Y0195445D02*
X0076405Y0195445D01*
X0077584Y0196625D02*
X0063199Y0196625D01*
X0067730Y0197805D02*
X0077584Y0197805D01*
X0077584Y0198984D02*
X0067730Y0198984D01*
X0067730Y0200164D02*
X0077584Y0200164D01*
X0077818Y0201343D02*
X0067504Y0201343D01*
X0066988Y0202523D02*
X0078314Y0202523D01*
X0079493Y0203703D02*
X0065986Y0203703D01*
X0074805Y0211960D02*
X0009134Y0211960D01*
X0009134Y0213140D02*
X0073625Y0213140D01*
X0072445Y0214319D02*
X0009134Y0214319D01*
X0009134Y0215499D02*
X0071266Y0215499D01*
X0070086Y0216678D02*
X0009134Y0216678D01*
X0009134Y0217858D02*
X0068907Y0217858D01*
X0067727Y0219038D02*
X0049871Y0219038D01*
X0049106Y0218272D02*
X0051326Y0220493D01*
X0051326Y0223633D01*
X0049106Y0225854D01*
X0045965Y0225854D01*
X0043745Y0223633D01*
X0043745Y0220493D01*
X0045965Y0218272D01*
X0049106Y0218272D01*
X0051050Y0220217D02*
X0066547Y0220217D01*
X0065368Y0221397D02*
X0051326Y0221397D01*
X0051326Y0222576D02*
X0064188Y0222576D01*
X0063009Y0223756D02*
X0051203Y0223756D01*
X0050023Y0224936D02*
X0061829Y0224936D01*
X0060649Y0226115D02*
X0033436Y0226115D01*
X0033400Y0226005D02*
X0033648Y0226771D01*
X0033746Y0227384D01*
X0025718Y0227384D01*
X0025718Y0222853D01*
X0029061Y0222853D01*
X0029857Y0222979D01*
X0030623Y0223228D01*
X0031340Y0223593D01*
X0031991Y0224067D01*
X0032561Y0224636D01*
X0033034Y0225287D01*
X0033400Y0226005D01*
X0032779Y0224936D02*
X0045048Y0224936D01*
X0043868Y0223756D02*
X0031564Y0223756D01*
X0033731Y0227295D02*
X0059470Y0227295D01*
X0058290Y0228475D02*
X0049465Y0228475D01*
X0050645Y0229654D02*
X0057110Y0229654D01*
X0055931Y0230834D02*
X0051326Y0230834D01*
X0051326Y0232013D02*
X0054751Y0232013D01*
X0053572Y0233193D02*
X0051326Y0233193D01*
X0050429Y0234373D02*
X0052392Y0234373D01*
X0051212Y0235552D02*
X0049249Y0235552D01*
X0050033Y0236732D02*
X0047177Y0236732D01*
X0045997Y0237911D02*
X0048853Y0237911D01*
X0051326Y0240476D02*
X0051326Y0243318D01*
X0049106Y0245539D01*
X0046266Y0245539D01*
X0047576Y0246848D01*
X0047742Y0247249D01*
X0047782Y0247169D01*
X0048207Y0246584D01*
X0048718Y0246073D01*
X0049303Y0245649D01*
X0049946Y0245321D01*
X0050634Y0245097D01*
X0051299Y0244992D01*
X0051299Y0252165D01*
X0052118Y0252165D01*
X0052118Y0244992D01*
X0052784Y0245097D01*
X0053471Y0245321D01*
X0054115Y0245649D01*
X0054699Y0246073D01*
X0055210Y0246584D01*
X0055635Y0247169D01*
X0055963Y0247813D01*
X0056186Y0248500D01*
X0056299Y0249214D01*
X0056299Y0252165D01*
X0052118Y0252165D01*
X0052118Y0252984D01*
X0056299Y0252984D01*
X0056299Y0255936D01*
X0056186Y0256650D01*
X0055963Y0257337D01*
X0055635Y0257981D01*
X0055461Y0258220D01*
X0058428Y0258220D01*
X0058156Y0257949D01*
X0057518Y0256408D01*
X0057518Y0248741D01*
X0058156Y0247201D01*
X0059335Y0246022D01*
X0060875Y0245384D01*
X0062542Y0245384D01*
X0063113Y0245621D01*
X0073628Y0235105D01*
X0074672Y0234061D01*
X0075744Y0234061D01*
X0075106Y0233423D01*
X0074698Y0232438D01*
X0074698Y0231373D01*
X0075106Y0230388D01*
X0075597Y0229897D01*
X0075597Y0216205D01*
X0051326Y0240476D01*
X0051532Y0240271D02*
X0068462Y0240271D01*
X0067283Y0241450D02*
X0051326Y0241450D01*
X0051326Y0242630D02*
X0066103Y0242630D01*
X0064924Y0243810D02*
X0050835Y0243810D01*
X0049655Y0244989D02*
X0063744Y0244989D01*
X0066422Y0247348D02*
X0086975Y0247348D01*
X0086654Y0247670D02*
X0088785Y0245539D01*
X0085965Y0245539D01*
X0083745Y0243318D01*
X0083745Y0240178D01*
X0085965Y0237957D01*
X0089106Y0237957D01*
X0091157Y0240009D01*
X0093209Y0237957D01*
X0095494Y0237957D01*
X0095557Y0237894D01*
X0095828Y0237624D01*
X0076147Y0237624D01*
X0065644Y0248126D01*
X0065899Y0248741D01*
X0065899Y0256408D01*
X0065261Y0257949D01*
X0064989Y0258220D01*
X0066404Y0258220D01*
X0066404Y0257892D01*
X0066512Y0257488D01*
X0066722Y0257125D01*
X0067018Y0256829D01*
X0067380Y0256619D01*
X0067785Y0256511D01*
X0070585Y0256511D01*
X0070585Y0258220D01*
X0071704Y0258220D01*
X0071704Y0256511D01*
X0074504Y0256511D01*
X0074908Y0256619D01*
X0075271Y0256829D01*
X0075567Y0257125D01*
X0075777Y0257488D01*
X0075885Y0257892D01*
X0075885Y0258220D01*
X0089370Y0258220D01*
X0089370Y0257892D01*
X0089478Y0257488D01*
X0089687Y0257125D01*
X0089984Y0256829D01*
X0090346Y0256619D01*
X0090751Y0256511D01*
X0093551Y0256511D01*
X0093551Y0258220D01*
X0094670Y0258220D01*
X0094670Y0256511D01*
X0097470Y0256511D01*
X0097874Y0256619D01*
X0098237Y0256829D01*
X0098533Y0257125D01*
X0098742Y0257488D01*
X0098851Y0257892D01*
X0098851Y0258220D01*
X0106372Y0258220D01*
X0106185Y0258143D01*
X0105006Y0256964D01*
X0104369Y0255424D01*
X0104369Y0247757D01*
X0105006Y0246217D01*
X0106185Y0245038D01*
X0107725Y0244400D01*
X0109393Y0244400D01*
X0110933Y0245038D01*
X0112112Y0246217D01*
X0112750Y0247757D01*
X0112750Y0255424D01*
X0112112Y0256964D01*
X0110933Y0258143D01*
X0110746Y0258220D01*
X0116372Y0258220D01*
X0116185Y0258143D01*
X0115006Y0256964D01*
X0114369Y0255424D01*
X0114369Y0247757D01*
X0115006Y0246217D01*
X0116185Y0245038D01*
X0117725Y0244400D01*
X0119393Y0244400D01*
X0120933Y0245038D01*
X0122112Y0246217D01*
X0122750Y0247757D01*
X0122750Y0255424D01*
X0122112Y0256964D01*
X0120933Y0258143D01*
X0120746Y0258220D01*
X0126372Y0258220D01*
X0126185Y0258143D01*
X0125006Y0256964D01*
X0124369Y0255424D01*
X0124369Y0247757D01*
X0125006Y0246217D01*
X0126185Y0245038D01*
X0127725Y0244400D01*
X0129393Y0244400D01*
X0130933Y0245038D01*
X0132112Y0246217D01*
X0132750Y0247757D01*
X0132750Y0255424D01*
X0132112Y0256964D01*
X0130933Y0258143D01*
X0130746Y0258220D01*
X0135745Y0258220D01*
X0135569Y0258092D01*
X0135058Y0257581D01*
X0134633Y0256997D01*
X0134305Y0256353D01*
X0134082Y0255666D01*
X0133969Y0254952D01*
X0133969Y0252000D01*
X0138150Y0252000D01*
X0138150Y0251181D01*
X0133969Y0251181D01*
X0133969Y0248229D01*
X0134082Y0247516D01*
X0134305Y0246828D01*
X0134633Y0246185D01*
X0135058Y0245600D01*
X0135119Y0245539D01*
X0133209Y0245539D01*
X0130989Y0243318D01*
X0130989Y0240178D01*
X0132559Y0238608D01*
X0132250Y0238608D01*
X0127880Y0242978D01*
X0126836Y0244021D01*
X0105183Y0244021D01*
X0101797Y0247407D01*
X0100753Y0248450D01*
X0098402Y0248450D01*
X0098572Y0248621D01*
X0098994Y0249201D01*
X0099320Y0249840D01*
X0099541Y0250523D01*
X0099648Y0251197D01*
X0095488Y0251197D01*
X0095488Y0251984D01*
X0099648Y0251984D01*
X0099541Y0252658D01*
X0099320Y0253341D01*
X0098994Y0253980D01*
X0098572Y0254561D01*
X0098065Y0255068D01*
X0097484Y0255490D01*
X0096845Y0255816D01*
X0096162Y0256037D01*
X0095488Y0256144D01*
X0095488Y0251984D01*
X0094701Y0251984D01*
X0094701Y0251197D01*
X0090541Y0251197D01*
X0090648Y0250523D01*
X0090869Y0249840D01*
X0091195Y0249201D01*
X0091617Y0248621D01*
X0091787Y0248450D01*
X0090911Y0248450D01*
X0089173Y0250188D01*
X0089411Y0250763D01*
X0089411Y0252418D01*
X0088778Y0253946D01*
X0087608Y0255116D01*
X0086079Y0255750D01*
X0084425Y0255750D01*
X0082896Y0255116D01*
X0081726Y0253946D01*
X0081093Y0252418D01*
X0081093Y0250763D01*
X0081726Y0249235D01*
X0082896Y0248065D01*
X0084425Y0247431D01*
X0086079Y0247431D01*
X0086654Y0247670D01*
X0088155Y0246169D02*
X0067602Y0246169D01*
X0068782Y0244989D02*
X0085416Y0244989D01*
X0084236Y0243810D02*
X0069961Y0243810D01*
X0071141Y0242630D02*
X0083745Y0242630D01*
X0083745Y0241450D02*
X0072321Y0241450D01*
X0073500Y0240271D02*
X0083745Y0240271D01*
X0084832Y0239091D02*
X0074680Y0239091D01*
X0075859Y0237911D02*
X0095540Y0237911D01*
X0092076Y0239091D02*
X0090239Y0239091D01*
X0090173Y0246669D02*
X0085252Y0251591D01*
X0089068Y0253246D02*
X0090839Y0253246D01*
X0090869Y0253341D02*
X0090648Y0252658D01*
X0090541Y0251984D01*
X0094701Y0251984D01*
X0094701Y0256144D01*
X0094027Y0256037D01*
X0093344Y0255816D01*
X0092705Y0255490D01*
X0092124Y0255068D01*
X0091617Y0254561D01*
X0091195Y0253980D01*
X0090869Y0253341D01*
X0091519Y0254426D02*
X0088298Y0254426D01*
X0086427Y0255606D02*
X0092932Y0255606D01*
X0093551Y0256785D02*
X0094670Y0256785D01*
X0094701Y0255606D02*
X0095488Y0255606D01*
X0095488Y0254426D02*
X0094701Y0254426D01*
X0094701Y0253246D02*
X0095488Y0253246D01*
X0095488Y0252067D02*
X0094701Y0252067D01*
X0097257Y0255606D02*
X0104444Y0255606D01*
X0104369Y0254426D02*
X0098670Y0254426D01*
X0099350Y0253246D02*
X0104369Y0253246D01*
X0104369Y0252067D02*
X0099635Y0252067D01*
X0099599Y0250887D02*
X0104369Y0250887D01*
X0104369Y0249708D02*
X0099252Y0249708D01*
X0098479Y0248528D02*
X0104369Y0248528D01*
X0104538Y0247348D02*
X0101856Y0247348D01*
X0103035Y0246169D02*
X0105055Y0246169D01*
X0104215Y0244989D02*
X0106303Y0244989D01*
X0104445Y0242240D02*
X0100016Y0246669D01*
X0090173Y0246669D01*
X0090833Y0248528D02*
X0091710Y0248528D01*
X0090937Y0249708D02*
X0089654Y0249708D01*
X0089411Y0250887D02*
X0090590Y0250887D01*
X0090554Y0252067D02*
X0089411Y0252067D01*
X0090059Y0256785D02*
X0075196Y0256785D01*
X0074582Y0255750D02*
X0073054Y0255116D01*
X0071884Y0253946D01*
X0071250Y0252418D01*
X0071250Y0250763D01*
X0071884Y0249235D01*
X0073054Y0248065D01*
X0074582Y0247431D01*
X0076237Y0247431D01*
X0077765Y0248065D01*
X0078935Y0249235D01*
X0079568Y0250763D01*
X0079568Y0252418D01*
X0078935Y0253946D01*
X0077765Y0255116D01*
X0076237Y0255750D01*
X0074582Y0255750D01*
X0074235Y0255606D02*
X0065899Y0255606D01*
X0065899Y0254426D02*
X0072363Y0254426D01*
X0071594Y0253246D02*
X0065899Y0253246D01*
X0065899Y0252067D02*
X0071250Y0252067D01*
X0071250Y0250887D02*
X0065899Y0250887D01*
X0065899Y0249708D02*
X0071688Y0249708D01*
X0072590Y0248528D02*
X0065811Y0248528D01*
X0061709Y0249543D02*
X0075409Y0235843D01*
X0120685Y0235843D01*
X0125114Y0231413D01*
X0134780Y0231413D01*
X0139701Y0226492D01*
X0220094Y0226492D01*
X0218287Y0228475D02*
X0140237Y0228475D01*
X0140439Y0228273D02*
X0138570Y0230142D01*
X0138570Y0232983D01*
X0136508Y0235046D01*
X0138155Y0235046D01*
X0139198Y0236089D01*
X0140124Y0237014D01*
X0178605Y0237014D01*
X0178124Y0236533D01*
X0178124Y0234671D01*
X0177811Y0234671D01*
X0177321Y0235161D01*
X0176336Y0235569D01*
X0175270Y0235569D01*
X0174285Y0235161D01*
X0173532Y0234408D01*
X0173124Y0233423D01*
X0173124Y0232357D01*
X0173532Y0231372D01*
X0174285Y0230618D01*
X0175270Y0230210D01*
X0176336Y0230210D01*
X0177321Y0230618D01*
X0177811Y0231109D01*
X0178124Y0231109D01*
X0178124Y0229247D01*
X0178821Y0228549D01*
X0184407Y0228549D01*
X0184614Y0228756D01*
X0184821Y0228549D01*
X0190407Y0228549D01*
X0190614Y0228756D01*
X0190821Y0228549D01*
X0196407Y0228549D01*
X0197105Y0229247D01*
X0197105Y0231109D01*
X0209021Y0231109D01*
X0213044Y0235131D01*
X0213738Y0235131D01*
X0214723Y0235539D01*
X0215476Y0236293D01*
X0215884Y0237278D01*
X0215884Y0238344D01*
X0215476Y0239329D01*
X0214723Y0240083D01*
X0213738Y0240491D01*
X0212672Y0240491D01*
X0211687Y0240083D01*
X0210933Y0239329D01*
X0210525Y0238344D01*
X0210525Y0237650D01*
X0207546Y0234671D01*
X0197105Y0234671D01*
X0197105Y0236533D01*
X0196407Y0237230D01*
X0190821Y0237230D01*
X0190614Y0237023D01*
X0190407Y0237230D01*
X0187761Y0237230D01*
X0185458Y0239533D01*
X0184415Y0240576D01*
X0138648Y0240576D01*
X0138570Y0240498D01*
X0138570Y0240951D01*
X0187504Y0240951D01*
X0187508Y0240941D01*
X0188262Y0240187D01*
X0189247Y0239780D01*
X0190313Y0239780D01*
X0191297Y0240187D01*
X0192051Y0240941D01*
X0192459Y0241926D01*
X0192459Y0242992D01*
X0192051Y0243977D01*
X0191297Y0244731D01*
X0190313Y0245139D01*
X0189247Y0245139D01*
X0188262Y0244731D01*
X0188044Y0244513D01*
X0150340Y0244513D01*
X0150340Y0244792D01*
X0150933Y0245038D01*
X0152112Y0246217D01*
X0152750Y0247757D01*
X0152750Y0255424D01*
X0152112Y0256964D01*
X0150933Y0258143D01*
X0150746Y0258220D01*
X0158267Y0258220D01*
X0158267Y0257892D01*
X0158376Y0257488D01*
X0158585Y0257125D01*
X0158881Y0256829D01*
X0159244Y0256619D01*
X0159648Y0256511D01*
X0162448Y0256511D01*
X0162448Y0258220D01*
X0163567Y0258220D01*
X0163567Y0256511D01*
X0166367Y0256511D01*
X0166772Y0256619D01*
X0167134Y0256829D01*
X0167431Y0257125D01*
X0167640Y0257488D01*
X0167748Y0257892D01*
X0167748Y0258220D01*
X0223047Y0258220D01*
X0223047Y0182953D01*
X0192361Y0182953D01*
X0205170Y0195761D01*
X0205864Y0195761D01*
X0206849Y0196169D01*
X0207602Y0196923D01*
X0208010Y0197908D01*
X0208010Y0198974D01*
X0207602Y0199959D01*
X0206849Y0200713D01*
X0205864Y0201120D01*
X0204798Y0201120D01*
X0203813Y0200713D01*
X0203059Y0199959D01*
X0202651Y0198974D01*
X0202651Y0198280D01*
X0188514Y0184143D01*
X0136160Y0184143D01*
X0136160Y0184210D01*
X0135752Y0185195D01*
X0134998Y0185949D01*
X0134013Y0186357D01*
X0133310Y0186357D01*
X0143367Y0196413D01*
X0144366Y0197413D01*
X0144907Y0198719D01*
X0144907Y0199809D01*
X0147967Y0199809D01*
X0149272Y0200350D01*
X0150272Y0201350D01*
X0150813Y0202656D01*
X0150813Y0204069D01*
X0150272Y0205375D01*
X0149272Y0206374D01*
X0148434Y0206721D01*
X0186658Y0206721D01*
X0194777Y0198602D01*
X0194777Y0197908D01*
X0195185Y0196923D01*
X0195939Y0196169D01*
X0196924Y0195761D01*
X0197990Y0195761D01*
X0198975Y0196169D01*
X0199728Y0196923D01*
X0200136Y0197908D01*
X0200136Y0198974D01*
X0199728Y0199959D01*
X0198975Y0200713D01*
X0197990Y0201120D01*
X0197296Y0201120D01*
X0189176Y0209240D01*
X0188133Y0210283D01*
X0133852Y0210283D01*
X0133359Y0210776D01*
X0129664Y0210776D01*
X0129172Y0210283D01*
X0085308Y0210283D01*
X0079159Y0216433D01*
X0079159Y0229897D01*
X0079650Y0230388D01*
X0080057Y0231373D01*
X0080057Y0232438D01*
X0079650Y0233423D01*
X0079011Y0234061D01*
X0084331Y0234061D01*
X0083745Y0233476D01*
X0083745Y0230335D01*
X0085965Y0228115D01*
X0089106Y0228115D01*
X0090989Y0229998D01*
X0090989Y0229843D01*
X0093209Y0227623D01*
X0096350Y0227623D01*
X0098570Y0229843D01*
X0098570Y0232983D01*
X0097492Y0234061D01*
X0119947Y0234061D01*
X0124376Y0229632D01*
X0131200Y0229632D01*
X0133209Y0227623D01*
X0136051Y0227623D01*
X0138963Y0224711D01*
X0145997Y0224711D01*
X0145900Y0224614D01*
X0145479Y0223597D01*
X0145479Y0222497D01*
X0145736Y0221876D01*
X0138570Y0221876D01*
X0138570Y0223633D01*
X0136350Y0225854D01*
X0133209Y0225854D01*
X0130989Y0223633D01*
X0130989Y0220493D01*
X0132559Y0218923D01*
X0111734Y0218923D01*
X0111542Y0219386D01*
X0110788Y0220140D01*
X0109803Y0220548D01*
X0108737Y0220548D01*
X0107752Y0220140D01*
X0106998Y0219386D01*
X0106591Y0218402D01*
X0106591Y0217336D01*
X0106868Y0216666D01*
X0106372Y0216461D01*
X0105618Y0215707D01*
X0105210Y0214722D01*
X0105210Y0213656D01*
X0105618Y0212671D01*
X0106372Y0211917D01*
X0107357Y0211509D01*
X0108423Y0211509D01*
X0109408Y0211917D01*
X0109898Y0212408D01*
X0211470Y0212408D01*
X0211687Y0212191D01*
X0212672Y0211783D01*
X0213738Y0211783D01*
X0214723Y0212191D01*
X0215476Y0212944D01*
X0215884Y0213929D01*
X0215884Y0214995D01*
X0215733Y0215361D01*
X0218086Y0215361D01*
X0218577Y0214870D01*
X0219561Y0214462D01*
X0220627Y0214462D01*
X0221612Y0214870D01*
X0222366Y0215624D01*
X0222774Y0216609D01*
X0222774Y0217675D01*
X0222366Y0218660D01*
X0221612Y0219413D01*
X0220627Y0219821D01*
X0219561Y0219821D01*
X0218577Y0219413D01*
X0218086Y0218923D01*
X0184124Y0218923D01*
X0184388Y0219561D01*
X0184388Y0220627D01*
X0183980Y0221612D01*
X0183226Y0222366D01*
X0182242Y0222774D01*
X0181176Y0222774D01*
X0180191Y0222366D01*
X0179700Y0221876D01*
X0172405Y0221876D01*
X0172663Y0222497D01*
X0172663Y0223597D01*
X0172242Y0224614D01*
X0172145Y0224711D01*
X0218086Y0224711D01*
X0218577Y0224221D01*
X0219561Y0223813D01*
X0220627Y0223813D01*
X0221612Y0224221D01*
X0222366Y0224974D01*
X0222774Y0225959D01*
X0222774Y0227025D01*
X0222366Y0228010D01*
X0221612Y0228764D01*
X0220627Y0229172D01*
X0219561Y0229172D01*
X0218577Y0228764D01*
X0218086Y0228273D01*
X0140439Y0228273D01*
X0139058Y0229654D02*
X0178124Y0229654D01*
X0178124Y0230834D02*
X0177537Y0230834D01*
X0175803Y0232890D02*
X0181614Y0232890D01*
X0178124Y0235552D02*
X0176377Y0235552D01*
X0175229Y0235552D02*
X0138662Y0235552D01*
X0139198Y0236089D02*
X0139198Y0236089D01*
X0139841Y0236732D02*
X0178323Y0236732D01*
X0174070Y0230834D02*
X0138570Y0230834D01*
X0138570Y0232013D02*
X0173266Y0232013D01*
X0173124Y0233193D02*
X0138361Y0233193D01*
X0137181Y0234373D02*
X0173517Y0234373D01*
X0172597Y0223756D02*
X0223047Y0223756D01*
X0223047Y0222576D02*
X0182719Y0222576D01*
X0184069Y0221397D02*
X0223047Y0221397D01*
X0223047Y0220217D02*
X0184388Y0220217D01*
X0184171Y0219038D02*
X0218201Y0219038D01*
X0220094Y0217142D02*
X0109270Y0217142D01*
X0109270Y0217869D01*
X0106591Y0217858D02*
X0079159Y0217858D01*
X0079159Y0216678D02*
X0106863Y0216678D01*
X0105532Y0215499D02*
X0080093Y0215499D01*
X0081273Y0214319D02*
X0105210Y0214319D01*
X0105424Y0213140D02*
X0082452Y0213140D01*
X0083632Y0211960D02*
X0106329Y0211960D01*
X0107890Y0214189D02*
X0212931Y0214189D01*
X0213205Y0214462D01*
X0214166Y0211960D02*
X0223047Y0211960D01*
X0223047Y0213140D02*
X0215557Y0213140D01*
X0215884Y0214319D02*
X0223047Y0214319D01*
X0223047Y0215499D02*
X0222241Y0215499D01*
X0222774Y0216678D02*
X0223047Y0216678D01*
X0223047Y0217858D02*
X0222698Y0217858D01*
X0223047Y0219038D02*
X0221988Y0219038D01*
X0222327Y0224936D02*
X0223047Y0224936D01*
X0223047Y0226115D02*
X0222774Y0226115D01*
X0222662Y0227295D02*
X0223047Y0227295D01*
X0223047Y0228475D02*
X0221901Y0228475D01*
X0223047Y0229654D02*
X0197105Y0229654D01*
X0197105Y0230834D02*
X0223047Y0230834D01*
X0223047Y0232013D02*
X0209926Y0232013D01*
X0211106Y0233193D02*
X0223047Y0233193D01*
X0223047Y0234373D02*
X0212285Y0234373D01*
X0214735Y0235552D02*
X0223047Y0235552D01*
X0223047Y0236732D02*
X0215658Y0236732D01*
X0215884Y0237911D02*
X0223047Y0237911D01*
X0223047Y0239091D02*
X0215575Y0239091D01*
X0214268Y0240271D02*
X0223047Y0240271D01*
X0223047Y0241450D02*
X0206854Y0241450D01*
X0206849Y0241445D02*
X0207602Y0242199D01*
X0208010Y0243184D01*
X0208010Y0244250D01*
X0207602Y0245234D01*
X0206849Y0245988D01*
X0205864Y0246396D01*
X0205170Y0246396D01*
X0198194Y0253372D01*
X0163048Y0253372D01*
X0162557Y0253862D01*
X0161572Y0254270D01*
X0160506Y0254270D01*
X0159522Y0253862D01*
X0158768Y0253108D01*
X0158360Y0252124D01*
X0158360Y0251058D01*
X0158768Y0250073D01*
X0159522Y0249319D01*
X0160506Y0248911D01*
X0161572Y0248911D01*
X0162557Y0249319D01*
X0163048Y0249809D01*
X0196719Y0249809D01*
X0202651Y0243877D01*
X0202651Y0243184D01*
X0203059Y0242199D01*
X0203813Y0241445D01*
X0204798Y0241037D01*
X0205864Y0241037D01*
X0206849Y0241445D01*
X0207781Y0242630D02*
X0223047Y0242630D01*
X0223047Y0243810D02*
X0208010Y0243810D01*
X0207704Y0244989D02*
X0223047Y0244989D01*
X0223047Y0246169D02*
X0206412Y0246169D01*
X0204218Y0247348D02*
X0223047Y0247348D01*
X0223047Y0248528D02*
X0203038Y0248528D01*
X0201858Y0249708D02*
X0223047Y0249708D01*
X0223047Y0250887D02*
X0200679Y0250887D01*
X0199499Y0252067D02*
X0223047Y0252067D01*
X0223047Y0253246D02*
X0198320Y0253246D01*
X0197457Y0251591D02*
X0205331Y0243717D01*
X0202880Y0242630D02*
X0192459Y0242630D01*
X0192262Y0241450D02*
X0198291Y0241450D01*
X0198138Y0241297D02*
X0197730Y0240313D01*
X0197730Y0239247D01*
X0198138Y0238262D01*
X0198892Y0237508D01*
X0199876Y0237100D01*
X0200942Y0237100D01*
X0201927Y0237508D01*
X0202681Y0238262D01*
X0203089Y0239247D01*
X0203089Y0240313D01*
X0202681Y0241297D01*
X0201927Y0242051D01*
X0200942Y0242459D01*
X0199876Y0242459D01*
X0198892Y0242051D01*
X0198138Y0241297D01*
X0197730Y0240271D02*
X0191381Y0240271D01*
X0189780Y0242459D02*
X0189506Y0242732D01*
X0148559Y0242732D01*
X0135764Y0242732D01*
X0134780Y0241748D01*
X0132076Y0239091D02*
X0131766Y0239091D01*
X0130989Y0240271D02*
X0130587Y0240271D01*
X0130989Y0241450D02*
X0129407Y0241450D01*
X0128228Y0242630D02*
X0130989Y0242630D01*
X0131480Y0243810D02*
X0127048Y0243810D01*
X0126303Y0244989D02*
X0120815Y0244989D01*
X0122064Y0246169D02*
X0125055Y0246169D01*
X0124538Y0247348D02*
X0122580Y0247348D01*
X0122750Y0248528D02*
X0124369Y0248528D01*
X0124369Y0249708D02*
X0122750Y0249708D01*
X0122750Y0250887D02*
X0124369Y0250887D01*
X0124369Y0252067D02*
X0122750Y0252067D01*
X0122750Y0253246D02*
X0124369Y0253246D01*
X0124369Y0254426D02*
X0122750Y0254426D01*
X0122674Y0255606D02*
X0124444Y0255606D01*
X0124932Y0256785D02*
X0122186Y0256785D01*
X0121111Y0257965D02*
X0126007Y0257965D01*
X0131111Y0257965D02*
X0135441Y0257965D01*
X0134525Y0256785D02*
X0132186Y0256785D01*
X0132674Y0255606D02*
X0134072Y0255606D01*
X0133969Y0254426D02*
X0132750Y0254426D01*
X0132750Y0253246D02*
X0133969Y0253246D01*
X0133969Y0252067D02*
X0132750Y0252067D01*
X0132750Y0250887D02*
X0133969Y0250887D01*
X0133969Y0249708D02*
X0132750Y0249708D01*
X0132750Y0248528D02*
X0133969Y0248528D01*
X0134136Y0247348D02*
X0132580Y0247348D01*
X0132064Y0246169D02*
X0134644Y0246169D01*
X0132660Y0244989D02*
X0130815Y0244989D01*
X0126098Y0242240D02*
X0104445Y0242240D01*
X0110815Y0244989D02*
X0116303Y0244989D01*
X0115055Y0246169D02*
X0112064Y0246169D01*
X0112580Y0247348D02*
X0114538Y0247348D01*
X0114369Y0248528D02*
X0112750Y0248528D01*
X0112750Y0249708D02*
X0114369Y0249708D01*
X0114369Y0250887D02*
X0112750Y0250887D01*
X0112750Y0252067D02*
X0114369Y0252067D01*
X0114369Y0253246D02*
X0112750Y0253246D01*
X0112750Y0254426D02*
X0114369Y0254426D01*
X0114444Y0255606D02*
X0112674Y0255606D01*
X0112186Y0256785D02*
X0114932Y0256785D01*
X0116007Y0257965D02*
X0111111Y0257965D01*
X0106007Y0257965D02*
X0098851Y0257965D01*
X0098161Y0256785D02*
X0104932Y0256785D01*
X0098851Y0268583D02*
X0098851Y0268911D01*
X0098742Y0269316D01*
X0098533Y0269678D01*
X0098237Y0269974D01*
X0097874Y0270184D01*
X0097470Y0270292D01*
X0094670Y0270292D01*
X0094670Y0268583D01*
X0093551Y0268583D01*
X0093551Y0270292D01*
X0090751Y0270292D01*
X0090346Y0270184D01*
X0089984Y0269974D01*
X0089687Y0269678D01*
X0089478Y0269316D01*
X0089370Y0268911D01*
X0089370Y0268583D01*
X0075885Y0268583D01*
X0075885Y0268911D01*
X0075777Y0269316D01*
X0075567Y0269678D01*
X0075271Y0269974D01*
X0074908Y0270184D01*
X0074504Y0270292D01*
X0071704Y0270292D01*
X0071704Y0268583D01*
X0070585Y0268583D01*
X0070585Y0270292D01*
X0067785Y0270292D01*
X0067380Y0270184D01*
X0067018Y0269974D01*
X0066722Y0269678D01*
X0066512Y0269316D01*
X0066404Y0268911D01*
X0066404Y0268583D01*
X0045301Y0268583D01*
X0045301Y0269242D01*
X0044604Y0269939D01*
X0044120Y0269939D01*
X0044120Y0302416D01*
X0043639Y0303577D01*
X0028971Y0318245D01*
X0027809Y0318726D01*
X0026553Y0318726D01*
X0025392Y0318245D01*
X0024503Y0317356D01*
X0024022Y0316195D01*
X0024022Y0314939D01*
X0024503Y0313777D01*
X0037802Y0300479D01*
X0037802Y0269939D01*
X0037317Y0269939D01*
X0036620Y0269242D01*
X0036620Y0268583D01*
X0030281Y0268583D01*
X0030281Y0268911D01*
X0030173Y0269316D01*
X0029963Y0269678D01*
X0029667Y0269974D01*
X0029305Y0270184D01*
X0028900Y0270292D01*
X0026100Y0270292D01*
X0026100Y0268583D01*
X0024981Y0268583D01*
X0024981Y0270292D01*
X0022622Y0270292D01*
X0022622Y0272118D01*
X0016701Y0272118D01*
X0016701Y0273299D01*
X0022622Y0273299D01*
X0022622Y0277839D01*
X0022514Y0278244D01*
X0022304Y0278607D01*
X0022008Y0278903D01*
X0021645Y0279112D01*
X0021241Y0279220D01*
X0016701Y0279220D01*
X0016701Y0273299D01*
X0015520Y0273299D01*
X0015520Y0279220D01*
X0010980Y0279220D01*
X0010575Y0279112D01*
X0010212Y0278903D01*
X0009916Y0278607D01*
X0009707Y0278244D01*
X0009598Y0277839D01*
X0009598Y0273299D01*
X0015520Y0273299D01*
X0015520Y0272118D01*
X0009598Y0272118D01*
X0009598Y0268583D01*
X0009134Y0268583D01*
X0009134Y0345425D01*
X0009998Y0345425D01*
X0009998Y0335294D01*
X0010696Y0334597D01*
X0021525Y0334597D01*
X0022222Y0335294D01*
X0022222Y0345425D01*
X0031216Y0345425D01*
X0030666Y0345108D01*
X0028711Y0343153D01*
X0027329Y0340760D01*
X0026614Y0338090D01*
X0026614Y0335327D01*
X0027329Y0332657D01*
X0028711Y0330264D01*
X0030666Y0328310D01*
X0033059Y0326928D01*
X0035728Y0326213D01*
X0038492Y0326213D01*
X0041162Y0326928D01*
X0043555Y0328310D01*
X0045509Y0330264D01*
X0046891Y0332657D01*
X0047606Y0335327D01*
X0047606Y0338090D01*
X0046891Y0340760D01*
X0045509Y0343153D01*
X0043555Y0345108D01*
X0043005Y0345425D01*
X0165998Y0345425D01*
X0165998Y0335294D01*
X0166696Y0334597D01*
X0177525Y0334597D01*
X0178222Y0335294D01*
X0178222Y0345425D01*
X0179740Y0345425D01*
X0179740Y0268583D01*
X0178622Y0268583D01*
X0178622Y0272118D01*
X0172701Y0272118D01*
X0172701Y0273299D01*
X0178622Y0273299D01*
X0178622Y0277839D01*
X0178514Y0278244D01*
X0178304Y0278607D01*
X0178008Y0278903D01*
X0177645Y0279112D01*
X0177241Y0279220D01*
X0172701Y0279220D01*
X0172701Y0273299D01*
X0171520Y0273299D01*
X0171520Y0279220D01*
X0166980Y0279220D01*
X0166575Y0279112D01*
X0166212Y0278903D01*
X0165916Y0278607D01*
X0165707Y0278244D01*
X0165598Y0277839D01*
X0165598Y0273299D01*
X0171520Y0273299D01*
X0171520Y0272118D01*
X0165598Y0272118D01*
X0165598Y0270292D01*
X0163567Y0270292D01*
X0163567Y0268583D01*
X0162448Y0268583D01*
X0162448Y0270203D01*
X0162509Y0270264D01*
X0163891Y0272657D01*
X0164606Y0275327D01*
X0164606Y0278090D01*
X0163891Y0280760D01*
X0162509Y0283153D01*
X0160555Y0285108D01*
X0158162Y0286489D01*
X0155492Y0287205D01*
X0152728Y0287205D01*
X0150059Y0286489D01*
X0147666Y0285108D01*
X0145711Y0283153D01*
X0144329Y0280760D01*
X0143614Y0278090D01*
X0143614Y0275327D01*
X0144329Y0272657D01*
X0145711Y0270264D01*
X0147393Y0268583D01*
X0098851Y0268583D01*
X0098450Y0269761D02*
X0146214Y0269761D01*
X0145321Y0270941D02*
X0044120Y0270941D01*
X0044120Y0272120D02*
X0144640Y0272120D01*
X0144157Y0273300D02*
X0044120Y0273300D01*
X0044120Y0274479D02*
X0143841Y0274479D01*
X0143614Y0275659D02*
X0044120Y0275659D01*
X0044120Y0276839D02*
X0143614Y0276839D01*
X0143614Y0278018D02*
X0044120Y0278018D01*
X0044120Y0279198D02*
X0143911Y0279198D01*
X0144227Y0280378D02*
X0044120Y0280378D01*
X0044120Y0281557D02*
X0144790Y0281557D01*
X0145471Y0282737D02*
X0044120Y0282737D01*
X0044120Y0283916D02*
X0146474Y0283916D01*
X0147654Y0285096D02*
X0044120Y0285096D01*
X0044120Y0286276D02*
X0149689Y0286276D01*
X0158532Y0286276D02*
X0179740Y0286276D01*
X0179740Y0287455D02*
X0044120Y0287455D01*
X0044120Y0288635D02*
X0179740Y0288635D01*
X0179740Y0289814D02*
X0044120Y0289814D01*
X0044120Y0290994D02*
X0179740Y0290994D01*
X0179740Y0292174D02*
X0044120Y0292174D01*
X0044120Y0293353D02*
X0179740Y0293353D01*
X0179740Y0294533D02*
X0044120Y0294533D01*
X0044120Y0295713D02*
X0179740Y0295713D01*
X0179740Y0296892D02*
X0044120Y0296892D01*
X0044120Y0298072D02*
X0179740Y0298072D01*
X0179740Y0299251D02*
X0044120Y0299251D01*
X0044120Y0300431D02*
X0179740Y0300431D01*
X0179740Y0301611D02*
X0044120Y0301611D01*
X0043965Y0302790D02*
X0179740Y0302790D01*
X0179740Y0303970D02*
X0043246Y0303970D01*
X0042066Y0305149D02*
X0179740Y0305149D01*
X0179740Y0306329D02*
X0040887Y0306329D01*
X0039707Y0307509D02*
X0179740Y0307509D01*
X0179740Y0308688D02*
X0038527Y0308688D01*
X0037348Y0309868D02*
X0179740Y0309868D01*
X0179740Y0311048D02*
X0036168Y0311048D01*
X0034988Y0312227D02*
X0179740Y0312227D01*
X0179740Y0313407D02*
X0033809Y0313407D01*
X0032629Y0314586D02*
X0179740Y0314586D01*
X0179740Y0315766D02*
X0031450Y0315766D01*
X0030270Y0316946D02*
X0179740Y0316946D01*
X0179740Y0318125D02*
X0029090Y0318125D01*
X0025272Y0318125D02*
X0009134Y0318125D01*
X0009134Y0316946D02*
X0024333Y0316946D01*
X0024022Y0315766D02*
X0009134Y0315766D01*
X0009134Y0314586D02*
X0024168Y0314586D01*
X0024874Y0313407D02*
X0009134Y0313407D01*
X0009134Y0312227D02*
X0026053Y0312227D01*
X0027233Y0311048D02*
X0009134Y0311048D01*
X0009134Y0309868D02*
X0028413Y0309868D01*
X0029592Y0308688D02*
X0009134Y0308688D01*
X0009134Y0307509D02*
X0030772Y0307509D01*
X0031951Y0306329D02*
X0009134Y0306329D01*
X0009134Y0305149D02*
X0033131Y0305149D01*
X0034311Y0303970D02*
X0009134Y0303970D01*
X0009134Y0302790D02*
X0035490Y0302790D01*
X0036670Y0301611D02*
X0009134Y0301611D01*
X0009134Y0300431D02*
X0037802Y0300431D01*
X0037802Y0299251D02*
X0009134Y0299251D01*
X0009134Y0298072D02*
X0037802Y0298072D01*
X0037802Y0296892D02*
X0009134Y0296892D01*
X0009134Y0295713D02*
X0037802Y0295713D01*
X0037802Y0294533D02*
X0009134Y0294533D01*
X0009134Y0293353D02*
X0037802Y0293353D01*
X0037802Y0292174D02*
X0009134Y0292174D01*
X0009134Y0290994D02*
X0037802Y0290994D01*
X0037802Y0289814D02*
X0009134Y0289814D01*
X0009134Y0288635D02*
X0037802Y0288635D01*
X0037802Y0287455D02*
X0009134Y0287455D01*
X0009134Y0286276D02*
X0037802Y0286276D01*
X0037802Y0285096D02*
X0009134Y0285096D01*
X0009134Y0283916D02*
X0037802Y0283916D01*
X0037802Y0282737D02*
X0009134Y0282737D01*
X0009134Y0281557D02*
X0037802Y0281557D01*
X0037802Y0280378D02*
X0009134Y0280378D01*
X0009134Y0279198D02*
X0010895Y0279198D01*
X0009646Y0278018D02*
X0009134Y0278018D01*
X0009134Y0276839D02*
X0009598Y0276839D01*
X0009598Y0275659D02*
X0009134Y0275659D01*
X0009134Y0274479D02*
X0009598Y0274479D01*
X0009598Y0273300D02*
X0009134Y0273300D01*
X0009134Y0272120D02*
X0015520Y0272120D01*
X0015520Y0273300D02*
X0016701Y0273300D01*
X0016701Y0274479D02*
X0015520Y0274479D01*
X0015520Y0275659D02*
X0016701Y0275659D01*
X0016701Y0276839D02*
X0015520Y0276839D01*
X0015520Y0278018D02*
X0016701Y0278018D01*
X0016701Y0279198D02*
X0015520Y0279198D01*
X0016701Y0272120D02*
X0037802Y0272120D01*
X0037802Y0270941D02*
X0022622Y0270941D01*
X0022622Y0273300D02*
X0037802Y0273300D01*
X0037802Y0274479D02*
X0022622Y0274479D01*
X0022622Y0275659D02*
X0037802Y0275659D01*
X0037802Y0276839D02*
X0022622Y0276839D01*
X0022574Y0278018D02*
X0037802Y0278018D01*
X0037802Y0279198D02*
X0021325Y0279198D01*
X0024981Y0269761D02*
X0026100Y0269761D01*
X0029881Y0269761D02*
X0037139Y0269761D01*
X0044782Y0269761D02*
X0066804Y0269761D01*
X0070585Y0269761D02*
X0071704Y0269761D01*
X0075484Y0269761D02*
X0089770Y0269761D01*
X0093551Y0269761D02*
X0094670Y0269761D01*
X0094670Y0257965D02*
X0093551Y0257965D01*
X0089370Y0257965D02*
X0075885Y0257965D01*
X0076584Y0255606D02*
X0084077Y0255606D01*
X0082206Y0254426D02*
X0078456Y0254426D01*
X0079225Y0253246D02*
X0081436Y0253246D01*
X0081093Y0252067D02*
X0079568Y0252067D01*
X0079568Y0250887D02*
X0081093Y0250887D01*
X0081530Y0249708D02*
X0079131Y0249708D01*
X0078229Y0248528D02*
X0082433Y0248528D01*
X0071704Y0256785D02*
X0070585Y0256785D01*
X0070585Y0257965D02*
X0071704Y0257965D01*
X0067093Y0256785D02*
X0065743Y0256785D01*
X0065245Y0257965D02*
X0066404Y0257965D01*
X0061709Y0252575D02*
X0061709Y0249543D01*
X0059188Y0246169D02*
X0054795Y0246169D01*
X0055726Y0247348D02*
X0058095Y0247348D01*
X0057606Y0248528D02*
X0056191Y0248528D01*
X0056299Y0249708D02*
X0057518Y0249708D01*
X0057518Y0250887D02*
X0056299Y0250887D01*
X0056299Y0252067D02*
X0057518Y0252067D01*
X0057518Y0253246D02*
X0056299Y0253246D01*
X0056299Y0254426D02*
X0057518Y0254426D01*
X0057518Y0255606D02*
X0056299Y0255606D01*
X0056142Y0256785D02*
X0057674Y0256785D01*
X0058172Y0257965D02*
X0055643Y0257965D01*
X0051299Y0252984D02*
X0051299Y0252165D01*
X0047632Y0252165D01*
X0047576Y0252301D01*
X0046687Y0253190D01*
X0045301Y0254576D01*
X0045301Y0257242D01*
X0045094Y0257449D01*
X0045301Y0257656D01*
X0045301Y0258220D01*
X0047957Y0258220D01*
X0047782Y0257981D01*
X0047454Y0257337D01*
X0047231Y0256650D01*
X0047118Y0255936D01*
X0047118Y0252984D01*
X0051299Y0252984D01*
X0051299Y0252067D02*
X0052118Y0252067D01*
X0052118Y0250887D02*
X0051299Y0250887D01*
X0051299Y0249708D02*
X0052118Y0249708D01*
X0052118Y0248528D02*
X0051299Y0248528D01*
X0051299Y0247348D02*
X0052118Y0247348D01*
X0052118Y0246169D02*
X0051299Y0246169D01*
X0048623Y0246169D02*
X0046896Y0246169D01*
X0047535Y0241748D02*
X0083461Y0205823D01*
X0123293Y0205823D01*
X0131586Y0197530D01*
X0129060Y0196625D02*
X0122254Y0196625D01*
X0122254Y0196899D02*
X0126785Y0196899D01*
X0126785Y0199812D01*
X0128906Y0197691D01*
X0128906Y0196997D01*
X0129314Y0196013D01*
X0130068Y0195259D01*
X0131053Y0194851D01*
X0131756Y0194851D01*
X0125119Y0188214D01*
X0123957Y0188214D01*
X0124350Y0188415D01*
X0125002Y0188888D01*
X0125571Y0189457D01*
X0126044Y0190109D01*
X0126410Y0190826D01*
X0126659Y0191592D01*
X0126785Y0192387D01*
X0126785Y0195730D01*
X0122254Y0195730D01*
X0122254Y0196899D01*
X0121085Y0196899D02*
X0121085Y0195730D01*
X0116554Y0195730D01*
X0116554Y0192387D01*
X0116680Y0191592D01*
X0116929Y0190826D01*
X0117294Y0190109D01*
X0117767Y0189457D01*
X0118337Y0188888D01*
X0118988Y0188415D01*
X0119382Y0188214D01*
X0103260Y0188214D01*
X0104655Y0188792D01*
X0105982Y0190119D01*
X0106700Y0191852D01*
X0106700Y0200778D01*
X0105982Y0202511D01*
X0104655Y0203838D01*
X0104163Y0204042D01*
X0118749Y0204042D01*
X0118337Y0203742D01*
X0117767Y0203173D01*
X0117294Y0202521D01*
X0116929Y0201804D01*
X0116680Y0201038D01*
X0116554Y0200243D01*
X0116554Y0196899D01*
X0121085Y0196899D01*
X0121085Y0196625D02*
X0106700Y0196625D01*
X0106700Y0197805D02*
X0116554Y0197805D01*
X0116554Y0198984D02*
X0106700Y0198984D01*
X0106700Y0200164D02*
X0116554Y0200164D01*
X0116779Y0201343D02*
X0106466Y0201343D01*
X0105970Y0202523D02*
X0117296Y0202523D01*
X0118298Y0203703D02*
X0104790Y0203703D01*
X0099806Y0204042D02*
X0099313Y0203838D01*
X0097987Y0202511D01*
X0097269Y0200778D01*
X0097269Y0191852D01*
X0097987Y0190119D01*
X0099313Y0188792D01*
X0100709Y0188214D01*
X0095424Y0188214D01*
X0087015Y0196624D01*
X0087015Y0200778D01*
X0086297Y0202511D01*
X0084970Y0203838D01*
X0084477Y0204042D01*
X0099806Y0204042D01*
X0099178Y0203703D02*
X0085105Y0203703D01*
X0086285Y0202523D02*
X0097999Y0202523D01*
X0097503Y0201343D02*
X0086781Y0201343D01*
X0087015Y0200164D02*
X0097269Y0200164D01*
X0097269Y0198984D02*
X0087015Y0198984D01*
X0087015Y0197805D02*
X0097269Y0197805D01*
X0097269Y0196625D02*
X0087015Y0196625D01*
X0088193Y0195445D02*
X0097269Y0195445D01*
X0097269Y0194266D02*
X0089373Y0194266D01*
X0090552Y0193086D02*
X0097269Y0193086D01*
X0097269Y0191907D02*
X0091732Y0191907D01*
X0092912Y0190727D02*
X0097735Y0190727D01*
X0098558Y0189547D02*
X0094091Y0189547D01*
X0095271Y0188368D02*
X0100338Y0188368D01*
X0103630Y0188368D02*
X0119081Y0188368D01*
X0117702Y0189547D02*
X0105410Y0189547D01*
X0106234Y0190727D02*
X0116979Y0190727D01*
X0116630Y0191907D02*
X0106700Y0191907D01*
X0106700Y0193086D02*
X0116554Y0193086D01*
X0116554Y0194266D02*
X0106700Y0194266D01*
X0106700Y0195445D02*
X0116554Y0195445D01*
X0124258Y0188368D02*
X0125272Y0188368D01*
X0125637Y0189547D02*
X0126452Y0189547D01*
X0126359Y0190727D02*
X0127632Y0190727D01*
X0126709Y0191907D02*
X0128811Y0191907D01*
X0129991Y0193086D02*
X0126785Y0193086D01*
X0126785Y0194266D02*
X0131171Y0194266D01*
X0129881Y0195445D02*
X0126785Y0195445D01*
X0126785Y0197805D02*
X0128793Y0197805D01*
X0127613Y0198984D02*
X0126785Y0198984D01*
X0130291Y0201343D02*
X0132443Y0201343D01*
X0132437Y0201350D02*
X0133436Y0200350D01*
X0134742Y0199809D01*
X0136714Y0199809D01*
X0134265Y0197360D01*
X0134265Y0198063D01*
X0133857Y0199048D01*
X0133103Y0199802D01*
X0132119Y0200210D01*
X0131425Y0200210D01*
X0124914Y0206721D01*
X0130648Y0206721D01*
X0131140Y0207213D01*
X0131884Y0207213D01*
X0132376Y0206721D01*
X0134275Y0206721D01*
X0133436Y0206374D01*
X0132437Y0205375D01*
X0131896Y0204069D01*
X0131896Y0202656D01*
X0132437Y0201350D01*
X0132230Y0200164D02*
X0133887Y0200164D01*
X0133884Y0198984D02*
X0135889Y0198984D01*
X0134709Y0197805D02*
X0134265Y0197805D01*
X0138860Y0191907D02*
X0196277Y0191907D01*
X0197457Y0193086D02*
X0140040Y0193086D01*
X0141219Y0194266D02*
X0198637Y0194266D01*
X0199816Y0195445D02*
X0142399Y0195445D01*
X0143578Y0196625D02*
X0195483Y0196625D01*
X0194820Y0197805D02*
X0144529Y0197805D01*
X0144907Y0198984D02*
X0194395Y0198984D01*
X0193215Y0200164D02*
X0148822Y0200164D01*
X0150265Y0201343D02*
X0192035Y0201343D01*
X0190856Y0202523D02*
X0150758Y0202523D01*
X0150813Y0203703D02*
X0189676Y0203703D01*
X0188497Y0204882D02*
X0150476Y0204882D01*
X0149584Y0206062D02*
X0187317Y0206062D01*
X0187395Y0208502D02*
X0133114Y0208502D01*
X0132622Y0208994D01*
X0130402Y0208994D01*
X0129910Y0208502D01*
X0084571Y0208502D01*
X0077378Y0215695D01*
X0077378Y0231906D01*
X0079834Y0230834D02*
X0083745Y0230834D01*
X0083745Y0232013D02*
X0080057Y0232013D01*
X0079745Y0233193D02*
X0083745Y0233193D01*
X0084426Y0229654D02*
X0079159Y0229654D01*
X0079159Y0228475D02*
X0085606Y0228475D01*
X0085965Y0225854D02*
X0083745Y0223633D01*
X0083745Y0220493D01*
X0085965Y0218272D01*
X0089106Y0218272D01*
X0091157Y0220324D01*
X0093209Y0218272D01*
X0096350Y0218272D01*
X0098570Y0220493D01*
X0098570Y0223633D01*
X0096350Y0225854D01*
X0093209Y0225854D01*
X0091157Y0223802D01*
X0089106Y0225854D01*
X0085965Y0225854D01*
X0085048Y0224936D02*
X0079159Y0224936D01*
X0079159Y0226115D02*
X0137559Y0226115D01*
X0137267Y0224936D02*
X0138738Y0224936D01*
X0138447Y0223756D02*
X0145545Y0223756D01*
X0145479Y0222576D02*
X0138570Y0222576D01*
X0136748Y0220094D02*
X0134780Y0222063D01*
X0136748Y0220094D02*
X0181709Y0220094D01*
X0180699Y0222576D02*
X0172663Y0222576D01*
X0187614Y0234858D02*
X0183677Y0238795D01*
X0139386Y0238795D01*
X0137417Y0236827D01*
X0131512Y0236827D01*
X0126098Y0242240D01*
X0127302Y0238518D02*
X0130774Y0235046D01*
X0133051Y0235046D01*
X0131200Y0233194D01*
X0125852Y0233194D01*
X0122466Y0236580D01*
X0122426Y0236620D01*
X0123007Y0236620D01*
X0123104Y0236524D01*
X0124089Y0236116D01*
X0125155Y0236116D01*
X0126140Y0236524D01*
X0126894Y0237277D01*
X0127302Y0238262D01*
X0127302Y0238518D01*
X0127156Y0237911D02*
X0127908Y0237911D01*
X0129088Y0236732D02*
X0126348Y0236732D01*
X0124674Y0234373D02*
X0132378Y0234373D01*
X0130267Y0235552D02*
X0123494Y0235552D01*
X0120816Y0233193D02*
X0098361Y0233193D01*
X0098570Y0232013D02*
X0121995Y0232013D01*
X0123175Y0230834D02*
X0098570Y0230834D01*
X0098381Y0229654D02*
X0124355Y0229654D01*
X0131112Y0223756D02*
X0098447Y0223756D01*
X0098570Y0222576D02*
X0130989Y0222576D01*
X0130989Y0221397D02*
X0098570Y0221397D01*
X0098294Y0220217D02*
X0107938Y0220217D01*
X0106854Y0219038D02*
X0097115Y0219038D01*
X0092444Y0219038D02*
X0089871Y0219038D01*
X0091050Y0220217D02*
X0091265Y0220217D01*
X0092292Y0224936D02*
X0090023Y0224936D01*
X0089465Y0228475D02*
X0092358Y0228475D01*
X0091178Y0229654D02*
X0090645Y0229654D01*
X0097201Y0228475D02*
X0132358Y0228475D01*
X0132292Y0224936D02*
X0097267Y0224936D01*
X0085200Y0219038D02*
X0079159Y0219038D01*
X0079159Y0220217D02*
X0084021Y0220217D01*
X0083745Y0221397D02*
X0079159Y0221397D01*
X0079159Y0222576D02*
X0083745Y0222576D01*
X0083868Y0223756D02*
X0079159Y0223756D01*
X0079159Y0227295D02*
X0136379Y0227295D01*
X0131265Y0220217D02*
X0110602Y0220217D01*
X0111686Y0219038D02*
X0132444Y0219038D01*
X0133124Y0206062D02*
X0125573Y0206062D01*
X0126753Y0204882D02*
X0132233Y0204882D01*
X0131896Y0203703D02*
X0127932Y0203703D01*
X0129112Y0202523D02*
X0131951Y0202523D01*
X0137680Y0190727D02*
X0195098Y0190727D01*
X0193918Y0189547D02*
X0136501Y0189547D01*
X0135321Y0188368D02*
X0192739Y0188368D01*
X0191559Y0187188D02*
X0134142Y0187188D01*
X0134854Y0186008D02*
X0190379Y0186008D01*
X0189200Y0184829D02*
X0135904Y0184829D01*
X0133480Y0183677D02*
X0134795Y0182362D01*
X0189252Y0182362D01*
X0205331Y0198441D01*
X0207304Y0196625D02*
X0223047Y0196625D01*
X0223047Y0197805D02*
X0207967Y0197805D01*
X0208006Y0198984D02*
X0223047Y0198984D01*
X0223047Y0200164D02*
X0207397Y0200164D01*
X0203264Y0200164D02*
X0199523Y0200164D01*
X0200132Y0198984D02*
X0202655Y0198984D01*
X0202176Y0197805D02*
X0200093Y0197805D01*
X0199430Y0196625D02*
X0200996Y0196625D01*
X0203674Y0194266D02*
X0223047Y0194266D01*
X0223047Y0195445D02*
X0204854Y0195445D01*
X0202495Y0193086D02*
X0223047Y0193086D01*
X0223047Y0191907D02*
X0201315Y0191907D01*
X0200136Y0190727D02*
X0223047Y0190727D01*
X0223047Y0189547D02*
X0198956Y0189547D01*
X0197776Y0188368D02*
X0223047Y0188368D01*
X0223047Y0187188D02*
X0196597Y0187188D01*
X0195417Y0186008D02*
X0223047Y0186008D01*
X0223047Y0184829D02*
X0194237Y0184829D01*
X0193058Y0183649D02*
X0223047Y0183649D01*
X0223047Y0201343D02*
X0197073Y0201343D01*
X0195893Y0202523D02*
X0223047Y0202523D01*
X0223047Y0203703D02*
X0194714Y0203703D01*
X0193534Y0204882D02*
X0223047Y0204882D01*
X0223047Y0206062D02*
X0192355Y0206062D01*
X0191175Y0207241D02*
X0223047Y0207241D01*
X0223047Y0208421D02*
X0189995Y0208421D01*
X0188816Y0209601D02*
X0223047Y0209601D01*
X0223047Y0210780D02*
X0084811Y0210780D01*
X0079523Y0207241D02*
X0009134Y0207241D01*
X0009134Y0208421D02*
X0078343Y0208421D01*
X0077164Y0209601D02*
X0009134Y0209601D01*
X0009134Y0210780D02*
X0075984Y0210780D01*
X0075597Y0216678D02*
X0075124Y0216678D01*
X0075597Y0217858D02*
X0073944Y0217858D01*
X0072765Y0219038D02*
X0075597Y0219038D01*
X0075597Y0220217D02*
X0071585Y0220217D01*
X0070405Y0221397D02*
X0075597Y0221397D01*
X0075597Y0222576D02*
X0069226Y0222576D01*
X0068046Y0223756D02*
X0075597Y0223756D01*
X0075597Y0224936D02*
X0066867Y0224936D01*
X0065687Y0226115D02*
X0075597Y0226115D01*
X0075597Y0227295D02*
X0064507Y0227295D01*
X0063328Y0228475D02*
X0075597Y0228475D01*
X0075597Y0229654D02*
X0062148Y0229654D01*
X0060969Y0230834D02*
X0074922Y0230834D01*
X0074698Y0232013D02*
X0059789Y0232013D01*
X0058609Y0233193D02*
X0075011Y0233193D01*
X0074360Y0234373D02*
X0057430Y0234373D01*
X0056250Y0235552D02*
X0073181Y0235552D01*
X0072001Y0236732D02*
X0055070Y0236732D01*
X0053891Y0237911D02*
X0070822Y0237911D01*
X0069642Y0239091D02*
X0052711Y0239091D01*
X0044832Y0239091D02*
X0044817Y0239091D01*
X0043745Y0240271D02*
X0043638Y0240271D01*
X0043745Y0241450D02*
X0042458Y0241450D01*
X0043357Y0242630D02*
X0043745Y0242630D01*
X0038242Y0236732D02*
X0009134Y0236732D01*
X0009134Y0237911D02*
X0037062Y0237911D01*
X0037203Y0237771D02*
X0037203Y0237771D01*
X0036135Y0239091D02*
X0009134Y0239091D01*
X0009134Y0240271D02*
X0035833Y0240271D01*
X0035833Y0241450D02*
X0009134Y0241450D01*
X0009134Y0242630D02*
X0035833Y0242630D01*
X0035833Y0243810D02*
X0031484Y0243810D01*
X0032659Y0244989D02*
X0035833Y0244989D01*
X0035833Y0246169D02*
X0033148Y0246169D01*
X0033374Y0247348D02*
X0035833Y0247348D01*
X0035833Y0248528D02*
X0033507Y0248528D01*
X0034687Y0249708D02*
X0035833Y0249708D01*
X0035807Y0250887D02*
X0035833Y0250887D01*
X0029928Y0254426D02*
X0019392Y0254426D01*
X0019880Y0255606D02*
X0029928Y0255606D01*
X0029928Y0256785D02*
X0029592Y0256785D01*
X0029291Y0253246D02*
X0018903Y0253246D01*
X0018064Y0252067D02*
X0019941Y0252067D01*
X0018174Y0250887D02*
X0016884Y0250887D01*
X0017356Y0249708D02*
X0014914Y0249708D01*
X0016893Y0248528D02*
X0009134Y0248528D01*
X0009134Y0247348D02*
X0016893Y0247348D01*
X0017120Y0246169D02*
X0009134Y0246169D01*
X0009134Y0244989D02*
X0017608Y0244989D01*
X0018784Y0243810D02*
X0009134Y0243810D01*
X0009134Y0235552D02*
X0039421Y0235552D01*
X0040601Y0234373D02*
X0009134Y0234373D01*
X0009134Y0233193D02*
X0041780Y0233193D01*
X0042960Y0232013D02*
X0031795Y0232013D01*
X0031991Y0231870D02*
X0031340Y0232344D01*
X0030623Y0232709D01*
X0029857Y0232958D01*
X0029061Y0233084D01*
X0025718Y0233084D01*
X0025718Y0228553D01*
X0024549Y0228553D01*
X0024549Y0227384D01*
X0016522Y0227384D01*
X0016619Y0226771D01*
X0016868Y0226005D01*
X0017234Y0225287D01*
X0017707Y0224636D01*
X0018276Y0224067D01*
X0018928Y0223593D01*
X0019645Y0223228D01*
X0020411Y0222979D01*
X0021206Y0222853D01*
X0024549Y0222853D01*
X0024549Y0227384D01*
X0025718Y0227384D01*
X0025718Y0228553D01*
X0033746Y0228553D01*
X0033648Y0229166D01*
X0033400Y0229932D01*
X0033034Y0230650D01*
X0032561Y0231301D01*
X0031991Y0231870D01*
X0032900Y0230834D02*
X0043745Y0230834D01*
X0044426Y0229654D02*
X0033490Y0229654D01*
X0025718Y0229654D02*
X0024549Y0229654D01*
X0024549Y0228553D02*
X0024549Y0233084D01*
X0021206Y0233084D01*
X0020411Y0232958D01*
X0019645Y0232709D01*
X0018928Y0232344D01*
X0018276Y0231870D01*
X0017707Y0231301D01*
X0017234Y0230650D01*
X0016868Y0229932D01*
X0016619Y0229166D01*
X0016522Y0228553D01*
X0024549Y0228553D01*
X0024549Y0228475D02*
X0009134Y0228475D01*
X0009134Y0229654D02*
X0016778Y0229654D01*
X0017367Y0230834D02*
X0009134Y0230834D01*
X0009134Y0232013D02*
X0018473Y0232013D01*
X0016536Y0227295D02*
X0009134Y0227295D01*
X0009134Y0226115D02*
X0016832Y0226115D01*
X0017489Y0224936D02*
X0009134Y0224936D01*
X0009134Y0223756D02*
X0018704Y0223756D01*
X0024549Y0223756D02*
X0025718Y0223756D01*
X0025718Y0224936D02*
X0024549Y0224936D01*
X0024549Y0226115D02*
X0025718Y0226115D01*
X0025718Y0227295D02*
X0024549Y0227295D01*
X0025718Y0228475D02*
X0045606Y0228475D01*
X0043745Y0222576D02*
X0009134Y0222576D01*
X0009134Y0221397D02*
X0043745Y0221397D01*
X0044021Y0220217D02*
X0009134Y0220217D01*
X0009134Y0219038D02*
X0045200Y0219038D01*
X0025718Y0230834D02*
X0024549Y0230834D01*
X0024549Y0232013D02*
X0025718Y0232013D01*
X0026100Y0256785D02*
X0024981Y0256785D01*
X0024981Y0257965D02*
X0026100Y0257965D01*
X0021489Y0256785D02*
X0019961Y0256785D01*
X0019961Y0257965D02*
X0020800Y0257965D01*
X0009598Y0269761D02*
X0009134Y0269761D01*
X0009134Y0270941D02*
X0009598Y0270941D01*
X0009134Y0319305D02*
X0179740Y0319305D01*
X0179740Y0320484D02*
X0009134Y0320484D01*
X0009134Y0321664D02*
X0179740Y0321664D01*
X0179740Y0322844D02*
X0009134Y0322844D01*
X0009134Y0324023D02*
X0179740Y0324023D01*
X0179740Y0325203D02*
X0009134Y0325203D01*
X0009134Y0326382D02*
X0035094Y0326382D01*
X0031960Y0327562D02*
X0009134Y0327562D01*
X0009134Y0328742D02*
X0030234Y0328742D01*
X0029054Y0329921D02*
X0009134Y0329921D01*
X0009134Y0331101D02*
X0028228Y0331101D01*
X0027547Y0332281D02*
X0009134Y0332281D01*
X0009134Y0333460D02*
X0027114Y0333460D01*
X0026798Y0334640D02*
X0021568Y0334640D01*
X0022222Y0335819D02*
X0026614Y0335819D01*
X0026614Y0336999D02*
X0022222Y0336999D01*
X0022222Y0338179D02*
X0026638Y0338179D01*
X0026954Y0339358D02*
X0022222Y0339358D01*
X0022222Y0340538D02*
X0027270Y0340538D01*
X0027882Y0341717D02*
X0022222Y0341717D01*
X0022222Y0342897D02*
X0028563Y0342897D01*
X0029635Y0344077D02*
X0022222Y0344077D01*
X0022222Y0345256D02*
X0030923Y0345256D01*
X0043297Y0345256D02*
X0165998Y0345256D01*
X0165998Y0344077D02*
X0044586Y0344077D01*
X0045657Y0342897D02*
X0165998Y0342897D01*
X0165998Y0341717D02*
X0046338Y0341717D01*
X0046951Y0340538D02*
X0165998Y0340538D01*
X0165998Y0339358D02*
X0047267Y0339358D01*
X0047583Y0338179D02*
X0165998Y0338179D01*
X0165998Y0336999D02*
X0047606Y0336999D01*
X0047606Y0335819D02*
X0165998Y0335819D01*
X0166653Y0334640D02*
X0047422Y0334640D01*
X0047106Y0333460D02*
X0179740Y0333460D01*
X0179740Y0332281D02*
X0046673Y0332281D01*
X0045992Y0331101D02*
X0179740Y0331101D01*
X0179740Y0329921D02*
X0045167Y0329921D01*
X0043987Y0328742D02*
X0179740Y0328742D01*
X0179740Y0327562D02*
X0042260Y0327562D01*
X0039126Y0326382D02*
X0179740Y0326382D01*
X0179740Y0334640D02*
X0177568Y0334640D01*
X0178222Y0335819D02*
X0179740Y0335819D01*
X0179740Y0336999D02*
X0178222Y0336999D01*
X0178222Y0338179D02*
X0179740Y0338179D01*
X0179740Y0339358D02*
X0178222Y0339358D01*
X0178222Y0340538D02*
X0179740Y0340538D01*
X0179740Y0341717D02*
X0178222Y0341717D01*
X0178222Y0342897D02*
X0179740Y0342897D01*
X0179740Y0344077D02*
X0178222Y0344077D01*
X0178222Y0345256D02*
X0179740Y0345256D01*
X0179740Y0285096D02*
X0160567Y0285096D01*
X0161746Y0283916D02*
X0179740Y0283916D01*
X0179740Y0282737D02*
X0162750Y0282737D01*
X0163431Y0281557D02*
X0179740Y0281557D01*
X0179740Y0280378D02*
X0163993Y0280378D01*
X0164310Y0279198D02*
X0166895Y0279198D01*
X0165646Y0278018D02*
X0164606Y0278018D01*
X0164606Y0276839D02*
X0165598Y0276839D01*
X0165598Y0275659D02*
X0164606Y0275659D01*
X0164379Y0274479D02*
X0165598Y0274479D01*
X0165598Y0273300D02*
X0164063Y0273300D01*
X0163581Y0272120D02*
X0171520Y0272120D01*
X0171520Y0273300D02*
X0172701Y0273300D01*
X0172701Y0274479D02*
X0171520Y0274479D01*
X0171520Y0275659D02*
X0172701Y0275659D01*
X0172701Y0276839D02*
X0171520Y0276839D01*
X0171520Y0278018D02*
X0172701Y0278018D01*
X0172701Y0279198D02*
X0171520Y0279198D01*
X0177325Y0279198D02*
X0179740Y0279198D01*
X0179740Y0278018D02*
X0178574Y0278018D01*
X0178622Y0276839D02*
X0179740Y0276839D01*
X0179740Y0275659D02*
X0178622Y0275659D01*
X0178622Y0274479D02*
X0179740Y0274479D01*
X0179740Y0273300D02*
X0178622Y0273300D01*
X0179740Y0272120D02*
X0172701Y0272120D01*
X0178622Y0270941D02*
X0179740Y0270941D01*
X0179740Y0269761D02*
X0178622Y0269761D01*
X0167748Y0257965D02*
X0223047Y0257965D01*
X0223047Y0256785D02*
X0167059Y0256785D01*
X0163567Y0256785D02*
X0162448Y0256785D01*
X0162448Y0257965D02*
X0163567Y0257965D01*
X0158957Y0256785D02*
X0152186Y0256785D01*
X0152674Y0255606D02*
X0223047Y0255606D01*
X0223047Y0254426D02*
X0152750Y0254426D01*
X0152750Y0253246D02*
X0158906Y0253246D01*
X0158360Y0252067D02*
X0152750Y0252067D01*
X0152750Y0250887D02*
X0158430Y0250887D01*
X0159133Y0249708D02*
X0152750Y0249708D01*
X0152750Y0248528D02*
X0198000Y0248528D01*
X0196821Y0249708D02*
X0162946Y0249708D01*
X0161039Y0251591D02*
X0197457Y0251591D01*
X0199180Y0247348D02*
X0152580Y0247348D01*
X0152064Y0246169D02*
X0200360Y0246169D01*
X0201539Y0244989D02*
X0190673Y0244989D01*
X0188886Y0244989D02*
X0150815Y0244989D01*
X0148559Y0242732D02*
X0148559Y0251591D01*
X0144369Y0247757D02*
X0145006Y0246217D01*
X0146185Y0245038D01*
X0146778Y0244792D01*
X0146778Y0244513D01*
X0140669Y0244513D01*
X0140965Y0244664D01*
X0141550Y0245089D01*
X0142061Y0245600D01*
X0142485Y0246185D01*
X0142813Y0246828D01*
X0143037Y0247516D01*
X0143150Y0248229D01*
X0143150Y0251181D01*
X0138969Y0251181D01*
X0138969Y0252000D01*
X0143150Y0252000D01*
X0143150Y0254952D01*
X0143037Y0255666D01*
X0142813Y0256353D01*
X0142485Y0256997D01*
X0142061Y0257581D01*
X0141550Y0258092D01*
X0141373Y0258220D01*
X0146372Y0258220D01*
X0146185Y0258143D01*
X0145006Y0256964D01*
X0144369Y0255424D01*
X0144369Y0247757D01*
X0144538Y0247348D02*
X0142982Y0247348D01*
X0143150Y0248528D02*
X0144369Y0248528D01*
X0144369Y0249708D02*
X0143150Y0249708D01*
X0143150Y0250887D02*
X0144369Y0250887D01*
X0144369Y0252067D02*
X0143150Y0252067D01*
X0143150Y0253246D02*
X0144369Y0253246D01*
X0144369Y0254426D02*
X0143150Y0254426D01*
X0143046Y0255606D02*
X0144444Y0255606D01*
X0144932Y0256785D02*
X0142593Y0256785D01*
X0141677Y0257965D02*
X0146007Y0257965D01*
X0151111Y0257965D02*
X0158267Y0257965D01*
X0162448Y0269761D02*
X0163567Y0269761D01*
X0162900Y0270941D02*
X0165598Y0270941D01*
X0145055Y0246169D02*
X0142474Y0246169D01*
X0141412Y0244989D02*
X0146303Y0244989D01*
X0109450Y0211960D02*
X0212244Y0211960D01*
X0197457Y0198441D02*
X0187395Y0208502D01*
X0187614Y0232890D02*
X0187614Y0234858D01*
X0187080Y0237911D02*
X0198488Y0237911D01*
X0197794Y0239091D02*
X0185900Y0239091D01*
X0184721Y0240271D02*
X0188178Y0240271D01*
X0192120Y0243810D02*
X0202651Y0243810D01*
X0202528Y0241450D02*
X0203808Y0241450D01*
X0203089Y0240271D02*
X0212141Y0240271D01*
X0210835Y0239091D02*
X0203025Y0239091D01*
X0202331Y0237911D02*
X0210525Y0237911D01*
X0209607Y0236732D02*
X0196906Y0236732D01*
X0197105Y0235552D02*
X0208427Y0235552D01*
X0208283Y0232890D02*
X0213205Y0237811D01*
X0208283Y0232890D02*
X0193614Y0232890D01*
X0179740Y0171853D02*
X0178222Y0171853D01*
X0178222Y0170673D02*
X0179740Y0170673D01*
X0179740Y0169494D02*
X0178222Y0169494D01*
X0178222Y0168314D02*
X0179740Y0168314D01*
X0179740Y0167135D02*
X0178222Y0167135D01*
X0178222Y0165955D02*
X0179740Y0165955D01*
X0179740Y0164775D02*
X0178222Y0164775D01*
X0178222Y0163596D02*
X0179740Y0163596D01*
X0179740Y0162416D02*
X0177588Y0162416D01*
X0179740Y0161237D02*
X0047112Y0161237D01*
X0047428Y0162416D02*
X0166632Y0162416D01*
X0165998Y0163596D02*
X0047606Y0163596D01*
X0047606Y0164775D02*
X0165998Y0164775D01*
X0165998Y0165955D02*
X0047577Y0165955D01*
X0047261Y0167135D02*
X0165998Y0167135D01*
X0165998Y0168314D02*
X0046945Y0168314D01*
X0046326Y0169494D02*
X0165998Y0169494D01*
X0165998Y0170673D02*
X0045645Y0170673D01*
X0044565Y0171853D02*
X0165998Y0171853D01*
X0179740Y0160057D02*
X0046685Y0160057D01*
X0046004Y0158877D02*
X0179740Y0158877D01*
X0179740Y0157698D02*
X0045187Y0157698D01*
X0044007Y0156518D02*
X0179740Y0156518D01*
X0179740Y0155338D02*
X0042296Y0155338D01*
X0032609Y0142363D02*
X0179740Y0142363D01*
X0179740Y0143542D02*
X0031429Y0143542D01*
X0030250Y0144722D02*
X0179740Y0144722D01*
X0179740Y0141183D02*
X0033788Y0141183D01*
X0034968Y0140004D02*
X0179740Y0140004D01*
X0179740Y0138824D02*
X0036148Y0138824D01*
X0037327Y0137644D02*
X0179740Y0137644D01*
X0179740Y0136465D02*
X0038507Y0136465D01*
X0039686Y0135285D02*
X0179740Y0135285D01*
X0179740Y0134105D02*
X0040866Y0134105D01*
X0042046Y0132926D02*
X0179740Y0132926D01*
X0179740Y0131746D02*
X0043225Y0131746D01*
X0043956Y0130567D02*
X0179740Y0130567D01*
X0179740Y0129387D02*
X0044120Y0129387D01*
X0044120Y0128207D02*
X0179740Y0128207D01*
X0179740Y0127028D02*
X0044120Y0127028D01*
X0044120Y0125848D02*
X0179740Y0125848D01*
X0179740Y0124669D02*
X0044120Y0124669D01*
X0044120Y0123489D02*
X0179740Y0123489D01*
X0179740Y0122309D02*
X0044120Y0122309D01*
X0044120Y0121130D02*
X0179740Y0121130D01*
X0179740Y0119950D02*
X0044120Y0119950D01*
X0044120Y0118770D02*
X0179740Y0118770D01*
X0179740Y0117591D02*
X0044120Y0117591D01*
X0044120Y0116411D02*
X0179740Y0116411D01*
X0179740Y0115232D02*
X0044120Y0115232D01*
X0044120Y0114052D02*
X0149724Y0114052D01*
X0147681Y0112872D02*
X0044120Y0112872D01*
X0044120Y0111693D02*
X0146495Y0111693D01*
X0145483Y0110513D02*
X0044120Y0110513D01*
X0044120Y0109334D02*
X0144802Y0109334D01*
X0144232Y0108154D02*
X0044120Y0108154D01*
X0044120Y0106974D02*
X0143916Y0106974D01*
X0143614Y0105795D02*
X0044120Y0105795D01*
X0044120Y0104615D02*
X0143614Y0104615D01*
X0143614Y0103435D02*
X0044120Y0103435D01*
X0044120Y0102256D02*
X0143836Y0102256D01*
X0144152Y0101076D02*
X0044120Y0101076D01*
X0044120Y0099897D02*
X0144628Y0099897D01*
X0145309Y0098717D02*
X0044120Y0098717D01*
X0044762Y0097537D02*
X0066825Y0097537D01*
X0066404Y0096358D02*
X0045301Y0096358D01*
X0037160Y0097537D02*
X0029860Y0097537D01*
X0030281Y0096358D02*
X0036620Y0096358D01*
X0037802Y0101076D02*
X0022622Y0101076D01*
X0022622Y0102256D02*
X0037802Y0102256D01*
X0037802Y0103435D02*
X0022622Y0103435D01*
X0022622Y0104615D02*
X0037802Y0104615D01*
X0037802Y0105795D02*
X0022569Y0105795D01*
X0021248Y0106974D02*
X0037802Y0106974D01*
X0045301Y0085976D02*
X0047957Y0085976D01*
X0047782Y0085737D01*
X0047454Y0085093D01*
X0047231Y0084406D01*
X0047118Y0083692D01*
X0047118Y0080740D01*
X0051299Y0080740D01*
X0051299Y0079921D01*
X0052118Y0079921D01*
X0052118Y0072748D01*
X0052784Y0072853D01*
X0053471Y0073076D01*
X0054115Y0073405D01*
X0054699Y0073829D01*
X0055210Y0074340D01*
X0055635Y0074925D01*
X0055963Y0075569D01*
X0056186Y0076256D01*
X0056299Y0076969D01*
X0056299Y0079921D01*
X0052118Y0079921D01*
X0052118Y0080740D01*
X0056299Y0080740D01*
X0056299Y0083692D01*
X0056186Y0084406D01*
X0055963Y0085093D01*
X0055635Y0085737D01*
X0055461Y0085976D01*
X0058428Y0085976D01*
X0058156Y0085704D01*
X0057518Y0084164D01*
X0057518Y0076497D01*
X0058156Y0074957D01*
X0059335Y0073778D01*
X0060875Y0073140D01*
X0062542Y0073140D01*
X0063113Y0073376D01*
X0073628Y0062861D01*
X0074672Y0061817D01*
X0075744Y0061817D01*
X0075106Y0061179D01*
X0074698Y0060194D01*
X0074698Y0059128D01*
X0075106Y0058144D01*
X0075597Y0057653D01*
X0075597Y0043961D01*
X0051326Y0068232D01*
X0051326Y0071074D01*
X0049106Y0073294D01*
X0046266Y0073294D01*
X0046687Y0073716D01*
X0047576Y0074604D01*
X0047742Y0075005D01*
X0047782Y0074925D01*
X0048207Y0074340D01*
X0048718Y0073829D01*
X0049303Y0073405D01*
X0049946Y0073076D01*
X0050634Y0072853D01*
X0051299Y0072748D01*
X0051299Y0079921D01*
X0047632Y0079921D01*
X0047576Y0080057D01*
X0046687Y0080946D01*
X0045301Y0082332D01*
X0045301Y0084998D01*
X0045094Y0085205D01*
X0045301Y0085412D01*
X0045301Y0085976D01*
X0045301Y0085741D02*
X0047786Y0085741D01*
X0047282Y0084562D02*
X0045301Y0084562D01*
X0045301Y0083382D02*
X0047118Y0083382D01*
X0047118Y0082202D02*
X0045430Y0082202D01*
X0046610Y0081023D02*
X0047118Y0081023D01*
X0051299Y0079843D02*
X0052118Y0079843D01*
X0052118Y0078664D02*
X0051299Y0078664D01*
X0051299Y0077484D02*
X0052118Y0077484D01*
X0052118Y0076304D02*
X0051299Y0076304D01*
X0051299Y0075125D02*
X0052118Y0075125D01*
X0052118Y0073945D02*
X0051299Y0073945D01*
X0051299Y0072766D02*
X0052118Y0072766D01*
X0052230Y0072766D02*
X0063723Y0072766D01*
X0064903Y0071586D02*
X0050814Y0071586D01*
X0051187Y0072766D02*
X0049634Y0072766D01*
X0048602Y0073945D02*
X0046917Y0073945D01*
X0046687Y0073716D02*
X0046687Y0073716D01*
X0047535Y0069504D02*
X0083461Y0033579D01*
X0123293Y0033579D01*
X0131586Y0025286D01*
X0129052Y0024401D02*
X0122254Y0024401D01*
X0122254Y0024655D02*
X0126785Y0024655D01*
X0126785Y0027568D01*
X0128906Y0025447D01*
X0128906Y0024753D01*
X0129314Y0023769D01*
X0130068Y0023015D01*
X0131053Y0022607D01*
X0131756Y0022607D01*
X0125119Y0015970D01*
X0123957Y0015970D01*
X0124350Y0016171D01*
X0125002Y0016644D01*
X0125571Y0017213D01*
X0126044Y0017865D01*
X0126410Y0018582D01*
X0126659Y0019348D01*
X0126785Y0020143D01*
X0126785Y0023486D01*
X0122254Y0023486D01*
X0122254Y0024655D01*
X0121085Y0024655D02*
X0121085Y0023486D01*
X0116554Y0023486D01*
X0116554Y0020143D01*
X0116680Y0019348D01*
X0116929Y0018582D01*
X0117294Y0017865D01*
X0117767Y0017213D01*
X0118337Y0016644D01*
X0118988Y0016171D01*
X0119382Y0015970D01*
X0103260Y0015970D01*
X0104655Y0016548D01*
X0105982Y0017875D01*
X0106700Y0019608D01*
X0106700Y0028534D01*
X0105982Y0030267D01*
X0104655Y0031594D01*
X0104163Y0031798D01*
X0118749Y0031798D01*
X0118337Y0031498D01*
X0117767Y0030928D01*
X0117294Y0030277D01*
X0116929Y0029560D01*
X0116680Y0028794D01*
X0116554Y0027998D01*
X0116554Y0024655D01*
X0121085Y0024655D01*
X0121085Y0024401D02*
X0106700Y0024401D01*
X0106700Y0023222D02*
X0116554Y0023222D01*
X0116554Y0022042D02*
X0106700Y0022042D01*
X0106700Y0020863D02*
X0116554Y0020863D01*
X0116627Y0019683D02*
X0106700Y0019683D01*
X0106242Y0018503D02*
X0116969Y0018503D01*
X0117687Y0017324D02*
X0105431Y0017324D01*
X0103680Y0016144D02*
X0119040Y0016144D01*
X0124298Y0016144D02*
X0125293Y0016144D01*
X0125651Y0017324D02*
X0126473Y0017324D01*
X0126370Y0018503D02*
X0127652Y0018503D01*
X0126712Y0019683D02*
X0128832Y0019683D01*
X0130011Y0020863D02*
X0126785Y0020863D01*
X0126785Y0022042D02*
X0131191Y0022042D01*
X0129861Y0023222D02*
X0126785Y0023222D01*
X0126785Y0025581D02*
X0128772Y0025581D01*
X0127593Y0026761D02*
X0126785Y0026761D01*
X0130271Y0029120D02*
X0132431Y0029120D01*
X0132437Y0029106D02*
X0133436Y0028106D01*
X0134742Y0027565D01*
X0136714Y0027565D01*
X0134265Y0025116D01*
X0134265Y0025819D01*
X0133857Y0026804D01*
X0133103Y0027558D01*
X0132119Y0027966D01*
X0131425Y0027966D01*
X0124914Y0034477D01*
X0130648Y0034477D01*
X0131140Y0034969D01*
X0131884Y0034969D01*
X0132376Y0034477D01*
X0134275Y0034477D01*
X0133436Y0034130D01*
X0132437Y0033131D01*
X0131896Y0031825D01*
X0131896Y0030411D01*
X0132437Y0029106D01*
X0132181Y0027940D02*
X0133837Y0027940D01*
X0133875Y0026761D02*
X0135909Y0026761D01*
X0134730Y0025581D02*
X0134265Y0025581D01*
X0131942Y0030299D02*
X0129091Y0030299D01*
X0127912Y0031479D02*
X0131896Y0031479D01*
X0132241Y0032659D02*
X0126732Y0032659D01*
X0125553Y0033838D02*
X0133145Y0033838D01*
X0133114Y0036258D02*
X0187395Y0036258D01*
X0197457Y0026197D01*
X0199451Y0024401D02*
X0201016Y0024401D01*
X0199728Y0024679D02*
X0200136Y0025664D01*
X0200136Y0026730D01*
X0199728Y0027715D01*
X0198975Y0028468D01*
X0197990Y0028876D01*
X0197296Y0028876D01*
X0189176Y0036996D01*
X0188133Y0038039D01*
X0133852Y0038039D01*
X0133359Y0038531D01*
X0129664Y0038531D01*
X0129172Y0038039D01*
X0085308Y0038039D01*
X0079159Y0044189D01*
X0079159Y0057653D01*
X0079650Y0058144D01*
X0080057Y0059128D01*
X0080057Y0060194D01*
X0079650Y0061179D01*
X0079011Y0061817D01*
X0084331Y0061817D01*
X0083745Y0061232D01*
X0083745Y0058091D01*
X0085965Y0055871D01*
X0089106Y0055871D01*
X0090989Y0057754D01*
X0090989Y0057599D01*
X0093209Y0055379D01*
X0096350Y0055379D01*
X0098570Y0057599D01*
X0098570Y0060739D01*
X0097492Y0061817D01*
X0119947Y0061817D01*
X0124376Y0057388D01*
X0131200Y0057388D01*
X0133209Y0055379D01*
X0136051Y0055379D01*
X0138963Y0052467D01*
X0145997Y0052467D01*
X0145900Y0052370D01*
X0145479Y0051353D01*
X0145479Y0050253D01*
X0145736Y0049631D01*
X0138570Y0049631D01*
X0138570Y0051389D01*
X0136350Y0053609D01*
X0133209Y0053609D01*
X0130989Y0051389D01*
X0130989Y0048249D01*
X0132559Y0046679D01*
X0111734Y0046679D01*
X0111542Y0047142D01*
X0110788Y0047896D01*
X0109803Y0048304D01*
X0108737Y0048304D01*
X0107752Y0047896D01*
X0106998Y0047142D01*
X0106591Y0046158D01*
X0106591Y0045092D01*
X0106868Y0044422D01*
X0106372Y0044216D01*
X0105618Y0043463D01*
X0105210Y0042478D01*
X0105210Y0041412D01*
X0105618Y0040427D01*
X0106372Y0039673D01*
X0107357Y0039265D01*
X0108423Y0039265D01*
X0109408Y0039673D01*
X0109898Y0040164D01*
X0211470Y0040164D01*
X0211687Y0039947D01*
X0212672Y0039539D01*
X0213738Y0039539D01*
X0214723Y0039947D01*
X0215476Y0040700D01*
X0215884Y0041685D01*
X0215884Y0042751D01*
X0215733Y0043117D01*
X0218086Y0043117D01*
X0218577Y0042626D01*
X0219561Y0042218D01*
X0220627Y0042218D01*
X0221612Y0042626D01*
X0222366Y0043380D01*
X0222774Y0044365D01*
X0222774Y0045431D01*
X0222366Y0046415D01*
X0221612Y0047169D01*
X0220627Y0047577D01*
X0219561Y0047577D01*
X0218577Y0047169D01*
X0218086Y0046679D01*
X0184124Y0046679D01*
X0184388Y0047317D01*
X0184388Y0048383D01*
X0183980Y0049368D01*
X0183226Y0050122D01*
X0182242Y0050530D01*
X0181176Y0050530D01*
X0180191Y0050122D01*
X0179700Y0049631D01*
X0172405Y0049631D01*
X0172663Y0050253D01*
X0172663Y0051353D01*
X0172242Y0052370D01*
X0172145Y0052467D01*
X0218086Y0052467D01*
X0218577Y0051976D01*
X0219561Y0051569D01*
X0220627Y0051569D01*
X0221612Y0051976D01*
X0222366Y0052730D01*
X0222774Y0053715D01*
X0222774Y0054781D01*
X0222366Y0055766D01*
X0221612Y0056520D01*
X0220627Y0056928D01*
X0219561Y0056928D01*
X0218577Y0056520D01*
X0218086Y0056029D01*
X0140439Y0056029D01*
X0138570Y0057898D01*
X0138570Y0060739D01*
X0136508Y0062802D01*
X0138155Y0062802D01*
X0139198Y0063845D01*
X0140124Y0064770D01*
X0178605Y0064770D01*
X0178124Y0064289D01*
X0178124Y0062427D01*
X0177811Y0062427D01*
X0177321Y0062917D01*
X0176336Y0063325D01*
X0175270Y0063325D01*
X0174285Y0062917D01*
X0173532Y0062163D01*
X0173124Y0061179D01*
X0173124Y0060113D01*
X0173532Y0059128D01*
X0174285Y0058374D01*
X0175270Y0057966D01*
X0176336Y0057966D01*
X0177321Y0058374D01*
X0177811Y0058865D01*
X0178124Y0058865D01*
X0178124Y0057003D01*
X0178821Y0056305D01*
X0184407Y0056305D01*
X0184614Y0056512D01*
X0184821Y0056305D01*
X0190407Y0056305D01*
X0190614Y0056512D01*
X0190821Y0056305D01*
X0196407Y0056305D01*
X0197105Y0057003D01*
X0197105Y0058865D01*
X0209021Y0058865D01*
X0210065Y0059908D01*
X0213044Y0062887D01*
X0213738Y0062887D01*
X0214723Y0063295D01*
X0215476Y0064049D01*
X0215884Y0065034D01*
X0215884Y0066100D01*
X0215476Y0067085D01*
X0214723Y0067839D01*
X0213738Y0068246D01*
X0212672Y0068246D01*
X0211687Y0067839D01*
X0210933Y0067085D01*
X0210525Y0066100D01*
X0210525Y0065406D01*
X0207546Y0062427D01*
X0197105Y0062427D01*
X0197105Y0064289D01*
X0196407Y0064986D01*
X0190821Y0064986D01*
X0190614Y0064779D01*
X0190407Y0064986D01*
X0187761Y0064986D01*
X0185458Y0067289D01*
X0184415Y0068332D01*
X0138648Y0068332D01*
X0138570Y0068254D01*
X0138570Y0068707D01*
X0187504Y0068707D01*
X0187508Y0068697D01*
X0188262Y0067943D01*
X0189247Y0067535D01*
X0190313Y0067535D01*
X0191297Y0067943D01*
X0192051Y0068697D01*
X0192459Y0069682D01*
X0192459Y0070748D01*
X0192051Y0071733D01*
X0191297Y0072487D01*
X0190313Y0072894D01*
X0189247Y0072894D01*
X0188262Y0072487D01*
X0188044Y0072269D01*
X0150340Y0072269D01*
X0150340Y0072548D01*
X0150933Y0072794D01*
X0152112Y0073973D01*
X0152750Y0075513D01*
X0152750Y0083180D01*
X0152112Y0084720D01*
X0150933Y0085899D01*
X0150746Y0085976D01*
X0158267Y0085976D01*
X0158267Y0085648D01*
X0158376Y0085244D01*
X0158585Y0084881D01*
X0158881Y0084585D01*
X0159244Y0084375D01*
X0159648Y0084267D01*
X0162448Y0084267D01*
X0162448Y0085976D01*
X0163567Y0085976D01*
X0163567Y0084267D01*
X0166367Y0084267D01*
X0166772Y0084375D01*
X0167134Y0084585D01*
X0167431Y0084881D01*
X0167640Y0085244D01*
X0167748Y0085648D01*
X0167748Y0085976D01*
X0223047Y0085976D01*
X0223047Y0010118D01*
X0191771Y0010118D01*
X0205170Y0023517D01*
X0205864Y0023517D01*
X0206849Y0023925D01*
X0207602Y0024679D01*
X0208010Y0025664D01*
X0208010Y0026730D01*
X0207602Y0027715D01*
X0206849Y0028468D01*
X0205864Y0028876D01*
X0204798Y0028876D01*
X0203813Y0028468D01*
X0203059Y0027715D01*
X0202651Y0026730D01*
X0202651Y0026036D01*
X0188514Y0011899D01*
X0136160Y0011899D01*
X0136160Y0011966D01*
X0135752Y0012951D01*
X0134998Y0013705D01*
X0134013Y0014113D01*
X0133310Y0014113D01*
X0143367Y0024169D01*
X0144366Y0025169D01*
X0144907Y0026474D01*
X0144907Y0027565D01*
X0147967Y0027565D01*
X0149272Y0028106D01*
X0150272Y0029106D01*
X0150813Y0030411D01*
X0150813Y0031825D01*
X0150272Y0033131D01*
X0149272Y0034130D01*
X0148434Y0034477D01*
X0186658Y0034477D01*
X0194777Y0026358D01*
X0194777Y0025664D01*
X0195185Y0024679D01*
X0195939Y0023925D01*
X0196924Y0023517D01*
X0197990Y0023517D01*
X0198975Y0023925D01*
X0199728Y0024679D01*
X0200102Y0025581D02*
X0202196Y0025581D01*
X0202664Y0026761D02*
X0200123Y0026761D01*
X0199503Y0027940D02*
X0203285Y0027940D01*
X0205331Y0026197D02*
X0189252Y0010118D01*
X0134795Y0010118D01*
X0133480Y0011433D01*
X0135895Y0012605D02*
X0189220Y0012605D01*
X0190400Y0013785D02*
X0134805Y0013785D01*
X0134162Y0014964D02*
X0191579Y0014964D01*
X0192759Y0016144D02*
X0135342Y0016144D01*
X0136521Y0017324D02*
X0193939Y0017324D01*
X0195118Y0018503D02*
X0137701Y0018503D01*
X0138880Y0019683D02*
X0196298Y0019683D01*
X0197478Y0020863D02*
X0140060Y0020863D01*
X0141240Y0022042D02*
X0198657Y0022042D01*
X0199837Y0023222D02*
X0142419Y0023222D01*
X0143599Y0024401D02*
X0195463Y0024401D01*
X0194811Y0025581D02*
X0144537Y0025581D01*
X0144907Y0026761D02*
X0194374Y0026761D01*
X0193194Y0027940D02*
X0148872Y0027940D01*
X0150278Y0029120D02*
X0192015Y0029120D01*
X0190835Y0030299D02*
X0150766Y0030299D01*
X0150813Y0031479D02*
X0189656Y0031479D01*
X0188476Y0032659D02*
X0150467Y0032659D01*
X0149564Y0033838D02*
X0187296Y0033838D01*
X0189975Y0036198D02*
X0223047Y0036198D01*
X0223047Y0037377D02*
X0188795Y0037377D01*
X0191154Y0035018D02*
X0223047Y0035018D01*
X0223047Y0033838D02*
X0192334Y0033838D01*
X0193514Y0032659D02*
X0223047Y0032659D01*
X0223047Y0031479D02*
X0194693Y0031479D01*
X0195873Y0030299D02*
X0223047Y0030299D01*
X0223047Y0029120D02*
X0197053Y0029120D01*
X0203695Y0022042D02*
X0223047Y0022042D01*
X0223047Y0020863D02*
X0202515Y0020863D01*
X0201336Y0019683D02*
X0223047Y0019683D01*
X0223047Y0018503D02*
X0200156Y0018503D01*
X0198976Y0017324D02*
X0223047Y0017324D01*
X0223047Y0016144D02*
X0197797Y0016144D01*
X0196617Y0014964D02*
X0223047Y0014964D01*
X0223047Y0013785D02*
X0195438Y0013785D01*
X0194258Y0012605D02*
X0223047Y0012605D01*
X0223047Y0011426D02*
X0193078Y0011426D01*
X0191899Y0010246D02*
X0223047Y0010246D01*
X0223047Y0023222D02*
X0204874Y0023222D01*
X0207325Y0024401D02*
X0223047Y0024401D01*
X0223047Y0025581D02*
X0207976Y0025581D01*
X0207997Y0026761D02*
X0223047Y0026761D01*
X0223047Y0027940D02*
X0207377Y0027940D01*
X0212194Y0039736D02*
X0109471Y0039736D01*
X0107890Y0041945D02*
X0212931Y0041945D01*
X0213205Y0042218D01*
X0214215Y0039736D02*
X0223047Y0039736D01*
X0223047Y0038557D02*
X0084791Y0038557D01*
X0083611Y0039736D02*
X0106309Y0039736D01*
X0105416Y0040916D02*
X0082432Y0040916D01*
X0081252Y0042096D02*
X0105210Y0042096D01*
X0105541Y0043275D02*
X0080072Y0043275D01*
X0079159Y0044455D02*
X0106854Y0044455D01*
X0106591Y0045634D02*
X0079159Y0045634D01*
X0079159Y0046814D02*
X0085180Y0046814D01*
X0085965Y0046028D02*
X0089106Y0046028D01*
X0091157Y0048080D01*
X0093209Y0046028D01*
X0096350Y0046028D01*
X0098570Y0048249D01*
X0098570Y0051389D01*
X0096350Y0053609D01*
X0093209Y0053609D01*
X0091157Y0051557D01*
X0089106Y0053609D01*
X0085965Y0053609D01*
X0083745Y0051389D01*
X0083745Y0048249D01*
X0085965Y0046028D01*
X0084000Y0047994D02*
X0079159Y0047994D01*
X0079159Y0049173D02*
X0083745Y0049173D01*
X0083745Y0050353D02*
X0079159Y0050353D01*
X0079159Y0051532D02*
X0083888Y0051532D01*
X0085068Y0052712D02*
X0079159Y0052712D01*
X0079159Y0053892D02*
X0137538Y0053892D01*
X0137247Y0052712D02*
X0138718Y0052712D01*
X0138427Y0051532D02*
X0145553Y0051532D01*
X0145479Y0050353D02*
X0138570Y0050353D01*
X0136748Y0047850D02*
X0134780Y0049819D01*
X0136748Y0047850D02*
X0181709Y0047850D01*
X0184180Y0046814D02*
X0218221Y0046814D01*
X0220094Y0044898D02*
X0109270Y0044898D01*
X0109270Y0045625D01*
X0106862Y0046814D02*
X0097135Y0046814D01*
X0098315Y0047994D02*
X0107988Y0047994D01*
X0110552Y0047994D02*
X0131244Y0047994D01*
X0130989Y0049173D02*
X0098570Y0049173D01*
X0098570Y0050353D02*
X0130989Y0050353D01*
X0131132Y0051532D02*
X0098427Y0051532D01*
X0097247Y0052712D02*
X0132312Y0052712D01*
X0132337Y0056251D02*
X0097222Y0056251D01*
X0098401Y0057431D02*
X0124334Y0057431D01*
X0123154Y0058610D02*
X0098570Y0058610D01*
X0098570Y0059790D02*
X0121975Y0059790D01*
X0120795Y0060969D02*
X0098340Y0060969D01*
X0095828Y0065380D02*
X0076147Y0065380D01*
X0065644Y0075882D01*
X0065899Y0076497D01*
X0065899Y0084164D01*
X0065261Y0085704D01*
X0064989Y0085976D01*
X0066404Y0085976D01*
X0066404Y0085648D01*
X0066512Y0085244D01*
X0066722Y0084881D01*
X0067018Y0084585D01*
X0067380Y0084375D01*
X0067785Y0084267D01*
X0070585Y0084267D01*
X0070585Y0085976D01*
X0071704Y0085976D01*
X0071704Y0084267D01*
X0074504Y0084267D01*
X0074908Y0084375D01*
X0075271Y0084585D01*
X0075567Y0084881D01*
X0075777Y0085244D01*
X0075885Y0085648D01*
X0075885Y0085976D01*
X0089370Y0085976D01*
X0089370Y0085648D01*
X0089478Y0085244D01*
X0089687Y0084881D01*
X0089984Y0084585D01*
X0090346Y0084375D01*
X0090751Y0084267D01*
X0093551Y0084267D01*
X0093551Y0085976D01*
X0094670Y0085976D01*
X0094670Y0084267D01*
X0097470Y0084267D01*
X0097874Y0084375D01*
X0098237Y0084585D01*
X0098533Y0084881D01*
X0098742Y0085244D01*
X0098851Y0085648D01*
X0098851Y0085976D01*
X0106372Y0085976D01*
X0106185Y0085899D01*
X0105006Y0084720D01*
X0104369Y0083180D01*
X0104369Y0075513D01*
X0105006Y0073973D01*
X0106185Y0072794D01*
X0107725Y0072156D01*
X0109393Y0072156D01*
X0110933Y0072794D01*
X0112112Y0073973D01*
X0112750Y0075513D01*
X0112750Y0083180D01*
X0112112Y0084720D01*
X0110933Y0085899D01*
X0110746Y0085976D01*
X0116372Y0085976D01*
X0116185Y0085899D01*
X0115006Y0084720D01*
X0114369Y0083180D01*
X0114369Y0075513D01*
X0115006Y0073973D01*
X0116185Y0072794D01*
X0117725Y0072156D01*
X0119393Y0072156D01*
X0120933Y0072794D01*
X0122112Y0073973D01*
X0122750Y0075513D01*
X0122750Y0083180D01*
X0122112Y0084720D01*
X0120933Y0085899D01*
X0120746Y0085976D01*
X0126372Y0085976D01*
X0126185Y0085899D01*
X0125006Y0084720D01*
X0124369Y0083180D01*
X0124369Y0075513D01*
X0125006Y0073973D01*
X0126185Y0072794D01*
X0127725Y0072156D01*
X0129393Y0072156D01*
X0130933Y0072794D01*
X0132112Y0073973D01*
X0132750Y0075513D01*
X0132750Y0083180D01*
X0132112Y0084720D01*
X0130933Y0085899D01*
X0130746Y0085976D01*
X0135745Y0085976D01*
X0135569Y0085848D01*
X0135058Y0085337D01*
X0134633Y0084752D01*
X0134305Y0084109D01*
X0134082Y0083421D01*
X0133969Y0082708D01*
X0133969Y0079756D01*
X0138150Y0079756D01*
X0138150Y0078937D01*
X0133969Y0078937D01*
X0133969Y0075985D01*
X0134082Y0075271D01*
X0134305Y0074584D01*
X0134633Y0073940D01*
X0135058Y0073356D01*
X0135119Y0073294D01*
X0133209Y0073294D01*
X0130989Y0071074D01*
X0130989Y0067934D01*
X0132559Y0066364D01*
X0132250Y0066364D01*
X0127880Y0070734D01*
X0126836Y0071777D01*
X0105183Y0071777D01*
X0101797Y0075163D01*
X0100753Y0076206D01*
X0098402Y0076206D01*
X0098572Y0076376D01*
X0098994Y0076957D01*
X0099320Y0077596D01*
X0099541Y0078279D01*
X0099648Y0078953D01*
X0095488Y0078953D01*
X0095488Y0079740D01*
X0094701Y0079740D01*
X0094701Y0083900D01*
X0094027Y0083793D01*
X0093344Y0083571D01*
X0092705Y0083246D01*
X0092124Y0082824D01*
X0091617Y0082316D01*
X0091195Y0081736D01*
X0090869Y0081097D01*
X0090648Y0080414D01*
X0090541Y0079740D01*
X0094701Y0079740D01*
X0094701Y0078953D01*
X0090541Y0078953D01*
X0090648Y0078279D01*
X0090869Y0077596D01*
X0091195Y0076957D01*
X0091617Y0076376D01*
X0091787Y0076206D01*
X0090911Y0076206D01*
X0089173Y0077944D01*
X0089411Y0078519D01*
X0089411Y0080174D01*
X0088778Y0081702D01*
X0087608Y0082872D01*
X0086079Y0083505D01*
X0084425Y0083505D01*
X0082896Y0082872D01*
X0081726Y0081702D01*
X0081093Y0080174D01*
X0081093Y0078519D01*
X0081726Y0076991D01*
X0082896Y0075821D01*
X0084425Y0075187D01*
X0086079Y0075187D01*
X0086654Y0075426D01*
X0088785Y0073294D01*
X0085965Y0073294D01*
X0083745Y0071074D01*
X0083745Y0067934D01*
X0085965Y0065713D01*
X0089106Y0065713D01*
X0091157Y0067765D01*
X0093209Y0065713D01*
X0095494Y0065713D01*
X0095557Y0065650D01*
X0095828Y0065380D01*
X0095520Y0065688D02*
X0075839Y0065688D01*
X0074659Y0066867D02*
X0084811Y0066867D01*
X0083745Y0068047D02*
X0073480Y0068047D01*
X0072300Y0069227D02*
X0083745Y0069227D01*
X0083745Y0070406D02*
X0071120Y0070406D01*
X0069941Y0071586D02*
X0084257Y0071586D01*
X0085436Y0072766D02*
X0068761Y0072766D01*
X0067582Y0073945D02*
X0088134Y0073945D01*
X0086955Y0075125D02*
X0066402Y0075125D01*
X0065819Y0076304D02*
X0072570Y0076304D01*
X0073054Y0075821D02*
X0074582Y0075187D01*
X0076237Y0075187D01*
X0077765Y0075821D01*
X0078935Y0076991D01*
X0079568Y0078519D01*
X0079568Y0080174D01*
X0078935Y0081702D01*
X0077765Y0082872D01*
X0076237Y0083505D01*
X0074582Y0083505D01*
X0073054Y0082872D01*
X0071884Y0081702D01*
X0071250Y0080174D01*
X0071250Y0078519D01*
X0071884Y0076991D01*
X0073054Y0075821D01*
X0071679Y0077484D02*
X0065899Y0077484D01*
X0065899Y0078664D02*
X0071250Y0078664D01*
X0071250Y0079843D02*
X0065899Y0079843D01*
X0065899Y0081023D02*
X0071602Y0081023D01*
X0072384Y0082202D02*
X0065899Y0082202D01*
X0065899Y0083382D02*
X0074284Y0083382D01*
X0075231Y0084562D02*
X0090024Y0084562D01*
X0089370Y0085741D02*
X0075885Y0085741D01*
X0076535Y0083382D02*
X0084127Y0083382D01*
X0082226Y0082202D02*
X0078435Y0082202D01*
X0079217Y0081023D02*
X0081445Y0081023D01*
X0081093Y0079843D02*
X0079568Y0079843D01*
X0079568Y0078664D02*
X0081093Y0078664D01*
X0081522Y0077484D02*
X0079140Y0077484D01*
X0078249Y0076304D02*
X0082412Y0076304D01*
X0085252Y0079346D02*
X0090173Y0074425D01*
X0100016Y0074425D01*
X0104445Y0069996D01*
X0126098Y0069996D01*
X0131512Y0064583D01*
X0137417Y0064583D01*
X0139386Y0066551D01*
X0183677Y0066551D01*
X0187614Y0062614D01*
X0187614Y0060646D01*
X0187059Y0065688D02*
X0198468Y0065688D01*
X0198138Y0066018D02*
X0198892Y0065264D01*
X0199876Y0064856D01*
X0200942Y0064856D01*
X0201927Y0065264D01*
X0202681Y0066018D01*
X0203089Y0067002D01*
X0203089Y0068068D01*
X0202681Y0069053D01*
X0201927Y0069807D01*
X0200942Y0070215D01*
X0199876Y0070215D01*
X0198892Y0069807D01*
X0198138Y0069053D01*
X0197730Y0068068D01*
X0197730Y0067002D01*
X0198138Y0066018D01*
X0197786Y0066867D02*
X0185880Y0066867D01*
X0184700Y0068047D02*
X0188158Y0068047D01*
X0189780Y0070215D02*
X0189506Y0070488D01*
X0148559Y0070488D01*
X0135764Y0070488D01*
X0134780Y0069504D01*
X0132055Y0066867D02*
X0131746Y0066867D01*
X0130989Y0068047D02*
X0130566Y0068047D01*
X0130989Y0069227D02*
X0129387Y0069227D01*
X0128207Y0070406D02*
X0130989Y0070406D01*
X0131501Y0071586D02*
X0127027Y0071586D01*
X0127880Y0070734D02*
X0127880Y0070734D01*
X0126254Y0072766D02*
X0120864Y0072766D01*
X0122084Y0073945D02*
X0125034Y0073945D01*
X0124529Y0075125D02*
X0122589Y0075125D01*
X0122750Y0076304D02*
X0124369Y0076304D01*
X0124369Y0077484D02*
X0122750Y0077484D01*
X0122750Y0078664D02*
X0124369Y0078664D01*
X0124369Y0079843D02*
X0122750Y0079843D01*
X0122750Y0081023D02*
X0124369Y0081023D01*
X0124369Y0082202D02*
X0122750Y0082202D01*
X0122666Y0083382D02*
X0124452Y0083382D01*
X0124941Y0084562D02*
X0122177Y0084562D01*
X0121091Y0085741D02*
X0126028Y0085741D01*
X0131091Y0085741D02*
X0135462Y0085741D01*
X0134536Y0084562D02*
X0132177Y0084562D01*
X0132666Y0083382D02*
X0134075Y0083382D01*
X0133969Y0082202D02*
X0132750Y0082202D01*
X0132750Y0081023D02*
X0133969Y0081023D01*
X0133969Y0079843D02*
X0132750Y0079843D01*
X0132750Y0078664D02*
X0133969Y0078664D01*
X0133969Y0077484D02*
X0132750Y0077484D01*
X0132750Y0076304D02*
X0133969Y0076304D01*
X0134129Y0075125D02*
X0132589Y0075125D01*
X0132084Y0073945D02*
X0134630Y0073945D01*
X0132680Y0072766D02*
X0130864Y0072766D01*
X0127302Y0066274D02*
X0129731Y0063845D01*
X0129731Y0063845D01*
X0130774Y0062802D01*
X0133051Y0062802D01*
X0131200Y0060950D01*
X0125852Y0060950D01*
X0122466Y0064336D01*
X0122426Y0064376D01*
X0123007Y0064376D01*
X0123104Y0064280D01*
X0124089Y0063872D01*
X0125155Y0063872D01*
X0126140Y0064280D01*
X0126894Y0065033D01*
X0127302Y0066018D01*
X0127302Y0066274D01*
X0127165Y0065688D02*
X0127888Y0065688D01*
X0129067Y0064508D02*
X0126369Y0064508D01*
X0124653Y0062149D02*
X0132399Y0062149D01*
X0131219Y0060969D02*
X0125833Y0060969D01*
X0125114Y0059169D02*
X0120685Y0063598D01*
X0075409Y0063598D01*
X0061709Y0077299D01*
X0061709Y0080331D01*
X0065735Y0084562D02*
X0067058Y0084562D01*
X0066404Y0085741D02*
X0065224Y0085741D01*
X0070585Y0085741D02*
X0071704Y0085741D01*
X0071704Y0084562D02*
X0070585Y0084562D01*
X0070585Y0096358D02*
X0071704Y0096358D01*
X0071704Y0097537D02*
X0070585Y0097537D01*
X0075464Y0097537D02*
X0089791Y0097537D01*
X0089370Y0096358D02*
X0075885Y0096358D01*
X0086377Y0083382D02*
X0092973Y0083382D01*
X0093551Y0084562D02*
X0094670Y0084562D01*
X0095488Y0083900D02*
X0095488Y0079740D01*
X0099648Y0079740D01*
X0099541Y0080414D01*
X0099320Y0081097D01*
X0098994Y0081736D01*
X0098572Y0082316D01*
X0098065Y0082824D01*
X0097484Y0083246D01*
X0096845Y0083571D01*
X0096162Y0083793D01*
X0095488Y0083900D01*
X0095488Y0083382D02*
X0094701Y0083382D01*
X0094701Y0082202D02*
X0095488Y0082202D01*
X0095488Y0081023D02*
X0094701Y0081023D01*
X0094701Y0079843D02*
X0095488Y0079843D01*
X0097216Y0083382D02*
X0104452Y0083382D01*
X0104369Y0082202D02*
X0098655Y0082202D01*
X0099343Y0081023D02*
X0104369Y0081023D01*
X0104369Y0079843D02*
X0099632Y0079843D01*
X0099602Y0078664D02*
X0104369Y0078664D01*
X0104369Y0077484D02*
X0099262Y0077484D01*
X0098500Y0076304D02*
X0104369Y0076304D01*
X0104529Y0075125D02*
X0101835Y0075125D01*
X0103015Y0073945D02*
X0105034Y0073945D01*
X0104194Y0072766D02*
X0106254Y0072766D01*
X0110864Y0072766D02*
X0116254Y0072766D01*
X0115034Y0073945D02*
X0112084Y0073945D01*
X0112589Y0075125D02*
X0114529Y0075125D01*
X0114369Y0076304D02*
X0112750Y0076304D01*
X0112750Y0077484D02*
X0114369Y0077484D01*
X0114369Y0078664D02*
X0112750Y0078664D01*
X0112750Y0079843D02*
X0114369Y0079843D01*
X0114369Y0081023D02*
X0112750Y0081023D01*
X0112750Y0082202D02*
X0114369Y0082202D01*
X0114452Y0083382D02*
X0112666Y0083382D01*
X0112177Y0084562D02*
X0114941Y0084562D01*
X0116028Y0085741D02*
X0111091Y0085741D01*
X0106028Y0085741D02*
X0098851Y0085741D01*
X0098197Y0084562D02*
X0104941Y0084562D01*
X0098851Y0096358D02*
X0147373Y0096358D01*
X0146194Y0097537D02*
X0098430Y0097537D01*
X0094670Y0097537D02*
X0093551Y0097537D01*
X0093551Y0096358D02*
X0094670Y0096358D01*
X0094670Y0085741D02*
X0093551Y0085741D01*
X0091534Y0082202D02*
X0088278Y0082202D01*
X0089059Y0081023D02*
X0090846Y0081023D01*
X0090557Y0079843D02*
X0089411Y0079843D01*
X0089411Y0078664D02*
X0090587Y0078664D01*
X0090927Y0077484D02*
X0089633Y0077484D01*
X0090813Y0076304D02*
X0091689Y0076304D01*
X0092055Y0066867D02*
X0090260Y0066867D01*
X0083745Y0060969D02*
X0079736Y0060969D01*
X0080057Y0059790D02*
X0083745Y0059790D01*
X0083745Y0058610D02*
X0079843Y0058610D01*
X0079159Y0057431D02*
X0084406Y0057431D01*
X0085585Y0056251D02*
X0079159Y0056251D01*
X0079159Y0055071D02*
X0136359Y0055071D01*
X0139701Y0054248D02*
X0134780Y0059169D01*
X0125114Y0059169D01*
X0123474Y0063329D02*
X0130247Y0063329D01*
X0137160Y0062149D02*
X0173526Y0062149D01*
X0173124Y0060969D02*
X0138340Y0060969D01*
X0138570Y0059790D02*
X0173257Y0059790D01*
X0174049Y0058610D02*
X0138570Y0058610D01*
X0139037Y0057431D02*
X0178124Y0057431D01*
X0178124Y0058610D02*
X0177557Y0058610D01*
X0175803Y0060646D02*
X0181614Y0060646D01*
X0178124Y0063329D02*
X0138682Y0063329D01*
X0139862Y0064508D02*
X0178343Y0064508D01*
X0172589Y0051532D02*
X0223047Y0051532D01*
X0223047Y0050353D02*
X0182669Y0050353D01*
X0184061Y0049173D02*
X0223047Y0049173D01*
X0223047Y0047994D02*
X0184388Y0047994D01*
X0180748Y0050353D02*
X0172663Y0050353D01*
X0191401Y0068047D02*
X0197730Y0068047D01*
X0198311Y0069227D02*
X0192270Y0069227D01*
X0192459Y0070406D02*
X0202872Y0070406D01*
X0203059Y0069955D02*
X0203813Y0069201D01*
X0204798Y0068793D01*
X0205864Y0068793D01*
X0206849Y0069201D01*
X0207602Y0069955D01*
X0208010Y0070939D01*
X0208010Y0072005D01*
X0207602Y0072990D01*
X0206849Y0073744D01*
X0205864Y0074152D01*
X0205170Y0074152D01*
X0198194Y0081128D01*
X0163048Y0081128D01*
X0162557Y0081618D01*
X0161572Y0082026D01*
X0160506Y0082026D01*
X0159522Y0081618D01*
X0158768Y0080864D01*
X0158360Y0079879D01*
X0158360Y0078813D01*
X0158768Y0077829D01*
X0159522Y0077075D01*
X0160506Y0076667D01*
X0161572Y0076667D01*
X0162557Y0077075D01*
X0163048Y0077565D01*
X0196719Y0077565D01*
X0202651Y0071633D01*
X0202651Y0070939D01*
X0203059Y0069955D01*
X0202508Y0069227D02*
X0203787Y0069227D01*
X0203089Y0068047D02*
X0212190Y0068047D01*
X0210843Y0066867D02*
X0203033Y0066867D01*
X0202351Y0065688D02*
X0210525Y0065688D01*
X0209627Y0064508D02*
X0196885Y0064508D01*
X0197105Y0063329D02*
X0208448Y0063329D01*
X0208283Y0060646D02*
X0213205Y0065567D01*
X0214219Y0068047D02*
X0223047Y0068047D01*
X0223047Y0066867D02*
X0215566Y0066867D01*
X0215884Y0065688D02*
X0223047Y0065688D01*
X0223047Y0064508D02*
X0215666Y0064508D01*
X0214756Y0063329D02*
X0223047Y0063329D01*
X0223047Y0062149D02*
X0212306Y0062149D01*
X0211126Y0060969D02*
X0223047Y0060969D01*
X0223047Y0059790D02*
X0209946Y0059790D01*
X0210065Y0059908D02*
X0210065Y0059908D01*
X0208283Y0060646D02*
X0193614Y0060646D01*
X0197105Y0058610D02*
X0223047Y0058610D01*
X0223047Y0057431D02*
X0197105Y0057431D01*
X0192112Y0071586D02*
X0202651Y0071586D01*
X0201519Y0072766D02*
X0190624Y0072766D01*
X0188935Y0072766D02*
X0150864Y0072766D01*
X0152084Y0073945D02*
X0200339Y0073945D01*
X0199160Y0075125D02*
X0152589Y0075125D01*
X0152750Y0076304D02*
X0197980Y0076304D01*
X0196800Y0077484D02*
X0162966Y0077484D01*
X0161039Y0079346D02*
X0197457Y0079346D01*
X0205331Y0071472D01*
X0207789Y0070406D02*
X0223047Y0070406D01*
X0223047Y0069227D02*
X0206874Y0069227D01*
X0208010Y0071586D02*
X0223047Y0071586D01*
X0223047Y0072766D02*
X0207695Y0072766D01*
X0206363Y0073945D02*
X0223047Y0073945D01*
X0223047Y0075125D02*
X0204197Y0075125D01*
X0203018Y0076304D02*
X0223047Y0076304D01*
X0223047Y0077484D02*
X0201838Y0077484D01*
X0200658Y0078664D02*
X0223047Y0078664D01*
X0223047Y0079843D02*
X0199479Y0079843D01*
X0198299Y0081023D02*
X0223047Y0081023D01*
X0223047Y0082202D02*
X0152750Y0082202D01*
X0152750Y0081023D02*
X0158926Y0081023D01*
X0158360Y0079843D02*
X0152750Y0079843D01*
X0152750Y0078664D02*
X0158422Y0078664D01*
X0159112Y0077484D02*
X0152750Y0077484D01*
X0148559Y0079346D02*
X0148559Y0070488D01*
X0146778Y0072269D02*
X0140669Y0072269D01*
X0140965Y0072420D01*
X0141550Y0072845D01*
X0142061Y0073356D01*
X0142485Y0073940D01*
X0142813Y0074584D01*
X0143037Y0075271D01*
X0143150Y0075985D01*
X0143150Y0078937D01*
X0138969Y0078937D01*
X0138969Y0079756D01*
X0143150Y0079756D01*
X0143150Y0082708D01*
X0143037Y0083421D01*
X0142813Y0084109D01*
X0142485Y0084752D01*
X0142061Y0085337D01*
X0141550Y0085848D01*
X0141373Y0085976D01*
X0146372Y0085976D01*
X0146185Y0085899D01*
X0145006Y0084720D01*
X0144369Y0083180D01*
X0144369Y0075513D01*
X0145006Y0073973D01*
X0146185Y0072794D01*
X0146778Y0072548D01*
X0146778Y0072269D01*
X0146254Y0072766D02*
X0141440Y0072766D01*
X0142488Y0073945D02*
X0145034Y0073945D01*
X0144529Y0075125D02*
X0142989Y0075125D01*
X0143150Y0076304D02*
X0144369Y0076304D01*
X0144369Y0077484D02*
X0143150Y0077484D01*
X0143150Y0078664D02*
X0144369Y0078664D01*
X0144369Y0079843D02*
X0143150Y0079843D01*
X0143150Y0081023D02*
X0144369Y0081023D01*
X0144369Y0082202D02*
X0143150Y0082202D01*
X0143043Y0083382D02*
X0144452Y0083382D01*
X0144941Y0084562D02*
X0142582Y0084562D01*
X0141656Y0085741D02*
X0146028Y0085741D01*
X0151091Y0085741D02*
X0158267Y0085741D01*
X0158921Y0084562D02*
X0152177Y0084562D01*
X0152666Y0083382D02*
X0223047Y0083382D01*
X0223047Y0084562D02*
X0167095Y0084562D01*
X0167748Y0085741D02*
X0223047Y0085741D01*
X0223047Y0056251D02*
X0221881Y0056251D01*
X0222654Y0055071D02*
X0223047Y0055071D01*
X0223047Y0053892D02*
X0222774Y0053892D01*
X0223047Y0052712D02*
X0222348Y0052712D01*
X0220094Y0054248D02*
X0139701Y0054248D01*
X0140217Y0056251D02*
X0218308Y0056251D01*
X0221967Y0046814D02*
X0223047Y0046814D01*
X0223047Y0045634D02*
X0222690Y0045634D01*
X0222774Y0044455D02*
X0223047Y0044455D01*
X0223047Y0043275D02*
X0222261Y0043275D01*
X0223047Y0042096D02*
X0215884Y0042096D01*
X0215566Y0040916D02*
X0223047Y0040916D01*
X0179740Y0096358D02*
X0178622Y0096358D01*
X0178622Y0097537D02*
X0179740Y0097537D01*
X0179740Y0098717D02*
X0178622Y0098717D01*
X0179740Y0099897D02*
X0172701Y0099897D01*
X0172701Y0101076D02*
X0171520Y0101076D01*
X0171520Y0099897D02*
X0163593Y0099897D01*
X0164069Y0101076D02*
X0165598Y0101076D01*
X0165598Y0102256D02*
X0164385Y0102256D01*
X0164606Y0103435D02*
X0165598Y0103435D01*
X0165598Y0104615D02*
X0164606Y0104615D01*
X0164606Y0105795D02*
X0165652Y0105795D01*
X0166972Y0106974D02*
X0164304Y0106974D01*
X0163988Y0108154D02*
X0179740Y0108154D01*
X0179740Y0109334D02*
X0163419Y0109334D01*
X0162738Y0110513D02*
X0179740Y0110513D01*
X0179740Y0111693D02*
X0161726Y0111693D01*
X0160540Y0112872D02*
X0179740Y0112872D01*
X0179740Y0114052D02*
X0158496Y0114052D01*
X0162912Y0098717D02*
X0165598Y0098717D01*
X0163567Y0097537D02*
X0162448Y0097537D01*
X0162448Y0096358D02*
X0163567Y0096358D01*
X0171520Y0102256D02*
X0172701Y0102256D01*
X0172701Y0103435D02*
X0171520Y0103435D01*
X0171520Y0104615D02*
X0172701Y0104615D01*
X0172701Y0105795D02*
X0171520Y0105795D01*
X0171520Y0106974D02*
X0172701Y0106974D01*
X0177248Y0106974D02*
X0179740Y0106974D01*
X0179740Y0105795D02*
X0178569Y0105795D01*
X0178622Y0104615D02*
X0179740Y0104615D01*
X0179740Y0103435D02*
X0178622Y0103435D01*
X0178622Y0102256D02*
X0179740Y0102256D01*
X0179740Y0101076D02*
X0178622Y0101076D01*
X0163567Y0085741D02*
X0162448Y0085741D01*
X0162448Y0084562D02*
X0163567Y0084562D01*
X0132424Y0046814D02*
X0111678Y0046814D01*
X0118318Y0031479D02*
X0104770Y0031479D01*
X0105949Y0030299D02*
X0117310Y0030299D01*
X0116786Y0029120D02*
X0106457Y0029120D01*
X0106700Y0027940D02*
X0116554Y0027940D01*
X0116554Y0026761D02*
X0106700Y0026761D01*
X0106700Y0025581D02*
X0116554Y0025581D01*
X0129910Y0036258D02*
X0084571Y0036258D01*
X0077378Y0043451D01*
X0077378Y0059661D01*
X0074913Y0058610D02*
X0060948Y0058610D01*
X0062128Y0057431D02*
X0075597Y0057431D01*
X0075597Y0056251D02*
X0063307Y0056251D01*
X0064487Y0055071D02*
X0075597Y0055071D01*
X0075597Y0053892D02*
X0065666Y0053892D01*
X0066846Y0052712D02*
X0075597Y0052712D01*
X0075597Y0051532D02*
X0068026Y0051532D01*
X0069205Y0050353D02*
X0075597Y0050353D01*
X0075597Y0049173D02*
X0070385Y0049173D01*
X0071565Y0047994D02*
X0075597Y0047994D01*
X0075597Y0046814D02*
X0072744Y0046814D01*
X0073924Y0045634D02*
X0075597Y0045634D01*
X0075597Y0044455D02*
X0075103Y0044455D01*
X0072425Y0042096D02*
X0009134Y0042096D01*
X0009134Y0043275D02*
X0071245Y0043275D01*
X0070066Y0044455D02*
X0009134Y0044455D01*
X0009134Y0045634D02*
X0068886Y0045634D01*
X0067706Y0046814D02*
X0049891Y0046814D01*
X0049106Y0046028D02*
X0045965Y0046028D01*
X0043745Y0048249D01*
X0043745Y0051389D01*
X0045965Y0053609D01*
X0049106Y0053609D01*
X0051326Y0051389D01*
X0051326Y0048249D01*
X0049106Y0046028D01*
X0051071Y0047994D02*
X0066527Y0047994D01*
X0065347Y0049173D02*
X0051326Y0049173D01*
X0051326Y0050353D02*
X0064168Y0050353D01*
X0062988Y0051532D02*
X0051182Y0051532D01*
X0050003Y0052712D02*
X0061808Y0052712D01*
X0060629Y0053892D02*
X0033442Y0053892D01*
X0033400Y0053761D02*
X0033648Y0054527D01*
X0033746Y0055140D01*
X0025718Y0055140D01*
X0025718Y0050609D01*
X0029061Y0050609D01*
X0029857Y0050735D01*
X0030623Y0050984D01*
X0031340Y0051349D01*
X0031991Y0051822D01*
X0032561Y0052392D01*
X0033034Y0053043D01*
X0033400Y0053761D01*
X0032793Y0052712D02*
X0045068Y0052712D01*
X0043888Y0051532D02*
X0031592Y0051532D01*
X0033735Y0055071D02*
X0059449Y0055071D01*
X0058270Y0056251D02*
X0049486Y0056251D01*
X0050665Y0057431D02*
X0057090Y0057431D01*
X0055910Y0058610D02*
X0051326Y0058610D01*
X0051326Y0059790D02*
X0054731Y0059790D01*
X0053551Y0060969D02*
X0051326Y0060969D01*
X0050408Y0062149D02*
X0052371Y0062149D01*
X0051192Y0063329D02*
X0049229Y0063329D01*
X0050012Y0064508D02*
X0047156Y0064508D01*
X0045977Y0065688D02*
X0048833Y0065688D01*
X0051511Y0068047D02*
X0068442Y0068047D01*
X0069622Y0066867D02*
X0052691Y0066867D01*
X0053870Y0065688D02*
X0070801Y0065688D01*
X0071981Y0064508D02*
X0055050Y0064508D01*
X0056230Y0063329D02*
X0073160Y0063329D01*
X0074340Y0062149D02*
X0057409Y0062149D01*
X0058589Y0060969D02*
X0075019Y0060969D01*
X0074698Y0059790D02*
X0059768Y0059790D01*
X0067262Y0069227D02*
X0051326Y0069227D01*
X0051326Y0070406D02*
X0066083Y0070406D01*
X0059168Y0073945D02*
X0054815Y0073945D01*
X0055737Y0075125D02*
X0058087Y0075125D01*
X0057598Y0076304D02*
X0056194Y0076304D01*
X0056299Y0077484D02*
X0057518Y0077484D01*
X0057518Y0078664D02*
X0056299Y0078664D01*
X0056299Y0079843D02*
X0057518Y0079843D01*
X0057518Y0081023D02*
X0056299Y0081023D01*
X0056299Y0082202D02*
X0057518Y0082202D01*
X0057518Y0083382D02*
X0056299Y0083382D01*
X0056135Y0084562D02*
X0057683Y0084562D01*
X0058193Y0085741D02*
X0055631Y0085741D01*
X0043745Y0070406D02*
X0043378Y0070406D01*
X0043745Y0069227D02*
X0042438Y0069227D01*
X0043617Y0068047D02*
X0043745Y0068047D01*
X0044797Y0066867D02*
X0044811Y0066867D01*
X0040580Y0062149D02*
X0009134Y0062149D01*
X0009134Y0060969D02*
X0041760Y0060969D01*
X0042939Y0059790D02*
X0031766Y0059790D01*
X0031991Y0059626D02*
X0031340Y0060100D01*
X0030623Y0060465D01*
X0029857Y0060714D01*
X0029061Y0060840D01*
X0025718Y0060840D01*
X0025718Y0056309D01*
X0024549Y0056309D01*
X0024549Y0055140D01*
X0016522Y0055140D01*
X0016619Y0054527D01*
X0016868Y0053761D01*
X0017234Y0053043D01*
X0017707Y0052392D01*
X0018276Y0051822D01*
X0018928Y0051349D01*
X0019645Y0050984D01*
X0020411Y0050735D01*
X0021206Y0050609D01*
X0024549Y0050609D01*
X0024549Y0055140D01*
X0025718Y0055140D01*
X0025718Y0056309D01*
X0033746Y0056309D01*
X0033648Y0056922D01*
X0033400Y0057688D01*
X0033034Y0058406D01*
X0032561Y0059057D01*
X0031991Y0059626D01*
X0032885Y0058610D02*
X0043745Y0058610D01*
X0044406Y0057431D02*
X0033483Y0057431D01*
X0039401Y0063329D02*
X0009134Y0063329D01*
X0009134Y0064508D02*
X0038221Y0064508D01*
X0037041Y0065688D02*
X0009134Y0065688D01*
X0009134Y0066867D02*
X0036127Y0066867D01*
X0035833Y0068047D02*
X0009134Y0068047D01*
X0009134Y0069227D02*
X0035833Y0069227D01*
X0035833Y0070406D02*
X0009134Y0070406D01*
X0009134Y0059790D02*
X0018501Y0059790D01*
X0018276Y0059626D02*
X0018928Y0060100D01*
X0019645Y0060465D01*
X0020411Y0060714D01*
X0021206Y0060840D01*
X0024549Y0060840D01*
X0024549Y0056309D01*
X0016522Y0056309D01*
X0016619Y0056922D01*
X0016868Y0057688D01*
X0017234Y0058406D01*
X0017707Y0059057D01*
X0018276Y0059626D01*
X0017382Y0058610D02*
X0009134Y0058610D01*
X0009134Y0057431D02*
X0016784Y0057431D01*
X0016533Y0055071D02*
X0009134Y0055071D01*
X0009134Y0053892D02*
X0016826Y0053892D01*
X0017474Y0052712D02*
X0009134Y0052712D01*
X0009134Y0051532D02*
X0018675Y0051532D01*
X0024549Y0051532D02*
X0025718Y0051532D01*
X0025718Y0052712D02*
X0024549Y0052712D01*
X0024549Y0053892D02*
X0025718Y0053892D01*
X0025718Y0055071D02*
X0024549Y0055071D01*
X0024549Y0056251D02*
X0009134Y0056251D01*
X0009134Y0050353D02*
X0043745Y0050353D01*
X0043745Y0049173D02*
X0009134Y0049173D01*
X0009134Y0047994D02*
X0044000Y0047994D01*
X0045180Y0046814D02*
X0009134Y0046814D01*
X0009134Y0040916D02*
X0073605Y0040916D01*
X0074784Y0039736D02*
X0009134Y0039736D01*
X0009134Y0038557D02*
X0075964Y0038557D01*
X0077143Y0037377D02*
X0009134Y0037377D01*
X0009134Y0036198D02*
X0078323Y0036198D01*
X0079503Y0035018D02*
X0009134Y0035018D01*
X0009134Y0033838D02*
X0080682Y0033838D01*
X0081862Y0032659D02*
X0063350Y0032659D01*
X0063199Y0032659D02*
X0062030Y0032659D01*
X0062030Y0032683D02*
X0061416Y0032585D01*
X0060650Y0032337D01*
X0059933Y0031971D01*
X0059282Y0031498D01*
X0058712Y0030928D01*
X0058239Y0030277D01*
X0057873Y0029560D01*
X0057625Y0028794D01*
X0057499Y0027998D01*
X0057499Y0024655D01*
X0062030Y0024655D01*
X0062030Y0023486D01*
X0063199Y0023486D01*
X0063199Y0024655D01*
X0067730Y0024655D01*
X0067730Y0027998D01*
X0067604Y0028794D01*
X0067355Y0029560D01*
X0066989Y0030277D01*
X0066516Y0030928D01*
X0065947Y0031498D01*
X0065295Y0031971D01*
X0064578Y0032337D01*
X0063812Y0032585D01*
X0063199Y0032683D01*
X0063199Y0024655D01*
X0062030Y0024655D01*
X0062030Y0032683D01*
X0061879Y0032659D02*
X0009134Y0032659D01*
X0009134Y0031479D02*
X0020459Y0031479D01*
X0019279Y0030299D02*
X0009134Y0030299D01*
X0009134Y0029120D02*
X0018771Y0029120D01*
X0018529Y0027940D02*
X0009134Y0027940D01*
X0009134Y0026761D02*
X0018529Y0026761D01*
X0018529Y0025581D02*
X0009134Y0025581D01*
X0009134Y0024401D02*
X0018529Y0024401D01*
X0018529Y0023222D02*
X0009134Y0023222D01*
X0009134Y0022042D02*
X0018529Y0022042D01*
X0018529Y0020863D02*
X0009134Y0020863D01*
X0013800Y0019683D02*
X0018529Y0019683D01*
X0018986Y0018503D02*
X0016423Y0018503D01*
X0017602Y0017324D02*
X0019797Y0017324D01*
X0018712Y0016144D02*
X0021549Y0016144D01*
X0019200Y0014964D02*
X0024988Y0014964D01*
X0026167Y0013785D02*
X0019689Y0013785D01*
X0019961Y0012605D02*
X0027347Y0012605D01*
X0028526Y0011426D02*
X0019961Y0011426D01*
X0019961Y0010246D02*
X0029706Y0010246D01*
X0033857Y0016144D02*
X0041234Y0016144D01*
X0041991Y0015830D02*
X0043867Y0015830D01*
X0045600Y0016548D01*
X0046927Y0017875D01*
X0047645Y0019608D01*
X0047645Y0028534D01*
X0046927Y0030267D01*
X0045600Y0031594D01*
X0043867Y0032311D01*
X0041991Y0032311D01*
X0040258Y0031594D01*
X0038931Y0030267D01*
X0038214Y0028534D01*
X0038214Y0019608D01*
X0038931Y0017875D01*
X0040258Y0016548D01*
X0041991Y0015830D01*
X0044625Y0016144D02*
X0059985Y0016144D01*
X0059933Y0016171D02*
X0060650Y0015805D01*
X0061416Y0015556D01*
X0062030Y0015459D01*
X0062030Y0023486D01*
X0057499Y0023486D01*
X0057499Y0020143D01*
X0057625Y0019348D01*
X0057873Y0018582D01*
X0058239Y0017865D01*
X0058712Y0017213D01*
X0059282Y0016644D01*
X0059933Y0016171D01*
X0058632Y0017324D02*
X0046376Y0017324D01*
X0047187Y0018503D02*
X0057914Y0018503D01*
X0057572Y0019683D02*
X0047645Y0019683D01*
X0047645Y0020863D02*
X0057499Y0020863D01*
X0057499Y0022042D02*
X0047645Y0022042D01*
X0047645Y0023222D02*
X0057499Y0023222D01*
X0057499Y0025581D02*
X0047645Y0025581D01*
X0047645Y0026761D02*
X0057499Y0026761D01*
X0057499Y0027940D02*
X0047645Y0027940D01*
X0047402Y0029120D02*
X0057731Y0029120D01*
X0058255Y0030299D02*
X0046894Y0030299D01*
X0045715Y0031479D02*
X0059263Y0031479D01*
X0062030Y0031479D02*
X0063199Y0031479D01*
X0063199Y0030299D02*
X0062030Y0030299D01*
X0062030Y0029120D02*
X0063199Y0029120D01*
X0063199Y0027940D02*
X0062030Y0027940D01*
X0062030Y0026761D02*
X0063199Y0026761D01*
X0063199Y0025581D02*
X0062030Y0025581D01*
X0062030Y0024401D02*
X0047645Y0024401D01*
X0040144Y0031479D02*
X0026030Y0031479D01*
X0027209Y0030299D02*
X0038964Y0030299D01*
X0038456Y0029120D02*
X0027717Y0029120D01*
X0027960Y0027940D02*
X0038214Y0027940D01*
X0038214Y0026761D02*
X0027960Y0026761D01*
X0027960Y0025581D02*
X0038214Y0025581D01*
X0038214Y0024401D02*
X0027960Y0024401D01*
X0027960Y0023222D02*
X0038214Y0023222D01*
X0038214Y0022042D02*
X0027960Y0022042D01*
X0029138Y0020863D02*
X0038214Y0020863D01*
X0038214Y0019683D02*
X0030318Y0019683D01*
X0031497Y0018503D02*
X0038671Y0018503D01*
X0039483Y0017324D02*
X0032677Y0017324D01*
X0062030Y0017324D02*
X0063199Y0017324D01*
X0063199Y0018503D02*
X0062030Y0018503D01*
X0062030Y0019683D02*
X0063199Y0019683D01*
X0063199Y0020863D02*
X0062030Y0020863D01*
X0062030Y0022042D02*
X0063199Y0022042D01*
X0063199Y0023222D02*
X0062030Y0023222D01*
X0063199Y0023486D02*
X0063199Y0015459D01*
X0063812Y0015556D01*
X0064578Y0015805D01*
X0065295Y0016171D01*
X0065947Y0016644D01*
X0066516Y0017213D01*
X0066989Y0017865D01*
X0067355Y0018582D01*
X0067604Y0019348D01*
X0067730Y0020143D01*
X0067730Y0023486D01*
X0063199Y0023486D01*
X0063199Y0024401D02*
X0077584Y0024401D01*
X0077584Y0025581D02*
X0067730Y0025581D01*
X0067730Y0026761D02*
X0077584Y0026761D01*
X0077584Y0027940D02*
X0067730Y0027940D01*
X0067498Y0029120D02*
X0077826Y0029120D01*
X0078334Y0030299D02*
X0066973Y0030299D01*
X0065965Y0031479D02*
X0079514Y0031479D01*
X0084478Y0031798D02*
X0099806Y0031798D01*
X0099313Y0031594D01*
X0097987Y0030267D01*
X0097269Y0028534D01*
X0097269Y0019608D01*
X0097987Y0017875D01*
X0099313Y0016548D01*
X0100709Y0015970D01*
X0095424Y0015970D01*
X0087015Y0024380D01*
X0087015Y0028534D01*
X0086297Y0030267D01*
X0084970Y0031594D01*
X0084478Y0031798D01*
X0085085Y0031479D02*
X0099199Y0031479D01*
X0098019Y0030299D02*
X0086264Y0030299D01*
X0086772Y0029120D02*
X0097511Y0029120D01*
X0097269Y0027940D02*
X0087015Y0027940D01*
X0087015Y0026761D02*
X0097269Y0026761D01*
X0097269Y0025581D02*
X0087015Y0025581D01*
X0087015Y0024401D02*
X0097269Y0024401D01*
X0097269Y0023222D02*
X0088173Y0023222D01*
X0089352Y0022042D02*
X0097269Y0022042D01*
X0097269Y0020863D02*
X0090532Y0020863D01*
X0091711Y0019683D02*
X0097269Y0019683D01*
X0097726Y0018503D02*
X0092891Y0018503D01*
X0094071Y0017324D02*
X0098538Y0017324D01*
X0100289Y0016144D02*
X0095250Y0016144D01*
X0089920Y0011426D02*
X0074678Y0011426D01*
X0075858Y0012605D02*
X0088740Y0012605D01*
X0087561Y0013785D02*
X0077038Y0013785D01*
X0078217Y0014964D02*
X0086381Y0014964D01*
X0085202Y0016144D02*
X0083995Y0016144D01*
X0083237Y0015830D02*
X0084848Y0016498D01*
X0090941Y0010405D01*
X0090941Y0010405D01*
X0091228Y0010118D01*
X0073371Y0010118D01*
X0079750Y0016498D01*
X0081361Y0015830D01*
X0083237Y0015830D01*
X0080604Y0016144D02*
X0079397Y0016144D01*
X0074067Y0020863D02*
X0067730Y0020863D01*
X0067730Y0022042D02*
X0075246Y0022042D01*
X0076426Y0023222D02*
X0067730Y0023222D01*
X0067657Y0019683D02*
X0072887Y0019683D01*
X0071707Y0018503D02*
X0067315Y0018503D01*
X0066596Y0017324D02*
X0070528Y0017324D01*
X0069348Y0016144D02*
X0065243Y0016144D01*
X0063199Y0016144D02*
X0062030Y0016144D01*
X0073499Y0010246D02*
X0091100Y0010246D01*
X0089891Y0046814D02*
X0092424Y0046814D01*
X0091244Y0047994D02*
X0091071Y0047994D01*
X0090003Y0052712D02*
X0092312Y0052712D01*
X0092337Y0056251D02*
X0089486Y0056251D01*
X0090665Y0057431D02*
X0091158Y0057431D01*
X0129910Y0036258D02*
X0130402Y0036750D01*
X0132622Y0036750D01*
X0133114Y0036258D01*
X0045585Y0056251D02*
X0025718Y0056251D01*
X0025718Y0057431D02*
X0024549Y0057431D01*
X0024549Y0058610D02*
X0025718Y0058610D01*
X0025718Y0059790D02*
X0024549Y0059790D01*
X0031504Y0071586D02*
X0035833Y0071586D01*
X0035833Y0072766D02*
X0032668Y0072766D01*
X0033156Y0073945D02*
X0035833Y0073945D01*
X0035833Y0075125D02*
X0033374Y0075125D01*
X0033528Y0076304D02*
X0035833Y0076304D01*
X0035833Y0077484D02*
X0034707Y0077484D01*
X0035815Y0078664D02*
X0035833Y0078664D01*
X0016701Y0102256D02*
X0015520Y0102256D01*
X0015520Y0103435D02*
X0016701Y0103435D01*
X0016701Y0104615D02*
X0015520Y0104615D01*
X0015520Y0105795D02*
X0016701Y0105795D01*
X0016701Y0106974D02*
X0015520Y0106974D01*
X0009598Y0098717D02*
X0009134Y0098717D01*
X0009134Y0097537D02*
X0009598Y0097537D01*
X0009598Y0096358D02*
X0009134Y0096358D01*
X0021588Y0162416D02*
X0026793Y0162416D01*
X0026614Y0163596D02*
X0022222Y0163596D01*
X0022222Y0164775D02*
X0026614Y0164775D01*
X0026643Y0165955D02*
X0022222Y0165955D01*
X0022222Y0167135D02*
X0026959Y0167135D01*
X0027275Y0168314D02*
X0022222Y0168314D01*
X0022222Y0169494D02*
X0027894Y0169494D01*
X0028575Y0170673D02*
X0022222Y0170673D01*
X0022222Y0171853D02*
X0029655Y0171853D01*
X0073961Y0182953D02*
X0079750Y0188742D01*
X0081361Y0188074D01*
X0083237Y0188074D01*
X0084848Y0188742D01*
X0090637Y0182953D01*
X0073961Y0182953D01*
X0074658Y0183649D02*
X0089941Y0183649D01*
X0088761Y0184829D02*
X0075837Y0184829D01*
X0077017Y0186008D02*
X0087581Y0186008D01*
X0086402Y0187188D02*
X0078197Y0187188D01*
X0079376Y0188368D02*
X0080653Y0188368D01*
X0083945Y0188368D02*
X0085222Y0188368D01*
X0047118Y0253246D02*
X0046631Y0253246D01*
X0047118Y0254426D02*
X0045451Y0254426D01*
X0045301Y0255606D02*
X0047118Y0255606D01*
X0047275Y0256785D02*
X0045301Y0256785D01*
X0045301Y0257965D02*
X0047774Y0257965D01*
X0010653Y0334640D02*
X0009134Y0334640D01*
X0009134Y0335819D02*
X0009998Y0335819D01*
X0009998Y0336999D02*
X0009134Y0336999D01*
X0009134Y0338179D02*
X0009998Y0338179D01*
X0009998Y0339358D02*
X0009134Y0339358D01*
X0009134Y0340538D02*
X0009998Y0340538D01*
X0009998Y0341717D02*
X0009134Y0341717D01*
X0009134Y0342897D02*
X0009998Y0342897D01*
X0009998Y0344077D02*
X0009134Y0344077D01*
X0009134Y0345256D02*
X0009998Y0345256D01*
D18*
X0027181Y0315567D03*
X0038992Y0248638D03*
X0044898Y0248638D03*
X0056709Y0240764D03*
X0051787Y0213205D03*
X0052772Y0195488D03*
X0071472Y0206315D03*
X0087220Y0214189D03*
X0091157Y0226984D03*
X0077378Y0231906D03*
X0076394Y0242732D03*
X0106906Y0231906D03*
X0106906Y0226000D03*
X0109270Y0217869D03*
X0107890Y0214189D03*
X0110843Y0201394D03*
X0107890Y0189583D03*
X0094110Y0193520D03*
X0092142Y0199425D03*
X0086236Y0183677D03*
X0077378Y0183677D03*
X0034071Y0200409D03*
X0021276Y0184661D03*
X0013402Y0194504D03*
X0020291Y0217142D03*
X0024228Y0239780D03*
X0011433Y0247654D03*
X0027181Y0143323D03*
X0038992Y0076394D03*
X0044898Y0076394D03*
X0056709Y0068520D03*
X0076394Y0070488D03*
X0077378Y0059661D03*
X0091157Y0054740D03*
X0087220Y0041945D03*
X0092142Y0027181D03*
X0094110Y0021276D03*
X0086236Y0011433D03*
X0077378Y0011433D03*
X0071472Y0034071D03*
X0052772Y0023244D03*
X0051787Y0040961D03*
X0034071Y0028165D03*
X0021276Y0012417D03*
X0013402Y0022260D03*
X0020291Y0044898D03*
X0024228Y0067535D03*
X0011433Y0075409D03*
X0106906Y0059661D03*
X0106906Y0053756D03*
X0109270Y0045625D03*
X0107890Y0041945D03*
X0110843Y0029150D03*
X0107890Y0017339D03*
X0128559Y0022260D03*
X0131586Y0025286D03*
X0135449Y0031118D03*
X0131512Y0034071D03*
X0147260Y0031118D03*
X0155134Y0020291D03*
X0171866Y0028165D03*
X0181709Y0047850D03*
X0175803Y0060646D03*
X0169898Y0050803D03*
X0157102Y0074425D03*
X0161039Y0079346D03*
X0157102Y0082299D03*
X0148244Y0050803D03*
X0128559Y0062614D03*
X0124622Y0066551D03*
X0123638Y0073441D03*
X0113795Y0085252D03*
X0133480Y0011433D03*
X0189780Y0070215D03*
X0200409Y0067535D03*
X0205331Y0071472D03*
X0213205Y0065567D03*
X0220094Y0054248D03*
X0213205Y0050803D03*
X0220094Y0044898D03*
X0213205Y0042218D03*
X0207299Y0032102D03*
X0205331Y0026197D03*
X0197457Y0026197D03*
X0195488Y0037024D03*
X0197457Y0049819D03*
X0133480Y0183677D03*
X0128559Y0194504D03*
X0131586Y0197530D03*
X0135449Y0203362D03*
X0131512Y0206315D03*
X0147260Y0203362D03*
X0155134Y0192535D03*
X0171866Y0200409D03*
X0181709Y0220094D03*
X0175803Y0232890D03*
X0169898Y0223047D03*
X0157102Y0246669D03*
X0161039Y0251591D03*
X0157102Y0254543D03*
X0148244Y0223047D03*
X0128559Y0234858D03*
X0124622Y0238795D03*
X0123638Y0245685D03*
X0113795Y0257496D03*
X0189780Y0242459D03*
X0200409Y0239780D03*
X0205331Y0243717D03*
X0213205Y0237811D03*
X0220094Y0226492D03*
X0213205Y0223047D03*
X0213205Y0214462D03*
X0220094Y0217142D03*
X0207299Y0204346D03*
X0205331Y0198441D03*
X0197457Y0198441D03*
X0195488Y0209268D03*
X0197457Y0222063D03*
D19*
X0147260Y0203362D02*
X0141354Y0203362D01*
X0141354Y0199425D01*
X0126591Y0184661D01*
X0093953Y0184661D01*
X0082299Y0196315D01*
X0070118Y0184134D01*
X0033087Y0184134D01*
X0023244Y0193976D01*
X0023244Y0196315D01*
X0135449Y0203362D02*
X0141354Y0203362D01*
X0141354Y0031118D02*
X0135449Y0031118D01*
X0141354Y0031118D02*
X0141354Y0027181D01*
X0126591Y0012417D01*
X0093953Y0012417D01*
X0082299Y0024071D01*
X0070118Y0011890D01*
X0033087Y0011890D01*
X0023244Y0021732D01*
X0023244Y0024071D01*
X0141354Y0031118D02*
X0147260Y0031118D01*
D20*
X0047535Y0059661D02*
X0038992Y0068205D01*
X0038992Y0070488D01*
X0044898Y0076394D01*
X0038992Y0076394D01*
X0038992Y0070488D01*
X0038992Y0076394D02*
X0038992Y0080236D01*
X0040961Y0082205D01*
X0044898Y0078268D01*
X0044898Y0076394D01*
X0040961Y0088205D02*
X0035055Y0088205D01*
X0033087Y0086236D01*
X0033087Y0080331D01*
X0028165Y0075409D01*
X0025134Y0075409D01*
X0040961Y0094205D02*
X0040961Y0129543D01*
X0027181Y0143323D01*
X0047535Y0231906D02*
X0038992Y0240449D01*
X0038992Y0242732D01*
X0044898Y0248638D01*
X0038992Y0248638D01*
X0038992Y0242732D01*
X0038992Y0248638D02*
X0038992Y0252480D01*
X0040961Y0254449D01*
X0044898Y0250512D01*
X0044898Y0248638D01*
X0040961Y0260449D02*
X0035055Y0260449D01*
X0033087Y0258480D01*
X0033087Y0252575D01*
X0028165Y0247654D01*
X0025134Y0247654D01*
X0040961Y0266449D02*
X0040961Y0301787D01*
X0027181Y0315567D01*
D21*
X0148244Y0223047D02*
X0169898Y0223047D01*
X0169898Y0050803D02*
X0148244Y0050803D01*
D22*
X0124622Y0066551D02*
X0097732Y0066551D01*
X0094780Y0069504D01*
X0097732Y0238795D02*
X0124622Y0238795D01*
X0097732Y0238795D02*
X0094780Y0241748D01*
M02*
