G75*
%MOIN*%
%OFA0B0*%
%FSLAX25Y25*%
%IPPOS*%
%LPD*%
%AMOC8*
5,1,8,0,0,1.08239X$1,22.5*
%
%ADD10C,0.06000*%
%ADD11OC8,0.05200*%
%ADD12C,0.05937*%
%ADD13R,0.04600X0.06300*%
%ADD14C,0.07050*%
%ADD15R,0.06300X0.04600*%
%ADD16R,0.09843X0.09843*%
%ADD17R,0.05150X0.05150*%
%ADD18C,0.05150*%
%ADD19C,0.01181*%
%ADD20C,0.02978*%
%ADD21C,0.03937*%
%ADD22C,0.04724*%
%ADD23C,0.03150*%
D10*
X0117127Y0076056D02*
X0117127Y0082056D01*
X0127127Y0082056D02*
X0127127Y0076056D01*
X0137127Y0076056D02*
X0137127Y0082056D01*
X0147127Y0082056D02*
X0147127Y0076056D01*
X0157127Y0076056D02*
X0157127Y0082056D01*
X0151969Y0029891D02*
X0151969Y0023891D01*
X0141969Y0023891D02*
X0141969Y0029891D01*
X0141969Y0196135D02*
X0141969Y0202135D01*
X0151969Y0202135D02*
X0151969Y0196135D01*
X0147127Y0248300D02*
X0147127Y0254300D01*
X0157127Y0254300D02*
X0157127Y0248300D01*
X0137127Y0248300D02*
X0137127Y0254300D01*
X0127127Y0254300D02*
X0127127Y0248300D01*
X0117127Y0248300D02*
X0117127Y0254300D01*
D11*
X0099410Y0240473D03*
X0092166Y0240473D03*
X0092166Y0230631D03*
X0099410Y0230631D03*
X0099410Y0220788D03*
X0092166Y0220788D03*
X0052166Y0220788D03*
X0052166Y0230631D03*
X0052166Y0240473D03*
X0139410Y0240473D03*
X0139410Y0230631D03*
X0139410Y0220788D03*
X0139410Y0068229D03*
X0139410Y0058387D03*
X0139410Y0048544D03*
X0099410Y0048544D03*
X0092166Y0048544D03*
X0092166Y0058387D03*
X0099410Y0058387D03*
X0099410Y0068229D03*
X0092166Y0068229D03*
X0052166Y0068229D03*
X0052166Y0058387D03*
X0052166Y0048544D03*
D12*
X0066261Y0078072D03*
X0076103Y0078072D03*
X0085946Y0078072D03*
X0085946Y0250316D03*
X0076103Y0250316D03*
X0066261Y0250316D03*
D13*
X0195103Y0231615D03*
X0201103Y0231615D03*
X0207103Y0231615D03*
X0207103Y0059371D03*
X0201103Y0059371D03*
X0195103Y0059371D03*
D14*
X0126300Y0026321D02*
X0126300Y0019271D01*
X0106615Y0019271D02*
X0106615Y0026321D01*
X0086930Y0026321D02*
X0086930Y0019271D01*
X0067245Y0019271D02*
X0067245Y0026321D01*
X0047560Y0026321D02*
X0047560Y0019271D01*
X0027875Y0019271D02*
X0027875Y0026321D01*
X0026240Y0054450D02*
X0033290Y0054450D01*
X0033290Y0074135D02*
X0026240Y0074135D01*
X0027875Y0191515D02*
X0027875Y0198565D01*
X0047560Y0198565D02*
X0047560Y0191515D01*
X0067245Y0191515D02*
X0067245Y0198565D01*
X0086930Y0198565D02*
X0086930Y0191515D01*
X0106615Y0191515D02*
X0106615Y0198565D01*
X0126300Y0198565D02*
X0126300Y0191515D01*
X0033290Y0226694D02*
X0026240Y0226694D01*
X0026240Y0246379D02*
X0033290Y0246379D01*
D15*
X0030171Y0259127D03*
X0030171Y0265127D03*
X0045591Y0265174D03*
X0045591Y0259174D03*
X0045591Y0253174D03*
X0075775Y0259127D03*
X0075775Y0265127D03*
X0098741Y0265127D03*
X0098741Y0259127D03*
X0167639Y0259127D03*
X0167639Y0265127D03*
X0167639Y0092883D03*
X0167639Y0086883D03*
X0098741Y0086883D03*
X0098741Y0092883D03*
X0075775Y0092883D03*
X0075775Y0086883D03*
X0045591Y0086930D03*
X0045591Y0092930D03*
X0045591Y0080930D03*
X0030171Y0086883D03*
X0030171Y0092883D03*
D16*
X0020741Y0099190D03*
X0020741Y0167190D03*
X0020741Y0271434D03*
X0020741Y0339434D03*
X0176741Y0339434D03*
X0176741Y0271434D03*
X0176741Y0167190D03*
X0176741Y0099190D03*
D17*
X0066024Y0078072D03*
X0066024Y0250316D03*
D18*
X0076024Y0250316D03*
X0086024Y0250316D03*
X0096024Y0250316D03*
X0096024Y0078072D03*
X0086024Y0078072D03*
X0076024Y0078072D03*
D19*
X0013765Y0075699D02*
X0013765Y0018436D01*
X0014368Y0018686D01*
X0017760Y0018686D01*
X0020894Y0017388D01*
X0023293Y0014989D01*
X0024591Y0011855D01*
X0024591Y0008843D01*
X0034465Y0008843D01*
X0028752Y0014556D01*
X0026937Y0014556D01*
X0025204Y0015273D01*
X0023877Y0016600D01*
X0023159Y0018333D01*
X0023159Y0027259D01*
X0023877Y0028992D01*
X0025204Y0030319D01*
X0026937Y0031037D01*
X0028813Y0031037D01*
X0030546Y0030319D01*
X0031872Y0028992D01*
X0032590Y0027259D01*
X0032590Y0020766D01*
X0039189Y0014168D01*
X0073277Y0014168D01*
X0082214Y0023105D01*
X0082214Y0027259D01*
X0082932Y0028992D01*
X0084259Y0030319D01*
X0085992Y0031037D01*
X0087868Y0031037D01*
X0089601Y0030319D01*
X0090928Y0028992D01*
X0091645Y0027259D01*
X0091645Y0018333D01*
X0090928Y0016600D01*
X0089601Y0015273D01*
X0087868Y0014556D01*
X0085992Y0014556D01*
X0084381Y0015223D01*
X0078001Y0008843D01*
X0135583Y0008843D01*
X0135431Y0009209D01*
X0135431Y0010275D01*
X0135839Y0011260D01*
X0136593Y0012013D01*
X0137358Y0012330D01*
X0133968Y0015720D01*
X0134380Y0014724D01*
X0134380Y0013467D01*
X0133899Y0012306D01*
X0132423Y0010829D01*
X0131534Y0009941D01*
X0130373Y0009460D01*
X0099589Y0009460D01*
X0098428Y0009941D01*
X0094094Y0014274D01*
X0093613Y0015435D01*
X0093613Y0039362D01*
X0089488Y0043487D01*
X0089007Y0044648D01*
X0089007Y0046343D01*
X0088376Y0046974D01*
X0088376Y0047409D01*
X0088217Y0047026D01*
X0087463Y0046273D01*
X0086479Y0045865D01*
X0085413Y0045865D01*
X0084428Y0046273D01*
X0083674Y0047026D01*
X0083266Y0048011D01*
X0083266Y0049077D01*
X0083674Y0050062D01*
X0084428Y0050816D01*
X0085413Y0051224D01*
X0086479Y0051224D01*
X0087463Y0050816D01*
X0088217Y0050062D01*
X0088376Y0049680D01*
X0088376Y0050114D01*
X0089946Y0051684D01*
X0066192Y0051684D01*
X0065149Y0052728D01*
X0065149Y0052728D01*
X0053438Y0064439D01*
X0050596Y0064439D01*
X0048376Y0066659D01*
X0048376Y0069499D01*
X0046949Y0068072D01*
X0052843Y0062177D01*
X0053736Y0062177D01*
X0055957Y0059957D01*
X0055957Y0056817D01*
X0053736Y0054596D01*
X0050596Y0054596D01*
X0048376Y0056817D01*
X0048376Y0057710D01*
X0041833Y0064252D01*
X0040945Y0065140D01*
X0040464Y0066302D01*
X0040464Y0077431D01*
X0040395Y0077266D01*
X0039507Y0076378D01*
X0039507Y0076378D01*
X0038005Y0074876D01*
X0038005Y0073197D01*
X0037287Y0071463D01*
X0035961Y0070137D01*
X0034228Y0069419D01*
X0025302Y0069419D01*
X0023568Y0070137D01*
X0022242Y0071463D01*
X0021524Y0073197D01*
X0021524Y0075073D01*
X0022242Y0076806D01*
X0023568Y0078132D01*
X0025302Y0078850D01*
X0033044Y0078850D01*
X0034558Y0080364D01*
X0034558Y0083570D01*
X0034298Y0083310D01*
X0033935Y0083101D01*
X0033531Y0082992D01*
X0030731Y0082992D01*
X0030731Y0084992D01*
X0029612Y0084992D01*
X0029612Y0082992D01*
X0026812Y0082992D01*
X0026407Y0083101D01*
X0026045Y0083310D01*
X0025749Y0083606D01*
X0025539Y0083969D01*
X0025431Y0084373D01*
X0025431Y0084992D01*
X0024591Y0084992D01*
X0024591Y0082281D01*
X0023293Y0079147D01*
X0020894Y0076748D01*
X0017760Y0075450D01*
X0014368Y0075450D01*
X0013765Y0075699D01*
X0013765Y0075030D02*
X0021524Y0075030D01*
X0021524Y0073850D02*
X0013765Y0073850D01*
X0013765Y0072670D02*
X0021742Y0072670D01*
X0022231Y0071491D02*
X0013765Y0071491D01*
X0013765Y0070311D02*
X0023394Y0070311D01*
X0021995Y0076209D02*
X0019594Y0076209D01*
X0021535Y0077389D02*
X0022825Y0077389D01*
X0022715Y0078568D02*
X0024621Y0078568D01*
X0023542Y0079748D02*
X0033942Y0079748D01*
X0034558Y0080928D02*
X0024031Y0080928D01*
X0024519Y0082107D02*
X0034558Y0082107D01*
X0034558Y0083287D02*
X0034258Y0083287D01*
X0030731Y0083287D02*
X0029612Y0083287D01*
X0029612Y0084466D02*
X0030731Y0084466D01*
X0026085Y0083287D02*
X0024591Y0083287D01*
X0024591Y0084466D02*
X0025431Y0084466D01*
X0029612Y0094773D02*
X0029612Y0096773D01*
X0027253Y0096773D01*
X0027253Y0098599D01*
X0021332Y0098599D01*
X0021332Y0099780D01*
X0027253Y0099780D01*
X0027253Y0104320D01*
X0027144Y0104725D01*
X0026935Y0105088D01*
X0026639Y0105384D01*
X0026276Y0105593D01*
X0025872Y0105702D01*
X0021331Y0105702D01*
X0021331Y0099780D01*
X0020150Y0099780D01*
X0020150Y0098599D01*
X0014229Y0098599D01*
X0014229Y0094773D01*
X0013765Y0094773D01*
X0013765Y0171606D01*
X0014629Y0171606D01*
X0014629Y0161775D01*
X0015327Y0161078D01*
X0026155Y0161078D01*
X0026853Y0161775D01*
X0026853Y0171606D01*
X0035327Y0171606D01*
X0035296Y0171589D01*
X0033342Y0169634D01*
X0031960Y0167241D01*
X0031245Y0164572D01*
X0031245Y0161808D01*
X0031960Y0159138D01*
X0033342Y0156745D01*
X0035296Y0154791D01*
X0037690Y0153409D01*
X0040359Y0152694D01*
X0043123Y0152694D01*
X0045792Y0153409D01*
X0048186Y0154791D01*
X0050140Y0156745D01*
X0051522Y0159138D01*
X0052237Y0161808D01*
X0052237Y0164572D01*
X0051522Y0167241D01*
X0050140Y0169634D01*
X0048186Y0171589D01*
X0048155Y0171606D01*
X0170629Y0171606D01*
X0170629Y0161775D01*
X0171327Y0161078D01*
X0182155Y0161078D01*
X0182853Y0161775D01*
X0182853Y0171606D01*
X0184371Y0171606D01*
X0184371Y0094773D01*
X0183253Y0094773D01*
X0183253Y0098599D01*
X0177332Y0098599D01*
X0177332Y0099780D01*
X0183253Y0099780D01*
X0183253Y0104320D01*
X0183144Y0104725D01*
X0182935Y0105088D01*
X0182639Y0105384D01*
X0182276Y0105593D01*
X0181872Y0105702D01*
X0177331Y0105702D01*
X0177331Y0099780D01*
X0176150Y0099780D01*
X0176150Y0098599D01*
X0170229Y0098599D01*
X0170229Y0096773D01*
X0168198Y0096773D01*
X0168198Y0094773D01*
X0167079Y0094773D01*
X0167079Y0096684D01*
X0167140Y0096745D01*
X0168522Y0099138D01*
X0169237Y0101808D01*
X0169237Y0104572D01*
X0168522Y0107241D01*
X0167140Y0109634D01*
X0165186Y0111589D01*
X0162792Y0112971D01*
X0160123Y0113686D01*
X0157359Y0113686D01*
X0154690Y0112971D01*
X0152296Y0111589D01*
X0150342Y0109634D01*
X0148960Y0107241D01*
X0148245Y0104572D01*
X0148245Y0101808D01*
X0148960Y0099138D01*
X0150342Y0096745D01*
X0152296Y0094791D01*
X0152327Y0094773D01*
X0103481Y0094773D01*
X0103481Y0095392D01*
X0103373Y0095797D01*
X0103164Y0096159D01*
X0102868Y0096455D01*
X0102505Y0096665D01*
X0102100Y0096773D01*
X0099300Y0096773D01*
X0099300Y0094773D01*
X0098181Y0094773D01*
X0098181Y0096773D01*
X0095382Y0096773D01*
X0094977Y0096665D01*
X0094614Y0096455D01*
X0094318Y0096159D01*
X0094109Y0095797D01*
X0094000Y0095392D01*
X0094000Y0094773D01*
X0080516Y0094773D01*
X0080516Y0095392D01*
X0080407Y0095797D01*
X0080198Y0096159D01*
X0079902Y0096455D01*
X0079539Y0096665D01*
X0079134Y0096773D01*
X0076335Y0096773D01*
X0076335Y0094773D01*
X0075216Y0094773D01*
X0075216Y0096773D01*
X0072416Y0096773D01*
X0072011Y0096665D01*
X0071648Y0096455D01*
X0071352Y0096159D01*
X0071143Y0095797D01*
X0071035Y0095392D01*
X0071035Y0094773D01*
X0049932Y0094773D01*
X0049932Y0095723D01*
X0049234Y0096420D01*
X0048750Y0096420D01*
X0048750Y0128897D01*
X0048269Y0130058D01*
X0033601Y0144726D01*
X0032440Y0145207D01*
X0031183Y0145207D01*
X0030022Y0144726D01*
X0029134Y0143837D01*
X0028653Y0142676D01*
X0028653Y0141420D01*
X0029134Y0140259D01*
X0042432Y0126960D01*
X0042432Y0096420D01*
X0041948Y0096420D01*
X0041251Y0095723D01*
X0041251Y0094773D01*
X0034912Y0094773D01*
X0034912Y0095392D01*
X0034804Y0095797D01*
X0034594Y0096159D01*
X0034298Y0096455D01*
X0033935Y0096665D01*
X0033531Y0096773D01*
X0030731Y0096773D01*
X0030731Y0094773D01*
X0029612Y0094773D01*
X0029612Y0095083D02*
X0030731Y0095083D01*
X0030731Y0096263D02*
X0029612Y0096263D01*
X0027253Y0097442D02*
X0042432Y0097442D01*
X0042432Y0098622D02*
X0021332Y0098622D01*
X0021331Y0099801D02*
X0020150Y0099801D01*
X0020150Y0099780D02*
X0020150Y0105702D01*
X0015610Y0105702D01*
X0015206Y0105593D01*
X0014843Y0105384D01*
X0014547Y0105088D01*
X0014338Y0104725D01*
X0014229Y0104320D01*
X0014229Y0099780D01*
X0020150Y0099780D01*
X0020150Y0098622D02*
X0013765Y0098622D01*
X0013765Y0099801D02*
X0014229Y0099801D01*
X0014229Y0100981D02*
X0013765Y0100981D01*
X0013765Y0102161D02*
X0014229Y0102161D01*
X0014229Y0103340D02*
X0013765Y0103340D01*
X0013765Y0104520D02*
X0014283Y0104520D01*
X0013765Y0105700D02*
X0015603Y0105700D01*
X0013765Y0106879D02*
X0042432Y0106879D01*
X0042432Y0105700D02*
X0025879Y0105700D01*
X0027199Y0104520D02*
X0042432Y0104520D01*
X0042432Y0103340D02*
X0027253Y0103340D01*
X0027253Y0102161D02*
X0042432Y0102161D01*
X0042432Y0100981D02*
X0027253Y0100981D01*
X0027253Y0099801D02*
X0042432Y0099801D01*
X0041790Y0096263D02*
X0034491Y0096263D01*
X0034912Y0095083D02*
X0041251Y0095083D01*
X0048750Y0097442D02*
X0149939Y0097442D01*
X0149258Y0098622D02*
X0048750Y0098622D01*
X0048750Y0099801D02*
X0148783Y0099801D01*
X0148466Y0100981D02*
X0048750Y0100981D01*
X0048750Y0102161D02*
X0148245Y0102161D01*
X0148245Y0103340D02*
X0048750Y0103340D01*
X0048750Y0104520D02*
X0148245Y0104520D01*
X0148547Y0105700D02*
X0048750Y0105700D01*
X0048750Y0106879D02*
X0148863Y0106879D01*
X0149432Y0108059D02*
X0048750Y0108059D01*
X0048750Y0109238D02*
X0150113Y0109238D01*
X0151126Y0110418D02*
X0048750Y0110418D01*
X0048750Y0111598D02*
X0152312Y0111598D01*
X0154355Y0112777D02*
X0048750Y0112777D01*
X0048750Y0113957D02*
X0184371Y0113957D01*
X0184371Y0115136D02*
X0048750Y0115136D01*
X0048750Y0116316D02*
X0184371Y0116316D01*
X0184371Y0117496D02*
X0048750Y0117496D01*
X0048750Y0118675D02*
X0184371Y0118675D01*
X0184371Y0119855D02*
X0048750Y0119855D01*
X0048750Y0121035D02*
X0184371Y0121035D01*
X0184371Y0122214D02*
X0048750Y0122214D01*
X0048750Y0123394D02*
X0184371Y0123394D01*
X0184371Y0124573D02*
X0048750Y0124573D01*
X0048750Y0125753D02*
X0184371Y0125753D01*
X0184371Y0126933D02*
X0048750Y0126933D01*
X0048750Y0128112D02*
X0184371Y0128112D01*
X0184371Y0129292D02*
X0048587Y0129292D01*
X0047856Y0130471D02*
X0184371Y0130471D01*
X0184371Y0131651D02*
X0046676Y0131651D01*
X0045497Y0132831D02*
X0184371Y0132831D01*
X0184371Y0134010D02*
X0044317Y0134010D01*
X0043138Y0135190D02*
X0184371Y0135190D01*
X0184371Y0136369D02*
X0041958Y0136369D01*
X0040778Y0137549D02*
X0184371Y0137549D01*
X0184371Y0138729D02*
X0039599Y0138729D01*
X0038419Y0139908D02*
X0184371Y0139908D01*
X0184371Y0141088D02*
X0037239Y0141088D01*
X0036060Y0142268D02*
X0184371Y0142268D01*
X0184371Y0143447D02*
X0034880Y0143447D01*
X0033701Y0144627D02*
X0184371Y0144627D01*
X0184371Y0145806D02*
X0013765Y0145806D01*
X0013765Y0144627D02*
X0029923Y0144627D01*
X0028972Y0143447D02*
X0013765Y0143447D01*
X0013765Y0142268D02*
X0028653Y0142268D01*
X0028790Y0141088D02*
X0013765Y0141088D01*
X0013765Y0139908D02*
X0029484Y0139908D01*
X0030664Y0138729D02*
X0013765Y0138729D01*
X0013765Y0137549D02*
X0031843Y0137549D01*
X0033023Y0136369D02*
X0013765Y0136369D01*
X0013765Y0135190D02*
X0034202Y0135190D01*
X0035382Y0134010D02*
X0013765Y0134010D01*
X0013765Y0132831D02*
X0036562Y0132831D01*
X0037741Y0131651D02*
X0013765Y0131651D01*
X0013765Y0130471D02*
X0038921Y0130471D01*
X0040100Y0129292D02*
X0013765Y0129292D01*
X0013765Y0128112D02*
X0041280Y0128112D01*
X0042432Y0126933D02*
X0013765Y0126933D01*
X0013765Y0125753D02*
X0042432Y0125753D01*
X0042432Y0124573D02*
X0013765Y0124573D01*
X0013765Y0123394D02*
X0042432Y0123394D01*
X0042432Y0122214D02*
X0013765Y0122214D01*
X0013765Y0121035D02*
X0042432Y0121035D01*
X0042432Y0119855D02*
X0013765Y0119855D01*
X0013765Y0118675D02*
X0042432Y0118675D01*
X0042432Y0117496D02*
X0013765Y0117496D01*
X0013765Y0116316D02*
X0042432Y0116316D01*
X0042432Y0115136D02*
X0013765Y0115136D01*
X0013765Y0113957D02*
X0042432Y0113957D01*
X0042432Y0112777D02*
X0013765Y0112777D01*
X0013765Y0111598D02*
X0042432Y0111598D01*
X0042432Y0110418D02*
X0013765Y0110418D01*
X0013765Y0109238D02*
X0042432Y0109238D01*
X0042432Y0108059D02*
X0013765Y0108059D01*
X0020150Y0105700D02*
X0021331Y0105700D01*
X0021331Y0104520D02*
X0020150Y0104520D01*
X0020150Y0103340D02*
X0021331Y0103340D01*
X0021331Y0102161D02*
X0020150Y0102161D01*
X0020150Y0100981D02*
X0021331Y0100981D01*
X0014229Y0097442D02*
X0013765Y0097442D01*
X0013765Y0096263D02*
X0014229Y0096263D01*
X0014229Y0095083D02*
X0013765Y0095083D01*
X0013765Y0069132D02*
X0040464Y0069132D01*
X0040464Y0070311D02*
X0036135Y0070311D01*
X0037298Y0071491D02*
X0040464Y0071491D01*
X0040464Y0072670D02*
X0037787Y0072670D01*
X0038005Y0073850D02*
X0040464Y0073850D01*
X0040464Y0075030D02*
X0038159Y0075030D01*
X0039338Y0076209D02*
X0040464Y0076209D01*
X0040446Y0077389D02*
X0040464Y0077389D01*
X0040464Y0067952D02*
X0013765Y0067952D01*
X0013765Y0066772D02*
X0040464Y0066772D01*
X0040757Y0065593D02*
X0013765Y0065593D01*
X0013765Y0064413D02*
X0041672Y0064413D01*
X0042852Y0063233D02*
X0013765Y0063233D01*
X0013765Y0062054D02*
X0044031Y0062054D01*
X0045211Y0060874D02*
X0013765Y0060874D01*
X0013765Y0059695D02*
X0046391Y0059695D01*
X0047570Y0058515D02*
X0036397Y0058515D01*
X0036622Y0058352D02*
X0035971Y0058825D01*
X0035253Y0059190D01*
X0034487Y0059439D01*
X0033692Y0059565D01*
X0030349Y0059565D01*
X0030349Y0055034D01*
X0038376Y0055034D01*
X0038279Y0055648D01*
X0038030Y0056413D01*
X0037665Y0057131D01*
X0037191Y0057782D01*
X0036622Y0058352D01*
X0037516Y0057335D02*
X0048376Y0057335D01*
X0049036Y0056156D02*
X0038114Y0056156D01*
X0038376Y0053865D02*
X0030349Y0053865D01*
X0030349Y0049334D01*
X0033692Y0049334D01*
X0034487Y0049460D01*
X0035253Y0049709D01*
X0035971Y0050074D01*
X0036622Y0050548D01*
X0037191Y0051117D01*
X0037665Y0051768D01*
X0038030Y0052486D01*
X0038279Y0053252D01*
X0038376Y0053865D01*
X0038365Y0053797D02*
X0064080Y0053797D01*
X0062900Y0054976D02*
X0054116Y0054976D01*
X0055296Y0056156D02*
X0061721Y0056156D01*
X0060541Y0057335D02*
X0055957Y0057335D01*
X0055957Y0058515D02*
X0059361Y0058515D01*
X0058182Y0059695D02*
X0055957Y0059695D01*
X0055039Y0060874D02*
X0057002Y0060874D01*
X0055823Y0062054D02*
X0053860Y0062054D01*
X0054643Y0063233D02*
X0051787Y0063233D01*
X0050607Y0064413D02*
X0053463Y0064413D01*
X0055957Y0066957D02*
X0055957Y0069799D01*
X0053736Y0072020D01*
X0050897Y0072020D01*
X0052206Y0073329D01*
X0052687Y0074491D01*
X0052687Y0077621D01*
X0052206Y0078782D01*
X0051318Y0079671D01*
X0051318Y0079671D01*
X0049932Y0081057D01*
X0049932Y0083723D01*
X0049725Y0083930D01*
X0049932Y0084137D01*
X0049932Y0084992D01*
X0071035Y0084992D01*
X0071035Y0084373D01*
X0071143Y0083969D01*
X0071352Y0083606D01*
X0071648Y0083310D01*
X0072011Y0083101D01*
X0072416Y0082992D01*
X0075216Y0082992D01*
X0075216Y0084992D01*
X0076335Y0084992D01*
X0076335Y0082992D01*
X0079134Y0082992D01*
X0079539Y0083101D01*
X0079902Y0083310D01*
X0080198Y0083606D01*
X0080407Y0083969D01*
X0080516Y0084373D01*
X0080516Y0084992D01*
X0094000Y0084992D01*
X0094000Y0084373D01*
X0094109Y0083969D01*
X0094318Y0083606D01*
X0094614Y0083310D01*
X0094977Y0083101D01*
X0095382Y0082992D01*
X0098181Y0082992D01*
X0098181Y0084992D01*
X0099300Y0084992D01*
X0099300Y0082992D01*
X0102100Y0082992D01*
X0102505Y0083101D01*
X0102868Y0083310D01*
X0103164Y0083606D01*
X0103373Y0083969D01*
X0103481Y0084373D01*
X0103481Y0084992D01*
X0114137Y0084992D01*
X0113574Y0084430D01*
X0112936Y0082889D01*
X0112936Y0075222D01*
X0113574Y0073682D01*
X0114753Y0072503D01*
X0115346Y0072258D01*
X0115346Y0066120D01*
X0115023Y0066443D01*
X0114038Y0066851D01*
X0113344Y0066851D01*
X0106307Y0073888D01*
X0105264Y0074931D01*
X0098775Y0074931D01*
X0099202Y0075358D01*
X0099587Y0075889D01*
X0099885Y0076473D01*
X0100087Y0077096D01*
X0100190Y0077744D01*
X0100190Y0077875D01*
X0096221Y0077875D01*
X0096221Y0078269D01*
X0095828Y0078269D01*
X0095828Y0082237D01*
X0095697Y0082237D01*
X0095049Y0082134D01*
X0094425Y0081932D01*
X0093841Y0081634D01*
X0093311Y0081249D01*
X0092847Y0080785D01*
X0092462Y0080255D01*
X0092164Y0079671D01*
X0091962Y0079047D01*
X0091859Y0078399D01*
X0091859Y0078269D01*
X0095827Y0078269D01*
X0095827Y0077875D01*
X0091859Y0077875D01*
X0091859Y0077744D01*
X0091962Y0077096D01*
X0092164Y0076473D01*
X0092462Y0075889D01*
X0092847Y0075358D01*
X0093274Y0074931D01*
X0089253Y0074931D01*
X0089423Y0075102D01*
X0089845Y0075682D01*
X0090171Y0076322D01*
X0090392Y0077004D01*
X0090499Y0077678D01*
X0090179Y0077678D01*
X0090190Y0077744D01*
X0090190Y0077875D01*
X0086339Y0077875D01*
X0086339Y0078269D01*
X0090190Y0078269D01*
X0090190Y0078399D01*
X0090179Y0078465D01*
X0090499Y0078465D01*
X0090392Y0079139D01*
X0090171Y0079822D01*
X0089845Y0080461D01*
X0089423Y0081042D01*
X0088916Y0081549D01*
X0088335Y0081971D01*
X0087696Y0082297D01*
X0087013Y0082518D01*
X0086339Y0082625D01*
X0086339Y0082237D01*
X0086221Y0082237D01*
X0086221Y0078465D01*
X0085828Y0078465D01*
X0085828Y0082237D01*
X0085697Y0082237D01*
X0085552Y0082214D01*
X0085552Y0082625D01*
X0084878Y0082518D01*
X0084196Y0082297D01*
X0083556Y0081971D01*
X0082976Y0081549D01*
X0082468Y0081042D01*
X0082046Y0080461D01*
X0081721Y0079822D01*
X0081499Y0079139D01*
X0081392Y0078465D01*
X0081870Y0078465D01*
X0081859Y0078399D01*
X0081859Y0078269D01*
X0085552Y0078269D01*
X0085552Y0077875D01*
X0081859Y0077875D01*
X0081859Y0077744D01*
X0081870Y0077678D01*
X0081392Y0077678D01*
X0081499Y0077004D01*
X0081721Y0076322D01*
X0082046Y0075682D01*
X0082468Y0075102D01*
X0082638Y0074931D01*
X0081762Y0074931D01*
X0080024Y0076670D01*
X0080262Y0077244D01*
X0080262Y0078899D01*
X0079629Y0080428D01*
X0078459Y0081598D01*
X0076930Y0082231D01*
X0075276Y0082231D01*
X0073747Y0081598D01*
X0072577Y0080428D01*
X0071944Y0078899D01*
X0071944Y0077244D01*
X0072577Y0075716D01*
X0073747Y0074546D01*
X0075276Y0073913D01*
X0076930Y0073913D01*
X0077505Y0074151D01*
X0079243Y0072413D01*
X0080287Y0071369D01*
X0089946Y0071369D01*
X0088376Y0069799D01*
X0088376Y0066659D01*
X0090596Y0064439D01*
X0093438Y0064439D01*
X0095306Y0062570D01*
X0096350Y0061527D01*
X0097190Y0061527D01*
X0095788Y0060125D01*
X0093736Y0062177D01*
X0090596Y0062177D01*
X0088376Y0059957D01*
X0088376Y0056817D01*
X0089946Y0055246D01*
X0067668Y0055246D01*
X0055957Y0066957D01*
X0056142Y0066772D02*
X0082665Y0066772D01*
X0082690Y0066711D02*
X0083444Y0065958D01*
X0084428Y0065550D01*
X0085494Y0065550D01*
X0086479Y0065958D01*
X0087233Y0066711D01*
X0087641Y0067696D01*
X0087641Y0068762D01*
X0087233Y0069747D01*
X0086479Y0070501D01*
X0085494Y0070909D01*
X0084428Y0070909D01*
X0083444Y0070501D01*
X0082690Y0069747D01*
X0082282Y0068762D01*
X0082282Y0067696D01*
X0082690Y0066711D01*
X0082282Y0067952D02*
X0055957Y0067952D01*
X0055957Y0069132D02*
X0082435Y0069132D01*
X0083254Y0070311D02*
X0055445Y0070311D01*
X0054265Y0071491D02*
X0080165Y0071491D01*
X0078986Y0072670D02*
X0051547Y0072670D01*
X0052422Y0073850D02*
X0077806Y0073850D01*
X0081024Y0073150D02*
X0104526Y0073150D01*
X0113505Y0064172D01*
X0115346Y0062223D02*
X0115346Y0056112D01*
X0106368Y0065089D01*
X0104893Y0065089D01*
X0101631Y0065089D01*
X0103201Y0066659D01*
X0103201Y0069799D01*
X0101631Y0071369D01*
X0103788Y0071369D01*
X0110825Y0064332D01*
X0110825Y0063639D01*
X0111233Y0062654D01*
X0111987Y0061900D01*
X0112972Y0061492D01*
X0114038Y0061492D01*
X0115023Y0061900D01*
X0115346Y0062223D01*
X0115346Y0062054D02*
X0115176Y0062054D01*
X0115346Y0060874D02*
X0110583Y0060874D01*
X0109404Y0062054D02*
X0111833Y0062054D01*
X0110993Y0063233D02*
X0108224Y0063233D01*
X0107044Y0064413D02*
X0110744Y0064413D01*
X0109565Y0065593D02*
X0102134Y0065593D01*
X0103201Y0066772D02*
X0108385Y0066772D01*
X0107206Y0067952D02*
X0103201Y0067952D01*
X0103201Y0069132D02*
X0106026Y0069132D01*
X0104846Y0070311D02*
X0102689Y0070311D01*
X0106345Y0073850D02*
X0113505Y0073850D01*
X0113016Y0075030D02*
X0098873Y0075030D01*
X0099750Y0076209D02*
X0112936Y0076209D01*
X0112936Y0077389D02*
X0100134Y0077389D01*
X0100190Y0078269D02*
X0100190Y0078399D01*
X0100087Y0079047D01*
X0099885Y0079671D01*
X0099587Y0080255D01*
X0099202Y0080785D01*
X0098738Y0081249D01*
X0098208Y0081634D01*
X0097623Y0081932D01*
X0097000Y0082134D01*
X0096352Y0082237D01*
X0096221Y0082237D01*
X0096221Y0078269D01*
X0100190Y0078269D01*
X0100163Y0078568D02*
X0112936Y0078568D01*
X0112936Y0079748D02*
X0099845Y0079748D01*
X0099059Y0080928D02*
X0112936Y0080928D01*
X0112936Y0082107D02*
X0097083Y0082107D01*
X0096221Y0082107D02*
X0095828Y0082107D01*
X0094965Y0082107D02*
X0088067Y0082107D01*
X0086221Y0082107D02*
X0085828Y0082107D01*
X0085828Y0080928D02*
X0086221Y0080928D01*
X0086221Y0079748D02*
X0085828Y0079748D01*
X0085828Y0078568D02*
X0086221Y0078568D01*
X0086221Y0077678D02*
X0086221Y0074931D01*
X0085828Y0074931D01*
X0085828Y0077678D01*
X0086221Y0077678D01*
X0086221Y0077389D02*
X0085828Y0077389D01*
X0085828Y0076209D02*
X0086221Y0076209D01*
X0086221Y0075030D02*
X0085828Y0075030D01*
X0082540Y0075030D02*
X0081664Y0075030D01*
X0081778Y0076209D02*
X0080484Y0076209D01*
X0080262Y0077389D02*
X0081438Y0077389D01*
X0081408Y0078568D02*
X0080262Y0078568D01*
X0079910Y0079748D02*
X0081697Y0079748D01*
X0082385Y0080928D02*
X0079129Y0080928D01*
X0077228Y0082107D02*
X0083824Y0082107D01*
X0080516Y0084466D02*
X0094000Y0084466D01*
X0094654Y0083287D02*
X0079862Y0083287D01*
X0076335Y0083287D02*
X0075216Y0083287D01*
X0075216Y0084466D02*
X0076335Y0084466D01*
X0074978Y0082107D02*
X0067386Y0082107D01*
X0067088Y0082231D02*
X0065433Y0082231D01*
X0064483Y0081837D01*
X0062956Y0081837D01*
X0062259Y0081140D01*
X0062259Y0079279D01*
X0062102Y0078899D01*
X0062102Y0077244D01*
X0062259Y0076864D01*
X0062259Y0075004D01*
X0062956Y0074306D01*
X0064483Y0074306D01*
X0065433Y0073913D01*
X0067088Y0073913D01*
X0068038Y0074306D01*
X0069092Y0074306D01*
X0069790Y0075004D01*
X0069790Y0075724D01*
X0070420Y0077244D01*
X0070420Y0078899D01*
X0069790Y0080420D01*
X0069790Y0081140D01*
X0069092Y0081837D01*
X0068038Y0081837D01*
X0067088Y0082231D01*
X0065135Y0082107D02*
X0049932Y0082107D01*
X0049932Y0083287D02*
X0071688Y0083287D01*
X0071035Y0084466D02*
X0049932Y0084466D01*
X0050061Y0080928D02*
X0062259Y0080928D01*
X0062259Y0079748D02*
X0051241Y0079748D01*
X0052295Y0078568D02*
X0062102Y0078568D01*
X0062102Y0077389D02*
X0052687Y0077389D01*
X0052687Y0076209D02*
X0062259Y0076209D01*
X0062259Y0075030D02*
X0052687Y0075030D01*
X0052166Y0068229D02*
X0066930Y0053465D01*
X0107599Y0053465D01*
X0105591Y0051684D02*
X0106081Y0051194D01*
X0107066Y0050786D01*
X0108132Y0050786D01*
X0109117Y0051194D01*
X0109871Y0051948D01*
X0110279Y0052932D01*
X0110279Y0053998D01*
X0109871Y0054983D01*
X0109117Y0055737D01*
X0108132Y0056145D01*
X0107066Y0056145D01*
X0106081Y0055737D01*
X0105591Y0055246D01*
X0101631Y0055246D01*
X0103201Y0056817D01*
X0103201Y0059957D01*
X0101631Y0061527D01*
X0104893Y0061527D01*
X0113565Y0052855D01*
X0113565Y0043206D01*
X0125411Y0031360D01*
X0125102Y0031311D01*
X0124336Y0031062D01*
X0123619Y0030696D01*
X0122967Y0030223D01*
X0122398Y0029654D01*
X0121925Y0029002D01*
X0121559Y0028285D01*
X0121310Y0027519D01*
X0121184Y0026724D01*
X0121184Y0023381D01*
X0125715Y0023381D01*
X0125715Y0022212D01*
X0121184Y0022212D01*
X0121184Y0018868D01*
X0121310Y0018073D01*
X0121559Y0017307D01*
X0121925Y0016590D01*
X0122398Y0015938D01*
X0122559Y0015778D01*
X0109791Y0015778D01*
X0110613Y0016600D01*
X0111330Y0018333D01*
X0111330Y0027259D01*
X0110613Y0028992D01*
X0109286Y0030319D01*
X0107553Y0031037D01*
X0105677Y0031037D01*
X0103944Y0030319D01*
X0102617Y0028992D01*
X0101899Y0027259D01*
X0101899Y0018333D01*
X0102617Y0016600D01*
X0103439Y0015778D01*
X0101526Y0015778D01*
X0099931Y0017372D01*
X0099931Y0040042D01*
X0099931Y0041298D01*
X0099451Y0042460D01*
X0095446Y0046464D01*
X0095788Y0046805D01*
X0097840Y0044754D01*
X0100980Y0044754D01*
X0103201Y0046974D01*
X0103201Y0050114D01*
X0101631Y0051684D01*
X0105591Y0051684D01*
X0105838Y0051437D02*
X0101878Y0051437D01*
X0103057Y0050258D02*
X0113565Y0050258D01*
X0113565Y0051437D02*
X0109361Y0051437D01*
X0110148Y0052617D02*
X0113565Y0052617D01*
X0112623Y0053797D02*
X0110279Y0053797D01*
X0109874Y0054976D02*
X0111444Y0054976D01*
X0110264Y0056156D02*
X0102540Y0056156D01*
X0103201Y0057335D02*
X0109084Y0057335D01*
X0107905Y0058515D02*
X0103201Y0058515D01*
X0103201Y0059695D02*
X0106725Y0059695D01*
X0105546Y0060874D02*
X0102283Y0060874D01*
X0105631Y0063308D02*
X0097087Y0063308D01*
X0092166Y0068229D01*
X0089442Y0065593D02*
X0085598Y0065593D01*
X0084324Y0065593D02*
X0057321Y0065593D01*
X0058501Y0064413D02*
X0093463Y0064413D01*
X0094643Y0063233D02*
X0059681Y0063233D01*
X0060860Y0062054D02*
X0090473Y0062054D01*
X0089293Y0060874D02*
X0062040Y0060874D01*
X0063220Y0059695D02*
X0088376Y0059695D01*
X0088376Y0058515D02*
X0064399Y0058515D01*
X0065579Y0057335D02*
X0088376Y0057335D01*
X0089036Y0056156D02*
X0066758Y0056156D01*
X0065259Y0052617D02*
X0038073Y0052617D01*
X0037424Y0051437D02*
X0049699Y0051437D01*
X0050596Y0052335D02*
X0048376Y0050114D01*
X0048376Y0046974D01*
X0050596Y0044754D01*
X0053736Y0044754D01*
X0055957Y0046974D01*
X0055957Y0050114D01*
X0053736Y0052335D01*
X0050596Y0052335D01*
X0050216Y0054976D02*
X0030349Y0054976D01*
X0030349Y0055034D02*
X0030349Y0053865D01*
X0029180Y0053865D01*
X0029180Y0049334D01*
X0025837Y0049334D01*
X0025042Y0049460D01*
X0024276Y0049709D01*
X0023558Y0050074D01*
X0022907Y0050548D01*
X0022338Y0051117D01*
X0021864Y0051768D01*
X0021499Y0052486D01*
X0021250Y0053252D01*
X0021153Y0053865D01*
X0029180Y0053865D01*
X0029180Y0055034D01*
X0021153Y0055034D01*
X0021250Y0055648D01*
X0021499Y0056413D01*
X0021864Y0057131D01*
X0022338Y0057782D01*
X0022907Y0058352D01*
X0023558Y0058825D01*
X0024276Y0059190D01*
X0025042Y0059439D01*
X0025837Y0059565D01*
X0029180Y0059565D01*
X0029180Y0055034D01*
X0030349Y0055034D01*
X0030349Y0056156D02*
X0029180Y0056156D01*
X0029180Y0057335D02*
X0030349Y0057335D01*
X0030349Y0058515D02*
X0029180Y0058515D01*
X0029180Y0054976D02*
X0013765Y0054976D01*
X0013765Y0053797D02*
X0021164Y0053797D01*
X0021456Y0052617D02*
X0013765Y0052617D01*
X0013765Y0051437D02*
X0022105Y0051437D01*
X0023306Y0050258D02*
X0013765Y0050258D01*
X0013765Y0049078D02*
X0048376Y0049078D01*
X0048376Y0047898D02*
X0013765Y0047898D01*
X0013765Y0046719D02*
X0048631Y0046719D01*
X0049810Y0045539D02*
X0013765Y0045539D01*
X0013765Y0044360D02*
X0089127Y0044360D01*
X0089007Y0045539D02*
X0054522Y0045539D01*
X0055702Y0046719D02*
X0083981Y0046719D01*
X0083313Y0047898D02*
X0055957Y0047898D01*
X0055957Y0049078D02*
X0083267Y0049078D01*
X0083870Y0050258D02*
X0055813Y0050258D01*
X0054634Y0051437D02*
X0089699Y0051437D01*
X0088519Y0050258D02*
X0088021Y0050258D01*
X0087910Y0046719D02*
X0088631Y0046719D01*
X0089795Y0043180D02*
X0013765Y0043180D01*
X0013765Y0042000D02*
X0090975Y0042000D01*
X0092154Y0040821D02*
X0013765Y0040821D01*
X0013765Y0039641D02*
X0093334Y0039641D01*
X0093613Y0038462D02*
X0013765Y0038462D01*
X0013765Y0037282D02*
X0093613Y0037282D01*
X0093613Y0036102D02*
X0013765Y0036102D01*
X0013765Y0034923D02*
X0093613Y0034923D01*
X0093613Y0033743D02*
X0013765Y0033743D01*
X0013765Y0032563D02*
X0093613Y0032563D01*
X0093613Y0031384D02*
X0067980Y0031384D01*
X0067829Y0031384D02*
X0066660Y0031384D01*
X0066660Y0031408D02*
X0066047Y0031311D01*
X0065281Y0031062D01*
X0064564Y0030696D01*
X0063912Y0030223D01*
X0063343Y0029654D01*
X0062870Y0029002D01*
X0062504Y0028285D01*
X0062255Y0027519D01*
X0062129Y0026724D01*
X0062129Y0023381D01*
X0066660Y0023381D01*
X0066660Y0031408D01*
X0066509Y0031384D02*
X0013765Y0031384D01*
X0013765Y0030204D02*
X0025089Y0030204D01*
X0023910Y0029025D02*
X0013765Y0029025D01*
X0013765Y0027845D02*
X0023402Y0027845D01*
X0023159Y0026665D02*
X0013765Y0026665D01*
X0013765Y0025486D02*
X0023159Y0025486D01*
X0023159Y0024306D02*
X0013765Y0024306D01*
X0013765Y0023127D02*
X0023159Y0023127D01*
X0023159Y0021947D02*
X0013765Y0021947D01*
X0013765Y0020767D02*
X0023159Y0020767D01*
X0023159Y0019588D02*
X0013765Y0019588D01*
X0018430Y0018408D02*
X0023159Y0018408D01*
X0023617Y0017229D02*
X0021053Y0017229D01*
X0022233Y0016049D02*
X0024428Y0016049D01*
X0023343Y0014869D02*
X0026179Y0014869D01*
X0023831Y0013690D02*
X0029618Y0013690D01*
X0030798Y0012510D02*
X0024320Y0012510D01*
X0024591Y0011330D02*
X0031977Y0011330D01*
X0033157Y0010151D02*
X0024591Y0010151D01*
X0024591Y0008971D02*
X0034337Y0008971D01*
X0038487Y0014869D02*
X0045864Y0014869D01*
X0046622Y0014556D02*
X0048498Y0014556D01*
X0050231Y0015273D01*
X0051557Y0016600D01*
X0052275Y0018333D01*
X0052275Y0027259D01*
X0051557Y0028992D01*
X0050231Y0030319D01*
X0048498Y0031037D01*
X0046622Y0031037D01*
X0044889Y0030319D01*
X0043562Y0028992D01*
X0042844Y0027259D01*
X0042844Y0018333D01*
X0043562Y0016600D01*
X0044889Y0015273D01*
X0046622Y0014556D01*
X0049255Y0014869D02*
X0064616Y0014869D01*
X0064564Y0014896D02*
X0065281Y0014530D01*
X0066047Y0014281D01*
X0066660Y0014184D01*
X0066660Y0022212D01*
X0062129Y0022212D01*
X0062129Y0018868D01*
X0062255Y0018073D01*
X0062504Y0017307D01*
X0062870Y0016590D01*
X0063343Y0015938D01*
X0063912Y0015369D01*
X0064564Y0014896D01*
X0063263Y0016049D02*
X0051006Y0016049D01*
X0051818Y0017229D02*
X0062544Y0017229D01*
X0062202Y0018408D02*
X0052275Y0018408D01*
X0052275Y0019588D02*
X0062129Y0019588D01*
X0062129Y0020767D02*
X0052275Y0020767D01*
X0052275Y0021947D02*
X0062129Y0021947D01*
X0062129Y0024306D02*
X0052275Y0024306D01*
X0052275Y0023127D02*
X0066660Y0023127D01*
X0066660Y0023381D02*
X0066660Y0022212D01*
X0067829Y0022212D01*
X0067829Y0023381D01*
X0066660Y0023381D01*
X0066660Y0024306D02*
X0067829Y0024306D01*
X0067829Y0023381D02*
X0067829Y0031408D01*
X0068443Y0031311D01*
X0069209Y0031062D01*
X0069926Y0030696D01*
X0070577Y0030223D01*
X0071147Y0029654D01*
X0071620Y0029002D01*
X0071986Y0028285D01*
X0072234Y0027519D01*
X0072360Y0026724D01*
X0072360Y0023381D01*
X0067829Y0023381D01*
X0067829Y0023127D02*
X0082214Y0023127D01*
X0082214Y0024306D02*
X0072360Y0024306D01*
X0072360Y0025486D02*
X0082214Y0025486D01*
X0082214Y0026665D02*
X0072360Y0026665D01*
X0072129Y0027845D02*
X0082457Y0027845D01*
X0082965Y0029025D02*
X0071604Y0029025D01*
X0070596Y0030204D02*
X0084144Y0030204D01*
X0089716Y0030204D02*
X0093613Y0030204D01*
X0093613Y0029025D02*
X0090895Y0029025D01*
X0091403Y0027845D02*
X0093613Y0027845D01*
X0093613Y0026665D02*
X0091645Y0026665D01*
X0091645Y0025486D02*
X0093613Y0025486D01*
X0093613Y0024306D02*
X0091645Y0024306D01*
X0091645Y0023127D02*
X0093613Y0023127D01*
X0093613Y0021947D02*
X0091645Y0021947D01*
X0091645Y0020767D02*
X0093613Y0020767D01*
X0093613Y0019588D02*
X0091645Y0019588D01*
X0091645Y0018408D02*
X0093613Y0018408D01*
X0093613Y0017229D02*
X0091188Y0017229D01*
X0090377Y0016049D02*
X0093613Y0016049D01*
X0093848Y0014869D02*
X0088625Y0014869D01*
X0085234Y0014869D02*
X0084027Y0014869D01*
X0082848Y0013690D02*
X0094679Y0013690D01*
X0095859Y0012510D02*
X0081668Y0012510D01*
X0080489Y0011330D02*
X0097038Y0011330D01*
X0098218Y0010151D02*
X0079309Y0010151D01*
X0078129Y0008971D02*
X0135530Y0008971D01*
X0135431Y0010151D02*
X0131744Y0010151D01*
X0132924Y0011330D02*
X0135910Y0011330D01*
X0137177Y0012510D02*
X0133984Y0012510D01*
X0134380Y0013690D02*
X0135998Y0013690D01*
X0134818Y0014869D02*
X0134320Y0014869D01*
X0139785Y0012421D02*
X0131221Y0020985D01*
X0131221Y0028069D01*
X0115346Y0043944D01*
X0115346Y0053593D01*
X0105631Y0063308D01*
X0111763Y0059695D02*
X0115346Y0059695D01*
X0115346Y0058515D02*
X0112942Y0058515D01*
X0114122Y0057335D02*
X0115346Y0057335D01*
X0115302Y0056156D02*
X0115346Y0056156D01*
X0120689Y0056156D02*
X0129424Y0056156D01*
X0129007Y0055739D02*
X0127964Y0054695D01*
X0127964Y0041409D01*
X0129007Y0040365D01*
X0129007Y0040365D01*
X0138033Y0031339D01*
X0138031Y0031334D01*
X0122470Y0046895D01*
X0122470Y0050069D01*
X0123187Y0050786D01*
X0123880Y0050786D01*
X0124865Y0051194D01*
X0125619Y0051948D01*
X0126027Y0052932D01*
X0126027Y0053998D01*
X0125619Y0054983D01*
X0124865Y0055737D01*
X0123880Y0056145D01*
X0122814Y0056145D01*
X0121829Y0055737D01*
X0121076Y0054983D01*
X0120689Y0054050D01*
X0120689Y0070099D01*
X0123923Y0073333D01*
X0124753Y0072503D01*
X0126293Y0071865D01*
X0127960Y0071865D01*
X0129501Y0072503D01*
X0130679Y0073682D01*
X0131317Y0075222D01*
X0131317Y0082889D01*
X0130679Y0084430D01*
X0130117Y0084992D01*
X0134137Y0084992D01*
X0133574Y0084430D01*
X0132936Y0082889D01*
X0132936Y0075222D01*
X0133574Y0073682D01*
X0134753Y0072503D01*
X0136293Y0071865D01*
X0137686Y0071865D01*
X0135620Y0069799D01*
X0135620Y0066659D01*
X0137190Y0065089D01*
X0133230Y0065089D01*
X0132739Y0065579D01*
X0131754Y0065987D01*
X0130688Y0065987D01*
X0129703Y0065579D01*
X0128950Y0064826D01*
X0128542Y0063841D01*
X0128542Y0062775D01*
X0128950Y0061790D01*
X0129703Y0061036D01*
X0130688Y0060628D01*
X0131754Y0060628D01*
X0132739Y0061036D01*
X0133230Y0061527D01*
X0137190Y0061527D01*
X0135831Y0060168D01*
X0133436Y0060168D01*
X0132393Y0059124D01*
X0129007Y0055739D01*
X0128245Y0054976D02*
X0125622Y0054976D01*
X0126027Y0053797D02*
X0127964Y0053797D01*
X0127964Y0052617D02*
X0125896Y0052617D01*
X0125109Y0051437D02*
X0127964Y0051437D01*
X0127964Y0050258D02*
X0122658Y0050258D01*
X0122470Y0049078D02*
X0127964Y0049078D01*
X0127964Y0047898D02*
X0122470Y0047898D01*
X0122646Y0046719D02*
X0127964Y0046719D01*
X0127964Y0045539D02*
X0123826Y0045539D01*
X0125006Y0044360D02*
X0127964Y0044360D01*
X0127964Y0043180D02*
X0126185Y0043180D01*
X0127365Y0042000D02*
X0127964Y0042000D01*
X0128545Y0040821D02*
X0128552Y0040821D01*
X0129724Y0039641D02*
X0129731Y0039641D01*
X0130904Y0038462D02*
X0130911Y0038462D01*
X0132083Y0037282D02*
X0132091Y0037282D01*
X0133263Y0036102D02*
X0133270Y0036102D01*
X0134443Y0034923D02*
X0134450Y0034923D01*
X0135622Y0033743D02*
X0135629Y0033743D01*
X0136802Y0032563D02*
X0136809Y0032563D01*
X0137981Y0031384D02*
X0137989Y0031384D01*
X0136565Y0030282D02*
X0120689Y0046158D01*
X0120689Y0050807D01*
X0123347Y0053465D01*
X0121073Y0054976D02*
X0120689Y0054976D01*
X0120689Y0057335D02*
X0130604Y0057335D01*
X0131784Y0058515D02*
X0120689Y0058515D01*
X0120689Y0059695D02*
X0132963Y0059695D01*
X0132348Y0060874D02*
X0136537Y0060874D01*
X0134174Y0058387D02*
X0139410Y0058387D01*
X0151221Y0046576D01*
X0208977Y0046576D01*
X0222757Y0060355D01*
X0224706Y0058515D02*
X0227678Y0058515D01*
X0227678Y0059695D02*
X0225383Y0059695D01*
X0225436Y0059822D02*
X0225028Y0058837D01*
X0224275Y0058084D01*
X0223290Y0057676D01*
X0222596Y0057676D01*
X0209715Y0044794D01*
X0150484Y0044794D01*
X0149440Y0045838D01*
X0140682Y0054596D01*
X0137840Y0054596D01*
X0135831Y0056606D01*
X0134912Y0056606D01*
X0131526Y0053220D01*
X0131526Y0042884D01*
X0140565Y0033845D01*
X0141136Y0034081D01*
X0142803Y0034081D01*
X0144343Y0033443D01*
X0145522Y0032264D01*
X0146160Y0030724D01*
X0146160Y0023057D01*
X0145522Y0021517D01*
X0144343Y0020338D01*
X0142803Y0019700D01*
X0142582Y0019700D01*
X0142736Y0019546D01*
X0150486Y0019546D01*
X0150207Y0019636D01*
X0149563Y0019964D01*
X0148979Y0020389D01*
X0148468Y0020900D01*
X0148043Y0021485D01*
X0147715Y0022128D01*
X0147492Y0022816D01*
X0147379Y0023529D01*
X0147379Y0026481D01*
X0151560Y0026481D01*
X0151560Y0027300D01*
X0151560Y0034473D01*
X0150894Y0034368D01*
X0150207Y0034145D01*
X0149563Y0033817D01*
X0148979Y0033392D01*
X0148468Y0032881D01*
X0148043Y0032297D01*
X0147715Y0031653D01*
X0147492Y0030966D01*
X0147379Y0030252D01*
X0147379Y0027300D01*
X0151560Y0027300D01*
X0152379Y0027300D01*
X0156560Y0027300D01*
X0156560Y0030252D01*
X0156447Y0030966D01*
X0156224Y0031653D01*
X0155895Y0032297D01*
X0155471Y0032881D01*
X0154960Y0033392D01*
X0154375Y0033817D01*
X0153731Y0034145D01*
X0153044Y0034368D01*
X0152379Y0034473D01*
X0152379Y0027300D01*
X0152379Y0026481D01*
X0156560Y0026481D01*
X0156560Y0023529D01*
X0156447Y0022816D01*
X0156224Y0022128D01*
X0155895Y0021485D01*
X0155471Y0020900D01*
X0154960Y0020389D01*
X0154375Y0019964D01*
X0153731Y0019636D01*
X0153452Y0019546D01*
X0194076Y0019546D01*
X0201291Y0026761D01*
X0201291Y0026851D01*
X0200800Y0027341D01*
X0200392Y0028326D01*
X0200392Y0029392D01*
X0200800Y0030377D01*
X0201554Y0031131D01*
X0202539Y0031539D01*
X0203605Y0031539D01*
X0204589Y0031131D01*
X0205343Y0030377D01*
X0205751Y0029392D01*
X0205751Y0028702D01*
X0208486Y0031437D01*
X0216074Y0031437D01*
X0216972Y0032335D01*
X0222783Y0032335D01*
X0223580Y0031539D01*
X0224274Y0031539D01*
X0225259Y0031131D01*
X0226013Y0030377D01*
X0226420Y0029392D01*
X0226420Y0028326D01*
X0226013Y0027341D01*
X0225259Y0026587D01*
X0224274Y0026180D01*
X0223208Y0026180D01*
X0222223Y0026587D01*
X0221490Y0027320D01*
X0221091Y0026357D01*
X0220338Y0025603D01*
X0219353Y0025195D01*
X0218287Y0025195D01*
X0217302Y0025603D01*
X0216811Y0026094D01*
X0214548Y0026094D01*
X0215186Y0025456D01*
X0215594Y0024471D01*
X0215594Y0023405D01*
X0215186Y0022420D01*
X0214432Y0021666D01*
X0213447Y0021258D01*
X0212381Y0021258D01*
X0211396Y0021666D01*
X0210689Y0022374D01*
X0209498Y0022374D01*
X0198808Y0011684D01*
X0197764Y0010640D01*
X0167033Y0010640D01*
X0165236Y0008843D01*
X0227678Y0008843D01*
X0227678Y0084992D01*
X0172379Y0084992D01*
X0172379Y0084373D01*
X0172271Y0083969D01*
X0172061Y0083606D01*
X0171765Y0083310D01*
X0171402Y0083101D01*
X0170998Y0082992D01*
X0168198Y0082992D01*
X0168198Y0084992D01*
X0167079Y0084992D01*
X0167079Y0082992D01*
X0164279Y0082992D01*
X0163875Y0083101D01*
X0163512Y0083310D01*
X0163216Y0083606D01*
X0163006Y0083969D01*
X0162898Y0084373D01*
X0162898Y0084992D01*
X0160117Y0084992D01*
X0160679Y0084430D01*
X0161317Y0082889D01*
X0161317Y0075222D01*
X0160679Y0073682D01*
X0159501Y0072503D01*
X0157960Y0071865D01*
X0156293Y0071865D01*
X0154753Y0072503D01*
X0153574Y0073682D01*
X0152936Y0075222D01*
X0152936Y0082889D01*
X0153574Y0084430D01*
X0154137Y0084992D01*
X0150668Y0084992D01*
X0151053Y0084462D01*
X0151381Y0083818D01*
X0151604Y0083131D01*
X0151717Y0082417D01*
X0151717Y0079465D01*
X0147536Y0079465D01*
X0147536Y0078646D01*
X0151717Y0078646D01*
X0151717Y0075695D01*
X0151604Y0074981D01*
X0151381Y0074294D01*
X0151053Y0073650D01*
X0150628Y0073065D01*
X0150117Y0072554D01*
X0149533Y0072130D01*
X0148889Y0071802D01*
X0148202Y0071578D01*
X0148197Y0071578D01*
X0153914Y0065862D01*
X0154038Y0065986D01*
X0155199Y0066467D01*
X0183031Y0066467D01*
X0184192Y0065986D01*
X0185080Y0065097D01*
X0185561Y0063936D01*
X0185561Y0062679D01*
X0185080Y0061518D01*
X0184192Y0060630D01*
X0183031Y0060149D01*
X0157136Y0060149D01*
X0156436Y0059449D01*
X0155275Y0058968D01*
X0154018Y0058968D01*
X0152857Y0059449D01*
X0152772Y0059533D01*
X0152171Y0059782D01*
X0143201Y0068753D01*
X0143201Y0066659D01*
X0141631Y0065089D01*
X0143770Y0065089D01*
X0153613Y0055246D01*
X0192094Y0055246D01*
X0191613Y0055728D01*
X0191613Y0060343D01*
X0188554Y0063401D01*
X0187511Y0064444D01*
X0187511Y0067205D01*
X0187021Y0067696D01*
X0186613Y0068680D01*
X0186613Y0069746D01*
X0187021Y0070731D01*
X0187774Y0071485D01*
X0188759Y0071893D01*
X0189825Y0071893D01*
X0190810Y0071485D01*
X0191564Y0070731D01*
X0191972Y0069746D01*
X0191972Y0068680D01*
X0191564Y0067696D01*
X0191073Y0067205D01*
X0191073Y0065920D01*
X0193281Y0063711D01*
X0197896Y0063711D01*
X0198103Y0063505D01*
X0198310Y0063711D01*
X0203896Y0063711D01*
X0204103Y0063505D01*
X0204310Y0063711D01*
X0209896Y0063711D01*
X0210594Y0063014D01*
X0210594Y0061152D01*
X0215129Y0061152D01*
X0219007Y0065030D01*
X0219007Y0066221D01*
X0218517Y0066711D01*
X0218109Y0067696D01*
X0218109Y0068762D01*
X0218517Y0069747D01*
X0219270Y0070501D01*
X0220255Y0070909D01*
X0221321Y0070909D01*
X0222306Y0070501D01*
X0223060Y0069747D01*
X0223468Y0068762D01*
X0223468Y0067696D01*
X0223060Y0066711D01*
X0222569Y0066221D01*
X0222569Y0063554D01*
X0221926Y0062911D01*
X0222224Y0063035D01*
X0223290Y0063035D01*
X0224275Y0062627D01*
X0225028Y0061873D01*
X0225436Y0060888D01*
X0225436Y0059822D01*
X0225436Y0060874D02*
X0227678Y0060874D01*
X0227678Y0062054D02*
X0224847Y0062054D01*
X0222248Y0063233D02*
X0227678Y0063233D01*
X0227678Y0064413D02*
X0222569Y0064413D01*
X0222569Y0065593D02*
X0227678Y0065593D01*
X0227678Y0066772D02*
X0223085Y0066772D01*
X0223468Y0067952D02*
X0227678Y0067952D01*
X0227678Y0069132D02*
X0223315Y0069132D01*
X0222496Y0070311D02*
X0227678Y0070311D01*
X0227678Y0071491D02*
X0190796Y0071491D01*
X0191738Y0070311D02*
X0219081Y0070311D01*
X0218262Y0069132D02*
X0191972Y0069132D01*
X0191670Y0067952D02*
X0218109Y0067952D01*
X0218491Y0066772D02*
X0191073Y0066772D01*
X0191400Y0065593D02*
X0219007Y0065593D01*
X0218390Y0064413D02*
X0192580Y0064413D01*
X0189292Y0065182D02*
X0189292Y0069213D01*
X0186613Y0069132D02*
X0150644Y0069132D01*
X0149464Y0070311D02*
X0186847Y0070311D01*
X0187788Y0071491D02*
X0148284Y0071491D01*
X0150233Y0072670D02*
X0154586Y0072670D01*
X0153505Y0073850D02*
X0151155Y0073850D01*
X0151612Y0075030D02*
X0153016Y0075030D01*
X0152936Y0076209D02*
X0151717Y0076209D01*
X0151717Y0077389D02*
X0152936Y0077389D01*
X0152936Y0078568D02*
X0151717Y0078568D01*
X0151717Y0079748D02*
X0152936Y0079748D01*
X0152936Y0080928D02*
X0151717Y0080928D01*
X0151717Y0082107D02*
X0152936Y0082107D01*
X0153101Y0083287D02*
X0151554Y0083287D01*
X0151050Y0084466D02*
X0153611Y0084466D01*
X0160643Y0084466D02*
X0162898Y0084466D01*
X0163552Y0083287D02*
X0161153Y0083287D01*
X0161317Y0082107D02*
X0227678Y0082107D01*
X0227678Y0080928D02*
X0161317Y0080928D01*
X0161317Y0079748D02*
X0227678Y0079748D01*
X0227678Y0078568D02*
X0161317Y0078568D01*
X0161317Y0077389D02*
X0227678Y0077389D01*
X0227678Y0076209D02*
X0161317Y0076209D01*
X0161237Y0075030D02*
X0227678Y0075030D01*
X0227678Y0073850D02*
X0160749Y0073850D01*
X0159668Y0072670D02*
X0227678Y0072670D01*
X0220788Y0068229D02*
X0220788Y0064292D01*
X0215867Y0059371D01*
X0207103Y0059371D01*
X0210594Y0057590D02*
X0210594Y0055728D01*
X0209896Y0055030D01*
X0204310Y0055030D01*
X0204103Y0055237D01*
X0203896Y0055030D01*
X0202884Y0055030D01*
X0202884Y0053712D01*
X0201900Y0052728D01*
X0201900Y0052728D01*
X0200857Y0051684D01*
X0152137Y0051684D01*
X0142295Y0061527D01*
X0141631Y0061527D01*
X0143201Y0059957D01*
X0143201Y0057115D01*
X0151959Y0048357D01*
X0208239Y0048357D01*
X0220077Y0060194D01*
X0220077Y0060888D01*
X0220200Y0061185D01*
X0216605Y0057590D01*
X0210594Y0057590D01*
X0210594Y0057335D02*
X0217218Y0057335D01*
X0217530Y0058515D02*
X0218398Y0058515D01*
X0218709Y0059695D02*
X0219577Y0059695D01*
X0219889Y0060874D02*
X0220077Y0060874D01*
X0217211Y0063233D02*
X0210374Y0063233D01*
X0210594Y0062054D02*
X0216031Y0062054D01*
X0216038Y0056156D02*
X0210594Y0056156D01*
X0213679Y0053797D02*
X0202884Y0053797D01*
X0202884Y0054976D02*
X0214859Y0054976D01*
X0212500Y0052617D02*
X0201789Y0052617D01*
X0200119Y0053465D02*
X0152875Y0053465D01*
X0143032Y0063308D01*
X0131221Y0063308D01*
X0128542Y0063233D02*
X0120689Y0063233D01*
X0120689Y0062054D02*
X0128840Y0062054D01*
X0130095Y0060874D02*
X0120689Y0060874D01*
X0120689Y0064413D02*
X0128779Y0064413D01*
X0129735Y0065593D02*
X0120689Y0065593D01*
X0120689Y0066772D02*
X0135620Y0066772D01*
X0135620Y0067952D02*
X0120689Y0067952D01*
X0120689Y0069132D02*
X0135620Y0069132D01*
X0136132Y0070311D02*
X0120901Y0070311D01*
X0122080Y0071491D02*
X0137311Y0071491D01*
X0134586Y0072670D02*
X0129668Y0072670D01*
X0130749Y0073850D02*
X0133505Y0073850D01*
X0133016Y0075030D02*
X0131237Y0075030D01*
X0131317Y0076209D02*
X0132936Y0076209D01*
X0132936Y0077389D02*
X0131317Y0077389D01*
X0131317Y0078568D02*
X0132936Y0078568D01*
X0132936Y0079748D02*
X0131317Y0079748D01*
X0131317Y0080928D02*
X0132936Y0080928D01*
X0132936Y0082107D02*
X0131317Y0082107D01*
X0131153Y0083287D02*
X0133101Y0083287D01*
X0133611Y0084466D02*
X0130643Y0084466D01*
X0127127Y0079056D02*
X0118908Y0070837D01*
X0118908Y0045420D01*
X0134783Y0029544D01*
X0134783Y0022461D01*
X0141261Y0015983D01*
X0195551Y0015983D01*
X0209224Y0029656D01*
X0216811Y0029656D01*
X0217710Y0030554D01*
X0222046Y0030554D01*
X0223741Y0028859D01*
X0226221Y0027845D02*
X0227678Y0027845D01*
X0227678Y0026665D02*
X0225337Y0026665D01*
X0226420Y0029025D02*
X0227678Y0029025D01*
X0227678Y0030204D02*
X0226084Y0030204D01*
X0224647Y0031384D02*
X0227678Y0031384D01*
X0227678Y0032563D02*
X0189091Y0032563D01*
X0190030Y0031624D02*
X0180187Y0041467D01*
X0149006Y0041467D01*
X0143201Y0047272D01*
X0143201Y0050114D01*
X0140980Y0052335D01*
X0137840Y0052335D01*
X0135620Y0050114D01*
X0135620Y0046974D01*
X0137840Y0044754D01*
X0140682Y0044754D01*
X0146487Y0038948D01*
X0147531Y0037905D01*
X0178712Y0037905D01*
X0187511Y0029106D01*
X0187511Y0027915D01*
X0187021Y0027424D01*
X0186613Y0026439D01*
X0186613Y0025373D01*
X0187021Y0024388D01*
X0187774Y0023635D01*
X0188759Y0023227D01*
X0189825Y0023227D01*
X0190810Y0023635D01*
X0191564Y0024388D01*
X0191972Y0025373D01*
X0191972Y0026439D01*
X0191564Y0027424D01*
X0191073Y0027915D01*
X0191073Y0030581D01*
X0190030Y0031624D01*
X0190270Y0031384D02*
X0202165Y0031384D01*
X0203978Y0031384D02*
X0208433Y0031384D01*
X0207253Y0030204D02*
X0205415Y0030204D01*
X0205751Y0029025D02*
X0206074Y0029025D01*
X0203072Y0028859D02*
X0203072Y0026023D01*
X0194813Y0017765D01*
X0141998Y0017765D01*
X0136565Y0023198D01*
X0136565Y0030282D01*
X0133002Y0028806D02*
X0133002Y0021723D01*
X0140523Y0014202D01*
X0196289Y0014202D01*
X0209961Y0027875D01*
X0218820Y0027875D01*
X0221219Y0026665D02*
X0222145Y0026665D01*
X0220054Y0025486D02*
X0227678Y0025486D01*
X0227678Y0024306D02*
X0215594Y0024306D01*
X0215478Y0023127D02*
X0227678Y0023127D01*
X0227678Y0021947D02*
X0214713Y0021947D01*
X0212914Y0023938D02*
X0212697Y0024155D01*
X0208760Y0024155D01*
X0197027Y0012421D01*
X0166295Y0012421D01*
X0162717Y0008843D01*
X0139095Y0008843D01*
X0138197Y0009742D01*
X0138111Y0009742D01*
X0139785Y0012421D02*
X0156898Y0012421D01*
X0157796Y0011523D01*
X0165364Y0008971D02*
X0227678Y0008971D01*
X0227678Y0010151D02*
X0166544Y0010151D01*
X0155338Y0020767D02*
X0195297Y0020767D01*
X0194118Y0019588D02*
X0153582Y0019588D01*
X0150357Y0019588D02*
X0142694Y0019588D01*
X0144772Y0020767D02*
X0148600Y0020767D01*
X0147807Y0021947D02*
X0145700Y0021947D01*
X0146160Y0023127D02*
X0147443Y0023127D01*
X0147379Y0024306D02*
X0146160Y0024306D01*
X0146160Y0025486D02*
X0147379Y0025486D01*
X0146160Y0026665D02*
X0151560Y0026665D01*
X0152379Y0026665D02*
X0186706Y0026665D01*
X0186613Y0025486D02*
X0156560Y0025486D01*
X0156560Y0024306D02*
X0187103Y0024306D01*
X0189292Y0025906D02*
X0189292Y0029843D01*
X0179450Y0039686D01*
X0148269Y0039686D01*
X0139410Y0048544D01*
X0136943Y0051437D02*
X0131526Y0051437D01*
X0131526Y0050258D02*
X0135763Y0050258D01*
X0135620Y0049078D02*
X0131526Y0049078D01*
X0131526Y0047898D02*
X0135620Y0047898D01*
X0135875Y0046719D02*
X0131526Y0046719D01*
X0131526Y0045539D02*
X0137054Y0045539D01*
X0141076Y0044360D02*
X0131526Y0044360D01*
X0131526Y0043180D02*
X0142255Y0043180D01*
X0143435Y0042000D02*
X0132410Y0042000D01*
X0133589Y0040821D02*
X0144615Y0040821D01*
X0145794Y0039641D02*
X0134769Y0039641D01*
X0135949Y0038462D02*
X0146974Y0038462D01*
X0148473Y0042000D02*
X0227678Y0042000D01*
X0227678Y0040821D02*
X0180833Y0040821D01*
X0182013Y0039641D02*
X0227678Y0039641D01*
X0227678Y0038462D02*
X0183193Y0038462D01*
X0184372Y0037282D02*
X0227678Y0037282D01*
X0227678Y0036102D02*
X0185552Y0036102D01*
X0186732Y0034923D02*
X0227678Y0034923D01*
X0227678Y0033743D02*
X0187911Y0033743D01*
X0185233Y0031384D02*
X0156311Y0031384D01*
X0156560Y0030204D02*
X0186412Y0030204D01*
X0187511Y0029025D02*
X0156560Y0029025D01*
X0156560Y0027845D02*
X0187441Y0027845D01*
X0191143Y0027845D02*
X0200591Y0027845D01*
X0200392Y0029025D02*
X0191073Y0029025D01*
X0191073Y0030204D02*
X0200729Y0030204D01*
X0201195Y0026665D02*
X0191878Y0026665D01*
X0191972Y0025486D02*
X0200016Y0025486D01*
X0198836Y0024306D02*
X0191481Y0024306D01*
X0196477Y0021947D02*
X0156131Y0021947D01*
X0156496Y0023127D02*
X0197657Y0023127D01*
X0204353Y0017229D02*
X0227678Y0017229D01*
X0227678Y0018408D02*
X0205532Y0018408D01*
X0206712Y0019588D02*
X0227678Y0019588D01*
X0227678Y0020767D02*
X0207892Y0020767D01*
X0209071Y0021947D02*
X0211116Y0021947D01*
X0215156Y0025486D02*
X0217585Y0025486D01*
X0227678Y0016049D02*
X0203173Y0016049D01*
X0201994Y0014869D02*
X0227678Y0014869D01*
X0227678Y0013690D02*
X0200814Y0013690D01*
X0199634Y0012510D02*
X0227678Y0012510D01*
X0227678Y0011330D02*
X0198455Y0011330D01*
X0184053Y0032563D02*
X0155702Y0032563D01*
X0154477Y0033743D02*
X0182873Y0033743D01*
X0181694Y0034923D02*
X0139487Y0034923D01*
X0138308Y0036102D02*
X0180514Y0036102D01*
X0179335Y0037282D02*
X0137128Y0037282D01*
X0143619Y0033743D02*
X0149462Y0033743D01*
X0148237Y0032563D02*
X0145223Y0032563D01*
X0145887Y0031384D02*
X0147628Y0031384D01*
X0147379Y0030204D02*
X0146160Y0030204D01*
X0146160Y0029025D02*
X0147379Y0029025D01*
X0147379Y0027845D02*
X0146160Y0027845D01*
X0141969Y0026891D02*
X0141969Y0029922D01*
X0129745Y0042146D01*
X0129745Y0053957D01*
X0134174Y0058387D01*
X0134462Y0056156D02*
X0136280Y0056156D01*
X0137460Y0054976D02*
X0133282Y0054976D01*
X0132103Y0053797D02*
X0141481Y0053797D01*
X0142661Y0052617D02*
X0131526Y0052617D01*
X0141878Y0051437D02*
X0143841Y0051437D01*
X0143057Y0050258D02*
X0145020Y0050258D01*
X0146200Y0049078D02*
X0143201Y0049078D01*
X0143201Y0047898D02*
X0147380Y0047898D01*
X0148559Y0046719D02*
X0143754Y0046719D01*
X0144934Y0045539D02*
X0149739Y0045539D01*
X0147293Y0043180D02*
X0227678Y0043180D01*
X0227678Y0044360D02*
X0146114Y0044360D01*
X0151238Y0049078D02*
X0208961Y0049078D01*
X0210140Y0050258D02*
X0150058Y0050258D01*
X0148878Y0051437D02*
X0211320Y0051437D01*
X0213998Y0049078D02*
X0227678Y0049078D01*
X0227678Y0047898D02*
X0212819Y0047898D01*
X0211639Y0046719D02*
X0227678Y0046719D01*
X0227678Y0045539D02*
X0210460Y0045539D01*
X0215178Y0050258D02*
X0227678Y0050258D01*
X0227678Y0051437D02*
X0216358Y0051437D01*
X0217537Y0052617D02*
X0227678Y0052617D01*
X0227678Y0053797D02*
X0218717Y0053797D01*
X0219897Y0054976D02*
X0227678Y0054976D01*
X0227678Y0056156D02*
X0221076Y0056156D01*
X0222256Y0057335D02*
X0227678Y0057335D01*
X0227678Y0083287D02*
X0171725Y0083287D01*
X0172379Y0084466D02*
X0227678Y0084466D01*
X0201103Y0059371D02*
X0201103Y0054450D01*
X0200119Y0053465D01*
X0195103Y0059371D02*
X0189292Y0065182D01*
X0187511Y0065593D02*
X0184585Y0065593D01*
X0185364Y0064413D02*
X0187542Y0064413D01*
X0188722Y0063233D02*
X0185561Y0063233D01*
X0185302Y0062054D02*
X0189901Y0062054D01*
X0191081Y0060874D02*
X0184436Y0060874D01*
X0187511Y0066772D02*
X0153003Y0066772D01*
X0151823Y0067952D02*
X0186914Y0067952D01*
X0191613Y0059695D02*
X0156682Y0059695D01*
X0152383Y0059695D02*
X0149164Y0059695D01*
X0147985Y0060874D02*
X0151079Y0060874D01*
X0149900Y0062054D02*
X0146805Y0062054D01*
X0145626Y0063233D02*
X0148720Y0063233D01*
X0147541Y0064413D02*
X0144446Y0064413D01*
X0146361Y0065593D02*
X0142134Y0065593D01*
X0143201Y0066772D02*
X0145181Y0066772D01*
X0144002Y0067952D02*
X0143201Y0067952D01*
X0136686Y0065593D02*
X0132707Y0065593D01*
X0124586Y0072670D02*
X0123260Y0072670D01*
X0115346Y0071491D02*
X0108704Y0071491D01*
X0107525Y0072670D02*
X0114586Y0072670D01*
X0115346Y0070311D02*
X0109884Y0070311D01*
X0111064Y0069132D02*
X0115346Y0069132D01*
X0115346Y0067952D02*
X0112243Y0067952D01*
X0114228Y0066772D02*
X0115346Y0066772D01*
X0117127Y0079056D02*
X0117127Y0044682D01*
X0133002Y0028806D01*
X0125387Y0031384D02*
X0099931Y0031384D01*
X0099931Y0032563D02*
X0124208Y0032563D01*
X0123028Y0033743D02*
X0099931Y0033743D01*
X0099931Y0034923D02*
X0121848Y0034923D01*
X0120669Y0036102D02*
X0099931Y0036102D01*
X0099931Y0037282D02*
X0119489Y0037282D01*
X0118309Y0038462D02*
X0099931Y0038462D01*
X0099931Y0039641D02*
X0117130Y0039641D01*
X0115950Y0040821D02*
X0099931Y0040821D01*
X0099641Y0042000D02*
X0114771Y0042000D01*
X0113591Y0043180D02*
X0098730Y0043180D01*
X0097550Y0044360D02*
X0113565Y0044360D01*
X0113565Y0045539D02*
X0101766Y0045539D01*
X0102946Y0046719D02*
X0113565Y0046719D01*
X0113565Y0047898D02*
X0103201Y0047898D01*
X0103201Y0049078D02*
X0113565Y0049078D01*
X0097054Y0045539D02*
X0096371Y0045539D01*
X0095875Y0046719D02*
X0095702Y0046719D01*
X0095039Y0060874D02*
X0096537Y0060874D01*
X0095823Y0062054D02*
X0093860Y0062054D01*
X0088376Y0066772D02*
X0087258Y0066772D01*
X0087641Y0067952D02*
X0088376Y0067952D01*
X0088376Y0069132D02*
X0087488Y0069132D01*
X0086669Y0070311D02*
X0088887Y0070311D01*
X0089351Y0075030D02*
X0093176Y0075030D01*
X0092298Y0076209D02*
X0090113Y0076209D01*
X0090453Y0077389D02*
X0091915Y0077389D01*
X0091886Y0078568D02*
X0090483Y0078568D01*
X0090195Y0079748D02*
X0092204Y0079748D01*
X0092990Y0080928D02*
X0089506Y0080928D01*
X0095828Y0080928D02*
X0096221Y0080928D01*
X0096221Y0079748D02*
X0095828Y0079748D01*
X0095828Y0078568D02*
X0096221Y0078568D01*
X0098181Y0083287D02*
X0099300Y0083287D01*
X0099300Y0084466D02*
X0098181Y0084466D01*
X0102828Y0083287D02*
X0113101Y0083287D01*
X0113611Y0084466D02*
X0103481Y0084466D01*
X0103481Y0095083D02*
X0152004Y0095083D01*
X0150824Y0096263D02*
X0103060Y0096263D01*
X0099300Y0096263D02*
X0098181Y0096263D01*
X0098181Y0095083D02*
X0099300Y0095083D01*
X0094422Y0096263D02*
X0080094Y0096263D01*
X0080516Y0095083D02*
X0094000Y0095083D01*
X0076335Y0095083D02*
X0075216Y0095083D01*
X0075216Y0096263D02*
X0076335Y0096263D01*
X0071456Y0096263D02*
X0049392Y0096263D01*
X0049932Y0095083D02*
X0071035Y0095083D01*
X0069790Y0080928D02*
X0073077Y0080928D01*
X0072296Y0079748D02*
X0070068Y0079748D01*
X0070420Y0078568D02*
X0071944Y0078568D01*
X0071944Y0077389D02*
X0070420Y0077389D01*
X0069991Y0076209D02*
X0072373Y0076209D01*
X0073263Y0075030D02*
X0069790Y0075030D01*
X0076024Y0078072D02*
X0076103Y0078072D01*
X0081024Y0073150D01*
X0049442Y0065593D02*
X0049428Y0065593D01*
X0048376Y0066772D02*
X0048248Y0066772D01*
X0048376Y0067952D02*
X0047068Y0067952D01*
X0048009Y0069132D02*
X0048376Y0069132D01*
X0048519Y0050258D02*
X0036223Y0050258D01*
X0030349Y0050258D02*
X0029180Y0050258D01*
X0029180Y0051437D02*
X0030349Y0051437D01*
X0030349Y0052617D02*
X0029180Y0052617D01*
X0029180Y0053797D02*
X0030349Y0053797D01*
X0023132Y0058515D02*
X0013765Y0058515D01*
X0013765Y0057335D02*
X0022013Y0057335D01*
X0021415Y0056156D02*
X0013765Y0056156D01*
X0030660Y0030204D02*
X0044774Y0030204D01*
X0043595Y0029025D02*
X0031840Y0029025D01*
X0032348Y0027845D02*
X0043087Y0027845D01*
X0042844Y0026665D02*
X0032590Y0026665D01*
X0032590Y0025486D02*
X0042844Y0025486D01*
X0042844Y0024306D02*
X0032590Y0024306D01*
X0032590Y0023127D02*
X0042844Y0023127D01*
X0042844Y0021947D02*
X0032590Y0021947D01*
X0032590Y0020767D02*
X0042844Y0020767D01*
X0042844Y0019588D02*
X0033769Y0019588D01*
X0034948Y0018408D02*
X0042844Y0018408D01*
X0043302Y0017229D02*
X0036128Y0017229D01*
X0037308Y0016049D02*
X0044113Y0016049D01*
X0052275Y0025486D02*
X0062129Y0025486D01*
X0062129Y0026665D02*
X0052275Y0026665D01*
X0052033Y0027845D02*
X0062361Y0027845D01*
X0062886Y0029025D02*
X0051525Y0029025D01*
X0050345Y0030204D02*
X0063894Y0030204D01*
X0066660Y0030204D02*
X0067829Y0030204D01*
X0067829Y0029025D02*
X0066660Y0029025D01*
X0066660Y0027845D02*
X0067829Y0027845D01*
X0067829Y0026665D02*
X0066660Y0026665D01*
X0066660Y0025486D02*
X0067829Y0025486D01*
X0067829Y0022212D02*
X0072360Y0022212D01*
X0072360Y0018868D01*
X0072234Y0018073D01*
X0071986Y0017307D01*
X0071620Y0016590D01*
X0071147Y0015938D01*
X0070577Y0015369D01*
X0069926Y0014896D01*
X0069209Y0014530D01*
X0068443Y0014281D01*
X0067829Y0014184D01*
X0067829Y0022212D01*
X0067829Y0021947D02*
X0066660Y0021947D01*
X0066660Y0020767D02*
X0067829Y0020767D01*
X0067829Y0019588D02*
X0066660Y0019588D01*
X0066660Y0018408D02*
X0067829Y0018408D01*
X0067829Y0017229D02*
X0066660Y0017229D01*
X0066660Y0016049D02*
X0067829Y0016049D01*
X0067829Y0014869D02*
X0066660Y0014869D01*
X0069874Y0014869D02*
X0073979Y0014869D01*
X0075158Y0016049D02*
X0071227Y0016049D01*
X0071945Y0017229D02*
X0076338Y0017229D01*
X0077518Y0018408D02*
X0072288Y0018408D01*
X0072360Y0019588D02*
X0078697Y0019588D01*
X0079877Y0020767D02*
X0072360Y0020767D01*
X0072360Y0021947D02*
X0081056Y0021947D01*
X0099931Y0021947D02*
X0101899Y0021947D01*
X0101899Y0023127D02*
X0099931Y0023127D01*
X0099931Y0024306D02*
X0101899Y0024306D01*
X0101899Y0025486D02*
X0099931Y0025486D01*
X0099931Y0026665D02*
X0101899Y0026665D01*
X0102142Y0027845D02*
X0099931Y0027845D01*
X0099931Y0029025D02*
X0102650Y0029025D01*
X0103829Y0030204D02*
X0099931Y0030204D01*
X0099931Y0020767D02*
X0101899Y0020767D01*
X0101899Y0019588D02*
X0099931Y0019588D01*
X0099931Y0018408D02*
X0101899Y0018408D01*
X0102357Y0017229D02*
X0100075Y0017229D01*
X0101255Y0016049D02*
X0103168Y0016049D01*
X0110062Y0016049D02*
X0122318Y0016049D01*
X0121599Y0017229D02*
X0110873Y0017229D01*
X0111330Y0018408D02*
X0121257Y0018408D01*
X0121184Y0019588D02*
X0111330Y0019588D01*
X0111330Y0020767D02*
X0121184Y0020767D01*
X0121184Y0021947D02*
X0111330Y0021947D01*
X0111330Y0023127D02*
X0125715Y0023127D01*
X0121184Y0024306D02*
X0111330Y0024306D01*
X0111330Y0025486D02*
X0121184Y0025486D01*
X0121184Y0026665D02*
X0111330Y0026665D01*
X0111088Y0027845D02*
X0121416Y0027845D01*
X0121941Y0029025D02*
X0110580Y0029025D01*
X0109401Y0030204D02*
X0122949Y0030204D01*
X0146519Y0053797D02*
X0150025Y0053797D01*
X0148845Y0054976D02*
X0145340Y0054976D01*
X0144160Y0056156D02*
X0147666Y0056156D01*
X0146486Y0057335D02*
X0143201Y0057335D01*
X0143201Y0058515D02*
X0145306Y0058515D01*
X0144127Y0059695D02*
X0143201Y0059695D01*
X0142947Y0060874D02*
X0142283Y0060874D01*
X0150344Y0058515D02*
X0191613Y0058515D01*
X0191613Y0057335D02*
X0151524Y0057335D01*
X0152703Y0056156D02*
X0191613Y0056156D01*
X0168198Y0083287D02*
X0167079Y0083287D01*
X0167079Y0084466D02*
X0168198Y0084466D01*
X0168198Y0095083D02*
X0167079Y0095083D01*
X0167079Y0096263D02*
X0168198Y0096263D01*
X0167542Y0097442D02*
X0170229Y0097442D01*
X0168223Y0098622D02*
X0176150Y0098622D01*
X0176150Y0099780D02*
X0170229Y0099780D01*
X0170229Y0104320D01*
X0170338Y0104725D01*
X0170547Y0105088D01*
X0170843Y0105384D01*
X0171206Y0105593D01*
X0171610Y0105702D01*
X0176150Y0105702D01*
X0176150Y0099780D01*
X0176150Y0099801D02*
X0177331Y0099801D01*
X0177332Y0098622D02*
X0184371Y0098622D01*
X0184371Y0099801D02*
X0183253Y0099801D01*
X0183253Y0100981D02*
X0184371Y0100981D01*
X0184371Y0102161D02*
X0183253Y0102161D01*
X0183253Y0103340D02*
X0184371Y0103340D01*
X0184371Y0104520D02*
X0183199Y0104520D01*
X0184371Y0105700D02*
X0181879Y0105700D01*
X0184371Y0106879D02*
X0168619Y0106879D01*
X0168935Y0105700D02*
X0171603Y0105700D01*
X0170283Y0104520D02*
X0169237Y0104520D01*
X0169237Y0103340D02*
X0170229Y0103340D01*
X0170229Y0102161D02*
X0169237Y0102161D01*
X0169015Y0100981D02*
X0170229Y0100981D01*
X0170229Y0099801D02*
X0168699Y0099801D01*
X0176150Y0100981D02*
X0177331Y0100981D01*
X0177331Y0102161D02*
X0176150Y0102161D01*
X0176150Y0103340D02*
X0177331Y0103340D01*
X0177331Y0104520D02*
X0176150Y0104520D01*
X0176150Y0105700D02*
X0177331Y0105700D01*
X0184371Y0108059D02*
X0168050Y0108059D01*
X0167369Y0109238D02*
X0184371Y0109238D01*
X0184371Y0110418D02*
X0166356Y0110418D01*
X0165170Y0111598D02*
X0184371Y0111598D01*
X0184371Y0112777D02*
X0163127Y0112777D01*
X0183253Y0097442D02*
X0184371Y0097442D01*
X0184371Y0096263D02*
X0183253Y0096263D01*
X0183253Y0095083D02*
X0184371Y0095083D01*
X0146717Y0079465D02*
X0146717Y0078646D01*
X0142536Y0078646D01*
X0142536Y0077557D01*
X0141317Y0078776D01*
X0141317Y0082889D01*
X0140679Y0084430D01*
X0140117Y0084992D01*
X0143586Y0084992D01*
X0143201Y0084462D01*
X0142873Y0083818D01*
X0142649Y0083131D01*
X0142536Y0082417D01*
X0142536Y0079465D01*
X0146717Y0079465D01*
X0142536Y0079748D02*
X0141317Y0079748D01*
X0141317Y0080928D02*
X0142536Y0080928D01*
X0142536Y0082107D02*
X0141317Y0082107D01*
X0141153Y0083287D02*
X0142700Y0083287D01*
X0143204Y0084466D02*
X0140643Y0084466D01*
X0141525Y0078568D02*
X0142536Y0078568D01*
X0147699Y0052617D02*
X0151204Y0052617D01*
X0151560Y0033743D02*
X0152379Y0033743D01*
X0152379Y0032563D02*
X0151560Y0032563D01*
X0151560Y0031384D02*
X0152379Y0031384D01*
X0152379Y0030204D02*
X0151560Y0030204D01*
X0151560Y0029025D02*
X0152379Y0029025D01*
X0152379Y0027845D02*
X0151560Y0027845D01*
X0184371Y0146986D02*
X0013765Y0146986D01*
X0013765Y0148166D02*
X0184371Y0148166D01*
X0184371Y0149345D02*
X0013765Y0149345D01*
X0013765Y0150525D02*
X0184371Y0150525D01*
X0184371Y0151704D02*
X0013765Y0151704D01*
X0013765Y0152884D02*
X0039649Y0152884D01*
X0036556Y0154064D02*
X0013765Y0154064D01*
X0013765Y0155243D02*
X0034844Y0155243D01*
X0033664Y0156423D02*
X0013765Y0156423D01*
X0013765Y0157603D02*
X0032847Y0157603D01*
X0032166Y0158782D02*
X0013765Y0158782D01*
X0013765Y0159962D02*
X0031740Y0159962D01*
X0031423Y0161141D02*
X0026219Y0161141D01*
X0026853Y0162321D02*
X0031245Y0162321D01*
X0031245Y0163501D02*
X0026853Y0163501D01*
X0026853Y0164680D02*
X0031274Y0164680D01*
X0031590Y0165860D02*
X0026853Y0165860D01*
X0026853Y0167039D02*
X0031906Y0167039D01*
X0032525Y0168219D02*
X0026853Y0168219D01*
X0026853Y0169399D02*
X0033206Y0169399D01*
X0034286Y0170578D02*
X0026853Y0170578D01*
X0024591Y0181387D02*
X0024591Y0184099D01*
X0023293Y0187233D01*
X0020894Y0189632D01*
X0017760Y0190930D01*
X0014368Y0190930D01*
X0013765Y0190680D01*
X0013765Y0247943D01*
X0014368Y0247694D01*
X0017760Y0247694D01*
X0020894Y0248992D01*
X0023293Y0251391D01*
X0024591Y0254525D01*
X0024591Y0257236D01*
X0025431Y0257236D01*
X0025431Y0256617D01*
X0025539Y0256213D01*
X0025749Y0255850D01*
X0026045Y0255554D01*
X0026407Y0255345D01*
X0026812Y0255236D01*
X0029612Y0255236D01*
X0029612Y0257236D01*
X0030731Y0257236D01*
X0030731Y0255236D01*
X0033531Y0255236D01*
X0033935Y0255345D01*
X0034298Y0255554D01*
X0034558Y0255814D01*
X0034558Y0252609D01*
X0033044Y0251094D01*
X0025302Y0251094D01*
X0023568Y0250376D01*
X0022242Y0249050D01*
X0021524Y0247317D01*
X0021524Y0245441D01*
X0022242Y0243708D01*
X0023568Y0242381D01*
X0025302Y0241663D01*
X0034228Y0241663D01*
X0035961Y0242381D01*
X0037287Y0243708D01*
X0038005Y0245441D01*
X0038005Y0247120D01*
X0039507Y0248622D01*
X0040395Y0249511D01*
X0040464Y0249676D01*
X0040464Y0238546D01*
X0040945Y0237385D01*
X0041833Y0236496D01*
X0048376Y0229954D01*
X0048376Y0229061D01*
X0050596Y0226840D01*
X0053736Y0226840D01*
X0055957Y0229061D01*
X0055957Y0232201D01*
X0053736Y0234421D01*
X0052843Y0234421D01*
X0046949Y0240316D01*
X0048376Y0241743D01*
X0048376Y0238903D01*
X0050596Y0236683D01*
X0053438Y0236683D01*
X0065149Y0224972D01*
X0066192Y0223928D01*
X0089946Y0223928D01*
X0088376Y0222358D01*
X0088376Y0221924D01*
X0088217Y0222306D01*
X0087463Y0223060D01*
X0086479Y0223468D01*
X0085413Y0223468D01*
X0084428Y0223060D01*
X0083674Y0222306D01*
X0083266Y0221321D01*
X0083266Y0220255D01*
X0083674Y0219270D01*
X0084428Y0218517D01*
X0085413Y0218109D01*
X0086479Y0218109D01*
X0087463Y0218517D01*
X0088217Y0219270D01*
X0088376Y0219653D01*
X0088376Y0219218D01*
X0089007Y0218587D01*
X0089007Y0216892D01*
X0089488Y0215731D01*
X0090377Y0214842D01*
X0093613Y0211606D01*
X0093613Y0187679D01*
X0094094Y0186518D01*
X0094983Y0185630D01*
X0098428Y0182185D01*
X0099589Y0181704D01*
X0130373Y0181704D01*
X0131534Y0182185D01*
X0132423Y0183074D01*
X0133899Y0184550D01*
X0134380Y0185711D01*
X0134380Y0186968D01*
X0133968Y0187964D01*
X0137358Y0184574D01*
X0136593Y0184257D01*
X0135839Y0183504D01*
X0135431Y0182519D01*
X0135431Y0181453D01*
X0135459Y0181387D01*
X0078301Y0181387D01*
X0084381Y0187467D01*
X0085992Y0186800D01*
X0087868Y0186800D01*
X0089601Y0187518D01*
X0090928Y0188844D01*
X0091645Y0190577D01*
X0091645Y0199503D01*
X0090928Y0201236D01*
X0089601Y0202563D01*
X0087868Y0203281D01*
X0085992Y0203281D01*
X0084259Y0202563D01*
X0082932Y0201236D01*
X0082214Y0199503D01*
X0082214Y0195349D01*
X0073277Y0186412D01*
X0039189Y0186412D01*
X0032590Y0193010D01*
X0032590Y0199503D01*
X0031872Y0201236D01*
X0030546Y0202563D01*
X0028813Y0203281D01*
X0026937Y0203281D01*
X0025204Y0202563D01*
X0023877Y0201236D01*
X0023159Y0199503D01*
X0023159Y0190577D01*
X0023877Y0188844D01*
X0025204Y0187518D01*
X0026937Y0186800D01*
X0028752Y0186800D01*
X0034165Y0181387D01*
X0024591Y0181387D01*
X0024591Y0182374D02*
X0033178Y0182374D01*
X0031998Y0183554D02*
X0024591Y0183554D01*
X0024328Y0184734D02*
X0030818Y0184734D01*
X0029639Y0185913D02*
X0023840Y0185913D01*
X0023351Y0187093D02*
X0026229Y0187093D01*
X0024449Y0188272D02*
X0022253Y0188272D01*
X0021074Y0189452D02*
X0023625Y0189452D01*
X0023159Y0190632D02*
X0018480Y0190632D01*
X0023159Y0191811D02*
X0013765Y0191811D01*
X0013765Y0192991D02*
X0023159Y0192991D01*
X0023159Y0194171D02*
X0013765Y0194171D01*
X0013765Y0195350D02*
X0023159Y0195350D01*
X0023159Y0196530D02*
X0013765Y0196530D01*
X0013765Y0197709D02*
X0023159Y0197709D01*
X0023159Y0198889D02*
X0013765Y0198889D01*
X0013765Y0200069D02*
X0023393Y0200069D01*
X0023889Y0201248D02*
X0013765Y0201248D01*
X0013765Y0202428D02*
X0025069Y0202428D01*
X0030681Y0202428D02*
X0044754Y0202428D01*
X0044889Y0202563D02*
X0043562Y0201236D01*
X0042844Y0199503D01*
X0042844Y0190577D01*
X0043562Y0188844D01*
X0044889Y0187518D01*
X0046622Y0186800D01*
X0048498Y0186800D01*
X0050231Y0187518D01*
X0051557Y0188844D01*
X0052275Y0190577D01*
X0052275Y0199503D01*
X0051557Y0201236D01*
X0050231Y0202563D01*
X0048498Y0203281D01*
X0046622Y0203281D01*
X0044889Y0202563D01*
X0043574Y0201248D02*
X0031860Y0201248D01*
X0032356Y0200069D02*
X0043079Y0200069D01*
X0042844Y0198889D02*
X0032590Y0198889D01*
X0032590Y0197709D02*
X0042844Y0197709D01*
X0042844Y0196530D02*
X0032590Y0196530D01*
X0032590Y0195350D02*
X0042844Y0195350D01*
X0042844Y0194171D02*
X0032590Y0194171D01*
X0032610Y0192991D02*
X0042844Y0192991D01*
X0042844Y0191811D02*
X0033789Y0191811D01*
X0034969Y0190632D02*
X0042844Y0190632D01*
X0043310Y0189452D02*
X0036149Y0189452D01*
X0037328Y0188272D02*
X0044134Y0188272D01*
X0045914Y0187093D02*
X0038508Y0187093D01*
X0049206Y0187093D02*
X0064656Y0187093D01*
X0064564Y0187140D02*
X0065281Y0186774D01*
X0066047Y0186526D01*
X0066660Y0186428D01*
X0066660Y0194456D01*
X0062129Y0194456D01*
X0062129Y0191113D01*
X0062255Y0190317D01*
X0062504Y0189551D01*
X0062870Y0188834D01*
X0063343Y0188183D01*
X0063912Y0187613D01*
X0064564Y0187140D01*
X0063278Y0188272D02*
X0050986Y0188272D01*
X0051809Y0189452D02*
X0062555Y0189452D01*
X0062205Y0190632D02*
X0052275Y0190632D01*
X0052275Y0191811D02*
X0062129Y0191811D01*
X0062129Y0192991D02*
X0052275Y0192991D01*
X0052275Y0194171D02*
X0062129Y0194171D01*
X0062129Y0195625D02*
X0066660Y0195625D01*
X0066660Y0194456D01*
X0067829Y0194456D01*
X0067829Y0186428D01*
X0068443Y0186526D01*
X0069209Y0186774D01*
X0069926Y0187140D01*
X0070577Y0187613D01*
X0071147Y0188183D01*
X0071620Y0188834D01*
X0071986Y0189551D01*
X0072234Y0190317D01*
X0072360Y0191113D01*
X0072360Y0194456D01*
X0067829Y0194456D01*
X0067829Y0195625D01*
X0066660Y0195625D01*
X0066660Y0203652D01*
X0066047Y0203555D01*
X0065281Y0203306D01*
X0064564Y0202940D01*
X0063912Y0202467D01*
X0063343Y0201898D01*
X0062870Y0201246D01*
X0062504Y0200529D01*
X0062255Y0199763D01*
X0062129Y0198968D01*
X0062129Y0195625D01*
X0062129Y0196530D02*
X0052275Y0196530D01*
X0052275Y0197709D02*
X0062129Y0197709D01*
X0062129Y0198889D02*
X0052275Y0198889D01*
X0052041Y0200069D02*
X0062355Y0200069D01*
X0062871Y0201248D02*
X0051546Y0201248D01*
X0050366Y0202428D02*
X0063873Y0202428D01*
X0066380Y0203607D02*
X0013765Y0203607D01*
X0013765Y0204787D02*
X0093613Y0204787D01*
X0093613Y0203607D02*
X0068110Y0203607D01*
X0067829Y0203607D02*
X0066660Y0203607D01*
X0067829Y0203652D02*
X0067829Y0195625D01*
X0072360Y0195625D01*
X0072360Y0198968D01*
X0072234Y0199763D01*
X0071986Y0200529D01*
X0071620Y0201246D01*
X0071147Y0201898D01*
X0070577Y0202467D01*
X0069926Y0202940D01*
X0069209Y0203306D01*
X0068443Y0203555D01*
X0067829Y0203652D01*
X0067829Y0202428D02*
X0066660Y0202428D01*
X0066660Y0201248D02*
X0067829Y0201248D01*
X0067829Y0200069D02*
X0066660Y0200069D01*
X0066660Y0198889D02*
X0067829Y0198889D01*
X0067829Y0197709D02*
X0066660Y0197709D01*
X0066660Y0196530D02*
X0067829Y0196530D01*
X0067829Y0195350D02*
X0082214Y0195350D01*
X0082214Y0196530D02*
X0072360Y0196530D01*
X0072360Y0197709D02*
X0082214Y0197709D01*
X0082214Y0198889D02*
X0072360Y0198889D01*
X0072135Y0200069D02*
X0082449Y0200069D01*
X0082944Y0201248D02*
X0071619Y0201248D01*
X0070617Y0202428D02*
X0084124Y0202428D01*
X0089736Y0202428D02*
X0093613Y0202428D01*
X0093613Y0201248D02*
X0090916Y0201248D01*
X0091411Y0200069D02*
X0093613Y0200069D01*
X0093613Y0198889D02*
X0091645Y0198889D01*
X0091645Y0197709D02*
X0093613Y0197709D01*
X0093613Y0196530D02*
X0091645Y0196530D01*
X0091645Y0195350D02*
X0093613Y0195350D01*
X0093613Y0194171D02*
X0091645Y0194171D01*
X0091645Y0192991D02*
X0093613Y0192991D01*
X0093613Y0191811D02*
X0091645Y0191811D01*
X0091645Y0190632D02*
X0093613Y0190632D01*
X0093613Y0189452D02*
X0091179Y0189452D01*
X0090356Y0188272D02*
X0093613Y0188272D01*
X0093856Y0187093D02*
X0088576Y0187093D01*
X0085284Y0187093D02*
X0084007Y0187093D01*
X0082827Y0185913D02*
X0094699Y0185913D01*
X0094983Y0185630D02*
X0094983Y0185630D01*
X0095879Y0184734D02*
X0081648Y0184734D01*
X0080468Y0183554D02*
X0097059Y0183554D01*
X0098238Y0182374D02*
X0079289Y0182374D01*
X0073958Y0187093D02*
X0069834Y0187093D01*
X0071212Y0188272D02*
X0075138Y0188272D01*
X0076318Y0189452D02*
X0071935Y0189452D01*
X0072284Y0190632D02*
X0077497Y0190632D01*
X0078677Y0191811D02*
X0072360Y0191811D01*
X0072360Y0192991D02*
X0079856Y0192991D01*
X0081036Y0194171D02*
X0072360Y0194171D01*
X0067829Y0194171D02*
X0066660Y0194171D01*
X0066660Y0195350D02*
X0052275Y0195350D01*
X0066660Y0192991D02*
X0067829Y0192991D01*
X0067829Y0191811D02*
X0066660Y0191811D01*
X0066660Y0190632D02*
X0067829Y0190632D01*
X0067829Y0189452D02*
X0066660Y0189452D01*
X0066660Y0188272D02*
X0067829Y0188272D01*
X0067829Y0187093D02*
X0066660Y0187093D01*
X0049196Y0170578D02*
X0170629Y0170578D01*
X0170629Y0169399D02*
X0050276Y0169399D01*
X0050957Y0168219D02*
X0170629Y0168219D01*
X0170629Y0167039D02*
X0051576Y0167039D01*
X0051892Y0165860D02*
X0170629Y0165860D01*
X0170629Y0164680D02*
X0052208Y0164680D01*
X0052237Y0163501D02*
X0170629Y0163501D01*
X0170629Y0162321D02*
X0052237Y0162321D01*
X0052058Y0161141D02*
X0171263Y0161141D01*
X0182219Y0161141D02*
X0184371Y0161141D01*
X0184371Y0159962D02*
X0051742Y0159962D01*
X0051316Y0158782D02*
X0184371Y0158782D01*
X0184371Y0157603D02*
X0050635Y0157603D01*
X0049818Y0156423D02*
X0184371Y0156423D01*
X0184371Y0155243D02*
X0048638Y0155243D01*
X0046926Y0154064D02*
X0184371Y0154064D01*
X0184371Y0152884D02*
X0043833Y0152884D01*
X0015263Y0161141D02*
X0013765Y0161141D01*
X0013765Y0162321D02*
X0014629Y0162321D01*
X0014629Y0163501D02*
X0013765Y0163501D01*
X0013765Y0164680D02*
X0014629Y0164680D01*
X0014629Y0165860D02*
X0013765Y0165860D01*
X0013765Y0167039D02*
X0014629Y0167039D01*
X0014629Y0168219D02*
X0013765Y0168219D01*
X0013765Y0169399D02*
X0014629Y0169399D01*
X0014629Y0170578D02*
X0013765Y0170578D01*
X0013765Y0205967D02*
X0093613Y0205967D01*
X0093613Y0207146D02*
X0013765Y0207146D01*
X0013765Y0208326D02*
X0093613Y0208326D01*
X0093613Y0209506D02*
X0013765Y0209506D01*
X0013765Y0210685D02*
X0093613Y0210685D01*
X0093354Y0211865D02*
X0013765Y0211865D01*
X0013765Y0213044D02*
X0092175Y0213044D01*
X0090995Y0214224D02*
X0013765Y0214224D01*
X0013765Y0215404D02*
X0089815Y0215404D01*
X0090377Y0214842D02*
X0090377Y0214842D01*
X0089135Y0216583D02*
X0013765Y0216583D01*
X0013765Y0217763D02*
X0049831Y0217763D01*
X0050596Y0216998D02*
X0048376Y0219218D01*
X0048376Y0222358D01*
X0050596Y0224579D01*
X0053736Y0224579D01*
X0055957Y0222358D01*
X0055957Y0219218D01*
X0053736Y0216998D01*
X0050596Y0216998D01*
X0048651Y0218942D02*
X0013765Y0218942D01*
X0013765Y0220122D02*
X0048376Y0220122D01*
X0048376Y0221302D02*
X0013765Y0221302D01*
X0013765Y0222481D02*
X0023334Y0222481D01*
X0023558Y0222318D02*
X0024276Y0221953D01*
X0025042Y0221704D01*
X0025837Y0221578D01*
X0029180Y0221578D01*
X0029180Y0226109D01*
X0030349Y0226109D01*
X0030349Y0221578D01*
X0033692Y0221578D01*
X0034487Y0221704D01*
X0035253Y0221953D01*
X0035971Y0222318D01*
X0036622Y0222792D01*
X0037191Y0223361D01*
X0037665Y0224013D01*
X0038030Y0224730D01*
X0038279Y0225496D01*
X0038376Y0226109D01*
X0030349Y0226109D01*
X0030349Y0227278D01*
X0038376Y0227278D01*
X0038279Y0227892D01*
X0038030Y0228657D01*
X0037665Y0229375D01*
X0037191Y0230026D01*
X0036622Y0230596D01*
X0035971Y0231069D01*
X0035253Y0231434D01*
X0034487Y0231683D01*
X0033692Y0231809D01*
X0030349Y0231809D01*
X0030349Y0227278D01*
X0029180Y0227278D01*
X0029180Y0226109D01*
X0021153Y0226109D01*
X0021250Y0225496D01*
X0021499Y0224730D01*
X0021864Y0224013D01*
X0022338Y0223361D01*
X0022907Y0222792D01*
X0023558Y0222318D01*
X0022120Y0223661D02*
X0013765Y0223661D01*
X0013765Y0224841D02*
X0021463Y0224841D01*
X0021167Y0226020D02*
X0013765Y0226020D01*
X0013765Y0227200D02*
X0029180Y0227200D01*
X0029180Y0227278D02*
X0021153Y0227278D01*
X0021250Y0227892D01*
X0021499Y0228657D01*
X0021864Y0229375D01*
X0022338Y0230026D01*
X0022907Y0230596D01*
X0023558Y0231069D01*
X0024276Y0231434D01*
X0025042Y0231683D01*
X0025837Y0231809D01*
X0029180Y0231809D01*
X0029180Y0227278D01*
X0029180Y0228379D02*
X0030349Y0228379D01*
X0030349Y0227200D02*
X0050236Y0227200D01*
X0049057Y0228379D02*
X0038121Y0228379D01*
X0037531Y0229559D02*
X0048376Y0229559D01*
X0047591Y0230739D02*
X0036425Y0230739D01*
X0030349Y0230739D02*
X0029180Y0230739D01*
X0029180Y0229559D02*
X0030349Y0229559D01*
X0030349Y0226020D02*
X0029180Y0226020D01*
X0029180Y0224841D02*
X0030349Y0224841D01*
X0030349Y0223661D02*
X0029180Y0223661D01*
X0029180Y0222481D02*
X0030349Y0222481D01*
X0036195Y0222481D02*
X0048499Y0222481D01*
X0049678Y0223661D02*
X0037409Y0223661D01*
X0038066Y0224841D02*
X0065280Y0224841D01*
X0064100Y0226020D02*
X0038362Y0226020D01*
X0045231Y0233098D02*
X0013765Y0233098D01*
X0013765Y0234277D02*
X0044052Y0234277D01*
X0042872Y0235457D02*
X0013765Y0235457D01*
X0013765Y0236637D02*
X0041693Y0236637D01*
X0040766Y0237816D02*
X0013765Y0237816D01*
X0013765Y0238996D02*
X0040464Y0238996D01*
X0040464Y0240175D02*
X0013765Y0240175D01*
X0013765Y0241355D02*
X0040464Y0241355D01*
X0040464Y0242535D02*
X0036114Y0242535D01*
X0037290Y0243714D02*
X0040464Y0243714D01*
X0040464Y0244894D02*
X0037779Y0244894D01*
X0038005Y0246074D02*
X0040464Y0246074D01*
X0040464Y0247253D02*
X0038138Y0247253D01*
X0039318Y0248433D02*
X0040464Y0248433D01*
X0040438Y0249612D02*
X0040464Y0249612D01*
X0034558Y0253151D02*
X0024022Y0253151D01*
X0023534Y0251972D02*
X0033921Y0251972D01*
X0034558Y0254331D02*
X0024511Y0254331D01*
X0024591Y0255510D02*
X0026120Y0255510D01*
X0025431Y0256690D02*
X0024591Y0256690D01*
X0029612Y0256690D02*
X0030731Y0256690D01*
X0030731Y0255510D02*
X0029612Y0255510D01*
X0034223Y0255510D02*
X0034558Y0255510D01*
X0024572Y0250792D02*
X0022694Y0250792D01*
X0022804Y0249612D02*
X0021515Y0249612D01*
X0021986Y0248433D02*
X0019544Y0248433D01*
X0021524Y0247253D02*
X0013765Y0247253D01*
X0013765Y0246074D02*
X0021524Y0246074D01*
X0021751Y0244894D02*
X0013765Y0244894D01*
X0013765Y0243714D02*
X0022239Y0243714D01*
X0023415Y0242535D02*
X0013765Y0242535D01*
X0013765Y0231918D02*
X0046411Y0231918D01*
X0050628Y0236637D02*
X0053484Y0236637D01*
X0054663Y0235457D02*
X0051807Y0235457D01*
X0053880Y0234277D02*
X0055843Y0234277D01*
X0055060Y0233098D02*
X0057023Y0233098D01*
X0055957Y0231918D02*
X0058202Y0231918D01*
X0059382Y0230739D02*
X0055957Y0230739D01*
X0055957Y0229559D02*
X0060562Y0229559D01*
X0061741Y0228379D02*
X0055275Y0228379D01*
X0054096Y0227200D02*
X0062921Y0227200D01*
X0065599Y0229559D02*
X0088376Y0229559D01*
X0088376Y0229061D02*
X0089946Y0227491D01*
X0067668Y0227491D01*
X0055957Y0239202D01*
X0055957Y0242043D01*
X0053736Y0244264D01*
X0050897Y0244264D01*
X0052206Y0245574D01*
X0052687Y0246735D01*
X0052687Y0249865D01*
X0052206Y0251026D01*
X0051318Y0251915D01*
X0049932Y0253301D01*
X0049932Y0255967D01*
X0049725Y0256174D01*
X0049932Y0256381D01*
X0049932Y0257236D01*
X0071035Y0257236D01*
X0071035Y0256617D01*
X0071143Y0256213D01*
X0071352Y0255850D01*
X0071648Y0255554D01*
X0072011Y0255345D01*
X0072416Y0255236D01*
X0075216Y0255236D01*
X0075216Y0257236D01*
X0076335Y0257236D01*
X0076335Y0255236D01*
X0079134Y0255236D01*
X0079539Y0255345D01*
X0079902Y0255554D01*
X0080198Y0255850D01*
X0080407Y0256213D01*
X0080516Y0256617D01*
X0080516Y0257236D01*
X0094000Y0257236D01*
X0094000Y0256617D01*
X0094109Y0256213D01*
X0094318Y0255850D01*
X0094614Y0255554D01*
X0094977Y0255345D01*
X0095382Y0255236D01*
X0098181Y0255236D01*
X0098181Y0257236D01*
X0099300Y0257236D01*
X0099300Y0255236D01*
X0102100Y0255236D01*
X0102505Y0255345D01*
X0102868Y0255554D01*
X0103164Y0255850D01*
X0103373Y0256213D01*
X0103481Y0256617D01*
X0103481Y0257236D01*
X0114137Y0257236D01*
X0113574Y0256674D01*
X0112936Y0255134D01*
X0112936Y0247466D01*
X0113574Y0245926D01*
X0114753Y0244747D01*
X0115346Y0244502D01*
X0115346Y0238364D01*
X0115023Y0238687D01*
X0114038Y0239095D01*
X0113344Y0239095D01*
X0106307Y0246132D01*
X0105264Y0247176D01*
X0098775Y0247176D01*
X0099202Y0247602D01*
X0099587Y0248133D01*
X0099885Y0248717D01*
X0100087Y0249340D01*
X0100190Y0249988D01*
X0100190Y0250119D01*
X0096221Y0250119D01*
X0096221Y0250513D01*
X0095828Y0250513D01*
X0095828Y0254481D01*
X0095697Y0254481D01*
X0095049Y0254379D01*
X0094425Y0254176D01*
X0093841Y0253878D01*
X0093311Y0253493D01*
X0092847Y0253029D01*
X0092462Y0252499D01*
X0092164Y0251915D01*
X0091962Y0251291D01*
X0091859Y0250644D01*
X0091859Y0250513D01*
X0095827Y0250513D01*
X0095827Y0250119D01*
X0091859Y0250119D01*
X0091859Y0249988D01*
X0091962Y0249340D01*
X0092164Y0248717D01*
X0092462Y0248133D01*
X0092847Y0247602D01*
X0093274Y0247176D01*
X0089253Y0247176D01*
X0089423Y0247346D01*
X0089845Y0247926D01*
X0090171Y0248566D01*
X0090392Y0249248D01*
X0090499Y0249922D01*
X0090179Y0249922D01*
X0090190Y0249988D01*
X0090190Y0250119D01*
X0086339Y0250119D01*
X0086339Y0250513D01*
X0090190Y0250513D01*
X0090190Y0250644D01*
X0090179Y0250709D01*
X0090499Y0250709D01*
X0090392Y0251383D01*
X0090171Y0252066D01*
X0089845Y0252705D01*
X0089423Y0253286D01*
X0088916Y0253793D01*
X0088335Y0254215D01*
X0087696Y0254541D01*
X0087013Y0254763D01*
X0086339Y0254869D01*
X0086339Y0254481D01*
X0086221Y0254481D01*
X0086221Y0250710D01*
X0085828Y0250710D01*
X0085828Y0254481D01*
X0085697Y0254481D01*
X0085552Y0254458D01*
X0085552Y0254869D01*
X0084878Y0254763D01*
X0084196Y0254541D01*
X0083556Y0254215D01*
X0082976Y0253793D01*
X0082468Y0253286D01*
X0082046Y0252705D01*
X0081721Y0252066D01*
X0081499Y0251383D01*
X0081392Y0250709D01*
X0081870Y0250709D01*
X0081859Y0250644D01*
X0081859Y0250513D01*
X0085552Y0250513D01*
X0085552Y0250119D01*
X0081859Y0250119D01*
X0081859Y0249988D01*
X0081870Y0249922D01*
X0081392Y0249922D01*
X0081499Y0249248D01*
X0081721Y0248566D01*
X0082046Y0247926D01*
X0082468Y0247346D01*
X0082638Y0247176D01*
X0081762Y0247176D01*
X0080024Y0248914D01*
X0080262Y0249488D01*
X0080262Y0251143D01*
X0079629Y0252672D01*
X0078459Y0253842D01*
X0076930Y0254475D01*
X0075276Y0254475D01*
X0073747Y0253842D01*
X0072577Y0252672D01*
X0071944Y0251143D01*
X0071944Y0249488D01*
X0072577Y0247960D01*
X0073747Y0246790D01*
X0075276Y0246157D01*
X0076930Y0246157D01*
X0077505Y0246395D01*
X0079243Y0244657D01*
X0080287Y0243613D01*
X0089946Y0243613D01*
X0088376Y0242043D01*
X0088376Y0238903D01*
X0090596Y0236683D01*
X0093438Y0236683D01*
X0095306Y0234814D01*
X0096350Y0233771D01*
X0097190Y0233771D01*
X0095788Y0232369D01*
X0093736Y0234421D01*
X0090596Y0234421D01*
X0088376Y0232201D01*
X0088376Y0229061D01*
X0089057Y0228379D02*
X0066779Y0228379D01*
X0066930Y0225709D02*
X0107599Y0225709D01*
X0105591Y0223928D02*
X0106081Y0223438D01*
X0107066Y0223030D01*
X0108132Y0223030D01*
X0109117Y0223438D01*
X0109871Y0224192D01*
X0110279Y0225176D01*
X0110279Y0226242D01*
X0109871Y0227227D01*
X0109117Y0227981D01*
X0108132Y0228389D01*
X0107066Y0228389D01*
X0106081Y0227981D01*
X0105591Y0227491D01*
X0101631Y0227491D01*
X0103201Y0229061D01*
X0103201Y0232201D01*
X0101631Y0233771D01*
X0104893Y0233771D01*
X0113565Y0225099D01*
X0113565Y0215451D01*
X0125411Y0203604D01*
X0125102Y0203555D01*
X0124336Y0203306D01*
X0123619Y0202940D01*
X0122967Y0202467D01*
X0122398Y0201898D01*
X0121925Y0201246D01*
X0121559Y0200529D01*
X0121310Y0199763D01*
X0121184Y0198968D01*
X0121184Y0195625D01*
X0125715Y0195625D01*
X0125715Y0194456D01*
X0121184Y0194456D01*
X0121184Y0191113D01*
X0121310Y0190317D01*
X0121559Y0189551D01*
X0121925Y0188834D01*
X0122398Y0188183D01*
X0122559Y0188022D01*
X0109791Y0188022D01*
X0110613Y0188844D01*
X0111330Y0190577D01*
X0111330Y0199503D01*
X0110613Y0201236D01*
X0109286Y0202563D01*
X0107553Y0203281D01*
X0105677Y0203281D01*
X0103944Y0202563D01*
X0102617Y0201236D01*
X0101899Y0199503D01*
X0101899Y0190577D01*
X0102617Y0188844D01*
X0103439Y0188022D01*
X0101526Y0188022D01*
X0099931Y0189616D01*
X0099931Y0213543D01*
X0099451Y0214704D01*
X0098562Y0215592D01*
X0095446Y0218708D01*
X0095788Y0219050D01*
X0097840Y0216998D01*
X0100980Y0216998D01*
X0103201Y0219218D01*
X0103201Y0222358D01*
X0101631Y0223928D01*
X0105591Y0223928D01*
X0105858Y0223661D02*
X0101898Y0223661D01*
X0103078Y0222481D02*
X0113565Y0222481D01*
X0113565Y0221302D02*
X0103201Y0221302D01*
X0103201Y0220122D02*
X0113565Y0220122D01*
X0113565Y0218942D02*
X0102925Y0218942D01*
X0101746Y0217763D02*
X0113565Y0217763D01*
X0113565Y0216583D02*
X0097571Y0216583D01*
X0097075Y0217763D02*
X0096391Y0217763D01*
X0095895Y0218942D02*
X0095681Y0218942D01*
X0098562Y0215592D02*
X0098562Y0215592D01*
X0098751Y0215404D02*
X0113611Y0215404D01*
X0114791Y0214224D02*
X0099649Y0214224D01*
X0099931Y0213044D02*
X0115971Y0213044D01*
X0117150Y0211865D02*
X0099931Y0211865D01*
X0099931Y0210685D02*
X0118330Y0210685D01*
X0119510Y0209506D02*
X0099931Y0209506D01*
X0099931Y0208326D02*
X0120689Y0208326D01*
X0121869Y0207146D02*
X0099931Y0207146D01*
X0099931Y0205967D02*
X0123048Y0205967D01*
X0124228Y0204787D02*
X0099931Y0204787D01*
X0099931Y0203607D02*
X0125408Y0203607D01*
X0122928Y0202428D02*
X0109421Y0202428D01*
X0110601Y0201248D02*
X0121926Y0201248D01*
X0121410Y0200069D02*
X0111096Y0200069D01*
X0111330Y0198889D02*
X0121184Y0198889D01*
X0121184Y0197709D02*
X0111330Y0197709D01*
X0111330Y0196530D02*
X0121184Y0196530D01*
X0121184Y0194171D02*
X0111330Y0194171D01*
X0111330Y0195350D02*
X0125715Y0195350D01*
X0121184Y0192991D02*
X0111330Y0192991D01*
X0111330Y0191811D02*
X0121184Y0191811D01*
X0121261Y0190632D02*
X0111330Y0190632D01*
X0110864Y0189452D02*
X0121610Y0189452D01*
X0122333Y0188272D02*
X0110041Y0188272D01*
X0103189Y0188272D02*
X0101275Y0188272D01*
X0102365Y0189452D02*
X0100096Y0189452D01*
X0099931Y0190632D02*
X0101899Y0190632D01*
X0101899Y0191811D02*
X0099931Y0191811D01*
X0099931Y0192991D02*
X0101899Y0192991D01*
X0101899Y0194171D02*
X0099931Y0194171D01*
X0099931Y0195350D02*
X0101899Y0195350D01*
X0101899Y0196530D02*
X0099931Y0196530D01*
X0099931Y0197709D02*
X0101899Y0197709D01*
X0101899Y0198889D02*
X0099931Y0198889D01*
X0099931Y0200069D02*
X0102134Y0200069D01*
X0102629Y0201248D02*
X0099931Y0201248D01*
X0099931Y0202428D02*
X0103809Y0202428D01*
X0115346Y0216188D02*
X0131221Y0200313D01*
X0131221Y0193229D01*
X0139785Y0184665D01*
X0156898Y0184665D01*
X0157796Y0183767D01*
X0162717Y0181087D02*
X0166295Y0184665D01*
X0197027Y0184665D01*
X0208760Y0196399D01*
X0212697Y0196399D01*
X0212914Y0196182D01*
X0211136Y0194171D02*
X0209051Y0194171D01*
X0209498Y0194618D02*
X0210689Y0194618D01*
X0211396Y0193910D01*
X0212381Y0193502D01*
X0213447Y0193502D01*
X0214432Y0193910D01*
X0215186Y0194664D01*
X0215594Y0195649D01*
X0215594Y0196715D01*
X0215186Y0197700D01*
X0214548Y0198338D01*
X0216811Y0198338D01*
X0217302Y0197847D01*
X0218287Y0197439D01*
X0219353Y0197439D01*
X0220338Y0197847D01*
X0221091Y0198601D01*
X0221490Y0199564D01*
X0222223Y0198832D01*
X0223208Y0198424D01*
X0224274Y0198424D01*
X0225259Y0198832D01*
X0226013Y0199585D01*
X0226420Y0200570D01*
X0226420Y0201636D01*
X0226013Y0202621D01*
X0225259Y0203375D01*
X0224274Y0203783D01*
X0223580Y0203783D01*
X0222783Y0204580D01*
X0216972Y0204580D01*
X0216074Y0203681D01*
X0208486Y0203681D01*
X0205751Y0200946D01*
X0205751Y0201636D01*
X0205343Y0202621D01*
X0204589Y0203375D01*
X0203605Y0203783D01*
X0202539Y0203783D01*
X0201554Y0203375D01*
X0200800Y0202621D01*
X0200392Y0201636D01*
X0200392Y0200570D01*
X0200800Y0199585D01*
X0201291Y0199095D01*
X0201291Y0199005D01*
X0194076Y0191790D01*
X0153452Y0191790D01*
X0153731Y0191880D01*
X0154375Y0192208D01*
X0154960Y0192633D01*
X0155471Y0193144D01*
X0155895Y0193729D01*
X0156224Y0194372D01*
X0156447Y0195060D01*
X0156560Y0195773D01*
X0156560Y0198725D01*
X0152379Y0198725D01*
X0152379Y0199544D01*
X0156560Y0199544D01*
X0156560Y0202496D01*
X0156447Y0203210D01*
X0156224Y0203897D01*
X0155895Y0204541D01*
X0155471Y0205125D01*
X0154960Y0205636D01*
X0154375Y0206061D01*
X0153731Y0206389D01*
X0153044Y0206612D01*
X0152379Y0206718D01*
X0152379Y0199544D01*
X0151560Y0199544D01*
X0151560Y0206718D01*
X0150894Y0206612D01*
X0150207Y0206389D01*
X0149563Y0206061D01*
X0148979Y0205636D01*
X0148468Y0205125D01*
X0148043Y0204541D01*
X0147715Y0203897D01*
X0147492Y0203210D01*
X0147379Y0202496D01*
X0147379Y0199544D01*
X0151560Y0199544D01*
X0151560Y0198725D01*
X0147379Y0198725D01*
X0147379Y0195773D01*
X0147492Y0195060D01*
X0147715Y0194372D01*
X0148043Y0193729D01*
X0148468Y0193144D01*
X0148979Y0192633D01*
X0149563Y0192208D01*
X0150207Y0191880D01*
X0150486Y0191790D01*
X0142736Y0191790D01*
X0142582Y0191944D01*
X0142803Y0191944D01*
X0144343Y0192582D01*
X0145522Y0193761D01*
X0146160Y0195301D01*
X0146160Y0202968D01*
X0145522Y0204508D01*
X0144343Y0205687D01*
X0142803Y0206325D01*
X0141136Y0206325D01*
X0140565Y0206089D01*
X0131526Y0215128D01*
X0131526Y0225464D01*
X0134912Y0228850D01*
X0135831Y0228850D01*
X0137840Y0226840D01*
X0140682Y0226840D01*
X0149440Y0218082D01*
X0150484Y0217039D01*
X0209715Y0217039D01*
X0222596Y0229920D01*
X0223290Y0229920D01*
X0224275Y0230328D01*
X0225028Y0231081D01*
X0225436Y0232066D01*
X0225436Y0233132D01*
X0225028Y0234117D01*
X0224275Y0234871D01*
X0223290Y0235279D01*
X0222224Y0235279D01*
X0221926Y0235156D01*
X0222569Y0235798D01*
X0222569Y0238465D01*
X0223060Y0238955D01*
X0223468Y0239940D01*
X0223468Y0241006D01*
X0223060Y0241991D01*
X0222306Y0242745D01*
X0221321Y0243153D01*
X0220255Y0243153D01*
X0219270Y0242745D01*
X0218517Y0241991D01*
X0218109Y0241006D01*
X0218109Y0239940D01*
X0218517Y0238955D01*
X0219007Y0238465D01*
X0219007Y0237274D01*
X0215129Y0233396D01*
X0210594Y0233396D01*
X0210594Y0235258D01*
X0209896Y0235955D01*
X0204310Y0235955D01*
X0204103Y0235749D01*
X0203896Y0235955D01*
X0198310Y0235955D01*
X0198103Y0235749D01*
X0197896Y0235955D01*
X0193281Y0235955D01*
X0191073Y0238164D01*
X0191073Y0239449D01*
X0191564Y0239940D01*
X0191972Y0240924D01*
X0191972Y0241990D01*
X0191564Y0242975D01*
X0190810Y0243729D01*
X0189825Y0244137D01*
X0188759Y0244137D01*
X0187774Y0243729D01*
X0187021Y0242975D01*
X0186613Y0241990D01*
X0186613Y0240924D01*
X0187021Y0239940D01*
X0187511Y0239449D01*
X0187511Y0236688D01*
X0188554Y0235645D01*
X0191613Y0232587D01*
X0191613Y0227972D01*
X0192094Y0227491D01*
X0153613Y0227491D01*
X0143770Y0237333D01*
X0141631Y0237333D01*
X0143201Y0238903D01*
X0143201Y0240997D01*
X0152171Y0232027D01*
X0152772Y0231778D01*
X0152857Y0231693D01*
X0154018Y0231212D01*
X0155275Y0231212D01*
X0156436Y0231693D01*
X0157136Y0232393D01*
X0183031Y0232393D01*
X0184192Y0232874D01*
X0185080Y0233762D01*
X0185561Y0234924D01*
X0185561Y0236180D01*
X0185080Y0237341D01*
X0184192Y0238230D01*
X0183031Y0238711D01*
X0155199Y0238711D01*
X0154038Y0238230D01*
X0153914Y0238106D01*
X0148197Y0243822D01*
X0148202Y0243822D01*
X0148889Y0244046D01*
X0149533Y0244374D01*
X0150117Y0244799D01*
X0150628Y0245309D01*
X0151053Y0245894D01*
X0151381Y0246538D01*
X0151604Y0247225D01*
X0151717Y0247939D01*
X0151717Y0250891D01*
X0147536Y0250891D01*
X0147536Y0251709D01*
X0151717Y0251709D01*
X0151717Y0254661D01*
X0151604Y0255375D01*
X0151381Y0256062D01*
X0151053Y0256706D01*
X0150668Y0257236D01*
X0154137Y0257236D01*
X0153574Y0256674D01*
X0152936Y0255134D01*
X0152936Y0247466D01*
X0153574Y0245926D01*
X0154753Y0244747D01*
X0156293Y0244109D01*
X0157960Y0244109D01*
X0159501Y0244747D01*
X0160679Y0245926D01*
X0161317Y0247466D01*
X0161317Y0255134D01*
X0160679Y0256674D01*
X0160117Y0257236D01*
X0162898Y0257236D01*
X0162898Y0256617D01*
X0163006Y0256213D01*
X0163216Y0255850D01*
X0163512Y0255554D01*
X0163875Y0255345D01*
X0164279Y0255236D01*
X0167079Y0255236D01*
X0167079Y0257236D01*
X0168198Y0257236D01*
X0168198Y0255236D01*
X0170998Y0255236D01*
X0171402Y0255345D01*
X0171765Y0255554D01*
X0172061Y0255850D01*
X0172271Y0256213D01*
X0172379Y0256617D01*
X0172379Y0257236D01*
X0227678Y0257236D01*
X0227678Y0181387D01*
X0165536Y0181387D01*
X0167033Y0182884D01*
X0197764Y0182884D01*
X0198808Y0183928D01*
X0209498Y0194618D01*
X0207871Y0192991D02*
X0227678Y0192991D01*
X0227678Y0194171D02*
X0214692Y0194171D01*
X0215470Y0195350D02*
X0227678Y0195350D01*
X0227678Y0196530D02*
X0215594Y0196530D01*
X0215176Y0197709D02*
X0217635Y0197709D01*
X0220005Y0197709D02*
X0227678Y0197709D01*
X0227678Y0198889D02*
X0225316Y0198889D01*
X0226213Y0200069D02*
X0227678Y0200069D01*
X0227678Y0201248D02*
X0226420Y0201248D01*
X0226093Y0202428D02*
X0227678Y0202428D01*
X0227678Y0203607D02*
X0224697Y0203607D01*
X0223741Y0201103D02*
X0222046Y0202798D01*
X0217710Y0202798D01*
X0216811Y0201900D01*
X0209224Y0201900D01*
X0195551Y0188228D01*
X0141261Y0188228D01*
X0134783Y0194705D01*
X0134783Y0201788D01*
X0118908Y0217664D01*
X0118908Y0243081D01*
X0127127Y0251300D01*
X0131317Y0250792D02*
X0132936Y0250792D01*
X0132936Y0249612D02*
X0131317Y0249612D01*
X0131317Y0248433D02*
X0132936Y0248433D01*
X0132936Y0247466D02*
X0133574Y0245926D01*
X0134753Y0244747D01*
X0136293Y0244109D01*
X0137686Y0244109D01*
X0135620Y0242043D01*
X0135620Y0238903D01*
X0137190Y0237333D01*
X0133230Y0237333D01*
X0132739Y0237824D01*
X0131754Y0238231D01*
X0130688Y0238231D01*
X0129703Y0237824D01*
X0128950Y0237070D01*
X0128542Y0236085D01*
X0128542Y0235019D01*
X0128950Y0234034D01*
X0129703Y0233280D01*
X0130688Y0232872D01*
X0131754Y0232872D01*
X0132739Y0233280D01*
X0133230Y0233771D01*
X0137190Y0233771D01*
X0135831Y0232412D01*
X0133436Y0232412D01*
X0132393Y0231368D01*
X0129007Y0227983D01*
X0127964Y0226939D01*
X0127964Y0213653D01*
X0138033Y0203583D01*
X0138031Y0203578D01*
X0122470Y0219139D01*
X0122470Y0222313D01*
X0123187Y0223030D01*
X0123880Y0223030D01*
X0124865Y0223438D01*
X0125619Y0224192D01*
X0126027Y0225176D01*
X0126027Y0226242D01*
X0125619Y0227227D01*
X0124865Y0227981D01*
X0123880Y0228389D01*
X0122814Y0228389D01*
X0121829Y0227981D01*
X0121076Y0227227D01*
X0120689Y0226294D01*
X0120689Y0242343D01*
X0123923Y0245577D01*
X0124753Y0244747D01*
X0126293Y0244109D01*
X0127960Y0244109D01*
X0129501Y0244747D01*
X0130679Y0245926D01*
X0131317Y0247466D01*
X0131317Y0255134D01*
X0130679Y0256674D01*
X0130117Y0257236D01*
X0134137Y0257236D01*
X0133574Y0256674D01*
X0132936Y0255134D01*
X0132936Y0247466D01*
X0133025Y0247253D02*
X0131229Y0247253D01*
X0130740Y0246074D02*
X0133513Y0246074D01*
X0134606Y0244894D02*
X0129647Y0244894D01*
X0124606Y0244894D02*
X0123240Y0244894D01*
X0122060Y0243714D02*
X0137291Y0243714D01*
X0136111Y0242535D02*
X0120880Y0242535D01*
X0120689Y0241355D02*
X0135620Y0241355D01*
X0135620Y0240175D02*
X0120689Y0240175D01*
X0120689Y0238996D02*
X0135620Y0238996D01*
X0136707Y0237816D02*
X0132746Y0237816D01*
X0131221Y0235552D02*
X0143032Y0235552D01*
X0152875Y0225709D01*
X0200119Y0225709D01*
X0201103Y0226694D01*
X0201103Y0231615D01*
X0202884Y0227274D02*
X0203896Y0227274D01*
X0204103Y0227481D01*
X0204310Y0227274D01*
X0209896Y0227274D01*
X0210594Y0227972D01*
X0210594Y0229834D01*
X0216605Y0229834D01*
X0220200Y0233430D01*
X0220077Y0233132D01*
X0220077Y0232439D01*
X0208239Y0220601D01*
X0151959Y0220601D01*
X0143201Y0229359D01*
X0143201Y0232201D01*
X0141631Y0233771D01*
X0142295Y0233771D01*
X0152137Y0223928D01*
X0200857Y0223928D01*
X0201900Y0224972D01*
X0202884Y0225956D01*
X0202884Y0227274D01*
X0202884Y0227200D02*
X0214838Y0227200D01*
X0213659Y0226020D02*
X0202884Y0226020D01*
X0201769Y0224841D02*
X0212479Y0224841D01*
X0211300Y0223661D02*
X0148899Y0223661D01*
X0150078Y0222481D02*
X0210120Y0222481D01*
X0208940Y0221302D02*
X0151258Y0221302D01*
X0151221Y0218820D02*
X0208977Y0218820D01*
X0222757Y0232599D01*
X0224685Y0230739D02*
X0227678Y0230739D01*
X0227678Y0231918D02*
X0225375Y0231918D01*
X0225436Y0233098D02*
X0227678Y0233098D01*
X0227678Y0234277D02*
X0224868Y0234277D01*
X0222228Y0235457D02*
X0227678Y0235457D01*
X0227678Y0236637D02*
X0222569Y0236637D01*
X0222569Y0237816D02*
X0227678Y0237816D01*
X0227678Y0238996D02*
X0223077Y0238996D01*
X0223468Y0240175D02*
X0227678Y0240175D01*
X0227678Y0241355D02*
X0223323Y0241355D01*
X0222516Y0242535D02*
X0227678Y0242535D01*
X0227678Y0243714D02*
X0190825Y0243714D01*
X0191746Y0242535D02*
X0219060Y0242535D01*
X0218253Y0241355D02*
X0191972Y0241355D01*
X0191661Y0240175D02*
X0218109Y0240175D01*
X0218500Y0238996D02*
X0191073Y0238996D01*
X0191421Y0237816D02*
X0219007Y0237816D01*
X0218370Y0236637D02*
X0192600Y0236637D01*
X0189292Y0237426D02*
X0189292Y0241457D01*
X0186838Y0242535D02*
X0149485Y0242535D01*
X0150664Y0241355D02*
X0186613Y0241355D01*
X0186923Y0240175D02*
X0151844Y0240175D01*
X0153023Y0238996D02*
X0187511Y0238996D01*
X0187511Y0237816D02*
X0184606Y0237816D01*
X0185372Y0236637D02*
X0187563Y0236637D01*
X0188742Y0235457D02*
X0185561Y0235457D01*
X0185294Y0234277D02*
X0189922Y0234277D01*
X0191101Y0233098D02*
X0184416Y0233098D01*
X0189292Y0237426D02*
X0195103Y0231615D01*
X0191613Y0231918D02*
X0156661Y0231918D01*
X0152433Y0231918D02*
X0149185Y0231918D01*
X0150365Y0230739D02*
X0191613Y0230739D01*
X0191613Y0229559D02*
X0151544Y0229559D01*
X0152724Y0228379D02*
X0191613Y0228379D01*
X0187760Y0243714D02*
X0148305Y0243714D01*
X0150213Y0244894D02*
X0154606Y0244894D01*
X0153513Y0246074D02*
X0151144Y0246074D01*
X0151609Y0247253D02*
X0153025Y0247253D01*
X0152936Y0248433D02*
X0151717Y0248433D01*
X0151717Y0249612D02*
X0152936Y0249612D01*
X0152936Y0250792D02*
X0151717Y0250792D01*
X0151717Y0251972D02*
X0152936Y0251972D01*
X0152936Y0253151D02*
X0151717Y0253151D01*
X0151717Y0254331D02*
X0152936Y0254331D01*
X0153092Y0255510D02*
X0151560Y0255510D01*
X0151061Y0256690D02*
X0153591Y0256690D01*
X0160663Y0256690D02*
X0162898Y0256690D01*
X0163587Y0255510D02*
X0161161Y0255510D01*
X0161317Y0254331D02*
X0227678Y0254331D01*
X0227678Y0255510D02*
X0171690Y0255510D01*
X0172379Y0256690D02*
X0227678Y0256690D01*
X0227678Y0253151D02*
X0161317Y0253151D01*
X0161317Y0251972D02*
X0227678Y0251972D01*
X0227678Y0250792D02*
X0161317Y0250792D01*
X0161317Y0249612D02*
X0227678Y0249612D01*
X0227678Y0248433D02*
X0161317Y0248433D01*
X0161229Y0247253D02*
X0227678Y0247253D01*
X0227678Y0246074D02*
X0160740Y0246074D01*
X0159647Y0244894D02*
X0227678Y0244894D01*
X0220788Y0240473D02*
X0220788Y0236536D01*
X0215867Y0231615D01*
X0207103Y0231615D01*
X0210594Y0229559D02*
X0217198Y0229559D01*
X0217509Y0230739D02*
X0218377Y0230739D01*
X0218689Y0231918D02*
X0219557Y0231918D01*
X0219869Y0233098D02*
X0220077Y0233098D01*
X0217190Y0235457D02*
X0210395Y0235457D01*
X0210594Y0234277D02*
X0216011Y0234277D01*
X0216018Y0228379D02*
X0210594Y0228379D01*
X0216337Y0223661D02*
X0227678Y0223661D01*
X0227678Y0224841D02*
X0217517Y0224841D01*
X0218696Y0226020D02*
X0227678Y0226020D01*
X0227678Y0227200D02*
X0219876Y0227200D01*
X0221056Y0228379D02*
X0227678Y0228379D01*
X0227678Y0229559D02*
X0222235Y0229559D01*
X0227678Y0222481D02*
X0215158Y0222481D01*
X0213978Y0221302D02*
X0227678Y0221302D01*
X0227678Y0220122D02*
X0212798Y0220122D01*
X0211619Y0218942D02*
X0227678Y0218942D01*
X0227678Y0217763D02*
X0210439Y0217763D01*
X0208412Y0203607D02*
X0204028Y0203607D01*
X0205423Y0202428D02*
X0207233Y0202428D01*
X0206053Y0201248D02*
X0205751Y0201248D01*
X0203072Y0201103D02*
X0203072Y0198267D01*
X0194813Y0190009D01*
X0141998Y0190009D01*
X0136565Y0195442D01*
X0136565Y0202526D01*
X0120689Y0218402D01*
X0120689Y0223051D01*
X0123347Y0225709D01*
X0125888Y0224841D02*
X0127964Y0224841D01*
X0127964Y0226020D02*
X0126027Y0226020D01*
X0125630Y0227200D02*
X0128224Y0227200D01*
X0129007Y0227983D02*
X0129007Y0227983D01*
X0129404Y0228379D02*
X0123903Y0228379D01*
X0122791Y0228379D02*
X0120689Y0228379D01*
X0120689Y0227200D02*
X0121064Y0227200D01*
X0120689Y0229559D02*
X0130583Y0229559D01*
X0131763Y0230739D02*
X0120689Y0230739D01*
X0120689Y0231918D02*
X0132943Y0231918D01*
X0132298Y0233098D02*
X0136517Y0233098D01*
X0134174Y0230631D02*
X0139410Y0230631D01*
X0151221Y0218820D01*
X0149759Y0217763D02*
X0144954Y0217763D01*
X0143775Y0218942D02*
X0148580Y0218942D01*
X0147400Y0220122D02*
X0143201Y0220122D01*
X0143201Y0219516D02*
X0143201Y0222358D01*
X0140980Y0224579D01*
X0137840Y0224579D01*
X0135620Y0222358D01*
X0135620Y0219218D01*
X0137840Y0216998D01*
X0140682Y0216998D01*
X0146487Y0211192D01*
X0147531Y0210149D01*
X0178712Y0210149D01*
X0187511Y0201350D01*
X0187511Y0200159D01*
X0187021Y0199668D01*
X0186613Y0198683D01*
X0186613Y0197617D01*
X0187021Y0196633D01*
X0187774Y0195879D01*
X0188759Y0195471D01*
X0189825Y0195471D01*
X0190810Y0195879D01*
X0191564Y0196633D01*
X0191972Y0197617D01*
X0191972Y0198683D01*
X0191564Y0199668D01*
X0191073Y0200159D01*
X0191073Y0202825D01*
X0190030Y0203868D01*
X0180187Y0213711D01*
X0149006Y0213711D01*
X0143201Y0219516D01*
X0143201Y0221302D02*
X0146220Y0221302D01*
X0145041Y0222481D02*
X0143078Y0222481D01*
X0143861Y0223661D02*
X0141898Y0223661D01*
X0142682Y0224841D02*
X0131526Y0224841D01*
X0131526Y0223661D02*
X0136922Y0223661D01*
X0135743Y0222481D02*
X0131526Y0222481D01*
X0131526Y0221302D02*
X0135620Y0221302D01*
X0135620Y0220122D02*
X0131526Y0220122D01*
X0131526Y0218942D02*
X0135895Y0218942D01*
X0137075Y0217763D02*
X0131526Y0217763D01*
X0131526Y0216583D02*
X0141096Y0216583D01*
X0142276Y0215404D02*
X0131526Y0215404D01*
X0132430Y0214224D02*
X0143456Y0214224D01*
X0144635Y0213044D02*
X0133610Y0213044D01*
X0134790Y0211865D02*
X0145815Y0211865D01*
X0146994Y0210685D02*
X0135969Y0210685D01*
X0137149Y0209506D02*
X0179355Y0209506D01*
X0180535Y0208326D02*
X0138328Y0208326D01*
X0139508Y0207146D02*
X0181714Y0207146D01*
X0182894Y0205967D02*
X0154505Y0205967D01*
X0155716Y0204787D02*
X0184074Y0204787D01*
X0185253Y0203607D02*
X0156318Y0203607D01*
X0156560Y0202428D02*
X0186433Y0202428D01*
X0187511Y0201248D02*
X0156560Y0201248D01*
X0156560Y0200069D02*
X0187421Y0200069D01*
X0186698Y0198889D02*
X0152379Y0198889D01*
X0151560Y0198889D02*
X0146160Y0198889D01*
X0146160Y0197709D02*
X0147379Y0197709D01*
X0147379Y0196530D02*
X0146160Y0196530D01*
X0146160Y0195350D02*
X0147446Y0195350D01*
X0147818Y0194171D02*
X0145692Y0194171D01*
X0144752Y0192991D02*
X0148621Y0192991D01*
X0150420Y0191811D02*
X0142715Y0191811D01*
X0140523Y0186446D02*
X0196289Y0186446D01*
X0209961Y0200119D01*
X0218820Y0200119D01*
X0221211Y0198889D02*
X0222166Y0198889D01*
X0227678Y0204787D02*
X0189111Y0204787D01*
X0187932Y0205967D02*
X0227678Y0205967D01*
X0227678Y0207146D02*
X0186752Y0207146D01*
X0185572Y0208326D02*
X0227678Y0208326D01*
X0227678Y0209506D02*
X0184393Y0209506D01*
X0183213Y0210685D02*
X0227678Y0210685D01*
X0227678Y0211865D02*
X0182034Y0211865D01*
X0180854Y0213044D02*
X0227678Y0213044D01*
X0227678Y0214224D02*
X0148493Y0214224D01*
X0147314Y0215404D02*
X0227678Y0215404D01*
X0227678Y0216583D02*
X0146134Y0216583D01*
X0148269Y0211930D02*
X0179450Y0211930D01*
X0189292Y0202087D01*
X0189292Y0198150D01*
X0191163Y0200069D02*
X0200600Y0200069D01*
X0200392Y0201248D02*
X0191073Y0201248D01*
X0191073Y0202428D02*
X0200720Y0202428D01*
X0202116Y0203607D02*
X0190291Y0203607D01*
X0191886Y0198889D02*
X0201175Y0198889D01*
X0199995Y0197709D02*
X0191972Y0197709D01*
X0191461Y0196530D02*
X0198816Y0196530D01*
X0197636Y0195350D02*
X0156493Y0195350D01*
X0156560Y0196530D02*
X0187123Y0196530D01*
X0186613Y0197709D02*
X0156560Y0197709D01*
X0156121Y0194171D02*
X0196456Y0194171D01*
X0195277Y0192991D02*
X0155318Y0192991D01*
X0153519Y0191811D02*
X0194097Y0191811D01*
X0200793Y0185913D02*
X0227678Y0185913D01*
X0227678Y0184734D02*
X0199614Y0184734D01*
X0198808Y0183928D02*
X0198808Y0183928D01*
X0198434Y0183554D02*
X0227678Y0183554D01*
X0227678Y0182374D02*
X0166523Y0182374D01*
X0162717Y0181087D02*
X0139095Y0181087D01*
X0138197Y0181986D01*
X0138111Y0181986D01*
X0135431Y0182374D02*
X0131724Y0182374D01*
X0132423Y0183074D02*
X0132423Y0183074D01*
X0132903Y0183554D02*
X0135890Y0183554D01*
X0137198Y0184734D02*
X0133975Y0184734D01*
X0134380Y0185913D02*
X0136018Y0185913D01*
X0134839Y0187093D02*
X0134328Y0187093D01*
X0140523Y0186446D02*
X0133002Y0193967D01*
X0133002Y0201050D01*
X0117127Y0216926D01*
X0117127Y0251300D01*
X0113513Y0246074D02*
X0106366Y0246074D01*
X0107545Y0244894D02*
X0114606Y0244894D01*
X0115346Y0243714D02*
X0108725Y0243714D01*
X0109905Y0242535D02*
X0115346Y0242535D01*
X0115346Y0241355D02*
X0111084Y0241355D01*
X0112264Y0240175D02*
X0115346Y0240175D01*
X0115346Y0238996D02*
X0114278Y0238996D01*
X0113505Y0236416D02*
X0104526Y0245394D01*
X0081024Y0245394D01*
X0076103Y0250316D01*
X0076024Y0250316D01*
X0072287Y0251972D02*
X0070076Y0251972D01*
X0069790Y0252664D02*
X0070420Y0251143D01*
X0070420Y0249488D01*
X0069790Y0247968D01*
X0069790Y0247248D01*
X0069092Y0246550D01*
X0068038Y0246550D01*
X0067088Y0246157D01*
X0065433Y0246157D01*
X0064483Y0246550D01*
X0062956Y0246550D01*
X0062259Y0247248D01*
X0062259Y0249108D01*
X0062102Y0249488D01*
X0062102Y0251143D01*
X0062259Y0251523D01*
X0062259Y0253384D01*
X0062956Y0254081D01*
X0064483Y0254081D01*
X0065433Y0254475D01*
X0067088Y0254475D01*
X0068038Y0254081D01*
X0069092Y0254081D01*
X0069790Y0253384D01*
X0069790Y0252664D01*
X0069790Y0253151D02*
X0073057Y0253151D01*
X0074928Y0254331D02*
X0067435Y0254331D01*
X0065086Y0254331D02*
X0049932Y0254331D01*
X0049932Y0255510D02*
X0071724Y0255510D01*
X0071035Y0256690D02*
X0049932Y0256690D01*
X0050082Y0253151D02*
X0062259Y0253151D01*
X0062259Y0251972D02*
X0051261Y0251972D01*
X0052304Y0250792D02*
X0062102Y0250792D01*
X0062102Y0249612D02*
X0052687Y0249612D01*
X0052687Y0248433D02*
X0062259Y0248433D01*
X0062259Y0247253D02*
X0052687Y0247253D01*
X0052414Y0246074D02*
X0077826Y0246074D01*
X0079006Y0244894D02*
X0051527Y0244894D01*
X0054286Y0243714D02*
X0080186Y0243714D01*
X0082690Y0241991D02*
X0082282Y0241006D01*
X0082282Y0239940D01*
X0082690Y0238955D01*
X0083444Y0238202D01*
X0084428Y0237794D01*
X0085494Y0237794D01*
X0086479Y0238202D01*
X0087233Y0238955D01*
X0087641Y0239940D01*
X0087641Y0241006D01*
X0087233Y0241991D01*
X0086479Y0242745D01*
X0085494Y0243153D01*
X0084428Y0243153D01*
X0083444Y0242745D01*
X0082690Y0241991D01*
X0082426Y0241355D02*
X0055957Y0241355D01*
X0055957Y0240175D02*
X0082282Y0240175D01*
X0082673Y0238996D02*
X0056162Y0238996D01*
X0057342Y0237816D02*
X0084374Y0237816D01*
X0085549Y0237816D02*
X0089462Y0237816D01*
X0088376Y0238996D02*
X0087250Y0238996D01*
X0087641Y0240175D02*
X0088376Y0240175D01*
X0088376Y0241355D02*
X0087496Y0241355D01*
X0086689Y0242535D02*
X0088867Y0242535D01*
X0092166Y0240473D02*
X0097087Y0235552D01*
X0105631Y0235552D01*
X0115346Y0225837D01*
X0115346Y0216188D01*
X0113565Y0223661D02*
X0109340Y0223661D01*
X0110140Y0224841D02*
X0113565Y0224841D01*
X0112644Y0226020D02*
X0110279Y0226020D01*
X0109882Y0227200D02*
X0111464Y0227200D01*
X0110284Y0228379D02*
X0108155Y0228379D01*
X0107043Y0228379D02*
X0102520Y0228379D01*
X0103201Y0229559D02*
X0109105Y0229559D01*
X0107925Y0230739D02*
X0103201Y0230739D01*
X0103201Y0231918D02*
X0106746Y0231918D01*
X0105566Y0233098D02*
X0102304Y0233098D01*
X0101631Y0237333D02*
X0104893Y0237333D01*
X0106368Y0237333D01*
X0115346Y0228356D01*
X0115346Y0234467D01*
X0115023Y0234144D01*
X0114038Y0233736D01*
X0112972Y0233736D01*
X0111987Y0234144D01*
X0111233Y0234898D01*
X0110825Y0235883D01*
X0110825Y0236576D01*
X0103788Y0243613D01*
X0101631Y0243613D01*
X0103201Y0242043D01*
X0103201Y0238903D01*
X0101631Y0237333D01*
X0102114Y0237816D02*
X0109585Y0237816D01*
X0108406Y0238996D02*
X0103201Y0238996D01*
X0103201Y0240175D02*
X0107226Y0240175D01*
X0106047Y0241355D02*
X0103201Y0241355D01*
X0102709Y0242535D02*
X0104867Y0242535D01*
X0107065Y0236637D02*
X0110765Y0236637D01*
X0111002Y0235457D02*
X0108244Y0235457D01*
X0109424Y0234277D02*
X0111854Y0234277D01*
X0110604Y0233098D02*
X0115346Y0233098D01*
X0115346Y0234277D02*
X0115156Y0234277D01*
X0115346Y0231918D02*
X0111783Y0231918D01*
X0112963Y0230739D02*
X0115346Y0230739D01*
X0115346Y0229559D02*
X0114143Y0229559D01*
X0115322Y0228379D02*
X0115346Y0228379D01*
X0120689Y0233098D02*
X0130144Y0233098D01*
X0128849Y0234277D02*
X0120689Y0234277D01*
X0120689Y0235457D02*
X0128542Y0235457D01*
X0128770Y0236637D02*
X0120689Y0236637D01*
X0120689Y0237816D02*
X0129696Y0237816D01*
X0134174Y0230631D02*
X0129745Y0226202D01*
X0129745Y0214391D01*
X0141969Y0202166D01*
X0141969Y0199135D01*
X0146160Y0200069D02*
X0147379Y0200069D01*
X0147379Y0201248D02*
X0146160Y0201248D01*
X0146160Y0202428D02*
X0147379Y0202428D01*
X0147621Y0203607D02*
X0145895Y0203607D01*
X0145243Y0204787D02*
X0148222Y0204787D01*
X0149434Y0205967D02*
X0143668Y0205967D01*
X0148269Y0211930D02*
X0139410Y0220788D01*
X0141502Y0226020D02*
X0132082Y0226020D01*
X0133262Y0227200D02*
X0137481Y0227200D01*
X0136301Y0228379D02*
X0134441Y0228379D01*
X0127964Y0223661D02*
X0125088Y0223661D01*
X0122638Y0222481D02*
X0127964Y0222481D01*
X0127964Y0221302D02*
X0122470Y0221302D01*
X0122470Y0220122D02*
X0127964Y0220122D01*
X0127964Y0218942D02*
X0122667Y0218942D01*
X0123847Y0217763D02*
X0127964Y0217763D01*
X0127964Y0216583D02*
X0125026Y0216583D01*
X0126206Y0215404D02*
X0127964Y0215404D01*
X0127964Y0214224D02*
X0127385Y0214224D01*
X0128565Y0213044D02*
X0128572Y0213044D01*
X0129745Y0211865D02*
X0129752Y0211865D01*
X0130924Y0210685D02*
X0130931Y0210685D01*
X0132104Y0209506D02*
X0132111Y0209506D01*
X0133283Y0208326D02*
X0133291Y0208326D01*
X0134463Y0207146D02*
X0134470Y0207146D01*
X0135643Y0205967D02*
X0135650Y0205967D01*
X0136822Y0204787D02*
X0136829Y0204787D01*
X0138002Y0203607D02*
X0138009Y0203607D01*
X0151560Y0203607D02*
X0152379Y0203607D01*
X0152379Y0202428D02*
X0151560Y0202428D01*
X0151560Y0201248D02*
X0152379Y0201248D01*
X0152379Y0200069D02*
X0151560Y0200069D01*
X0151560Y0204787D02*
X0152379Y0204787D01*
X0152379Y0205967D02*
X0151560Y0205967D01*
X0151225Y0224841D02*
X0147719Y0224841D01*
X0146540Y0226020D02*
X0150045Y0226020D01*
X0148866Y0227200D02*
X0145360Y0227200D01*
X0144180Y0228379D02*
X0147686Y0228379D01*
X0146506Y0229559D02*
X0143201Y0229559D01*
X0143201Y0230739D02*
X0145327Y0230739D01*
X0144147Y0231918D02*
X0143201Y0231918D01*
X0142968Y0233098D02*
X0142304Y0233098D01*
X0145646Y0235457D02*
X0148741Y0235457D01*
X0149920Y0234277D02*
X0146826Y0234277D01*
X0148005Y0233098D02*
X0151100Y0233098D01*
X0147561Y0236637D02*
X0144466Y0236637D01*
X0146381Y0237816D02*
X0142114Y0237816D01*
X0143201Y0238996D02*
X0145202Y0238996D01*
X0144022Y0240175D02*
X0143201Y0240175D01*
X0142536Y0249801D02*
X0141317Y0251020D01*
X0141317Y0255134D01*
X0140679Y0256674D01*
X0140117Y0257236D01*
X0143586Y0257236D01*
X0143201Y0256706D01*
X0142873Y0256062D01*
X0142649Y0255375D01*
X0142536Y0254661D01*
X0142536Y0251709D01*
X0146717Y0251709D01*
X0146717Y0250891D01*
X0142536Y0250891D01*
X0142536Y0249801D01*
X0142536Y0250792D02*
X0141546Y0250792D01*
X0141317Y0251972D02*
X0142536Y0251972D01*
X0142536Y0253151D02*
X0141317Y0253151D01*
X0141317Y0254331D02*
X0142536Y0254331D01*
X0142693Y0255510D02*
X0141161Y0255510D01*
X0140663Y0256690D02*
X0143192Y0256690D01*
X0133591Y0256690D02*
X0130663Y0256690D01*
X0131161Y0255510D02*
X0133092Y0255510D01*
X0132936Y0254331D02*
X0131317Y0254331D01*
X0131317Y0253151D02*
X0132936Y0253151D01*
X0132936Y0251972D02*
X0131317Y0251972D01*
X0113591Y0256690D02*
X0103481Y0256690D01*
X0102792Y0255510D02*
X0113092Y0255510D01*
X0112936Y0254331D02*
X0097147Y0254331D01*
X0097000Y0254379D02*
X0096352Y0254481D01*
X0096221Y0254481D01*
X0096221Y0250513D01*
X0100190Y0250513D01*
X0100190Y0250644D01*
X0100087Y0251291D01*
X0099885Y0251915D01*
X0099587Y0252499D01*
X0099202Y0253029D01*
X0098738Y0253493D01*
X0098208Y0253878D01*
X0097623Y0254176D01*
X0097000Y0254379D01*
X0096221Y0254331D02*
X0095828Y0254331D01*
X0094902Y0254331D02*
X0088108Y0254331D01*
X0089521Y0253151D02*
X0092969Y0253151D01*
X0092193Y0251972D02*
X0090201Y0251972D01*
X0090486Y0250792D02*
X0091883Y0250792D01*
X0091919Y0249612D02*
X0090450Y0249612D01*
X0090103Y0248433D02*
X0092309Y0248433D01*
X0093196Y0247253D02*
X0089331Y0247253D01*
X0086221Y0247253D02*
X0085828Y0247253D01*
X0085828Y0247176D02*
X0085828Y0249922D01*
X0086221Y0249922D01*
X0086221Y0247176D01*
X0085828Y0247176D01*
X0085828Y0248433D02*
X0086221Y0248433D01*
X0086221Y0249612D02*
X0085828Y0249612D01*
X0085828Y0250792D02*
X0086221Y0250792D01*
X0086221Y0251972D02*
X0085828Y0251972D01*
X0085828Y0253151D02*
X0086221Y0253151D01*
X0086221Y0254331D02*
X0085828Y0254331D01*
X0083784Y0254331D02*
X0077278Y0254331D01*
X0076335Y0255510D02*
X0075216Y0255510D01*
X0075216Y0256690D02*
X0076335Y0256690D01*
X0079826Y0255510D02*
X0094690Y0255510D01*
X0094000Y0256690D02*
X0080516Y0256690D01*
X0079149Y0253151D02*
X0082370Y0253151D01*
X0081690Y0251972D02*
X0079919Y0251972D01*
X0080262Y0250792D02*
X0081405Y0250792D01*
X0081441Y0249612D02*
X0080262Y0249612D01*
X0080505Y0248433D02*
X0081788Y0248433D01*
X0081685Y0247253D02*
X0082561Y0247253D01*
X0083233Y0242535D02*
X0055465Y0242535D01*
X0052166Y0240473D02*
X0066930Y0225709D01*
X0064420Y0230739D02*
X0088376Y0230739D01*
X0088376Y0231918D02*
X0063240Y0231918D01*
X0062060Y0233098D02*
X0089273Y0233098D01*
X0090452Y0234277D02*
X0060881Y0234277D01*
X0059701Y0235457D02*
X0094663Y0235457D01*
X0093880Y0234277D02*
X0095843Y0234277D01*
X0096517Y0233098D02*
X0095060Y0233098D01*
X0093484Y0236637D02*
X0058522Y0236637D01*
X0049462Y0237816D02*
X0049448Y0237816D01*
X0048376Y0238996D02*
X0048269Y0238996D01*
X0048376Y0240175D02*
X0047089Y0240175D01*
X0047988Y0241355D02*
X0048376Y0241355D01*
X0054654Y0223661D02*
X0089678Y0223661D01*
X0088499Y0222481D02*
X0088042Y0222481D01*
X0087889Y0218942D02*
X0088651Y0218942D01*
X0089007Y0217763D02*
X0054501Y0217763D01*
X0055681Y0218942D02*
X0084002Y0218942D01*
X0083321Y0220122D02*
X0055957Y0220122D01*
X0055957Y0221302D02*
X0083266Y0221302D01*
X0083849Y0222481D02*
X0055834Y0222481D01*
X0069790Y0247253D02*
X0073284Y0247253D01*
X0072381Y0248433D02*
X0069982Y0248433D01*
X0070420Y0249612D02*
X0071944Y0249612D01*
X0071944Y0250792D02*
X0070420Y0250792D01*
X0071035Y0267017D02*
X0049932Y0267017D01*
X0049932Y0267967D01*
X0049234Y0268665D01*
X0048750Y0268665D01*
X0048750Y0301141D01*
X0048269Y0302302D01*
X0033601Y0316970D01*
X0032440Y0317451D01*
X0031183Y0317451D01*
X0030022Y0316970D01*
X0029134Y0316082D01*
X0028653Y0314920D01*
X0028653Y0313664D01*
X0029134Y0312503D01*
X0042432Y0299204D01*
X0042432Y0268665D01*
X0041948Y0268665D01*
X0041251Y0267967D01*
X0041251Y0267017D01*
X0034912Y0267017D01*
X0034912Y0267636D01*
X0034804Y0268041D01*
X0034594Y0268403D01*
X0034298Y0268700D01*
X0033935Y0268909D01*
X0033531Y0269017D01*
X0030731Y0269017D01*
X0030731Y0267017D01*
X0029612Y0267017D01*
X0029612Y0269017D01*
X0027253Y0269017D01*
X0027253Y0270843D01*
X0021332Y0270843D01*
X0021332Y0272024D01*
X0027253Y0272024D01*
X0027253Y0276565D01*
X0027144Y0276969D01*
X0026935Y0277332D01*
X0026639Y0277628D01*
X0026276Y0277837D01*
X0025872Y0277946D01*
X0021331Y0277946D01*
X0021331Y0272024D01*
X0020150Y0272024D01*
X0020150Y0270843D01*
X0014229Y0270843D01*
X0014229Y0267017D01*
X0013765Y0267017D01*
X0013765Y0344150D01*
X0014629Y0344150D01*
X0014629Y0334019D01*
X0015327Y0333322D01*
X0026155Y0333322D01*
X0026853Y0334019D01*
X0026853Y0344150D01*
X0035846Y0344150D01*
X0035296Y0343833D01*
X0033342Y0341879D01*
X0031960Y0339485D01*
X0031245Y0336816D01*
X0031245Y0334052D01*
X0031960Y0331383D01*
X0033342Y0328989D01*
X0035296Y0327035D01*
X0037690Y0325653D01*
X0040359Y0324938D01*
X0043123Y0324938D01*
X0045792Y0325653D01*
X0048186Y0327035D01*
X0050140Y0328989D01*
X0051522Y0331383D01*
X0052237Y0334052D01*
X0052237Y0336816D01*
X0051522Y0339485D01*
X0050140Y0341879D01*
X0048186Y0343833D01*
X0047636Y0344150D01*
X0170629Y0344150D01*
X0170629Y0334019D01*
X0171327Y0333322D01*
X0182155Y0333322D01*
X0182853Y0334019D01*
X0182853Y0344150D01*
X0184371Y0344150D01*
X0184371Y0267017D01*
X0183253Y0267017D01*
X0183253Y0270843D01*
X0177332Y0270843D01*
X0177332Y0272024D01*
X0183253Y0272024D01*
X0183253Y0276565D01*
X0183144Y0276969D01*
X0182935Y0277332D01*
X0182639Y0277628D01*
X0182276Y0277837D01*
X0181872Y0277946D01*
X0177331Y0277946D01*
X0177331Y0272024D01*
X0176150Y0272024D01*
X0176150Y0270843D01*
X0170229Y0270843D01*
X0170229Y0269017D01*
X0168198Y0269017D01*
X0168198Y0267017D01*
X0167079Y0267017D01*
X0167079Y0268928D01*
X0167140Y0268989D01*
X0168522Y0271383D01*
X0169237Y0274052D01*
X0169237Y0276816D01*
X0168522Y0279485D01*
X0167140Y0281879D01*
X0165186Y0283833D01*
X0162792Y0285215D01*
X0160123Y0285930D01*
X0157359Y0285930D01*
X0154690Y0285215D01*
X0152296Y0283833D01*
X0150342Y0281879D01*
X0148960Y0279485D01*
X0148245Y0276816D01*
X0148245Y0274052D01*
X0148960Y0271383D01*
X0150342Y0268989D01*
X0152296Y0267035D01*
X0152327Y0267017D01*
X0103481Y0267017D01*
X0103481Y0267636D01*
X0103373Y0268041D01*
X0103164Y0268403D01*
X0102868Y0268700D01*
X0102505Y0268909D01*
X0102100Y0269017D01*
X0099300Y0269017D01*
X0099300Y0267017D01*
X0098181Y0267017D01*
X0098181Y0269017D01*
X0095382Y0269017D01*
X0094977Y0268909D01*
X0094614Y0268700D01*
X0094318Y0268403D01*
X0094109Y0268041D01*
X0094000Y0267636D01*
X0094000Y0267017D01*
X0080516Y0267017D01*
X0080516Y0267636D01*
X0080407Y0268041D01*
X0080198Y0268403D01*
X0079902Y0268700D01*
X0079539Y0268909D01*
X0079134Y0269017D01*
X0076335Y0269017D01*
X0076335Y0267017D01*
X0075216Y0267017D01*
X0075216Y0269017D01*
X0072416Y0269017D01*
X0072011Y0268909D01*
X0071648Y0268700D01*
X0071352Y0268403D01*
X0071143Y0268041D01*
X0071035Y0267636D01*
X0071035Y0267017D01*
X0071035Y0267307D02*
X0049932Y0267307D01*
X0049413Y0268486D02*
X0071435Y0268486D01*
X0075216Y0268486D02*
X0076335Y0268486D01*
X0076335Y0267307D02*
X0075216Y0267307D01*
X0080115Y0268486D02*
X0094401Y0268486D01*
X0094000Y0267307D02*
X0080516Y0267307D01*
X0095828Y0253151D02*
X0096221Y0253151D01*
X0096221Y0251972D02*
X0095828Y0251972D01*
X0095828Y0250792D02*
X0096221Y0250792D01*
X0099080Y0253151D02*
X0112936Y0253151D01*
X0112936Y0251972D02*
X0099856Y0251972D01*
X0100166Y0250792D02*
X0112936Y0250792D01*
X0112936Y0249612D02*
X0100130Y0249612D01*
X0099740Y0248433D02*
X0112936Y0248433D01*
X0113025Y0247253D02*
X0098853Y0247253D01*
X0099300Y0255510D02*
X0098181Y0255510D01*
X0098181Y0256690D02*
X0099300Y0256690D01*
X0099300Y0267307D02*
X0098181Y0267307D01*
X0098181Y0268486D02*
X0099300Y0268486D01*
X0103081Y0268486D02*
X0150845Y0268486D01*
X0149951Y0269666D02*
X0048750Y0269666D01*
X0048750Y0270845D02*
X0149270Y0270845D01*
X0148788Y0272025D02*
X0048750Y0272025D01*
X0048750Y0273205D02*
X0148472Y0273205D01*
X0148245Y0274384D02*
X0048750Y0274384D01*
X0048750Y0275564D02*
X0148245Y0275564D01*
X0148245Y0276744D02*
X0048750Y0276744D01*
X0048750Y0277923D02*
X0148542Y0277923D01*
X0148858Y0279103D02*
X0048750Y0279103D01*
X0048750Y0280282D02*
X0149420Y0280282D01*
X0150101Y0281462D02*
X0048750Y0281462D01*
X0048750Y0282642D02*
X0151105Y0282642D01*
X0152285Y0283821D02*
X0048750Y0283821D01*
X0048750Y0285001D02*
X0154319Y0285001D01*
X0163163Y0285001D02*
X0184371Y0285001D01*
X0184371Y0286180D02*
X0048750Y0286180D01*
X0048750Y0287360D02*
X0184371Y0287360D01*
X0184371Y0288540D02*
X0048750Y0288540D01*
X0048750Y0289719D02*
X0184371Y0289719D01*
X0184371Y0290899D02*
X0048750Y0290899D01*
X0048750Y0292078D02*
X0184371Y0292078D01*
X0184371Y0293258D02*
X0048750Y0293258D01*
X0048750Y0294438D02*
X0184371Y0294438D01*
X0184371Y0295617D02*
X0048750Y0295617D01*
X0048750Y0296797D02*
X0184371Y0296797D01*
X0184371Y0297977D02*
X0048750Y0297977D01*
X0048750Y0299156D02*
X0184371Y0299156D01*
X0184371Y0300336D02*
X0048750Y0300336D01*
X0048595Y0301515D02*
X0184371Y0301515D01*
X0184371Y0302695D02*
X0047876Y0302695D01*
X0046697Y0303875D02*
X0184371Y0303875D01*
X0184371Y0305054D02*
X0045517Y0305054D01*
X0044338Y0306234D02*
X0184371Y0306234D01*
X0184371Y0307413D02*
X0043158Y0307413D01*
X0041978Y0308593D02*
X0184371Y0308593D01*
X0184371Y0309773D02*
X0040799Y0309773D01*
X0039619Y0310952D02*
X0184371Y0310952D01*
X0184371Y0312132D02*
X0038440Y0312132D01*
X0037260Y0313312D02*
X0184371Y0313312D01*
X0184371Y0314491D02*
X0036080Y0314491D01*
X0034901Y0315671D02*
X0184371Y0315671D01*
X0184371Y0316850D02*
X0033721Y0316850D01*
X0029902Y0316850D02*
X0013765Y0316850D01*
X0013765Y0315671D02*
X0028964Y0315671D01*
X0028653Y0314491D02*
X0013765Y0314491D01*
X0013765Y0313312D02*
X0028799Y0313312D01*
X0029504Y0312132D02*
X0013765Y0312132D01*
X0013765Y0310952D02*
X0030684Y0310952D01*
X0031864Y0309773D02*
X0013765Y0309773D01*
X0013765Y0308593D02*
X0033043Y0308593D01*
X0034223Y0307413D02*
X0013765Y0307413D01*
X0013765Y0306234D02*
X0035402Y0306234D01*
X0036582Y0305054D02*
X0013765Y0305054D01*
X0013765Y0303875D02*
X0037762Y0303875D01*
X0038941Y0302695D02*
X0013765Y0302695D01*
X0013765Y0301515D02*
X0040121Y0301515D01*
X0041301Y0300336D02*
X0013765Y0300336D01*
X0013765Y0299156D02*
X0042432Y0299156D01*
X0042432Y0297977D02*
X0013765Y0297977D01*
X0013765Y0296797D02*
X0042432Y0296797D01*
X0042432Y0295617D02*
X0013765Y0295617D01*
X0013765Y0294438D02*
X0042432Y0294438D01*
X0042432Y0293258D02*
X0013765Y0293258D01*
X0013765Y0292078D02*
X0042432Y0292078D01*
X0042432Y0290899D02*
X0013765Y0290899D01*
X0013765Y0289719D02*
X0042432Y0289719D01*
X0042432Y0288540D02*
X0013765Y0288540D01*
X0013765Y0287360D02*
X0042432Y0287360D01*
X0042432Y0286180D02*
X0013765Y0286180D01*
X0013765Y0285001D02*
X0042432Y0285001D01*
X0042432Y0283821D02*
X0013765Y0283821D01*
X0013765Y0282642D02*
X0042432Y0282642D01*
X0042432Y0281462D02*
X0013765Y0281462D01*
X0013765Y0280282D02*
X0042432Y0280282D01*
X0042432Y0279103D02*
X0013765Y0279103D01*
X0013765Y0277923D02*
X0015526Y0277923D01*
X0015610Y0277946D02*
X0015206Y0277837D01*
X0014843Y0277628D01*
X0014547Y0277332D01*
X0014338Y0276969D01*
X0014229Y0276565D01*
X0014229Y0272024D01*
X0020150Y0272024D01*
X0020150Y0277946D01*
X0015610Y0277946D01*
X0014277Y0276744D02*
X0013765Y0276744D01*
X0013765Y0275564D02*
X0014229Y0275564D01*
X0014229Y0274384D02*
X0013765Y0274384D01*
X0013765Y0273205D02*
X0014229Y0273205D01*
X0014229Y0272025D02*
X0013765Y0272025D01*
X0013765Y0270845D02*
X0020150Y0270845D01*
X0020150Y0272025D02*
X0021331Y0272025D01*
X0021332Y0270845D02*
X0042432Y0270845D01*
X0042432Y0269666D02*
X0027253Y0269666D01*
X0027253Y0272025D02*
X0042432Y0272025D01*
X0042432Y0273205D02*
X0027253Y0273205D01*
X0027253Y0274384D02*
X0042432Y0274384D01*
X0042432Y0275564D02*
X0027253Y0275564D01*
X0027205Y0276744D02*
X0042432Y0276744D01*
X0042432Y0277923D02*
X0025956Y0277923D01*
X0021331Y0277923D02*
X0020150Y0277923D01*
X0020150Y0276744D02*
X0021331Y0276744D01*
X0021331Y0275564D02*
X0020150Y0275564D01*
X0020150Y0274384D02*
X0021331Y0274384D01*
X0021331Y0273205D02*
X0020150Y0273205D01*
X0014229Y0269666D02*
X0013765Y0269666D01*
X0013765Y0268486D02*
X0014229Y0268486D01*
X0014229Y0267307D02*
X0013765Y0267307D01*
X0029612Y0267307D02*
X0030731Y0267307D01*
X0030731Y0268486D02*
X0029612Y0268486D01*
X0034511Y0268486D02*
X0041770Y0268486D01*
X0041251Y0267307D02*
X0034912Y0267307D01*
X0023104Y0230739D02*
X0013765Y0230739D01*
X0013765Y0229559D02*
X0021998Y0229559D01*
X0021408Y0228379D02*
X0013765Y0228379D01*
X0013765Y0318030D02*
X0184371Y0318030D01*
X0184371Y0319210D02*
X0013765Y0319210D01*
X0013765Y0320389D02*
X0184371Y0320389D01*
X0184371Y0321569D02*
X0013765Y0321569D01*
X0013765Y0322748D02*
X0184371Y0322748D01*
X0184371Y0323928D02*
X0013765Y0323928D01*
X0013765Y0325108D02*
X0039725Y0325108D01*
X0036591Y0326287D02*
X0013765Y0326287D01*
X0013765Y0327467D02*
X0034864Y0327467D01*
X0033685Y0328647D02*
X0013765Y0328647D01*
X0013765Y0329826D02*
X0032859Y0329826D01*
X0032178Y0331006D02*
X0013765Y0331006D01*
X0013765Y0332185D02*
X0031745Y0332185D01*
X0031429Y0333365D02*
X0026198Y0333365D01*
X0026853Y0334545D02*
X0031245Y0334545D01*
X0031245Y0335724D02*
X0026853Y0335724D01*
X0026853Y0336904D02*
X0031269Y0336904D01*
X0031585Y0338083D02*
X0026853Y0338083D01*
X0026853Y0339263D02*
X0031901Y0339263D01*
X0032513Y0340443D02*
X0026853Y0340443D01*
X0026853Y0341622D02*
X0033194Y0341622D01*
X0034265Y0342802D02*
X0026853Y0342802D01*
X0026853Y0343981D02*
X0035554Y0343981D01*
X0047928Y0343981D02*
X0170629Y0343981D01*
X0170629Y0342802D02*
X0049217Y0342802D01*
X0050288Y0341622D02*
X0170629Y0341622D01*
X0170629Y0340443D02*
X0050969Y0340443D01*
X0051581Y0339263D02*
X0170629Y0339263D01*
X0170629Y0338083D02*
X0051897Y0338083D01*
X0052213Y0336904D02*
X0170629Y0336904D01*
X0170629Y0335724D02*
X0052237Y0335724D01*
X0052237Y0334545D02*
X0170629Y0334545D01*
X0171284Y0333365D02*
X0052053Y0333365D01*
X0051737Y0332185D02*
X0184371Y0332185D01*
X0184371Y0331006D02*
X0051304Y0331006D01*
X0050623Y0329826D02*
X0184371Y0329826D01*
X0184371Y0328647D02*
X0049797Y0328647D01*
X0048618Y0327467D02*
X0184371Y0327467D01*
X0184371Y0326287D02*
X0046891Y0326287D01*
X0043757Y0325108D02*
X0184371Y0325108D01*
X0184371Y0333365D02*
X0182198Y0333365D01*
X0182853Y0334545D02*
X0184371Y0334545D01*
X0184371Y0335724D02*
X0182853Y0335724D01*
X0182853Y0336904D02*
X0184371Y0336904D01*
X0184371Y0338083D02*
X0182853Y0338083D01*
X0182853Y0339263D02*
X0184371Y0339263D01*
X0184371Y0340443D02*
X0182853Y0340443D01*
X0182853Y0341622D02*
X0184371Y0341622D01*
X0184371Y0342802D02*
X0182853Y0342802D01*
X0182853Y0343981D02*
X0184371Y0343981D01*
X0184371Y0283821D02*
X0165197Y0283821D01*
X0166377Y0282642D02*
X0184371Y0282642D01*
X0184371Y0281462D02*
X0167380Y0281462D01*
X0168061Y0280282D02*
X0184371Y0280282D01*
X0184371Y0279103D02*
X0168624Y0279103D01*
X0168940Y0277923D02*
X0171526Y0277923D01*
X0171610Y0277946D02*
X0171206Y0277837D01*
X0170843Y0277628D01*
X0170547Y0277332D01*
X0170338Y0276969D01*
X0170229Y0276565D01*
X0170229Y0272024D01*
X0176150Y0272024D01*
X0176150Y0277946D01*
X0171610Y0277946D01*
X0170277Y0276744D02*
X0169237Y0276744D01*
X0169237Y0275564D02*
X0170229Y0275564D01*
X0170229Y0274384D02*
X0169237Y0274384D01*
X0169010Y0273205D02*
X0170229Y0273205D01*
X0170229Y0272025D02*
X0168694Y0272025D01*
X0168212Y0270845D02*
X0176150Y0270845D01*
X0176150Y0272025D02*
X0177331Y0272025D01*
X0177332Y0270845D02*
X0184371Y0270845D01*
X0184371Y0269666D02*
X0183253Y0269666D01*
X0183253Y0268486D02*
X0184371Y0268486D01*
X0184371Y0267307D02*
X0183253Y0267307D01*
X0183253Y0272025D02*
X0184371Y0272025D01*
X0184371Y0273205D02*
X0183253Y0273205D01*
X0183253Y0274384D02*
X0184371Y0274384D01*
X0184371Y0275564D02*
X0183253Y0275564D01*
X0183205Y0276744D02*
X0184371Y0276744D01*
X0184371Y0277923D02*
X0181956Y0277923D01*
X0177331Y0277923D02*
X0176150Y0277923D01*
X0176150Y0276744D02*
X0177331Y0276744D01*
X0177331Y0275564D02*
X0176150Y0275564D01*
X0176150Y0274384D02*
X0177331Y0274384D01*
X0177331Y0273205D02*
X0176150Y0273205D01*
X0170229Y0269666D02*
X0167531Y0269666D01*
X0167079Y0268486D02*
X0168198Y0268486D01*
X0168198Y0267307D02*
X0167079Y0267307D01*
X0167079Y0256690D02*
X0168198Y0256690D01*
X0168198Y0255510D02*
X0167079Y0255510D01*
X0152025Y0267307D02*
X0103481Y0267307D01*
X0015284Y0333365D02*
X0013765Y0333365D01*
X0013765Y0334545D02*
X0014629Y0334545D01*
X0014629Y0335724D02*
X0013765Y0335724D01*
X0013765Y0336904D02*
X0014629Y0336904D01*
X0014629Y0338083D02*
X0013765Y0338083D01*
X0013765Y0339263D02*
X0014629Y0339263D01*
X0014629Y0340443D02*
X0013765Y0340443D01*
X0013765Y0341622D02*
X0014629Y0341622D01*
X0014629Y0342802D02*
X0013765Y0342802D01*
X0013765Y0343981D02*
X0014629Y0343981D01*
X0182853Y0170578D02*
X0184371Y0170578D01*
X0184371Y0169399D02*
X0182853Y0169399D01*
X0182853Y0168219D02*
X0184371Y0168219D01*
X0184371Y0167039D02*
X0182853Y0167039D01*
X0182853Y0165860D02*
X0184371Y0165860D01*
X0184371Y0164680D02*
X0182853Y0164680D01*
X0182853Y0163501D02*
X0184371Y0163501D01*
X0184371Y0162321D02*
X0182853Y0162321D01*
X0201973Y0187093D02*
X0227678Y0187093D01*
X0227678Y0188272D02*
X0203153Y0188272D01*
X0204332Y0189452D02*
X0227678Y0189452D01*
X0227678Y0190632D02*
X0205512Y0190632D01*
X0206692Y0191811D02*
X0227678Y0191811D01*
D20*
X0224725Y0195198D03*
X0223741Y0201103D03*
X0218820Y0200119D03*
X0212914Y0196182D03*
X0203072Y0201103D03*
X0207009Y0210946D03*
X0205040Y0222757D03*
X0188308Y0221772D03*
X0187324Y0230631D03*
X0182402Y0235552D03*
X0184371Y0242442D03*
X0189292Y0241457D03*
X0199135Y0241457D03*
X0214883Y0237520D03*
X0220788Y0240473D03*
X0222757Y0232599D03*
X0187324Y0210946D03*
X0178465Y0203072D03*
X0189292Y0198150D03*
X0157796Y0183767D03*
X0138111Y0181986D03*
X0131221Y0186339D03*
X0125316Y0220788D03*
X0123347Y0225709D03*
X0125316Y0231615D03*
X0131221Y0235552D03*
X0113505Y0236416D03*
X0113505Y0232599D03*
X0107599Y0225709D03*
X0085946Y0220788D03*
X0070198Y0213898D03*
X0076103Y0205040D03*
X0057402Y0194213D03*
X0056418Y0211930D03*
X0058387Y0226694D03*
X0049528Y0247363D03*
X0043623Y0247363D03*
X0028859Y0238505D03*
X0016064Y0246379D03*
X0024922Y0215867D03*
X0038702Y0199135D03*
X0025906Y0183387D03*
X0018032Y0193229D03*
X0031812Y0142048D03*
X0082009Y0182402D03*
X0090867Y0182402D03*
X0084961Y0240473D03*
X0154646Y0234371D03*
X0167639Y0252284D03*
X0031812Y0314292D03*
X0167639Y0080040D03*
X0184371Y0070198D03*
X0189292Y0069213D03*
X0182402Y0063308D03*
X0187324Y0058387D03*
X0188308Y0049528D03*
X0187324Y0038702D03*
X0178465Y0030828D03*
X0189292Y0025906D03*
X0203072Y0028859D03*
X0207009Y0038702D03*
X0218820Y0027875D03*
X0223741Y0028859D03*
X0224725Y0022954D03*
X0212914Y0023938D03*
X0205040Y0050513D03*
X0214883Y0065276D03*
X0220788Y0068229D03*
X0222757Y0060355D03*
X0199135Y0069213D03*
X0154646Y0062127D03*
X0131221Y0063308D03*
X0125316Y0059371D03*
X0123347Y0053465D03*
X0125316Y0048544D03*
X0113505Y0060355D03*
X0113505Y0064172D03*
X0107599Y0053465D03*
X0085946Y0048544D03*
X0070198Y0041654D03*
X0076103Y0032796D03*
X0057402Y0021969D03*
X0056418Y0039686D03*
X0058387Y0054450D03*
X0049528Y0075119D03*
X0043623Y0075119D03*
X0028859Y0066261D03*
X0016064Y0074135D03*
X0024922Y0043623D03*
X0038702Y0026891D03*
X0025906Y0011143D03*
X0018032Y0020985D03*
X0082009Y0010158D03*
X0090867Y0010158D03*
X0131221Y0014095D03*
X0138111Y0009742D03*
X0157796Y0011523D03*
X0084961Y0068229D03*
D21*
X0092166Y0048544D02*
X0092166Y0045276D01*
X0096772Y0040670D01*
X0096772Y0016064D01*
X0100217Y0012619D01*
X0129745Y0012619D01*
X0131221Y0014095D01*
X0154646Y0062127D02*
X0155828Y0063308D01*
X0182402Y0063308D01*
X0129745Y0184863D02*
X0100217Y0184863D01*
X0096772Y0188308D01*
X0096772Y0212914D01*
X0092166Y0217520D01*
X0092166Y0220788D01*
X0129745Y0184863D02*
X0131221Y0186339D01*
X0154646Y0234371D02*
X0155828Y0235552D01*
X0182402Y0235552D01*
X0052166Y0230631D02*
X0043623Y0239174D01*
X0043623Y0241457D01*
X0049528Y0247363D01*
X0043623Y0247363D01*
X0043623Y0241457D01*
X0043623Y0247363D02*
X0043623Y0251206D01*
X0045591Y0253174D01*
X0049528Y0249237D01*
X0049528Y0247363D01*
X0037717Y0251300D02*
X0037717Y0257206D01*
X0039686Y0259174D01*
X0045591Y0259174D01*
X0045591Y0265174D02*
X0045591Y0300513D01*
X0031812Y0314292D01*
X0037717Y0251300D02*
X0032796Y0246379D01*
X0029765Y0246379D01*
X0031812Y0142048D02*
X0045591Y0128269D01*
X0045591Y0092930D01*
X0045591Y0086930D02*
X0039686Y0086930D01*
X0037717Y0084961D01*
X0037717Y0079056D01*
X0032796Y0074135D01*
X0029765Y0074135D01*
X0043623Y0075119D02*
X0043623Y0069213D01*
X0043623Y0066930D01*
X0052166Y0058387D01*
X0043623Y0069213D02*
X0049528Y0075119D01*
X0043623Y0075119D01*
X0043623Y0078961D01*
X0045591Y0080930D01*
X0049528Y0076993D01*
X0049528Y0075119D01*
D22*
X0027875Y0022796D02*
X0027875Y0020457D01*
X0037717Y0010615D01*
X0074749Y0010615D01*
X0086930Y0022796D01*
X0074749Y0182859D02*
X0037717Y0182859D01*
X0027875Y0192702D01*
X0027875Y0195040D01*
X0074749Y0182859D02*
X0086930Y0195040D01*
D23*
X0141952Y0246157D02*
X0137127Y0250982D01*
X0137127Y0251300D01*
X0141952Y0246475D01*
X0141952Y0246157D01*
X0153738Y0234371D01*
X0154646Y0234371D01*
X0137127Y0079056D02*
X0137127Y0078738D01*
X0141952Y0073912D01*
X0153738Y0062127D01*
X0154646Y0062127D01*
X0141952Y0073912D02*
X0141952Y0074231D01*
X0137127Y0079056D01*
M02*
