G75*
%MOIN*%
%OFA0B0*%
%FSLAX25Y25*%
%IPPOS*%
%LPD*%
%AMOC8*
5,1,8,0,0,1.08239X$1,22.5*
%
%ADD10C,0.00000*%
%ADD11C,0.00600*%
%ADD12C,0.00500*%
D10*
X0008190Y0005528D02*
X0008190Y0177772D01*
X0008190Y0350016D01*
X0265080Y0350016D01*
X0265080Y0177772D01*
X0265080Y0005528D01*
X0008190Y0005528D01*
X0011143Y0011433D02*
X0011145Y0011558D01*
X0011151Y0011683D01*
X0011161Y0011807D01*
X0011175Y0011931D01*
X0011192Y0012055D01*
X0011214Y0012178D01*
X0011240Y0012300D01*
X0011269Y0012422D01*
X0011302Y0012542D01*
X0011340Y0012661D01*
X0011380Y0012780D01*
X0011425Y0012896D01*
X0011473Y0013011D01*
X0011525Y0013125D01*
X0011581Y0013237D01*
X0011640Y0013347D01*
X0011702Y0013455D01*
X0011768Y0013562D01*
X0011837Y0013666D01*
X0011910Y0013767D01*
X0011985Y0013867D01*
X0012064Y0013964D01*
X0012146Y0014058D01*
X0012231Y0014150D01*
X0012318Y0014239D01*
X0012409Y0014325D01*
X0012502Y0014408D01*
X0012598Y0014489D01*
X0012696Y0014566D01*
X0012796Y0014640D01*
X0012899Y0014711D01*
X0013004Y0014778D01*
X0013112Y0014843D01*
X0013221Y0014903D01*
X0013332Y0014961D01*
X0013445Y0015014D01*
X0013559Y0015064D01*
X0013675Y0015111D01*
X0013792Y0015153D01*
X0013911Y0015192D01*
X0014031Y0015228D01*
X0014152Y0015259D01*
X0014274Y0015287D01*
X0014396Y0015310D01*
X0014520Y0015330D01*
X0014644Y0015346D01*
X0014768Y0015358D01*
X0014893Y0015366D01*
X0015018Y0015370D01*
X0015142Y0015370D01*
X0015267Y0015366D01*
X0015392Y0015358D01*
X0015516Y0015346D01*
X0015640Y0015330D01*
X0015764Y0015310D01*
X0015886Y0015287D01*
X0016008Y0015259D01*
X0016129Y0015228D01*
X0016249Y0015192D01*
X0016368Y0015153D01*
X0016485Y0015111D01*
X0016601Y0015064D01*
X0016715Y0015014D01*
X0016828Y0014961D01*
X0016939Y0014903D01*
X0017049Y0014843D01*
X0017156Y0014778D01*
X0017261Y0014711D01*
X0017364Y0014640D01*
X0017464Y0014566D01*
X0017562Y0014489D01*
X0017658Y0014408D01*
X0017751Y0014325D01*
X0017842Y0014239D01*
X0017929Y0014150D01*
X0018014Y0014058D01*
X0018096Y0013964D01*
X0018175Y0013867D01*
X0018250Y0013767D01*
X0018323Y0013666D01*
X0018392Y0013562D01*
X0018458Y0013455D01*
X0018520Y0013347D01*
X0018579Y0013237D01*
X0018635Y0013125D01*
X0018687Y0013011D01*
X0018735Y0012896D01*
X0018780Y0012780D01*
X0018820Y0012661D01*
X0018858Y0012542D01*
X0018891Y0012422D01*
X0018920Y0012300D01*
X0018946Y0012178D01*
X0018968Y0012055D01*
X0018985Y0011931D01*
X0018999Y0011807D01*
X0019009Y0011683D01*
X0019015Y0011558D01*
X0019017Y0011433D01*
X0019015Y0011308D01*
X0019009Y0011183D01*
X0018999Y0011059D01*
X0018985Y0010935D01*
X0018968Y0010811D01*
X0018946Y0010688D01*
X0018920Y0010566D01*
X0018891Y0010444D01*
X0018858Y0010324D01*
X0018820Y0010205D01*
X0018780Y0010086D01*
X0018735Y0009970D01*
X0018687Y0009855D01*
X0018635Y0009741D01*
X0018579Y0009629D01*
X0018520Y0009519D01*
X0018458Y0009411D01*
X0018392Y0009304D01*
X0018323Y0009200D01*
X0018250Y0009099D01*
X0018175Y0008999D01*
X0018096Y0008902D01*
X0018014Y0008808D01*
X0017929Y0008716D01*
X0017842Y0008627D01*
X0017751Y0008541D01*
X0017658Y0008458D01*
X0017562Y0008377D01*
X0017464Y0008300D01*
X0017364Y0008226D01*
X0017261Y0008155D01*
X0017156Y0008088D01*
X0017048Y0008023D01*
X0016939Y0007963D01*
X0016828Y0007905D01*
X0016715Y0007852D01*
X0016601Y0007802D01*
X0016485Y0007755D01*
X0016368Y0007713D01*
X0016249Y0007674D01*
X0016129Y0007638D01*
X0016008Y0007607D01*
X0015886Y0007579D01*
X0015764Y0007556D01*
X0015640Y0007536D01*
X0015516Y0007520D01*
X0015392Y0007508D01*
X0015267Y0007500D01*
X0015142Y0007496D01*
X0015018Y0007496D01*
X0014893Y0007500D01*
X0014768Y0007508D01*
X0014644Y0007520D01*
X0014520Y0007536D01*
X0014396Y0007556D01*
X0014274Y0007579D01*
X0014152Y0007607D01*
X0014031Y0007638D01*
X0013911Y0007674D01*
X0013792Y0007713D01*
X0013675Y0007755D01*
X0013559Y0007802D01*
X0013445Y0007852D01*
X0013332Y0007905D01*
X0013221Y0007963D01*
X0013111Y0008023D01*
X0013004Y0008088D01*
X0012899Y0008155D01*
X0012796Y0008226D01*
X0012696Y0008300D01*
X0012598Y0008377D01*
X0012502Y0008458D01*
X0012409Y0008541D01*
X0012318Y0008627D01*
X0012231Y0008716D01*
X0012146Y0008808D01*
X0012064Y0008902D01*
X0011985Y0008999D01*
X0011910Y0009099D01*
X0011837Y0009200D01*
X0011768Y0009304D01*
X0011702Y0009411D01*
X0011640Y0009519D01*
X0011581Y0009629D01*
X0011525Y0009741D01*
X0011473Y0009855D01*
X0011425Y0009970D01*
X0011380Y0010086D01*
X0011340Y0010205D01*
X0011302Y0010324D01*
X0011269Y0010444D01*
X0011240Y0010566D01*
X0011214Y0010688D01*
X0011192Y0010811D01*
X0011175Y0010935D01*
X0011161Y0011059D01*
X0011151Y0011183D01*
X0011145Y0011308D01*
X0011143Y0011433D01*
X0011143Y0085252D02*
X0011145Y0085377D01*
X0011151Y0085502D01*
X0011161Y0085626D01*
X0011175Y0085750D01*
X0011192Y0085874D01*
X0011214Y0085997D01*
X0011240Y0086119D01*
X0011269Y0086241D01*
X0011302Y0086361D01*
X0011340Y0086480D01*
X0011380Y0086599D01*
X0011425Y0086715D01*
X0011473Y0086830D01*
X0011525Y0086944D01*
X0011581Y0087056D01*
X0011640Y0087166D01*
X0011702Y0087274D01*
X0011768Y0087381D01*
X0011837Y0087485D01*
X0011910Y0087586D01*
X0011985Y0087686D01*
X0012064Y0087783D01*
X0012146Y0087877D01*
X0012231Y0087969D01*
X0012318Y0088058D01*
X0012409Y0088144D01*
X0012502Y0088227D01*
X0012598Y0088308D01*
X0012696Y0088385D01*
X0012796Y0088459D01*
X0012899Y0088530D01*
X0013004Y0088597D01*
X0013112Y0088662D01*
X0013221Y0088722D01*
X0013332Y0088780D01*
X0013445Y0088833D01*
X0013559Y0088883D01*
X0013675Y0088930D01*
X0013792Y0088972D01*
X0013911Y0089011D01*
X0014031Y0089047D01*
X0014152Y0089078D01*
X0014274Y0089106D01*
X0014396Y0089129D01*
X0014520Y0089149D01*
X0014644Y0089165D01*
X0014768Y0089177D01*
X0014893Y0089185D01*
X0015018Y0089189D01*
X0015142Y0089189D01*
X0015267Y0089185D01*
X0015392Y0089177D01*
X0015516Y0089165D01*
X0015640Y0089149D01*
X0015764Y0089129D01*
X0015886Y0089106D01*
X0016008Y0089078D01*
X0016129Y0089047D01*
X0016249Y0089011D01*
X0016368Y0088972D01*
X0016485Y0088930D01*
X0016601Y0088883D01*
X0016715Y0088833D01*
X0016828Y0088780D01*
X0016939Y0088722D01*
X0017049Y0088662D01*
X0017156Y0088597D01*
X0017261Y0088530D01*
X0017364Y0088459D01*
X0017464Y0088385D01*
X0017562Y0088308D01*
X0017658Y0088227D01*
X0017751Y0088144D01*
X0017842Y0088058D01*
X0017929Y0087969D01*
X0018014Y0087877D01*
X0018096Y0087783D01*
X0018175Y0087686D01*
X0018250Y0087586D01*
X0018323Y0087485D01*
X0018392Y0087381D01*
X0018458Y0087274D01*
X0018520Y0087166D01*
X0018579Y0087056D01*
X0018635Y0086944D01*
X0018687Y0086830D01*
X0018735Y0086715D01*
X0018780Y0086599D01*
X0018820Y0086480D01*
X0018858Y0086361D01*
X0018891Y0086241D01*
X0018920Y0086119D01*
X0018946Y0085997D01*
X0018968Y0085874D01*
X0018985Y0085750D01*
X0018999Y0085626D01*
X0019009Y0085502D01*
X0019015Y0085377D01*
X0019017Y0085252D01*
X0019015Y0085127D01*
X0019009Y0085002D01*
X0018999Y0084878D01*
X0018985Y0084754D01*
X0018968Y0084630D01*
X0018946Y0084507D01*
X0018920Y0084385D01*
X0018891Y0084263D01*
X0018858Y0084143D01*
X0018820Y0084024D01*
X0018780Y0083905D01*
X0018735Y0083789D01*
X0018687Y0083674D01*
X0018635Y0083560D01*
X0018579Y0083448D01*
X0018520Y0083338D01*
X0018458Y0083230D01*
X0018392Y0083123D01*
X0018323Y0083019D01*
X0018250Y0082918D01*
X0018175Y0082818D01*
X0018096Y0082721D01*
X0018014Y0082627D01*
X0017929Y0082535D01*
X0017842Y0082446D01*
X0017751Y0082360D01*
X0017658Y0082277D01*
X0017562Y0082196D01*
X0017464Y0082119D01*
X0017364Y0082045D01*
X0017261Y0081974D01*
X0017156Y0081907D01*
X0017048Y0081842D01*
X0016939Y0081782D01*
X0016828Y0081724D01*
X0016715Y0081671D01*
X0016601Y0081621D01*
X0016485Y0081574D01*
X0016368Y0081532D01*
X0016249Y0081493D01*
X0016129Y0081457D01*
X0016008Y0081426D01*
X0015886Y0081398D01*
X0015764Y0081375D01*
X0015640Y0081355D01*
X0015516Y0081339D01*
X0015392Y0081327D01*
X0015267Y0081319D01*
X0015142Y0081315D01*
X0015018Y0081315D01*
X0014893Y0081319D01*
X0014768Y0081327D01*
X0014644Y0081339D01*
X0014520Y0081355D01*
X0014396Y0081375D01*
X0014274Y0081398D01*
X0014152Y0081426D01*
X0014031Y0081457D01*
X0013911Y0081493D01*
X0013792Y0081532D01*
X0013675Y0081574D01*
X0013559Y0081621D01*
X0013445Y0081671D01*
X0013332Y0081724D01*
X0013221Y0081782D01*
X0013111Y0081842D01*
X0013004Y0081907D01*
X0012899Y0081974D01*
X0012796Y0082045D01*
X0012696Y0082119D01*
X0012598Y0082196D01*
X0012502Y0082277D01*
X0012409Y0082360D01*
X0012318Y0082446D01*
X0012231Y0082535D01*
X0012146Y0082627D01*
X0012064Y0082721D01*
X0011985Y0082818D01*
X0011910Y0082918D01*
X0011837Y0083019D01*
X0011768Y0083123D01*
X0011702Y0083230D01*
X0011640Y0083338D01*
X0011581Y0083448D01*
X0011525Y0083560D01*
X0011473Y0083674D01*
X0011425Y0083789D01*
X0011380Y0083905D01*
X0011340Y0084024D01*
X0011302Y0084143D01*
X0011269Y0084263D01*
X0011240Y0084385D01*
X0011214Y0084507D01*
X0011192Y0084630D01*
X0011175Y0084754D01*
X0011161Y0084878D01*
X0011151Y0085002D01*
X0011145Y0085127D01*
X0011143Y0085252D01*
X0034851Y0164465D02*
X0034853Y0164618D01*
X0034859Y0164772D01*
X0034869Y0164925D01*
X0034883Y0165077D01*
X0034901Y0165230D01*
X0034923Y0165381D01*
X0034948Y0165532D01*
X0034978Y0165683D01*
X0035012Y0165833D01*
X0035049Y0165981D01*
X0035090Y0166129D01*
X0035135Y0166275D01*
X0035184Y0166421D01*
X0035237Y0166565D01*
X0035293Y0166707D01*
X0035353Y0166848D01*
X0035417Y0166988D01*
X0035484Y0167126D01*
X0035555Y0167262D01*
X0035630Y0167396D01*
X0035707Y0167528D01*
X0035789Y0167658D01*
X0035873Y0167786D01*
X0035961Y0167912D01*
X0036052Y0168035D01*
X0036146Y0168156D01*
X0036244Y0168274D01*
X0036344Y0168390D01*
X0036448Y0168503D01*
X0036554Y0168614D01*
X0036663Y0168722D01*
X0036775Y0168827D01*
X0036889Y0168928D01*
X0037007Y0169027D01*
X0037126Y0169123D01*
X0037248Y0169216D01*
X0037373Y0169305D01*
X0037500Y0169392D01*
X0037629Y0169474D01*
X0037760Y0169554D01*
X0037893Y0169630D01*
X0038028Y0169703D01*
X0038165Y0169772D01*
X0038304Y0169837D01*
X0038444Y0169899D01*
X0038586Y0169957D01*
X0038729Y0170012D01*
X0038874Y0170063D01*
X0039020Y0170110D01*
X0039167Y0170153D01*
X0039315Y0170192D01*
X0039464Y0170228D01*
X0039614Y0170259D01*
X0039765Y0170287D01*
X0039916Y0170311D01*
X0040069Y0170331D01*
X0040221Y0170347D01*
X0040374Y0170359D01*
X0040527Y0170367D01*
X0040680Y0170371D01*
X0040834Y0170371D01*
X0040987Y0170367D01*
X0041140Y0170359D01*
X0041293Y0170347D01*
X0041445Y0170331D01*
X0041598Y0170311D01*
X0041749Y0170287D01*
X0041900Y0170259D01*
X0042050Y0170228D01*
X0042199Y0170192D01*
X0042347Y0170153D01*
X0042494Y0170110D01*
X0042640Y0170063D01*
X0042785Y0170012D01*
X0042928Y0169957D01*
X0043070Y0169899D01*
X0043210Y0169837D01*
X0043349Y0169772D01*
X0043486Y0169703D01*
X0043621Y0169630D01*
X0043754Y0169554D01*
X0043885Y0169474D01*
X0044014Y0169392D01*
X0044141Y0169305D01*
X0044266Y0169216D01*
X0044388Y0169123D01*
X0044507Y0169027D01*
X0044625Y0168928D01*
X0044739Y0168827D01*
X0044851Y0168722D01*
X0044960Y0168614D01*
X0045066Y0168503D01*
X0045170Y0168390D01*
X0045270Y0168274D01*
X0045368Y0168156D01*
X0045462Y0168035D01*
X0045553Y0167912D01*
X0045641Y0167786D01*
X0045725Y0167658D01*
X0045807Y0167528D01*
X0045884Y0167396D01*
X0045959Y0167262D01*
X0046030Y0167126D01*
X0046097Y0166988D01*
X0046161Y0166848D01*
X0046221Y0166707D01*
X0046277Y0166565D01*
X0046330Y0166421D01*
X0046379Y0166275D01*
X0046424Y0166129D01*
X0046465Y0165981D01*
X0046502Y0165833D01*
X0046536Y0165683D01*
X0046566Y0165532D01*
X0046591Y0165381D01*
X0046613Y0165230D01*
X0046631Y0165077D01*
X0046645Y0164925D01*
X0046655Y0164772D01*
X0046661Y0164618D01*
X0046663Y0164465D01*
X0046661Y0164312D01*
X0046655Y0164158D01*
X0046645Y0164005D01*
X0046631Y0163853D01*
X0046613Y0163700D01*
X0046591Y0163549D01*
X0046566Y0163398D01*
X0046536Y0163247D01*
X0046502Y0163097D01*
X0046465Y0162949D01*
X0046424Y0162801D01*
X0046379Y0162655D01*
X0046330Y0162509D01*
X0046277Y0162365D01*
X0046221Y0162223D01*
X0046161Y0162082D01*
X0046097Y0161942D01*
X0046030Y0161804D01*
X0045959Y0161668D01*
X0045884Y0161534D01*
X0045807Y0161402D01*
X0045725Y0161272D01*
X0045641Y0161144D01*
X0045553Y0161018D01*
X0045462Y0160895D01*
X0045368Y0160774D01*
X0045270Y0160656D01*
X0045170Y0160540D01*
X0045066Y0160427D01*
X0044960Y0160316D01*
X0044851Y0160208D01*
X0044739Y0160103D01*
X0044625Y0160002D01*
X0044507Y0159903D01*
X0044388Y0159807D01*
X0044266Y0159714D01*
X0044141Y0159625D01*
X0044014Y0159538D01*
X0043885Y0159456D01*
X0043754Y0159376D01*
X0043621Y0159300D01*
X0043486Y0159227D01*
X0043349Y0159158D01*
X0043210Y0159093D01*
X0043070Y0159031D01*
X0042928Y0158973D01*
X0042785Y0158918D01*
X0042640Y0158867D01*
X0042494Y0158820D01*
X0042347Y0158777D01*
X0042199Y0158738D01*
X0042050Y0158702D01*
X0041900Y0158671D01*
X0041749Y0158643D01*
X0041598Y0158619D01*
X0041445Y0158599D01*
X0041293Y0158583D01*
X0041140Y0158571D01*
X0040987Y0158563D01*
X0040834Y0158559D01*
X0040680Y0158559D01*
X0040527Y0158563D01*
X0040374Y0158571D01*
X0040221Y0158583D01*
X0040069Y0158599D01*
X0039916Y0158619D01*
X0039765Y0158643D01*
X0039614Y0158671D01*
X0039464Y0158702D01*
X0039315Y0158738D01*
X0039167Y0158777D01*
X0039020Y0158820D01*
X0038874Y0158867D01*
X0038729Y0158918D01*
X0038586Y0158973D01*
X0038444Y0159031D01*
X0038304Y0159093D01*
X0038165Y0159158D01*
X0038028Y0159227D01*
X0037893Y0159300D01*
X0037760Y0159376D01*
X0037629Y0159456D01*
X0037500Y0159538D01*
X0037373Y0159625D01*
X0037248Y0159714D01*
X0037126Y0159807D01*
X0037007Y0159903D01*
X0036889Y0160002D01*
X0036775Y0160103D01*
X0036663Y0160208D01*
X0036554Y0160316D01*
X0036448Y0160427D01*
X0036344Y0160540D01*
X0036244Y0160656D01*
X0036146Y0160774D01*
X0036052Y0160895D01*
X0035961Y0161018D01*
X0035873Y0161144D01*
X0035789Y0161272D01*
X0035707Y0161402D01*
X0035630Y0161534D01*
X0035555Y0161668D01*
X0035484Y0161804D01*
X0035417Y0161942D01*
X0035353Y0162082D01*
X0035293Y0162223D01*
X0035237Y0162365D01*
X0035184Y0162509D01*
X0035135Y0162655D01*
X0035090Y0162801D01*
X0035049Y0162949D01*
X0035012Y0163097D01*
X0034978Y0163247D01*
X0034948Y0163398D01*
X0034923Y0163549D01*
X0034901Y0163700D01*
X0034883Y0163853D01*
X0034869Y0164005D01*
X0034859Y0164158D01*
X0034853Y0164312D01*
X0034851Y0164465D01*
X0011143Y0183677D02*
X0011145Y0183802D01*
X0011151Y0183927D01*
X0011161Y0184051D01*
X0011175Y0184175D01*
X0011192Y0184299D01*
X0011214Y0184422D01*
X0011240Y0184544D01*
X0011269Y0184666D01*
X0011302Y0184786D01*
X0011340Y0184905D01*
X0011380Y0185024D01*
X0011425Y0185140D01*
X0011473Y0185255D01*
X0011525Y0185369D01*
X0011581Y0185481D01*
X0011640Y0185591D01*
X0011702Y0185699D01*
X0011768Y0185806D01*
X0011837Y0185910D01*
X0011910Y0186011D01*
X0011985Y0186111D01*
X0012064Y0186208D01*
X0012146Y0186302D01*
X0012231Y0186394D01*
X0012318Y0186483D01*
X0012409Y0186569D01*
X0012502Y0186652D01*
X0012598Y0186733D01*
X0012696Y0186810D01*
X0012796Y0186884D01*
X0012899Y0186955D01*
X0013004Y0187022D01*
X0013112Y0187087D01*
X0013221Y0187147D01*
X0013332Y0187205D01*
X0013445Y0187258D01*
X0013559Y0187308D01*
X0013675Y0187355D01*
X0013792Y0187397D01*
X0013911Y0187436D01*
X0014031Y0187472D01*
X0014152Y0187503D01*
X0014274Y0187531D01*
X0014396Y0187554D01*
X0014520Y0187574D01*
X0014644Y0187590D01*
X0014768Y0187602D01*
X0014893Y0187610D01*
X0015018Y0187614D01*
X0015142Y0187614D01*
X0015267Y0187610D01*
X0015392Y0187602D01*
X0015516Y0187590D01*
X0015640Y0187574D01*
X0015764Y0187554D01*
X0015886Y0187531D01*
X0016008Y0187503D01*
X0016129Y0187472D01*
X0016249Y0187436D01*
X0016368Y0187397D01*
X0016485Y0187355D01*
X0016601Y0187308D01*
X0016715Y0187258D01*
X0016828Y0187205D01*
X0016939Y0187147D01*
X0017049Y0187087D01*
X0017156Y0187022D01*
X0017261Y0186955D01*
X0017364Y0186884D01*
X0017464Y0186810D01*
X0017562Y0186733D01*
X0017658Y0186652D01*
X0017751Y0186569D01*
X0017842Y0186483D01*
X0017929Y0186394D01*
X0018014Y0186302D01*
X0018096Y0186208D01*
X0018175Y0186111D01*
X0018250Y0186011D01*
X0018323Y0185910D01*
X0018392Y0185806D01*
X0018458Y0185699D01*
X0018520Y0185591D01*
X0018579Y0185481D01*
X0018635Y0185369D01*
X0018687Y0185255D01*
X0018735Y0185140D01*
X0018780Y0185024D01*
X0018820Y0184905D01*
X0018858Y0184786D01*
X0018891Y0184666D01*
X0018920Y0184544D01*
X0018946Y0184422D01*
X0018968Y0184299D01*
X0018985Y0184175D01*
X0018999Y0184051D01*
X0019009Y0183927D01*
X0019015Y0183802D01*
X0019017Y0183677D01*
X0019015Y0183552D01*
X0019009Y0183427D01*
X0018999Y0183303D01*
X0018985Y0183179D01*
X0018968Y0183055D01*
X0018946Y0182932D01*
X0018920Y0182810D01*
X0018891Y0182688D01*
X0018858Y0182568D01*
X0018820Y0182449D01*
X0018780Y0182330D01*
X0018735Y0182214D01*
X0018687Y0182099D01*
X0018635Y0181985D01*
X0018579Y0181873D01*
X0018520Y0181763D01*
X0018458Y0181655D01*
X0018392Y0181548D01*
X0018323Y0181444D01*
X0018250Y0181343D01*
X0018175Y0181243D01*
X0018096Y0181146D01*
X0018014Y0181052D01*
X0017929Y0180960D01*
X0017842Y0180871D01*
X0017751Y0180785D01*
X0017658Y0180702D01*
X0017562Y0180621D01*
X0017464Y0180544D01*
X0017364Y0180470D01*
X0017261Y0180399D01*
X0017156Y0180332D01*
X0017048Y0180267D01*
X0016939Y0180207D01*
X0016828Y0180149D01*
X0016715Y0180096D01*
X0016601Y0180046D01*
X0016485Y0179999D01*
X0016368Y0179957D01*
X0016249Y0179918D01*
X0016129Y0179882D01*
X0016008Y0179851D01*
X0015886Y0179823D01*
X0015764Y0179800D01*
X0015640Y0179780D01*
X0015516Y0179764D01*
X0015392Y0179752D01*
X0015267Y0179744D01*
X0015142Y0179740D01*
X0015018Y0179740D01*
X0014893Y0179744D01*
X0014768Y0179752D01*
X0014644Y0179764D01*
X0014520Y0179780D01*
X0014396Y0179800D01*
X0014274Y0179823D01*
X0014152Y0179851D01*
X0014031Y0179882D01*
X0013911Y0179918D01*
X0013792Y0179957D01*
X0013675Y0179999D01*
X0013559Y0180046D01*
X0013445Y0180096D01*
X0013332Y0180149D01*
X0013221Y0180207D01*
X0013111Y0180267D01*
X0013004Y0180332D01*
X0012899Y0180399D01*
X0012796Y0180470D01*
X0012696Y0180544D01*
X0012598Y0180621D01*
X0012502Y0180702D01*
X0012409Y0180785D01*
X0012318Y0180871D01*
X0012231Y0180960D01*
X0012146Y0181052D01*
X0012064Y0181146D01*
X0011985Y0181243D01*
X0011910Y0181343D01*
X0011837Y0181444D01*
X0011768Y0181548D01*
X0011702Y0181655D01*
X0011640Y0181763D01*
X0011581Y0181873D01*
X0011525Y0181985D01*
X0011473Y0182099D01*
X0011425Y0182214D01*
X0011380Y0182330D01*
X0011340Y0182449D01*
X0011302Y0182568D01*
X0011269Y0182688D01*
X0011240Y0182810D01*
X0011214Y0182932D01*
X0011192Y0183055D01*
X0011175Y0183179D01*
X0011161Y0183303D01*
X0011151Y0183427D01*
X0011145Y0183552D01*
X0011143Y0183677D01*
X0011143Y0257496D02*
X0011145Y0257621D01*
X0011151Y0257746D01*
X0011161Y0257870D01*
X0011175Y0257994D01*
X0011192Y0258118D01*
X0011214Y0258241D01*
X0011240Y0258363D01*
X0011269Y0258485D01*
X0011302Y0258605D01*
X0011340Y0258724D01*
X0011380Y0258843D01*
X0011425Y0258959D01*
X0011473Y0259074D01*
X0011525Y0259188D01*
X0011581Y0259300D01*
X0011640Y0259410D01*
X0011702Y0259518D01*
X0011768Y0259625D01*
X0011837Y0259729D01*
X0011910Y0259830D01*
X0011985Y0259930D01*
X0012064Y0260027D01*
X0012146Y0260121D01*
X0012231Y0260213D01*
X0012318Y0260302D01*
X0012409Y0260388D01*
X0012502Y0260471D01*
X0012598Y0260552D01*
X0012696Y0260629D01*
X0012796Y0260703D01*
X0012899Y0260774D01*
X0013004Y0260841D01*
X0013112Y0260906D01*
X0013221Y0260966D01*
X0013332Y0261024D01*
X0013445Y0261077D01*
X0013559Y0261127D01*
X0013675Y0261174D01*
X0013792Y0261216D01*
X0013911Y0261255D01*
X0014031Y0261291D01*
X0014152Y0261322D01*
X0014274Y0261350D01*
X0014396Y0261373D01*
X0014520Y0261393D01*
X0014644Y0261409D01*
X0014768Y0261421D01*
X0014893Y0261429D01*
X0015018Y0261433D01*
X0015142Y0261433D01*
X0015267Y0261429D01*
X0015392Y0261421D01*
X0015516Y0261409D01*
X0015640Y0261393D01*
X0015764Y0261373D01*
X0015886Y0261350D01*
X0016008Y0261322D01*
X0016129Y0261291D01*
X0016249Y0261255D01*
X0016368Y0261216D01*
X0016485Y0261174D01*
X0016601Y0261127D01*
X0016715Y0261077D01*
X0016828Y0261024D01*
X0016939Y0260966D01*
X0017049Y0260906D01*
X0017156Y0260841D01*
X0017261Y0260774D01*
X0017364Y0260703D01*
X0017464Y0260629D01*
X0017562Y0260552D01*
X0017658Y0260471D01*
X0017751Y0260388D01*
X0017842Y0260302D01*
X0017929Y0260213D01*
X0018014Y0260121D01*
X0018096Y0260027D01*
X0018175Y0259930D01*
X0018250Y0259830D01*
X0018323Y0259729D01*
X0018392Y0259625D01*
X0018458Y0259518D01*
X0018520Y0259410D01*
X0018579Y0259300D01*
X0018635Y0259188D01*
X0018687Y0259074D01*
X0018735Y0258959D01*
X0018780Y0258843D01*
X0018820Y0258724D01*
X0018858Y0258605D01*
X0018891Y0258485D01*
X0018920Y0258363D01*
X0018946Y0258241D01*
X0018968Y0258118D01*
X0018985Y0257994D01*
X0018999Y0257870D01*
X0019009Y0257746D01*
X0019015Y0257621D01*
X0019017Y0257496D01*
X0019015Y0257371D01*
X0019009Y0257246D01*
X0018999Y0257122D01*
X0018985Y0256998D01*
X0018968Y0256874D01*
X0018946Y0256751D01*
X0018920Y0256629D01*
X0018891Y0256507D01*
X0018858Y0256387D01*
X0018820Y0256268D01*
X0018780Y0256149D01*
X0018735Y0256033D01*
X0018687Y0255918D01*
X0018635Y0255804D01*
X0018579Y0255692D01*
X0018520Y0255582D01*
X0018458Y0255474D01*
X0018392Y0255367D01*
X0018323Y0255263D01*
X0018250Y0255162D01*
X0018175Y0255062D01*
X0018096Y0254965D01*
X0018014Y0254871D01*
X0017929Y0254779D01*
X0017842Y0254690D01*
X0017751Y0254604D01*
X0017658Y0254521D01*
X0017562Y0254440D01*
X0017464Y0254363D01*
X0017364Y0254289D01*
X0017261Y0254218D01*
X0017156Y0254151D01*
X0017048Y0254086D01*
X0016939Y0254026D01*
X0016828Y0253968D01*
X0016715Y0253915D01*
X0016601Y0253865D01*
X0016485Y0253818D01*
X0016368Y0253776D01*
X0016249Y0253737D01*
X0016129Y0253701D01*
X0016008Y0253670D01*
X0015886Y0253642D01*
X0015764Y0253619D01*
X0015640Y0253599D01*
X0015516Y0253583D01*
X0015392Y0253571D01*
X0015267Y0253563D01*
X0015142Y0253559D01*
X0015018Y0253559D01*
X0014893Y0253563D01*
X0014768Y0253571D01*
X0014644Y0253583D01*
X0014520Y0253599D01*
X0014396Y0253619D01*
X0014274Y0253642D01*
X0014152Y0253670D01*
X0014031Y0253701D01*
X0013911Y0253737D01*
X0013792Y0253776D01*
X0013675Y0253818D01*
X0013559Y0253865D01*
X0013445Y0253915D01*
X0013332Y0253968D01*
X0013221Y0254026D01*
X0013111Y0254086D01*
X0013004Y0254151D01*
X0012899Y0254218D01*
X0012796Y0254289D01*
X0012696Y0254363D01*
X0012598Y0254440D01*
X0012502Y0254521D01*
X0012409Y0254604D01*
X0012318Y0254690D01*
X0012231Y0254779D01*
X0012146Y0254871D01*
X0012064Y0254965D01*
X0011985Y0255062D01*
X0011910Y0255162D01*
X0011837Y0255263D01*
X0011768Y0255367D01*
X0011702Y0255474D01*
X0011640Y0255582D01*
X0011581Y0255692D01*
X0011525Y0255804D01*
X0011473Y0255918D01*
X0011425Y0256033D01*
X0011380Y0256149D01*
X0011340Y0256268D01*
X0011302Y0256387D01*
X0011269Y0256507D01*
X0011240Y0256629D01*
X0011214Y0256751D01*
X0011192Y0256874D01*
X0011175Y0256998D01*
X0011161Y0257122D01*
X0011151Y0257246D01*
X0011145Y0257371D01*
X0011143Y0257496D01*
X0034851Y0336709D02*
X0034853Y0336862D01*
X0034859Y0337016D01*
X0034869Y0337169D01*
X0034883Y0337321D01*
X0034901Y0337474D01*
X0034923Y0337625D01*
X0034948Y0337776D01*
X0034978Y0337927D01*
X0035012Y0338077D01*
X0035049Y0338225D01*
X0035090Y0338373D01*
X0035135Y0338519D01*
X0035184Y0338665D01*
X0035237Y0338809D01*
X0035293Y0338951D01*
X0035353Y0339092D01*
X0035417Y0339232D01*
X0035484Y0339370D01*
X0035555Y0339506D01*
X0035630Y0339640D01*
X0035707Y0339772D01*
X0035789Y0339902D01*
X0035873Y0340030D01*
X0035961Y0340156D01*
X0036052Y0340279D01*
X0036146Y0340400D01*
X0036244Y0340518D01*
X0036344Y0340634D01*
X0036448Y0340747D01*
X0036554Y0340858D01*
X0036663Y0340966D01*
X0036775Y0341071D01*
X0036889Y0341172D01*
X0037007Y0341271D01*
X0037126Y0341367D01*
X0037248Y0341460D01*
X0037373Y0341549D01*
X0037500Y0341636D01*
X0037629Y0341718D01*
X0037760Y0341798D01*
X0037893Y0341874D01*
X0038028Y0341947D01*
X0038165Y0342016D01*
X0038304Y0342081D01*
X0038444Y0342143D01*
X0038586Y0342201D01*
X0038729Y0342256D01*
X0038874Y0342307D01*
X0039020Y0342354D01*
X0039167Y0342397D01*
X0039315Y0342436D01*
X0039464Y0342472D01*
X0039614Y0342503D01*
X0039765Y0342531D01*
X0039916Y0342555D01*
X0040069Y0342575D01*
X0040221Y0342591D01*
X0040374Y0342603D01*
X0040527Y0342611D01*
X0040680Y0342615D01*
X0040834Y0342615D01*
X0040987Y0342611D01*
X0041140Y0342603D01*
X0041293Y0342591D01*
X0041445Y0342575D01*
X0041598Y0342555D01*
X0041749Y0342531D01*
X0041900Y0342503D01*
X0042050Y0342472D01*
X0042199Y0342436D01*
X0042347Y0342397D01*
X0042494Y0342354D01*
X0042640Y0342307D01*
X0042785Y0342256D01*
X0042928Y0342201D01*
X0043070Y0342143D01*
X0043210Y0342081D01*
X0043349Y0342016D01*
X0043486Y0341947D01*
X0043621Y0341874D01*
X0043754Y0341798D01*
X0043885Y0341718D01*
X0044014Y0341636D01*
X0044141Y0341549D01*
X0044266Y0341460D01*
X0044388Y0341367D01*
X0044507Y0341271D01*
X0044625Y0341172D01*
X0044739Y0341071D01*
X0044851Y0340966D01*
X0044960Y0340858D01*
X0045066Y0340747D01*
X0045170Y0340634D01*
X0045270Y0340518D01*
X0045368Y0340400D01*
X0045462Y0340279D01*
X0045553Y0340156D01*
X0045641Y0340030D01*
X0045725Y0339902D01*
X0045807Y0339772D01*
X0045884Y0339640D01*
X0045959Y0339506D01*
X0046030Y0339370D01*
X0046097Y0339232D01*
X0046161Y0339092D01*
X0046221Y0338951D01*
X0046277Y0338809D01*
X0046330Y0338665D01*
X0046379Y0338519D01*
X0046424Y0338373D01*
X0046465Y0338225D01*
X0046502Y0338077D01*
X0046536Y0337927D01*
X0046566Y0337776D01*
X0046591Y0337625D01*
X0046613Y0337474D01*
X0046631Y0337321D01*
X0046645Y0337169D01*
X0046655Y0337016D01*
X0046661Y0336862D01*
X0046663Y0336709D01*
X0046661Y0336556D01*
X0046655Y0336402D01*
X0046645Y0336249D01*
X0046631Y0336097D01*
X0046613Y0335944D01*
X0046591Y0335793D01*
X0046566Y0335642D01*
X0046536Y0335491D01*
X0046502Y0335341D01*
X0046465Y0335193D01*
X0046424Y0335045D01*
X0046379Y0334899D01*
X0046330Y0334753D01*
X0046277Y0334609D01*
X0046221Y0334467D01*
X0046161Y0334326D01*
X0046097Y0334186D01*
X0046030Y0334048D01*
X0045959Y0333912D01*
X0045884Y0333778D01*
X0045807Y0333646D01*
X0045725Y0333516D01*
X0045641Y0333388D01*
X0045553Y0333262D01*
X0045462Y0333139D01*
X0045368Y0333018D01*
X0045270Y0332900D01*
X0045170Y0332784D01*
X0045066Y0332671D01*
X0044960Y0332560D01*
X0044851Y0332452D01*
X0044739Y0332347D01*
X0044625Y0332246D01*
X0044507Y0332147D01*
X0044388Y0332051D01*
X0044266Y0331958D01*
X0044141Y0331869D01*
X0044014Y0331782D01*
X0043885Y0331700D01*
X0043754Y0331620D01*
X0043621Y0331544D01*
X0043486Y0331471D01*
X0043349Y0331402D01*
X0043210Y0331337D01*
X0043070Y0331275D01*
X0042928Y0331217D01*
X0042785Y0331162D01*
X0042640Y0331111D01*
X0042494Y0331064D01*
X0042347Y0331021D01*
X0042199Y0330982D01*
X0042050Y0330946D01*
X0041900Y0330915D01*
X0041749Y0330887D01*
X0041598Y0330863D01*
X0041445Y0330843D01*
X0041293Y0330827D01*
X0041140Y0330815D01*
X0040987Y0330807D01*
X0040834Y0330803D01*
X0040680Y0330803D01*
X0040527Y0330807D01*
X0040374Y0330815D01*
X0040221Y0330827D01*
X0040069Y0330843D01*
X0039916Y0330863D01*
X0039765Y0330887D01*
X0039614Y0330915D01*
X0039464Y0330946D01*
X0039315Y0330982D01*
X0039167Y0331021D01*
X0039020Y0331064D01*
X0038874Y0331111D01*
X0038729Y0331162D01*
X0038586Y0331217D01*
X0038444Y0331275D01*
X0038304Y0331337D01*
X0038165Y0331402D01*
X0038028Y0331471D01*
X0037893Y0331544D01*
X0037760Y0331620D01*
X0037629Y0331700D01*
X0037500Y0331782D01*
X0037373Y0331869D01*
X0037248Y0331958D01*
X0037126Y0332051D01*
X0037007Y0332147D01*
X0036889Y0332246D01*
X0036775Y0332347D01*
X0036663Y0332452D01*
X0036554Y0332560D01*
X0036448Y0332671D01*
X0036344Y0332784D01*
X0036244Y0332900D01*
X0036146Y0333018D01*
X0036052Y0333139D01*
X0035961Y0333262D01*
X0035873Y0333388D01*
X0035789Y0333516D01*
X0035707Y0333646D01*
X0035630Y0333778D01*
X0035555Y0333912D01*
X0035484Y0334048D01*
X0035417Y0334186D01*
X0035353Y0334326D01*
X0035293Y0334467D01*
X0035237Y0334609D01*
X0035184Y0334753D01*
X0035135Y0334899D01*
X0035090Y0335045D01*
X0035049Y0335193D01*
X0035012Y0335341D01*
X0034978Y0335491D01*
X0034948Y0335642D01*
X0034923Y0335793D01*
X0034901Y0335944D01*
X0034883Y0336097D01*
X0034869Y0336249D01*
X0034859Y0336402D01*
X0034853Y0336556D01*
X0034851Y0336709D01*
X0151851Y0276709D02*
X0151853Y0276862D01*
X0151859Y0277016D01*
X0151869Y0277169D01*
X0151883Y0277321D01*
X0151901Y0277474D01*
X0151923Y0277625D01*
X0151948Y0277776D01*
X0151978Y0277927D01*
X0152012Y0278077D01*
X0152049Y0278225D01*
X0152090Y0278373D01*
X0152135Y0278519D01*
X0152184Y0278665D01*
X0152237Y0278809D01*
X0152293Y0278951D01*
X0152353Y0279092D01*
X0152417Y0279232D01*
X0152484Y0279370D01*
X0152555Y0279506D01*
X0152630Y0279640D01*
X0152707Y0279772D01*
X0152789Y0279902D01*
X0152873Y0280030D01*
X0152961Y0280156D01*
X0153052Y0280279D01*
X0153146Y0280400D01*
X0153244Y0280518D01*
X0153344Y0280634D01*
X0153448Y0280747D01*
X0153554Y0280858D01*
X0153663Y0280966D01*
X0153775Y0281071D01*
X0153889Y0281172D01*
X0154007Y0281271D01*
X0154126Y0281367D01*
X0154248Y0281460D01*
X0154373Y0281549D01*
X0154500Y0281636D01*
X0154629Y0281718D01*
X0154760Y0281798D01*
X0154893Y0281874D01*
X0155028Y0281947D01*
X0155165Y0282016D01*
X0155304Y0282081D01*
X0155444Y0282143D01*
X0155586Y0282201D01*
X0155729Y0282256D01*
X0155874Y0282307D01*
X0156020Y0282354D01*
X0156167Y0282397D01*
X0156315Y0282436D01*
X0156464Y0282472D01*
X0156614Y0282503D01*
X0156765Y0282531D01*
X0156916Y0282555D01*
X0157069Y0282575D01*
X0157221Y0282591D01*
X0157374Y0282603D01*
X0157527Y0282611D01*
X0157680Y0282615D01*
X0157834Y0282615D01*
X0157987Y0282611D01*
X0158140Y0282603D01*
X0158293Y0282591D01*
X0158445Y0282575D01*
X0158598Y0282555D01*
X0158749Y0282531D01*
X0158900Y0282503D01*
X0159050Y0282472D01*
X0159199Y0282436D01*
X0159347Y0282397D01*
X0159494Y0282354D01*
X0159640Y0282307D01*
X0159785Y0282256D01*
X0159928Y0282201D01*
X0160070Y0282143D01*
X0160210Y0282081D01*
X0160349Y0282016D01*
X0160486Y0281947D01*
X0160621Y0281874D01*
X0160754Y0281798D01*
X0160885Y0281718D01*
X0161014Y0281636D01*
X0161141Y0281549D01*
X0161266Y0281460D01*
X0161388Y0281367D01*
X0161507Y0281271D01*
X0161625Y0281172D01*
X0161739Y0281071D01*
X0161851Y0280966D01*
X0161960Y0280858D01*
X0162066Y0280747D01*
X0162170Y0280634D01*
X0162270Y0280518D01*
X0162368Y0280400D01*
X0162462Y0280279D01*
X0162553Y0280156D01*
X0162641Y0280030D01*
X0162725Y0279902D01*
X0162807Y0279772D01*
X0162884Y0279640D01*
X0162959Y0279506D01*
X0163030Y0279370D01*
X0163097Y0279232D01*
X0163161Y0279092D01*
X0163221Y0278951D01*
X0163277Y0278809D01*
X0163330Y0278665D01*
X0163379Y0278519D01*
X0163424Y0278373D01*
X0163465Y0278225D01*
X0163502Y0278077D01*
X0163536Y0277927D01*
X0163566Y0277776D01*
X0163591Y0277625D01*
X0163613Y0277474D01*
X0163631Y0277321D01*
X0163645Y0277169D01*
X0163655Y0277016D01*
X0163661Y0276862D01*
X0163663Y0276709D01*
X0163661Y0276556D01*
X0163655Y0276402D01*
X0163645Y0276249D01*
X0163631Y0276097D01*
X0163613Y0275944D01*
X0163591Y0275793D01*
X0163566Y0275642D01*
X0163536Y0275491D01*
X0163502Y0275341D01*
X0163465Y0275193D01*
X0163424Y0275045D01*
X0163379Y0274899D01*
X0163330Y0274753D01*
X0163277Y0274609D01*
X0163221Y0274467D01*
X0163161Y0274326D01*
X0163097Y0274186D01*
X0163030Y0274048D01*
X0162959Y0273912D01*
X0162884Y0273778D01*
X0162807Y0273646D01*
X0162725Y0273516D01*
X0162641Y0273388D01*
X0162553Y0273262D01*
X0162462Y0273139D01*
X0162368Y0273018D01*
X0162270Y0272900D01*
X0162170Y0272784D01*
X0162066Y0272671D01*
X0161960Y0272560D01*
X0161851Y0272452D01*
X0161739Y0272347D01*
X0161625Y0272246D01*
X0161507Y0272147D01*
X0161388Y0272051D01*
X0161266Y0271958D01*
X0161141Y0271869D01*
X0161014Y0271782D01*
X0160885Y0271700D01*
X0160754Y0271620D01*
X0160621Y0271544D01*
X0160486Y0271471D01*
X0160349Y0271402D01*
X0160210Y0271337D01*
X0160070Y0271275D01*
X0159928Y0271217D01*
X0159785Y0271162D01*
X0159640Y0271111D01*
X0159494Y0271064D01*
X0159347Y0271021D01*
X0159199Y0270982D01*
X0159050Y0270946D01*
X0158900Y0270915D01*
X0158749Y0270887D01*
X0158598Y0270863D01*
X0158445Y0270843D01*
X0158293Y0270827D01*
X0158140Y0270815D01*
X0157987Y0270807D01*
X0157834Y0270803D01*
X0157680Y0270803D01*
X0157527Y0270807D01*
X0157374Y0270815D01*
X0157221Y0270827D01*
X0157069Y0270843D01*
X0156916Y0270863D01*
X0156765Y0270887D01*
X0156614Y0270915D01*
X0156464Y0270946D01*
X0156315Y0270982D01*
X0156167Y0271021D01*
X0156020Y0271064D01*
X0155874Y0271111D01*
X0155729Y0271162D01*
X0155586Y0271217D01*
X0155444Y0271275D01*
X0155304Y0271337D01*
X0155165Y0271402D01*
X0155028Y0271471D01*
X0154893Y0271544D01*
X0154760Y0271620D01*
X0154629Y0271700D01*
X0154500Y0271782D01*
X0154373Y0271869D01*
X0154248Y0271958D01*
X0154126Y0272051D01*
X0154007Y0272147D01*
X0153889Y0272246D01*
X0153775Y0272347D01*
X0153663Y0272452D01*
X0153554Y0272560D01*
X0153448Y0272671D01*
X0153344Y0272784D01*
X0153244Y0272900D01*
X0153146Y0273018D01*
X0153052Y0273139D01*
X0152961Y0273262D01*
X0152873Y0273388D01*
X0152789Y0273516D01*
X0152707Y0273646D01*
X0152630Y0273778D01*
X0152555Y0273912D01*
X0152484Y0274048D01*
X0152417Y0274186D01*
X0152353Y0274326D01*
X0152293Y0274467D01*
X0152237Y0274609D01*
X0152184Y0274753D01*
X0152135Y0274899D01*
X0152090Y0275045D01*
X0152049Y0275193D01*
X0152012Y0275341D01*
X0151978Y0275491D01*
X0151948Y0275642D01*
X0151923Y0275793D01*
X0151901Y0275944D01*
X0151883Y0276097D01*
X0151869Y0276249D01*
X0151859Y0276402D01*
X0151853Y0276556D01*
X0151851Y0276709D01*
X0253269Y0257496D02*
X0253271Y0257621D01*
X0253277Y0257746D01*
X0253287Y0257870D01*
X0253301Y0257994D01*
X0253318Y0258118D01*
X0253340Y0258241D01*
X0253366Y0258363D01*
X0253395Y0258485D01*
X0253428Y0258605D01*
X0253466Y0258724D01*
X0253506Y0258843D01*
X0253551Y0258959D01*
X0253599Y0259074D01*
X0253651Y0259188D01*
X0253707Y0259300D01*
X0253766Y0259410D01*
X0253828Y0259518D01*
X0253894Y0259625D01*
X0253963Y0259729D01*
X0254036Y0259830D01*
X0254111Y0259930D01*
X0254190Y0260027D01*
X0254272Y0260121D01*
X0254357Y0260213D01*
X0254444Y0260302D01*
X0254535Y0260388D01*
X0254628Y0260471D01*
X0254724Y0260552D01*
X0254822Y0260629D01*
X0254922Y0260703D01*
X0255025Y0260774D01*
X0255130Y0260841D01*
X0255238Y0260906D01*
X0255347Y0260966D01*
X0255458Y0261024D01*
X0255571Y0261077D01*
X0255685Y0261127D01*
X0255801Y0261174D01*
X0255918Y0261216D01*
X0256037Y0261255D01*
X0256157Y0261291D01*
X0256278Y0261322D01*
X0256400Y0261350D01*
X0256522Y0261373D01*
X0256646Y0261393D01*
X0256770Y0261409D01*
X0256894Y0261421D01*
X0257019Y0261429D01*
X0257144Y0261433D01*
X0257268Y0261433D01*
X0257393Y0261429D01*
X0257518Y0261421D01*
X0257642Y0261409D01*
X0257766Y0261393D01*
X0257890Y0261373D01*
X0258012Y0261350D01*
X0258134Y0261322D01*
X0258255Y0261291D01*
X0258375Y0261255D01*
X0258494Y0261216D01*
X0258611Y0261174D01*
X0258727Y0261127D01*
X0258841Y0261077D01*
X0258954Y0261024D01*
X0259065Y0260966D01*
X0259175Y0260906D01*
X0259282Y0260841D01*
X0259387Y0260774D01*
X0259490Y0260703D01*
X0259590Y0260629D01*
X0259688Y0260552D01*
X0259784Y0260471D01*
X0259877Y0260388D01*
X0259968Y0260302D01*
X0260055Y0260213D01*
X0260140Y0260121D01*
X0260222Y0260027D01*
X0260301Y0259930D01*
X0260376Y0259830D01*
X0260449Y0259729D01*
X0260518Y0259625D01*
X0260584Y0259518D01*
X0260646Y0259410D01*
X0260705Y0259300D01*
X0260761Y0259188D01*
X0260813Y0259074D01*
X0260861Y0258959D01*
X0260906Y0258843D01*
X0260946Y0258724D01*
X0260984Y0258605D01*
X0261017Y0258485D01*
X0261046Y0258363D01*
X0261072Y0258241D01*
X0261094Y0258118D01*
X0261111Y0257994D01*
X0261125Y0257870D01*
X0261135Y0257746D01*
X0261141Y0257621D01*
X0261143Y0257496D01*
X0261141Y0257371D01*
X0261135Y0257246D01*
X0261125Y0257122D01*
X0261111Y0256998D01*
X0261094Y0256874D01*
X0261072Y0256751D01*
X0261046Y0256629D01*
X0261017Y0256507D01*
X0260984Y0256387D01*
X0260946Y0256268D01*
X0260906Y0256149D01*
X0260861Y0256033D01*
X0260813Y0255918D01*
X0260761Y0255804D01*
X0260705Y0255692D01*
X0260646Y0255582D01*
X0260584Y0255474D01*
X0260518Y0255367D01*
X0260449Y0255263D01*
X0260376Y0255162D01*
X0260301Y0255062D01*
X0260222Y0254965D01*
X0260140Y0254871D01*
X0260055Y0254779D01*
X0259968Y0254690D01*
X0259877Y0254604D01*
X0259784Y0254521D01*
X0259688Y0254440D01*
X0259590Y0254363D01*
X0259490Y0254289D01*
X0259387Y0254218D01*
X0259282Y0254151D01*
X0259174Y0254086D01*
X0259065Y0254026D01*
X0258954Y0253968D01*
X0258841Y0253915D01*
X0258727Y0253865D01*
X0258611Y0253818D01*
X0258494Y0253776D01*
X0258375Y0253737D01*
X0258255Y0253701D01*
X0258134Y0253670D01*
X0258012Y0253642D01*
X0257890Y0253619D01*
X0257766Y0253599D01*
X0257642Y0253583D01*
X0257518Y0253571D01*
X0257393Y0253563D01*
X0257268Y0253559D01*
X0257144Y0253559D01*
X0257019Y0253563D01*
X0256894Y0253571D01*
X0256770Y0253583D01*
X0256646Y0253599D01*
X0256522Y0253619D01*
X0256400Y0253642D01*
X0256278Y0253670D01*
X0256157Y0253701D01*
X0256037Y0253737D01*
X0255918Y0253776D01*
X0255801Y0253818D01*
X0255685Y0253865D01*
X0255571Y0253915D01*
X0255458Y0253968D01*
X0255347Y0254026D01*
X0255237Y0254086D01*
X0255130Y0254151D01*
X0255025Y0254218D01*
X0254922Y0254289D01*
X0254822Y0254363D01*
X0254724Y0254440D01*
X0254628Y0254521D01*
X0254535Y0254604D01*
X0254444Y0254690D01*
X0254357Y0254779D01*
X0254272Y0254871D01*
X0254190Y0254965D01*
X0254111Y0255062D01*
X0254036Y0255162D01*
X0253963Y0255263D01*
X0253894Y0255367D01*
X0253828Y0255474D01*
X0253766Y0255582D01*
X0253707Y0255692D01*
X0253651Y0255804D01*
X0253599Y0255918D01*
X0253551Y0256033D01*
X0253506Y0256149D01*
X0253466Y0256268D01*
X0253428Y0256387D01*
X0253395Y0256507D01*
X0253366Y0256629D01*
X0253340Y0256751D01*
X0253318Y0256874D01*
X0253301Y0256998D01*
X0253287Y0257122D01*
X0253277Y0257246D01*
X0253271Y0257371D01*
X0253269Y0257496D01*
X0253269Y0183677D02*
X0253271Y0183802D01*
X0253277Y0183927D01*
X0253287Y0184051D01*
X0253301Y0184175D01*
X0253318Y0184299D01*
X0253340Y0184422D01*
X0253366Y0184544D01*
X0253395Y0184666D01*
X0253428Y0184786D01*
X0253466Y0184905D01*
X0253506Y0185024D01*
X0253551Y0185140D01*
X0253599Y0185255D01*
X0253651Y0185369D01*
X0253707Y0185481D01*
X0253766Y0185591D01*
X0253828Y0185699D01*
X0253894Y0185806D01*
X0253963Y0185910D01*
X0254036Y0186011D01*
X0254111Y0186111D01*
X0254190Y0186208D01*
X0254272Y0186302D01*
X0254357Y0186394D01*
X0254444Y0186483D01*
X0254535Y0186569D01*
X0254628Y0186652D01*
X0254724Y0186733D01*
X0254822Y0186810D01*
X0254922Y0186884D01*
X0255025Y0186955D01*
X0255130Y0187022D01*
X0255238Y0187087D01*
X0255347Y0187147D01*
X0255458Y0187205D01*
X0255571Y0187258D01*
X0255685Y0187308D01*
X0255801Y0187355D01*
X0255918Y0187397D01*
X0256037Y0187436D01*
X0256157Y0187472D01*
X0256278Y0187503D01*
X0256400Y0187531D01*
X0256522Y0187554D01*
X0256646Y0187574D01*
X0256770Y0187590D01*
X0256894Y0187602D01*
X0257019Y0187610D01*
X0257144Y0187614D01*
X0257268Y0187614D01*
X0257393Y0187610D01*
X0257518Y0187602D01*
X0257642Y0187590D01*
X0257766Y0187574D01*
X0257890Y0187554D01*
X0258012Y0187531D01*
X0258134Y0187503D01*
X0258255Y0187472D01*
X0258375Y0187436D01*
X0258494Y0187397D01*
X0258611Y0187355D01*
X0258727Y0187308D01*
X0258841Y0187258D01*
X0258954Y0187205D01*
X0259065Y0187147D01*
X0259175Y0187087D01*
X0259282Y0187022D01*
X0259387Y0186955D01*
X0259490Y0186884D01*
X0259590Y0186810D01*
X0259688Y0186733D01*
X0259784Y0186652D01*
X0259877Y0186569D01*
X0259968Y0186483D01*
X0260055Y0186394D01*
X0260140Y0186302D01*
X0260222Y0186208D01*
X0260301Y0186111D01*
X0260376Y0186011D01*
X0260449Y0185910D01*
X0260518Y0185806D01*
X0260584Y0185699D01*
X0260646Y0185591D01*
X0260705Y0185481D01*
X0260761Y0185369D01*
X0260813Y0185255D01*
X0260861Y0185140D01*
X0260906Y0185024D01*
X0260946Y0184905D01*
X0260984Y0184786D01*
X0261017Y0184666D01*
X0261046Y0184544D01*
X0261072Y0184422D01*
X0261094Y0184299D01*
X0261111Y0184175D01*
X0261125Y0184051D01*
X0261135Y0183927D01*
X0261141Y0183802D01*
X0261143Y0183677D01*
X0261141Y0183552D01*
X0261135Y0183427D01*
X0261125Y0183303D01*
X0261111Y0183179D01*
X0261094Y0183055D01*
X0261072Y0182932D01*
X0261046Y0182810D01*
X0261017Y0182688D01*
X0260984Y0182568D01*
X0260946Y0182449D01*
X0260906Y0182330D01*
X0260861Y0182214D01*
X0260813Y0182099D01*
X0260761Y0181985D01*
X0260705Y0181873D01*
X0260646Y0181763D01*
X0260584Y0181655D01*
X0260518Y0181548D01*
X0260449Y0181444D01*
X0260376Y0181343D01*
X0260301Y0181243D01*
X0260222Y0181146D01*
X0260140Y0181052D01*
X0260055Y0180960D01*
X0259968Y0180871D01*
X0259877Y0180785D01*
X0259784Y0180702D01*
X0259688Y0180621D01*
X0259590Y0180544D01*
X0259490Y0180470D01*
X0259387Y0180399D01*
X0259282Y0180332D01*
X0259174Y0180267D01*
X0259065Y0180207D01*
X0258954Y0180149D01*
X0258841Y0180096D01*
X0258727Y0180046D01*
X0258611Y0179999D01*
X0258494Y0179957D01*
X0258375Y0179918D01*
X0258255Y0179882D01*
X0258134Y0179851D01*
X0258012Y0179823D01*
X0257890Y0179800D01*
X0257766Y0179780D01*
X0257642Y0179764D01*
X0257518Y0179752D01*
X0257393Y0179744D01*
X0257268Y0179740D01*
X0257144Y0179740D01*
X0257019Y0179744D01*
X0256894Y0179752D01*
X0256770Y0179764D01*
X0256646Y0179780D01*
X0256522Y0179800D01*
X0256400Y0179823D01*
X0256278Y0179851D01*
X0256157Y0179882D01*
X0256037Y0179918D01*
X0255918Y0179957D01*
X0255801Y0179999D01*
X0255685Y0180046D01*
X0255571Y0180096D01*
X0255458Y0180149D01*
X0255347Y0180207D01*
X0255237Y0180267D01*
X0255130Y0180332D01*
X0255025Y0180399D01*
X0254922Y0180470D01*
X0254822Y0180544D01*
X0254724Y0180621D01*
X0254628Y0180702D01*
X0254535Y0180785D01*
X0254444Y0180871D01*
X0254357Y0180960D01*
X0254272Y0181052D01*
X0254190Y0181146D01*
X0254111Y0181243D01*
X0254036Y0181343D01*
X0253963Y0181444D01*
X0253894Y0181548D01*
X0253828Y0181655D01*
X0253766Y0181763D01*
X0253707Y0181873D01*
X0253651Y0181985D01*
X0253599Y0182099D01*
X0253551Y0182214D01*
X0253506Y0182330D01*
X0253466Y0182449D01*
X0253428Y0182568D01*
X0253395Y0182688D01*
X0253366Y0182810D01*
X0253340Y0182932D01*
X0253318Y0183055D01*
X0253301Y0183179D01*
X0253287Y0183303D01*
X0253277Y0183427D01*
X0253271Y0183552D01*
X0253269Y0183677D01*
X0253269Y0085252D02*
X0253271Y0085377D01*
X0253277Y0085502D01*
X0253287Y0085626D01*
X0253301Y0085750D01*
X0253318Y0085874D01*
X0253340Y0085997D01*
X0253366Y0086119D01*
X0253395Y0086241D01*
X0253428Y0086361D01*
X0253466Y0086480D01*
X0253506Y0086599D01*
X0253551Y0086715D01*
X0253599Y0086830D01*
X0253651Y0086944D01*
X0253707Y0087056D01*
X0253766Y0087166D01*
X0253828Y0087274D01*
X0253894Y0087381D01*
X0253963Y0087485D01*
X0254036Y0087586D01*
X0254111Y0087686D01*
X0254190Y0087783D01*
X0254272Y0087877D01*
X0254357Y0087969D01*
X0254444Y0088058D01*
X0254535Y0088144D01*
X0254628Y0088227D01*
X0254724Y0088308D01*
X0254822Y0088385D01*
X0254922Y0088459D01*
X0255025Y0088530D01*
X0255130Y0088597D01*
X0255238Y0088662D01*
X0255347Y0088722D01*
X0255458Y0088780D01*
X0255571Y0088833D01*
X0255685Y0088883D01*
X0255801Y0088930D01*
X0255918Y0088972D01*
X0256037Y0089011D01*
X0256157Y0089047D01*
X0256278Y0089078D01*
X0256400Y0089106D01*
X0256522Y0089129D01*
X0256646Y0089149D01*
X0256770Y0089165D01*
X0256894Y0089177D01*
X0257019Y0089185D01*
X0257144Y0089189D01*
X0257268Y0089189D01*
X0257393Y0089185D01*
X0257518Y0089177D01*
X0257642Y0089165D01*
X0257766Y0089149D01*
X0257890Y0089129D01*
X0258012Y0089106D01*
X0258134Y0089078D01*
X0258255Y0089047D01*
X0258375Y0089011D01*
X0258494Y0088972D01*
X0258611Y0088930D01*
X0258727Y0088883D01*
X0258841Y0088833D01*
X0258954Y0088780D01*
X0259065Y0088722D01*
X0259175Y0088662D01*
X0259282Y0088597D01*
X0259387Y0088530D01*
X0259490Y0088459D01*
X0259590Y0088385D01*
X0259688Y0088308D01*
X0259784Y0088227D01*
X0259877Y0088144D01*
X0259968Y0088058D01*
X0260055Y0087969D01*
X0260140Y0087877D01*
X0260222Y0087783D01*
X0260301Y0087686D01*
X0260376Y0087586D01*
X0260449Y0087485D01*
X0260518Y0087381D01*
X0260584Y0087274D01*
X0260646Y0087166D01*
X0260705Y0087056D01*
X0260761Y0086944D01*
X0260813Y0086830D01*
X0260861Y0086715D01*
X0260906Y0086599D01*
X0260946Y0086480D01*
X0260984Y0086361D01*
X0261017Y0086241D01*
X0261046Y0086119D01*
X0261072Y0085997D01*
X0261094Y0085874D01*
X0261111Y0085750D01*
X0261125Y0085626D01*
X0261135Y0085502D01*
X0261141Y0085377D01*
X0261143Y0085252D01*
X0261141Y0085127D01*
X0261135Y0085002D01*
X0261125Y0084878D01*
X0261111Y0084754D01*
X0261094Y0084630D01*
X0261072Y0084507D01*
X0261046Y0084385D01*
X0261017Y0084263D01*
X0260984Y0084143D01*
X0260946Y0084024D01*
X0260906Y0083905D01*
X0260861Y0083789D01*
X0260813Y0083674D01*
X0260761Y0083560D01*
X0260705Y0083448D01*
X0260646Y0083338D01*
X0260584Y0083230D01*
X0260518Y0083123D01*
X0260449Y0083019D01*
X0260376Y0082918D01*
X0260301Y0082818D01*
X0260222Y0082721D01*
X0260140Y0082627D01*
X0260055Y0082535D01*
X0259968Y0082446D01*
X0259877Y0082360D01*
X0259784Y0082277D01*
X0259688Y0082196D01*
X0259590Y0082119D01*
X0259490Y0082045D01*
X0259387Y0081974D01*
X0259282Y0081907D01*
X0259174Y0081842D01*
X0259065Y0081782D01*
X0258954Y0081724D01*
X0258841Y0081671D01*
X0258727Y0081621D01*
X0258611Y0081574D01*
X0258494Y0081532D01*
X0258375Y0081493D01*
X0258255Y0081457D01*
X0258134Y0081426D01*
X0258012Y0081398D01*
X0257890Y0081375D01*
X0257766Y0081355D01*
X0257642Y0081339D01*
X0257518Y0081327D01*
X0257393Y0081319D01*
X0257268Y0081315D01*
X0257144Y0081315D01*
X0257019Y0081319D01*
X0256894Y0081327D01*
X0256770Y0081339D01*
X0256646Y0081355D01*
X0256522Y0081375D01*
X0256400Y0081398D01*
X0256278Y0081426D01*
X0256157Y0081457D01*
X0256037Y0081493D01*
X0255918Y0081532D01*
X0255801Y0081574D01*
X0255685Y0081621D01*
X0255571Y0081671D01*
X0255458Y0081724D01*
X0255347Y0081782D01*
X0255237Y0081842D01*
X0255130Y0081907D01*
X0255025Y0081974D01*
X0254922Y0082045D01*
X0254822Y0082119D01*
X0254724Y0082196D01*
X0254628Y0082277D01*
X0254535Y0082360D01*
X0254444Y0082446D01*
X0254357Y0082535D01*
X0254272Y0082627D01*
X0254190Y0082721D01*
X0254111Y0082818D01*
X0254036Y0082918D01*
X0253963Y0083019D01*
X0253894Y0083123D01*
X0253828Y0083230D01*
X0253766Y0083338D01*
X0253707Y0083448D01*
X0253651Y0083560D01*
X0253599Y0083674D01*
X0253551Y0083789D01*
X0253506Y0083905D01*
X0253466Y0084024D01*
X0253428Y0084143D01*
X0253395Y0084263D01*
X0253366Y0084385D01*
X0253340Y0084507D01*
X0253318Y0084630D01*
X0253301Y0084754D01*
X0253287Y0084878D01*
X0253277Y0085002D01*
X0253271Y0085127D01*
X0253269Y0085252D01*
X0253269Y0011433D02*
X0253271Y0011558D01*
X0253277Y0011683D01*
X0253287Y0011807D01*
X0253301Y0011931D01*
X0253318Y0012055D01*
X0253340Y0012178D01*
X0253366Y0012300D01*
X0253395Y0012422D01*
X0253428Y0012542D01*
X0253466Y0012661D01*
X0253506Y0012780D01*
X0253551Y0012896D01*
X0253599Y0013011D01*
X0253651Y0013125D01*
X0253707Y0013237D01*
X0253766Y0013347D01*
X0253828Y0013455D01*
X0253894Y0013562D01*
X0253963Y0013666D01*
X0254036Y0013767D01*
X0254111Y0013867D01*
X0254190Y0013964D01*
X0254272Y0014058D01*
X0254357Y0014150D01*
X0254444Y0014239D01*
X0254535Y0014325D01*
X0254628Y0014408D01*
X0254724Y0014489D01*
X0254822Y0014566D01*
X0254922Y0014640D01*
X0255025Y0014711D01*
X0255130Y0014778D01*
X0255238Y0014843D01*
X0255347Y0014903D01*
X0255458Y0014961D01*
X0255571Y0015014D01*
X0255685Y0015064D01*
X0255801Y0015111D01*
X0255918Y0015153D01*
X0256037Y0015192D01*
X0256157Y0015228D01*
X0256278Y0015259D01*
X0256400Y0015287D01*
X0256522Y0015310D01*
X0256646Y0015330D01*
X0256770Y0015346D01*
X0256894Y0015358D01*
X0257019Y0015366D01*
X0257144Y0015370D01*
X0257268Y0015370D01*
X0257393Y0015366D01*
X0257518Y0015358D01*
X0257642Y0015346D01*
X0257766Y0015330D01*
X0257890Y0015310D01*
X0258012Y0015287D01*
X0258134Y0015259D01*
X0258255Y0015228D01*
X0258375Y0015192D01*
X0258494Y0015153D01*
X0258611Y0015111D01*
X0258727Y0015064D01*
X0258841Y0015014D01*
X0258954Y0014961D01*
X0259065Y0014903D01*
X0259175Y0014843D01*
X0259282Y0014778D01*
X0259387Y0014711D01*
X0259490Y0014640D01*
X0259590Y0014566D01*
X0259688Y0014489D01*
X0259784Y0014408D01*
X0259877Y0014325D01*
X0259968Y0014239D01*
X0260055Y0014150D01*
X0260140Y0014058D01*
X0260222Y0013964D01*
X0260301Y0013867D01*
X0260376Y0013767D01*
X0260449Y0013666D01*
X0260518Y0013562D01*
X0260584Y0013455D01*
X0260646Y0013347D01*
X0260705Y0013237D01*
X0260761Y0013125D01*
X0260813Y0013011D01*
X0260861Y0012896D01*
X0260906Y0012780D01*
X0260946Y0012661D01*
X0260984Y0012542D01*
X0261017Y0012422D01*
X0261046Y0012300D01*
X0261072Y0012178D01*
X0261094Y0012055D01*
X0261111Y0011931D01*
X0261125Y0011807D01*
X0261135Y0011683D01*
X0261141Y0011558D01*
X0261143Y0011433D01*
X0261141Y0011308D01*
X0261135Y0011183D01*
X0261125Y0011059D01*
X0261111Y0010935D01*
X0261094Y0010811D01*
X0261072Y0010688D01*
X0261046Y0010566D01*
X0261017Y0010444D01*
X0260984Y0010324D01*
X0260946Y0010205D01*
X0260906Y0010086D01*
X0260861Y0009970D01*
X0260813Y0009855D01*
X0260761Y0009741D01*
X0260705Y0009629D01*
X0260646Y0009519D01*
X0260584Y0009411D01*
X0260518Y0009304D01*
X0260449Y0009200D01*
X0260376Y0009099D01*
X0260301Y0008999D01*
X0260222Y0008902D01*
X0260140Y0008808D01*
X0260055Y0008716D01*
X0259968Y0008627D01*
X0259877Y0008541D01*
X0259784Y0008458D01*
X0259688Y0008377D01*
X0259590Y0008300D01*
X0259490Y0008226D01*
X0259387Y0008155D01*
X0259282Y0008088D01*
X0259174Y0008023D01*
X0259065Y0007963D01*
X0258954Y0007905D01*
X0258841Y0007852D01*
X0258727Y0007802D01*
X0258611Y0007755D01*
X0258494Y0007713D01*
X0258375Y0007674D01*
X0258255Y0007638D01*
X0258134Y0007607D01*
X0258012Y0007579D01*
X0257890Y0007556D01*
X0257766Y0007536D01*
X0257642Y0007520D01*
X0257518Y0007508D01*
X0257393Y0007500D01*
X0257268Y0007496D01*
X0257144Y0007496D01*
X0257019Y0007500D01*
X0256894Y0007508D01*
X0256770Y0007520D01*
X0256646Y0007536D01*
X0256522Y0007556D01*
X0256400Y0007579D01*
X0256278Y0007607D01*
X0256157Y0007638D01*
X0256037Y0007674D01*
X0255918Y0007713D01*
X0255801Y0007755D01*
X0255685Y0007802D01*
X0255571Y0007852D01*
X0255458Y0007905D01*
X0255347Y0007963D01*
X0255237Y0008023D01*
X0255130Y0008088D01*
X0255025Y0008155D01*
X0254922Y0008226D01*
X0254822Y0008300D01*
X0254724Y0008377D01*
X0254628Y0008458D01*
X0254535Y0008541D01*
X0254444Y0008627D01*
X0254357Y0008716D01*
X0254272Y0008808D01*
X0254190Y0008902D01*
X0254111Y0008999D01*
X0254036Y0009099D01*
X0253963Y0009200D01*
X0253894Y0009304D01*
X0253828Y0009411D01*
X0253766Y0009519D01*
X0253707Y0009629D01*
X0253651Y0009741D01*
X0253599Y0009855D01*
X0253551Y0009970D01*
X0253506Y0010086D01*
X0253466Y0010205D01*
X0253428Y0010324D01*
X0253395Y0010444D01*
X0253366Y0010566D01*
X0253340Y0010688D01*
X0253318Y0010811D01*
X0253301Y0010935D01*
X0253287Y0011059D01*
X0253277Y0011183D01*
X0253271Y0011308D01*
X0253269Y0011433D01*
X0151851Y0104465D02*
X0151853Y0104618D01*
X0151859Y0104772D01*
X0151869Y0104925D01*
X0151883Y0105077D01*
X0151901Y0105230D01*
X0151923Y0105381D01*
X0151948Y0105532D01*
X0151978Y0105683D01*
X0152012Y0105833D01*
X0152049Y0105981D01*
X0152090Y0106129D01*
X0152135Y0106275D01*
X0152184Y0106421D01*
X0152237Y0106565D01*
X0152293Y0106707D01*
X0152353Y0106848D01*
X0152417Y0106988D01*
X0152484Y0107126D01*
X0152555Y0107262D01*
X0152630Y0107396D01*
X0152707Y0107528D01*
X0152789Y0107658D01*
X0152873Y0107786D01*
X0152961Y0107912D01*
X0153052Y0108035D01*
X0153146Y0108156D01*
X0153244Y0108274D01*
X0153344Y0108390D01*
X0153448Y0108503D01*
X0153554Y0108614D01*
X0153663Y0108722D01*
X0153775Y0108827D01*
X0153889Y0108928D01*
X0154007Y0109027D01*
X0154126Y0109123D01*
X0154248Y0109216D01*
X0154373Y0109305D01*
X0154500Y0109392D01*
X0154629Y0109474D01*
X0154760Y0109554D01*
X0154893Y0109630D01*
X0155028Y0109703D01*
X0155165Y0109772D01*
X0155304Y0109837D01*
X0155444Y0109899D01*
X0155586Y0109957D01*
X0155729Y0110012D01*
X0155874Y0110063D01*
X0156020Y0110110D01*
X0156167Y0110153D01*
X0156315Y0110192D01*
X0156464Y0110228D01*
X0156614Y0110259D01*
X0156765Y0110287D01*
X0156916Y0110311D01*
X0157069Y0110331D01*
X0157221Y0110347D01*
X0157374Y0110359D01*
X0157527Y0110367D01*
X0157680Y0110371D01*
X0157834Y0110371D01*
X0157987Y0110367D01*
X0158140Y0110359D01*
X0158293Y0110347D01*
X0158445Y0110331D01*
X0158598Y0110311D01*
X0158749Y0110287D01*
X0158900Y0110259D01*
X0159050Y0110228D01*
X0159199Y0110192D01*
X0159347Y0110153D01*
X0159494Y0110110D01*
X0159640Y0110063D01*
X0159785Y0110012D01*
X0159928Y0109957D01*
X0160070Y0109899D01*
X0160210Y0109837D01*
X0160349Y0109772D01*
X0160486Y0109703D01*
X0160621Y0109630D01*
X0160754Y0109554D01*
X0160885Y0109474D01*
X0161014Y0109392D01*
X0161141Y0109305D01*
X0161266Y0109216D01*
X0161388Y0109123D01*
X0161507Y0109027D01*
X0161625Y0108928D01*
X0161739Y0108827D01*
X0161851Y0108722D01*
X0161960Y0108614D01*
X0162066Y0108503D01*
X0162170Y0108390D01*
X0162270Y0108274D01*
X0162368Y0108156D01*
X0162462Y0108035D01*
X0162553Y0107912D01*
X0162641Y0107786D01*
X0162725Y0107658D01*
X0162807Y0107528D01*
X0162884Y0107396D01*
X0162959Y0107262D01*
X0163030Y0107126D01*
X0163097Y0106988D01*
X0163161Y0106848D01*
X0163221Y0106707D01*
X0163277Y0106565D01*
X0163330Y0106421D01*
X0163379Y0106275D01*
X0163424Y0106129D01*
X0163465Y0105981D01*
X0163502Y0105833D01*
X0163536Y0105683D01*
X0163566Y0105532D01*
X0163591Y0105381D01*
X0163613Y0105230D01*
X0163631Y0105077D01*
X0163645Y0104925D01*
X0163655Y0104772D01*
X0163661Y0104618D01*
X0163663Y0104465D01*
X0163661Y0104312D01*
X0163655Y0104158D01*
X0163645Y0104005D01*
X0163631Y0103853D01*
X0163613Y0103700D01*
X0163591Y0103549D01*
X0163566Y0103398D01*
X0163536Y0103247D01*
X0163502Y0103097D01*
X0163465Y0102949D01*
X0163424Y0102801D01*
X0163379Y0102655D01*
X0163330Y0102509D01*
X0163277Y0102365D01*
X0163221Y0102223D01*
X0163161Y0102082D01*
X0163097Y0101942D01*
X0163030Y0101804D01*
X0162959Y0101668D01*
X0162884Y0101534D01*
X0162807Y0101402D01*
X0162725Y0101272D01*
X0162641Y0101144D01*
X0162553Y0101018D01*
X0162462Y0100895D01*
X0162368Y0100774D01*
X0162270Y0100656D01*
X0162170Y0100540D01*
X0162066Y0100427D01*
X0161960Y0100316D01*
X0161851Y0100208D01*
X0161739Y0100103D01*
X0161625Y0100002D01*
X0161507Y0099903D01*
X0161388Y0099807D01*
X0161266Y0099714D01*
X0161141Y0099625D01*
X0161014Y0099538D01*
X0160885Y0099456D01*
X0160754Y0099376D01*
X0160621Y0099300D01*
X0160486Y0099227D01*
X0160349Y0099158D01*
X0160210Y0099093D01*
X0160070Y0099031D01*
X0159928Y0098973D01*
X0159785Y0098918D01*
X0159640Y0098867D01*
X0159494Y0098820D01*
X0159347Y0098777D01*
X0159199Y0098738D01*
X0159050Y0098702D01*
X0158900Y0098671D01*
X0158749Y0098643D01*
X0158598Y0098619D01*
X0158445Y0098599D01*
X0158293Y0098583D01*
X0158140Y0098571D01*
X0157987Y0098563D01*
X0157834Y0098559D01*
X0157680Y0098559D01*
X0157527Y0098563D01*
X0157374Y0098571D01*
X0157221Y0098583D01*
X0157069Y0098599D01*
X0156916Y0098619D01*
X0156765Y0098643D01*
X0156614Y0098671D01*
X0156464Y0098702D01*
X0156315Y0098738D01*
X0156167Y0098777D01*
X0156020Y0098820D01*
X0155874Y0098867D01*
X0155729Y0098918D01*
X0155586Y0098973D01*
X0155444Y0099031D01*
X0155304Y0099093D01*
X0155165Y0099158D01*
X0155028Y0099227D01*
X0154893Y0099300D01*
X0154760Y0099376D01*
X0154629Y0099456D01*
X0154500Y0099538D01*
X0154373Y0099625D01*
X0154248Y0099714D01*
X0154126Y0099807D01*
X0154007Y0099903D01*
X0153889Y0100002D01*
X0153775Y0100103D01*
X0153663Y0100208D01*
X0153554Y0100316D01*
X0153448Y0100427D01*
X0153344Y0100540D01*
X0153244Y0100656D01*
X0153146Y0100774D01*
X0153052Y0100895D01*
X0152961Y0101018D01*
X0152873Y0101144D01*
X0152789Y0101272D01*
X0152707Y0101402D01*
X0152630Y0101534D01*
X0152555Y0101668D01*
X0152484Y0101804D01*
X0152417Y0101942D01*
X0152353Y0102082D01*
X0152293Y0102223D01*
X0152237Y0102365D01*
X0152184Y0102509D01*
X0152135Y0102655D01*
X0152090Y0102801D01*
X0152049Y0102949D01*
X0152012Y0103097D01*
X0151978Y0103247D01*
X0151948Y0103398D01*
X0151923Y0103549D01*
X0151901Y0103700D01*
X0151883Y0103853D01*
X0151869Y0104005D01*
X0151859Y0104158D01*
X0151853Y0104312D01*
X0151851Y0104465D01*
D11*
X0162654Y0096657D02*
X0162654Y0085657D01*
X0162656Y0085597D01*
X0162661Y0085536D01*
X0162670Y0085477D01*
X0162683Y0085418D01*
X0162699Y0085359D01*
X0162719Y0085302D01*
X0162742Y0085247D01*
X0162769Y0085192D01*
X0162798Y0085140D01*
X0162831Y0085089D01*
X0162867Y0085040D01*
X0162905Y0084994D01*
X0162947Y0084950D01*
X0162991Y0084908D01*
X0163037Y0084870D01*
X0163086Y0084834D01*
X0163137Y0084801D01*
X0163189Y0084772D01*
X0163244Y0084745D01*
X0163299Y0084722D01*
X0163356Y0084702D01*
X0163415Y0084686D01*
X0163474Y0084673D01*
X0163533Y0084664D01*
X0163594Y0084659D01*
X0163654Y0084657D01*
X0169654Y0084657D01*
X0169714Y0084659D01*
X0169775Y0084664D01*
X0169834Y0084673D01*
X0169893Y0084686D01*
X0169952Y0084702D01*
X0170009Y0084722D01*
X0170064Y0084745D01*
X0170119Y0084772D01*
X0170171Y0084801D01*
X0170222Y0084834D01*
X0170271Y0084870D01*
X0170317Y0084908D01*
X0170361Y0084950D01*
X0170403Y0084994D01*
X0170441Y0085040D01*
X0170477Y0085089D01*
X0170510Y0085140D01*
X0170539Y0085192D01*
X0170566Y0085247D01*
X0170589Y0085302D01*
X0170609Y0085359D01*
X0170625Y0085418D01*
X0170638Y0085477D01*
X0170647Y0085536D01*
X0170652Y0085597D01*
X0170654Y0085657D01*
X0170654Y0096657D01*
X0170652Y0096717D01*
X0170647Y0096778D01*
X0170638Y0096837D01*
X0170625Y0096896D01*
X0170609Y0096955D01*
X0170589Y0097012D01*
X0170566Y0097067D01*
X0170539Y0097122D01*
X0170510Y0097174D01*
X0170477Y0097225D01*
X0170441Y0097274D01*
X0170403Y0097320D01*
X0170361Y0097364D01*
X0170317Y0097406D01*
X0170271Y0097444D01*
X0170222Y0097480D01*
X0170171Y0097513D01*
X0170119Y0097542D01*
X0170064Y0097569D01*
X0170009Y0097592D01*
X0169952Y0097612D01*
X0169893Y0097628D01*
X0169834Y0097641D01*
X0169775Y0097650D01*
X0169714Y0097655D01*
X0169654Y0097657D01*
X0163654Y0097657D01*
X0163594Y0097655D01*
X0163533Y0097650D01*
X0163474Y0097641D01*
X0163415Y0097628D01*
X0163356Y0097612D01*
X0163299Y0097592D01*
X0163244Y0097569D01*
X0163189Y0097542D01*
X0163137Y0097513D01*
X0163086Y0097480D01*
X0163037Y0097444D01*
X0162991Y0097406D01*
X0162947Y0097364D01*
X0162905Y0097320D01*
X0162867Y0097274D01*
X0162831Y0097225D01*
X0162798Y0097174D01*
X0162769Y0097122D01*
X0162742Y0097067D01*
X0162719Y0097012D01*
X0162699Y0096955D01*
X0162683Y0096896D01*
X0162670Y0096837D01*
X0162661Y0096778D01*
X0162656Y0096717D01*
X0162654Y0096657D01*
X0182761Y0064646D02*
X0199761Y0064646D01*
X0199821Y0064644D01*
X0199882Y0064639D01*
X0199941Y0064630D01*
X0200000Y0064617D01*
X0200059Y0064601D01*
X0200116Y0064581D01*
X0200171Y0064558D01*
X0200226Y0064531D01*
X0200278Y0064502D01*
X0200329Y0064469D01*
X0200378Y0064433D01*
X0200424Y0064395D01*
X0200468Y0064353D01*
X0200510Y0064309D01*
X0200548Y0064263D01*
X0200584Y0064214D01*
X0200617Y0064163D01*
X0200646Y0064111D01*
X0200673Y0064056D01*
X0200696Y0064001D01*
X0200716Y0063944D01*
X0200732Y0063885D01*
X0200745Y0063826D01*
X0200754Y0063767D01*
X0200759Y0063706D01*
X0200761Y0063646D01*
X0200761Y0057646D01*
X0200759Y0057586D01*
X0200754Y0057525D01*
X0200745Y0057466D01*
X0200732Y0057407D01*
X0200716Y0057348D01*
X0200696Y0057291D01*
X0200673Y0057236D01*
X0200646Y0057181D01*
X0200617Y0057129D01*
X0200584Y0057078D01*
X0200548Y0057029D01*
X0200510Y0056983D01*
X0200468Y0056939D01*
X0200424Y0056897D01*
X0200378Y0056859D01*
X0200329Y0056823D01*
X0200278Y0056790D01*
X0200226Y0056761D01*
X0200171Y0056734D01*
X0200116Y0056711D01*
X0200059Y0056691D01*
X0200000Y0056675D01*
X0199941Y0056662D01*
X0199882Y0056653D01*
X0199821Y0056648D01*
X0199761Y0056646D01*
X0182761Y0056646D01*
X0182701Y0056648D01*
X0182640Y0056653D01*
X0182581Y0056662D01*
X0182522Y0056675D01*
X0182463Y0056691D01*
X0182406Y0056711D01*
X0182351Y0056734D01*
X0182296Y0056761D01*
X0182244Y0056790D01*
X0182193Y0056823D01*
X0182144Y0056859D01*
X0182098Y0056897D01*
X0182054Y0056939D01*
X0182012Y0056983D01*
X0181974Y0057029D01*
X0181938Y0057078D01*
X0181905Y0057129D01*
X0181876Y0057181D01*
X0181849Y0057236D01*
X0181826Y0057291D01*
X0181806Y0057348D01*
X0181790Y0057407D01*
X0181777Y0057466D01*
X0181768Y0057525D01*
X0181763Y0057586D01*
X0181761Y0057646D01*
X0181761Y0063646D01*
X0181763Y0063706D01*
X0181768Y0063767D01*
X0181777Y0063826D01*
X0181790Y0063885D01*
X0181806Y0063944D01*
X0181826Y0064001D01*
X0181849Y0064056D01*
X0181876Y0064111D01*
X0181905Y0064163D01*
X0181938Y0064214D01*
X0181974Y0064263D01*
X0182012Y0064309D01*
X0182054Y0064353D01*
X0182098Y0064395D01*
X0182144Y0064433D01*
X0182193Y0064469D01*
X0182244Y0064502D01*
X0182296Y0064531D01*
X0182351Y0064558D01*
X0182406Y0064581D01*
X0182463Y0064601D01*
X0182522Y0064617D01*
X0182581Y0064630D01*
X0182640Y0064639D01*
X0182701Y0064644D01*
X0182761Y0064646D01*
X0101757Y0085657D02*
X0101757Y0096657D01*
X0101755Y0096717D01*
X0101750Y0096778D01*
X0101741Y0096837D01*
X0101728Y0096896D01*
X0101712Y0096955D01*
X0101692Y0097012D01*
X0101669Y0097067D01*
X0101642Y0097122D01*
X0101613Y0097174D01*
X0101580Y0097225D01*
X0101544Y0097274D01*
X0101506Y0097320D01*
X0101464Y0097364D01*
X0101420Y0097406D01*
X0101374Y0097444D01*
X0101325Y0097480D01*
X0101274Y0097513D01*
X0101222Y0097542D01*
X0101167Y0097569D01*
X0101112Y0097592D01*
X0101055Y0097612D01*
X0100996Y0097628D01*
X0100937Y0097641D01*
X0100878Y0097650D01*
X0100817Y0097655D01*
X0100757Y0097657D01*
X0094757Y0097657D01*
X0094697Y0097655D01*
X0094636Y0097650D01*
X0094577Y0097641D01*
X0094518Y0097628D01*
X0094459Y0097612D01*
X0094402Y0097592D01*
X0094347Y0097569D01*
X0094292Y0097542D01*
X0094240Y0097513D01*
X0094189Y0097480D01*
X0094140Y0097444D01*
X0094094Y0097406D01*
X0094050Y0097364D01*
X0094008Y0097320D01*
X0093970Y0097274D01*
X0093934Y0097225D01*
X0093901Y0097174D01*
X0093872Y0097122D01*
X0093845Y0097067D01*
X0093822Y0097012D01*
X0093802Y0096955D01*
X0093786Y0096896D01*
X0093773Y0096837D01*
X0093764Y0096778D01*
X0093759Y0096717D01*
X0093757Y0096657D01*
X0093757Y0085657D01*
X0093759Y0085597D01*
X0093764Y0085536D01*
X0093773Y0085477D01*
X0093786Y0085418D01*
X0093802Y0085359D01*
X0093822Y0085302D01*
X0093845Y0085247D01*
X0093872Y0085192D01*
X0093901Y0085140D01*
X0093934Y0085089D01*
X0093970Y0085040D01*
X0094008Y0084994D01*
X0094050Y0084950D01*
X0094094Y0084908D01*
X0094140Y0084870D01*
X0094189Y0084834D01*
X0094240Y0084801D01*
X0094292Y0084772D01*
X0094347Y0084745D01*
X0094402Y0084722D01*
X0094459Y0084702D01*
X0094518Y0084686D01*
X0094577Y0084673D01*
X0094636Y0084664D01*
X0094697Y0084659D01*
X0094757Y0084657D01*
X0100757Y0084657D01*
X0100817Y0084659D01*
X0100878Y0084664D01*
X0100937Y0084673D01*
X0100996Y0084686D01*
X0101055Y0084702D01*
X0101112Y0084722D01*
X0101167Y0084745D01*
X0101222Y0084772D01*
X0101274Y0084801D01*
X0101325Y0084834D01*
X0101374Y0084870D01*
X0101420Y0084908D01*
X0101464Y0084950D01*
X0101506Y0084994D01*
X0101544Y0085040D01*
X0101580Y0085089D01*
X0101613Y0085140D01*
X0101642Y0085192D01*
X0101669Y0085247D01*
X0101692Y0085302D01*
X0101712Y0085359D01*
X0101728Y0085418D01*
X0101741Y0085477D01*
X0101750Y0085536D01*
X0101755Y0085597D01*
X0101757Y0085657D01*
X0078791Y0085657D02*
X0078791Y0096657D01*
X0078789Y0096717D01*
X0078784Y0096778D01*
X0078775Y0096837D01*
X0078762Y0096896D01*
X0078746Y0096955D01*
X0078726Y0097012D01*
X0078703Y0097067D01*
X0078676Y0097122D01*
X0078647Y0097174D01*
X0078614Y0097225D01*
X0078578Y0097274D01*
X0078540Y0097320D01*
X0078498Y0097364D01*
X0078454Y0097406D01*
X0078408Y0097444D01*
X0078359Y0097480D01*
X0078308Y0097513D01*
X0078256Y0097542D01*
X0078201Y0097569D01*
X0078146Y0097592D01*
X0078089Y0097612D01*
X0078030Y0097628D01*
X0077971Y0097641D01*
X0077912Y0097650D01*
X0077851Y0097655D01*
X0077791Y0097657D01*
X0071791Y0097657D01*
X0071731Y0097655D01*
X0071670Y0097650D01*
X0071611Y0097641D01*
X0071552Y0097628D01*
X0071493Y0097612D01*
X0071436Y0097592D01*
X0071381Y0097569D01*
X0071326Y0097542D01*
X0071274Y0097513D01*
X0071223Y0097480D01*
X0071174Y0097444D01*
X0071128Y0097406D01*
X0071084Y0097364D01*
X0071042Y0097320D01*
X0071004Y0097274D01*
X0070968Y0097225D01*
X0070935Y0097174D01*
X0070906Y0097122D01*
X0070879Y0097067D01*
X0070856Y0097012D01*
X0070836Y0096955D01*
X0070820Y0096896D01*
X0070807Y0096837D01*
X0070798Y0096778D01*
X0070793Y0096717D01*
X0070791Y0096657D01*
X0070791Y0085657D01*
X0070793Y0085597D01*
X0070798Y0085536D01*
X0070807Y0085477D01*
X0070820Y0085418D01*
X0070836Y0085359D01*
X0070856Y0085302D01*
X0070879Y0085247D01*
X0070906Y0085192D01*
X0070935Y0085140D01*
X0070968Y0085089D01*
X0071004Y0085040D01*
X0071042Y0084994D01*
X0071084Y0084950D01*
X0071128Y0084908D01*
X0071174Y0084870D01*
X0071223Y0084834D01*
X0071274Y0084801D01*
X0071326Y0084772D01*
X0071381Y0084745D01*
X0071436Y0084722D01*
X0071493Y0084702D01*
X0071552Y0084686D01*
X0071611Y0084673D01*
X0071670Y0084664D01*
X0071731Y0084659D01*
X0071791Y0084657D01*
X0077791Y0084657D01*
X0077851Y0084659D01*
X0077912Y0084664D01*
X0077971Y0084673D01*
X0078030Y0084686D01*
X0078089Y0084702D01*
X0078146Y0084722D01*
X0078201Y0084745D01*
X0078256Y0084772D01*
X0078308Y0084801D01*
X0078359Y0084834D01*
X0078408Y0084870D01*
X0078454Y0084908D01*
X0078498Y0084950D01*
X0078540Y0084994D01*
X0078578Y0085040D01*
X0078614Y0085089D01*
X0078647Y0085140D01*
X0078676Y0085192D01*
X0078703Y0085247D01*
X0078726Y0085302D01*
X0078746Y0085359D01*
X0078762Y0085418D01*
X0078775Y0085477D01*
X0078784Y0085536D01*
X0078789Y0085597D01*
X0078791Y0085657D01*
X0048607Y0079705D02*
X0048607Y0096705D01*
X0048605Y0096765D01*
X0048600Y0096826D01*
X0048591Y0096885D01*
X0048578Y0096944D01*
X0048562Y0097003D01*
X0048542Y0097060D01*
X0048519Y0097115D01*
X0048492Y0097170D01*
X0048463Y0097222D01*
X0048430Y0097273D01*
X0048394Y0097322D01*
X0048356Y0097368D01*
X0048314Y0097412D01*
X0048270Y0097454D01*
X0048224Y0097492D01*
X0048175Y0097528D01*
X0048124Y0097561D01*
X0048072Y0097590D01*
X0048017Y0097617D01*
X0047962Y0097640D01*
X0047905Y0097660D01*
X0047846Y0097676D01*
X0047787Y0097689D01*
X0047728Y0097698D01*
X0047667Y0097703D01*
X0047607Y0097705D01*
X0041607Y0097705D01*
X0041547Y0097703D01*
X0041486Y0097698D01*
X0041427Y0097689D01*
X0041368Y0097676D01*
X0041309Y0097660D01*
X0041252Y0097640D01*
X0041197Y0097617D01*
X0041142Y0097590D01*
X0041090Y0097561D01*
X0041039Y0097528D01*
X0040990Y0097492D01*
X0040944Y0097454D01*
X0040900Y0097412D01*
X0040858Y0097368D01*
X0040820Y0097322D01*
X0040784Y0097273D01*
X0040751Y0097222D01*
X0040722Y0097170D01*
X0040695Y0097115D01*
X0040672Y0097060D01*
X0040652Y0097003D01*
X0040636Y0096944D01*
X0040623Y0096885D01*
X0040614Y0096826D01*
X0040609Y0096765D01*
X0040607Y0096705D01*
X0040607Y0079705D01*
X0040609Y0079645D01*
X0040614Y0079584D01*
X0040623Y0079525D01*
X0040636Y0079466D01*
X0040652Y0079407D01*
X0040672Y0079350D01*
X0040695Y0079295D01*
X0040722Y0079240D01*
X0040751Y0079188D01*
X0040784Y0079137D01*
X0040820Y0079088D01*
X0040858Y0079042D01*
X0040900Y0078998D01*
X0040944Y0078956D01*
X0040990Y0078918D01*
X0041039Y0078882D01*
X0041090Y0078849D01*
X0041142Y0078820D01*
X0041197Y0078793D01*
X0041252Y0078770D01*
X0041309Y0078750D01*
X0041368Y0078734D01*
X0041427Y0078721D01*
X0041486Y0078712D01*
X0041547Y0078707D01*
X0041607Y0078705D01*
X0047607Y0078705D01*
X0047667Y0078707D01*
X0047728Y0078712D01*
X0047787Y0078721D01*
X0047846Y0078734D01*
X0047905Y0078750D01*
X0047962Y0078770D01*
X0048017Y0078793D01*
X0048072Y0078820D01*
X0048124Y0078849D01*
X0048175Y0078882D01*
X0048224Y0078918D01*
X0048270Y0078956D01*
X0048314Y0078998D01*
X0048356Y0079042D01*
X0048394Y0079088D01*
X0048430Y0079137D01*
X0048463Y0079188D01*
X0048492Y0079240D01*
X0048519Y0079295D01*
X0048542Y0079350D01*
X0048562Y0079407D01*
X0048578Y0079466D01*
X0048591Y0079525D01*
X0048600Y0079584D01*
X0048605Y0079645D01*
X0048607Y0079705D01*
X0033187Y0085657D02*
X0033187Y0096657D01*
X0033185Y0096717D01*
X0033180Y0096778D01*
X0033171Y0096837D01*
X0033158Y0096896D01*
X0033142Y0096955D01*
X0033122Y0097012D01*
X0033099Y0097067D01*
X0033072Y0097122D01*
X0033043Y0097174D01*
X0033010Y0097225D01*
X0032974Y0097274D01*
X0032936Y0097320D01*
X0032894Y0097364D01*
X0032850Y0097406D01*
X0032804Y0097444D01*
X0032755Y0097480D01*
X0032704Y0097513D01*
X0032652Y0097542D01*
X0032597Y0097569D01*
X0032542Y0097592D01*
X0032485Y0097612D01*
X0032426Y0097628D01*
X0032367Y0097641D01*
X0032308Y0097650D01*
X0032247Y0097655D01*
X0032187Y0097657D01*
X0026187Y0097657D01*
X0026127Y0097655D01*
X0026066Y0097650D01*
X0026007Y0097641D01*
X0025948Y0097628D01*
X0025889Y0097612D01*
X0025832Y0097592D01*
X0025777Y0097569D01*
X0025722Y0097542D01*
X0025670Y0097513D01*
X0025619Y0097480D01*
X0025570Y0097444D01*
X0025524Y0097406D01*
X0025480Y0097364D01*
X0025438Y0097320D01*
X0025400Y0097274D01*
X0025364Y0097225D01*
X0025331Y0097174D01*
X0025302Y0097122D01*
X0025275Y0097067D01*
X0025252Y0097012D01*
X0025232Y0096955D01*
X0025216Y0096896D01*
X0025203Y0096837D01*
X0025194Y0096778D01*
X0025189Y0096717D01*
X0025187Y0096657D01*
X0025187Y0085657D01*
X0025189Y0085597D01*
X0025194Y0085536D01*
X0025203Y0085477D01*
X0025216Y0085418D01*
X0025232Y0085359D01*
X0025252Y0085302D01*
X0025275Y0085247D01*
X0025302Y0085192D01*
X0025331Y0085140D01*
X0025364Y0085089D01*
X0025400Y0085040D01*
X0025438Y0084994D01*
X0025480Y0084950D01*
X0025524Y0084908D01*
X0025570Y0084870D01*
X0025619Y0084834D01*
X0025670Y0084801D01*
X0025722Y0084772D01*
X0025777Y0084745D01*
X0025832Y0084722D01*
X0025889Y0084702D01*
X0025948Y0084686D01*
X0026007Y0084673D01*
X0026066Y0084664D01*
X0026127Y0084659D01*
X0026187Y0084657D01*
X0032187Y0084657D01*
X0032247Y0084659D01*
X0032308Y0084664D01*
X0032367Y0084673D01*
X0032426Y0084686D01*
X0032485Y0084702D01*
X0032542Y0084722D01*
X0032597Y0084745D01*
X0032652Y0084772D01*
X0032704Y0084801D01*
X0032755Y0084834D01*
X0032804Y0084870D01*
X0032850Y0084908D01*
X0032894Y0084950D01*
X0032936Y0084994D01*
X0032974Y0085040D01*
X0033010Y0085089D01*
X0033043Y0085140D01*
X0033072Y0085192D01*
X0033099Y0085247D01*
X0033122Y0085302D01*
X0033142Y0085359D01*
X0033158Y0085418D01*
X0033171Y0085477D01*
X0033180Y0085536D01*
X0033185Y0085597D01*
X0033187Y0085657D01*
X0001300Y0091157D02*
X0272954Y0091157D01*
X0272954Y0177772D02*
X0001300Y0177772D01*
X0041607Y0250949D02*
X0047607Y0250949D01*
X0047667Y0250951D01*
X0047728Y0250956D01*
X0047787Y0250965D01*
X0047846Y0250978D01*
X0047905Y0250994D01*
X0047962Y0251014D01*
X0048017Y0251037D01*
X0048072Y0251064D01*
X0048124Y0251093D01*
X0048175Y0251126D01*
X0048224Y0251162D01*
X0048270Y0251200D01*
X0048314Y0251242D01*
X0048356Y0251286D01*
X0048394Y0251332D01*
X0048430Y0251381D01*
X0048463Y0251432D01*
X0048492Y0251484D01*
X0048519Y0251539D01*
X0048542Y0251594D01*
X0048562Y0251651D01*
X0048578Y0251710D01*
X0048591Y0251769D01*
X0048600Y0251828D01*
X0048605Y0251889D01*
X0048607Y0251949D01*
X0048607Y0268949D01*
X0048605Y0269009D01*
X0048600Y0269070D01*
X0048591Y0269129D01*
X0048578Y0269188D01*
X0048562Y0269247D01*
X0048542Y0269304D01*
X0048519Y0269359D01*
X0048492Y0269414D01*
X0048463Y0269466D01*
X0048430Y0269517D01*
X0048394Y0269566D01*
X0048356Y0269612D01*
X0048314Y0269656D01*
X0048270Y0269698D01*
X0048224Y0269736D01*
X0048175Y0269772D01*
X0048124Y0269805D01*
X0048072Y0269834D01*
X0048017Y0269861D01*
X0047962Y0269884D01*
X0047905Y0269904D01*
X0047846Y0269920D01*
X0047787Y0269933D01*
X0047728Y0269942D01*
X0047667Y0269947D01*
X0047607Y0269949D01*
X0041607Y0269949D01*
X0041547Y0269947D01*
X0041486Y0269942D01*
X0041427Y0269933D01*
X0041368Y0269920D01*
X0041309Y0269904D01*
X0041252Y0269884D01*
X0041197Y0269861D01*
X0041142Y0269834D01*
X0041090Y0269805D01*
X0041039Y0269772D01*
X0040990Y0269736D01*
X0040944Y0269698D01*
X0040900Y0269656D01*
X0040858Y0269612D01*
X0040820Y0269566D01*
X0040784Y0269517D01*
X0040751Y0269466D01*
X0040722Y0269414D01*
X0040695Y0269359D01*
X0040672Y0269304D01*
X0040652Y0269247D01*
X0040636Y0269188D01*
X0040623Y0269129D01*
X0040614Y0269070D01*
X0040609Y0269009D01*
X0040607Y0268949D01*
X0040607Y0251949D01*
X0040609Y0251889D01*
X0040614Y0251828D01*
X0040623Y0251769D01*
X0040636Y0251710D01*
X0040652Y0251651D01*
X0040672Y0251594D01*
X0040695Y0251539D01*
X0040722Y0251484D01*
X0040751Y0251432D01*
X0040784Y0251381D01*
X0040820Y0251332D01*
X0040858Y0251286D01*
X0040900Y0251242D01*
X0040944Y0251200D01*
X0040990Y0251162D01*
X0041039Y0251126D01*
X0041090Y0251093D01*
X0041142Y0251064D01*
X0041197Y0251037D01*
X0041252Y0251014D01*
X0041309Y0250994D01*
X0041368Y0250978D01*
X0041427Y0250965D01*
X0041486Y0250956D01*
X0041547Y0250951D01*
X0041607Y0250949D01*
X0033187Y0257902D02*
X0033187Y0268902D01*
X0033185Y0268962D01*
X0033180Y0269023D01*
X0033171Y0269082D01*
X0033158Y0269141D01*
X0033142Y0269200D01*
X0033122Y0269257D01*
X0033099Y0269312D01*
X0033072Y0269367D01*
X0033043Y0269419D01*
X0033010Y0269470D01*
X0032974Y0269519D01*
X0032936Y0269565D01*
X0032894Y0269609D01*
X0032850Y0269651D01*
X0032804Y0269689D01*
X0032755Y0269725D01*
X0032704Y0269758D01*
X0032652Y0269787D01*
X0032597Y0269814D01*
X0032542Y0269837D01*
X0032485Y0269857D01*
X0032426Y0269873D01*
X0032367Y0269886D01*
X0032308Y0269895D01*
X0032247Y0269900D01*
X0032187Y0269902D01*
X0026187Y0269902D01*
X0026127Y0269900D01*
X0026066Y0269895D01*
X0026007Y0269886D01*
X0025948Y0269873D01*
X0025889Y0269857D01*
X0025832Y0269837D01*
X0025777Y0269814D01*
X0025722Y0269787D01*
X0025670Y0269758D01*
X0025619Y0269725D01*
X0025570Y0269689D01*
X0025524Y0269651D01*
X0025480Y0269609D01*
X0025438Y0269565D01*
X0025400Y0269519D01*
X0025364Y0269470D01*
X0025331Y0269419D01*
X0025302Y0269367D01*
X0025275Y0269312D01*
X0025252Y0269257D01*
X0025232Y0269200D01*
X0025216Y0269141D01*
X0025203Y0269082D01*
X0025194Y0269023D01*
X0025189Y0268962D01*
X0025187Y0268902D01*
X0025187Y0257902D01*
X0025189Y0257842D01*
X0025194Y0257781D01*
X0025203Y0257722D01*
X0025216Y0257663D01*
X0025232Y0257604D01*
X0025252Y0257547D01*
X0025275Y0257492D01*
X0025302Y0257437D01*
X0025331Y0257385D01*
X0025364Y0257334D01*
X0025400Y0257285D01*
X0025438Y0257239D01*
X0025480Y0257195D01*
X0025524Y0257153D01*
X0025570Y0257115D01*
X0025619Y0257079D01*
X0025670Y0257046D01*
X0025722Y0257017D01*
X0025777Y0256990D01*
X0025832Y0256967D01*
X0025889Y0256947D01*
X0025948Y0256931D01*
X0026007Y0256918D01*
X0026066Y0256909D01*
X0026127Y0256904D01*
X0026187Y0256902D01*
X0032187Y0256902D01*
X0032247Y0256904D01*
X0032308Y0256909D01*
X0032367Y0256918D01*
X0032426Y0256931D01*
X0032485Y0256947D01*
X0032542Y0256967D01*
X0032597Y0256990D01*
X0032652Y0257017D01*
X0032704Y0257046D01*
X0032755Y0257079D01*
X0032804Y0257115D01*
X0032850Y0257153D01*
X0032894Y0257195D01*
X0032936Y0257239D01*
X0032974Y0257285D01*
X0033010Y0257334D01*
X0033043Y0257385D01*
X0033072Y0257437D01*
X0033099Y0257492D01*
X0033122Y0257547D01*
X0033142Y0257604D01*
X0033158Y0257663D01*
X0033171Y0257722D01*
X0033180Y0257781D01*
X0033185Y0257842D01*
X0033187Y0257902D01*
X0001300Y0263402D02*
X0272954Y0263402D01*
X0200761Y0235890D02*
X0200761Y0229890D01*
X0200759Y0229830D01*
X0200754Y0229769D01*
X0200745Y0229710D01*
X0200732Y0229651D01*
X0200716Y0229592D01*
X0200696Y0229535D01*
X0200673Y0229480D01*
X0200646Y0229425D01*
X0200617Y0229373D01*
X0200584Y0229322D01*
X0200548Y0229273D01*
X0200510Y0229227D01*
X0200468Y0229183D01*
X0200424Y0229141D01*
X0200378Y0229103D01*
X0200329Y0229067D01*
X0200278Y0229034D01*
X0200226Y0229005D01*
X0200171Y0228978D01*
X0200116Y0228955D01*
X0200059Y0228935D01*
X0200000Y0228919D01*
X0199941Y0228906D01*
X0199882Y0228897D01*
X0199821Y0228892D01*
X0199761Y0228890D01*
X0182761Y0228890D01*
X0182701Y0228892D01*
X0182640Y0228897D01*
X0182581Y0228906D01*
X0182522Y0228919D01*
X0182463Y0228935D01*
X0182406Y0228955D01*
X0182351Y0228978D01*
X0182296Y0229005D01*
X0182244Y0229034D01*
X0182193Y0229067D01*
X0182144Y0229103D01*
X0182098Y0229141D01*
X0182054Y0229183D01*
X0182012Y0229227D01*
X0181974Y0229273D01*
X0181938Y0229322D01*
X0181905Y0229373D01*
X0181876Y0229425D01*
X0181849Y0229480D01*
X0181826Y0229535D01*
X0181806Y0229592D01*
X0181790Y0229651D01*
X0181777Y0229710D01*
X0181768Y0229769D01*
X0181763Y0229830D01*
X0181761Y0229890D01*
X0181761Y0235890D01*
X0181763Y0235950D01*
X0181768Y0236011D01*
X0181777Y0236070D01*
X0181790Y0236129D01*
X0181806Y0236188D01*
X0181826Y0236245D01*
X0181849Y0236300D01*
X0181876Y0236355D01*
X0181905Y0236407D01*
X0181938Y0236458D01*
X0181974Y0236507D01*
X0182012Y0236553D01*
X0182054Y0236597D01*
X0182098Y0236639D01*
X0182144Y0236677D01*
X0182193Y0236713D01*
X0182244Y0236746D01*
X0182296Y0236775D01*
X0182351Y0236802D01*
X0182406Y0236825D01*
X0182463Y0236845D01*
X0182522Y0236861D01*
X0182581Y0236874D01*
X0182640Y0236883D01*
X0182701Y0236888D01*
X0182761Y0236890D01*
X0199761Y0236890D01*
X0199821Y0236888D01*
X0199882Y0236883D01*
X0199941Y0236874D01*
X0200000Y0236861D01*
X0200059Y0236845D01*
X0200116Y0236825D01*
X0200171Y0236802D01*
X0200226Y0236775D01*
X0200278Y0236746D01*
X0200329Y0236713D01*
X0200378Y0236677D01*
X0200424Y0236639D01*
X0200468Y0236597D01*
X0200510Y0236553D01*
X0200548Y0236507D01*
X0200584Y0236458D01*
X0200617Y0236407D01*
X0200646Y0236355D01*
X0200673Y0236300D01*
X0200696Y0236245D01*
X0200716Y0236188D01*
X0200732Y0236129D01*
X0200745Y0236070D01*
X0200754Y0236011D01*
X0200759Y0235950D01*
X0200761Y0235890D01*
X0170654Y0257902D02*
X0170654Y0268902D01*
X0170652Y0268962D01*
X0170647Y0269023D01*
X0170638Y0269082D01*
X0170625Y0269141D01*
X0170609Y0269200D01*
X0170589Y0269257D01*
X0170566Y0269312D01*
X0170539Y0269367D01*
X0170510Y0269419D01*
X0170477Y0269470D01*
X0170441Y0269519D01*
X0170403Y0269565D01*
X0170361Y0269609D01*
X0170317Y0269651D01*
X0170271Y0269689D01*
X0170222Y0269725D01*
X0170171Y0269758D01*
X0170119Y0269787D01*
X0170064Y0269814D01*
X0170009Y0269837D01*
X0169952Y0269857D01*
X0169893Y0269873D01*
X0169834Y0269886D01*
X0169775Y0269895D01*
X0169714Y0269900D01*
X0169654Y0269902D01*
X0163654Y0269902D01*
X0163594Y0269900D01*
X0163533Y0269895D01*
X0163474Y0269886D01*
X0163415Y0269873D01*
X0163356Y0269857D01*
X0163299Y0269837D01*
X0163244Y0269814D01*
X0163189Y0269787D01*
X0163137Y0269758D01*
X0163086Y0269725D01*
X0163037Y0269689D01*
X0162991Y0269651D01*
X0162947Y0269609D01*
X0162905Y0269565D01*
X0162867Y0269519D01*
X0162831Y0269470D01*
X0162798Y0269419D01*
X0162769Y0269367D01*
X0162742Y0269312D01*
X0162719Y0269257D01*
X0162699Y0269200D01*
X0162683Y0269141D01*
X0162670Y0269082D01*
X0162661Y0269023D01*
X0162656Y0268962D01*
X0162654Y0268902D01*
X0162654Y0257902D01*
X0162656Y0257842D01*
X0162661Y0257781D01*
X0162670Y0257722D01*
X0162683Y0257663D01*
X0162699Y0257604D01*
X0162719Y0257547D01*
X0162742Y0257492D01*
X0162769Y0257437D01*
X0162798Y0257385D01*
X0162831Y0257334D01*
X0162867Y0257285D01*
X0162905Y0257239D01*
X0162947Y0257195D01*
X0162991Y0257153D01*
X0163037Y0257115D01*
X0163086Y0257079D01*
X0163137Y0257046D01*
X0163189Y0257017D01*
X0163244Y0256990D01*
X0163299Y0256967D01*
X0163356Y0256947D01*
X0163415Y0256931D01*
X0163474Y0256918D01*
X0163533Y0256909D01*
X0163594Y0256904D01*
X0163654Y0256902D01*
X0169654Y0256902D01*
X0169714Y0256904D01*
X0169775Y0256909D01*
X0169834Y0256918D01*
X0169893Y0256931D01*
X0169952Y0256947D01*
X0170009Y0256967D01*
X0170064Y0256990D01*
X0170119Y0257017D01*
X0170171Y0257046D01*
X0170222Y0257079D01*
X0170271Y0257115D01*
X0170317Y0257153D01*
X0170361Y0257195D01*
X0170403Y0257239D01*
X0170441Y0257285D01*
X0170477Y0257334D01*
X0170510Y0257385D01*
X0170539Y0257437D01*
X0170566Y0257492D01*
X0170589Y0257547D01*
X0170609Y0257604D01*
X0170625Y0257663D01*
X0170638Y0257722D01*
X0170647Y0257781D01*
X0170652Y0257842D01*
X0170654Y0257902D01*
X0101757Y0257902D02*
X0101757Y0268902D01*
X0101755Y0268962D01*
X0101750Y0269023D01*
X0101741Y0269082D01*
X0101728Y0269141D01*
X0101712Y0269200D01*
X0101692Y0269257D01*
X0101669Y0269312D01*
X0101642Y0269367D01*
X0101613Y0269419D01*
X0101580Y0269470D01*
X0101544Y0269519D01*
X0101506Y0269565D01*
X0101464Y0269609D01*
X0101420Y0269651D01*
X0101374Y0269689D01*
X0101325Y0269725D01*
X0101274Y0269758D01*
X0101222Y0269787D01*
X0101167Y0269814D01*
X0101112Y0269837D01*
X0101055Y0269857D01*
X0100996Y0269873D01*
X0100937Y0269886D01*
X0100878Y0269895D01*
X0100817Y0269900D01*
X0100757Y0269902D01*
X0094757Y0269902D01*
X0094697Y0269900D01*
X0094636Y0269895D01*
X0094577Y0269886D01*
X0094518Y0269873D01*
X0094459Y0269857D01*
X0094402Y0269837D01*
X0094347Y0269814D01*
X0094292Y0269787D01*
X0094240Y0269758D01*
X0094189Y0269725D01*
X0094140Y0269689D01*
X0094094Y0269651D01*
X0094050Y0269609D01*
X0094008Y0269565D01*
X0093970Y0269519D01*
X0093934Y0269470D01*
X0093901Y0269419D01*
X0093872Y0269367D01*
X0093845Y0269312D01*
X0093822Y0269257D01*
X0093802Y0269200D01*
X0093786Y0269141D01*
X0093773Y0269082D01*
X0093764Y0269023D01*
X0093759Y0268962D01*
X0093757Y0268902D01*
X0093757Y0257902D01*
X0093759Y0257842D01*
X0093764Y0257781D01*
X0093773Y0257722D01*
X0093786Y0257663D01*
X0093802Y0257604D01*
X0093822Y0257547D01*
X0093845Y0257492D01*
X0093872Y0257437D01*
X0093901Y0257385D01*
X0093934Y0257334D01*
X0093970Y0257285D01*
X0094008Y0257239D01*
X0094050Y0257195D01*
X0094094Y0257153D01*
X0094140Y0257115D01*
X0094189Y0257079D01*
X0094240Y0257046D01*
X0094292Y0257017D01*
X0094347Y0256990D01*
X0094402Y0256967D01*
X0094459Y0256947D01*
X0094518Y0256931D01*
X0094577Y0256918D01*
X0094636Y0256909D01*
X0094697Y0256904D01*
X0094757Y0256902D01*
X0100757Y0256902D01*
X0100817Y0256904D01*
X0100878Y0256909D01*
X0100937Y0256918D01*
X0100996Y0256931D01*
X0101055Y0256947D01*
X0101112Y0256967D01*
X0101167Y0256990D01*
X0101222Y0257017D01*
X0101274Y0257046D01*
X0101325Y0257079D01*
X0101374Y0257115D01*
X0101420Y0257153D01*
X0101464Y0257195D01*
X0101506Y0257239D01*
X0101544Y0257285D01*
X0101580Y0257334D01*
X0101613Y0257385D01*
X0101642Y0257437D01*
X0101669Y0257492D01*
X0101692Y0257547D01*
X0101712Y0257604D01*
X0101728Y0257663D01*
X0101741Y0257722D01*
X0101750Y0257781D01*
X0101755Y0257842D01*
X0101757Y0257902D01*
X0078791Y0257902D02*
X0078791Y0268902D01*
X0078789Y0268962D01*
X0078784Y0269023D01*
X0078775Y0269082D01*
X0078762Y0269141D01*
X0078746Y0269200D01*
X0078726Y0269257D01*
X0078703Y0269312D01*
X0078676Y0269367D01*
X0078647Y0269419D01*
X0078614Y0269470D01*
X0078578Y0269519D01*
X0078540Y0269565D01*
X0078498Y0269609D01*
X0078454Y0269651D01*
X0078408Y0269689D01*
X0078359Y0269725D01*
X0078308Y0269758D01*
X0078256Y0269787D01*
X0078201Y0269814D01*
X0078146Y0269837D01*
X0078089Y0269857D01*
X0078030Y0269873D01*
X0077971Y0269886D01*
X0077912Y0269895D01*
X0077851Y0269900D01*
X0077791Y0269902D01*
X0071791Y0269902D01*
X0071731Y0269900D01*
X0071670Y0269895D01*
X0071611Y0269886D01*
X0071552Y0269873D01*
X0071493Y0269857D01*
X0071436Y0269837D01*
X0071381Y0269814D01*
X0071326Y0269787D01*
X0071274Y0269758D01*
X0071223Y0269725D01*
X0071174Y0269689D01*
X0071128Y0269651D01*
X0071084Y0269609D01*
X0071042Y0269565D01*
X0071004Y0269519D01*
X0070968Y0269470D01*
X0070935Y0269419D01*
X0070906Y0269367D01*
X0070879Y0269312D01*
X0070856Y0269257D01*
X0070836Y0269200D01*
X0070820Y0269141D01*
X0070807Y0269082D01*
X0070798Y0269023D01*
X0070793Y0268962D01*
X0070791Y0268902D01*
X0070791Y0257902D01*
X0070793Y0257842D01*
X0070798Y0257781D01*
X0070807Y0257722D01*
X0070820Y0257663D01*
X0070836Y0257604D01*
X0070856Y0257547D01*
X0070879Y0257492D01*
X0070906Y0257437D01*
X0070935Y0257385D01*
X0070968Y0257334D01*
X0071004Y0257285D01*
X0071042Y0257239D01*
X0071084Y0257195D01*
X0071128Y0257153D01*
X0071174Y0257115D01*
X0071223Y0257079D01*
X0071274Y0257046D01*
X0071326Y0257017D01*
X0071381Y0256990D01*
X0071436Y0256967D01*
X0071493Y0256947D01*
X0071552Y0256931D01*
X0071611Y0256918D01*
X0071670Y0256909D01*
X0071731Y0256904D01*
X0071791Y0256902D01*
X0077791Y0256902D01*
X0077851Y0256904D01*
X0077912Y0256909D01*
X0077971Y0256918D01*
X0078030Y0256931D01*
X0078089Y0256947D01*
X0078146Y0256967D01*
X0078201Y0256990D01*
X0078256Y0257017D01*
X0078308Y0257046D01*
X0078359Y0257079D01*
X0078408Y0257115D01*
X0078454Y0257153D01*
X0078498Y0257195D01*
X0078540Y0257239D01*
X0078578Y0257285D01*
X0078614Y0257334D01*
X0078647Y0257385D01*
X0078676Y0257437D01*
X0078703Y0257492D01*
X0078726Y0257547D01*
X0078746Y0257604D01*
X0078762Y0257663D01*
X0078775Y0257722D01*
X0078784Y0257781D01*
X0078789Y0257842D01*
X0078791Y0257902D01*
D12*
X0080541Y0259652D02*
X0080603Y0259650D01*
X0080665Y0259644D01*
X0080726Y0259635D01*
X0080787Y0259622D01*
X0080846Y0259605D01*
X0080905Y0259585D01*
X0080962Y0259561D01*
X0081018Y0259533D01*
X0081072Y0259502D01*
X0081124Y0259468D01*
X0081173Y0259431D01*
X0081221Y0259391D01*
X0081266Y0259348D01*
X0081308Y0259303D01*
X0081347Y0259255D01*
X0081383Y0259204D01*
X0081416Y0259152D01*
X0082166Y0257777D01*
X0084041Y0258277D02*
X0084039Y0258357D01*
X0084034Y0258438D01*
X0084025Y0258518D01*
X0084013Y0258597D01*
X0083998Y0258676D01*
X0083979Y0258754D01*
X0083957Y0258832D01*
X0083932Y0258908D01*
X0083903Y0258983D01*
X0083871Y0259057D01*
X0083836Y0259129D01*
X0083798Y0259200D01*
X0083757Y0259269D01*
X0083713Y0259337D01*
X0083666Y0259402D01*
X0082166Y0257776D02*
X0082199Y0257724D01*
X0082235Y0257673D01*
X0082274Y0257625D01*
X0082316Y0257580D01*
X0082361Y0257537D01*
X0082409Y0257497D01*
X0082458Y0257460D01*
X0082510Y0257426D01*
X0082564Y0257395D01*
X0082620Y0257367D01*
X0082677Y0257343D01*
X0082736Y0257323D01*
X0082795Y0257306D01*
X0082856Y0257293D01*
X0082917Y0257284D01*
X0082979Y0257278D01*
X0083041Y0257276D01*
X0083041Y0257277D02*
X0083101Y0257279D01*
X0083162Y0257284D01*
X0083221Y0257293D01*
X0083280Y0257306D01*
X0083339Y0257322D01*
X0083396Y0257342D01*
X0083451Y0257365D01*
X0083506Y0257392D01*
X0083558Y0257421D01*
X0083609Y0257454D01*
X0083658Y0257490D01*
X0083704Y0257528D01*
X0083748Y0257570D01*
X0083790Y0257614D01*
X0083828Y0257660D01*
X0083864Y0257709D01*
X0083897Y0257760D01*
X0083926Y0257812D01*
X0083953Y0257867D01*
X0083976Y0257922D01*
X0083996Y0257979D01*
X0084012Y0258038D01*
X0084025Y0258097D01*
X0084034Y0258156D01*
X0084039Y0258217D01*
X0084041Y0258277D01*
X0080165Y0257152D02*
X0080104Y0257215D01*
X0080046Y0257280D01*
X0079990Y0257348D01*
X0079937Y0257419D01*
X0079888Y0257491D01*
X0079841Y0257565D01*
X0079797Y0257641D01*
X0079757Y0257719D01*
X0079720Y0257799D01*
X0079686Y0257880D01*
X0079656Y0257962D01*
X0079629Y0258046D01*
X0079605Y0258131D01*
X0079585Y0258216D01*
X0079569Y0258302D01*
X0079556Y0258389D01*
X0079547Y0258477D01*
X0079542Y0258564D01*
X0079540Y0258652D01*
X0079541Y0258652D02*
X0079543Y0258712D01*
X0079548Y0258773D01*
X0079557Y0258832D01*
X0079570Y0258891D01*
X0079586Y0258950D01*
X0079606Y0259007D01*
X0079629Y0259062D01*
X0079656Y0259117D01*
X0079685Y0259169D01*
X0079718Y0259220D01*
X0079754Y0259269D01*
X0079792Y0259315D01*
X0079834Y0259359D01*
X0079878Y0259401D01*
X0079924Y0259439D01*
X0079973Y0259475D01*
X0080024Y0259508D01*
X0080076Y0259537D01*
X0080131Y0259564D01*
X0080186Y0259587D01*
X0080243Y0259607D01*
X0080302Y0259623D01*
X0080361Y0259636D01*
X0080420Y0259645D01*
X0080481Y0259650D01*
X0080541Y0259652D01*
X0079541Y0261022D02*
X0079541Y0261522D01*
X0079543Y0261582D01*
X0079548Y0261643D01*
X0079557Y0261702D01*
X0079570Y0261761D01*
X0079586Y0261820D01*
X0079606Y0261877D01*
X0079629Y0261932D01*
X0079656Y0261987D01*
X0079685Y0262039D01*
X0079718Y0262090D01*
X0079754Y0262139D01*
X0079792Y0262185D01*
X0079834Y0262229D01*
X0079878Y0262271D01*
X0079924Y0262309D01*
X0079973Y0262345D01*
X0080024Y0262378D01*
X0080076Y0262407D01*
X0080131Y0262434D01*
X0080186Y0262457D01*
X0080243Y0262477D01*
X0080302Y0262493D01*
X0080361Y0262506D01*
X0080420Y0262515D01*
X0080481Y0262520D01*
X0080541Y0262522D01*
X0084041Y0262522D01*
X0083041Y0264652D02*
X0084041Y0265902D01*
X0079541Y0265902D01*
X0079541Y0264652D02*
X0079541Y0267152D01*
X0079541Y0269152D02*
X0079541Y0270402D01*
X0079543Y0270471D01*
X0079549Y0270540D01*
X0079558Y0270608D01*
X0079571Y0270675D01*
X0079588Y0270742D01*
X0079609Y0270808D01*
X0079633Y0270872D01*
X0079661Y0270935D01*
X0079692Y0270997D01*
X0079726Y0271057D01*
X0079764Y0271114D01*
X0079805Y0271170D01*
X0079848Y0271223D01*
X0079895Y0271274D01*
X0079944Y0271322D01*
X0079996Y0271367D01*
X0080051Y0271409D01*
X0080107Y0271448D01*
X0080166Y0271485D01*
X0080227Y0271517D01*
X0080289Y0271547D01*
X0080353Y0271573D01*
X0080418Y0271595D01*
X0080484Y0271614D01*
X0080551Y0271629D01*
X0080619Y0271640D01*
X0080688Y0271648D01*
X0080757Y0271652D01*
X0080825Y0271652D01*
X0080894Y0271648D01*
X0080963Y0271640D01*
X0081031Y0271629D01*
X0081098Y0271614D01*
X0081164Y0271595D01*
X0081229Y0271573D01*
X0081293Y0271547D01*
X0081355Y0271517D01*
X0081416Y0271485D01*
X0081475Y0271448D01*
X0081531Y0271409D01*
X0081586Y0271367D01*
X0081638Y0271322D01*
X0081687Y0271274D01*
X0081734Y0271223D01*
X0081777Y0271170D01*
X0081818Y0271114D01*
X0081856Y0271057D01*
X0081890Y0270997D01*
X0081921Y0270935D01*
X0081949Y0270872D01*
X0081973Y0270808D01*
X0081994Y0270742D01*
X0082011Y0270675D01*
X0082024Y0270608D01*
X0082033Y0270540D01*
X0082039Y0270471D01*
X0082041Y0270402D01*
X0082041Y0270652D02*
X0082041Y0269652D01*
X0082041Y0270652D02*
X0082043Y0270714D01*
X0082049Y0270775D01*
X0082058Y0270836D01*
X0082071Y0270896D01*
X0082088Y0270955D01*
X0082109Y0271013D01*
X0082133Y0271070D01*
X0082160Y0271125D01*
X0082191Y0271178D01*
X0082225Y0271230D01*
X0082262Y0271279D01*
X0082302Y0271326D01*
X0082345Y0271370D01*
X0082390Y0271411D01*
X0082438Y0271450D01*
X0082489Y0271486D01*
X0082541Y0271518D01*
X0082595Y0271547D01*
X0082651Y0271573D01*
X0082709Y0271595D01*
X0082767Y0271614D01*
X0082827Y0271629D01*
X0082888Y0271640D01*
X0082949Y0271648D01*
X0083010Y0271652D01*
X0083072Y0271652D01*
X0083133Y0271648D01*
X0083194Y0271640D01*
X0083255Y0271629D01*
X0083315Y0271614D01*
X0083373Y0271595D01*
X0083431Y0271573D01*
X0083487Y0271547D01*
X0083541Y0271518D01*
X0083593Y0271486D01*
X0083644Y0271450D01*
X0083692Y0271411D01*
X0083737Y0271370D01*
X0083780Y0271326D01*
X0083820Y0271279D01*
X0083857Y0271230D01*
X0083891Y0271178D01*
X0083922Y0271125D01*
X0083949Y0271070D01*
X0083973Y0271013D01*
X0083994Y0270955D01*
X0084011Y0270896D01*
X0084024Y0270836D01*
X0084033Y0270775D01*
X0084039Y0270714D01*
X0084041Y0270652D01*
X0084041Y0269152D01*
X0102507Y0270902D02*
X0104507Y0270902D01*
X0103507Y0271652D02*
X0103507Y0269152D01*
X0107007Y0270152D01*
X0107007Y0265902D02*
X0102507Y0265902D01*
X0102507Y0264652D02*
X0102507Y0267152D01*
X0106007Y0264652D02*
X0107007Y0265902D01*
X0107007Y0262522D02*
X0103507Y0262522D01*
X0103447Y0262520D01*
X0103386Y0262515D01*
X0103327Y0262506D01*
X0103268Y0262493D01*
X0103209Y0262477D01*
X0103152Y0262457D01*
X0103097Y0262434D01*
X0103042Y0262407D01*
X0102990Y0262378D01*
X0102939Y0262345D01*
X0102890Y0262309D01*
X0102844Y0262271D01*
X0102800Y0262229D01*
X0102758Y0262185D01*
X0102720Y0262139D01*
X0102684Y0262090D01*
X0102651Y0262039D01*
X0102622Y0261987D01*
X0102595Y0261932D01*
X0102572Y0261877D01*
X0102552Y0261820D01*
X0102536Y0261761D01*
X0102523Y0261702D01*
X0102514Y0261643D01*
X0102509Y0261582D01*
X0102507Y0261522D01*
X0102507Y0261022D01*
X0103507Y0259652D02*
X0103447Y0259650D01*
X0103386Y0259645D01*
X0103327Y0259636D01*
X0103268Y0259623D01*
X0103209Y0259607D01*
X0103152Y0259587D01*
X0103097Y0259564D01*
X0103042Y0259537D01*
X0102990Y0259508D01*
X0102939Y0259475D01*
X0102890Y0259439D01*
X0102844Y0259401D01*
X0102800Y0259359D01*
X0102758Y0259315D01*
X0102720Y0259269D01*
X0102684Y0259220D01*
X0102651Y0259169D01*
X0102622Y0259117D01*
X0102595Y0259062D01*
X0102572Y0259007D01*
X0102552Y0258950D01*
X0102536Y0258891D01*
X0102523Y0258832D01*
X0102514Y0258773D01*
X0102509Y0258712D01*
X0102507Y0258652D01*
X0103507Y0259652D02*
X0103569Y0259650D01*
X0103631Y0259644D01*
X0103692Y0259635D01*
X0103753Y0259622D01*
X0103812Y0259605D01*
X0103871Y0259585D01*
X0103928Y0259561D01*
X0103984Y0259533D01*
X0104038Y0259502D01*
X0104090Y0259468D01*
X0104139Y0259431D01*
X0104187Y0259391D01*
X0104232Y0259348D01*
X0104274Y0259303D01*
X0104313Y0259255D01*
X0104349Y0259204D01*
X0104382Y0259152D01*
X0105132Y0257777D01*
X0107007Y0258277D02*
X0107005Y0258357D01*
X0107000Y0258438D01*
X0106991Y0258518D01*
X0106979Y0258597D01*
X0106964Y0258676D01*
X0106945Y0258754D01*
X0106923Y0258832D01*
X0106898Y0258908D01*
X0106869Y0258983D01*
X0106837Y0259057D01*
X0106802Y0259129D01*
X0106764Y0259200D01*
X0106723Y0259269D01*
X0106679Y0259337D01*
X0106632Y0259402D01*
X0105132Y0257776D02*
X0105165Y0257724D01*
X0105201Y0257673D01*
X0105240Y0257625D01*
X0105282Y0257580D01*
X0105327Y0257537D01*
X0105375Y0257497D01*
X0105424Y0257460D01*
X0105476Y0257426D01*
X0105530Y0257395D01*
X0105586Y0257367D01*
X0105643Y0257343D01*
X0105702Y0257323D01*
X0105761Y0257306D01*
X0105822Y0257293D01*
X0105883Y0257284D01*
X0105945Y0257278D01*
X0106007Y0257276D01*
X0106007Y0257277D02*
X0106067Y0257279D01*
X0106128Y0257284D01*
X0106187Y0257293D01*
X0106246Y0257306D01*
X0106305Y0257322D01*
X0106362Y0257342D01*
X0106417Y0257365D01*
X0106472Y0257392D01*
X0106524Y0257421D01*
X0106575Y0257454D01*
X0106624Y0257490D01*
X0106670Y0257528D01*
X0106714Y0257570D01*
X0106756Y0257614D01*
X0106794Y0257660D01*
X0106830Y0257709D01*
X0106863Y0257760D01*
X0106892Y0257812D01*
X0106919Y0257867D01*
X0106942Y0257922D01*
X0106962Y0257979D01*
X0106978Y0258038D01*
X0106991Y0258097D01*
X0107000Y0258156D01*
X0107005Y0258217D01*
X0107007Y0258277D01*
X0103131Y0257152D02*
X0103070Y0257215D01*
X0103012Y0257280D01*
X0102956Y0257348D01*
X0102903Y0257419D01*
X0102854Y0257491D01*
X0102807Y0257565D01*
X0102763Y0257641D01*
X0102723Y0257719D01*
X0102686Y0257799D01*
X0102652Y0257880D01*
X0102622Y0257962D01*
X0102595Y0258046D01*
X0102571Y0258131D01*
X0102551Y0258216D01*
X0102535Y0258302D01*
X0102522Y0258389D01*
X0102513Y0258477D01*
X0102508Y0258564D01*
X0102506Y0258652D01*
X0054357Y0256569D02*
X0050857Y0256569D01*
X0050797Y0256567D01*
X0050736Y0256562D01*
X0050677Y0256553D01*
X0050618Y0256540D01*
X0050559Y0256524D01*
X0050502Y0256504D01*
X0050447Y0256481D01*
X0050392Y0256454D01*
X0050340Y0256425D01*
X0050289Y0256392D01*
X0050240Y0256356D01*
X0050194Y0256318D01*
X0050150Y0256276D01*
X0050108Y0256232D01*
X0050070Y0256186D01*
X0050034Y0256137D01*
X0050001Y0256086D01*
X0049972Y0256034D01*
X0049945Y0255979D01*
X0049922Y0255924D01*
X0049902Y0255867D01*
X0049886Y0255808D01*
X0049873Y0255749D01*
X0049864Y0255690D01*
X0049859Y0255629D01*
X0049857Y0255569D01*
X0049857Y0255069D01*
X0050857Y0253699D02*
X0050797Y0253697D01*
X0050736Y0253692D01*
X0050677Y0253683D01*
X0050618Y0253670D01*
X0050559Y0253654D01*
X0050502Y0253634D01*
X0050447Y0253611D01*
X0050392Y0253584D01*
X0050340Y0253555D01*
X0050289Y0253522D01*
X0050240Y0253486D01*
X0050194Y0253448D01*
X0050150Y0253406D01*
X0050108Y0253362D01*
X0050070Y0253316D01*
X0050034Y0253267D01*
X0050001Y0253216D01*
X0049972Y0253164D01*
X0049945Y0253109D01*
X0049922Y0253054D01*
X0049902Y0252997D01*
X0049886Y0252938D01*
X0049873Y0252879D01*
X0049864Y0252820D01*
X0049859Y0252759D01*
X0049857Y0252699D01*
X0050857Y0253699D02*
X0050919Y0253697D01*
X0050981Y0253691D01*
X0051042Y0253682D01*
X0051103Y0253669D01*
X0051162Y0253652D01*
X0051221Y0253632D01*
X0051278Y0253608D01*
X0051334Y0253580D01*
X0051388Y0253549D01*
X0051440Y0253515D01*
X0051489Y0253478D01*
X0051537Y0253438D01*
X0051582Y0253395D01*
X0051624Y0253350D01*
X0051663Y0253302D01*
X0051699Y0253251D01*
X0051732Y0253199D01*
X0052482Y0251824D01*
X0054357Y0252324D02*
X0054355Y0252404D01*
X0054350Y0252485D01*
X0054341Y0252565D01*
X0054329Y0252644D01*
X0054314Y0252723D01*
X0054295Y0252801D01*
X0054273Y0252879D01*
X0054248Y0252955D01*
X0054219Y0253030D01*
X0054187Y0253104D01*
X0054152Y0253176D01*
X0054114Y0253247D01*
X0054073Y0253316D01*
X0054029Y0253384D01*
X0053982Y0253449D01*
X0052482Y0251823D02*
X0052515Y0251771D01*
X0052551Y0251720D01*
X0052590Y0251672D01*
X0052632Y0251627D01*
X0052677Y0251584D01*
X0052725Y0251544D01*
X0052774Y0251507D01*
X0052826Y0251473D01*
X0052880Y0251442D01*
X0052936Y0251414D01*
X0052993Y0251390D01*
X0053052Y0251370D01*
X0053111Y0251353D01*
X0053172Y0251340D01*
X0053233Y0251331D01*
X0053295Y0251325D01*
X0053357Y0251323D01*
X0053357Y0251324D02*
X0053417Y0251326D01*
X0053478Y0251331D01*
X0053537Y0251340D01*
X0053596Y0251353D01*
X0053655Y0251369D01*
X0053712Y0251389D01*
X0053767Y0251412D01*
X0053822Y0251439D01*
X0053874Y0251468D01*
X0053925Y0251501D01*
X0053974Y0251537D01*
X0054020Y0251575D01*
X0054064Y0251617D01*
X0054106Y0251661D01*
X0054144Y0251707D01*
X0054180Y0251756D01*
X0054213Y0251807D01*
X0054242Y0251859D01*
X0054269Y0251914D01*
X0054292Y0251969D01*
X0054312Y0252026D01*
X0054328Y0252085D01*
X0054341Y0252144D01*
X0054350Y0252203D01*
X0054355Y0252264D01*
X0054357Y0252324D01*
X0050482Y0251199D02*
X0050421Y0251262D01*
X0050363Y0251327D01*
X0050307Y0251395D01*
X0050254Y0251466D01*
X0050205Y0251538D01*
X0050158Y0251612D01*
X0050114Y0251688D01*
X0050074Y0251766D01*
X0050037Y0251846D01*
X0050003Y0251927D01*
X0049973Y0252009D01*
X0049946Y0252093D01*
X0049922Y0252178D01*
X0049902Y0252263D01*
X0049886Y0252349D01*
X0049873Y0252436D01*
X0049864Y0252524D01*
X0049859Y0252611D01*
X0049857Y0252699D01*
X0052857Y0258699D02*
X0053107Y0258699D01*
X0052857Y0258699D02*
X0052797Y0258701D01*
X0052736Y0258706D01*
X0052677Y0258715D01*
X0052618Y0258728D01*
X0052559Y0258744D01*
X0052502Y0258764D01*
X0052447Y0258787D01*
X0052392Y0258814D01*
X0052340Y0258843D01*
X0052289Y0258876D01*
X0052240Y0258912D01*
X0052194Y0258950D01*
X0052150Y0258992D01*
X0052108Y0259036D01*
X0052070Y0259082D01*
X0052034Y0259131D01*
X0052001Y0259182D01*
X0051972Y0259234D01*
X0051945Y0259289D01*
X0051922Y0259344D01*
X0051902Y0259401D01*
X0051886Y0259460D01*
X0051873Y0259519D01*
X0051864Y0259578D01*
X0051859Y0259639D01*
X0051857Y0259699D01*
X0051857Y0261199D01*
X0053107Y0261199D01*
X0053176Y0261197D01*
X0053245Y0261191D01*
X0053313Y0261182D01*
X0053380Y0261169D01*
X0053447Y0261152D01*
X0053513Y0261131D01*
X0053577Y0261107D01*
X0053640Y0261079D01*
X0053702Y0261048D01*
X0053762Y0261014D01*
X0053819Y0260976D01*
X0053875Y0260935D01*
X0053928Y0260892D01*
X0053979Y0260845D01*
X0054027Y0260796D01*
X0054072Y0260744D01*
X0054114Y0260689D01*
X0054153Y0260633D01*
X0054190Y0260574D01*
X0054222Y0260513D01*
X0054252Y0260451D01*
X0054278Y0260387D01*
X0054300Y0260322D01*
X0054319Y0260256D01*
X0054334Y0260189D01*
X0054345Y0260121D01*
X0054353Y0260052D01*
X0054357Y0259983D01*
X0054357Y0259915D01*
X0054353Y0259846D01*
X0054345Y0259777D01*
X0054334Y0259709D01*
X0054319Y0259642D01*
X0054300Y0259576D01*
X0054278Y0259511D01*
X0054252Y0259447D01*
X0054222Y0259385D01*
X0054190Y0259324D01*
X0054153Y0259265D01*
X0054114Y0259209D01*
X0054072Y0259154D01*
X0054027Y0259102D01*
X0053979Y0259053D01*
X0053928Y0259006D01*
X0053875Y0258963D01*
X0053819Y0258922D01*
X0053762Y0258884D01*
X0053702Y0258850D01*
X0053640Y0258819D01*
X0053577Y0258791D01*
X0053513Y0258767D01*
X0053447Y0258746D01*
X0053380Y0258729D01*
X0053313Y0258716D01*
X0053245Y0258707D01*
X0053176Y0258701D01*
X0053107Y0258699D01*
X0051857Y0261199D02*
X0051770Y0261197D01*
X0051683Y0261191D01*
X0051596Y0261182D01*
X0051510Y0261169D01*
X0051424Y0261152D01*
X0051339Y0261131D01*
X0051256Y0261106D01*
X0051173Y0261078D01*
X0051092Y0261047D01*
X0051012Y0261012D01*
X0050934Y0260973D01*
X0050857Y0260931D01*
X0050782Y0260886D01*
X0050710Y0260837D01*
X0050639Y0260786D01*
X0050571Y0260731D01*
X0050506Y0260674D01*
X0050443Y0260613D01*
X0050382Y0260550D01*
X0050325Y0260485D01*
X0050270Y0260417D01*
X0050219Y0260346D01*
X0050170Y0260274D01*
X0050125Y0260199D01*
X0050083Y0260122D01*
X0050044Y0260044D01*
X0050009Y0259964D01*
X0049978Y0259883D01*
X0049950Y0259800D01*
X0049925Y0259717D01*
X0049904Y0259632D01*
X0049887Y0259546D01*
X0049874Y0259460D01*
X0049865Y0259373D01*
X0049859Y0259286D01*
X0049857Y0259199D01*
X0038437Y0262522D02*
X0034937Y0262522D01*
X0034877Y0262520D01*
X0034816Y0262515D01*
X0034757Y0262506D01*
X0034698Y0262493D01*
X0034639Y0262477D01*
X0034582Y0262457D01*
X0034527Y0262434D01*
X0034472Y0262407D01*
X0034420Y0262378D01*
X0034369Y0262345D01*
X0034320Y0262309D01*
X0034274Y0262271D01*
X0034230Y0262229D01*
X0034188Y0262185D01*
X0034150Y0262139D01*
X0034114Y0262090D01*
X0034081Y0262039D01*
X0034052Y0261987D01*
X0034025Y0261932D01*
X0034002Y0261877D01*
X0033982Y0261820D01*
X0033966Y0261761D01*
X0033953Y0261702D01*
X0033944Y0261643D01*
X0033939Y0261582D01*
X0033937Y0261522D01*
X0033937Y0261022D01*
X0034937Y0259652D02*
X0034877Y0259650D01*
X0034816Y0259645D01*
X0034757Y0259636D01*
X0034698Y0259623D01*
X0034639Y0259607D01*
X0034582Y0259587D01*
X0034527Y0259564D01*
X0034472Y0259537D01*
X0034420Y0259508D01*
X0034369Y0259475D01*
X0034320Y0259439D01*
X0034274Y0259401D01*
X0034230Y0259359D01*
X0034188Y0259315D01*
X0034150Y0259269D01*
X0034114Y0259220D01*
X0034081Y0259169D01*
X0034052Y0259117D01*
X0034025Y0259062D01*
X0034002Y0259007D01*
X0033982Y0258950D01*
X0033966Y0258891D01*
X0033953Y0258832D01*
X0033944Y0258773D01*
X0033939Y0258712D01*
X0033937Y0258652D01*
X0034937Y0259652D02*
X0034999Y0259650D01*
X0035061Y0259644D01*
X0035122Y0259635D01*
X0035183Y0259622D01*
X0035242Y0259605D01*
X0035301Y0259585D01*
X0035358Y0259561D01*
X0035414Y0259533D01*
X0035468Y0259502D01*
X0035520Y0259468D01*
X0035569Y0259431D01*
X0035617Y0259391D01*
X0035662Y0259348D01*
X0035704Y0259303D01*
X0035743Y0259255D01*
X0035779Y0259204D01*
X0035812Y0259152D01*
X0036562Y0257777D01*
X0038437Y0258277D02*
X0038435Y0258357D01*
X0038430Y0258438D01*
X0038421Y0258518D01*
X0038409Y0258597D01*
X0038394Y0258676D01*
X0038375Y0258754D01*
X0038353Y0258832D01*
X0038328Y0258908D01*
X0038299Y0258983D01*
X0038267Y0259057D01*
X0038232Y0259129D01*
X0038194Y0259200D01*
X0038153Y0259269D01*
X0038109Y0259337D01*
X0038062Y0259402D01*
X0036562Y0257776D02*
X0036595Y0257724D01*
X0036631Y0257673D01*
X0036670Y0257625D01*
X0036712Y0257580D01*
X0036757Y0257537D01*
X0036805Y0257497D01*
X0036854Y0257460D01*
X0036906Y0257426D01*
X0036960Y0257395D01*
X0037016Y0257367D01*
X0037073Y0257343D01*
X0037132Y0257323D01*
X0037191Y0257306D01*
X0037252Y0257293D01*
X0037313Y0257284D01*
X0037375Y0257278D01*
X0037437Y0257276D01*
X0037437Y0257277D02*
X0037497Y0257279D01*
X0037558Y0257284D01*
X0037617Y0257293D01*
X0037676Y0257306D01*
X0037735Y0257322D01*
X0037792Y0257342D01*
X0037847Y0257365D01*
X0037902Y0257392D01*
X0037954Y0257421D01*
X0038005Y0257454D01*
X0038054Y0257490D01*
X0038100Y0257528D01*
X0038144Y0257570D01*
X0038186Y0257614D01*
X0038224Y0257660D01*
X0038260Y0257709D01*
X0038293Y0257760D01*
X0038322Y0257812D01*
X0038349Y0257867D01*
X0038372Y0257922D01*
X0038392Y0257979D01*
X0038408Y0258038D01*
X0038421Y0258097D01*
X0038430Y0258156D01*
X0038435Y0258217D01*
X0038437Y0258277D01*
X0034562Y0257152D02*
X0034501Y0257215D01*
X0034443Y0257280D01*
X0034387Y0257348D01*
X0034334Y0257419D01*
X0034285Y0257491D01*
X0034238Y0257565D01*
X0034194Y0257641D01*
X0034154Y0257719D01*
X0034117Y0257799D01*
X0034083Y0257880D01*
X0034053Y0257962D01*
X0034026Y0258046D01*
X0034002Y0258131D01*
X0033982Y0258216D01*
X0033966Y0258302D01*
X0033953Y0258389D01*
X0033944Y0258477D01*
X0033939Y0258564D01*
X0033937Y0258652D01*
X0033937Y0264652D02*
X0033937Y0267152D01*
X0033937Y0265902D02*
X0038437Y0265902D01*
X0037437Y0264652D01*
X0033937Y0269152D02*
X0033937Y0271652D01*
X0033937Y0269152D02*
X0036437Y0271277D01*
X0038437Y0270527D02*
X0038435Y0270454D01*
X0038430Y0270382D01*
X0038421Y0270310D01*
X0038408Y0270238D01*
X0038392Y0270167D01*
X0038372Y0270097D01*
X0038348Y0270029D01*
X0038322Y0269961D01*
X0038291Y0269895D01*
X0038258Y0269830D01*
X0038221Y0269768D01*
X0038182Y0269707D01*
X0038139Y0269648D01*
X0038093Y0269591D01*
X0038045Y0269537D01*
X0037994Y0269486D01*
X0037940Y0269436D01*
X0037884Y0269390D01*
X0037826Y0269347D01*
X0037765Y0269306D01*
X0037703Y0269269D01*
X0037639Y0269235D01*
X0037573Y0269204D01*
X0037506Y0269176D01*
X0037437Y0269152D01*
X0036437Y0271276D02*
X0036483Y0271322D01*
X0036532Y0271366D01*
X0036583Y0271406D01*
X0036636Y0271444D01*
X0036691Y0271479D01*
X0036748Y0271511D01*
X0036806Y0271540D01*
X0036866Y0271566D01*
X0036928Y0271588D01*
X0036990Y0271607D01*
X0037053Y0271623D01*
X0037117Y0271635D01*
X0037182Y0271644D01*
X0037247Y0271649D01*
X0037312Y0271651D01*
X0037312Y0271652D02*
X0037377Y0271650D01*
X0037443Y0271644D01*
X0037507Y0271635D01*
X0037571Y0271622D01*
X0037635Y0271605D01*
X0037697Y0271584D01*
X0037758Y0271560D01*
X0037817Y0271532D01*
X0037875Y0271501D01*
X0037930Y0271467D01*
X0037984Y0271429D01*
X0038035Y0271389D01*
X0038084Y0271345D01*
X0038130Y0271299D01*
X0038174Y0271250D01*
X0038214Y0271199D01*
X0038252Y0271145D01*
X0038286Y0271090D01*
X0038317Y0271032D01*
X0038345Y0270973D01*
X0038369Y0270912D01*
X0038390Y0270850D01*
X0038407Y0270786D01*
X0038420Y0270722D01*
X0038429Y0270658D01*
X0038435Y0270592D01*
X0038437Y0270527D01*
X0171404Y0270402D02*
X0175904Y0270402D01*
X0174904Y0269152D01*
X0175904Y0265902D02*
X0171404Y0265902D01*
X0171404Y0264652D02*
X0171404Y0267152D01*
X0171404Y0269152D02*
X0171404Y0271652D01*
X0175904Y0265902D02*
X0174904Y0264652D01*
X0175904Y0262522D02*
X0172404Y0262522D01*
X0172344Y0262520D01*
X0172283Y0262515D01*
X0172224Y0262506D01*
X0172165Y0262493D01*
X0172106Y0262477D01*
X0172049Y0262457D01*
X0171994Y0262434D01*
X0171939Y0262407D01*
X0171887Y0262378D01*
X0171836Y0262345D01*
X0171787Y0262309D01*
X0171741Y0262271D01*
X0171697Y0262229D01*
X0171655Y0262185D01*
X0171617Y0262139D01*
X0171581Y0262090D01*
X0171548Y0262039D01*
X0171519Y0261987D01*
X0171492Y0261932D01*
X0171469Y0261877D01*
X0171449Y0261820D01*
X0171433Y0261761D01*
X0171420Y0261702D01*
X0171411Y0261643D01*
X0171406Y0261582D01*
X0171404Y0261522D01*
X0171404Y0261022D01*
X0172404Y0259652D02*
X0172344Y0259650D01*
X0172283Y0259645D01*
X0172224Y0259636D01*
X0172165Y0259623D01*
X0172106Y0259607D01*
X0172049Y0259587D01*
X0171994Y0259564D01*
X0171939Y0259537D01*
X0171887Y0259508D01*
X0171836Y0259475D01*
X0171787Y0259439D01*
X0171741Y0259401D01*
X0171697Y0259359D01*
X0171655Y0259315D01*
X0171617Y0259269D01*
X0171581Y0259220D01*
X0171548Y0259169D01*
X0171519Y0259117D01*
X0171492Y0259062D01*
X0171469Y0259007D01*
X0171449Y0258950D01*
X0171433Y0258891D01*
X0171420Y0258832D01*
X0171411Y0258773D01*
X0171406Y0258712D01*
X0171404Y0258652D01*
X0172404Y0259652D02*
X0172466Y0259650D01*
X0172528Y0259644D01*
X0172589Y0259635D01*
X0172650Y0259622D01*
X0172709Y0259605D01*
X0172768Y0259585D01*
X0172825Y0259561D01*
X0172881Y0259533D01*
X0172935Y0259502D01*
X0172987Y0259468D01*
X0173036Y0259431D01*
X0173084Y0259391D01*
X0173129Y0259348D01*
X0173171Y0259303D01*
X0173210Y0259255D01*
X0173246Y0259204D01*
X0173279Y0259152D01*
X0174029Y0257777D01*
X0175904Y0258277D02*
X0175902Y0258357D01*
X0175897Y0258438D01*
X0175888Y0258518D01*
X0175876Y0258597D01*
X0175861Y0258676D01*
X0175842Y0258754D01*
X0175820Y0258832D01*
X0175795Y0258908D01*
X0175766Y0258983D01*
X0175734Y0259057D01*
X0175699Y0259129D01*
X0175661Y0259200D01*
X0175620Y0259269D01*
X0175576Y0259337D01*
X0175529Y0259402D01*
X0174029Y0257776D02*
X0174062Y0257724D01*
X0174098Y0257673D01*
X0174137Y0257625D01*
X0174179Y0257580D01*
X0174224Y0257537D01*
X0174272Y0257497D01*
X0174321Y0257460D01*
X0174373Y0257426D01*
X0174427Y0257395D01*
X0174483Y0257367D01*
X0174540Y0257343D01*
X0174599Y0257323D01*
X0174658Y0257306D01*
X0174719Y0257293D01*
X0174780Y0257284D01*
X0174842Y0257278D01*
X0174904Y0257276D01*
X0174904Y0257277D02*
X0174964Y0257279D01*
X0175025Y0257284D01*
X0175084Y0257293D01*
X0175143Y0257306D01*
X0175202Y0257322D01*
X0175259Y0257342D01*
X0175314Y0257365D01*
X0175369Y0257392D01*
X0175421Y0257421D01*
X0175472Y0257454D01*
X0175521Y0257490D01*
X0175567Y0257528D01*
X0175611Y0257570D01*
X0175653Y0257614D01*
X0175691Y0257660D01*
X0175727Y0257709D01*
X0175760Y0257760D01*
X0175789Y0257812D01*
X0175816Y0257867D01*
X0175839Y0257922D01*
X0175859Y0257979D01*
X0175875Y0258038D01*
X0175888Y0258097D01*
X0175897Y0258156D01*
X0175902Y0258217D01*
X0175904Y0258277D01*
X0172029Y0257152D02*
X0171968Y0257215D01*
X0171910Y0257280D01*
X0171854Y0257348D01*
X0171801Y0257419D01*
X0171752Y0257491D01*
X0171705Y0257565D01*
X0171661Y0257641D01*
X0171621Y0257719D01*
X0171584Y0257799D01*
X0171550Y0257880D01*
X0171520Y0257962D01*
X0171493Y0258046D01*
X0171469Y0258131D01*
X0171449Y0258216D01*
X0171433Y0258302D01*
X0171420Y0258389D01*
X0171411Y0258477D01*
X0171406Y0258564D01*
X0171404Y0258652D01*
X0186824Y0243608D02*
X0186826Y0243546D01*
X0186832Y0243485D01*
X0186841Y0243424D01*
X0186854Y0243364D01*
X0186871Y0243305D01*
X0186892Y0243247D01*
X0186916Y0243190D01*
X0186943Y0243135D01*
X0186974Y0243082D01*
X0187008Y0243030D01*
X0187045Y0242981D01*
X0187085Y0242934D01*
X0187128Y0242890D01*
X0187173Y0242849D01*
X0187221Y0242810D01*
X0187272Y0242774D01*
X0187324Y0242742D01*
X0187378Y0242713D01*
X0187434Y0242687D01*
X0187492Y0242665D01*
X0187550Y0242646D01*
X0187610Y0242631D01*
X0187671Y0242620D01*
X0187732Y0242612D01*
X0187793Y0242608D01*
X0187855Y0242608D01*
X0187916Y0242612D01*
X0187977Y0242620D01*
X0188038Y0242631D01*
X0188098Y0242646D01*
X0188156Y0242665D01*
X0188214Y0242687D01*
X0188270Y0242713D01*
X0188324Y0242742D01*
X0188376Y0242774D01*
X0188427Y0242810D01*
X0188475Y0242849D01*
X0188520Y0242890D01*
X0188563Y0242934D01*
X0188603Y0242981D01*
X0188640Y0243030D01*
X0188674Y0243082D01*
X0188705Y0243135D01*
X0188732Y0243190D01*
X0188756Y0243247D01*
X0188777Y0243305D01*
X0188794Y0243364D01*
X0188807Y0243424D01*
X0188816Y0243485D01*
X0188822Y0243546D01*
X0188824Y0243608D01*
X0188822Y0243670D01*
X0188816Y0243731D01*
X0188807Y0243792D01*
X0188794Y0243852D01*
X0188777Y0243911D01*
X0188756Y0243969D01*
X0188732Y0244026D01*
X0188705Y0244081D01*
X0188674Y0244134D01*
X0188640Y0244186D01*
X0188603Y0244235D01*
X0188563Y0244282D01*
X0188520Y0244326D01*
X0188475Y0244367D01*
X0188427Y0244406D01*
X0188376Y0244442D01*
X0188324Y0244474D01*
X0188270Y0244503D01*
X0188214Y0244529D01*
X0188156Y0244551D01*
X0188098Y0244570D01*
X0188038Y0244585D01*
X0187977Y0244596D01*
X0187916Y0244604D01*
X0187855Y0244608D01*
X0187793Y0244608D01*
X0187732Y0244604D01*
X0187671Y0244596D01*
X0187610Y0244585D01*
X0187550Y0244570D01*
X0187492Y0244551D01*
X0187434Y0244529D01*
X0187378Y0244503D01*
X0187324Y0244474D01*
X0187272Y0244442D01*
X0187221Y0244406D01*
X0187173Y0244367D01*
X0187128Y0244326D01*
X0187085Y0244282D01*
X0187045Y0244235D01*
X0187008Y0244186D01*
X0186974Y0244134D01*
X0186943Y0244081D01*
X0186916Y0244026D01*
X0186892Y0243969D01*
X0186871Y0243911D01*
X0186854Y0243852D01*
X0186841Y0243792D01*
X0186832Y0243731D01*
X0186826Y0243670D01*
X0186824Y0243608D01*
X0186574Y0241358D02*
X0186576Y0241289D01*
X0186582Y0241220D01*
X0186591Y0241152D01*
X0186604Y0241085D01*
X0186621Y0241018D01*
X0186642Y0240952D01*
X0186666Y0240888D01*
X0186694Y0240825D01*
X0186725Y0240763D01*
X0186759Y0240703D01*
X0186797Y0240646D01*
X0186838Y0240590D01*
X0186881Y0240537D01*
X0186928Y0240486D01*
X0186977Y0240438D01*
X0187029Y0240393D01*
X0187084Y0240351D01*
X0187140Y0240312D01*
X0187199Y0240275D01*
X0187260Y0240243D01*
X0187322Y0240213D01*
X0187386Y0240187D01*
X0187451Y0240165D01*
X0187517Y0240146D01*
X0187584Y0240131D01*
X0187652Y0240120D01*
X0187721Y0240112D01*
X0187790Y0240108D01*
X0187858Y0240108D01*
X0187927Y0240112D01*
X0187996Y0240120D01*
X0188064Y0240131D01*
X0188131Y0240146D01*
X0188197Y0240165D01*
X0188262Y0240187D01*
X0188326Y0240213D01*
X0188388Y0240243D01*
X0188449Y0240275D01*
X0188508Y0240312D01*
X0188564Y0240351D01*
X0188619Y0240393D01*
X0188671Y0240438D01*
X0188720Y0240486D01*
X0188767Y0240537D01*
X0188810Y0240590D01*
X0188851Y0240646D01*
X0188889Y0240703D01*
X0188923Y0240763D01*
X0188954Y0240825D01*
X0188982Y0240888D01*
X0189006Y0240952D01*
X0189027Y0241018D01*
X0189044Y0241085D01*
X0189057Y0241152D01*
X0189066Y0241220D01*
X0189072Y0241289D01*
X0189074Y0241358D01*
X0189072Y0241427D01*
X0189066Y0241496D01*
X0189057Y0241564D01*
X0189044Y0241631D01*
X0189027Y0241698D01*
X0189006Y0241764D01*
X0188982Y0241828D01*
X0188954Y0241891D01*
X0188923Y0241953D01*
X0188889Y0242013D01*
X0188851Y0242070D01*
X0188810Y0242126D01*
X0188767Y0242179D01*
X0188720Y0242230D01*
X0188671Y0242278D01*
X0188619Y0242323D01*
X0188564Y0242365D01*
X0188508Y0242404D01*
X0188449Y0242441D01*
X0188388Y0242473D01*
X0188326Y0242503D01*
X0188262Y0242529D01*
X0188197Y0242551D01*
X0188131Y0242570D01*
X0188064Y0242585D01*
X0187996Y0242596D01*
X0187927Y0242604D01*
X0187858Y0242608D01*
X0187790Y0242608D01*
X0187721Y0242604D01*
X0187652Y0242596D01*
X0187584Y0242585D01*
X0187517Y0242570D01*
X0187451Y0242551D01*
X0187386Y0242529D01*
X0187322Y0242503D01*
X0187260Y0242473D01*
X0187199Y0242441D01*
X0187140Y0242404D01*
X0187084Y0242365D01*
X0187029Y0242323D01*
X0186977Y0242278D01*
X0186928Y0242230D01*
X0186881Y0242179D01*
X0186838Y0242126D01*
X0186797Y0242070D01*
X0186759Y0242013D01*
X0186725Y0241953D01*
X0186694Y0241891D01*
X0186666Y0241828D01*
X0186642Y0241764D01*
X0186621Y0241698D01*
X0186604Y0241631D01*
X0186591Y0241564D01*
X0186582Y0241496D01*
X0186576Y0241427D01*
X0186574Y0241358D01*
X0191203Y0241108D02*
X0191203Y0244608D01*
X0191203Y0241108D02*
X0191205Y0241048D01*
X0191210Y0240987D01*
X0191219Y0240928D01*
X0191232Y0240869D01*
X0191248Y0240810D01*
X0191268Y0240753D01*
X0191291Y0240698D01*
X0191318Y0240643D01*
X0191347Y0240591D01*
X0191380Y0240540D01*
X0191416Y0240491D01*
X0191454Y0240445D01*
X0191496Y0240401D01*
X0191540Y0240359D01*
X0191586Y0240321D01*
X0191635Y0240285D01*
X0191686Y0240252D01*
X0191738Y0240223D01*
X0191793Y0240196D01*
X0191848Y0240173D01*
X0191905Y0240153D01*
X0191964Y0240137D01*
X0192023Y0240124D01*
X0192082Y0240115D01*
X0192143Y0240110D01*
X0192203Y0240108D01*
X0192703Y0240108D01*
X0194074Y0241108D02*
X0194076Y0241048D01*
X0194081Y0240987D01*
X0194090Y0240928D01*
X0194103Y0240869D01*
X0194119Y0240810D01*
X0194139Y0240753D01*
X0194162Y0240698D01*
X0194189Y0240643D01*
X0194218Y0240591D01*
X0194251Y0240540D01*
X0194287Y0240491D01*
X0194325Y0240445D01*
X0194367Y0240401D01*
X0194411Y0240359D01*
X0194457Y0240321D01*
X0194506Y0240285D01*
X0194557Y0240252D01*
X0194609Y0240223D01*
X0194664Y0240196D01*
X0194719Y0240173D01*
X0194776Y0240153D01*
X0194835Y0240137D01*
X0194894Y0240124D01*
X0194953Y0240115D01*
X0195014Y0240110D01*
X0195074Y0240108D01*
X0194073Y0241108D02*
X0194075Y0241170D01*
X0194081Y0241232D01*
X0194090Y0241293D01*
X0194103Y0241354D01*
X0194120Y0241413D01*
X0194140Y0241472D01*
X0194164Y0241529D01*
X0194192Y0241585D01*
X0194223Y0241639D01*
X0194257Y0241691D01*
X0194294Y0241740D01*
X0194334Y0241788D01*
X0194377Y0241833D01*
X0194422Y0241875D01*
X0194470Y0241914D01*
X0194521Y0241950D01*
X0194573Y0241983D01*
X0194574Y0241983D02*
X0195949Y0242733D01*
X0195449Y0244608D02*
X0195369Y0244606D01*
X0195288Y0244601D01*
X0195208Y0244592D01*
X0195129Y0244580D01*
X0195050Y0244565D01*
X0194972Y0244546D01*
X0194894Y0244524D01*
X0194818Y0244499D01*
X0194743Y0244470D01*
X0194669Y0244438D01*
X0194597Y0244403D01*
X0194526Y0244365D01*
X0194457Y0244324D01*
X0194389Y0244280D01*
X0194324Y0244233D01*
X0195949Y0242733D02*
X0196001Y0242766D01*
X0196052Y0242802D01*
X0196100Y0242841D01*
X0196145Y0242883D01*
X0196188Y0242928D01*
X0196228Y0242976D01*
X0196265Y0243025D01*
X0196299Y0243077D01*
X0196330Y0243131D01*
X0196358Y0243187D01*
X0196382Y0243244D01*
X0196402Y0243303D01*
X0196419Y0243362D01*
X0196432Y0243423D01*
X0196441Y0243484D01*
X0196447Y0243546D01*
X0196449Y0243608D01*
X0196447Y0243668D01*
X0196442Y0243729D01*
X0196433Y0243788D01*
X0196420Y0243847D01*
X0196404Y0243906D01*
X0196384Y0243963D01*
X0196361Y0244018D01*
X0196334Y0244073D01*
X0196305Y0244125D01*
X0196272Y0244176D01*
X0196236Y0244225D01*
X0196198Y0244271D01*
X0196156Y0244315D01*
X0196112Y0244357D01*
X0196066Y0244395D01*
X0196017Y0244431D01*
X0195966Y0244464D01*
X0195914Y0244493D01*
X0195859Y0244520D01*
X0195804Y0244543D01*
X0195747Y0244563D01*
X0195688Y0244579D01*
X0195629Y0244592D01*
X0195570Y0244601D01*
X0195509Y0244606D01*
X0195449Y0244608D01*
X0196574Y0240733D02*
X0196511Y0240672D01*
X0196446Y0240614D01*
X0196378Y0240558D01*
X0196307Y0240505D01*
X0196235Y0240456D01*
X0196161Y0240409D01*
X0196085Y0240365D01*
X0196007Y0240325D01*
X0195927Y0240288D01*
X0195846Y0240254D01*
X0195764Y0240224D01*
X0195680Y0240197D01*
X0195595Y0240173D01*
X0195510Y0240153D01*
X0195424Y0240137D01*
X0195337Y0240124D01*
X0195249Y0240115D01*
X0195162Y0240110D01*
X0195074Y0240108D01*
X0172404Y0094907D02*
X0172404Y0092407D01*
X0175904Y0093407D01*
X0173404Y0094157D02*
X0171404Y0094157D01*
X0172404Y0090278D02*
X0175904Y0090278D01*
X0173279Y0086907D02*
X0174029Y0085532D01*
X0175904Y0086032D02*
X0175902Y0086112D01*
X0175897Y0086193D01*
X0175888Y0086273D01*
X0175876Y0086352D01*
X0175861Y0086431D01*
X0175842Y0086509D01*
X0175820Y0086587D01*
X0175795Y0086663D01*
X0175766Y0086738D01*
X0175734Y0086812D01*
X0175699Y0086884D01*
X0175661Y0086955D01*
X0175620Y0087024D01*
X0175576Y0087092D01*
X0175529Y0087157D01*
X0174029Y0085532D02*
X0174062Y0085480D01*
X0174098Y0085429D01*
X0174137Y0085381D01*
X0174179Y0085336D01*
X0174224Y0085293D01*
X0174272Y0085253D01*
X0174321Y0085216D01*
X0174373Y0085182D01*
X0174427Y0085151D01*
X0174483Y0085123D01*
X0174540Y0085099D01*
X0174599Y0085079D01*
X0174658Y0085062D01*
X0174719Y0085049D01*
X0174780Y0085040D01*
X0174842Y0085034D01*
X0174904Y0085032D01*
X0174964Y0085034D01*
X0175025Y0085039D01*
X0175084Y0085048D01*
X0175143Y0085061D01*
X0175202Y0085077D01*
X0175259Y0085097D01*
X0175314Y0085120D01*
X0175369Y0085147D01*
X0175421Y0085176D01*
X0175472Y0085209D01*
X0175521Y0085245D01*
X0175567Y0085283D01*
X0175611Y0085325D01*
X0175653Y0085369D01*
X0175691Y0085415D01*
X0175727Y0085464D01*
X0175760Y0085515D01*
X0175789Y0085567D01*
X0175816Y0085622D01*
X0175839Y0085677D01*
X0175859Y0085734D01*
X0175875Y0085793D01*
X0175888Y0085852D01*
X0175897Y0085911D01*
X0175902Y0085972D01*
X0175904Y0086032D01*
X0172029Y0084907D02*
X0171968Y0084970D01*
X0171910Y0085035D01*
X0171854Y0085103D01*
X0171801Y0085174D01*
X0171752Y0085246D01*
X0171705Y0085320D01*
X0171661Y0085396D01*
X0171621Y0085474D01*
X0171584Y0085554D01*
X0171550Y0085635D01*
X0171520Y0085717D01*
X0171493Y0085801D01*
X0171469Y0085886D01*
X0171449Y0085971D01*
X0171433Y0086057D01*
X0171420Y0086144D01*
X0171411Y0086232D01*
X0171406Y0086319D01*
X0171404Y0086407D01*
X0171406Y0086467D01*
X0171411Y0086528D01*
X0171420Y0086587D01*
X0171433Y0086646D01*
X0171449Y0086705D01*
X0171469Y0086762D01*
X0171492Y0086817D01*
X0171519Y0086872D01*
X0171548Y0086924D01*
X0171581Y0086975D01*
X0171617Y0087024D01*
X0171655Y0087070D01*
X0171697Y0087114D01*
X0171741Y0087156D01*
X0171787Y0087194D01*
X0171836Y0087230D01*
X0171887Y0087263D01*
X0171939Y0087292D01*
X0171994Y0087319D01*
X0172049Y0087342D01*
X0172106Y0087362D01*
X0172165Y0087378D01*
X0172224Y0087391D01*
X0172283Y0087400D01*
X0172344Y0087405D01*
X0172404Y0087407D01*
X0172404Y0087408D02*
X0172466Y0087406D01*
X0172528Y0087400D01*
X0172589Y0087391D01*
X0172650Y0087378D01*
X0172709Y0087361D01*
X0172768Y0087341D01*
X0172825Y0087317D01*
X0172881Y0087289D01*
X0172935Y0087258D01*
X0172987Y0087224D01*
X0173036Y0087187D01*
X0173084Y0087147D01*
X0173129Y0087104D01*
X0173171Y0087059D01*
X0173210Y0087011D01*
X0173246Y0086960D01*
X0173279Y0086908D01*
X0171404Y0089278D02*
X0171406Y0089338D01*
X0171411Y0089399D01*
X0171420Y0089458D01*
X0171433Y0089517D01*
X0171449Y0089576D01*
X0171469Y0089633D01*
X0171492Y0089688D01*
X0171519Y0089743D01*
X0171548Y0089795D01*
X0171581Y0089846D01*
X0171617Y0089895D01*
X0171655Y0089941D01*
X0171697Y0089985D01*
X0171741Y0090027D01*
X0171787Y0090065D01*
X0171836Y0090101D01*
X0171887Y0090134D01*
X0171939Y0090163D01*
X0171994Y0090190D01*
X0172049Y0090213D01*
X0172106Y0090233D01*
X0172165Y0090249D01*
X0172224Y0090262D01*
X0172283Y0090271D01*
X0172344Y0090276D01*
X0172404Y0090278D01*
X0171404Y0089278D02*
X0171404Y0088778D01*
X0187824Y0072364D02*
X0187824Y0067864D01*
X0189074Y0067864D02*
X0186574Y0067864D01*
X0189074Y0071364D02*
X0187824Y0072364D01*
X0191203Y0072364D02*
X0191203Y0068864D01*
X0191205Y0068804D01*
X0191210Y0068743D01*
X0191219Y0068684D01*
X0191232Y0068625D01*
X0191248Y0068566D01*
X0191268Y0068509D01*
X0191291Y0068454D01*
X0191318Y0068399D01*
X0191347Y0068347D01*
X0191380Y0068296D01*
X0191416Y0068247D01*
X0191454Y0068201D01*
X0191496Y0068157D01*
X0191540Y0068115D01*
X0191586Y0068077D01*
X0191635Y0068041D01*
X0191686Y0068008D01*
X0191738Y0067979D01*
X0191793Y0067952D01*
X0191848Y0067929D01*
X0191905Y0067909D01*
X0191964Y0067893D01*
X0192023Y0067880D01*
X0192082Y0067871D01*
X0192143Y0067866D01*
X0192203Y0067864D01*
X0192703Y0067864D01*
X0194074Y0068864D02*
X0194076Y0068804D01*
X0194081Y0068743D01*
X0194090Y0068684D01*
X0194103Y0068625D01*
X0194119Y0068566D01*
X0194139Y0068509D01*
X0194162Y0068454D01*
X0194189Y0068399D01*
X0194218Y0068347D01*
X0194251Y0068296D01*
X0194287Y0068247D01*
X0194325Y0068201D01*
X0194367Y0068157D01*
X0194411Y0068115D01*
X0194457Y0068077D01*
X0194506Y0068041D01*
X0194557Y0068008D01*
X0194609Y0067979D01*
X0194664Y0067952D01*
X0194719Y0067929D01*
X0194776Y0067909D01*
X0194835Y0067893D01*
X0194894Y0067880D01*
X0194953Y0067871D01*
X0195014Y0067866D01*
X0195074Y0067864D01*
X0194073Y0068864D02*
X0194075Y0068926D01*
X0194081Y0068988D01*
X0194090Y0069049D01*
X0194103Y0069110D01*
X0194120Y0069169D01*
X0194140Y0069228D01*
X0194164Y0069285D01*
X0194192Y0069341D01*
X0194223Y0069395D01*
X0194257Y0069447D01*
X0194294Y0069496D01*
X0194334Y0069544D01*
X0194377Y0069589D01*
X0194422Y0069631D01*
X0194470Y0069670D01*
X0194521Y0069706D01*
X0194573Y0069739D01*
X0194574Y0069739D02*
X0195949Y0070489D01*
X0195449Y0072364D02*
X0195369Y0072362D01*
X0195288Y0072357D01*
X0195208Y0072348D01*
X0195129Y0072336D01*
X0195050Y0072321D01*
X0194972Y0072302D01*
X0194894Y0072280D01*
X0194818Y0072255D01*
X0194743Y0072226D01*
X0194669Y0072194D01*
X0194597Y0072159D01*
X0194526Y0072121D01*
X0194457Y0072080D01*
X0194389Y0072036D01*
X0194324Y0071989D01*
X0195949Y0070489D02*
X0196001Y0070522D01*
X0196052Y0070558D01*
X0196100Y0070597D01*
X0196145Y0070639D01*
X0196188Y0070684D01*
X0196228Y0070732D01*
X0196265Y0070781D01*
X0196299Y0070833D01*
X0196330Y0070887D01*
X0196358Y0070943D01*
X0196382Y0071000D01*
X0196402Y0071059D01*
X0196419Y0071118D01*
X0196432Y0071179D01*
X0196441Y0071240D01*
X0196447Y0071302D01*
X0196449Y0071364D01*
X0196447Y0071424D01*
X0196442Y0071485D01*
X0196433Y0071544D01*
X0196420Y0071603D01*
X0196404Y0071662D01*
X0196384Y0071719D01*
X0196361Y0071774D01*
X0196334Y0071829D01*
X0196305Y0071881D01*
X0196272Y0071932D01*
X0196236Y0071981D01*
X0196198Y0072027D01*
X0196156Y0072071D01*
X0196112Y0072113D01*
X0196066Y0072151D01*
X0196017Y0072187D01*
X0195966Y0072220D01*
X0195914Y0072249D01*
X0195859Y0072276D01*
X0195804Y0072299D01*
X0195747Y0072319D01*
X0195688Y0072335D01*
X0195629Y0072348D01*
X0195570Y0072357D01*
X0195509Y0072362D01*
X0195449Y0072364D01*
X0196574Y0068489D02*
X0196511Y0068428D01*
X0196446Y0068370D01*
X0196378Y0068314D01*
X0196307Y0068261D01*
X0196235Y0068212D01*
X0196161Y0068165D01*
X0196085Y0068121D01*
X0196007Y0068081D01*
X0195927Y0068044D01*
X0195846Y0068010D01*
X0195764Y0067980D01*
X0195680Y0067953D01*
X0195595Y0067929D01*
X0195510Y0067909D01*
X0195424Y0067893D01*
X0195337Y0067880D01*
X0195249Y0067871D01*
X0195162Y0067866D01*
X0195074Y0067864D01*
X0107007Y0090278D02*
X0103507Y0090278D01*
X0103447Y0090276D01*
X0103386Y0090271D01*
X0103327Y0090262D01*
X0103268Y0090249D01*
X0103209Y0090233D01*
X0103152Y0090213D01*
X0103097Y0090190D01*
X0103042Y0090163D01*
X0102990Y0090134D01*
X0102939Y0090101D01*
X0102890Y0090065D01*
X0102844Y0090027D01*
X0102800Y0089985D01*
X0102758Y0089941D01*
X0102720Y0089895D01*
X0102684Y0089846D01*
X0102651Y0089795D01*
X0102622Y0089743D01*
X0102595Y0089688D01*
X0102572Y0089633D01*
X0102552Y0089576D01*
X0102536Y0089517D01*
X0102523Y0089458D01*
X0102514Y0089399D01*
X0102509Y0089338D01*
X0102507Y0089278D01*
X0102507Y0088778D01*
X0103507Y0087407D02*
X0103447Y0087405D01*
X0103386Y0087400D01*
X0103327Y0087391D01*
X0103268Y0087378D01*
X0103209Y0087362D01*
X0103152Y0087342D01*
X0103097Y0087319D01*
X0103042Y0087292D01*
X0102990Y0087263D01*
X0102939Y0087230D01*
X0102890Y0087194D01*
X0102844Y0087156D01*
X0102800Y0087114D01*
X0102758Y0087070D01*
X0102720Y0087024D01*
X0102684Y0086975D01*
X0102651Y0086924D01*
X0102622Y0086872D01*
X0102595Y0086817D01*
X0102572Y0086762D01*
X0102552Y0086705D01*
X0102536Y0086646D01*
X0102523Y0086587D01*
X0102514Y0086528D01*
X0102509Y0086467D01*
X0102507Y0086407D01*
X0103507Y0087408D02*
X0103569Y0087406D01*
X0103631Y0087400D01*
X0103692Y0087391D01*
X0103753Y0087378D01*
X0103812Y0087361D01*
X0103871Y0087341D01*
X0103928Y0087317D01*
X0103984Y0087289D01*
X0104038Y0087258D01*
X0104090Y0087224D01*
X0104139Y0087187D01*
X0104187Y0087147D01*
X0104232Y0087104D01*
X0104274Y0087059D01*
X0104313Y0087011D01*
X0104349Y0086960D01*
X0104382Y0086908D01*
X0104382Y0086907D02*
X0105132Y0085532D01*
X0107007Y0086032D02*
X0107005Y0086112D01*
X0107000Y0086193D01*
X0106991Y0086273D01*
X0106979Y0086352D01*
X0106964Y0086431D01*
X0106945Y0086509D01*
X0106923Y0086587D01*
X0106898Y0086663D01*
X0106869Y0086738D01*
X0106837Y0086812D01*
X0106802Y0086884D01*
X0106764Y0086955D01*
X0106723Y0087024D01*
X0106679Y0087092D01*
X0106632Y0087157D01*
X0105132Y0085532D02*
X0105165Y0085480D01*
X0105201Y0085429D01*
X0105240Y0085381D01*
X0105282Y0085336D01*
X0105327Y0085293D01*
X0105375Y0085253D01*
X0105424Y0085216D01*
X0105476Y0085182D01*
X0105530Y0085151D01*
X0105586Y0085123D01*
X0105643Y0085099D01*
X0105702Y0085079D01*
X0105761Y0085062D01*
X0105822Y0085049D01*
X0105883Y0085040D01*
X0105945Y0085034D01*
X0106007Y0085032D01*
X0106067Y0085034D01*
X0106128Y0085039D01*
X0106187Y0085048D01*
X0106246Y0085061D01*
X0106305Y0085077D01*
X0106362Y0085097D01*
X0106417Y0085120D01*
X0106472Y0085147D01*
X0106524Y0085176D01*
X0106575Y0085209D01*
X0106624Y0085245D01*
X0106670Y0085283D01*
X0106714Y0085325D01*
X0106756Y0085369D01*
X0106794Y0085415D01*
X0106830Y0085464D01*
X0106863Y0085515D01*
X0106892Y0085567D01*
X0106919Y0085622D01*
X0106942Y0085677D01*
X0106962Y0085734D01*
X0106978Y0085793D01*
X0106991Y0085852D01*
X0107000Y0085911D01*
X0107005Y0085972D01*
X0107007Y0086032D01*
X0103131Y0084907D02*
X0103070Y0084970D01*
X0103012Y0085035D01*
X0102956Y0085103D01*
X0102903Y0085174D01*
X0102854Y0085246D01*
X0102807Y0085320D01*
X0102763Y0085396D01*
X0102723Y0085474D01*
X0102686Y0085554D01*
X0102652Y0085635D01*
X0102622Y0085717D01*
X0102595Y0085801D01*
X0102571Y0085886D01*
X0102551Y0085971D01*
X0102535Y0086057D01*
X0102522Y0086144D01*
X0102513Y0086232D01*
X0102508Y0086319D01*
X0102506Y0086407D01*
X0106507Y0092407D02*
X0107007Y0092407D01*
X0107007Y0094907D01*
X0102507Y0093657D01*
X0084041Y0090278D02*
X0080541Y0090278D01*
X0080481Y0090276D01*
X0080420Y0090271D01*
X0080361Y0090262D01*
X0080302Y0090249D01*
X0080243Y0090233D01*
X0080186Y0090213D01*
X0080131Y0090190D01*
X0080076Y0090163D01*
X0080024Y0090134D01*
X0079973Y0090101D01*
X0079924Y0090065D01*
X0079878Y0090027D01*
X0079834Y0089985D01*
X0079792Y0089941D01*
X0079754Y0089895D01*
X0079718Y0089846D01*
X0079685Y0089795D01*
X0079656Y0089743D01*
X0079629Y0089688D01*
X0079606Y0089633D01*
X0079586Y0089576D01*
X0079570Y0089517D01*
X0079557Y0089458D01*
X0079548Y0089399D01*
X0079543Y0089338D01*
X0079541Y0089278D01*
X0079541Y0088778D01*
X0080541Y0087407D02*
X0080481Y0087405D01*
X0080420Y0087400D01*
X0080361Y0087391D01*
X0080302Y0087378D01*
X0080243Y0087362D01*
X0080186Y0087342D01*
X0080131Y0087319D01*
X0080076Y0087292D01*
X0080024Y0087263D01*
X0079973Y0087230D01*
X0079924Y0087194D01*
X0079878Y0087156D01*
X0079834Y0087114D01*
X0079792Y0087070D01*
X0079754Y0087024D01*
X0079718Y0086975D01*
X0079685Y0086924D01*
X0079656Y0086872D01*
X0079629Y0086817D01*
X0079606Y0086762D01*
X0079586Y0086705D01*
X0079570Y0086646D01*
X0079557Y0086587D01*
X0079548Y0086528D01*
X0079543Y0086467D01*
X0079541Y0086407D01*
X0080541Y0087408D02*
X0080603Y0087406D01*
X0080665Y0087400D01*
X0080726Y0087391D01*
X0080787Y0087378D01*
X0080846Y0087361D01*
X0080905Y0087341D01*
X0080962Y0087317D01*
X0081018Y0087289D01*
X0081072Y0087258D01*
X0081124Y0087224D01*
X0081173Y0087187D01*
X0081221Y0087147D01*
X0081266Y0087104D01*
X0081308Y0087059D01*
X0081347Y0087011D01*
X0081383Y0086960D01*
X0081416Y0086908D01*
X0081416Y0086907D02*
X0082166Y0085532D01*
X0084041Y0086032D02*
X0084039Y0086112D01*
X0084034Y0086193D01*
X0084025Y0086273D01*
X0084013Y0086352D01*
X0083998Y0086431D01*
X0083979Y0086509D01*
X0083957Y0086587D01*
X0083932Y0086663D01*
X0083903Y0086738D01*
X0083871Y0086812D01*
X0083836Y0086884D01*
X0083798Y0086955D01*
X0083757Y0087024D01*
X0083713Y0087092D01*
X0083666Y0087157D01*
X0082166Y0085532D02*
X0082199Y0085480D01*
X0082235Y0085429D01*
X0082274Y0085381D01*
X0082316Y0085336D01*
X0082361Y0085293D01*
X0082409Y0085253D01*
X0082458Y0085216D01*
X0082510Y0085182D01*
X0082564Y0085151D01*
X0082620Y0085123D01*
X0082677Y0085099D01*
X0082736Y0085079D01*
X0082795Y0085062D01*
X0082856Y0085049D01*
X0082917Y0085040D01*
X0082979Y0085034D01*
X0083041Y0085032D01*
X0083101Y0085034D01*
X0083162Y0085039D01*
X0083221Y0085048D01*
X0083280Y0085061D01*
X0083339Y0085077D01*
X0083396Y0085097D01*
X0083451Y0085120D01*
X0083506Y0085147D01*
X0083558Y0085176D01*
X0083609Y0085209D01*
X0083658Y0085245D01*
X0083704Y0085283D01*
X0083748Y0085325D01*
X0083790Y0085369D01*
X0083828Y0085415D01*
X0083864Y0085464D01*
X0083897Y0085515D01*
X0083926Y0085567D01*
X0083953Y0085622D01*
X0083976Y0085677D01*
X0083996Y0085734D01*
X0084012Y0085793D01*
X0084025Y0085852D01*
X0084034Y0085911D01*
X0084039Y0085972D01*
X0084041Y0086032D01*
X0080165Y0084907D02*
X0080104Y0084970D01*
X0080046Y0085035D01*
X0079990Y0085103D01*
X0079937Y0085174D01*
X0079888Y0085246D01*
X0079841Y0085320D01*
X0079797Y0085396D01*
X0079757Y0085474D01*
X0079720Y0085554D01*
X0079686Y0085635D01*
X0079656Y0085717D01*
X0079629Y0085801D01*
X0079605Y0085886D01*
X0079585Y0085971D01*
X0079569Y0086057D01*
X0079556Y0086144D01*
X0079547Y0086232D01*
X0079542Y0086319D01*
X0079540Y0086407D01*
X0080791Y0092407D02*
X0082041Y0092407D01*
X0082041Y0093907D01*
X0082041Y0092407D02*
X0082128Y0092409D01*
X0082215Y0092415D01*
X0082302Y0092424D01*
X0082388Y0092437D01*
X0082474Y0092454D01*
X0082559Y0092475D01*
X0082642Y0092500D01*
X0082725Y0092528D01*
X0082806Y0092559D01*
X0082886Y0092594D01*
X0082964Y0092633D01*
X0083041Y0092675D01*
X0083116Y0092720D01*
X0083188Y0092769D01*
X0083259Y0092820D01*
X0083327Y0092875D01*
X0083392Y0092932D01*
X0083455Y0092993D01*
X0083516Y0093056D01*
X0083573Y0093121D01*
X0083628Y0093189D01*
X0083679Y0093260D01*
X0083728Y0093332D01*
X0083773Y0093407D01*
X0083815Y0093484D01*
X0083854Y0093562D01*
X0083889Y0093642D01*
X0083920Y0093723D01*
X0083948Y0093806D01*
X0083973Y0093889D01*
X0083994Y0093974D01*
X0084011Y0094060D01*
X0084024Y0094146D01*
X0084033Y0094233D01*
X0084039Y0094320D01*
X0084041Y0094407D01*
X0082041Y0093907D02*
X0082039Y0093967D01*
X0082034Y0094028D01*
X0082025Y0094087D01*
X0082012Y0094146D01*
X0081996Y0094205D01*
X0081976Y0094262D01*
X0081953Y0094317D01*
X0081926Y0094372D01*
X0081897Y0094424D01*
X0081864Y0094475D01*
X0081828Y0094524D01*
X0081790Y0094570D01*
X0081748Y0094614D01*
X0081704Y0094656D01*
X0081658Y0094694D01*
X0081609Y0094730D01*
X0081558Y0094763D01*
X0081506Y0094792D01*
X0081451Y0094819D01*
X0081396Y0094842D01*
X0081339Y0094862D01*
X0081280Y0094878D01*
X0081221Y0094891D01*
X0081162Y0094900D01*
X0081101Y0094905D01*
X0081041Y0094907D01*
X0080791Y0094907D01*
X0080722Y0094905D01*
X0080653Y0094899D01*
X0080585Y0094890D01*
X0080518Y0094877D01*
X0080451Y0094860D01*
X0080385Y0094839D01*
X0080321Y0094815D01*
X0080258Y0094787D01*
X0080196Y0094756D01*
X0080136Y0094722D01*
X0080079Y0094684D01*
X0080023Y0094643D01*
X0079970Y0094600D01*
X0079919Y0094553D01*
X0079871Y0094504D01*
X0079826Y0094452D01*
X0079784Y0094397D01*
X0079745Y0094341D01*
X0079708Y0094282D01*
X0079676Y0094221D01*
X0079646Y0094159D01*
X0079620Y0094095D01*
X0079598Y0094030D01*
X0079579Y0093964D01*
X0079564Y0093897D01*
X0079553Y0093829D01*
X0079545Y0093760D01*
X0079541Y0093691D01*
X0079541Y0093623D01*
X0079545Y0093554D01*
X0079553Y0093485D01*
X0079564Y0093417D01*
X0079579Y0093350D01*
X0079598Y0093284D01*
X0079620Y0093219D01*
X0079646Y0093155D01*
X0079676Y0093093D01*
X0079708Y0093032D01*
X0079745Y0092973D01*
X0079784Y0092917D01*
X0079826Y0092862D01*
X0079871Y0092810D01*
X0079919Y0092761D01*
X0079970Y0092714D01*
X0080023Y0092671D01*
X0080079Y0092630D01*
X0080136Y0092592D01*
X0080196Y0092558D01*
X0080258Y0092527D01*
X0080321Y0092499D01*
X0080385Y0092475D01*
X0080451Y0092454D01*
X0080518Y0092437D01*
X0080585Y0092424D01*
X0080653Y0092415D01*
X0080722Y0092409D01*
X0080791Y0092407D01*
X0054357Y0084325D02*
X0050857Y0084325D01*
X0050797Y0084323D01*
X0050736Y0084318D01*
X0050677Y0084309D01*
X0050618Y0084296D01*
X0050559Y0084280D01*
X0050502Y0084260D01*
X0050447Y0084237D01*
X0050392Y0084210D01*
X0050340Y0084181D01*
X0050289Y0084148D01*
X0050240Y0084112D01*
X0050194Y0084074D01*
X0050150Y0084032D01*
X0050108Y0083988D01*
X0050070Y0083942D01*
X0050034Y0083893D01*
X0050001Y0083842D01*
X0049972Y0083790D01*
X0049945Y0083735D01*
X0049922Y0083680D01*
X0049902Y0083623D01*
X0049886Y0083564D01*
X0049873Y0083505D01*
X0049864Y0083446D01*
X0049859Y0083385D01*
X0049857Y0083325D01*
X0049857Y0082825D01*
X0050857Y0081455D02*
X0050797Y0081453D01*
X0050736Y0081448D01*
X0050677Y0081439D01*
X0050618Y0081426D01*
X0050559Y0081410D01*
X0050502Y0081390D01*
X0050447Y0081367D01*
X0050392Y0081340D01*
X0050340Y0081311D01*
X0050289Y0081278D01*
X0050240Y0081242D01*
X0050194Y0081204D01*
X0050150Y0081162D01*
X0050108Y0081118D01*
X0050070Y0081072D01*
X0050034Y0081023D01*
X0050001Y0080972D01*
X0049972Y0080920D01*
X0049945Y0080865D01*
X0049922Y0080810D01*
X0049902Y0080753D01*
X0049886Y0080694D01*
X0049873Y0080635D01*
X0049864Y0080576D01*
X0049859Y0080515D01*
X0049857Y0080455D01*
X0050857Y0081455D02*
X0050919Y0081453D01*
X0050981Y0081447D01*
X0051042Y0081438D01*
X0051103Y0081425D01*
X0051162Y0081408D01*
X0051221Y0081388D01*
X0051278Y0081364D01*
X0051334Y0081336D01*
X0051388Y0081305D01*
X0051440Y0081271D01*
X0051489Y0081234D01*
X0051537Y0081194D01*
X0051582Y0081151D01*
X0051624Y0081106D01*
X0051663Y0081058D01*
X0051699Y0081007D01*
X0051732Y0080955D01*
X0052482Y0079580D01*
X0054357Y0080080D02*
X0054355Y0080160D01*
X0054350Y0080241D01*
X0054341Y0080321D01*
X0054329Y0080400D01*
X0054314Y0080479D01*
X0054295Y0080557D01*
X0054273Y0080635D01*
X0054248Y0080711D01*
X0054219Y0080786D01*
X0054187Y0080860D01*
X0054152Y0080932D01*
X0054114Y0081003D01*
X0054073Y0081072D01*
X0054029Y0081140D01*
X0053982Y0081205D01*
X0052482Y0079579D02*
X0052515Y0079527D01*
X0052551Y0079476D01*
X0052590Y0079428D01*
X0052632Y0079383D01*
X0052677Y0079340D01*
X0052725Y0079300D01*
X0052774Y0079263D01*
X0052826Y0079229D01*
X0052880Y0079198D01*
X0052936Y0079170D01*
X0052993Y0079146D01*
X0053052Y0079126D01*
X0053111Y0079109D01*
X0053172Y0079096D01*
X0053233Y0079087D01*
X0053295Y0079081D01*
X0053357Y0079079D01*
X0053357Y0079080D02*
X0053417Y0079082D01*
X0053478Y0079087D01*
X0053537Y0079096D01*
X0053596Y0079109D01*
X0053655Y0079125D01*
X0053712Y0079145D01*
X0053767Y0079168D01*
X0053822Y0079195D01*
X0053874Y0079224D01*
X0053925Y0079257D01*
X0053974Y0079293D01*
X0054020Y0079331D01*
X0054064Y0079373D01*
X0054106Y0079417D01*
X0054144Y0079463D01*
X0054180Y0079512D01*
X0054213Y0079563D01*
X0054242Y0079615D01*
X0054269Y0079670D01*
X0054292Y0079725D01*
X0054312Y0079782D01*
X0054328Y0079841D01*
X0054341Y0079900D01*
X0054350Y0079959D01*
X0054355Y0080020D01*
X0054357Y0080080D01*
X0050482Y0078955D02*
X0050421Y0079018D01*
X0050363Y0079083D01*
X0050307Y0079151D01*
X0050254Y0079222D01*
X0050205Y0079294D01*
X0050158Y0079368D01*
X0050114Y0079444D01*
X0050074Y0079522D01*
X0050037Y0079602D01*
X0050003Y0079683D01*
X0049973Y0079765D01*
X0049946Y0079849D01*
X0049922Y0079934D01*
X0049902Y0080019D01*
X0049886Y0080105D01*
X0049873Y0080192D01*
X0049864Y0080280D01*
X0049859Y0080367D01*
X0049857Y0080455D01*
X0049857Y0086455D02*
X0049857Y0088955D01*
X0049857Y0086455D02*
X0052357Y0088580D01*
X0054357Y0087830D02*
X0054355Y0087757D01*
X0054350Y0087685D01*
X0054341Y0087613D01*
X0054328Y0087541D01*
X0054312Y0087470D01*
X0054292Y0087400D01*
X0054268Y0087332D01*
X0054242Y0087264D01*
X0054211Y0087198D01*
X0054178Y0087133D01*
X0054141Y0087071D01*
X0054102Y0087010D01*
X0054059Y0086951D01*
X0054013Y0086894D01*
X0053965Y0086840D01*
X0053914Y0086789D01*
X0053860Y0086739D01*
X0053804Y0086693D01*
X0053746Y0086650D01*
X0053685Y0086609D01*
X0053623Y0086572D01*
X0053559Y0086538D01*
X0053493Y0086507D01*
X0053426Y0086479D01*
X0053357Y0086455D01*
X0052357Y0088579D02*
X0052403Y0088625D01*
X0052452Y0088669D01*
X0052503Y0088709D01*
X0052556Y0088747D01*
X0052611Y0088782D01*
X0052668Y0088814D01*
X0052726Y0088843D01*
X0052786Y0088869D01*
X0052848Y0088891D01*
X0052910Y0088910D01*
X0052973Y0088926D01*
X0053037Y0088938D01*
X0053102Y0088947D01*
X0053167Y0088952D01*
X0053232Y0088954D01*
X0053232Y0088955D02*
X0053297Y0088953D01*
X0053363Y0088947D01*
X0053427Y0088938D01*
X0053491Y0088925D01*
X0053555Y0088908D01*
X0053617Y0088887D01*
X0053678Y0088863D01*
X0053737Y0088835D01*
X0053795Y0088804D01*
X0053850Y0088770D01*
X0053904Y0088732D01*
X0053955Y0088692D01*
X0054004Y0088648D01*
X0054050Y0088602D01*
X0054094Y0088553D01*
X0054134Y0088502D01*
X0054172Y0088448D01*
X0054206Y0088393D01*
X0054237Y0088335D01*
X0054265Y0088276D01*
X0054289Y0088215D01*
X0054310Y0088153D01*
X0054327Y0088089D01*
X0054340Y0088025D01*
X0054349Y0087961D01*
X0054355Y0087895D01*
X0054357Y0087830D01*
X0038437Y0090278D02*
X0034937Y0090278D01*
X0034877Y0090276D01*
X0034816Y0090271D01*
X0034757Y0090262D01*
X0034698Y0090249D01*
X0034639Y0090233D01*
X0034582Y0090213D01*
X0034527Y0090190D01*
X0034472Y0090163D01*
X0034420Y0090134D01*
X0034369Y0090101D01*
X0034320Y0090065D01*
X0034274Y0090027D01*
X0034230Y0089985D01*
X0034188Y0089941D01*
X0034150Y0089895D01*
X0034114Y0089846D01*
X0034081Y0089795D01*
X0034052Y0089743D01*
X0034025Y0089688D01*
X0034002Y0089633D01*
X0033982Y0089576D01*
X0033966Y0089517D01*
X0033953Y0089458D01*
X0033944Y0089399D01*
X0033939Y0089338D01*
X0033937Y0089278D01*
X0033937Y0088778D01*
X0034937Y0087407D02*
X0034877Y0087405D01*
X0034816Y0087400D01*
X0034757Y0087391D01*
X0034698Y0087378D01*
X0034639Y0087362D01*
X0034582Y0087342D01*
X0034527Y0087319D01*
X0034472Y0087292D01*
X0034420Y0087263D01*
X0034369Y0087230D01*
X0034320Y0087194D01*
X0034274Y0087156D01*
X0034230Y0087114D01*
X0034188Y0087070D01*
X0034150Y0087024D01*
X0034114Y0086975D01*
X0034081Y0086924D01*
X0034052Y0086872D01*
X0034025Y0086817D01*
X0034002Y0086762D01*
X0033982Y0086705D01*
X0033966Y0086646D01*
X0033953Y0086587D01*
X0033944Y0086528D01*
X0033939Y0086467D01*
X0033937Y0086407D01*
X0034937Y0087408D02*
X0034999Y0087406D01*
X0035061Y0087400D01*
X0035122Y0087391D01*
X0035183Y0087378D01*
X0035242Y0087361D01*
X0035301Y0087341D01*
X0035358Y0087317D01*
X0035414Y0087289D01*
X0035468Y0087258D01*
X0035520Y0087224D01*
X0035569Y0087187D01*
X0035617Y0087147D01*
X0035662Y0087104D01*
X0035704Y0087059D01*
X0035743Y0087011D01*
X0035779Y0086960D01*
X0035812Y0086908D01*
X0035812Y0086907D02*
X0036562Y0085532D01*
X0038437Y0086032D02*
X0038435Y0086112D01*
X0038430Y0086193D01*
X0038421Y0086273D01*
X0038409Y0086352D01*
X0038394Y0086431D01*
X0038375Y0086509D01*
X0038353Y0086587D01*
X0038328Y0086663D01*
X0038299Y0086738D01*
X0038267Y0086812D01*
X0038232Y0086884D01*
X0038194Y0086955D01*
X0038153Y0087024D01*
X0038109Y0087092D01*
X0038062Y0087157D01*
X0036562Y0085532D02*
X0036595Y0085480D01*
X0036631Y0085429D01*
X0036670Y0085381D01*
X0036712Y0085336D01*
X0036757Y0085293D01*
X0036805Y0085253D01*
X0036854Y0085216D01*
X0036906Y0085182D01*
X0036960Y0085151D01*
X0037016Y0085123D01*
X0037073Y0085099D01*
X0037132Y0085079D01*
X0037191Y0085062D01*
X0037252Y0085049D01*
X0037313Y0085040D01*
X0037375Y0085034D01*
X0037437Y0085032D01*
X0037497Y0085034D01*
X0037558Y0085039D01*
X0037617Y0085048D01*
X0037676Y0085061D01*
X0037735Y0085077D01*
X0037792Y0085097D01*
X0037847Y0085120D01*
X0037902Y0085147D01*
X0037954Y0085176D01*
X0038005Y0085209D01*
X0038054Y0085245D01*
X0038100Y0085283D01*
X0038144Y0085325D01*
X0038186Y0085369D01*
X0038224Y0085415D01*
X0038260Y0085464D01*
X0038293Y0085515D01*
X0038322Y0085567D01*
X0038349Y0085622D01*
X0038372Y0085677D01*
X0038392Y0085734D01*
X0038408Y0085793D01*
X0038421Y0085852D01*
X0038430Y0085911D01*
X0038435Y0085972D01*
X0038437Y0086032D01*
X0034562Y0084907D02*
X0034501Y0084970D01*
X0034443Y0085035D01*
X0034387Y0085103D01*
X0034334Y0085174D01*
X0034285Y0085246D01*
X0034238Y0085320D01*
X0034194Y0085396D01*
X0034154Y0085474D01*
X0034117Y0085554D01*
X0034083Y0085635D01*
X0034053Y0085717D01*
X0034026Y0085801D01*
X0034002Y0085886D01*
X0033982Y0085971D01*
X0033966Y0086057D01*
X0033953Y0086144D01*
X0033944Y0086232D01*
X0033939Y0086319D01*
X0033937Y0086407D01*
X0033937Y0092407D02*
X0033937Y0093907D01*
X0033939Y0093967D01*
X0033944Y0094028D01*
X0033953Y0094087D01*
X0033966Y0094146D01*
X0033982Y0094205D01*
X0034002Y0094262D01*
X0034025Y0094317D01*
X0034052Y0094372D01*
X0034081Y0094424D01*
X0034114Y0094475D01*
X0034150Y0094524D01*
X0034188Y0094570D01*
X0034230Y0094614D01*
X0034274Y0094656D01*
X0034320Y0094694D01*
X0034369Y0094730D01*
X0034420Y0094763D01*
X0034472Y0094792D01*
X0034527Y0094819D01*
X0034582Y0094842D01*
X0034639Y0094862D01*
X0034698Y0094878D01*
X0034757Y0094891D01*
X0034816Y0094900D01*
X0034877Y0094905D01*
X0034937Y0094907D01*
X0035437Y0094907D01*
X0035497Y0094905D01*
X0035558Y0094900D01*
X0035617Y0094891D01*
X0035676Y0094878D01*
X0035735Y0094862D01*
X0035792Y0094842D01*
X0035847Y0094819D01*
X0035902Y0094792D01*
X0035954Y0094763D01*
X0036005Y0094730D01*
X0036054Y0094694D01*
X0036100Y0094656D01*
X0036144Y0094614D01*
X0036186Y0094570D01*
X0036224Y0094524D01*
X0036260Y0094475D01*
X0036293Y0094424D01*
X0036322Y0094372D01*
X0036349Y0094317D01*
X0036372Y0094262D01*
X0036392Y0094205D01*
X0036408Y0094146D01*
X0036421Y0094087D01*
X0036430Y0094028D01*
X0036435Y0093967D01*
X0036437Y0093907D01*
X0036437Y0092407D01*
X0038437Y0092407D01*
X0038437Y0094907D01*
M02*
