G75*
%MOIN*%
%OFA0B0*%
%FSLAX25Y25*%
%IPPOS*%
%LPD*%
%AMOC8*
5,1,8,0,0,1.08239X$1,22.5*
%
%ADD10C,0.07050*%
%ADD11C,0.06000*%
%ADD12OC8,0.05200*%
%ADD13C,0.05937*%
%ADD14C,0.01181*%
%ADD15C,0.02978*%
%ADD16C,0.01969*%
%ADD17C,0.04724*%
%ADD18C,0.03150*%
%ADD19OC8,0.03937*%
D10*
X0023244Y0016018D02*
X0023244Y0023068D01*
X0042929Y0023068D02*
X0042929Y0016018D01*
X0062614Y0016018D02*
X0062614Y0023068D01*
X0082299Y0023068D02*
X0082299Y0016018D01*
X0101984Y0016018D02*
X0101984Y0023068D01*
X0121669Y0023068D02*
X0121669Y0016018D01*
X0121669Y0101648D02*
X0121669Y0108698D01*
X0101984Y0108698D02*
X0101984Y0101648D01*
X0082299Y0101648D02*
X0082299Y0108698D01*
X0062614Y0108698D02*
X0062614Y0101648D01*
X0042929Y0101648D02*
X0042929Y0108698D01*
X0023244Y0108698D02*
X0023244Y0101648D01*
X0025706Y0072850D02*
X0018656Y0072850D01*
X0018656Y0053165D02*
X0025706Y0053165D01*
X0025706Y0138795D02*
X0018656Y0138795D01*
X0018656Y0158480D02*
X0025706Y0158480D01*
X0023244Y0187278D02*
X0023244Y0194328D01*
X0042929Y0194328D02*
X0042929Y0187278D01*
X0062614Y0187278D02*
X0062614Y0194328D01*
X0082299Y0194328D02*
X0082299Y0187278D01*
X0101984Y0187278D02*
X0101984Y0194328D01*
X0121669Y0194328D02*
X0121669Y0187278D01*
X0121669Y0272908D02*
X0121669Y0279958D01*
X0101984Y0279958D02*
X0101984Y0272908D01*
X0082299Y0272908D02*
X0082299Y0279958D01*
X0062614Y0279958D02*
X0062614Y0272908D01*
X0042929Y0272908D02*
X0042929Y0279958D01*
X0023244Y0279958D02*
X0023244Y0272908D01*
X0025706Y0244110D02*
X0018656Y0244110D01*
X0018656Y0224425D02*
X0025706Y0224425D01*
X0025706Y0310055D02*
X0018656Y0310055D01*
X0018656Y0329740D02*
X0025706Y0329740D01*
D11*
X0053677Y0329693D02*
X0053677Y0335693D01*
X0063677Y0335693D02*
X0063677Y0329693D01*
X0108559Y0329693D02*
X0108559Y0335693D01*
X0118559Y0335693D02*
X0118559Y0329693D01*
X0128559Y0329693D02*
X0128559Y0335693D01*
X0138559Y0335693D02*
X0138559Y0329693D01*
X0148559Y0329693D02*
X0148559Y0335693D01*
X0148559Y0250063D02*
X0148559Y0244063D01*
X0138559Y0244063D02*
X0138559Y0250063D01*
X0128559Y0250063D02*
X0128559Y0244063D01*
X0118559Y0244063D02*
X0118559Y0250063D01*
X0108559Y0250063D02*
X0108559Y0244063D01*
X0063677Y0244063D02*
X0063677Y0250063D01*
X0053677Y0250063D02*
X0053677Y0244063D01*
X0053677Y0164433D02*
X0053677Y0158433D01*
X0063677Y0158433D02*
X0063677Y0164433D01*
X0108559Y0164433D02*
X0108559Y0158433D01*
X0118559Y0158433D02*
X0118559Y0164433D01*
X0128559Y0164433D02*
X0128559Y0158433D01*
X0138559Y0158433D02*
X0138559Y0164433D01*
X0148559Y0164433D02*
X0148559Y0158433D01*
X0148559Y0078803D02*
X0148559Y0072803D01*
X0138559Y0072803D02*
X0138559Y0078803D01*
X0128559Y0078803D02*
X0128559Y0072803D01*
X0118559Y0072803D02*
X0118559Y0078803D01*
X0108559Y0078803D02*
X0108559Y0072803D01*
X0063677Y0072803D02*
X0063677Y0078803D01*
X0053677Y0078803D02*
X0053677Y0072803D01*
D12*
X0047535Y0064976D03*
X0047535Y0055134D03*
X0047535Y0045291D03*
X0087535Y0045291D03*
X0087535Y0055134D03*
X0094780Y0054642D03*
X0094780Y0045291D03*
X0094780Y0064976D03*
X0087535Y0064976D03*
X0134780Y0064976D03*
X0134780Y0054642D03*
X0134780Y0045291D03*
X0134780Y0130921D03*
X0134780Y0140272D03*
X0134780Y0150606D03*
X0094780Y0150606D03*
X0087535Y0150606D03*
X0087535Y0140764D03*
X0094780Y0140272D03*
X0094780Y0130921D03*
X0087535Y0130921D03*
X0047535Y0130921D03*
X0047535Y0140764D03*
X0047535Y0150606D03*
X0047535Y0216551D03*
X0047535Y0226394D03*
X0047535Y0236236D03*
X0087535Y0236236D03*
X0094780Y0236236D03*
X0094780Y0225902D03*
X0087535Y0226394D03*
X0087535Y0216551D03*
X0094780Y0216551D03*
X0134780Y0216551D03*
X0134780Y0225902D03*
X0134780Y0236236D03*
X0134780Y0302181D03*
X0134780Y0311531D03*
X0134780Y0321866D03*
X0094780Y0321866D03*
X0087535Y0321866D03*
X0087535Y0312024D03*
X0094780Y0311531D03*
X0094780Y0302181D03*
X0087535Y0302181D03*
X0047535Y0302181D03*
X0047535Y0312024D03*
X0047535Y0321866D03*
D13*
X0075409Y0331709D03*
X0085252Y0331709D03*
X0095094Y0331709D03*
X0095094Y0246079D03*
X0085252Y0246079D03*
X0075409Y0246079D03*
X0075409Y0160449D03*
X0085252Y0160449D03*
X0095094Y0160449D03*
X0095094Y0074819D03*
X0085252Y0074819D03*
X0075409Y0074819D03*
D14*
X0009134Y0072447D02*
X0009134Y0015183D01*
X0009737Y0015433D01*
X0013129Y0015433D01*
X0016264Y0014135D01*
X0018662Y0011736D01*
X0019961Y0008602D01*
X0019961Y0005591D01*
X0091228Y0005591D01*
X0090941Y0005877D01*
X0090941Y0005877D01*
X0084848Y0011970D01*
X0083237Y0011303D01*
X0081361Y0011303D01*
X0079628Y0012021D01*
X0078302Y0013347D01*
X0077584Y0015080D01*
X0077584Y0024006D01*
X0078302Y0025739D01*
X0079628Y0027066D01*
X0081361Y0027784D01*
X0082209Y0027784D01*
X0081680Y0028313D01*
X0048807Y0061186D01*
X0045965Y0061186D01*
X0043745Y0063406D01*
X0043745Y0066546D01*
X0045965Y0068767D01*
X0049106Y0068767D01*
X0051326Y0066546D01*
X0051326Y0063705D01*
X0075597Y0039434D01*
X0075597Y0053126D01*
X0075106Y0053616D01*
X0074698Y0054601D01*
X0074698Y0055667D01*
X0075106Y0056652D01*
X0075744Y0057290D01*
X0074672Y0057290D01*
X0073628Y0058333D01*
X0063349Y0068613D01*
X0062844Y0068613D01*
X0061303Y0069251D01*
X0060125Y0070429D01*
X0059487Y0071970D01*
X0059487Y0079637D01*
X0060125Y0081177D01*
X0060687Y0081739D01*
X0057218Y0081739D01*
X0057603Y0081209D01*
X0057931Y0080565D01*
X0058155Y0079878D01*
X0058268Y0079164D01*
X0058268Y0076213D01*
X0054087Y0076213D01*
X0054087Y0075394D01*
X0058268Y0075394D01*
X0058268Y0072442D01*
X0058155Y0071728D01*
X0057931Y0071041D01*
X0057603Y0070397D01*
X0057179Y0069813D01*
X0056668Y0069302D01*
X0056083Y0068877D01*
X0055439Y0068549D01*
X0054752Y0068326D01*
X0054087Y0068220D01*
X0054087Y0075394D01*
X0053268Y0075394D01*
X0053268Y0068220D01*
X0052602Y0068326D01*
X0051915Y0068549D01*
X0051271Y0068877D01*
X0050687Y0069302D01*
X0050176Y0069813D01*
X0049751Y0070397D01*
X0049423Y0071041D01*
X0049200Y0071728D01*
X0049087Y0072442D01*
X0049087Y0075394D01*
X0053268Y0075394D01*
X0053268Y0076213D01*
X0049087Y0076213D01*
X0049087Y0079164D01*
X0049200Y0079878D01*
X0049423Y0080565D01*
X0049751Y0081209D01*
X0050136Y0081739D01*
X0019961Y0081739D01*
X0019961Y0079028D01*
X0019355Y0077566D01*
X0026644Y0077566D01*
X0028377Y0076848D01*
X0029704Y0075522D01*
X0030422Y0073788D01*
X0030422Y0071912D01*
X0029704Y0070179D01*
X0028816Y0069291D01*
X0040798Y0057309D01*
X0044350Y0057309D01*
X0045965Y0058924D01*
X0049106Y0058924D01*
X0051326Y0056704D01*
X0051326Y0053564D01*
X0049106Y0051343D01*
X0045965Y0051343D01*
X0044350Y0052959D01*
X0038997Y0052959D01*
X0037723Y0054233D01*
X0037723Y0054233D01*
X0023821Y0068135D01*
X0017718Y0068135D01*
X0015985Y0068853D01*
X0014658Y0070179D01*
X0013941Y0071912D01*
X0013941Y0072533D01*
X0013129Y0072197D01*
X0009737Y0072197D01*
X0009134Y0072447D01*
X0009134Y0071777D02*
X0013997Y0071777D01*
X0014485Y0070597D02*
X0009134Y0070597D01*
X0009134Y0069418D02*
X0015420Y0069418D01*
X0017469Y0068238D02*
X0009134Y0068238D01*
X0009134Y0067058D02*
X0024898Y0067058D01*
X0026077Y0065879D02*
X0009134Y0065879D01*
X0009134Y0064699D02*
X0027257Y0064699D01*
X0028436Y0063520D02*
X0009134Y0063520D01*
X0009134Y0062340D02*
X0029616Y0062340D01*
X0030796Y0061160D02*
X0009134Y0061160D01*
X0009134Y0059981D02*
X0031975Y0059981D01*
X0033155Y0058801D02*
X0009134Y0058801D01*
X0009134Y0057621D02*
X0016134Y0057621D01*
X0015975Y0057541D02*
X0015324Y0057067D01*
X0014754Y0056498D01*
X0014281Y0055846D01*
X0013915Y0055129D01*
X0013667Y0054363D01*
X0013569Y0053750D01*
X0021597Y0053750D01*
X0021597Y0058281D01*
X0018253Y0058281D01*
X0017458Y0058155D01*
X0016692Y0057906D01*
X0015975Y0057541D01*
X0014713Y0056442D02*
X0009134Y0056442D01*
X0009134Y0055262D02*
X0013983Y0055262D01*
X0013622Y0054083D02*
X0009134Y0054083D01*
X0009134Y0052903D02*
X0021597Y0052903D01*
X0021597Y0052581D02*
X0013569Y0052581D01*
X0013667Y0051967D01*
X0013915Y0051202D01*
X0014281Y0050484D01*
X0014754Y0049833D01*
X0015324Y0049263D01*
X0015975Y0048790D01*
X0016692Y0048425D01*
X0017458Y0048176D01*
X0018253Y0048050D01*
X0021597Y0048050D01*
X0021597Y0052581D01*
X0022766Y0052581D01*
X0022766Y0053750D01*
X0030793Y0053750D01*
X0030696Y0054363D01*
X0030447Y0055129D01*
X0030081Y0055846D01*
X0029608Y0056498D01*
X0029039Y0057067D01*
X0028387Y0057541D01*
X0027670Y0057906D01*
X0026904Y0058155D01*
X0026109Y0058281D01*
X0022766Y0058281D01*
X0022766Y0053750D01*
X0021597Y0053750D01*
X0021597Y0052581D01*
X0021597Y0051723D02*
X0022766Y0051723D01*
X0022766Y0052581D02*
X0022766Y0048050D01*
X0026109Y0048050D01*
X0026904Y0048176D01*
X0027670Y0048425D01*
X0028387Y0048790D01*
X0029039Y0049263D01*
X0029608Y0049833D01*
X0030081Y0050484D01*
X0030447Y0051202D01*
X0030696Y0051967D01*
X0030793Y0052581D01*
X0022766Y0052581D01*
X0022766Y0052903D02*
X0044406Y0052903D01*
X0045585Y0051723D02*
X0030616Y0051723D01*
X0030112Y0050544D02*
X0059449Y0050544D01*
X0058270Y0051723D02*
X0049486Y0051723D01*
X0050665Y0052903D02*
X0057090Y0052903D01*
X0055910Y0054083D02*
X0051326Y0054083D01*
X0051326Y0055262D02*
X0054731Y0055262D01*
X0053551Y0056442D02*
X0051326Y0056442D01*
X0050408Y0057621D02*
X0052371Y0057621D01*
X0051192Y0058801D02*
X0049229Y0058801D01*
X0050012Y0059981D02*
X0038126Y0059981D01*
X0036947Y0061160D02*
X0048833Y0061160D01*
X0051511Y0063520D02*
X0068442Y0063520D01*
X0067262Y0064699D02*
X0051326Y0064699D01*
X0051326Y0065879D02*
X0066083Y0065879D01*
X0064903Y0067058D02*
X0050814Y0067058D01*
X0049634Y0068238D02*
X0053156Y0068238D01*
X0053268Y0068238D02*
X0054087Y0068238D01*
X0054199Y0068238D02*
X0063723Y0068238D01*
X0063677Y0070803D02*
X0075409Y0059071D01*
X0120685Y0059071D01*
X0121177Y0058579D01*
X0125114Y0054642D01*
X0134780Y0054642D01*
X0220094Y0054642D01*
X0218105Y0056442D02*
X0138340Y0056442D01*
X0138359Y0056423D02*
X0137492Y0057290D01*
X0211974Y0057290D01*
X0213017Y0058333D01*
X0213044Y0058360D01*
X0213738Y0058360D01*
X0214723Y0058768D01*
X0215476Y0059522D01*
X0215884Y0060506D01*
X0215884Y0061572D01*
X0215476Y0062557D01*
X0214723Y0063311D01*
X0213738Y0063719D01*
X0212672Y0063719D01*
X0211687Y0063311D01*
X0210933Y0062557D01*
X0210525Y0061572D01*
X0210525Y0060879D01*
X0210498Y0060852D01*
X0133234Y0060852D01*
X0127880Y0066206D01*
X0126836Y0067250D01*
X0105183Y0067250D01*
X0102695Y0069737D01*
X0102695Y0070431D01*
X0102287Y0071415D01*
X0101534Y0072169D01*
X0100549Y0072577D01*
X0099483Y0072577D01*
X0098937Y0072351D01*
X0098994Y0072429D01*
X0099320Y0073069D01*
X0099541Y0073751D01*
X0099648Y0074425D01*
X0095488Y0074425D01*
X0095488Y0070265D01*
X0096162Y0070372D01*
X0096845Y0070594D01*
X0097484Y0070920D01*
X0097562Y0070977D01*
X0097336Y0070431D01*
X0097336Y0069365D01*
X0097744Y0068380D01*
X0098498Y0067626D01*
X0099483Y0067218D01*
X0100176Y0067218D01*
X0103196Y0064198D01*
X0098633Y0064198D01*
X0098570Y0064261D01*
X0098570Y0066546D01*
X0096350Y0068767D01*
X0093209Y0068767D01*
X0091157Y0066715D01*
X0089106Y0068767D01*
X0085965Y0068767D01*
X0083745Y0066546D01*
X0083745Y0063406D01*
X0085965Y0061186D01*
X0089106Y0061186D01*
X0091157Y0063238D01*
X0093209Y0061186D01*
X0095494Y0061186D01*
X0095557Y0061123D01*
X0095828Y0060852D01*
X0076147Y0060852D01*
X0066900Y0070099D01*
X0067230Y0070429D01*
X0067868Y0071970D01*
X0067868Y0079637D01*
X0067230Y0081177D01*
X0066667Y0081739D01*
X0105569Y0081739D01*
X0105006Y0081177D01*
X0104369Y0079637D01*
X0104369Y0071970D01*
X0105006Y0070429D01*
X0106185Y0069251D01*
X0107725Y0068613D01*
X0109393Y0068613D01*
X0110933Y0069251D01*
X0112112Y0070429D01*
X0112750Y0071970D01*
X0112750Y0079637D01*
X0112112Y0081177D01*
X0111549Y0081739D01*
X0115569Y0081739D01*
X0115006Y0081177D01*
X0114369Y0079637D01*
X0114369Y0071970D01*
X0115006Y0070429D01*
X0116185Y0069251D01*
X0117725Y0068613D01*
X0119393Y0068613D01*
X0120933Y0069251D01*
X0122112Y0070429D01*
X0122750Y0071970D01*
X0122750Y0079637D01*
X0122112Y0081177D01*
X0121549Y0081739D01*
X0125569Y0081739D01*
X0125006Y0081177D01*
X0124369Y0079637D01*
X0124369Y0071970D01*
X0125006Y0070429D01*
X0126185Y0069251D01*
X0127725Y0068613D01*
X0129393Y0068613D01*
X0130933Y0069251D01*
X0132112Y0070429D01*
X0132750Y0071970D01*
X0132750Y0079637D01*
X0132112Y0081177D01*
X0131549Y0081739D01*
X0135018Y0081739D01*
X0134633Y0081209D01*
X0134305Y0080565D01*
X0134082Y0079878D01*
X0133969Y0079164D01*
X0133969Y0076213D01*
X0138150Y0076213D01*
X0138150Y0075394D01*
X0138969Y0075394D01*
X0138969Y0076213D01*
X0143150Y0076213D01*
X0143150Y0079164D01*
X0143037Y0079878D01*
X0142813Y0080565D01*
X0142485Y0081209D01*
X0142100Y0081739D01*
X0145569Y0081739D01*
X0145006Y0081177D01*
X0144369Y0079637D01*
X0144369Y0071970D01*
X0145006Y0070429D01*
X0146185Y0069251D01*
X0146778Y0069005D01*
X0146778Y0064602D01*
X0138570Y0064602D01*
X0138570Y0066546D01*
X0136350Y0068767D01*
X0133209Y0068767D01*
X0130989Y0066546D01*
X0130989Y0063406D01*
X0133209Y0061186D01*
X0136051Y0061186D01*
X0136198Y0061039D01*
X0190313Y0061039D01*
X0191297Y0061447D01*
X0192051Y0062201D01*
X0192459Y0063186D01*
X0192459Y0064252D01*
X0192051Y0065237D01*
X0191297Y0065990D01*
X0190917Y0066148D01*
X0202760Y0066148D01*
X0203059Y0065427D01*
X0203813Y0064673D01*
X0204798Y0064265D01*
X0205864Y0064265D01*
X0206849Y0064673D01*
X0207602Y0065427D01*
X0208010Y0066412D01*
X0208010Y0067478D01*
X0207602Y0068463D01*
X0206849Y0069216D01*
X0205864Y0069624D01*
X0205170Y0069624D01*
X0205084Y0069710D01*
X0169160Y0069710D01*
X0168117Y0068667D01*
X0168090Y0068640D01*
X0167396Y0068640D01*
X0166411Y0068232D01*
X0165658Y0067478D01*
X0165250Y0066494D01*
X0165250Y0065428D01*
X0165592Y0064602D01*
X0150340Y0064602D01*
X0150340Y0069005D01*
X0150933Y0069251D01*
X0152112Y0070429D01*
X0152750Y0071970D01*
X0152750Y0079637D01*
X0152112Y0081177D01*
X0151549Y0081739D01*
X0223047Y0081739D01*
X0223047Y0005591D01*
X0191771Y0005591D01*
X0205170Y0018990D01*
X0205864Y0018990D01*
X0206849Y0019398D01*
X0207602Y0020151D01*
X0208010Y0021136D01*
X0208010Y0022202D01*
X0207602Y0023187D01*
X0206849Y0023941D01*
X0205864Y0024349D01*
X0204798Y0024349D01*
X0203813Y0023941D01*
X0203059Y0023187D01*
X0202651Y0022202D01*
X0202651Y0021509D01*
X0188514Y0007372D01*
X0136160Y0007372D01*
X0136160Y0007438D01*
X0135752Y0008423D01*
X0134998Y0009177D01*
X0134013Y0009585D01*
X0133310Y0009585D01*
X0143367Y0019642D01*
X0144366Y0020641D01*
X0144907Y0021947D01*
X0144907Y0023038D01*
X0147967Y0023038D01*
X0149272Y0023579D01*
X0150272Y0024578D01*
X0150813Y0025884D01*
X0150813Y0027297D01*
X0150272Y0028603D01*
X0149272Y0029602D01*
X0148434Y0029950D01*
X0186658Y0029950D01*
X0194777Y0021830D01*
X0194777Y0021136D01*
X0195185Y0020151D01*
X0195939Y0019398D01*
X0196924Y0018990D01*
X0197990Y0018990D01*
X0198975Y0019398D01*
X0199728Y0020151D01*
X0200136Y0021136D01*
X0200136Y0022202D01*
X0199728Y0023187D01*
X0198975Y0023941D01*
X0197990Y0024349D01*
X0197296Y0024349D01*
X0189176Y0032468D01*
X0188133Y0033512D01*
X0133852Y0033512D01*
X0133359Y0034004D01*
X0129664Y0034004D01*
X0129172Y0033512D01*
X0085308Y0033512D01*
X0079159Y0039661D01*
X0079159Y0042980D01*
X0080006Y0042132D01*
X0082623Y0042132D01*
X0083979Y0043487D01*
X0085965Y0041501D01*
X0089106Y0041501D01*
X0091157Y0043553D01*
X0093209Y0041501D01*
X0096350Y0041501D01*
X0098570Y0043721D01*
X0098570Y0046861D01*
X0096350Y0049082D01*
X0093589Y0049082D01*
X0093837Y0049680D01*
X0093837Y0050746D01*
X0093793Y0050851D01*
X0096350Y0050851D01*
X0098570Y0053072D01*
X0098570Y0056212D01*
X0097492Y0057290D01*
X0119947Y0057290D01*
X0120439Y0056798D01*
X0124376Y0052861D01*
X0131200Y0052861D01*
X0133209Y0050851D01*
X0136350Y0050851D01*
X0138359Y0052861D01*
X0218086Y0052861D01*
X0218577Y0052370D01*
X0219561Y0051962D01*
X0220627Y0051962D01*
X0221612Y0052370D01*
X0222366Y0053124D01*
X0222774Y0054109D01*
X0222774Y0055175D01*
X0222366Y0056160D01*
X0221612Y0056913D01*
X0220627Y0057321D01*
X0219561Y0057321D01*
X0218577Y0056913D01*
X0218086Y0056423D01*
X0138359Y0056423D01*
X0136077Y0061160D02*
X0132925Y0061160D01*
X0132055Y0062340D02*
X0131746Y0062340D01*
X0130989Y0063520D02*
X0130566Y0063520D01*
X0130989Y0064699D02*
X0129387Y0064699D01*
X0128207Y0065879D02*
X0130989Y0065879D01*
X0131501Y0067058D02*
X0127027Y0067058D01*
X0127880Y0066206D02*
X0127880Y0066206D01*
X0126098Y0065469D02*
X0104445Y0065469D01*
X0100016Y0069898D01*
X0101926Y0071777D02*
X0104448Y0071777D01*
X0104369Y0072956D02*
X0099262Y0072956D01*
X0099602Y0074136D02*
X0104369Y0074136D01*
X0104369Y0075316D02*
X0099632Y0075316D01*
X0099648Y0075213D02*
X0099541Y0075886D01*
X0099320Y0076569D01*
X0098994Y0077208D01*
X0098572Y0077789D01*
X0098065Y0078296D01*
X0097484Y0078718D01*
X0096845Y0079044D01*
X0096162Y0079266D01*
X0095488Y0079372D01*
X0095488Y0075213D01*
X0094701Y0075213D01*
X0094701Y0079372D01*
X0094027Y0079266D01*
X0093344Y0079044D01*
X0092705Y0078718D01*
X0092124Y0078296D01*
X0091617Y0077789D01*
X0091195Y0077208D01*
X0090869Y0076569D01*
X0090648Y0075886D01*
X0090541Y0075213D01*
X0094701Y0075213D01*
X0094701Y0074425D01*
X0095488Y0074425D01*
X0095488Y0075213D01*
X0099648Y0075213D01*
X0099343Y0076495D02*
X0104369Y0076495D01*
X0104369Y0077675D02*
X0098655Y0077675D01*
X0097216Y0078855D02*
X0104369Y0078855D01*
X0104533Y0080034D02*
X0067703Y0080034D01*
X0067868Y0078855D02*
X0074284Y0078855D01*
X0074582Y0078978D02*
X0073054Y0078345D01*
X0071884Y0077175D01*
X0071250Y0075646D01*
X0071250Y0073992D01*
X0071884Y0072463D01*
X0073054Y0071293D01*
X0074582Y0070660D01*
X0076237Y0070660D01*
X0077765Y0071293D01*
X0078935Y0072463D01*
X0079568Y0073992D01*
X0079568Y0075646D01*
X0078935Y0077175D01*
X0077765Y0078345D01*
X0076237Y0078978D01*
X0074582Y0078978D01*
X0076535Y0078855D02*
X0084127Y0078855D01*
X0084425Y0078978D02*
X0082896Y0078345D01*
X0081726Y0077175D01*
X0081093Y0075646D01*
X0081093Y0073992D01*
X0081726Y0072463D01*
X0082896Y0071293D01*
X0084425Y0070660D01*
X0086079Y0070660D01*
X0087608Y0071293D01*
X0088778Y0072463D01*
X0089411Y0073992D01*
X0089411Y0075646D01*
X0088778Y0077175D01*
X0087608Y0078345D01*
X0086079Y0078978D01*
X0084425Y0078978D01*
X0086377Y0078855D02*
X0092973Y0078855D01*
X0094701Y0078855D02*
X0095488Y0078855D01*
X0095488Y0077675D02*
X0094701Y0077675D01*
X0094701Y0076495D02*
X0095488Y0076495D01*
X0095488Y0075316D02*
X0094701Y0075316D01*
X0094701Y0074425D02*
X0090541Y0074425D01*
X0090648Y0073751D01*
X0090869Y0073069D01*
X0091195Y0072429D01*
X0091617Y0071849D01*
X0092124Y0071341D01*
X0092705Y0070920D01*
X0093344Y0070594D01*
X0094027Y0070372D01*
X0094701Y0070265D01*
X0094701Y0074425D01*
X0094701Y0074136D02*
X0095488Y0074136D01*
X0095488Y0072956D02*
X0094701Y0072956D01*
X0094701Y0071777D02*
X0095488Y0071777D01*
X0095488Y0070597D02*
X0094701Y0070597D01*
X0093338Y0070597D02*
X0067299Y0070597D01*
X0067582Y0069418D02*
X0097336Y0069418D01*
X0097405Y0070597D02*
X0096851Y0070597D01*
X0096879Y0068238D02*
X0097886Y0068238D01*
X0098058Y0067058D02*
X0100336Y0067058D01*
X0101516Y0065879D02*
X0098570Y0065879D01*
X0098570Y0064699D02*
X0102695Y0064699D01*
X0104194Y0068238D02*
X0132680Y0068238D01*
X0131100Y0069418D02*
X0135453Y0069418D01*
X0135569Y0069302D02*
X0136153Y0068877D01*
X0136797Y0068549D01*
X0137484Y0068326D01*
X0138150Y0068220D01*
X0138150Y0075394D01*
X0133969Y0075394D01*
X0133969Y0072442D01*
X0134082Y0071728D01*
X0134305Y0071041D01*
X0134633Y0070397D01*
X0135058Y0069813D01*
X0135569Y0069302D01*
X0134531Y0070597D02*
X0132181Y0070597D01*
X0132670Y0071777D02*
X0134074Y0071777D01*
X0133969Y0072956D02*
X0132750Y0072956D01*
X0132750Y0074136D02*
X0133969Y0074136D01*
X0133969Y0075316D02*
X0132750Y0075316D01*
X0132750Y0076495D02*
X0133969Y0076495D01*
X0133969Y0077675D02*
X0132750Y0077675D01*
X0132750Y0078855D02*
X0133969Y0078855D01*
X0134132Y0080034D02*
X0132585Y0080034D01*
X0132075Y0081214D02*
X0134636Y0081214D01*
X0138150Y0075316D02*
X0138969Y0075316D01*
X0138969Y0075394D02*
X0138969Y0068220D01*
X0139634Y0068326D01*
X0140321Y0068549D01*
X0140965Y0068877D01*
X0141550Y0069302D01*
X0142061Y0069813D01*
X0142485Y0070397D01*
X0142813Y0071041D01*
X0143037Y0071728D01*
X0143150Y0072442D01*
X0143150Y0075394D01*
X0138969Y0075394D01*
X0138969Y0074136D02*
X0138150Y0074136D01*
X0138150Y0072956D02*
X0138969Y0072956D01*
X0138969Y0071777D02*
X0138150Y0071777D01*
X0138150Y0070597D02*
X0138969Y0070597D01*
X0138969Y0069418D02*
X0138150Y0069418D01*
X0138150Y0068238D02*
X0138969Y0068238D01*
X0139081Y0068238D02*
X0146778Y0068238D01*
X0146778Y0067058D02*
X0138058Y0067058D01*
X0138037Y0068238D02*
X0136879Y0068238D01*
X0138570Y0065879D02*
X0146778Y0065879D01*
X0146778Y0064699D02*
X0138570Y0064699D01*
X0136935Y0062820D02*
X0148244Y0062820D01*
X0148559Y0063135D01*
X0148559Y0075803D01*
X0144937Y0070597D02*
X0142587Y0070597D01*
X0143044Y0071777D02*
X0144448Y0071777D01*
X0144369Y0072956D02*
X0143150Y0072956D01*
X0143150Y0074136D02*
X0144369Y0074136D01*
X0144369Y0075316D02*
X0143150Y0075316D01*
X0143150Y0076495D02*
X0144369Y0076495D01*
X0144369Y0077675D02*
X0143150Y0077675D01*
X0143150Y0078855D02*
X0144369Y0078855D01*
X0144533Y0080034D02*
X0142986Y0080034D01*
X0142482Y0081214D02*
X0145043Y0081214D01*
X0152075Y0081214D02*
X0223047Y0081214D01*
X0223047Y0080034D02*
X0152585Y0080034D01*
X0152750Y0078855D02*
X0223047Y0078855D01*
X0223047Y0077675D02*
X0152750Y0077675D01*
X0152750Y0076495D02*
X0223047Y0076495D01*
X0223047Y0075316D02*
X0152750Y0075316D01*
X0152750Y0074136D02*
X0223047Y0074136D01*
X0223047Y0072956D02*
X0152750Y0072956D01*
X0152670Y0071777D02*
X0223047Y0071777D01*
X0223047Y0070597D02*
X0152181Y0070597D01*
X0151100Y0069418D02*
X0168867Y0069418D01*
X0169898Y0067929D02*
X0204346Y0067929D01*
X0205331Y0066945D01*
X0206363Y0069418D02*
X0223047Y0069418D01*
X0223047Y0068238D02*
X0207695Y0068238D01*
X0208010Y0067058D02*
X0223047Y0067058D01*
X0223047Y0065879D02*
X0207789Y0065879D01*
X0206874Y0064699D02*
X0223047Y0064699D01*
X0223047Y0063520D02*
X0214219Y0063520D01*
X0215566Y0062340D02*
X0223047Y0062340D01*
X0223047Y0061160D02*
X0215884Y0061160D01*
X0215666Y0059981D02*
X0223047Y0059981D01*
X0223047Y0058801D02*
X0214756Y0058801D01*
X0213017Y0058333D02*
X0213017Y0058333D01*
X0212306Y0057621D02*
X0223047Y0057621D01*
X0223047Y0056442D02*
X0222084Y0056442D01*
X0222738Y0055262D02*
X0223047Y0055262D01*
X0223047Y0054083D02*
X0222763Y0054083D01*
X0223047Y0052903D02*
X0222145Y0052903D01*
X0223047Y0051723D02*
X0137222Y0051723D01*
X0136350Y0049082D02*
X0138359Y0047072D01*
X0145736Y0047072D01*
X0145479Y0047694D01*
X0145479Y0048794D01*
X0145900Y0049811D01*
X0146678Y0050588D01*
X0147694Y0051009D01*
X0170448Y0051009D01*
X0171464Y0050588D01*
X0172242Y0049811D01*
X0172663Y0048794D01*
X0172663Y0047694D01*
X0172405Y0047072D01*
X0179700Y0047072D01*
X0180191Y0047563D01*
X0181176Y0047971D01*
X0182242Y0047971D01*
X0183226Y0047563D01*
X0183980Y0046809D01*
X0184388Y0045824D01*
X0184388Y0044758D01*
X0183980Y0043773D01*
X0183226Y0043020D01*
X0182242Y0042612D01*
X0181176Y0042612D01*
X0180191Y0043020D01*
X0179700Y0043510D01*
X0138359Y0043510D01*
X0137000Y0042151D01*
X0218086Y0042151D01*
X0218577Y0042642D01*
X0219561Y0043050D01*
X0220627Y0043050D01*
X0221612Y0042642D01*
X0222366Y0041888D01*
X0222774Y0040903D01*
X0222774Y0039837D01*
X0222366Y0038852D01*
X0221612Y0038098D01*
X0220627Y0037691D01*
X0219561Y0037691D01*
X0218577Y0038098D01*
X0218086Y0038589D01*
X0215733Y0038589D01*
X0215884Y0038224D01*
X0215884Y0037158D01*
X0215476Y0036173D01*
X0214723Y0035419D01*
X0213738Y0035011D01*
X0212672Y0035011D01*
X0211687Y0035419D01*
X0211470Y0035636D01*
X0109898Y0035636D01*
X0109408Y0035146D01*
X0108423Y0034738D01*
X0107357Y0034738D01*
X0106372Y0035146D01*
X0105618Y0035899D01*
X0105210Y0036884D01*
X0105210Y0037950D01*
X0105618Y0038935D01*
X0106372Y0039689D01*
X0106868Y0039894D01*
X0106591Y0040564D01*
X0106591Y0041630D01*
X0106998Y0042615D01*
X0107752Y0043369D01*
X0108737Y0043777D01*
X0109803Y0043777D01*
X0110788Y0043369D01*
X0111542Y0042615D01*
X0111734Y0042151D01*
X0132559Y0042151D01*
X0130989Y0043721D01*
X0130989Y0046861D01*
X0133209Y0049082D01*
X0136350Y0049082D01*
X0137247Y0048185D02*
X0145479Y0048185D01*
X0145715Y0049364D02*
X0093706Y0049364D01*
X0093837Y0050544D02*
X0146633Y0050544D01*
X0138315Y0043466D02*
X0179744Y0043466D01*
X0181709Y0045291D02*
X0134780Y0045291D01*
X0132312Y0048185D02*
X0097247Y0048185D01*
X0098427Y0047005D02*
X0131132Y0047005D01*
X0130989Y0045825D02*
X0098570Y0045825D01*
X0098570Y0044646D02*
X0130989Y0044646D01*
X0131244Y0043466D02*
X0110552Y0043466D01*
X0111678Y0042286D02*
X0132424Y0042286D01*
X0137135Y0042286D02*
X0218221Y0042286D01*
X0220094Y0040370D02*
X0109270Y0040370D01*
X0109270Y0041097D01*
X0106591Y0041107D02*
X0079159Y0041107D01*
X0079159Y0042286D02*
X0079852Y0042286D01*
X0079159Y0039927D02*
X0106854Y0039927D01*
X0105541Y0038748D02*
X0080072Y0038748D01*
X0081252Y0037568D02*
X0105210Y0037568D01*
X0105416Y0036388D02*
X0082432Y0036388D01*
X0083611Y0035209D02*
X0106309Y0035209D01*
X0107890Y0037417D02*
X0212931Y0037417D01*
X0213205Y0037691D01*
X0214215Y0035209D02*
X0223047Y0035209D01*
X0223047Y0036388D02*
X0215566Y0036388D01*
X0215884Y0037568D02*
X0223047Y0037568D01*
X0223047Y0038748D02*
X0222261Y0038748D01*
X0222774Y0039927D02*
X0223047Y0039927D01*
X0223047Y0041107D02*
X0222690Y0041107D01*
X0223047Y0042286D02*
X0221967Y0042286D01*
X0223047Y0043466D02*
X0183673Y0043466D01*
X0184342Y0044646D02*
X0223047Y0044646D01*
X0223047Y0045825D02*
X0184388Y0045825D01*
X0183784Y0047005D02*
X0223047Y0047005D01*
X0223047Y0048185D02*
X0172663Y0048185D01*
X0172427Y0049364D02*
X0223047Y0049364D01*
X0223047Y0050544D02*
X0171509Y0050544D01*
X0165551Y0064699D02*
X0150340Y0064699D01*
X0150340Y0065879D02*
X0165250Y0065879D01*
X0165484Y0067058D02*
X0150340Y0067058D01*
X0150340Y0068238D02*
X0166425Y0068238D01*
X0167929Y0065961D02*
X0169898Y0067929D01*
X0188881Y0062820D02*
X0148244Y0062820D01*
X0146018Y0069418D02*
X0141666Y0069418D01*
X0136935Y0062820D02*
X0134780Y0064976D01*
X0132496Y0059071D02*
X0211236Y0059071D01*
X0213205Y0061039D01*
X0212190Y0063520D02*
X0192459Y0063520D01*
X0192274Y0064699D02*
X0203787Y0064699D01*
X0202872Y0065879D02*
X0191409Y0065879D01*
X0189780Y0063719D02*
X0188881Y0062820D01*
X0190604Y0061160D02*
X0210525Y0061160D01*
X0210843Y0062340D02*
X0192109Y0062340D01*
X0212194Y0035209D02*
X0109471Y0035209D01*
X0106862Y0042286D02*
X0097135Y0042286D01*
X0098315Y0043466D02*
X0107988Y0043466D01*
X0098401Y0052903D02*
X0124334Y0052903D01*
X0123154Y0054083D02*
X0098570Y0054083D01*
X0098570Y0055262D02*
X0121975Y0055262D01*
X0120795Y0056442D02*
X0098340Y0056442D01*
X0095520Y0061160D02*
X0075839Y0061160D01*
X0074659Y0062340D02*
X0084811Y0062340D01*
X0083745Y0063520D02*
X0073480Y0063520D01*
X0072300Y0064699D02*
X0083745Y0064699D01*
X0083745Y0065879D02*
X0071120Y0065879D01*
X0069941Y0067058D02*
X0084257Y0067058D01*
X0085436Y0068238D02*
X0068761Y0068238D01*
X0067788Y0071777D02*
X0072570Y0071777D01*
X0071679Y0072956D02*
X0067868Y0072956D01*
X0067868Y0074136D02*
X0071250Y0074136D01*
X0071250Y0075316D02*
X0067868Y0075316D01*
X0067868Y0076495D02*
X0071602Y0076495D01*
X0072384Y0077675D02*
X0067868Y0077675D01*
X0067193Y0081214D02*
X0105043Y0081214D01*
X0112075Y0081214D02*
X0115043Y0081214D01*
X0114533Y0080034D02*
X0112585Y0080034D01*
X0112750Y0078855D02*
X0114369Y0078855D01*
X0114369Y0077675D02*
X0112750Y0077675D01*
X0112750Y0076495D02*
X0114369Y0076495D01*
X0114369Y0075316D02*
X0112750Y0075316D01*
X0112750Y0074136D02*
X0114369Y0074136D01*
X0114369Y0072956D02*
X0112750Y0072956D01*
X0112670Y0071777D02*
X0114448Y0071777D01*
X0114937Y0070597D02*
X0112181Y0070597D01*
X0111100Y0069418D02*
X0116018Y0069418D01*
X0121100Y0069418D02*
X0126018Y0069418D01*
X0124937Y0070597D02*
X0122181Y0070597D01*
X0122670Y0071777D02*
X0124448Y0071777D01*
X0124369Y0072956D02*
X0122750Y0072956D01*
X0122750Y0074136D02*
X0124369Y0074136D01*
X0124369Y0075316D02*
X0122750Y0075316D01*
X0122750Y0076495D02*
X0124369Y0076495D01*
X0124369Y0077675D02*
X0122750Y0077675D01*
X0122750Y0078855D02*
X0124369Y0078855D01*
X0124533Y0080034D02*
X0122585Y0080034D01*
X0122075Y0081214D02*
X0125043Y0081214D01*
X0134795Y0091220D02*
X0133480Y0092535D01*
X0134795Y0091220D02*
X0189252Y0091220D01*
X0205331Y0107299D01*
X0207798Y0108345D02*
X0223047Y0108345D01*
X0223047Y0109524D02*
X0206895Y0109524D01*
X0206849Y0109571D02*
X0205864Y0109979D01*
X0204798Y0109979D01*
X0203813Y0109571D01*
X0203059Y0108817D01*
X0202651Y0107832D01*
X0202651Y0107139D01*
X0188514Y0093002D01*
X0136160Y0093002D01*
X0136160Y0093068D01*
X0135752Y0094053D01*
X0134998Y0094807D01*
X0134013Y0095215D01*
X0133310Y0095215D01*
X0143367Y0105272D01*
X0144366Y0106271D01*
X0144907Y0107577D01*
X0144907Y0108668D01*
X0147967Y0108668D01*
X0149272Y0109209D01*
X0150272Y0110208D01*
X0150813Y0111514D01*
X0150813Y0112927D01*
X0150272Y0114233D01*
X0149272Y0115232D01*
X0148434Y0115580D01*
X0186658Y0115580D01*
X0194777Y0107460D01*
X0194777Y0106766D01*
X0195185Y0105781D01*
X0195939Y0105028D01*
X0196924Y0104620D01*
X0197990Y0104620D01*
X0198975Y0105028D01*
X0199728Y0105781D01*
X0200136Y0106766D01*
X0200136Y0107832D01*
X0199728Y0108817D01*
X0198975Y0109571D01*
X0197990Y0109979D01*
X0197296Y0109979D01*
X0189176Y0118098D01*
X0188133Y0119142D01*
X0133852Y0119142D01*
X0133359Y0119634D01*
X0129664Y0119634D01*
X0129172Y0119142D01*
X0085308Y0119142D01*
X0079159Y0125291D01*
X0079159Y0128610D01*
X0080006Y0127762D01*
X0082623Y0127762D01*
X0083979Y0129117D01*
X0085965Y0127131D01*
X0089106Y0127131D01*
X0091157Y0129183D01*
X0093209Y0127131D01*
X0096350Y0127131D01*
X0098570Y0129351D01*
X0098570Y0132491D01*
X0096350Y0134712D01*
X0093589Y0134712D01*
X0093837Y0135310D01*
X0093837Y0136376D01*
X0093793Y0136481D01*
X0096350Y0136481D01*
X0098570Y0138702D01*
X0098570Y0141842D01*
X0097492Y0142920D01*
X0119947Y0142920D01*
X0120439Y0142428D01*
X0124376Y0138491D01*
X0131200Y0138491D01*
X0133209Y0136481D01*
X0136350Y0136481D01*
X0138359Y0138491D01*
X0218086Y0138491D01*
X0218577Y0138000D01*
X0219561Y0137592D01*
X0220627Y0137592D01*
X0221612Y0138000D01*
X0222366Y0138754D01*
X0222774Y0139739D01*
X0222774Y0140805D01*
X0222366Y0141789D01*
X0221612Y0142543D01*
X0220627Y0142951D01*
X0219561Y0142951D01*
X0218577Y0142543D01*
X0218086Y0142053D01*
X0138359Y0142053D01*
X0137492Y0142920D01*
X0211974Y0142920D01*
X0213017Y0143963D01*
X0213044Y0143990D01*
X0213738Y0143990D01*
X0214723Y0144398D01*
X0215476Y0145151D01*
X0215884Y0146136D01*
X0215884Y0147202D01*
X0215476Y0148187D01*
X0214723Y0148941D01*
X0213738Y0149349D01*
X0212672Y0149349D01*
X0211687Y0148941D01*
X0210933Y0148187D01*
X0210525Y0147202D01*
X0210525Y0146509D01*
X0210498Y0146482D01*
X0133234Y0146482D01*
X0127880Y0151836D01*
X0126836Y0152880D01*
X0105183Y0152880D01*
X0102695Y0155367D01*
X0102695Y0156061D01*
X0102287Y0157045D01*
X0101534Y0157799D01*
X0100549Y0158207D01*
X0099483Y0158207D01*
X0098937Y0157981D01*
X0098994Y0158059D01*
X0099320Y0158699D01*
X0099541Y0159381D01*
X0099648Y0160055D01*
X0095488Y0160055D01*
X0095488Y0155895D01*
X0096162Y0156002D01*
X0096845Y0156224D01*
X0097484Y0156550D01*
X0097562Y0156607D01*
X0097336Y0156061D01*
X0097336Y0154995D01*
X0097744Y0154010D01*
X0098498Y0153256D01*
X0099483Y0152848D01*
X0100176Y0152848D01*
X0103196Y0149828D01*
X0098633Y0149828D01*
X0098570Y0149891D01*
X0098570Y0152176D01*
X0096350Y0154397D01*
X0093209Y0154397D01*
X0091157Y0152345D01*
X0089106Y0154397D01*
X0085965Y0154397D01*
X0083745Y0152176D01*
X0083745Y0149036D01*
X0085965Y0146816D01*
X0089106Y0146816D01*
X0091157Y0148868D01*
X0093209Y0146816D01*
X0095494Y0146816D01*
X0095557Y0146753D01*
X0095828Y0146482D01*
X0076147Y0146482D01*
X0066900Y0155729D01*
X0067230Y0156059D01*
X0067868Y0157600D01*
X0067868Y0165267D01*
X0067230Y0166807D01*
X0066667Y0167369D01*
X0105569Y0167369D01*
X0105006Y0166807D01*
X0104369Y0165267D01*
X0104369Y0157600D01*
X0105006Y0156059D01*
X0106185Y0154880D01*
X0107725Y0154243D01*
X0109393Y0154243D01*
X0110933Y0154880D01*
X0112112Y0156059D01*
X0112750Y0157600D01*
X0112750Y0165267D01*
X0112112Y0166807D01*
X0111549Y0167369D01*
X0115569Y0167369D01*
X0115006Y0166807D01*
X0114369Y0165267D01*
X0114369Y0157600D01*
X0115006Y0156059D01*
X0116185Y0154880D01*
X0117725Y0154243D01*
X0119393Y0154243D01*
X0120933Y0154880D01*
X0122112Y0156059D01*
X0122750Y0157600D01*
X0122750Y0165267D01*
X0122112Y0166807D01*
X0121549Y0167369D01*
X0125569Y0167369D01*
X0125006Y0166807D01*
X0124369Y0165267D01*
X0124369Y0157600D01*
X0125006Y0156059D01*
X0126185Y0154880D01*
X0127725Y0154243D01*
X0129393Y0154243D01*
X0130933Y0154880D01*
X0132112Y0156059D01*
X0132750Y0157600D01*
X0132750Y0165267D01*
X0132112Y0166807D01*
X0131549Y0167369D01*
X0135018Y0167369D01*
X0134633Y0166839D01*
X0134305Y0166195D01*
X0134082Y0165508D01*
X0133969Y0164794D01*
X0133969Y0161843D01*
X0138150Y0161843D01*
X0138150Y0161024D01*
X0138969Y0161024D01*
X0138969Y0161843D01*
X0143150Y0161843D01*
X0143150Y0164794D01*
X0143037Y0165508D01*
X0142813Y0166195D01*
X0142485Y0166839D01*
X0142100Y0167369D01*
X0145569Y0167369D01*
X0145006Y0166807D01*
X0144369Y0165267D01*
X0144369Y0157600D01*
X0145006Y0156059D01*
X0146185Y0154880D01*
X0146778Y0154635D01*
X0146778Y0150231D01*
X0138570Y0150231D01*
X0138570Y0152176D01*
X0136350Y0154397D01*
X0133209Y0154397D01*
X0130989Y0152176D01*
X0130989Y0149036D01*
X0133209Y0146816D01*
X0136051Y0146816D01*
X0136198Y0146669D01*
X0190313Y0146669D01*
X0191297Y0147077D01*
X0192051Y0147831D01*
X0192459Y0148816D01*
X0192459Y0149882D01*
X0192051Y0150867D01*
X0191297Y0151620D01*
X0190917Y0151778D01*
X0202760Y0151778D01*
X0203059Y0151057D01*
X0203813Y0150303D01*
X0204798Y0149895D01*
X0205864Y0149895D01*
X0206849Y0150303D01*
X0207602Y0151057D01*
X0208010Y0152042D01*
X0208010Y0153108D01*
X0207602Y0154093D01*
X0206849Y0154846D01*
X0205864Y0155254D01*
X0205170Y0155254D01*
X0205084Y0155340D01*
X0169160Y0155340D01*
X0168117Y0154297D01*
X0168090Y0154270D01*
X0167396Y0154270D01*
X0166411Y0153862D01*
X0165658Y0153108D01*
X0165250Y0152124D01*
X0165250Y0151058D01*
X0165592Y0150231D01*
X0150340Y0150231D01*
X0150340Y0154635D01*
X0150933Y0154880D01*
X0152112Y0156059D01*
X0152750Y0157600D01*
X0152750Y0165267D01*
X0152112Y0166807D01*
X0151549Y0167369D01*
X0223047Y0167369D01*
X0223047Y0091520D01*
X0192071Y0091520D01*
X0205170Y0104620D01*
X0205864Y0104620D01*
X0206849Y0105028D01*
X0207602Y0105781D01*
X0208010Y0106766D01*
X0208010Y0107832D01*
X0207602Y0108817D01*
X0206849Y0109571D01*
X0208010Y0107165D02*
X0223047Y0107165D01*
X0223047Y0105986D02*
X0207687Y0105986D01*
X0206313Y0104806D02*
X0223047Y0104806D01*
X0223047Y0103626D02*
X0204177Y0103626D01*
X0202997Y0102447D02*
X0223047Y0102447D01*
X0223047Y0101267D02*
X0201817Y0101267D01*
X0200638Y0100088D02*
X0223047Y0100088D01*
X0223047Y0098908D02*
X0199458Y0098908D01*
X0198279Y0097728D02*
X0223047Y0097728D01*
X0223047Y0096549D02*
X0197099Y0096549D01*
X0195919Y0095369D02*
X0223047Y0095369D01*
X0223047Y0094189D02*
X0194740Y0094189D01*
X0193560Y0093010D02*
X0223047Y0093010D01*
X0223047Y0091830D02*
X0192381Y0091830D01*
X0189702Y0094189D02*
X0135616Y0094189D01*
X0136160Y0093010D02*
X0188523Y0093010D01*
X0190882Y0095369D02*
X0133464Y0095369D01*
X0134644Y0096549D02*
X0192061Y0096549D01*
X0193241Y0097728D02*
X0135824Y0097728D01*
X0137003Y0098908D02*
X0194421Y0098908D01*
X0195600Y0100088D02*
X0138183Y0100088D01*
X0139362Y0101267D02*
X0196780Y0101267D01*
X0197959Y0102447D02*
X0140542Y0102447D01*
X0141722Y0103626D02*
X0199139Y0103626D01*
X0198439Y0104806D02*
X0200319Y0104806D01*
X0199813Y0105986D02*
X0201498Y0105986D01*
X0202651Y0107165D02*
X0200136Y0107165D01*
X0199924Y0108345D02*
X0202864Y0108345D01*
X0203767Y0109524D02*
X0199021Y0109524D01*
X0196571Y0110704D02*
X0223047Y0110704D01*
X0223047Y0111884D02*
X0195391Y0111884D01*
X0194211Y0113063D02*
X0223047Y0113063D01*
X0223047Y0114243D02*
X0193032Y0114243D01*
X0191852Y0115423D02*
X0223047Y0115423D01*
X0223047Y0116602D02*
X0190673Y0116602D01*
X0189493Y0117782D02*
X0223047Y0117782D01*
X0223047Y0118961D02*
X0188313Y0118961D01*
X0187395Y0117361D02*
X0133114Y0117361D01*
X0132622Y0117853D01*
X0130402Y0117853D01*
X0129910Y0117361D01*
X0084571Y0117361D01*
X0077378Y0124553D01*
X0077378Y0140764D01*
X0075378Y0142554D02*
X0058107Y0142554D01*
X0056927Y0143733D02*
X0073858Y0143733D01*
X0073628Y0143963D02*
X0074672Y0142920D01*
X0075744Y0142920D01*
X0075106Y0142282D01*
X0074698Y0141297D01*
X0074698Y0140231D01*
X0075106Y0139246D01*
X0075597Y0138755D01*
X0075597Y0125064D01*
X0051326Y0149335D01*
X0051326Y0152176D01*
X0049106Y0154397D01*
X0045965Y0154397D01*
X0043745Y0152176D01*
X0043745Y0149036D01*
X0045965Y0146816D01*
X0048807Y0146816D01*
X0081680Y0113943D01*
X0082209Y0113414D01*
X0081361Y0113414D01*
X0079628Y0112696D01*
X0078302Y0111369D01*
X0077584Y0109636D01*
X0077584Y0100710D01*
X0078302Y0098977D01*
X0079628Y0097651D01*
X0081361Y0096933D01*
X0083237Y0096933D01*
X0084848Y0097600D01*
X0090928Y0091520D01*
X0019961Y0091520D01*
X0019961Y0094232D01*
X0018662Y0097366D01*
X0016264Y0099765D01*
X0013129Y0101063D01*
X0009737Y0101063D01*
X0009134Y0100813D01*
X0009134Y0158077D01*
X0009737Y0157827D01*
X0013129Y0157827D01*
X0013941Y0158163D01*
X0013941Y0157542D01*
X0014658Y0155809D01*
X0015985Y0154483D01*
X0017718Y0153765D01*
X0023821Y0153765D01*
X0037723Y0139863D01*
X0038997Y0138589D01*
X0044350Y0138589D01*
X0045965Y0136973D01*
X0049106Y0136973D01*
X0051326Y0139194D01*
X0051326Y0142334D01*
X0049106Y0144554D01*
X0045965Y0144554D01*
X0044350Y0142939D01*
X0040798Y0142939D01*
X0028816Y0154921D01*
X0029704Y0155809D01*
X0030422Y0157542D01*
X0030422Y0159418D01*
X0029704Y0161151D01*
X0028377Y0162478D01*
X0026644Y0163196D01*
X0019355Y0163196D01*
X0019961Y0164658D01*
X0019961Y0167369D01*
X0050136Y0167369D01*
X0049751Y0166839D01*
X0049423Y0166195D01*
X0049200Y0165508D01*
X0049087Y0164794D01*
X0049087Y0161843D01*
X0053268Y0161843D01*
X0053268Y0161024D01*
X0049087Y0161024D01*
X0049087Y0158072D01*
X0049200Y0157358D01*
X0049423Y0156671D01*
X0049751Y0156027D01*
X0050176Y0155443D01*
X0050687Y0154932D01*
X0051271Y0154507D01*
X0051915Y0154179D01*
X0052602Y0153956D01*
X0053268Y0153850D01*
X0053268Y0161024D01*
X0054087Y0161024D01*
X0054087Y0161843D01*
X0058268Y0161843D01*
X0058268Y0164794D01*
X0058155Y0165508D01*
X0057931Y0166195D01*
X0057603Y0166839D01*
X0057218Y0167369D01*
X0060687Y0167369D01*
X0060125Y0166807D01*
X0059487Y0165267D01*
X0059487Y0157600D01*
X0060125Y0156059D01*
X0061303Y0154880D01*
X0062844Y0154243D01*
X0063349Y0154243D01*
X0073628Y0143963D01*
X0072679Y0144913D02*
X0055748Y0144913D01*
X0054568Y0146092D02*
X0071499Y0146092D01*
X0070319Y0147272D02*
X0053388Y0147272D01*
X0052209Y0148452D02*
X0069140Y0148452D01*
X0067960Y0149631D02*
X0051326Y0149631D01*
X0051326Y0150811D02*
X0066780Y0150811D01*
X0065601Y0151991D02*
X0051326Y0151991D01*
X0050332Y0153170D02*
X0064421Y0153170D01*
X0062585Y0154350D02*
X0055775Y0154350D01*
X0056083Y0154507D02*
X0056668Y0154932D01*
X0057179Y0155443D01*
X0057603Y0156027D01*
X0057931Y0156671D01*
X0058155Y0157358D01*
X0058268Y0158072D01*
X0058268Y0161024D01*
X0054087Y0161024D01*
X0054087Y0153850D01*
X0054752Y0153956D01*
X0055439Y0154179D01*
X0056083Y0154507D01*
X0057242Y0155529D02*
X0060655Y0155529D01*
X0059855Y0156709D02*
X0057944Y0156709D01*
X0058239Y0157889D02*
X0059487Y0157889D01*
X0059487Y0159068D02*
X0058268Y0159068D01*
X0058268Y0160248D02*
X0059487Y0160248D01*
X0059487Y0161427D02*
X0054087Y0161427D01*
X0053268Y0161427D02*
X0029428Y0161427D01*
X0030078Y0160248D02*
X0049087Y0160248D01*
X0049087Y0159068D02*
X0030422Y0159068D01*
X0030422Y0157889D02*
X0049116Y0157889D01*
X0049411Y0156709D02*
X0030076Y0156709D01*
X0029424Y0155529D02*
X0050113Y0155529D01*
X0049153Y0154350D02*
X0051580Y0154350D01*
X0053268Y0154350D02*
X0054087Y0154350D01*
X0054087Y0155529D02*
X0053268Y0155529D01*
X0053268Y0156709D02*
X0054087Y0156709D01*
X0054087Y0157889D02*
X0053268Y0157889D01*
X0053268Y0159068D02*
X0054087Y0159068D01*
X0054087Y0160248D02*
X0053268Y0160248D01*
X0049087Y0162607D02*
X0028066Y0162607D01*
X0029387Y0154350D02*
X0045918Y0154350D01*
X0044739Y0153170D02*
X0030567Y0153170D01*
X0031746Y0151991D02*
X0043745Y0151991D01*
X0043745Y0150811D02*
X0032926Y0150811D01*
X0034106Y0149631D02*
X0043745Y0149631D01*
X0044329Y0148452D02*
X0035285Y0148452D01*
X0036465Y0147272D02*
X0045509Y0147272D01*
X0045144Y0143733D02*
X0040004Y0143733D01*
X0038824Y0144913D02*
X0050710Y0144913D01*
X0049927Y0143733D02*
X0051890Y0143733D01*
X0051106Y0142554D02*
X0053069Y0142554D01*
X0054249Y0141374D02*
X0051326Y0141374D01*
X0051326Y0140194D02*
X0055428Y0140194D01*
X0056608Y0139015D02*
X0051147Y0139015D01*
X0049967Y0137835D02*
X0057788Y0137835D01*
X0058967Y0136656D02*
X0030357Y0136656D01*
X0030447Y0136832D02*
X0030696Y0137597D01*
X0030793Y0138211D01*
X0022766Y0138211D01*
X0022766Y0139380D01*
X0030793Y0139380D01*
X0030696Y0139993D01*
X0030447Y0140759D01*
X0030081Y0141476D01*
X0029608Y0142128D01*
X0029039Y0142697D01*
X0028387Y0143170D01*
X0027670Y0143536D01*
X0026904Y0143785D01*
X0026109Y0143911D01*
X0022766Y0143911D01*
X0022766Y0139380D01*
X0021597Y0139380D01*
X0021597Y0143911D01*
X0018253Y0143911D01*
X0017458Y0143785D01*
X0016692Y0143536D01*
X0015975Y0143170D01*
X0015324Y0142697D01*
X0014754Y0142128D01*
X0014281Y0141476D01*
X0013915Y0140759D01*
X0013667Y0139993D01*
X0013569Y0139380D01*
X0021597Y0139380D01*
X0021597Y0138211D01*
X0022766Y0138211D01*
X0022766Y0133680D01*
X0026109Y0133680D01*
X0026904Y0133806D01*
X0027670Y0134055D01*
X0028387Y0134420D01*
X0029039Y0134893D01*
X0029608Y0135463D01*
X0030081Y0136114D01*
X0030447Y0136832D01*
X0030733Y0137835D02*
X0045103Y0137835D01*
X0045965Y0134712D02*
X0043745Y0132491D01*
X0043745Y0130206D01*
X0042028Y0128490D01*
X0040754Y0127216D01*
X0040754Y0112901D01*
X0040258Y0112696D01*
X0038931Y0111369D01*
X0038214Y0109636D01*
X0038214Y0100710D01*
X0038931Y0098977D01*
X0040258Y0097651D01*
X0041991Y0096933D01*
X0043867Y0096933D01*
X0045600Y0097651D01*
X0046927Y0098977D01*
X0047645Y0100710D01*
X0047645Y0109636D01*
X0046927Y0111369D01*
X0045600Y0112696D01*
X0045104Y0112901D01*
X0045104Y0125414D01*
X0046821Y0127131D01*
X0049106Y0127131D01*
X0051326Y0129351D01*
X0051326Y0132491D01*
X0049106Y0134712D01*
X0045965Y0134712D01*
X0045550Y0134296D02*
X0028144Y0134296D01*
X0029618Y0135476D02*
X0060147Y0135476D01*
X0061327Y0134296D02*
X0049521Y0134296D01*
X0050701Y0133117D02*
X0062506Y0133117D01*
X0063686Y0131937D02*
X0051326Y0131937D01*
X0051326Y0130758D02*
X0064865Y0130758D01*
X0066045Y0129578D02*
X0051326Y0129578D01*
X0050373Y0128398D02*
X0067225Y0128398D01*
X0068404Y0127219D02*
X0049193Y0127219D01*
X0045729Y0126039D02*
X0069584Y0126039D01*
X0070763Y0124859D02*
X0045104Y0124859D01*
X0045104Y0123680D02*
X0071943Y0123680D01*
X0073123Y0122500D02*
X0045104Y0122500D01*
X0045104Y0121321D02*
X0074302Y0121321D01*
X0075482Y0120141D02*
X0045104Y0120141D01*
X0045104Y0118961D02*
X0076662Y0118961D01*
X0077841Y0117782D02*
X0045104Y0117782D01*
X0045104Y0116602D02*
X0079021Y0116602D01*
X0080200Y0115423D02*
X0045104Y0115423D01*
X0045104Y0114243D02*
X0081380Y0114243D01*
X0080515Y0113063D02*
X0065309Y0113063D01*
X0065295Y0113073D02*
X0064578Y0113439D01*
X0063812Y0113688D01*
X0063199Y0113785D01*
X0063199Y0105758D01*
X0067730Y0105758D01*
X0067730Y0109101D01*
X0067604Y0109896D01*
X0067355Y0110662D01*
X0066989Y0111379D01*
X0066516Y0112031D01*
X0065947Y0112600D01*
X0065295Y0113073D01*
X0066623Y0111884D02*
X0078816Y0111884D01*
X0078026Y0110704D02*
X0067333Y0110704D01*
X0067663Y0109524D02*
X0077584Y0109524D01*
X0077584Y0108345D02*
X0067730Y0108345D01*
X0067730Y0107165D02*
X0077584Y0107165D01*
X0077584Y0105986D02*
X0067730Y0105986D01*
X0067730Y0104589D02*
X0063199Y0104589D01*
X0063199Y0105758D01*
X0062030Y0105758D01*
X0062030Y0113785D01*
X0061416Y0113688D01*
X0060650Y0113439D01*
X0059933Y0113073D01*
X0059282Y0112600D01*
X0058712Y0112031D01*
X0058239Y0111379D01*
X0057873Y0110662D01*
X0057625Y0109896D01*
X0057499Y0109101D01*
X0057499Y0105758D01*
X0062030Y0105758D01*
X0062030Y0104589D01*
X0063199Y0104589D01*
X0063199Y0096561D01*
X0063812Y0096659D01*
X0064578Y0096907D01*
X0065295Y0097273D01*
X0065947Y0097746D01*
X0066516Y0098316D01*
X0066989Y0098967D01*
X0067355Y0099685D01*
X0067604Y0100450D01*
X0067730Y0101246D01*
X0067730Y0104589D01*
X0067730Y0103626D02*
X0077584Y0103626D01*
X0077584Y0102447D02*
X0067730Y0102447D01*
X0067730Y0101267D02*
X0077584Y0101267D01*
X0077842Y0100088D02*
X0067486Y0100088D01*
X0066946Y0098908D02*
X0078371Y0098908D01*
X0079550Y0097728D02*
X0065922Y0097728D01*
X0063199Y0097728D02*
X0062030Y0097728D01*
X0062030Y0096561D02*
X0062030Y0104589D01*
X0057499Y0104589D01*
X0057499Y0101246D01*
X0057625Y0100450D01*
X0057873Y0099685D01*
X0058239Y0098967D01*
X0058712Y0098316D01*
X0059282Y0097746D01*
X0059933Y0097273D01*
X0060650Y0096907D01*
X0061416Y0096659D01*
X0062030Y0096561D01*
X0062030Y0098908D02*
X0063199Y0098908D01*
X0063199Y0100088D02*
X0062030Y0100088D01*
X0062030Y0101267D02*
X0063199Y0101267D01*
X0063199Y0102447D02*
X0062030Y0102447D01*
X0062030Y0103626D02*
X0063199Y0103626D01*
X0063199Y0104806D02*
X0077584Y0104806D01*
X0087015Y0109636D02*
X0086297Y0111369D01*
X0084970Y0112696D01*
X0084477Y0112900D01*
X0099806Y0112900D01*
X0099313Y0112696D01*
X0097987Y0111369D01*
X0097269Y0109636D01*
X0097269Y0100710D01*
X0097987Y0098977D01*
X0099313Y0097651D01*
X0100709Y0097072D01*
X0095424Y0097072D01*
X0087015Y0105482D01*
X0087015Y0109636D01*
X0087015Y0109524D02*
X0097269Y0109524D01*
X0097269Y0108345D02*
X0087015Y0108345D01*
X0087015Y0107165D02*
X0097269Y0107165D01*
X0097269Y0105986D02*
X0087015Y0105986D01*
X0087691Y0104806D02*
X0097269Y0104806D01*
X0097269Y0103626D02*
X0088870Y0103626D01*
X0090050Y0102447D02*
X0097269Y0102447D01*
X0097269Y0101267D02*
X0091230Y0101267D01*
X0092409Y0100088D02*
X0097527Y0100088D01*
X0098056Y0098908D02*
X0093589Y0098908D01*
X0094768Y0097728D02*
X0099235Y0097728D01*
X0103260Y0097072D02*
X0104655Y0097651D01*
X0105982Y0098977D01*
X0106700Y0100710D01*
X0106700Y0109636D01*
X0105982Y0111369D01*
X0104655Y0112696D01*
X0104163Y0112900D01*
X0118749Y0112900D01*
X0118337Y0112600D01*
X0117767Y0112031D01*
X0117294Y0111379D01*
X0116929Y0110662D01*
X0116680Y0109896D01*
X0116554Y0109101D01*
X0116554Y0105758D01*
X0121085Y0105758D01*
X0121085Y0104589D01*
X0116554Y0104589D01*
X0116554Y0101246D01*
X0116680Y0100450D01*
X0116929Y0099685D01*
X0117294Y0098967D01*
X0117767Y0098316D01*
X0118337Y0097746D01*
X0118988Y0097273D01*
X0119382Y0097072D01*
X0103260Y0097072D01*
X0104733Y0097728D02*
X0118361Y0097728D01*
X0117337Y0098908D02*
X0105913Y0098908D01*
X0106442Y0100088D02*
X0116798Y0100088D01*
X0116554Y0101267D02*
X0106700Y0101267D01*
X0106700Y0102447D02*
X0116554Y0102447D01*
X0116554Y0103626D02*
X0106700Y0103626D01*
X0106700Y0104806D02*
X0121085Y0104806D01*
X0122254Y0104806D02*
X0129379Y0104806D01*
X0129314Y0104871D02*
X0130068Y0104117D01*
X0131053Y0103709D01*
X0131756Y0103709D01*
X0125119Y0097072D01*
X0123957Y0097072D01*
X0124350Y0097273D01*
X0125002Y0097746D01*
X0125571Y0098316D01*
X0126044Y0098967D01*
X0126410Y0099685D01*
X0126659Y0100450D01*
X0126785Y0101246D01*
X0126785Y0104589D01*
X0122254Y0104589D01*
X0122254Y0105758D01*
X0126785Y0105758D01*
X0126785Y0108671D01*
X0128906Y0106549D01*
X0128906Y0105856D01*
X0129314Y0104871D01*
X0128906Y0105986D02*
X0126785Y0105986D01*
X0126785Y0107165D02*
X0128290Y0107165D01*
X0127111Y0108345D02*
X0126785Y0108345D01*
X0129789Y0110704D02*
X0132231Y0110704D01*
X0132437Y0110208D02*
X0133436Y0109209D01*
X0134742Y0108668D01*
X0136714Y0108668D01*
X0134265Y0106219D01*
X0134265Y0106922D01*
X0133857Y0107907D01*
X0133103Y0108660D01*
X0132119Y0109068D01*
X0131425Y0109068D01*
X0124914Y0115580D01*
X0130648Y0115580D01*
X0131140Y0116072D01*
X0131884Y0116072D01*
X0132376Y0115580D01*
X0134275Y0115580D01*
X0133436Y0115232D01*
X0132437Y0114233D01*
X0131896Y0112927D01*
X0131896Y0111514D01*
X0132437Y0110208D01*
X0133120Y0109524D02*
X0130969Y0109524D01*
X0131896Y0111884D02*
X0128609Y0111884D01*
X0127430Y0113063D02*
X0131952Y0113063D01*
X0132447Y0114243D02*
X0126250Y0114243D01*
X0125071Y0115423D02*
X0133896Y0115423D01*
X0133419Y0108345D02*
X0136391Y0108345D01*
X0135212Y0107165D02*
X0134164Y0107165D01*
X0131586Y0106389D02*
X0123293Y0114681D01*
X0083461Y0114681D01*
X0047535Y0150606D01*
X0049530Y0146092D02*
X0037645Y0146092D01*
X0035032Y0142554D02*
X0029182Y0142554D01*
X0030133Y0141374D02*
X0036212Y0141374D01*
X0037391Y0140194D02*
X0030630Y0140194D01*
X0033853Y0143733D02*
X0027063Y0143733D01*
X0030314Y0147272D02*
X0009134Y0147272D01*
X0009134Y0146092D02*
X0031493Y0146092D01*
X0032673Y0144913D02*
X0009134Y0144913D01*
X0009134Y0143733D02*
X0017299Y0143733D01*
X0015180Y0142554D02*
X0009134Y0142554D01*
X0009134Y0141374D02*
X0014229Y0141374D01*
X0013732Y0140194D02*
X0009134Y0140194D01*
X0009134Y0139015D02*
X0021597Y0139015D01*
X0021597Y0138211D02*
X0013569Y0138211D01*
X0013667Y0137597D01*
X0013915Y0136832D01*
X0014281Y0136114D01*
X0014754Y0135463D01*
X0015324Y0134893D01*
X0015975Y0134420D01*
X0016692Y0134055D01*
X0017458Y0133806D01*
X0018253Y0133680D01*
X0021597Y0133680D01*
X0021597Y0138211D01*
X0021597Y0137835D02*
X0022766Y0137835D01*
X0022766Y0136656D02*
X0021597Y0136656D01*
X0021597Y0135476D02*
X0022766Y0135476D01*
X0022766Y0134296D02*
X0021597Y0134296D01*
X0022766Y0139015D02*
X0038571Y0139015D01*
X0044370Y0133117D02*
X0009134Y0133117D01*
X0009134Y0134296D02*
X0016218Y0134296D01*
X0014745Y0135476D02*
X0009134Y0135476D01*
X0009134Y0136656D02*
X0014005Y0136656D01*
X0013629Y0137835D02*
X0009134Y0137835D01*
X0009134Y0131937D02*
X0043745Y0131937D01*
X0043745Y0130758D02*
X0009134Y0130758D01*
X0009134Y0129578D02*
X0043116Y0129578D01*
X0041937Y0128398D02*
X0009134Y0128398D01*
X0009134Y0127219D02*
X0040757Y0127219D01*
X0040754Y0126039D02*
X0009134Y0126039D01*
X0009134Y0124859D02*
X0040754Y0124859D01*
X0040754Y0123680D02*
X0009134Y0123680D01*
X0009134Y0122500D02*
X0040754Y0122500D01*
X0040754Y0121321D02*
X0009134Y0121321D01*
X0009134Y0120141D02*
X0040754Y0120141D01*
X0040754Y0118961D02*
X0009134Y0118961D01*
X0009134Y0117782D02*
X0040754Y0117782D01*
X0040754Y0116602D02*
X0009134Y0116602D01*
X0009134Y0115423D02*
X0040754Y0115423D01*
X0040754Y0114243D02*
X0009134Y0114243D01*
X0009134Y0113063D02*
X0021460Y0113063D01*
X0022306Y0113414D02*
X0020573Y0112696D01*
X0019246Y0111369D01*
X0018529Y0109636D01*
X0018529Y0100710D01*
X0019246Y0098977D01*
X0020573Y0097651D01*
X0022306Y0096933D01*
X0024182Y0096933D01*
X0025915Y0097651D01*
X0027242Y0098977D01*
X0027960Y0100710D01*
X0027960Y0109636D01*
X0027242Y0111369D01*
X0025915Y0112696D01*
X0024182Y0113414D01*
X0022306Y0113414D01*
X0025028Y0113063D02*
X0040754Y0113063D01*
X0039446Y0111884D02*
X0026727Y0111884D01*
X0027517Y0110704D02*
X0038656Y0110704D01*
X0038214Y0109524D02*
X0027960Y0109524D01*
X0027960Y0108345D02*
X0038214Y0108345D01*
X0038214Y0107165D02*
X0027960Y0107165D01*
X0027960Y0105986D02*
X0038214Y0105986D01*
X0038214Y0104806D02*
X0027960Y0104806D01*
X0027960Y0103626D02*
X0038214Y0103626D01*
X0038214Y0102447D02*
X0027960Y0102447D01*
X0027960Y0101267D02*
X0038214Y0101267D01*
X0038472Y0100088D02*
X0027702Y0100088D01*
X0027173Y0098908D02*
X0039001Y0098908D01*
X0040180Y0097728D02*
X0025993Y0097728D01*
X0020495Y0097728D02*
X0018300Y0097728D01*
X0019001Y0096549D02*
X0085899Y0096549D01*
X0087079Y0095369D02*
X0019489Y0095369D01*
X0019961Y0094189D02*
X0088259Y0094189D01*
X0089438Y0093010D02*
X0019961Y0093010D01*
X0019961Y0091830D02*
X0090618Y0091830D01*
X0091534Y0077675D02*
X0088278Y0077675D01*
X0089059Y0076495D02*
X0090846Y0076495D01*
X0090557Y0075316D02*
X0089411Y0075316D01*
X0089411Y0074136D02*
X0090587Y0074136D01*
X0090927Y0072956D02*
X0088982Y0072956D01*
X0088092Y0071777D02*
X0091689Y0071777D01*
X0092680Y0068238D02*
X0089634Y0068238D01*
X0090814Y0067058D02*
X0091501Y0067058D01*
X0092055Y0062340D02*
X0090260Y0062340D01*
X0082412Y0071777D02*
X0078249Y0071777D01*
X0079140Y0072956D02*
X0081522Y0072956D01*
X0081093Y0074136D02*
X0079568Y0074136D01*
X0079568Y0075316D02*
X0081093Y0075316D01*
X0081445Y0076495D02*
X0079217Y0076495D01*
X0078435Y0077675D02*
X0082226Y0077675D01*
X0069622Y0062340D02*
X0052691Y0062340D01*
X0053870Y0061160D02*
X0070801Y0061160D01*
X0071981Y0059981D02*
X0055050Y0059981D01*
X0056230Y0058801D02*
X0073160Y0058801D01*
X0074340Y0057621D02*
X0057409Y0057621D01*
X0058589Y0056442D02*
X0075019Y0056442D01*
X0074698Y0055262D02*
X0059768Y0055262D01*
X0060948Y0054083D02*
X0074913Y0054083D01*
X0075597Y0052903D02*
X0062128Y0052903D01*
X0063307Y0051723D02*
X0075597Y0051723D01*
X0075597Y0050544D02*
X0064487Y0050544D01*
X0065666Y0049364D02*
X0075597Y0049364D01*
X0075597Y0048185D02*
X0066846Y0048185D01*
X0068026Y0047005D02*
X0075597Y0047005D01*
X0075597Y0045825D02*
X0069205Y0045825D01*
X0070385Y0044646D02*
X0075597Y0044646D01*
X0075597Y0043466D02*
X0071565Y0043466D01*
X0072744Y0042286D02*
X0075597Y0042286D01*
X0075597Y0041107D02*
X0073924Y0041107D01*
X0075103Y0039927D02*
X0075597Y0039927D01*
X0077378Y0038923D02*
X0077378Y0055134D01*
X0083957Y0043466D02*
X0084000Y0043466D01*
X0085180Y0042286D02*
X0082778Y0042286D01*
X0077378Y0038923D02*
X0084571Y0031731D01*
X0129910Y0031731D01*
X0130402Y0032223D01*
X0132622Y0032223D01*
X0133114Y0031731D01*
X0187395Y0031731D01*
X0197457Y0021669D01*
X0199451Y0019874D02*
X0201016Y0019874D01*
X0200102Y0021053D02*
X0202196Y0021053D01*
X0202664Y0022233D02*
X0200123Y0022233D01*
X0199503Y0023413D02*
X0203285Y0023413D01*
X0205331Y0021669D02*
X0189252Y0005591D01*
X0134795Y0005591D01*
X0133480Y0006906D01*
X0135895Y0008078D02*
X0189220Y0008078D01*
X0190400Y0009257D02*
X0134805Y0009257D01*
X0134162Y0010437D02*
X0191579Y0010437D01*
X0192759Y0011617D02*
X0135342Y0011617D01*
X0136521Y0012796D02*
X0193939Y0012796D01*
X0195118Y0013976D02*
X0137701Y0013976D01*
X0138880Y0015155D02*
X0196298Y0015155D01*
X0197478Y0016335D02*
X0140060Y0016335D01*
X0141240Y0017515D02*
X0198657Y0017515D01*
X0199837Y0018694D02*
X0142419Y0018694D01*
X0143599Y0019874D02*
X0195463Y0019874D01*
X0194811Y0021053D02*
X0144537Y0021053D01*
X0144907Y0022233D02*
X0194374Y0022233D01*
X0193194Y0023413D02*
X0148872Y0023413D01*
X0150278Y0024592D02*
X0192015Y0024592D01*
X0190835Y0025772D02*
X0150766Y0025772D01*
X0150813Y0026952D02*
X0189656Y0026952D01*
X0188476Y0028131D02*
X0150467Y0028131D01*
X0149564Y0029311D02*
X0187296Y0029311D01*
X0189975Y0031670D02*
X0223047Y0031670D01*
X0223047Y0032850D02*
X0188795Y0032850D01*
X0191154Y0030490D02*
X0223047Y0030490D01*
X0223047Y0029311D02*
X0192334Y0029311D01*
X0193514Y0028131D02*
X0223047Y0028131D01*
X0223047Y0026952D02*
X0194693Y0026952D01*
X0195873Y0025772D02*
X0223047Y0025772D01*
X0223047Y0024592D02*
X0197053Y0024592D01*
X0203695Y0017515D02*
X0223047Y0017515D01*
X0223047Y0018694D02*
X0204874Y0018694D01*
X0207325Y0019874D02*
X0223047Y0019874D01*
X0223047Y0021053D02*
X0207976Y0021053D01*
X0207997Y0022233D02*
X0223047Y0022233D01*
X0223047Y0023413D02*
X0207377Y0023413D01*
X0202515Y0016335D02*
X0223047Y0016335D01*
X0223047Y0015155D02*
X0201336Y0015155D01*
X0200156Y0013976D02*
X0223047Y0013976D01*
X0223047Y0012796D02*
X0198976Y0012796D01*
X0197797Y0011617D02*
X0223047Y0011617D01*
X0223047Y0010437D02*
X0196617Y0010437D01*
X0195438Y0009257D02*
X0223047Y0009257D01*
X0223047Y0008078D02*
X0194258Y0008078D01*
X0193078Y0006898D02*
X0223047Y0006898D01*
X0223047Y0005718D02*
X0191899Y0005718D01*
X0223047Y0034029D02*
X0084791Y0034029D01*
X0083461Y0029051D02*
X0123293Y0029051D01*
X0131586Y0020759D01*
X0131425Y0023438D02*
X0124914Y0029950D01*
X0130648Y0029950D01*
X0131140Y0030442D01*
X0131884Y0030442D01*
X0132376Y0029950D01*
X0134275Y0029950D01*
X0133436Y0029602D01*
X0132437Y0028603D01*
X0131896Y0027297D01*
X0131896Y0025884D01*
X0132437Y0024578D01*
X0133436Y0023579D01*
X0134742Y0023038D01*
X0136714Y0023038D01*
X0134265Y0020589D01*
X0134265Y0021292D01*
X0133857Y0022277D01*
X0133103Y0023030D01*
X0132119Y0023438D01*
X0131425Y0023438D01*
X0132181Y0023413D02*
X0133837Y0023413D01*
X0133875Y0022233D02*
X0135909Y0022233D01*
X0134730Y0021053D02*
X0134265Y0021053D01*
X0131756Y0018079D02*
X0125119Y0011443D01*
X0123957Y0011443D01*
X0124350Y0011643D01*
X0125002Y0012116D01*
X0125571Y0012686D01*
X0126044Y0013337D01*
X0126410Y0014055D01*
X0126659Y0014820D01*
X0126785Y0015616D01*
X0126785Y0018959D01*
X0122254Y0018959D01*
X0122254Y0020128D01*
X0126785Y0020128D01*
X0126785Y0023041D01*
X0128906Y0020919D01*
X0128906Y0020226D01*
X0129314Y0019241D01*
X0130068Y0018487D01*
X0131053Y0018079D01*
X0131756Y0018079D01*
X0131191Y0017515D02*
X0126785Y0017515D01*
X0126785Y0018694D02*
X0129861Y0018694D01*
X0129052Y0019874D02*
X0122254Y0019874D01*
X0121085Y0019874D02*
X0106700Y0019874D01*
X0106700Y0021053D02*
X0116554Y0021053D01*
X0116554Y0020128D02*
X0116554Y0023471D01*
X0116680Y0024266D01*
X0116929Y0025032D01*
X0117294Y0025749D01*
X0117767Y0026401D01*
X0118337Y0026970D01*
X0118749Y0027270D01*
X0104163Y0027270D01*
X0104655Y0027066D01*
X0105982Y0025739D01*
X0106700Y0024006D01*
X0106700Y0015080D01*
X0105982Y0013347D01*
X0104655Y0012021D01*
X0103260Y0011443D01*
X0119382Y0011443D01*
X0118988Y0011643D01*
X0118337Y0012116D01*
X0117767Y0012686D01*
X0117294Y0013337D01*
X0116929Y0014055D01*
X0116680Y0014820D01*
X0116554Y0015616D01*
X0116554Y0018959D01*
X0121085Y0018959D01*
X0121085Y0020128D01*
X0116554Y0020128D01*
X0116554Y0018694D02*
X0106700Y0018694D01*
X0106700Y0017515D02*
X0116554Y0017515D01*
X0116554Y0016335D02*
X0106700Y0016335D01*
X0106700Y0015155D02*
X0116627Y0015155D01*
X0116969Y0013976D02*
X0106242Y0013976D01*
X0105431Y0012796D02*
X0117687Y0012796D01*
X0119040Y0011617D02*
X0103680Y0011617D01*
X0100709Y0011443D02*
X0095424Y0011443D01*
X0087015Y0019852D01*
X0087015Y0024006D01*
X0086297Y0025739D01*
X0084970Y0027066D01*
X0084478Y0027270D01*
X0099806Y0027270D01*
X0099313Y0027066D01*
X0097987Y0025739D01*
X0097269Y0024006D01*
X0097269Y0015080D01*
X0097987Y0013347D01*
X0099313Y0012021D01*
X0100709Y0011443D01*
X0100289Y0011617D02*
X0095250Y0011617D01*
X0094071Y0012796D02*
X0098538Y0012796D01*
X0097726Y0013976D02*
X0092891Y0013976D01*
X0091711Y0015155D02*
X0097269Y0015155D01*
X0097269Y0016335D02*
X0090532Y0016335D01*
X0089352Y0017515D02*
X0097269Y0017515D01*
X0097269Y0018694D02*
X0088173Y0018694D01*
X0087015Y0019874D02*
X0097269Y0019874D01*
X0097269Y0021053D02*
X0087015Y0021053D01*
X0087015Y0022233D02*
X0097269Y0022233D01*
X0097269Y0023413D02*
X0087015Y0023413D01*
X0086772Y0024592D02*
X0097511Y0024592D01*
X0098019Y0025772D02*
X0086264Y0025772D01*
X0085085Y0026952D02*
X0099199Y0026952D01*
X0104770Y0026952D02*
X0118318Y0026952D01*
X0117310Y0025772D02*
X0105949Y0025772D01*
X0106457Y0024592D02*
X0116786Y0024592D01*
X0116554Y0023413D02*
X0106700Y0023413D01*
X0106700Y0022233D02*
X0116554Y0022233D01*
X0125553Y0029311D02*
X0133145Y0029311D01*
X0132241Y0028131D02*
X0126732Y0028131D01*
X0127912Y0026952D02*
X0131896Y0026952D01*
X0131942Y0025772D02*
X0129091Y0025772D01*
X0130271Y0024592D02*
X0132431Y0024592D01*
X0128772Y0021053D02*
X0126785Y0021053D01*
X0126785Y0022233D02*
X0127593Y0022233D01*
X0126785Y0016335D02*
X0130011Y0016335D01*
X0128832Y0015155D02*
X0126712Y0015155D01*
X0126370Y0013976D02*
X0127652Y0013976D01*
X0126473Y0012796D02*
X0125651Y0012796D01*
X0125293Y0011617D02*
X0124298Y0011617D01*
X0132337Y0051723D02*
X0097222Y0051723D01*
X0092424Y0042286D02*
X0089891Y0042286D01*
X0091071Y0043466D02*
X0091244Y0043466D01*
X0083461Y0029051D02*
X0047535Y0064976D01*
X0044811Y0062340D02*
X0035767Y0062340D01*
X0034588Y0063520D02*
X0043745Y0063520D01*
X0043745Y0064699D02*
X0033408Y0064699D01*
X0032228Y0065879D02*
X0043745Y0065879D01*
X0044257Y0067058D02*
X0031049Y0067058D01*
X0029869Y0068238D02*
X0045436Y0068238D01*
X0049649Y0070597D02*
X0029877Y0070597D01*
X0030365Y0071777D02*
X0049192Y0071777D01*
X0049087Y0072956D02*
X0030422Y0072956D01*
X0030278Y0074136D02*
X0049087Y0074136D01*
X0049087Y0075316D02*
X0029789Y0075316D01*
X0028730Y0076495D02*
X0049087Y0076495D01*
X0049087Y0077675D02*
X0019400Y0077675D01*
X0019889Y0078855D02*
X0049087Y0078855D01*
X0049250Y0080034D02*
X0019961Y0080034D01*
X0019961Y0081214D02*
X0049754Y0081214D01*
X0053268Y0075316D02*
X0054087Y0075316D01*
X0054087Y0074136D02*
X0053268Y0074136D01*
X0053268Y0072956D02*
X0054087Y0072956D01*
X0054087Y0071777D02*
X0053268Y0071777D01*
X0053268Y0070597D02*
X0054087Y0070597D01*
X0054087Y0069418D02*
X0053268Y0069418D01*
X0050571Y0069418D02*
X0028942Y0069418D01*
X0028228Y0057621D02*
X0034334Y0057621D01*
X0035514Y0056442D02*
X0029649Y0056442D01*
X0030379Y0055262D02*
X0036694Y0055262D01*
X0037873Y0054083D02*
X0030740Y0054083D01*
X0029139Y0049364D02*
X0060629Y0049364D01*
X0061808Y0048185D02*
X0050003Y0048185D01*
X0049106Y0049082D02*
X0051326Y0046861D01*
X0051326Y0043721D01*
X0049106Y0041501D01*
X0046821Y0041501D01*
X0045104Y0039784D01*
X0045104Y0027272D01*
X0045600Y0027066D01*
X0046927Y0025739D01*
X0047645Y0024006D01*
X0047645Y0015080D01*
X0046927Y0013347D01*
X0045600Y0012021D01*
X0043867Y0011303D01*
X0041991Y0011303D01*
X0040258Y0012021D01*
X0038931Y0013347D01*
X0038214Y0015080D01*
X0038214Y0024006D01*
X0038931Y0025739D01*
X0040258Y0027066D01*
X0040754Y0027272D01*
X0040754Y0041586D01*
X0042028Y0042860D01*
X0043745Y0044576D01*
X0043745Y0046861D01*
X0045965Y0049082D01*
X0049106Y0049082D01*
X0051182Y0047005D02*
X0062988Y0047005D01*
X0064168Y0045825D02*
X0051326Y0045825D01*
X0051326Y0044646D02*
X0065347Y0044646D01*
X0066527Y0043466D02*
X0051071Y0043466D01*
X0049891Y0042286D02*
X0067706Y0042286D01*
X0068886Y0041107D02*
X0046427Y0041107D01*
X0045247Y0039927D02*
X0070066Y0039927D01*
X0071245Y0038748D02*
X0045104Y0038748D01*
X0045104Y0037568D02*
X0072425Y0037568D01*
X0073605Y0036388D02*
X0045104Y0036388D01*
X0045104Y0035209D02*
X0074784Y0035209D01*
X0075964Y0034029D02*
X0045104Y0034029D01*
X0045104Y0032850D02*
X0077143Y0032850D01*
X0078323Y0031670D02*
X0045104Y0031670D01*
X0045104Y0030490D02*
X0079503Y0030490D01*
X0080682Y0029311D02*
X0045104Y0029311D01*
X0045104Y0028131D02*
X0061879Y0028131D01*
X0062030Y0028131D02*
X0063199Y0028131D01*
X0063199Y0028155D02*
X0063199Y0020128D01*
X0067730Y0020128D01*
X0067730Y0023471D01*
X0067604Y0024266D01*
X0067355Y0025032D01*
X0066989Y0025749D01*
X0066516Y0026401D01*
X0065947Y0026970D01*
X0065295Y0027444D01*
X0064578Y0027809D01*
X0063812Y0028058D01*
X0063199Y0028155D01*
X0063350Y0028131D02*
X0081862Y0028131D01*
X0079514Y0026952D02*
X0065965Y0026952D01*
X0066973Y0025772D02*
X0078334Y0025772D01*
X0077826Y0024592D02*
X0067498Y0024592D01*
X0067730Y0023413D02*
X0077584Y0023413D01*
X0077584Y0022233D02*
X0067730Y0022233D01*
X0067730Y0021053D02*
X0077584Y0021053D01*
X0077584Y0019874D02*
X0063199Y0019874D01*
X0063199Y0020128D02*
X0063199Y0018959D01*
X0067730Y0018959D01*
X0067730Y0015616D01*
X0067604Y0014820D01*
X0067355Y0014055D01*
X0066989Y0013337D01*
X0066516Y0012686D01*
X0065947Y0012116D01*
X0065295Y0011643D01*
X0064578Y0011278D01*
X0063812Y0011029D01*
X0063199Y0010932D01*
X0063199Y0018959D01*
X0062030Y0018959D01*
X0062030Y0010932D01*
X0061416Y0011029D01*
X0060650Y0011278D01*
X0059933Y0011643D01*
X0059282Y0012116D01*
X0058712Y0012686D01*
X0058239Y0013337D01*
X0057873Y0014055D01*
X0057625Y0014820D01*
X0057499Y0015616D01*
X0057499Y0018959D01*
X0062030Y0018959D01*
X0062030Y0020128D01*
X0062030Y0028155D01*
X0061416Y0028058D01*
X0060650Y0027809D01*
X0059933Y0027444D01*
X0059282Y0026970D01*
X0058712Y0026401D01*
X0058239Y0025749D01*
X0057873Y0025032D01*
X0057625Y0024266D01*
X0057499Y0023471D01*
X0057499Y0020128D01*
X0062030Y0020128D01*
X0063199Y0020128D01*
X0063199Y0021053D02*
X0062030Y0021053D01*
X0062030Y0019874D02*
X0047645Y0019874D01*
X0047645Y0021053D02*
X0057499Y0021053D01*
X0057499Y0022233D02*
X0047645Y0022233D01*
X0047645Y0023413D02*
X0057499Y0023413D01*
X0057731Y0024592D02*
X0047402Y0024592D01*
X0046894Y0025772D02*
X0058255Y0025772D01*
X0059263Y0026952D02*
X0045715Y0026952D01*
X0040754Y0028131D02*
X0009134Y0028131D01*
X0009134Y0026952D02*
X0020459Y0026952D01*
X0020573Y0027066D02*
X0019246Y0025739D01*
X0018529Y0024006D01*
X0018529Y0015080D01*
X0019246Y0013347D01*
X0020573Y0012021D01*
X0022306Y0011303D01*
X0024182Y0011303D01*
X0025915Y0012021D01*
X0027242Y0013347D01*
X0027960Y0015080D01*
X0027960Y0024006D01*
X0027242Y0025739D01*
X0025915Y0027066D01*
X0024182Y0027784D01*
X0022306Y0027784D01*
X0020573Y0027066D01*
X0019279Y0025772D02*
X0009134Y0025772D01*
X0009134Y0024592D02*
X0018771Y0024592D01*
X0018529Y0023413D02*
X0009134Y0023413D01*
X0009134Y0022233D02*
X0018529Y0022233D01*
X0018529Y0021053D02*
X0009134Y0021053D01*
X0009134Y0019874D02*
X0018529Y0019874D01*
X0018529Y0018694D02*
X0009134Y0018694D01*
X0009134Y0017515D02*
X0018529Y0017515D01*
X0018529Y0016335D02*
X0009134Y0016335D01*
X0013800Y0015155D02*
X0018529Y0015155D01*
X0018986Y0013976D02*
X0016423Y0013976D01*
X0017602Y0012796D02*
X0019797Y0012796D01*
X0018712Y0011617D02*
X0021549Y0011617D01*
X0019200Y0010437D02*
X0086381Y0010437D01*
X0085202Y0011617D02*
X0083995Y0011617D01*
X0080604Y0011617D02*
X0065243Y0011617D01*
X0066596Y0012796D02*
X0078853Y0012796D01*
X0078041Y0013976D02*
X0067315Y0013976D01*
X0067657Y0015155D02*
X0077584Y0015155D01*
X0077584Y0016335D02*
X0067730Y0016335D01*
X0067730Y0017515D02*
X0077584Y0017515D01*
X0077584Y0018694D02*
X0067730Y0018694D01*
X0063199Y0018694D02*
X0062030Y0018694D01*
X0062030Y0017515D02*
X0063199Y0017515D01*
X0063199Y0016335D02*
X0062030Y0016335D01*
X0062030Y0015155D02*
X0063199Y0015155D01*
X0063199Y0013976D02*
X0062030Y0013976D01*
X0062030Y0012796D02*
X0063199Y0012796D01*
X0063199Y0011617D02*
X0062030Y0011617D01*
X0059985Y0011617D02*
X0044625Y0011617D01*
X0046376Y0012796D02*
X0058632Y0012796D01*
X0057914Y0013976D02*
X0047187Y0013976D01*
X0047645Y0015155D02*
X0057572Y0015155D01*
X0057499Y0016335D02*
X0047645Y0016335D01*
X0047645Y0017515D02*
X0057499Y0017515D01*
X0057499Y0018694D02*
X0047645Y0018694D01*
X0041234Y0011617D02*
X0024940Y0011617D01*
X0026691Y0012796D02*
X0039483Y0012796D01*
X0038671Y0013976D02*
X0027502Y0013976D01*
X0027960Y0015155D02*
X0038214Y0015155D01*
X0038214Y0016335D02*
X0027960Y0016335D01*
X0027960Y0017515D02*
X0038214Y0017515D01*
X0038214Y0018694D02*
X0027960Y0018694D01*
X0027960Y0019874D02*
X0038214Y0019874D01*
X0038214Y0021053D02*
X0027960Y0021053D01*
X0027960Y0022233D02*
X0038214Y0022233D01*
X0038214Y0023413D02*
X0027960Y0023413D01*
X0027717Y0024592D02*
X0038456Y0024592D01*
X0038964Y0025772D02*
X0027209Y0025772D01*
X0026030Y0026952D02*
X0040144Y0026952D01*
X0040754Y0029311D02*
X0009134Y0029311D01*
X0009134Y0030490D02*
X0040754Y0030490D01*
X0040754Y0031670D02*
X0009134Y0031670D01*
X0009134Y0032850D02*
X0040754Y0032850D01*
X0040754Y0034029D02*
X0009134Y0034029D01*
X0009134Y0035209D02*
X0040754Y0035209D01*
X0040754Y0036388D02*
X0009134Y0036388D01*
X0009134Y0037568D02*
X0040754Y0037568D01*
X0040754Y0038748D02*
X0009134Y0038748D01*
X0009134Y0039927D02*
X0040754Y0039927D01*
X0040754Y0041107D02*
X0009134Y0041107D01*
X0009134Y0042286D02*
X0041455Y0042286D01*
X0042635Y0043466D02*
X0009134Y0043466D01*
X0009134Y0044646D02*
X0043745Y0044646D01*
X0043745Y0045825D02*
X0009134Y0045825D01*
X0009134Y0047005D02*
X0043888Y0047005D01*
X0045068Y0048185D02*
X0026931Y0048185D01*
X0022766Y0048185D02*
X0021597Y0048185D01*
X0021597Y0049364D02*
X0022766Y0049364D01*
X0022766Y0050544D02*
X0021597Y0050544D01*
X0021597Y0054083D02*
X0022766Y0054083D01*
X0022766Y0055262D02*
X0021597Y0055262D01*
X0021597Y0056442D02*
X0022766Y0056442D01*
X0022766Y0057621D02*
X0021597Y0057621D01*
X0013746Y0051723D02*
X0009134Y0051723D01*
X0009134Y0050544D02*
X0014251Y0050544D01*
X0015223Y0049364D02*
X0009134Y0049364D01*
X0009134Y0048185D02*
X0017431Y0048185D01*
X0039306Y0058801D02*
X0045842Y0058801D01*
X0044662Y0057621D02*
X0040486Y0057621D01*
X0056784Y0069418D02*
X0061136Y0069418D01*
X0060055Y0070597D02*
X0057705Y0070597D01*
X0058162Y0071777D02*
X0059566Y0071777D01*
X0059487Y0072956D02*
X0058268Y0072956D01*
X0058268Y0074136D02*
X0059487Y0074136D01*
X0059487Y0075316D02*
X0058268Y0075316D01*
X0058268Y0076495D02*
X0059487Y0076495D01*
X0059487Y0077675D02*
X0058268Y0077675D01*
X0058268Y0078855D02*
X0059487Y0078855D01*
X0059651Y0080034D02*
X0058104Y0080034D01*
X0057600Y0081214D02*
X0060161Y0081214D01*
X0063677Y0075803D02*
X0063677Y0070803D01*
X0059306Y0097728D02*
X0045678Y0097728D01*
X0046858Y0098908D02*
X0058282Y0098908D01*
X0057742Y0100088D02*
X0047387Y0100088D01*
X0047645Y0101267D02*
X0057499Y0101267D01*
X0057499Y0102447D02*
X0047645Y0102447D01*
X0047645Y0103626D02*
X0057499Y0103626D01*
X0057499Y0105986D02*
X0047645Y0105986D01*
X0047645Y0107165D02*
X0057499Y0107165D01*
X0057499Y0108345D02*
X0047645Y0108345D01*
X0047645Y0109524D02*
X0057566Y0109524D01*
X0057895Y0110704D02*
X0047202Y0110704D01*
X0046412Y0111884D02*
X0058605Y0111884D01*
X0059919Y0113063D02*
X0045104Y0113063D01*
X0047645Y0104806D02*
X0062030Y0104806D01*
X0062030Y0105986D02*
X0063199Y0105986D01*
X0063199Y0107165D02*
X0062030Y0107165D01*
X0062030Y0108345D02*
X0063199Y0108345D01*
X0063199Y0109524D02*
X0062030Y0109524D01*
X0062030Y0110704D02*
X0063199Y0110704D01*
X0063199Y0111884D02*
X0062030Y0111884D01*
X0062030Y0113063D02*
X0063199Y0113063D01*
X0074622Y0126039D02*
X0075597Y0126039D01*
X0075597Y0127219D02*
X0073442Y0127219D01*
X0072262Y0128398D02*
X0075597Y0128398D01*
X0075597Y0129578D02*
X0071083Y0129578D01*
X0069903Y0130758D02*
X0075597Y0130758D01*
X0075597Y0131937D02*
X0068723Y0131937D01*
X0067544Y0133117D02*
X0075597Y0133117D01*
X0075597Y0134296D02*
X0066364Y0134296D01*
X0065185Y0135476D02*
X0075597Y0135476D01*
X0075597Y0136656D02*
X0064005Y0136656D01*
X0062825Y0137835D02*
X0075597Y0137835D01*
X0075338Y0139015D02*
X0061646Y0139015D01*
X0060466Y0140194D02*
X0074713Y0140194D01*
X0074730Y0141374D02*
X0059287Y0141374D01*
X0070639Y0151991D02*
X0083745Y0151991D01*
X0083745Y0150811D02*
X0071818Y0150811D01*
X0072998Y0149631D02*
X0083745Y0149631D01*
X0084329Y0148452D02*
X0074177Y0148452D01*
X0075357Y0147272D02*
X0085509Y0147272D01*
X0089562Y0147272D02*
X0092753Y0147272D01*
X0091573Y0148452D02*
X0090741Y0148452D01*
X0090332Y0153170D02*
X0091983Y0153170D01*
X0093162Y0154350D02*
X0089153Y0154350D01*
X0087608Y0156923D02*
X0088778Y0158093D01*
X0089411Y0159622D01*
X0089411Y0161276D01*
X0088778Y0162805D01*
X0087608Y0163975D01*
X0086079Y0164608D01*
X0084425Y0164608D01*
X0082896Y0163975D01*
X0081726Y0162805D01*
X0081093Y0161276D01*
X0081093Y0159622D01*
X0081726Y0158093D01*
X0082896Y0156923D01*
X0084425Y0156290D01*
X0086079Y0156290D01*
X0087608Y0156923D01*
X0087091Y0156709D02*
X0092486Y0156709D01*
X0092705Y0156550D02*
X0093344Y0156224D01*
X0094027Y0156002D01*
X0094701Y0155895D01*
X0094701Y0160055D01*
X0095488Y0160055D01*
X0095488Y0160843D01*
X0094701Y0160843D01*
X0094701Y0165002D01*
X0094027Y0164896D01*
X0093344Y0164674D01*
X0092705Y0164348D01*
X0092124Y0163926D01*
X0091617Y0163419D01*
X0091195Y0162838D01*
X0090869Y0162199D01*
X0090648Y0161516D01*
X0090541Y0160843D01*
X0094701Y0160843D01*
X0094701Y0160055D01*
X0090541Y0160055D01*
X0090648Y0159381D01*
X0090869Y0158699D01*
X0091195Y0158059D01*
X0091617Y0157479D01*
X0092124Y0156971D01*
X0092705Y0156550D01*
X0091319Y0157889D02*
X0088574Y0157889D01*
X0089182Y0159068D02*
X0090749Y0159068D01*
X0089411Y0160248D02*
X0094701Y0160248D01*
X0095488Y0160248D02*
X0104369Y0160248D01*
X0104369Y0161427D02*
X0099555Y0161427D01*
X0099541Y0161516D02*
X0099320Y0162199D01*
X0098994Y0162838D01*
X0098572Y0163419D01*
X0098065Y0163926D01*
X0097484Y0164348D01*
X0096845Y0164674D01*
X0096162Y0164896D01*
X0095488Y0165002D01*
X0095488Y0160843D01*
X0099648Y0160843D01*
X0099541Y0161516D01*
X0099112Y0162607D02*
X0104369Y0162607D01*
X0104369Y0163787D02*
X0098204Y0163787D01*
X0095488Y0163787D02*
X0094701Y0163787D01*
X0094701Y0164966D02*
X0095488Y0164966D01*
X0095716Y0164966D02*
X0104369Y0164966D01*
X0104733Y0166146D02*
X0067503Y0166146D01*
X0067868Y0164966D02*
X0094473Y0164966D01*
X0094701Y0162607D02*
X0095488Y0162607D01*
X0095488Y0161427D02*
X0094701Y0161427D01*
X0094701Y0159068D02*
X0095488Y0159068D01*
X0095488Y0157889D02*
X0094701Y0157889D01*
X0094701Y0156709D02*
X0095488Y0156709D01*
X0097336Y0155529D02*
X0067100Y0155529D01*
X0067499Y0156709D02*
X0073570Y0156709D01*
X0073054Y0156923D02*
X0074582Y0156290D01*
X0076237Y0156290D01*
X0077765Y0156923D01*
X0078935Y0158093D01*
X0079568Y0159622D01*
X0079568Y0161276D01*
X0078935Y0162805D01*
X0077765Y0163975D01*
X0076237Y0164608D01*
X0074582Y0164608D01*
X0073054Y0163975D01*
X0071884Y0162805D01*
X0071250Y0161276D01*
X0071250Y0159622D01*
X0071884Y0158093D01*
X0073054Y0156923D01*
X0072088Y0157889D02*
X0067868Y0157889D01*
X0067868Y0159068D02*
X0071480Y0159068D01*
X0071250Y0160248D02*
X0067868Y0160248D01*
X0067868Y0161427D02*
X0071313Y0161427D01*
X0071802Y0162607D02*
X0067868Y0162607D01*
X0067868Y0163787D02*
X0072866Y0163787D01*
X0077953Y0163787D02*
X0082708Y0163787D01*
X0081644Y0162607D02*
X0079017Y0162607D01*
X0079506Y0161427D02*
X0081156Y0161427D01*
X0081093Y0160248D02*
X0079568Y0160248D01*
X0079339Y0159068D02*
X0081322Y0159068D01*
X0081930Y0157889D02*
X0078731Y0157889D01*
X0077249Y0156709D02*
X0083413Y0156709D01*
X0085918Y0154350D02*
X0068279Y0154350D01*
X0069459Y0153170D02*
X0084739Y0153170D01*
X0089348Y0161427D02*
X0090634Y0161427D01*
X0091077Y0162607D02*
X0088860Y0162607D01*
X0087796Y0163787D02*
X0091985Y0163787D01*
X0099440Y0159068D02*
X0104369Y0159068D01*
X0104369Y0157889D02*
X0101318Y0157889D01*
X0102427Y0156709D02*
X0104737Y0156709D01*
X0105536Y0155529D02*
X0102695Y0155529D01*
X0103712Y0154350D02*
X0107467Y0154350D01*
X0109652Y0154350D02*
X0117467Y0154350D01*
X0119652Y0154350D02*
X0127467Y0154350D01*
X0129652Y0154350D02*
X0133162Y0154350D01*
X0131983Y0153170D02*
X0104892Y0153170D01*
X0104445Y0151098D02*
X0100016Y0155528D01*
X0097603Y0154350D02*
X0096397Y0154350D01*
X0097576Y0153170D02*
X0098705Y0153170D01*
X0098570Y0151991D02*
X0101034Y0151991D01*
X0102214Y0150811D02*
X0098570Y0150811D01*
X0104445Y0151098D02*
X0126098Y0151098D01*
X0132496Y0144701D01*
X0211236Y0144701D01*
X0213205Y0146669D01*
X0215212Y0148452D02*
X0223047Y0148452D01*
X0223047Y0149631D02*
X0192459Y0149631D01*
X0192308Y0148452D02*
X0211198Y0148452D01*
X0210554Y0147272D02*
X0191492Y0147272D01*
X0189780Y0149349D02*
X0188881Y0148450D01*
X0148244Y0148450D01*
X0148559Y0148765D01*
X0148559Y0161433D01*
X0144733Y0166146D02*
X0142829Y0166146D01*
X0143122Y0164966D02*
X0144369Y0164966D01*
X0144369Y0163787D02*
X0143150Y0163787D01*
X0143150Y0162607D02*
X0144369Y0162607D01*
X0144369Y0161427D02*
X0138969Y0161427D01*
X0138969Y0161024D02*
X0143150Y0161024D01*
X0143150Y0158072D01*
X0143037Y0157358D01*
X0142813Y0156671D01*
X0142485Y0156027D01*
X0142061Y0155443D01*
X0141550Y0154932D01*
X0140965Y0154507D01*
X0140321Y0154179D01*
X0139634Y0153956D01*
X0138969Y0153850D01*
X0138969Y0161024D01*
X0138969Y0160248D02*
X0138150Y0160248D01*
X0138150Y0161024D02*
X0138150Y0153850D01*
X0137484Y0153956D01*
X0136797Y0154179D01*
X0136153Y0154507D01*
X0135569Y0154932D01*
X0135058Y0155443D01*
X0134633Y0156027D01*
X0134305Y0156671D01*
X0134082Y0157358D01*
X0133969Y0158072D01*
X0133969Y0161024D01*
X0138150Y0161024D01*
X0138150Y0161427D02*
X0132750Y0161427D01*
X0132750Y0160248D02*
X0133969Y0160248D01*
X0133969Y0159068D02*
X0132750Y0159068D01*
X0132750Y0157889D02*
X0133998Y0157889D01*
X0134292Y0156709D02*
X0132381Y0156709D01*
X0131582Y0155529D02*
X0134994Y0155529D01*
X0136397Y0154350D02*
X0136461Y0154350D01*
X0137576Y0153170D02*
X0146778Y0153170D01*
X0146778Y0151991D02*
X0138570Y0151991D01*
X0138570Y0150811D02*
X0146778Y0150811D01*
X0148244Y0148450D02*
X0136935Y0148450D01*
X0134780Y0150606D01*
X0131573Y0148452D02*
X0131264Y0148452D01*
X0130989Y0149631D02*
X0130084Y0149631D01*
X0130989Y0150811D02*
X0128905Y0150811D01*
X0127880Y0151836D02*
X0127880Y0151836D01*
X0127725Y0151991D02*
X0130989Y0151991D01*
X0132444Y0147272D02*
X0132753Y0147272D01*
X0129765Y0144913D02*
X0122992Y0144913D01*
X0122958Y0144946D02*
X0122466Y0145439D01*
X0122426Y0145479D01*
X0123007Y0145479D01*
X0123104Y0145382D01*
X0124089Y0144974D01*
X0125155Y0144974D01*
X0126140Y0145382D01*
X0126894Y0146136D01*
X0127302Y0147121D01*
X0127302Y0147376D01*
X0130715Y0143963D01*
X0131758Y0142920D01*
X0132067Y0142920D01*
X0131200Y0142053D01*
X0125852Y0142053D01*
X0122958Y0144946D01*
X0124171Y0143733D02*
X0130945Y0143733D01*
X0130715Y0143963D02*
X0130715Y0143963D01*
X0131701Y0142554D02*
X0125351Y0142554D01*
X0125114Y0140272D02*
X0121177Y0144209D01*
X0120685Y0144701D01*
X0075409Y0144701D01*
X0063677Y0156433D01*
X0063677Y0161433D01*
X0059487Y0162607D02*
X0058268Y0162607D01*
X0058268Y0163787D02*
X0059487Y0163787D01*
X0059487Y0164966D02*
X0058240Y0164966D01*
X0057947Y0166146D02*
X0059851Y0166146D01*
X0060643Y0167326D02*
X0057250Y0167326D01*
X0050104Y0167326D02*
X0019961Y0167326D01*
X0019961Y0166146D02*
X0049407Y0166146D01*
X0049114Y0164966D02*
X0019961Y0164966D01*
X0019600Y0163787D02*
X0049087Y0163787D01*
X0043867Y0182563D02*
X0041991Y0182563D01*
X0040258Y0183280D01*
X0038931Y0184607D01*
X0038214Y0186340D01*
X0038214Y0195266D01*
X0038931Y0196999D01*
X0040258Y0198326D01*
X0040754Y0198531D01*
X0040754Y0212846D01*
X0042028Y0214120D01*
X0043745Y0215836D01*
X0043745Y0218121D01*
X0045965Y0220342D01*
X0049106Y0220342D01*
X0051326Y0218121D01*
X0051326Y0214981D01*
X0049106Y0212761D01*
X0046821Y0212761D01*
X0045104Y0211044D01*
X0045104Y0198531D01*
X0045600Y0198326D01*
X0046927Y0196999D01*
X0047645Y0195266D01*
X0047645Y0186340D01*
X0046927Y0184607D01*
X0045600Y0183280D01*
X0043867Y0182563D01*
X0044103Y0182661D02*
X0060409Y0182661D01*
X0060650Y0182537D02*
X0059933Y0182903D01*
X0059282Y0183376D01*
X0058712Y0183946D01*
X0058239Y0184597D01*
X0057873Y0185314D01*
X0057625Y0186080D01*
X0057499Y0186876D01*
X0057499Y0190219D01*
X0062030Y0190219D01*
X0062030Y0191388D01*
X0062030Y0199415D01*
X0061416Y0199318D01*
X0060650Y0199069D01*
X0059933Y0198703D01*
X0059282Y0198230D01*
X0058712Y0197661D01*
X0058239Y0197009D01*
X0057873Y0196292D01*
X0057625Y0195526D01*
X0057499Y0194731D01*
X0057499Y0191388D01*
X0062030Y0191388D01*
X0063199Y0191388D01*
X0067730Y0191388D01*
X0067730Y0194731D01*
X0067604Y0195526D01*
X0067355Y0196292D01*
X0066989Y0197009D01*
X0066516Y0197661D01*
X0065947Y0198230D01*
X0065295Y0198703D01*
X0064578Y0199069D01*
X0063812Y0199318D01*
X0063199Y0199415D01*
X0063199Y0191388D01*
X0063199Y0190219D01*
X0067730Y0190219D01*
X0067730Y0186876D01*
X0067604Y0186080D01*
X0067355Y0185314D01*
X0066989Y0184597D01*
X0066516Y0183946D01*
X0065947Y0183376D01*
X0065295Y0182903D01*
X0064578Y0182537D01*
X0063812Y0182289D01*
X0063199Y0182191D01*
X0063199Y0190219D01*
X0062030Y0190219D01*
X0062030Y0182191D01*
X0061416Y0182289D01*
X0060650Y0182537D01*
X0062030Y0182661D02*
X0063199Y0182661D01*
X0063199Y0183840D02*
X0062030Y0183840D01*
X0062030Y0185020D02*
X0063199Y0185020D01*
X0063199Y0186199D02*
X0062030Y0186199D01*
X0062030Y0187379D02*
X0063199Y0187379D01*
X0063199Y0188559D02*
X0062030Y0188559D01*
X0062030Y0189738D02*
X0063199Y0189738D01*
X0063199Y0190918D02*
X0077584Y0190918D01*
X0077584Y0192097D02*
X0067730Y0192097D01*
X0067730Y0193277D02*
X0077584Y0193277D01*
X0077584Y0194457D02*
X0067730Y0194457D01*
X0067568Y0195636D02*
X0077737Y0195636D01*
X0077584Y0195266D02*
X0077584Y0186340D01*
X0078302Y0184607D01*
X0079628Y0183280D01*
X0081361Y0182563D01*
X0083237Y0182563D01*
X0084848Y0183230D01*
X0090928Y0177150D01*
X0019961Y0177150D01*
X0019961Y0179862D01*
X0018662Y0182996D01*
X0016264Y0185395D01*
X0013129Y0186693D01*
X0009737Y0186693D01*
X0009134Y0186443D01*
X0009134Y0243706D01*
X0009737Y0243457D01*
X0013129Y0243457D01*
X0013941Y0243793D01*
X0013941Y0243172D01*
X0014658Y0241439D01*
X0015985Y0240113D01*
X0017718Y0239395D01*
X0023821Y0239395D01*
X0037723Y0225493D01*
X0038997Y0224219D01*
X0044350Y0224219D01*
X0045965Y0222603D01*
X0049106Y0222603D01*
X0051326Y0224824D01*
X0051326Y0227964D01*
X0049106Y0230184D01*
X0045965Y0230184D01*
X0044350Y0228568D01*
X0040798Y0228568D01*
X0028816Y0240551D01*
X0029704Y0241439D01*
X0030422Y0243172D01*
X0030422Y0245048D01*
X0029704Y0246781D01*
X0028377Y0248108D01*
X0026644Y0248826D01*
X0019355Y0248826D01*
X0019961Y0250288D01*
X0019961Y0252999D01*
X0050136Y0252999D01*
X0049751Y0252469D01*
X0049423Y0251825D01*
X0049200Y0251138D01*
X0049087Y0250424D01*
X0049087Y0247472D01*
X0053268Y0247472D01*
X0053268Y0246654D01*
X0049087Y0246654D01*
X0049087Y0243702D01*
X0049200Y0242988D01*
X0049423Y0242301D01*
X0049751Y0241657D01*
X0050176Y0241072D01*
X0050687Y0240562D01*
X0051271Y0240137D01*
X0051915Y0239809D01*
X0052602Y0239585D01*
X0053268Y0239480D01*
X0053268Y0246653D01*
X0054087Y0246653D01*
X0054087Y0246654D02*
X0054087Y0247472D01*
X0058268Y0247472D01*
X0058268Y0250424D01*
X0058155Y0251138D01*
X0057931Y0251825D01*
X0057603Y0252469D01*
X0057218Y0252999D01*
X0060687Y0252999D01*
X0060125Y0252437D01*
X0059487Y0250897D01*
X0059487Y0243229D01*
X0060125Y0241689D01*
X0061303Y0240510D01*
X0062844Y0239872D01*
X0063349Y0239872D01*
X0073628Y0229593D01*
X0074672Y0228550D01*
X0075744Y0228550D01*
X0075106Y0227912D01*
X0074698Y0226927D01*
X0074698Y0225861D01*
X0075106Y0224876D01*
X0075597Y0224385D01*
X0075597Y0210694D01*
X0051326Y0234965D01*
X0051326Y0237806D01*
X0049106Y0240027D01*
X0045965Y0240027D01*
X0043745Y0237806D01*
X0043745Y0234666D01*
X0045965Y0232446D01*
X0048807Y0232446D01*
X0081680Y0199573D01*
X0082209Y0199044D01*
X0081361Y0199044D01*
X0079628Y0198326D01*
X0078302Y0196999D01*
X0077584Y0195266D01*
X0078226Y0196816D02*
X0067088Y0196816D01*
X0066181Y0197995D02*
X0079298Y0197995D01*
X0080898Y0200355D02*
X0045104Y0200355D01*
X0045104Y0201534D02*
X0079718Y0201534D01*
X0078539Y0202714D02*
X0045104Y0202714D01*
X0045104Y0203894D02*
X0077359Y0203894D01*
X0076180Y0205073D02*
X0045104Y0205073D01*
X0045104Y0206253D02*
X0075000Y0206253D01*
X0073820Y0207432D02*
X0045104Y0207432D01*
X0045104Y0208612D02*
X0072641Y0208612D01*
X0071461Y0209792D02*
X0045104Y0209792D01*
X0045104Y0210971D02*
X0070282Y0210971D01*
X0069102Y0212151D02*
X0046211Y0212151D01*
X0049675Y0213330D02*
X0067922Y0213330D01*
X0066743Y0214510D02*
X0050855Y0214510D01*
X0051326Y0215690D02*
X0065563Y0215690D01*
X0064383Y0216869D02*
X0051326Y0216869D01*
X0051326Y0218049D02*
X0063204Y0218049D01*
X0062024Y0219229D02*
X0050219Y0219229D01*
X0049270Y0222767D02*
X0058485Y0222767D01*
X0057306Y0223947D02*
X0050449Y0223947D01*
X0051326Y0225127D02*
X0056126Y0225127D01*
X0054947Y0226306D02*
X0051326Y0226306D01*
X0051326Y0227486D02*
X0053767Y0227486D01*
X0052587Y0228665D02*
X0050624Y0228665D01*
X0051408Y0229845D02*
X0049445Y0229845D01*
X0050228Y0231025D02*
X0038342Y0231025D01*
X0037163Y0232204D02*
X0049049Y0232204D01*
X0051727Y0234564D02*
X0068658Y0234564D01*
X0067478Y0235743D02*
X0051326Y0235743D01*
X0051326Y0236923D02*
X0066299Y0236923D01*
X0065119Y0238102D02*
X0051030Y0238102D01*
X0049850Y0239282D02*
X0063939Y0239282D01*
X0061421Y0240462D02*
X0056530Y0240462D01*
X0056668Y0240562D02*
X0057179Y0241072D01*
X0057603Y0241657D01*
X0057931Y0242301D01*
X0058155Y0242988D01*
X0058268Y0243702D01*
X0058268Y0246654D01*
X0054087Y0246654D01*
X0054087Y0246653D02*
X0054087Y0239480D01*
X0054752Y0239585D01*
X0055439Y0239809D01*
X0056083Y0240137D01*
X0056668Y0240562D01*
X0057592Y0241641D02*
X0060173Y0241641D01*
X0059656Y0242821D02*
X0058100Y0242821D01*
X0058268Y0244000D02*
X0059487Y0244000D01*
X0059487Y0245180D02*
X0058268Y0245180D01*
X0058268Y0246360D02*
X0059487Y0246360D01*
X0059487Y0247539D02*
X0058268Y0247539D01*
X0058268Y0248719D02*
X0059487Y0248719D01*
X0059487Y0249898D02*
X0058268Y0249898D01*
X0058164Y0251078D02*
X0059562Y0251078D01*
X0060050Y0252258D02*
X0057711Y0252258D01*
X0054087Y0246360D02*
X0053268Y0246360D01*
X0053268Y0245180D02*
X0054087Y0245180D01*
X0054087Y0244000D02*
X0053268Y0244000D01*
X0053268Y0242821D02*
X0054087Y0242821D01*
X0054087Y0241641D02*
X0053268Y0241641D01*
X0053268Y0240462D02*
X0054087Y0240462D01*
X0050824Y0240462D02*
X0028905Y0240462D01*
X0029787Y0241641D02*
X0049762Y0241641D01*
X0049254Y0242821D02*
X0030276Y0242821D01*
X0030422Y0244000D02*
X0049087Y0244000D01*
X0049087Y0245180D02*
X0030367Y0245180D01*
X0029878Y0246360D02*
X0049087Y0246360D01*
X0049087Y0247539D02*
X0028946Y0247539D01*
X0026902Y0248719D02*
X0049087Y0248719D01*
X0049087Y0249898D02*
X0019799Y0249898D01*
X0019961Y0251078D02*
X0049190Y0251078D01*
X0049643Y0252258D02*
X0019961Y0252258D01*
X0019961Y0262780D02*
X0019961Y0265492D01*
X0018662Y0268626D01*
X0016264Y0271025D01*
X0013129Y0272323D01*
X0009737Y0272323D01*
X0009134Y0272073D01*
X0009134Y0329336D01*
X0009737Y0329087D01*
X0013129Y0329087D01*
X0013941Y0329423D01*
X0013941Y0328802D01*
X0014658Y0327069D01*
X0015985Y0325743D01*
X0017718Y0325025D01*
X0023821Y0325025D01*
X0037723Y0311123D01*
X0038997Y0309849D01*
X0044350Y0309849D01*
X0045965Y0308233D01*
X0049106Y0308233D01*
X0051326Y0310454D01*
X0051326Y0313594D01*
X0049106Y0315814D01*
X0045965Y0315814D01*
X0044350Y0314198D01*
X0040798Y0314198D01*
X0028816Y0326181D01*
X0029704Y0327069D01*
X0030422Y0328802D01*
X0030422Y0330678D01*
X0029704Y0332411D01*
X0028377Y0333738D01*
X0026644Y0334456D01*
X0019355Y0334456D01*
X0019961Y0335918D01*
X0019961Y0338929D01*
X0050421Y0338929D01*
X0050176Y0338683D01*
X0049751Y0338099D01*
X0049423Y0337455D01*
X0049200Y0336768D01*
X0049087Y0336054D01*
X0049087Y0333102D01*
X0053268Y0333102D01*
X0053268Y0332283D01*
X0054087Y0332283D01*
X0054087Y0333102D01*
X0058268Y0333102D01*
X0058268Y0336054D01*
X0058155Y0336768D01*
X0057931Y0337455D01*
X0057603Y0338099D01*
X0057179Y0338683D01*
X0056933Y0338929D01*
X0060987Y0338929D01*
X0060125Y0338067D01*
X0059487Y0336526D01*
X0059487Y0328859D01*
X0060125Y0327319D01*
X0061303Y0326140D01*
X0062844Y0325502D01*
X0063349Y0325502D01*
X0073628Y0315223D01*
X0074672Y0314180D01*
X0075744Y0314180D01*
X0075106Y0313541D01*
X0074698Y0312557D01*
X0074698Y0311491D01*
X0075106Y0310506D01*
X0075597Y0310015D01*
X0075597Y0296324D01*
X0051326Y0320594D01*
X0051326Y0323436D01*
X0049106Y0325657D01*
X0045965Y0325657D01*
X0043745Y0323436D01*
X0043745Y0320296D01*
X0045965Y0318076D01*
X0048807Y0318076D01*
X0081680Y0285203D01*
X0082209Y0284674D01*
X0081361Y0284674D01*
X0079628Y0283956D01*
X0078302Y0282629D01*
X0077584Y0280896D01*
X0077584Y0271970D01*
X0078302Y0270237D01*
X0079628Y0268910D01*
X0081361Y0268193D01*
X0083237Y0268193D01*
X0084848Y0268860D01*
X0090928Y0262780D01*
X0019961Y0262780D01*
X0019961Y0262874D02*
X0090834Y0262874D01*
X0089654Y0264054D02*
X0019961Y0264054D01*
X0019961Y0265233D02*
X0088474Y0265233D01*
X0087295Y0266413D02*
X0019579Y0266413D01*
X0019090Y0267593D02*
X0086115Y0267593D01*
X0084936Y0268772D02*
X0084637Y0268772D01*
X0079961Y0268772D02*
X0065625Y0268772D01*
X0065947Y0269006D02*
X0065295Y0268533D01*
X0064578Y0268167D01*
X0063812Y0267918D01*
X0063199Y0267821D01*
X0063199Y0275849D01*
X0063199Y0277018D01*
X0062030Y0277018D01*
X0062030Y0285045D01*
X0061416Y0284948D01*
X0060650Y0284699D01*
X0059933Y0284333D01*
X0059282Y0283860D01*
X0058712Y0283291D01*
X0058239Y0282639D01*
X0057873Y0281922D01*
X0057625Y0281156D01*
X0057499Y0280361D01*
X0057499Y0277018D01*
X0062030Y0277018D01*
X0062030Y0275849D01*
X0057499Y0275849D01*
X0057499Y0272505D01*
X0057625Y0271710D01*
X0057873Y0270944D01*
X0058239Y0270227D01*
X0058712Y0269576D01*
X0059282Y0269006D01*
X0059933Y0268533D01*
X0060650Y0268167D01*
X0061416Y0267918D01*
X0062030Y0267821D01*
X0062030Y0275849D01*
X0063199Y0275849D01*
X0067730Y0275849D01*
X0067730Y0272505D01*
X0067604Y0271710D01*
X0067355Y0270944D01*
X0066989Y0270227D01*
X0066516Y0269576D01*
X0065947Y0269006D01*
X0066790Y0269952D02*
X0078587Y0269952D01*
X0077931Y0271132D02*
X0067416Y0271132D01*
X0067699Y0272311D02*
X0077584Y0272311D01*
X0077584Y0273491D02*
X0067730Y0273491D01*
X0067730Y0274670D02*
X0077584Y0274670D01*
X0077584Y0275850D02*
X0063199Y0275850D01*
X0063199Y0277018D02*
X0067730Y0277018D01*
X0067730Y0280361D01*
X0067604Y0281156D01*
X0067355Y0281922D01*
X0066989Y0282639D01*
X0066516Y0283291D01*
X0065947Y0283860D01*
X0065295Y0284333D01*
X0064578Y0284699D01*
X0063812Y0284948D01*
X0063199Y0285045D01*
X0063199Y0277018D01*
X0063199Y0277030D02*
X0062030Y0277030D01*
X0062030Y0278209D02*
X0063199Y0278209D01*
X0063199Y0279389D02*
X0062030Y0279389D01*
X0062030Y0280568D02*
X0063199Y0280568D01*
X0063199Y0281748D02*
X0062030Y0281748D01*
X0062030Y0282928D02*
X0063199Y0282928D01*
X0063199Y0284107D02*
X0062030Y0284107D01*
X0059622Y0284107D02*
X0045234Y0284107D01*
X0045104Y0284161D02*
X0045104Y0296674D01*
X0046821Y0298391D01*
X0049106Y0298391D01*
X0051326Y0300611D01*
X0051326Y0303751D01*
X0049106Y0305972D01*
X0045965Y0305972D01*
X0043745Y0303751D01*
X0043745Y0301466D01*
X0042028Y0299750D01*
X0040754Y0298476D01*
X0040754Y0284161D01*
X0040258Y0283956D01*
X0038931Y0282629D01*
X0038214Y0280896D01*
X0038214Y0271970D01*
X0038931Y0270237D01*
X0040258Y0268910D01*
X0041991Y0268193D01*
X0043867Y0268193D01*
X0045600Y0268910D01*
X0046927Y0270237D01*
X0047645Y0271970D01*
X0047645Y0280896D01*
X0046927Y0282629D01*
X0045600Y0283956D01*
X0045104Y0284161D01*
X0045104Y0285287D02*
X0081596Y0285287D01*
X0080416Y0286467D02*
X0045104Y0286467D01*
X0045104Y0287646D02*
X0079237Y0287646D01*
X0078057Y0288826D02*
X0045104Y0288826D01*
X0045104Y0290005D02*
X0076877Y0290005D01*
X0075698Y0291185D02*
X0045104Y0291185D01*
X0045104Y0292365D02*
X0074518Y0292365D01*
X0073339Y0293544D02*
X0045104Y0293544D01*
X0045104Y0294724D02*
X0072159Y0294724D01*
X0070979Y0295903D02*
X0045104Y0295903D01*
X0045513Y0297083D02*
X0069800Y0297083D01*
X0068620Y0298263D02*
X0046693Y0298263D01*
X0042901Y0300622D02*
X0009134Y0300622D01*
X0009134Y0301801D02*
X0043745Y0301801D01*
X0043745Y0302981D02*
X0009134Y0302981D01*
X0009134Y0304161D02*
X0044154Y0304161D01*
X0045334Y0305340D02*
X0027721Y0305340D01*
X0027670Y0305314D02*
X0028387Y0305680D01*
X0029039Y0306153D01*
X0029608Y0306723D01*
X0030081Y0307374D01*
X0030447Y0308091D01*
X0030696Y0308857D01*
X0030793Y0309471D01*
X0022766Y0309471D01*
X0022766Y0310640D01*
X0021597Y0310640D01*
X0021597Y0315171D01*
X0018253Y0315171D01*
X0017458Y0315045D01*
X0016692Y0314796D01*
X0015975Y0314430D01*
X0015324Y0313957D01*
X0014754Y0313388D01*
X0014281Y0312736D01*
X0013915Y0312019D01*
X0013667Y0311253D01*
X0013569Y0310640D01*
X0021597Y0310640D01*
X0021597Y0309471D01*
X0022766Y0309471D01*
X0022766Y0304940D01*
X0026109Y0304940D01*
X0026904Y0305066D01*
X0027670Y0305314D01*
X0029405Y0306520D02*
X0060363Y0306520D01*
X0061542Y0305340D02*
X0049737Y0305340D01*
X0050916Y0304161D02*
X0062722Y0304161D01*
X0063902Y0302981D02*
X0051326Y0302981D01*
X0051326Y0301801D02*
X0065081Y0301801D01*
X0066261Y0300622D02*
X0051326Y0300622D01*
X0050157Y0299442D02*
X0067440Y0299442D01*
X0070119Y0301801D02*
X0075597Y0301801D01*
X0075597Y0300622D02*
X0071299Y0300622D01*
X0072478Y0299442D02*
X0075597Y0299442D01*
X0075597Y0298263D02*
X0073658Y0298263D01*
X0074837Y0297083D02*
X0075597Y0297083D01*
X0077378Y0295813D02*
X0077378Y0312024D01*
X0075553Y0310059D02*
X0061862Y0310059D01*
X0063041Y0308879D02*
X0075597Y0308879D01*
X0075597Y0307700D02*
X0064221Y0307700D01*
X0065400Y0306520D02*
X0075597Y0306520D01*
X0075597Y0305340D02*
X0066580Y0305340D01*
X0067760Y0304161D02*
X0075597Y0304161D01*
X0075597Y0302981D02*
X0068939Y0302981D01*
X0074803Y0311238D02*
X0060682Y0311238D01*
X0059502Y0312418D02*
X0074698Y0312418D01*
X0075163Y0313598D02*
X0058323Y0313598D01*
X0057143Y0314777D02*
X0074074Y0314777D01*
X0072894Y0315957D02*
X0055964Y0315957D01*
X0054784Y0317136D02*
X0071715Y0317136D01*
X0070535Y0318316D02*
X0053604Y0318316D01*
X0052425Y0319496D02*
X0069356Y0319496D01*
X0068176Y0320675D02*
X0051326Y0320675D01*
X0051326Y0321855D02*
X0066996Y0321855D01*
X0065817Y0323035D02*
X0051326Y0323035D01*
X0050548Y0324214D02*
X0064637Y0324214D01*
X0063457Y0325394D02*
X0055301Y0325394D01*
X0055439Y0325439D02*
X0056083Y0325767D01*
X0056668Y0326191D01*
X0057179Y0326702D01*
X0057603Y0327287D01*
X0057931Y0327931D01*
X0058155Y0328618D01*
X0058268Y0329332D01*
X0058268Y0332283D01*
X0054087Y0332283D01*
X0054087Y0325110D01*
X0054752Y0325215D01*
X0055439Y0325439D01*
X0054087Y0325394D02*
X0053268Y0325394D01*
X0053268Y0325110D02*
X0053268Y0332283D01*
X0049087Y0332283D01*
X0049087Y0329332D01*
X0049200Y0328618D01*
X0049423Y0327931D01*
X0049751Y0327287D01*
X0050176Y0326702D01*
X0050687Y0326191D01*
X0051271Y0325767D01*
X0051915Y0325439D01*
X0052602Y0325215D01*
X0053268Y0325110D01*
X0052053Y0325394D02*
X0049368Y0325394D01*
X0050305Y0326573D02*
X0029208Y0326573D01*
X0029603Y0325394D02*
X0045702Y0325394D01*
X0044523Y0324214D02*
X0030783Y0324214D01*
X0031962Y0323035D02*
X0043745Y0323035D01*
X0043745Y0321855D02*
X0033142Y0321855D01*
X0034322Y0320675D02*
X0043745Y0320675D01*
X0044545Y0319496D02*
X0035501Y0319496D01*
X0036681Y0318316D02*
X0045725Y0318316D01*
X0044928Y0314777D02*
X0040220Y0314777D01*
X0039040Y0315957D02*
X0050926Y0315957D01*
X0050142Y0314777D02*
X0052105Y0314777D01*
X0051322Y0313598D02*
X0053285Y0313598D01*
X0054465Y0312418D02*
X0051326Y0312418D01*
X0051326Y0311238D02*
X0055644Y0311238D01*
X0056824Y0310059D02*
X0050931Y0310059D01*
X0049752Y0308879D02*
X0058004Y0308879D01*
X0059183Y0307700D02*
X0030247Y0307700D01*
X0030699Y0308879D02*
X0045319Y0308879D01*
X0041721Y0299442D02*
X0009134Y0299442D01*
X0009134Y0298263D02*
X0040754Y0298263D01*
X0040754Y0297083D02*
X0009134Y0297083D01*
X0009134Y0295903D02*
X0040754Y0295903D01*
X0040754Y0294724D02*
X0009134Y0294724D01*
X0009134Y0293544D02*
X0040754Y0293544D01*
X0040754Y0292365D02*
X0009134Y0292365D01*
X0009134Y0291185D02*
X0040754Y0291185D01*
X0040754Y0290005D02*
X0009134Y0290005D01*
X0009134Y0288826D02*
X0040754Y0288826D01*
X0040754Y0287646D02*
X0009134Y0287646D01*
X0009134Y0286467D02*
X0040754Y0286467D01*
X0040754Y0285287D02*
X0009134Y0285287D01*
X0009134Y0284107D02*
X0020939Y0284107D01*
X0020573Y0283956D02*
X0019246Y0282629D01*
X0018529Y0280896D01*
X0018529Y0271970D01*
X0019246Y0270237D01*
X0020573Y0268910D01*
X0022306Y0268193D01*
X0024182Y0268193D01*
X0025915Y0268910D01*
X0027242Y0270237D01*
X0027960Y0271970D01*
X0027960Y0280896D01*
X0027242Y0282629D01*
X0025915Y0283956D01*
X0024182Y0284674D01*
X0022306Y0284674D01*
X0020573Y0283956D01*
X0019545Y0282928D02*
X0009134Y0282928D01*
X0009134Y0281748D02*
X0018881Y0281748D01*
X0018529Y0280568D02*
X0009134Y0280568D01*
X0009134Y0279389D02*
X0018529Y0279389D01*
X0018529Y0278209D02*
X0009134Y0278209D01*
X0009134Y0277030D02*
X0018529Y0277030D01*
X0018529Y0275850D02*
X0009134Y0275850D01*
X0009134Y0274670D02*
X0018529Y0274670D01*
X0018529Y0273491D02*
X0009134Y0273491D01*
X0009134Y0272311D02*
X0009709Y0272311D01*
X0013158Y0272311D02*
X0018529Y0272311D01*
X0018876Y0271132D02*
X0016005Y0271132D01*
X0017336Y0269952D02*
X0019531Y0269952D01*
X0018516Y0268772D02*
X0020906Y0268772D01*
X0025582Y0268772D02*
X0040591Y0268772D01*
X0039216Y0269952D02*
X0026957Y0269952D01*
X0027612Y0271132D02*
X0038561Y0271132D01*
X0038214Y0272311D02*
X0027960Y0272311D01*
X0027960Y0273491D02*
X0038214Y0273491D01*
X0038214Y0274670D02*
X0027960Y0274670D01*
X0027960Y0275850D02*
X0038214Y0275850D01*
X0038214Y0277030D02*
X0027960Y0277030D01*
X0027960Y0278209D02*
X0038214Y0278209D01*
X0038214Y0279389D02*
X0027960Y0279389D01*
X0027960Y0280568D02*
X0038214Y0280568D01*
X0038566Y0281748D02*
X0027607Y0281748D01*
X0026943Y0282928D02*
X0039230Y0282928D01*
X0040624Y0284107D02*
X0025549Y0284107D01*
X0021597Y0304940D02*
X0018253Y0304940D01*
X0017458Y0305066D01*
X0016692Y0305314D01*
X0015975Y0305680D01*
X0015324Y0306153D01*
X0014754Y0306723D01*
X0014281Y0307374D01*
X0013915Y0308091D01*
X0013667Y0308857D01*
X0013569Y0309471D01*
X0021597Y0309471D01*
X0021597Y0304940D01*
X0021597Y0305340D02*
X0022766Y0305340D01*
X0022766Y0306520D02*
X0021597Y0306520D01*
X0021597Y0307700D02*
X0022766Y0307700D01*
X0022766Y0308879D02*
X0021597Y0308879D01*
X0021597Y0310059D02*
X0009134Y0310059D01*
X0009134Y0311238D02*
X0013664Y0311238D01*
X0014119Y0312418D02*
X0009134Y0312418D01*
X0009134Y0313598D02*
X0014964Y0313598D01*
X0016656Y0314777D02*
X0009134Y0314777D01*
X0009134Y0315957D02*
X0032889Y0315957D01*
X0034068Y0314777D02*
X0027706Y0314777D01*
X0027670Y0314796D02*
X0026904Y0315045D01*
X0026109Y0315171D01*
X0022766Y0315171D01*
X0022766Y0310640D01*
X0030793Y0310640D01*
X0030696Y0311253D01*
X0030447Y0312019D01*
X0030081Y0312736D01*
X0029608Y0313388D01*
X0029039Y0313957D01*
X0028387Y0314430D01*
X0027670Y0314796D01*
X0029398Y0313598D02*
X0035248Y0313598D01*
X0036428Y0312418D02*
X0030243Y0312418D01*
X0030698Y0311238D02*
X0037607Y0311238D01*
X0038787Y0310059D02*
X0022766Y0310059D01*
X0022766Y0311238D02*
X0021597Y0311238D01*
X0021597Y0312418D02*
X0022766Y0312418D01*
X0022766Y0313598D02*
X0021597Y0313598D01*
X0021597Y0314777D02*
X0022766Y0314777D01*
X0028170Y0320675D02*
X0009134Y0320675D01*
X0009134Y0319496D02*
X0029350Y0319496D01*
X0030530Y0318316D02*
X0009134Y0318316D01*
X0009134Y0317136D02*
X0031709Y0317136D01*
X0037860Y0317136D02*
X0049746Y0317136D01*
X0047535Y0321866D02*
X0083461Y0285941D01*
X0123293Y0285941D01*
X0131586Y0277649D01*
X0129595Y0275850D02*
X0122254Y0275850D01*
X0122254Y0275849D02*
X0122254Y0277018D01*
X0126785Y0277018D01*
X0126785Y0279930D01*
X0128906Y0277809D01*
X0128906Y0277116D01*
X0129314Y0276131D01*
X0130068Y0275377D01*
X0131053Y0274969D01*
X0131756Y0274969D01*
X0125119Y0268332D01*
X0123957Y0268332D01*
X0124350Y0268533D01*
X0125002Y0269006D01*
X0125571Y0269576D01*
X0126044Y0270227D01*
X0126410Y0270944D01*
X0126659Y0271710D01*
X0126785Y0272505D01*
X0126785Y0275849D01*
X0122254Y0275849D01*
X0121085Y0275850D02*
X0106700Y0275850D01*
X0106700Y0277030D02*
X0116554Y0277030D01*
X0116554Y0277018D02*
X0121085Y0277018D01*
X0121085Y0275849D01*
X0116554Y0275849D01*
X0116554Y0272505D01*
X0116680Y0271710D01*
X0116929Y0270944D01*
X0117294Y0270227D01*
X0117767Y0269576D01*
X0118337Y0269006D01*
X0118988Y0268533D01*
X0119382Y0268332D01*
X0103260Y0268332D01*
X0104655Y0268910D01*
X0105982Y0270237D01*
X0106700Y0271970D01*
X0106700Y0280896D01*
X0105982Y0282629D01*
X0104655Y0283956D01*
X0104163Y0284160D01*
X0118749Y0284160D01*
X0118337Y0283860D01*
X0117767Y0283291D01*
X0117294Y0282639D01*
X0116929Y0281922D01*
X0116680Y0281156D01*
X0116554Y0280361D01*
X0116554Y0277018D01*
X0116554Y0278209D02*
X0106700Y0278209D01*
X0106700Y0279389D02*
X0116554Y0279389D01*
X0116587Y0280568D02*
X0106700Y0280568D01*
X0106347Y0281748D02*
X0116872Y0281748D01*
X0117504Y0282928D02*
X0105683Y0282928D01*
X0104289Y0284107D02*
X0118677Y0284107D01*
X0124914Y0286839D02*
X0130648Y0286839D01*
X0131140Y0287331D01*
X0131884Y0287331D01*
X0132376Y0286839D01*
X0134275Y0286839D01*
X0133436Y0286492D01*
X0132437Y0285493D01*
X0131896Y0284187D01*
X0131896Y0282774D01*
X0132437Y0281468D01*
X0133436Y0280468D01*
X0134742Y0279928D01*
X0136714Y0279928D01*
X0134265Y0277478D01*
X0134265Y0278182D01*
X0133857Y0279166D01*
X0133103Y0279920D01*
X0132119Y0280328D01*
X0131425Y0280328D01*
X0124914Y0286839D01*
X0125287Y0286467D02*
X0133411Y0286467D01*
X0132352Y0285287D02*
X0126466Y0285287D01*
X0127646Y0284107D02*
X0131896Y0284107D01*
X0131896Y0282928D02*
X0128825Y0282928D01*
X0130005Y0281748D02*
X0132321Y0281748D01*
X0133336Y0280568D02*
X0131185Y0280568D01*
X0133635Y0279389D02*
X0136176Y0279389D01*
X0134996Y0278209D02*
X0134254Y0278209D01*
X0131457Y0274670D02*
X0126785Y0274670D01*
X0126785Y0273491D02*
X0130277Y0273491D01*
X0129098Y0272311D02*
X0126754Y0272311D01*
X0126471Y0271132D02*
X0127918Y0271132D01*
X0126739Y0269952D02*
X0125845Y0269952D01*
X0125559Y0268772D02*
X0124680Y0268772D01*
X0118659Y0268772D02*
X0104322Y0268772D01*
X0105697Y0269952D02*
X0117494Y0269952D01*
X0116868Y0271132D02*
X0106352Y0271132D01*
X0106700Y0272311D02*
X0116585Y0272311D01*
X0116554Y0273491D02*
X0106700Y0273491D01*
X0106700Y0274670D02*
X0116554Y0274670D01*
X0126785Y0277030D02*
X0128942Y0277030D01*
X0128506Y0278209D02*
X0126785Y0278209D01*
X0126785Y0279389D02*
X0127326Y0279389D01*
X0129910Y0288620D02*
X0084571Y0288620D01*
X0077378Y0295813D01*
X0079159Y0296551D02*
X0079159Y0299869D01*
X0080006Y0299022D01*
X0082623Y0299022D01*
X0083979Y0300377D01*
X0085965Y0298391D01*
X0089106Y0298391D01*
X0091157Y0300443D01*
X0093209Y0298391D01*
X0096350Y0298391D01*
X0098570Y0300611D01*
X0098570Y0303751D01*
X0096350Y0305972D01*
X0093589Y0305972D01*
X0093837Y0306569D01*
X0093837Y0307635D01*
X0093793Y0307741D01*
X0096350Y0307741D01*
X0098570Y0309961D01*
X0098570Y0313102D01*
X0097492Y0314180D01*
X0119947Y0314180D01*
X0120439Y0313687D01*
X0124376Y0309750D01*
X0131200Y0309750D01*
X0133209Y0307741D01*
X0136350Y0307741D01*
X0138359Y0309750D01*
X0218086Y0309750D01*
X0218577Y0309260D01*
X0219561Y0308852D01*
X0220627Y0308852D01*
X0221612Y0309260D01*
X0222366Y0310014D01*
X0222774Y0310998D01*
X0222774Y0312064D01*
X0222366Y0313049D01*
X0221612Y0313803D01*
X0220627Y0314211D01*
X0219561Y0314211D01*
X0218577Y0313803D01*
X0218086Y0313313D01*
X0138359Y0313313D01*
X0137492Y0314180D01*
X0211974Y0314180D01*
X0213017Y0315223D01*
X0213044Y0315250D01*
X0213738Y0315250D01*
X0214723Y0315658D01*
X0215476Y0316411D01*
X0215884Y0317396D01*
X0215884Y0318462D01*
X0215476Y0319447D01*
X0214723Y0320201D01*
X0213738Y0320609D01*
X0212672Y0320609D01*
X0211687Y0320201D01*
X0210933Y0319447D01*
X0210525Y0318462D01*
X0210525Y0317768D01*
X0210498Y0317742D01*
X0133234Y0317742D01*
X0127880Y0323096D01*
X0126836Y0324139D01*
X0105183Y0324139D01*
X0102695Y0326627D01*
X0102695Y0327320D01*
X0102287Y0328305D01*
X0101534Y0329059D01*
X0100549Y0329467D01*
X0099483Y0329467D01*
X0098937Y0329241D01*
X0098994Y0329319D01*
X0099320Y0329959D01*
X0099541Y0330641D01*
X0099648Y0331315D01*
X0095488Y0331315D01*
X0095488Y0327155D01*
X0096162Y0327262D01*
X0096845Y0327484D01*
X0097484Y0327809D01*
X0097562Y0327866D01*
X0097336Y0327320D01*
X0097336Y0326254D01*
X0097744Y0325270D01*
X0098498Y0324516D01*
X0099483Y0324108D01*
X0100176Y0324108D01*
X0102664Y0321621D01*
X0102664Y0321621D01*
X0103196Y0321088D01*
X0098633Y0321088D01*
X0098570Y0321151D01*
X0098570Y0323436D01*
X0096350Y0325657D01*
X0093209Y0325657D01*
X0091157Y0323605D01*
X0089106Y0325657D01*
X0085965Y0325657D01*
X0083745Y0323436D01*
X0083745Y0320296D01*
X0085965Y0318076D01*
X0089106Y0318076D01*
X0091157Y0320128D01*
X0093209Y0318076D01*
X0095494Y0318076D01*
X0095557Y0318013D01*
X0095828Y0317742D01*
X0076147Y0317742D01*
X0066900Y0326989D01*
X0067230Y0327319D01*
X0067868Y0328859D01*
X0067868Y0336526D01*
X0067230Y0338067D01*
X0066367Y0338929D01*
X0105869Y0338929D01*
X0105006Y0338067D01*
X0104369Y0336526D01*
X0104369Y0328859D01*
X0105006Y0327319D01*
X0106185Y0326140D01*
X0107725Y0325502D01*
X0109393Y0325502D01*
X0110933Y0326140D01*
X0112112Y0327319D01*
X0112750Y0328859D01*
X0112750Y0336526D01*
X0112112Y0338067D01*
X0111249Y0338929D01*
X0115869Y0338929D01*
X0115006Y0338067D01*
X0114369Y0336526D01*
X0114369Y0328859D01*
X0115006Y0327319D01*
X0116185Y0326140D01*
X0117725Y0325502D01*
X0119393Y0325502D01*
X0120933Y0326140D01*
X0122112Y0327319D01*
X0122750Y0328859D01*
X0122750Y0336526D01*
X0122112Y0338067D01*
X0121249Y0338929D01*
X0125869Y0338929D01*
X0125006Y0338067D01*
X0124369Y0336526D01*
X0124369Y0328859D01*
X0125006Y0327319D01*
X0126185Y0326140D01*
X0127725Y0325502D01*
X0129393Y0325502D01*
X0130933Y0326140D01*
X0132112Y0327319D01*
X0132750Y0328859D01*
X0132750Y0336526D01*
X0132112Y0338067D01*
X0131249Y0338929D01*
X0135303Y0338929D01*
X0135058Y0338683D01*
X0134633Y0338099D01*
X0134305Y0337455D01*
X0134082Y0336768D01*
X0133969Y0336054D01*
X0133969Y0333102D01*
X0138150Y0333102D01*
X0138150Y0332283D01*
X0138969Y0332283D01*
X0138969Y0333102D01*
X0143150Y0333102D01*
X0143150Y0336054D01*
X0143037Y0336768D01*
X0142813Y0337455D01*
X0142485Y0338099D01*
X0142061Y0338683D01*
X0141815Y0338929D01*
X0145869Y0338929D01*
X0145006Y0338067D01*
X0144369Y0336526D01*
X0144369Y0328859D01*
X0145006Y0327319D01*
X0146185Y0326140D01*
X0146778Y0325895D01*
X0146778Y0321491D01*
X0138570Y0321491D01*
X0138570Y0323436D01*
X0136350Y0325657D01*
X0133209Y0325657D01*
X0130989Y0323436D01*
X0130989Y0320296D01*
X0133209Y0318076D01*
X0136051Y0318076D01*
X0136198Y0317929D01*
X0190313Y0317929D01*
X0191297Y0318337D01*
X0192051Y0319091D01*
X0192459Y0320076D01*
X0192459Y0321142D01*
X0192051Y0322126D01*
X0191297Y0322880D01*
X0190917Y0323038D01*
X0202760Y0323038D01*
X0203059Y0322317D01*
X0203813Y0321563D01*
X0204798Y0321155D01*
X0205864Y0321155D01*
X0206849Y0321563D01*
X0207602Y0322317D01*
X0208010Y0323302D01*
X0208010Y0324368D01*
X0207602Y0325352D01*
X0206849Y0326106D01*
X0205864Y0326514D01*
X0205170Y0326514D01*
X0205084Y0326600D01*
X0169160Y0326600D01*
X0168117Y0325557D01*
X0168090Y0325530D01*
X0167396Y0325530D01*
X0166411Y0325122D01*
X0165658Y0324368D01*
X0165250Y0323383D01*
X0165250Y0322317D01*
X0165592Y0321491D01*
X0150340Y0321491D01*
X0150340Y0325895D01*
X0150933Y0326140D01*
X0152112Y0327319D01*
X0152750Y0328859D01*
X0152750Y0336526D01*
X0152112Y0338067D01*
X0151249Y0338929D01*
X0223047Y0338929D01*
X0223047Y0262780D01*
X0192071Y0262780D01*
X0205170Y0275880D01*
X0205864Y0275880D01*
X0206849Y0276287D01*
X0207602Y0277041D01*
X0208010Y0278026D01*
X0208010Y0279092D01*
X0207602Y0280077D01*
X0206849Y0280831D01*
X0205864Y0281239D01*
X0204798Y0281239D01*
X0203813Y0280831D01*
X0203059Y0280077D01*
X0202651Y0279092D01*
X0202651Y0278398D01*
X0188514Y0264261D01*
X0136160Y0264261D01*
X0136160Y0264328D01*
X0135752Y0265313D01*
X0134998Y0266067D01*
X0134013Y0266475D01*
X0133310Y0266475D01*
X0143367Y0276531D01*
X0144366Y0277531D01*
X0144907Y0278837D01*
X0144907Y0279928D01*
X0147967Y0279928D01*
X0149272Y0280468D01*
X0150272Y0281468D01*
X0150813Y0282774D01*
X0150813Y0284187D01*
X0150272Y0285493D01*
X0149272Y0286492D01*
X0148434Y0286839D01*
X0186658Y0286839D01*
X0194777Y0278720D01*
X0194777Y0278026D01*
X0195185Y0277041D01*
X0195939Y0276287D01*
X0196924Y0275880D01*
X0197990Y0275880D01*
X0198975Y0276287D01*
X0199728Y0277041D01*
X0200136Y0278026D01*
X0200136Y0279092D01*
X0199728Y0280077D01*
X0198975Y0280831D01*
X0197990Y0281239D01*
X0197296Y0281239D01*
X0189176Y0289358D01*
X0188133Y0290402D01*
X0133852Y0290402D01*
X0133359Y0290894D01*
X0129664Y0290894D01*
X0129172Y0290402D01*
X0085308Y0290402D01*
X0079159Y0296551D01*
X0079159Y0297083D02*
X0106744Y0297083D01*
X0106868Y0296784D02*
X0106372Y0296579D01*
X0105618Y0295825D01*
X0105210Y0294840D01*
X0105210Y0293774D01*
X0105618Y0292789D01*
X0106372Y0292035D01*
X0107357Y0291628D01*
X0108423Y0291628D01*
X0109408Y0292035D01*
X0109898Y0292526D01*
X0211470Y0292526D01*
X0211687Y0292309D01*
X0212672Y0291901D01*
X0213738Y0291901D01*
X0214723Y0292309D01*
X0215476Y0293062D01*
X0215884Y0294047D01*
X0215884Y0295113D01*
X0215733Y0295479D01*
X0218086Y0295479D01*
X0218577Y0294988D01*
X0219561Y0294580D01*
X0220627Y0294580D01*
X0221612Y0294988D01*
X0222366Y0295742D01*
X0222774Y0296727D01*
X0222774Y0297793D01*
X0222366Y0298778D01*
X0221612Y0299531D01*
X0220627Y0299939D01*
X0219561Y0299939D01*
X0218577Y0299531D01*
X0218086Y0299041D01*
X0137000Y0299041D01*
X0138359Y0300400D01*
X0179700Y0300400D01*
X0180191Y0299910D01*
X0181176Y0299502D01*
X0182242Y0299502D01*
X0183226Y0299910D01*
X0183980Y0300663D01*
X0184388Y0301648D01*
X0184388Y0302714D01*
X0183980Y0303699D01*
X0183226Y0304453D01*
X0182242Y0304861D01*
X0181176Y0304861D01*
X0180191Y0304453D01*
X0179700Y0303962D01*
X0172405Y0303962D01*
X0172663Y0304584D01*
X0172663Y0305684D01*
X0172242Y0306700D01*
X0171464Y0307478D01*
X0170448Y0307899D01*
X0147694Y0307899D01*
X0146678Y0307478D01*
X0145900Y0306700D01*
X0145479Y0305684D01*
X0145479Y0304584D01*
X0145736Y0303962D01*
X0138359Y0303962D01*
X0136350Y0305972D01*
X0133209Y0305972D01*
X0130989Y0303751D01*
X0130989Y0300611D01*
X0132559Y0299041D01*
X0111734Y0299041D01*
X0111542Y0299505D01*
X0110788Y0300258D01*
X0109803Y0300666D01*
X0108737Y0300666D01*
X0107752Y0300258D01*
X0106998Y0299505D01*
X0106591Y0298520D01*
X0106591Y0297454D01*
X0106868Y0296784D01*
X0105697Y0295903D02*
X0079806Y0295903D01*
X0080986Y0294724D02*
X0105210Y0294724D01*
X0105305Y0293544D02*
X0082166Y0293544D01*
X0083345Y0292365D02*
X0106043Y0292365D01*
X0107890Y0294307D02*
X0212931Y0294307D01*
X0213205Y0294580D01*
X0215676Y0293544D02*
X0223047Y0293544D01*
X0223047Y0292365D02*
X0214778Y0292365D01*
X0215884Y0294724D02*
X0219215Y0294724D01*
X0220974Y0294724D02*
X0223047Y0294724D01*
X0223047Y0295903D02*
X0222433Y0295903D01*
X0222774Y0297083D02*
X0223047Y0297083D01*
X0223047Y0298263D02*
X0222579Y0298263D01*
X0223047Y0299442D02*
X0221701Y0299442D01*
X0223047Y0300622D02*
X0183939Y0300622D01*
X0184388Y0301801D02*
X0223047Y0301801D01*
X0223047Y0302981D02*
X0184278Y0302981D01*
X0183518Y0304161D02*
X0223047Y0304161D01*
X0223047Y0305340D02*
X0172663Y0305340D01*
X0172488Y0304161D02*
X0179899Y0304161D01*
X0181709Y0302181D02*
X0134780Y0302181D01*
X0137401Y0299442D02*
X0218487Y0299442D01*
X0220094Y0297260D02*
X0109270Y0297260D01*
X0109270Y0297987D01*
X0106591Y0298263D02*
X0079159Y0298263D01*
X0079159Y0299442D02*
X0079586Y0299442D01*
X0083044Y0299442D02*
X0084914Y0299442D01*
X0090157Y0299442D02*
X0092158Y0299442D01*
X0096981Y0305340D02*
X0132578Y0305340D01*
X0131398Y0304161D02*
X0098161Y0304161D01*
X0098570Y0302981D02*
X0130989Y0302981D01*
X0130989Y0301801D02*
X0098570Y0301801D01*
X0098570Y0300622D02*
X0108630Y0300622D01*
X0109910Y0300622D02*
X0130989Y0300622D01*
X0132158Y0299442D02*
X0111567Y0299442D01*
X0106973Y0299442D02*
X0097401Y0299442D01*
X0093817Y0306520D02*
X0145825Y0306520D01*
X0145479Y0305340D02*
X0136981Y0305340D01*
X0138161Y0304161D02*
X0145654Y0304161D01*
X0147212Y0307700D02*
X0093810Y0307700D01*
X0097488Y0308879D02*
X0132071Y0308879D01*
X0134780Y0311531D02*
X0125114Y0311531D01*
X0121177Y0315469D01*
X0120685Y0315961D01*
X0075409Y0315961D01*
X0063677Y0327693D01*
X0063677Y0332693D01*
X0067868Y0332471D02*
X0071250Y0332471D01*
X0071250Y0332536D02*
X0071250Y0330881D01*
X0071884Y0329353D01*
X0073054Y0328183D01*
X0074582Y0327550D01*
X0076237Y0327550D01*
X0077765Y0328183D01*
X0078935Y0329353D01*
X0079568Y0330881D01*
X0079568Y0332536D01*
X0078935Y0334065D01*
X0077765Y0335235D01*
X0076237Y0335868D01*
X0074582Y0335868D01*
X0073054Y0335235D01*
X0071884Y0334065D01*
X0071250Y0332536D01*
X0071712Y0333651D02*
X0067868Y0333651D01*
X0067868Y0334831D02*
X0072650Y0334831D01*
X0071250Y0331292D02*
X0067868Y0331292D01*
X0067868Y0330112D02*
X0071569Y0330112D01*
X0072304Y0328933D02*
X0067868Y0328933D01*
X0067409Y0327753D02*
X0074091Y0327753D01*
X0076728Y0327753D02*
X0083934Y0327753D01*
X0084425Y0327550D02*
X0082896Y0328183D01*
X0081726Y0329353D01*
X0081093Y0330881D01*
X0081093Y0332536D01*
X0081726Y0334065D01*
X0082896Y0335235D01*
X0084425Y0335868D01*
X0086079Y0335868D01*
X0087608Y0335235D01*
X0088778Y0334065D01*
X0089411Y0332536D01*
X0089411Y0330881D01*
X0088778Y0329353D01*
X0087608Y0328183D01*
X0086079Y0327550D01*
X0084425Y0327550D01*
X0086570Y0327753D02*
X0092816Y0327753D01*
X0092705Y0327809D02*
X0093344Y0327484D01*
X0094027Y0327262D01*
X0094701Y0327155D01*
X0094701Y0331315D01*
X0095488Y0331315D01*
X0095488Y0332102D01*
X0099648Y0332102D01*
X0099541Y0332776D01*
X0099320Y0333459D01*
X0098994Y0334098D01*
X0098572Y0334679D01*
X0098065Y0335186D01*
X0097484Y0335608D01*
X0096845Y0335934D01*
X0096162Y0336155D01*
X0095488Y0336262D01*
X0095488Y0332102D01*
X0094701Y0332102D01*
X0094701Y0331315D01*
X0090541Y0331315D01*
X0090648Y0330641D01*
X0090869Y0329959D01*
X0091195Y0329319D01*
X0091617Y0328739D01*
X0092124Y0328231D01*
X0092705Y0327809D01*
X0091476Y0328933D02*
X0088358Y0328933D01*
X0089092Y0330112D02*
X0090820Y0330112D01*
X0090545Y0331292D02*
X0089411Y0331292D01*
X0089411Y0332471D02*
X0090599Y0332471D01*
X0090648Y0332776D02*
X0090541Y0332102D01*
X0094701Y0332102D01*
X0094701Y0336262D01*
X0094027Y0336155D01*
X0093344Y0335934D01*
X0092705Y0335608D01*
X0092124Y0335186D01*
X0091617Y0334679D01*
X0091195Y0334098D01*
X0090869Y0333459D01*
X0090648Y0332776D01*
X0090967Y0333651D02*
X0088949Y0333651D01*
X0088012Y0334831D02*
X0091769Y0334831D01*
X0093580Y0336010D02*
X0067868Y0336010D01*
X0067593Y0337190D02*
X0104643Y0337190D01*
X0104369Y0336010D02*
X0096609Y0336010D01*
X0095488Y0336010D02*
X0094701Y0336010D01*
X0094701Y0334831D02*
X0095488Y0334831D01*
X0095488Y0333651D02*
X0094701Y0333651D01*
X0094701Y0332471D02*
X0095488Y0332471D01*
X0095488Y0331292D02*
X0094701Y0331292D01*
X0094701Y0330112D02*
X0095488Y0330112D01*
X0095488Y0328933D02*
X0094701Y0328933D01*
X0094701Y0327753D02*
X0095488Y0327753D01*
X0097373Y0327753D02*
X0097515Y0327753D01*
X0097336Y0326573D02*
X0067316Y0326573D01*
X0068495Y0325394D02*
X0085702Y0325394D01*
X0084523Y0324214D02*
X0069675Y0324214D01*
X0070854Y0323035D02*
X0083745Y0323035D01*
X0083745Y0321855D02*
X0072034Y0321855D01*
X0073214Y0320675D02*
X0083745Y0320675D01*
X0084545Y0319496D02*
X0074393Y0319496D01*
X0075573Y0318316D02*
X0085725Y0318316D01*
X0089346Y0318316D02*
X0092969Y0318316D01*
X0091789Y0319496D02*
X0090526Y0319496D01*
X0090548Y0324214D02*
X0091767Y0324214D01*
X0092947Y0325394D02*
X0089368Y0325394D01*
X0096613Y0325394D02*
X0097693Y0325394D01*
X0097792Y0324214D02*
X0099226Y0324214D01*
X0098570Y0323035D02*
X0101250Y0323035D01*
X0102429Y0321855D02*
X0098570Y0321855D01*
X0100016Y0326787D02*
X0104445Y0322358D01*
X0126098Y0322358D01*
X0132496Y0315961D01*
X0211236Y0315961D01*
X0213205Y0317929D01*
X0215022Y0315957D02*
X0223047Y0315957D01*
X0223047Y0317136D02*
X0215777Y0317136D01*
X0215884Y0318316D02*
X0223047Y0318316D01*
X0223047Y0319496D02*
X0215428Y0319496D01*
X0210982Y0319496D02*
X0192219Y0319496D01*
X0192459Y0320675D02*
X0223047Y0320675D01*
X0223047Y0321855D02*
X0207140Y0321855D01*
X0207900Y0323035D02*
X0223047Y0323035D01*
X0223047Y0324214D02*
X0208010Y0324214D01*
X0207561Y0325394D02*
X0223047Y0325394D01*
X0223047Y0326573D02*
X0205111Y0326573D01*
X0204346Y0324819D02*
X0205331Y0323835D01*
X0204346Y0324819D02*
X0169898Y0324819D01*
X0167929Y0322850D01*
X0165441Y0321855D02*
X0150340Y0321855D01*
X0150340Y0323035D02*
X0165250Y0323035D01*
X0165594Y0324214D02*
X0150340Y0324214D01*
X0150340Y0325394D02*
X0167067Y0325394D01*
X0169133Y0326573D02*
X0151366Y0326573D01*
X0152291Y0327753D02*
X0223047Y0327753D01*
X0223047Y0328933D02*
X0152750Y0328933D01*
X0152750Y0330112D02*
X0223047Y0330112D01*
X0223047Y0331292D02*
X0152750Y0331292D01*
X0152750Y0332471D02*
X0223047Y0332471D01*
X0223047Y0333651D02*
X0152750Y0333651D01*
X0152750Y0334831D02*
X0223047Y0334831D01*
X0223047Y0336010D02*
X0152750Y0336010D01*
X0152475Y0337190D02*
X0223047Y0337190D01*
X0223047Y0338370D02*
X0151809Y0338370D01*
X0145309Y0338370D02*
X0142289Y0338370D01*
X0142899Y0337190D02*
X0144643Y0337190D01*
X0144369Y0336010D02*
X0143150Y0336010D01*
X0143150Y0334831D02*
X0144369Y0334831D01*
X0144369Y0333651D02*
X0143150Y0333651D01*
X0143150Y0332283D02*
X0138969Y0332283D01*
X0138969Y0325110D01*
X0139634Y0325215D01*
X0140321Y0325439D01*
X0140965Y0325767D01*
X0141550Y0326191D01*
X0142061Y0326702D01*
X0142485Y0327287D01*
X0142813Y0327931D01*
X0143037Y0328618D01*
X0143150Y0329332D01*
X0143150Y0332283D01*
X0143150Y0331292D02*
X0144369Y0331292D01*
X0144369Y0332471D02*
X0138969Y0332471D01*
X0138150Y0332471D02*
X0132750Y0332471D01*
X0132750Y0331292D02*
X0133969Y0331292D01*
X0133969Y0332283D02*
X0133969Y0329332D01*
X0134082Y0328618D01*
X0134305Y0327931D01*
X0134633Y0327287D01*
X0135058Y0326702D01*
X0135569Y0326191D01*
X0136153Y0325767D01*
X0136797Y0325439D01*
X0137484Y0325215D01*
X0138150Y0325110D01*
X0138150Y0332283D01*
X0133969Y0332283D01*
X0133969Y0333651D02*
X0132750Y0333651D01*
X0132750Y0334831D02*
X0133969Y0334831D01*
X0133969Y0336010D02*
X0132750Y0336010D01*
X0132475Y0337190D02*
X0134219Y0337190D01*
X0134829Y0338370D02*
X0131809Y0338370D01*
X0132750Y0330112D02*
X0133969Y0330112D01*
X0134032Y0328933D02*
X0132750Y0328933D01*
X0132291Y0327753D02*
X0134395Y0327753D01*
X0135187Y0326573D02*
X0131366Y0326573D01*
X0132947Y0325394D02*
X0103928Y0325394D01*
X0102749Y0326573D02*
X0105752Y0326573D01*
X0104827Y0327753D02*
X0102516Y0327753D01*
X0101660Y0328933D02*
X0104369Y0328933D01*
X0104369Y0330112D02*
X0099369Y0330112D01*
X0099644Y0331292D02*
X0104369Y0331292D01*
X0104369Y0332471D02*
X0099590Y0332471D01*
X0099222Y0333651D02*
X0104369Y0333651D01*
X0104369Y0334831D02*
X0098420Y0334831D01*
X0105309Y0338370D02*
X0066927Y0338370D01*
X0060427Y0338370D02*
X0057407Y0338370D01*
X0058018Y0337190D02*
X0059761Y0337190D01*
X0059487Y0336010D02*
X0058268Y0336010D01*
X0058268Y0334831D02*
X0059487Y0334831D01*
X0059487Y0333651D02*
X0058268Y0333651D01*
X0059487Y0332471D02*
X0054087Y0332471D01*
X0053268Y0332471D02*
X0029644Y0332471D01*
X0030167Y0331292D02*
X0049087Y0331292D01*
X0049087Y0330112D02*
X0030422Y0330112D01*
X0030422Y0328933D02*
X0049150Y0328933D01*
X0049513Y0327753D02*
X0029987Y0327753D01*
X0028464Y0333651D02*
X0049087Y0333651D01*
X0049087Y0334831D02*
X0019510Y0334831D01*
X0019961Y0336010D02*
X0049087Y0336010D01*
X0049337Y0337190D02*
X0019961Y0337190D01*
X0019961Y0338370D02*
X0049948Y0338370D01*
X0053268Y0331292D02*
X0054087Y0331292D01*
X0054087Y0330112D02*
X0053268Y0330112D01*
X0053268Y0328933D02*
X0054087Y0328933D01*
X0054087Y0327753D02*
X0053268Y0327753D01*
X0053268Y0326573D02*
X0054087Y0326573D01*
X0057050Y0326573D02*
X0060870Y0326573D01*
X0059945Y0327753D02*
X0057841Y0327753D01*
X0058205Y0328933D02*
X0059487Y0328933D01*
X0059487Y0330112D02*
X0058268Y0330112D01*
X0058268Y0331292D02*
X0059487Y0331292D01*
X0078169Y0334831D02*
X0082492Y0334831D01*
X0081555Y0333651D02*
X0079107Y0333651D01*
X0079568Y0332471D02*
X0081093Y0332471D01*
X0081093Y0331292D02*
X0079568Y0331292D01*
X0079250Y0330112D02*
X0081412Y0330112D01*
X0082146Y0328933D02*
X0078515Y0328933D01*
X0098074Y0313598D02*
X0120529Y0313598D01*
X0121709Y0312418D02*
X0098570Y0312418D01*
X0098570Y0311238D02*
X0122888Y0311238D01*
X0124068Y0310059D02*
X0098570Y0310059D01*
X0105108Y0324214D02*
X0131767Y0324214D01*
X0130989Y0323035D02*
X0127941Y0323035D01*
X0129121Y0321855D02*
X0130989Y0321855D01*
X0130989Y0320675D02*
X0130300Y0320675D01*
X0131480Y0319496D02*
X0131789Y0319496D01*
X0132659Y0318316D02*
X0132969Y0318316D01*
X0129981Y0315957D02*
X0123208Y0315957D01*
X0122958Y0316206D02*
X0122466Y0316698D01*
X0122426Y0316739D01*
X0123007Y0316739D01*
X0123104Y0316642D01*
X0124089Y0316234D01*
X0125155Y0316234D01*
X0126140Y0316642D01*
X0126894Y0317396D01*
X0127302Y0318380D01*
X0127302Y0318636D01*
X0130715Y0315223D01*
X0131758Y0314180D01*
X0132067Y0314180D01*
X0131200Y0313313D01*
X0125852Y0313313D01*
X0122958Y0316206D01*
X0124387Y0314777D02*
X0131161Y0314777D01*
X0131485Y0313598D02*
X0125567Y0313598D01*
X0126635Y0317136D02*
X0128801Y0317136D01*
X0127622Y0318316D02*
X0127275Y0318316D01*
X0134780Y0321866D02*
X0136935Y0319710D01*
X0148244Y0319710D01*
X0148559Y0320025D01*
X0148559Y0332693D01*
X0144827Y0327753D02*
X0142723Y0327753D01*
X0143086Y0328933D02*
X0144369Y0328933D01*
X0144369Y0330112D02*
X0143150Y0330112D01*
X0141932Y0326573D02*
X0145752Y0326573D01*
X0146778Y0325394D02*
X0140183Y0325394D01*
X0138969Y0325394D02*
X0138150Y0325394D01*
X0138150Y0326573D02*
X0138969Y0326573D01*
X0138969Y0327753D02*
X0138150Y0327753D01*
X0138150Y0328933D02*
X0138969Y0328933D01*
X0138969Y0330112D02*
X0138150Y0330112D01*
X0138150Y0331292D02*
X0138969Y0331292D01*
X0136935Y0325394D02*
X0136613Y0325394D01*
X0137792Y0324214D02*
X0146778Y0324214D01*
X0146778Y0323035D02*
X0138570Y0323035D01*
X0138570Y0321855D02*
X0146778Y0321855D01*
X0148244Y0319710D02*
X0188881Y0319710D01*
X0189780Y0320609D01*
X0190925Y0323035D02*
X0202762Y0323035D01*
X0203521Y0321855D02*
X0192164Y0321855D01*
X0191247Y0318316D02*
X0210525Y0318316D01*
X0212572Y0314777D02*
X0223047Y0314777D01*
X0223047Y0313598D02*
X0221818Y0313598D01*
X0222628Y0312418D02*
X0223047Y0312418D01*
X0223047Y0311238D02*
X0222774Y0311238D01*
X0223047Y0310059D02*
X0222385Y0310059D01*
X0223047Y0308879D02*
X0220693Y0308879D01*
X0219496Y0308879D02*
X0137488Y0308879D01*
X0134780Y0311531D02*
X0220094Y0311531D01*
X0218371Y0313598D02*
X0138074Y0313598D01*
X0125752Y0326573D02*
X0121366Y0326573D01*
X0122291Y0327753D02*
X0124827Y0327753D01*
X0124369Y0328933D02*
X0122750Y0328933D01*
X0122750Y0330112D02*
X0124369Y0330112D01*
X0124369Y0331292D02*
X0122750Y0331292D01*
X0122750Y0332471D02*
X0124369Y0332471D01*
X0124369Y0333651D02*
X0122750Y0333651D01*
X0122750Y0334831D02*
X0124369Y0334831D01*
X0124369Y0336010D02*
X0122750Y0336010D01*
X0122475Y0337190D02*
X0124643Y0337190D01*
X0125309Y0338370D02*
X0121809Y0338370D01*
X0115309Y0338370D02*
X0111809Y0338370D01*
X0112475Y0337190D02*
X0114643Y0337190D01*
X0114369Y0336010D02*
X0112750Y0336010D01*
X0112750Y0334831D02*
X0114369Y0334831D01*
X0114369Y0333651D02*
X0112750Y0333651D01*
X0112750Y0332471D02*
X0114369Y0332471D01*
X0114369Y0331292D02*
X0112750Y0331292D01*
X0112750Y0330112D02*
X0114369Y0330112D01*
X0114369Y0328933D02*
X0112750Y0328933D01*
X0112291Y0327753D02*
X0114827Y0327753D01*
X0115752Y0326573D02*
X0111366Y0326573D01*
X0109737Y0292365D02*
X0211631Y0292365D01*
X0223047Y0291185D02*
X0084525Y0291185D01*
X0084478Y0284160D02*
X0099806Y0284160D01*
X0099313Y0283956D01*
X0097987Y0282629D01*
X0097269Y0280896D01*
X0097269Y0271970D01*
X0097987Y0270237D01*
X0099313Y0268910D01*
X0100709Y0268332D01*
X0095424Y0268332D01*
X0087015Y0276742D01*
X0087015Y0280896D01*
X0086297Y0282629D01*
X0084970Y0283956D01*
X0084478Y0284160D01*
X0084604Y0284107D02*
X0099679Y0284107D01*
X0098285Y0282928D02*
X0085998Y0282928D01*
X0086662Y0281748D02*
X0097622Y0281748D01*
X0097269Y0280568D02*
X0087015Y0280568D01*
X0087015Y0279389D02*
X0097269Y0279389D01*
X0097269Y0278209D02*
X0087015Y0278209D01*
X0087015Y0277030D02*
X0097269Y0277030D01*
X0097269Y0275850D02*
X0087907Y0275850D01*
X0089086Y0274670D02*
X0097269Y0274670D01*
X0097269Y0273491D02*
X0090266Y0273491D01*
X0091445Y0272311D02*
X0097269Y0272311D01*
X0097616Y0271132D02*
X0092625Y0271132D01*
X0093805Y0269952D02*
X0098272Y0269952D01*
X0099647Y0268772D02*
X0094984Y0268772D01*
X0094701Y0250632D02*
X0094027Y0250526D01*
X0093344Y0250304D01*
X0092705Y0249978D01*
X0092124Y0249556D01*
X0091617Y0249049D01*
X0091195Y0248468D01*
X0090869Y0247829D01*
X0090648Y0247146D01*
X0090541Y0246472D01*
X0094701Y0246472D01*
X0094701Y0245685D01*
X0095488Y0245685D01*
X0095488Y0241525D01*
X0096162Y0241632D01*
X0096845Y0241854D01*
X0097484Y0242179D01*
X0097562Y0242236D01*
X0097336Y0241690D01*
X0097336Y0240624D01*
X0097744Y0239640D01*
X0098498Y0238886D01*
X0099483Y0238478D01*
X0100176Y0238478D01*
X0103196Y0235458D01*
X0098633Y0235458D01*
X0098570Y0235521D01*
X0098570Y0237806D01*
X0096350Y0240027D01*
X0093209Y0240027D01*
X0091157Y0237975D01*
X0089106Y0240027D01*
X0085965Y0240027D01*
X0083745Y0237806D01*
X0083745Y0234666D01*
X0085965Y0232446D01*
X0089106Y0232446D01*
X0091157Y0234498D01*
X0093209Y0232446D01*
X0095494Y0232446D01*
X0095557Y0232383D01*
X0095828Y0232112D01*
X0076147Y0232112D01*
X0066900Y0241359D01*
X0067230Y0241689D01*
X0067868Y0243229D01*
X0067868Y0250897D01*
X0067230Y0252437D01*
X0066667Y0252999D01*
X0105569Y0252999D01*
X0105006Y0252437D01*
X0104369Y0250897D01*
X0104369Y0243229D01*
X0105006Y0241689D01*
X0106185Y0240510D01*
X0107725Y0239872D01*
X0109393Y0239872D01*
X0110933Y0240510D01*
X0112112Y0241689D01*
X0112750Y0243229D01*
X0112750Y0250897D01*
X0112112Y0252437D01*
X0111549Y0252999D01*
X0115569Y0252999D01*
X0115006Y0252437D01*
X0114369Y0250897D01*
X0114369Y0243229D01*
X0115006Y0241689D01*
X0116185Y0240510D01*
X0117725Y0239872D01*
X0119393Y0239872D01*
X0120933Y0240510D01*
X0122112Y0241689D01*
X0122750Y0243229D01*
X0122750Y0250897D01*
X0122112Y0252437D01*
X0121549Y0252999D01*
X0125569Y0252999D01*
X0125006Y0252437D01*
X0124369Y0250897D01*
X0124369Y0243229D01*
X0125006Y0241689D01*
X0126185Y0240510D01*
X0127725Y0239872D01*
X0129393Y0239872D01*
X0130933Y0240510D01*
X0132112Y0241689D01*
X0132750Y0243229D01*
X0132750Y0250897D01*
X0132112Y0252437D01*
X0131549Y0252999D01*
X0135018Y0252999D01*
X0134633Y0252469D01*
X0134305Y0251825D01*
X0134082Y0251138D01*
X0133969Y0250424D01*
X0133969Y0247472D01*
X0138150Y0247472D01*
X0138150Y0246654D01*
X0138150Y0246653D02*
X0138969Y0246653D01*
X0138969Y0246654D02*
X0138969Y0247472D01*
X0143150Y0247472D01*
X0143150Y0250424D01*
X0143037Y0251138D01*
X0142813Y0251825D01*
X0142485Y0252469D01*
X0142100Y0252999D01*
X0145569Y0252999D01*
X0145006Y0252437D01*
X0144369Y0250897D01*
X0144369Y0243229D01*
X0145006Y0241689D01*
X0146185Y0240510D01*
X0146778Y0240265D01*
X0146778Y0235861D01*
X0138570Y0235861D01*
X0138570Y0237806D01*
X0136350Y0240027D01*
X0133209Y0240027D01*
X0130989Y0237806D01*
X0130989Y0234666D01*
X0133209Y0232446D01*
X0136051Y0232446D01*
X0136198Y0232299D01*
X0190313Y0232299D01*
X0191297Y0232707D01*
X0192051Y0233461D01*
X0192459Y0234446D01*
X0192459Y0235512D01*
X0192051Y0236497D01*
X0191297Y0237250D01*
X0190917Y0237408D01*
X0202760Y0237408D01*
X0203059Y0236687D01*
X0203813Y0235933D01*
X0204798Y0235525D01*
X0205864Y0235525D01*
X0206849Y0235933D01*
X0207602Y0236687D01*
X0208010Y0237672D01*
X0208010Y0238738D01*
X0207602Y0239723D01*
X0206849Y0240476D01*
X0205864Y0240884D01*
X0205170Y0240884D01*
X0205084Y0240970D01*
X0169160Y0240970D01*
X0168117Y0239927D01*
X0168090Y0239900D01*
X0167396Y0239900D01*
X0166411Y0239492D01*
X0165658Y0238738D01*
X0165250Y0237753D01*
X0165250Y0236687D01*
X0165592Y0235861D01*
X0150340Y0235861D01*
X0150340Y0240265D01*
X0150933Y0240510D01*
X0152112Y0241689D01*
X0152750Y0243229D01*
X0152750Y0250897D01*
X0152112Y0252437D01*
X0151549Y0252999D01*
X0223047Y0252999D01*
X0223047Y0177150D01*
X0192071Y0177150D01*
X0205170Y0190250D01*
X0205864Y0190250D01*
X0206849Y0190658D01*
X0207602Y0191411D01*
X0208010Y0192396D01*
X0208010Y0193462D01*
X0207602Y0194447D01*
X0206849Y0195201D01*
X0205864Y0195609D01*
X0204798Y0195609D01*
X0203813Y0195201D01*
X0203059Y0194447D01*
X0202651Y0193462D01*
X0202651Y0192768D01*
X0188514Y0178631D01*
X0136160Y0178631D01*
X0136160Y0178698D01*
X0135752Y0179683D01*
X0134998Y0180437D01*
X0134013Y0180845D01*
X0133310Y0180845D01*
X0143367Y0190902D01*
X0144366Y0191901D01*
X0144907Y0193207D01*
X0144907Y0194298D01*
X0147967Y0194298D01*
X0149272Y0194839D01*
X0150272Y0195838D01*
X0150813Y0197144D01*
X0150813Y0198557D01*
X0150272Y0199863D01*
X0149272Y0200862D01*
X0148434Y0201209D01*
X0186658Y0201209D01*
X0194777Y0193090D01*
X0194777Y0192396D01*
X0195185Y0191411D01*
X0195939Y0190658D01*
X0196924Y0190250D01*
X0197990Y0190250D01*
X0198975Y0190658D01*
X0199728Y0191411D01*
X0200136Y0192396D01*
X0200136Y0193462D01*
X0199728Y0194447D01*
X0198975Y0195201D01*
X0197990Y0195609D01*
X0197296Y0195609D01*
X0189176Y0203728D01*
X0188133Y0204772D01*
X0133852Y0204772D01*
X0133359Y0205264D01*
X0129664Y0205264D01*
X0129172Y0204772D01*
X0085308Y0204772D01*
X0079159Y0210921D01*
X0079159Y0214240D01*
X0080006Y0213392D01*
X0082623Y0213392D01*
X0083979Y0214747D01*
X0085965Y0212761D01*
X0089106Y0212761D01*
X0091157Y0214813D01*
X0093209Y0212761D01*
X0096350Y0212761D01*
X0098570Y0214981D01*
X0098570Y0218121D01*
X0096350Y0220342D01*
X0093589Y0220342D01*
X0093837Y0220939D01*
X0093837Y0222005D01*
X0093793Y0222111D01*
X0096350Y0222111D01*
X0098570Y0224331D01*
X0098570Y0227472D01*
X0097492Y0228550D01*
X0119947Y0228550D01*
X0120439Y0228057D01*
X0124376Y0224120D01*
X0131200Y0224120D01*
X0133209Y0222111D01*
X0136350Y0222111D01*
X0138359Y0224120D01*
X0218086Y0224120D01*
X0218577Y0223630D01*
X0219561Y0223222D01*
X0220627Y0223222D01*
X0221612Y0223630D01*
X0222366Y0224384D01*
X0222774Y0225369D01*
X0222774Y0226435D01*
X0222366Y0227419D01*
X0221612Y0228173D01*
X0220627Y0228581D01*
X0219561Y0228581D01*
X0218577Y0228173D01*
X0218086Y0227683D01*
X0138359Y0227683D01*
X0137492Y0228550D01*
X0211974Y0228550D01*
X0213044Y0229620D01*
X0213738Y0229620D01*
X0214723Y0230028D01*
X0215476Y0230781D01*
X0215884Y0231766D01*
X0215884Y0232832D01*
X0215476Y0233817D01*
X0214723Y0234571D01*
X0213738Y0234979D01*
X0212672Y0234979D01*
X0211687Y0234571D01*
X0210933Y0233817D01*
X0210525Y0232832D01*
X0210525Y0232139D01*
X0210498Y0232112D01*
X0133234Y0232112D01*
X0126836Y0238509D01*
X0105183Y0238509D01*
X0102695Y0240997D01*
X0102695Y0241690D01*
X0102287Y0242675D01*
X0101534Y0243429D01*
X0100549Y0243837D01*
X0099483Y0243837D01*
X0098937Y0243611D01*
X0098994Y0243689D01*
X0099320Y0244329D01*
X0099541Y0245011D01*
X0099648Y0245685D01*
X0095488Y0245685D01*
X0095488Y0246472D01*
X0099648Y0246472D01*
X0099541Y0247146D01*
X0099320Y0247829D01*
X0098994Y0248468D01*
X0098572Y0249049D01*
X0098065Y0249556D01*
X0097484Y0249978D01*
X0096845Y0250304D01*
X0096162Y0250526D01*
X0095488Y0250632D01*
X0095488Y0246473D01*
X0094701Y0246473D01*
X0094701Y0250632D01*
X0094701Y0249898D02*
X0095488Y0249898D01*
X0095488Y0248719D02*
X0094701Y0248719D01*
X0094701Y0247539D02*
X0095488Y0247539D01*
X0095488Y0246360D02*
X0104369Y0246360D01*
X0104369Y0247539D02*
X0099414Y0247539D01*
X0098812Y0248719D02*
X0104369Y0248719D01*
X0104369Y0249898D02*
X0097593Y0249898D01*
X0094701Y0246360D02*
X0089411Y0246360D01*
X0089411Y0246906D02*
X0089411Y0245251D01*
X0088778Y0243723D01*
X0087608Y0242553D01*
X0086079Y0241920D01*
X0084425Y0241920D01*
X0082896Y0242553D01*
X0081726Y0243723D01*
X0081093Y0245251D01*
X0081093Y0246906D01*
X0081726Y0248435D01*
X0082896Y0249605D01*
X0084425Y0250238D01*
X0086079Y0250238D01*
X0087608Y0249605D01*
X0088778Y0248435D01*
X0089411Y0246906D01*
X0089149Y0247539D02*
X0090775Y0247539D01*
X0091377Y0248719D02*
X0088494Y0248719D01*
X0086898Y0249898D02*
X0092596Y0249898D01*
X0090541Y0245685D02*
X0090648Y0245011D01*
X0090869Y0244329D01*
X0091195Y0243689D01*
X0091617Y0243109D01*
X0092124Y0242601D01*
X0092705Y0242179D01*
X0093344Y0241854D01*
X0094027Y0241632D01*
X0094701Y0241525D01*
X0094701Y0245685D01*
X0090541Y0245685D01*
X0090621Y0245180D02*
X0089381Y0245180D01*
X0088893Y0244000D02*
X0091037Y0244000D01*
X0091905Y0242821D02*
X0087876Y0242821D01*
X0089850Y0239282D02*
X0092465Y0239282D01*
X0091285Y0238102D02*
X0091030Y0238102D01*
X0093998Y0241641D02*
X0067182Y0241641D01*
X0067698Y0242821D02*
X0072786Y0242821D01*
X0073054Y0242553D02*
X0074582Y0241920D01*
X0076237Y0241920D01*
X0077765Y0242553D01*
X0078935Y0243723D01*
X0079568Y0245251D01*
X0079568Y0246906D01*
X0078935Y0248435D01*
X0077765Y0249605D01*
X0076237Y0250238D01*
X0074582Y0250238D01*
X0073054Y0249605D01*
X0071884Y0248435D01*
X0071250Y0246906D01*
X0071250Y0245251D01*
X0071884Y0243723D01*
X0073054Y0242553D01*
X0071769Y0244000D02*
X0067868Y0244000D01*
X0067868Y0245180D02*
X0071280Y0245180D01*
X0071250Y0246360D02*
X0067868Y0246360D01*
X0067868Y0247539D02*
X0071513Y0247539D01*
X0072168Y0248719D02*
X0067868Y0248719D01*
X0067868Y0249898D02*
X0073763Y0249898D01*
X0077056Y0249898D02*
X0083606Y0249898D01*
X0082010Y0248719D02*
X0078651Y0248719D01*
X0079306Y0247539D02*
X0081355Y0247539D01*
X0081093Y0246360D02*
X0079568Y0246360D01*
X0079539Y0245180D02*
X0081122Y0245180D01*
X0081611Y0244000D02*
X0079050Y0244000D01*
X0078033Y0242821D02*
X0082628Y0242821D01*
X0085221Y0239282D02*
X0068977Y0239282D01*
X0067797Y0240462D02*
X0097404Y0240462D01*
X0097336Y0241641D02*
X0096191Y0241641D01*
X0095488Y0241641D02*
X0094701Y0241641D01*
X0094701Y0242821D02*
X0095488Y0242821D01*
X0095488Y0244000D02*
X0094701Y0244000D01*
X0094701Y0245180D02*
X0095488Y0245180D01*
X0099152Y0244000D02*
X0104369Y0244000D01*
X0104369Y0245180D02*
X0099568Y0245180D01*
X0102142Y0242821D02*
X0104538Y0242821D01*
X0105055Y0241641D02*
X0102695Y0241641D01*
X0103230Y0240462D02*
X0106303Y0240462D01*
X0104410Y0239282D02*
X0132465Y0239282D01*
X0131285Y0238102D02*
X0127243Y0238102D01*
X0128423Y0236923D02*
X0130989Y0236923D01*
X0130989Y0235743D02*
X0129602Y0235743D01*
X0130782Y0234564D02*
X0131092Y0234564D01*
X0131962Y0233384D02*
X0132271Y0233384D01*
X0133141Y0232204D02*
X0210525Y0232204D01*
X0210754Y0233384D02*
X0191974Y0233384D01*
X0192459Y0234564D02*
X0211680Y0234564D01*
X0213205Y0232299D02*
X0211236Y0230331D01*
X0132496Y0230331D01*
X0126098Y0236728D01*
X0104445Y0236728D01*
X0100016Y0241157D01*
X0098102Y0239282D02*
X0097094Y0239282D01*
X0098274Y0238102D02*
X0100552Y0238102D01*
X0101732Y0236923D02*
X0098570Y0236923D01*
X0098570Y0235743D02*
X0102911Y0235743D01*
X0098556Y0227486D02*
X0121011Y0227486D01*
X0122191Y0226306D02*
X0098570Y0226306D01*
X0098570Y0225127D02*
X0123370Y0225127D01*
X0125114Y0225902D02*
X0121177Y0229839D01*
X0120685Y0230331D01*
X0075409Y0230331D01*
X0063677Y0242063D01*
X0063677Y0247063D01*
X0067793Y0251078D02*
X0104444Y0251078D01*
X0104932Y0252258D02*
X0067304Y0252258D01*
X0070157Y0238102D02*
X0084041Y0238102D01*
X0083745Y0236923D02*
X0071336Y0236923D01*
X0072516Y0235743D02*
X0083745Y0235743D01*
X0083847Y0234564D02*
X0073695Y0234564D01*
X0074875Y0233384D02*
X0085027Y0233384D01*
X0090044Y0233384D02*
X0092271Y0233384D01*
X0095736Y0232204D02*
X0076055Y0232204D01*
X0073376Y0229845D02*
X0056445Y0229845D01*
X0055266Y0231025D02*
X0072197Y0231025D01*
X0071017Y0232204D02*
X0054086Y0232204D01*
X0052907Y0233384D02*
X0069837Y0233384D01*
X0074556Y0228665D02*
X0057625Y0228665D01*
X0058805Y0227486D02*
X0074930Y0227486D01*
X0074698Y0226306D02*
X0059984Y0226306D01*
X0061164Y0225127D02*
X0075002Y0225127D01*
X0075597Y0223947D02*
X0062344Y0223947D01*
X0063523Y0222767D02*
X0075597Y0222767D01*
X0075597Y0221588D02*
X0064703Y0221588D01*
X0065882Y0220408D02*
X0075597Y0220408D01*
X0075597Y0219229D02*
X0067062Y0219229D01*
X0068242Y0218049D02*
X0075597Y0218049D01*
X0075597Y0216869D02*
X0069421Y0216869D01*
X0070601Y0215690D02*
X0075597Y0215690D01*
X0075597Y0214510D02*
X0071780Y0214510D01*
X0072960Y0213330D02*
X0075597Y0213330D01*
X0075597Y0212151D02*
X0074140Y0212151D01*
X0075319Y0210971D02*
X0075597Y0210971D01*
X0077378Y0210183D02*
X0077378Y0226394D01*
X0079159Y0213330D02*
X0085395Y0213330D01*
X0084216Y0214510D02*
X0083741Y0214510D01*
X0079159Y0212151D02*
X0106591Y0212151D01*
X0106591Y0211824D02*
X0106591Y0212890D01*
X0106998Y0213875D01*
X0107752Y0214628D01*
X0108737Y0215036D01*
X0109803Y0215036D01*
X0110788Y0214628D01*
X0111542Y0213875D01*
X0111734Y0213411D01*
X0132559Y0213411D01*
X0130989Y0214981D01*
X0130989Y0218121D01*
X0133209Y0220342D01*
X0136350Y0220342D01*
X0138359Y0218332D01*
X0145736Y0218332D01*
X0145479Y0218954D01*
X0145479Y0220054D01*
X0145900Y0221070D01*
X0146678Y0221848D01*
X0147694Y0222269D01*
X0170448Y0222269D01*
X0171464Y0221848D01*
X0172242Y0221070D01*
X0172663Y0220054D01*
X0172663Y0218954D01*
X0172405Y0218332D01*
X0179700Y0218332D01*
X0180191Y0218823D01*
X0181176Y0219231D01*
X0182242Y0219231D01*
X0183226Y0218823D01*
X0183980Y0218069D01*
X0184388Y0217084D01*
X0184388Y0216018D01*
X0183980Y0215033D01*
X0183226Y0214280D01*
X0182242Y0213872D01*
X0181176Y0213872D01*
X0180191Y0214280D01*
X0179700Y0214770D01*
X0138359Y0214770D01*
X0137000Y0213411D01*
X0218086Y0213411D01*
X0218577Y0213902D01*
X0219561Y0214309D01*
X0220627Y0214309D01*
X0221612Y0213902D01*
X0222366Y0213148D01*
X0222774Y0212163D01*
X0222774Y0211097D01*
X0222366Y0210112D01*
X0221612Y0209358D01*
X0220627Y0208950D01*
X0219561Y0208950D01*
X0218577Y0209358D01*
X0218086Y0209849D01*
X0215733Y0209849D01*
X0215884Y0209483D01*
X0215884Y0208417D01*
X0215476Y0207433D01*
X0214723Y0206679D01*
X0213738Y0206271D01*
X0212672Y0206271D01*
X0211687Y0206679D01*
X0211470Y0206896D01*
X0109898Y0206896D01*
X0109408Y0206406D01*
X0108423Y0205998D01*
X0107357Y0205998D01*
X0106372Y0206406D01*
X0105618Y0207159D01*
X0105210Y0208144D01*
X0105210Y0209210D01*
X0105618Y0210195D01*
X0106372Y0210949D01*
X0106868Y0211154D01*
X0106591Y0211824D01*
X0106426Y0210971D02*
X0079159Y0210971D01*
X0080288Y0209792D02*
X0105451Y0209792D01*
X0105210Y0208612D02*
X0081468Y0208612D01*
X0082648Y0207432D02*
X0105505Y0207432D01*
X0106741Y0206253D02*
X0083827Y0206253D01*
X0085007Y0205073D02*
X0129474Y0205073D01*
X0130402Y0203483D02*
X0132622Y0203483D01*
X0133114Y0202991D01*
X0187395Y0202991D01*
X0197457Y0192929D01*
X0199235Y0190918D02*
X0200801Y0190918D01*
X0200012Y0192097D02*
X0201980Y0192097D01*
X0202651Y0193277D02*
X0200136Y0193277D01*
X0199719Y0194457D02*
X0203069Y0194457D01*
X0205331Y0192929D02*
X0189252Y0176850D01*
X0134795Y0176850D01*
X0133480Y0178165D01*
X0135984Y0179122D02*
X0189004Y0179122D01*
X0190184Y0180301D02*
X0135134Y0180301D01*
X0133946Y0181481D02*
X0191364Y0181481D01*
X0192543Y0182661D02*
X0135126Y0182661D01*
X0136305Y0183840D02*
X0193723Y0183840D01*
X0194902Y0185020D02*
X0137485Y0185020D01*
X0138665Y0186199D02*
X0196082Y0186199D01*
X0197262Y0187379D02*
X0139844Y0187379D01*
X0141024Y0188559D02*
X0198441Y0188559D01*
X0199621Y0189738D02*
X0142203Y0189738D01*
X0143383Y0190918D02*
X0195679Y0190918D01*
X0194901Y0192097D02*
X0144448Y0192097D01*
X0144907Y0193277D02*
X0194590Y0193277D01*
X0193410Y0194457D02*
X0148350Y0194457D01*
X0150070Y0195636D02*
X0192231Y0195636D01*
X0191051Y0196816D02*
X0150677Y0196816D01*
X0150813Y0197995D02*
X0189871Y0197995D01*
X0188692Y0199175D02*
X0150557Y0199175D01*
X0149780Y0200355D02*
X0187512Y0200355D01*
X0190191Y0202714D02*
X0223047Y0202714D01*
X0223047Y0203894D02*
X0189011Y0203894D01*
X0191370Y0201534D02*
X0223047Y0201534D01*
X0223047Y0200355D02*
X0192550Y0200355D01*
X0193730Y0199175D02*
X0223047Y0199175D01*
X0223047Y0197995D02*
X0194909Y0197995D01*
X0196089Y0196816D02*
X0223047Y0196816D01*
X0223047Y0195636D02*
X0197268Y0195636D01*
X0203479Y0188559D02*
X0223047Y0188559D01*
X0223047Y0189738D02*
X0204659Y0189738D01*
X0207109Y0190918D02*
X0223047Y0190918D01*
X0223047Y0192097D02*
X0207886Y0192097D01*
X0208010Y0193277D02*
X0223047Y0193277D01*
X0223047Y0194457D02*
X0207593Y0194457D01*
X0202299Y0187379D02*
X0223047Y0187379D01*
X0223047Y0186199D02*
X0201120Y0186199D01*
X0199940Y0185020D02*
X0223047Y0185020D01*
X0223047Y0183840D02*
X0198761Y0183840D01*
X0197581Y0182661D02*
X0223047Y0182661D01*
X0223047Y0181481D02*
X0196401Y0181481D01*
X0195222Y0180301D02*
X0223047Y0180301D01*
X0223047Y0179122D02*
X0194042Y0179122D01*
X0192862Y0177942D02*
X0223047Y0177942D01*
X0223047Y0167326D02*
X0151593Y0167326D01*
X0152385Y0166146D02*
X0223047Y0166146D01*
X0223047Y0164966D02*
X0152750Y0164966D01*
X0152750Y0163787D02*
X0223047Y0163787D01*
X0223047Y0162607D02*
X0152750Y0162607D01*
X0152750Y0161427D02*
X0223047Y0161427D01*
X0223047Y0160248D02*
X0152750Y0160248D01*
X0152750Y0159068D02*
X0223047Y0159068D01*
X0223047Y0157889D02*
X0152750Y0157889D01*
X0152381Y0156709D02*
X0223047Y0156709D01*
X0223047Y0155529D02*
X0151582Y0155529D01*
X0150340Y0154350D02*
X0168170Y0154350D01*
X0169898Y0153559D02*
X0204346Y0153559D01*
X0205331Y0152575D01*
X0207345Y0154350D02*
X0223047Y0154350D01*
X0223047Y0153170D02*
X0207984Y0153170D01*
X0207989Y0151991D02*
X0223047Y0151991D01*
X0223047Y0150811D02*
X0207356Y0150811D01*
X0203305Y0150811D02*
X0192074Y0150811D01*
X0183226Y0133193D02*
X0182242Y0133601D01*
X0181176Y0133601D01*
X0180191Y0133193D01*
X0179700Y0132702D01*
X0172405Y0132702D01*
X0172663Y0133324D01*
X0172663Y0134424D01*
X0172242Y0135440D01*
X0171464Y0136218D01*
X0170448Y0136639D01*
X0147694Y0136639D01*
X0146678Y0136218D01*
X0145900Y0135440D01*
X0145479Y0134424D01*
X0145479Y0133324D01*
X0145736Y0132702D01*
X0138359Y0132702D01*
X0136350Y0134712D01*
X0133209Y0134712D01*
X0130989Y0132491D01*
X0130989Y0129351D01*
X0132559Y0127781D01*
X0111734Y0127781D01*
X0111542Y0128245D01*
X0110788Y0128998D01*
X0109803Y0129406D01*
X0108737Y0129406D01*
X0107752Y0128998D01*
X0106998Y0128245D01*
X0106591Y0127260D01*
X0106591Y0126194D01*
X0106868Y0125524D01*
X0106372Y0125319D01*
X0105618Y0124565D01*
X0105210Y0123580D01*
X0105210Y0122514D01*
X0105618Y0121529D01*
X0106372Y0120776D01*
X0107357Y0120368D01*
X0108423Y0120368D01*
X0109408Y0120776D01*
X0109898Y0121266D01*
X0211470Y0121266D01*
X0211687Y0121049D01*
X0212672Y0120641D01*
X0213738Y0120641D01*
X0214723Y0121049D01*
X0215476Y0121803D01*
X0215884Y0122787D01*
X0215884Y0123853D01*
X0215733Y0124219D01*
X0218086Y0124219D01*
X0218577Y0123728D01*
X0219561Y0123320D01*
X0220627Y0123320D01*
X0221612Y0123728D01*
X0222366Y0124482D01*
X0222774Y0125467D01*
X0222774Y0126533D01*
X0222366Y0127518D01*
X0221612Y0128272D01*
X0220627Y0128680D01*
X0219561Y0128680D01*
X0218577Y0128272D01*
X0218086Y0127781D01*
X0137000Y0127781D01*
X0138359Y0129140D01*
X0179700Y0129140D01*
X0180191Y0128650D01*
X0181176Y0128242D01*
X0182242Y0128242D01*
X0183226Y0128650D01*
X0183980Y0129403D01*
X0184388Y0130388D01*
X0184388Y0131454D01*
X0183980Y0132439D01*
X0183226Y0133193D01*
X0183303Y0133117D02*
X0223047Y0133117D01*
X0223047Y0134296D02*
X0172663Y0134296D01*
X0172577Y0133117D02*
X0180115Y0133117D01*
X0181709Y0130921D02*
X0134780Y0130921D01*
X0137617Y0128398D02*
X0180798Y0128398D01*
X0182620Y0128398D02*
X0218883Y0128398D01*
X0221306Y0128398D02*
X0223047Y0128398D01*
X0223047Y0127219D02*
X0222490Y0127219D01*
X0222774Y0126039D02*
X0223047Y0126039D01*
X0223047Y0124859D02*
X0222522Y0124859D01*
X0223047Y0123680D02*
X0221495Y0123680D01*
X0223047Y0122500D02*
X0215765Y0122500D01*
X0215884Y0123680D02*
X0218694Y0123680D01*
X0220094Y0126000D02*
X0109270Y0126000D01*
X0109270Y0126727D01*
X0107152Y0128398D02*
X0097617Y0128398D01*
X0098570Y0129578D02*
X0130989Y0129578D01*
X0130989Y0130758D02*
X0098570Y0130758D01*
X0098570Y0131937D02*
X0130989Y0131937D01*
X0131614Y0133117D02*
X0097945Y0133117D01*
X0096765Y0134296D02*
X0132794Y0134296D01*
X0133035Y0136656D02*
X0096524Y0136656D01*
X0097704Y0137835D02*
X0131855Y0137835D01*
X0134780Y0140272D02*
X0125114Y0140272D01*
X0123852Y0139015D02*
X0098570Y0139015D01*
X0098570Y0140194D02*
X0122673Y0140194D01*
X0121493Y0141374D02*
X0098570Y0141374D01*
X0097858Y0142554D02*
X0120313Y0142554D01*
X0126850Y0146092D02*
X0128586Y0146092D01*
X0127406Y0147272D02*
X0127302Y0147272D01*
X0125536Y0155529D02*
X0121582Y0155529D01*
X0122381Y0156709D02*
X0124737Y0156709D01*
X0124369Y0157889D02*
X0122750Y0157889D01*
X0122750Y0159068D02*
X0124369Y0159068D01*
X0124369Y0160248D02*
X0122750Y0160248D01*
X0122750Y0161427D02*
X0124369Y0161427D01*
X0124369Y0162607D02*
X0122750Y0162607D01*
X0122750Y0163787D02*
X0124369Y0163787D01*
X0124369Y0164966D02*
X0122750Y0164966D01*
X0122385Y0166146D02*
X0124733Y0166146D01*
X0125525Y0167326D02*
X0121593Y0167326D01*
X0115525Y0167326D02*
X0111593Y0167326D01*
X0112385Y0166146D02*
X0114733Y0166146D01*
X0114369Y0164966D02*
X0112750Y0164966D01*
X0112750Y0163787D02*
X0114369Y0163787D01*
X0114369Y0162607D02*
X0112750Y0162607D01*
X0112750Y0161427D02*
X0114369Y0161427D01*
X0114369Y0160248D02*
X0112750Y0160248D01*
X0112750Y0159068D02*
X0114369Y0159068D01*
X0114369Y0157889D02*
X0112750Y0157889D01*
X0112381Y0156709D02*
X0114737Y0156709D01*
X0115536Y0155529D02*
X0111582Y0155529D01*
X0105525Y0167326D02*
X0066711Y0167326D01*
X0064820Y0182661D02*
X0081125Y0182661D01*
X0083474Y0182661D02*
X0085417Y0182661D01*
X0086597Y0181481D02*
X0019290Y0181481D01*
X0018801Y0182661D02*
X0022070Y0182661D01*
X0022306Y0182563D02*
X0024182Y0182563D01*
X0025915Y0183280D01*
X0027242Y0184607D01*
X0027960Y0186340D01*
X0027960Y0195266D01*
X0027242Y0196999D01*
X0025915Y0198326D01*
X0024182Y0199044D01*
X0022306Y0199044D01*
X0020573Y0198326D01*
X0019246Y0196999D01*
X0018529Y0195266D01*
X0018529Y0186340D01*
X0019246Y0184607D01*
X0020573Y0183280D01*
X0022306Y0182563D01*
X0024418Y0182661D02*
X0041755Y0182661D01*
X0039698Y0183840D02*
X0026475Y0183840D01*
X0027413Y0185020D02*
X0038761Y0185020D01*
X0038272Y0186199D02*
X0027901Y0186199D01*
X0027960Y0187379D02*
X0038214Y0187379D01*
X0038214Y0188559D02*
X0027960Y0188559D01*
X0027960Y0189738D02*
X0038214Y0189738D01*
X0038214Y0190918D02*
X0027960Y0190918D01*
X0027960Y0192097D02*
X0038214Y0192097D01*
X0038214Y0193277D02*
X0027960Y0193277D01*
X0027960Y0194457D02*
X0038214Y0194457D01*
X0038367Y0195636D02*
X0027806Y0195636D01*
X0027318Y0196816D02*
X0038856Y0196816D01*
X0039928Y0197995D02*
X0026246Y0197995D01*
X0020243Y0197995D02*
X0009134Y0197995D01*
X0009134Y0196816D02*
X0019170Y0196816D01*
X0018682Y0195636D02*
X0009134Y0195636D01*
X0009134Y0194457D02*
X0018529Y0194457D01*
X0018529Y0193277D02*
X0009134Y0193277D01*
X0009134Y0192097D02*
X0018529Y0192097D01*
X0018529Y0190918D02*
X0009134Y0190918D01*
X0009134Y0189738D02*
X0018529Y0189738D01*
X0018529Y0188559D02*
X0009134Y0188559D01*
X0009134Y0187379D02*
X0018529Y0187379D01*
X0018587Y0186199D02*
X0014321Y0186199D01*
X0016638Y0185020D02*
X0019075Y0185020D01*
X0020013Y0183840D02*
X0017818Y0183840D01*
X0019778Y0180301D02*
X0087777Y0180301D01*
X0088956Y0179122D02*
X0019961Y0179122D01*
X0019961Y0177942D02*
X0090136Y0177942D01*
X0094287Y0183840D02*
X0098753Y0183840D01*
X0099313Y0183280D02*
X0100709Y0182702D01*
X0095424Y0182702D01*
X0087015Y0191112D01*
X0087015Y0195266D01*
X0086297Y0196999D01*
X0084970Y0198326D01*
X0084478Y0198530D01*
X0099806Y0198530D01*
X0099313Y0198326D01*
X0097987Y0196999D01*
X0097269Y0195266D01*
X0097269Y0186340D01*
X0097987Y0184607D01*
X0099313Y0183280D01*
X0097816Y0185020D02*
X0093107Y0185020D01*
X0091927Y0186199D02*
X0097327Y0186199D01*
X0097269Y0187379D02*
X0090748Y0187379D01*
X0089568Y0188559D02*
X0097269Y0188559D01*
X0097269Y0189738D02*
X0088389Y0189738D01*
X0087209Y0190918D02*
X0097269Y0190918D01*
X0097269Y0192097D02*
X0087015Y0192097D01*
X0087015Y0193277D02*
X0097269Y0193277D01*
X0097269Y0194457D02*
X0087015Y0194457D01*
X0086861Y0195636D02*
X0097422Y0195636D01*
X0097911Y0196816D02*
X0086373Y0196816D01*
X0085301Y0197995D02*
X0098983Y0197995D01*
X0104163Y0198530D02*
X0118749Y0198530D01*
X0118337Y0198230D01*
X0117767Y0197661D01*
X0117294Y0197009D01*
X0116929Y0196292D01*
X0116680Y0195526D01*
X0116554Y0194731D01*
X0116554Y0191388D01*
X0121085Y0191388D01*
X0121085Y0190219D01*
X0116554Y0190219D01*
X0116554Y0186876D01*
X0116680Y0186080D01*
X0116929Y0185314D01*
X0117294Y0184597D01*
X0117767Y0183946D01*
X0118337Y0183376D01*
X0118988Y0182903D01*
X0119382Y0182702D01*
X0103260Y0182702D01*
X0104655Y0183280D01*
X0105982Y0184607D01*
X0106700Y0186340D01*
X0106700Y0195266D01*
X0105982Y0196999D01*
X0104655Y0198326D01*
X0104163Y0198530D01*
X0104986Y0197995D02*
X0118102Y0197995D01*
X0117196Y0196816D02*
X0106058Y0196816D01*
X0106546Y0195636D02*
X0116716Y0195636D01*
X0116554Y0194457D02*
X0106700Y0194457D01*
X0106700Y0193277D02*
X0116554Y0193277D01*
X0116554Y0192097D02*
X0106700Y0192097D01*
X0106700Y0190918D02*
X0121085Y0190918D01*
X0122254Y0190918D02*
X0129141Y0190918D01*
X0129314Y0190501D02*
X0130068Y0189747D01*
X0131053Y0189339D01*
X0131756Y0189339D01*
X0125119Y0182702D01*
X0123957Y0182702D01*
X0124350Y0182903D01*
X0125002Y0183376D01*
X0125571Y0183946D01*
X0126044Y0184597D01*
X0126410Y0185314D01*
X0126659Y0186080D01*
X0126785Y0186876D01*
X0126785Y0190219D01*
X0122254Y0190219D01*
X0122254Y0191388D01*
X0126785Y0191388D01*
X0126785Y0194301D01*
X0128906Y0192179D01*
X0128906Y0191486D01*
X0129314Y0190501D01*
X0130089Y0189738D02*
X0126785Y0189738D01*
X0126785Y0188559D02*
X0130975Y0188559D01*
X0129796Y0187379D02*
X0126785Y0187379D01*
X0126678Y0186199D02*
X0128616Y0186199D01*
X0127436Y0185020D02*
X0126260Y0185020D01*
X0126257Y0183840D02*
X0125466Y0183840D01*
X0117873Y0183840D02*
X0105215Y0183840D01*
X0106153Y0185020D02*
X0117079Y0185020D01*
X0116661Y0186199D02*
X0106641Y0186199D01*
X0106700Y0187379D02*
X0116554Y0187379D01*
X0116554Y0188559D02*
X0106700Y0188559D01*
X0106700Y0189738D02*
X0116554Y0189738D01*
X0123293Y0200311D02*
X0131586Y0192019D01*
X0134265Y0192097D02*
X0134514Y0192097D01*
X0134265Y0191848D02*
X0134265Y0192552D01*
X0133857Y0193536D01*
X0133103Y0194290D01*
X0132119Y0194698D01*
X0131425Y0194698D01*
X0124914Y0201209D01*
X0130648Y0201209D01*
X0131140Y0201702D01*
X0131884Y0201702D01*
X0132376Y0201209D01*
X0134275Y0201209D01*
X0133436Y0200862D01*
X0132437Y0199863D01*
X0131896Y0198557D01*
X0131896Y0197144D01*
X0132437Y0195838D01*
X0133436Y0194839D01*
X0134742Y0194298D01*
X0136714Y0194298D01*
X0134265Y0191848D01*
X0133965Y0193277D02*
X0135694Y0193277D01*
X0134358Y0194457D02*
X0132702Y0194457D01*
X0132639Y0195636D02*
X0130487Y0195636D01*
X0129307Y0196816D02*
X0132032Y0196816D01*
X0131896Y0197995D02*
X0128128Y0197995D01*
X0126948Y0199175D02*
X0132152Y0199175D01*
X0132929Y0200355D02*
X0125768Y0200355D01*
X0123293Y0200311D02*
X0083461Y0200311D01*
X0047535Y0236236D01*
X0045027Y0233384D02*
X0035983Y0233384D01*
X0034803Y0234564D02*
X0043847Y0234564D01*
X0043745Y0235743D02*
X0033624Y0235743D01*
X0032444Y0236923D02*
X0043745Y0236923D01*
X0044041Y0238102D02*
X0031265Y0238102D01*
X0030085Y0239282D02*
X0045221Y0239282D01*
X0045626Y0229845D02*
X0039522Y0229845D01*
X0040702Y0228665D02*
X0044447Y0228665D01*
X0044621Y0223947D02*
X0022766Y0223947D01*
X0022766Y0223841D02*
X0022766Y0225010D01*
X0030793Y0225010D01*
X0030696Y0225623D01*
X0030447Y0226389D01*
X0030081Y0227106D01*
X0029608Y0227758D01*
X0029039Y0228327D01*
X0028387Y0228800D01*
X0027670Y0229166D01*
X0026904Y0229415D01*
X0026109Y0229541D01*
X0022766Y0229541D01*
X0022766Y0225010D01*
X0021597Y0225010D01*
X0021597Y0229541D01*
X0018253Y0229541D01*
X0017458Y0229415D01*
X0016692Y0229166D01*
X0015975Y0228800D01*
X0015324Y0228327D01*
X0014754Y0227758D01*
X0014281Y0227106D01*
X0013915Y0226389D01*
X0013667Y0225623D01*
X0013569Y0225010D01*
X0021597Y0225010D01*
X0021597Y0223841D01*
X0022766Y0223841D01*
X0030793Y0223841D01*
X0030696Y0223227D01*
X0030447Y0222462D01*
X0030081Y0221744D01*
X0029608Y0221093D01*
X0029039Y0220523D01*
X0028387Y0220050D01*
X0027670Y0219684D01*
X0026904Y0219436D01*
X0026109Y0219310D01*
X0022766Y0219310D01*
X0022766Y0223841D01*
X0022766Y0222767D02*
X0021597Y0222767D01*
X0021597Y0223841D02*
X0021597Y0219310D01*
X0018253Y0219310D01*
X0017458Y0219436D01*
X0016692Y0219684D01*
X0015975Y0220050D01*
X0015324Y0220523D01*
X0014754Y0221093D01*
X0014281Y0221744D01*
X0013915Y0222462D01*
X0013667Y0223227D01*
X0013569Y0223841D01*
X0021597Y0223841D01*
X0021597Y0223947D02*
X0009134Y0223947D01*
X0009134Y0225127D02*
X0013588Y0225127D01*
X0013888Y0226306D02*
X0009134Y0226306D01*
X0009134Y0227486D02*
X0014557Y0227486D01*
X0015789Y0228665D02*
X0009134Y0228665D01*
X0009134Y0229845D02*
X0033371Y0229845D01*
X0034550Y0228665D02*
X0028573Y0228665D01*
X0029806Y0227486D02*
X0035730Y0227486D01*
X0036909Y0226306D02*
X0030474Y0226306D01*
X0030774Y0225127D02*
X0038089Y0225127D01*
X0032191Y0231025D02*
X0009134Y0231025D01*
X0009134Y0232204D02*
X0031011Y0232204D01*
X0029832Y0233384D02*
X0009134Y0233384D01*
X0009134Y0234564D02*
X0028652Y0234564D01*
X0027473Y0235743D02*
X0009134Y0235743D01*
X0009134Y0236923D02*
X0026293Y0236923D01*
X0025113Y0238102D02*
X0009134Y0238102D01*
X0009134Y0239282D02*
X0023934Y0239282D01*
X0022766Y0228665D02*
X0021597Y0228665D01*
X0021597Y0227486D02*
X0022766Y0227486D01*
X0022766Y0226306D02*
X0021597Y0226306D01*
X0021597Y0225127D02*
X0022766Y0225127D01*
X0022766Y0221588D02*
X0021597Y0221588D01*
X0021597Y0220408D02*
X0022766Y0220408D01*
X0028880Y0220408D02*
X0060845Y0220408D01*
X0059665Y0221588D02*
X0029968Y0221588D01*
X0030546Y0222767D02*
X0045801Y0222767D01*
X0044852Y0219229D02*
X0009134Y0219229D01*
X0009134Y0220408D02*
X0015482Y0220408D01*
X0014394Y0221588D02*
X0009134Y0221588D01*
X0009134Y0222767D02*
X0013816Y0222767D01*
X0009134Y0218049D02*
X0043745Y0218049D01*
X0043745Y0216869D02*
X0009134Y0216869D01*
X0009134Y0215690D02*
X0043598Y0215690D01*
X0042419Y0214510D02*
X0009134Y0214510D01*
X0009134Y0213330D02*
X0041239Y0213330D01*
X0040754Y0212151D02*
X0009134Y0212151D01*
X0009134Y0210971D02*
X0040754Y0210971D01*
X0040754Y0209792D02*
X0009134Y0209792D01*
X0009134Y0208612D02*
X0040754Y0208612D01*
X0040754Y0207432D02*
X0009134Y0207432D01*
X0009134Y0206253D02*
X0040754Y0206253D01*
X0040754Y0205073D02*
X0009134Y0205073D01*
X0009134Y0203894D02*
X0040754Y0203894D01*
X0040754Y0202714D02*
X0009134Y0202714D01*
X0009134Y0201534D02*
X0040754Y0201534D01*
X0040754Y0200355D02*
X0009134Y0200355D01*
X0009134Y0199175D02*
X0040754Y0199175D01*
X0045104Y0199175D02*
X0060977Y0199175D01*
X0062030Y0199175D02*
X0063199Y0199175D01*
X0064251Y0199175D02*
X0082078Y0199175D01*
X0084571Y0202991D02*
X0077378Y0210183D01*
X0084571Y0202991D02*
X0129910Y0202991D01*
X0130402Y0203483D01*
X0130972Y0201534D02*
X0132051Y0201534D01*
X0133550Y0205073D02*
X0223047Y0205073D01*
X0223047Y0206253D02*
X0109039Y0206253D01*
X0107890Y0208677D02*
X0212931Y0208677D01*
X0213205Y0208950D01*
X0215757Y0209792D02*
X0218143Y0209792D01*
X0215884Y0208612D02*
X0223047Y0208612D01*
X0223047Y0207432D02*
X0215476Y0207432D01*
X0220094Y0211630D02*
X0109270Y0211630D01*
X0109270Y0212357D01*
X0106773Y0213330D02*
X0096919Y0213330D01*
X0098099Y0214510D02*
X0107634Y0214510D01*
X0110906Y0214510D02*
X0131460Y0214510D01*
X0130989Y0215690D02*
X0098570Y0215690D01*
X0098570Y0216869D02*
X0130989Y0216869D01*
X0130989Y0218049D02*
X0098570Y0218049D01*
X0097463Y0219229D02*
X0132096Y0219229D01*
X0132553Y0222767D02*
X0097006Y0222767D01*
X0098186Y0223947D02*
X0131373Y0223947D01*
X0131200Y0227683D02*
X0132067Y0228550D01*
X0131758Y0228550D01*
X0127302Y0233006D01*
X0127302Y0232750D01*
X0126894Y0231766D01*
X0126140Y0231012D01*
X0125155Y0230604D01*
X0124089Y0230604D01*
X0123104Y0231012D01*
X0123007Y0231109D01*
X0122426Y0231109D01*
X0122466Y0231068D01*
X0122958Y0230576D01*
X0125852Y0227683D01*
X0131200Y0227683D01*
X0131642Y0228665D02*
X0124869Y0228665D01*
X0123690Y0229845D02*
X0130463Y0229845D01*
X0129283Y0231025D02*
X0126153Y0231025D01*
X0127075Y0232204D02*
X0128104Y0232204D01*
X0125114Y0225902D02*
X0134780Y0225902D01*
X0220094Y0225902D01*
X0218260Y0223947D02*
X0138186Y0223947D01*
X0137006Y0222767D02*
X0223047Y0222767D01*
X0223047Y0221588D02*
X0171725Y0221588D01*
X0172516Y0220408D02*
X0223047Y0220408D01*
X0223047Y0219229D02*
X0182247Y0219229D01*
X0181170Y0219229D02*
X0172663Y0219229D01*
X0179960Y0214510D02*
X0138099Y0214510D01*
X0134780Y0216551D02*
X0181709Y0216551D01*
X0184252Y0215690D02*
X0223047Y0215690D01*
X0223047Y0216869D02*
X0184388Y0216869D01*
X0183989Y0218049D02*
X0223047Y0218049D01*
X0223047Y0214510D02*
X0183457Y0214510D01*
X0188881Y0234080D02*
X0148244Y0234080D01*
X0148559Y0234395D01*
X0148559Y0247063D01*
X0144932Y0252258D02*
X0142593Y0252258D01*
X0143046Y0251078D02*
X0144444Y0251078D01*
X0144369Y0249898D02*
X0143150Y0249898D01*
X0143150Y0248719D02*
X0144369Y0248719D01*
X0144369Y0247539D02*
X0143150Y0247539D01*
X0143150Y0246654D02*
X0138969Y0246654D01*
X0138969Y0246653D02*
X0138969Y0239480D01*
X0139634Y0239585D01*
X0140321Y0239809D01*
X0140965Y0240137D01*
X0141550Y0240562D01*
X0142061Y0241072D01*
X0142485Y0241657D01*
X0142813Y0242301D01*
X0143037Y0242988D01*
X0143150Y0243702D01*
X0143150Y0246654D01*
X0143150Y0246360D02*
X0144369Y0246360D01*
X0144369Y0245180D02*
X0143150Y0245180D01*
X0143150Y0244000D02*
X0144369Y0244000D01*
X0144538Y0242821D02*
X0142982Y0242821D01*
X0142474Y0241641D02*
X0145055Y0241641D01*
X0146303Y0240462D02*
X0141412Y0240462D01*
X0138969Y0240462D02*
X0138150Y0240462D01*
X0138150Y0239480D02*
X0138150Y0246653D01*
X0138150Y0246654D02*
X0133969Y0246654D01*
X0133969Y0243702D01*
X0134082Y0242988D01*
X0134305Y0242301D01*
X0134633Y0241657D01*
X0135058Y0241072D01*
X0135569Y0240562D01*
X0136153Y0240137D01*
X0136797Y0239809D01*
X0137484Y0239585D01*
X0138150Y0239480D01*
X0137094Y0239282D02*
X0146778Y0239282D01*
X0146778Y0238102D02*
X0138274Y0238102D01*
X0138570Y0236923D02*
X0146778Y0236923D01*
X0148244Y0234080D02*
X0136935Y0234080D01*
X0134780Y0236236D01*
X0135706Y0240462D02*
X0130815Y0240462D01*
X0132064Y0241641D02*
X0134644Y0241641D01*
X0134136Y0242821D02*
X0132580Y0242821D01*
X0132750Y0244000D02*
X0133969Y0244000D01*
X0133969Y0245180D02*
X0132750Y0245180D01*
X0132750Y0246360D02*
X0133969Y0246360D01*
X0133969Y0247539D02*
X0132750Y0247539D01*
X0132750Y0248719D02*
X0133969Y0248719D01*
X0133969Y0249898D02*
X0132750Y0249898D01*
X0132674Y0251078D02*
X0134072Y0251078D01*
X0134525Y0252258D02*
X0132186Y0252258D01*
X0138150Y0246360D02*
X0138969Y0246360D01*
X0138969Y0245180D02*
X0138150Y0245180D01*
X0138150Y0244000D02*
X0138969Y0244000D01*
X0138969Y0242821D02*
X0138150Y0242821D01*
X0138150Y0241641D02*
X0138969Y0241641D01*
X0126303Y0240462D02*
X0120815Y0240462D01*
X0122064Y0241641D02*
X0125055Y0241641D01*
X0124538Y0242821D02*
X0122580Y0242821D01*
X0122750Y0244000D02*
X0124369Y0244000D01*
X0124369Y0245180D02*
X0122750Y0245180D01*
X0122750Y0246360D02*
X0124369Y0246360D01*
X0124369Y0247539D02*
X0122750Y0247539D01*
X0122750Y0248719D02*
X0124369Y0248719D01*
X0124369Y0249898D02*
X0122750Y0249898D01*
X0122674Y0251078D02*
X0124444Y0251078D01*
X0124932Y0252258D02*
X0122186Y0252258D01*
X0114932Y0252258D02*
X0112186Y0252258D01*
X0112674Y0251078D02*
X0114444Y0251078D01*
X0114369Y0249898D02*
X0112750Y0249898D01*
X0112750Y0248719D02*
X0114369Y0248719D01*
X0114369Y0247539D02*
X0112750Y0247539D01*
X0112750Y0246360D02*
X0114369Y0246360D01*
X0114369Y0245180D02*
X0112750Y0245180D01*
X0112750Y0244000D02*
X0114369Y0244000D01*
X0114538Y0242821D02*
X0112580Y0242821D01*
X0112064Y0241641D02*
X0115055Y0241641D01*
X0116303Y0240462D02*
X0110815Y0240462D01*
X0122510Y0231025D02*
X0123091Y0231025D01*
X0137463Y0219229D02*
X0145479Y0219229D01*
X0145625Y0220408D02*
X0093617Y0220408D01*
X0093837Y0221588D02*
X0146417Y0221588D01*
X0150340Y0236923D02*
X0165250Y0236923D01*
X0165394Y0238102D02*
X0150340Y0238102D01*
X0150340Y0239282D02*
X0166201Y0239282D01*
X0167929Y0237220D02*
X0169898Y0239189D01*
X0204346Y0239189D01*
X0205331Y0238205D01*
X0207785Y0239282D02*
X0223047Y0239282D01*
X0223047Y0240462D02*
X0206863Y0240462D01*
X0208010Y0238102D02*
X0223047Y0238102D01*
X0223047Y0236923D02*
X0207700Y0236923D01*
X0206390Y0235743D02*
X0223047Y0235743D01*
X0223047Y0234564D02*
X0214730Y0234564D01*
X0215656Y0233384D02*
X0223047Y0233384D01*
X0223047Y0232204D02*
X0215884Y0232204D01*
X0215577Y0231025D02*
X0223047Y0231025D01*
X0223047Y0229845D02*
X0214282Y0229845D01*
X0212090Y0228665D02*
X0223047Y0228665D01*
X0223047Y0227486D02*
X0222300Y0227486D01*
X0222774Y0226306D02*
X0223047Y0226306D01*
X0223047Y0225127D02*
X0222674Y0225127D01*
X0223047Y0223947D02*
X0221929Y0223947D01*
X0222183Y0213330D02*
X0223047Y0213330D01*
X0223047Y0212151D02*
X0222774Y0212151D01*
X0222722Y0210971D02*
X0223047Y0210971D01*
X0223047Y0209792D02*
X0222046Y0209792D01*
X0204272Y0235743D02*
X0192363Y0235743D01*
X0191625Y0236923D02*
X0202961Y0236923D01*
X0189780Y0234979D02*
X0188881Y0234080D01*
X0168651Y0240462D02*
X0150815Y0240462D01*
X0152064Y0241641D02*
X0223047Y0241641D01*
X0223047Y0242821D02*
X0152580Y0242821D01*
X0152750Y0244000D02*
X0223047Y0244000D01*
X0223047Y0245180D02*
X0152750Y0245180D01*
X0152750Y0246360D02*
X0223047Y0246360D01*
X0223047Y0247539D02*
X0152750Y0247539D01*
X0152750Y0248719D02*
X0223047Y0248719D01*
X0223047Y0249898D02*
X0152750Y0249898D01*
X0152674Y0251078D02*
X0223047Y0251078D01*
X0223047Y0252258D02*
X0152186Y0252258D01*
X0136787Y0269952D02*
X0194205Y0269952D01*
X0195384Y0271132D02*
X0137967Y0271132D01*
X0139147Y0272311D02*
X0196564Y0272311D01*
X0197744Y0273491D02*
X0140326Y0273491D01*
X0141506Y0274670D02*
X0198923Y0274670D01*
X0200103Y0275850D02*
X0142685Y0275850D01*
X0143367Y0276531D02*
X0143367Y0276531D01*
X0143865Y0277030D02*
X0195197Y0277030D01*
X0194777Y0278209D02*
X0144647Y0278209D01*
X0144907Y0279389D02*
X0194108Y0279389D01*
X0192928Y0280568D02*
X0149372Y0280568D01*
X0150388Y0281748D02*
X0191749Y0281748D01*
X0190569Y0282928D02*
X0150813Y0282928D01*
X0150813Y0284107D02*
X0189390Y0284107D01*
X0188210Y0285287D02*
X0150357Y0285287D01*
X0149298Y0286467D02*
X0187030Y0286467D01*
X0187395Y0288620D02*
X0133114Y0288620D01*
X0132622Y0289113D01*
X0130402Y0289113D01*
X0129910Y0288620D01*
X0135608Y0268772D02*
X0193025Y0268772D01*
X0191845Y0267593D02*
X0134428Y0267593D01*
X0134162Y0266413D02*
X0190666Y0266413D01*
X0189486Y0265233D02*
X0135785Y0265233D01*
X0133480Y0263795D02*
X0134795Y0262480D01*
X0189252Y0262480D01*
X0205331Y0278559D01*
X0207111Y0280568D02*
X0223047Y0280568D01*
X0223047Y0279389D02*
X0207887Y0279389D01*
X0208010Y0278209D02*
X0223047Y0278209D01*
X0223047Y0277030D02*
X0207591Y0277030D01*
X0205140Y0275850D02*
X0223047Y0275850D01*
X0223047Y0274670D02*
X0203961Y0274670D01*
X0202781Y0273491D02*
X0223047Y0273491D01*
X0223047Y0272311D02*
X0201602Y0272311D01*
X0200422Y0271132D02*
X0223047Y0271132D01*
X0223047Y0269952D02*
X0199242Y0269952D01*
X0198063Y0268772D02*
X0223047Y0268772D01*
X0223047Y0267593D02*
X0196883Y0267593D01*
X0195704Y0266413D02*
X0223047Y0266413D01*
X0223047Y0265233D02*
X0194524Y0265233D01*
X0193344Y0264054D02*
X0223047Y0264054D01*
X0223047Y0262874D02*
X0192165Y0262874D01*
X0199717Y0277030D02*
X0201282Y0277030D01*
X0200136Y0278209D02*
X0202462Y0278209D01*
X0202774Y0279389D02*
X0200013Y0279389D01*
X0199237Y0280568D02*
X0203551Y0280568D01*
X0197457Y0278559D02*
X0187395Y0288620D01*
X0188529Y0290005D02*
X0223047Y0290005D01*
X0223047Y0288826D02*
X0189709Y0288826D01*
X0190888Y0287646D02*
X0223047Y0287646D01*
X0223047Y0286467D02*
X0192068Y0286467D01*
X0193248Y0285287D02*
X0223047Y0285287D01*
X0223047Y0284107D02*
X0194427Y0284107D01*
X0195607Y0282928D02*
X0223047Y0282928D01*
X0223047Y0281748D02*
X0196787Y0281748D01*
X0172317Y0306520D02*
X0223047Y0306520D01*
X0223047Y0307700D02*
X0170930Y0307700D01*
X0092640Y0213330D02*
X0089675Y0213330D01*
X0090855Y0214510D02*
X0091460Y0214510D01*
X0077584Y0189738D02*
X0067730Y0189738D01*
X0067730Y0188559D02*
X0077584Y0188559D01*
X0077584Y0187379D02*
X0067730Y0187379D01*
X0067623Y0186199D02*
X0077642Y0186199D01*
X0078131Y0185020D02*
X0067205Y0185020D01*
X0066411Y0183840D02*
X0079068Y0183840D01*
X0063199Y0192097D02*
X0062030Y0192097D01*
X0062030Y0190918D02*
X0047645Y0190918D01*
X0047645Y0192097D02*
X0057499Y0192097D01*
X0057499Y0193277D02*
X0047645Y0193277D01*
X0047645Y0194457D02*
X0057499Y0194457D01*
X0057660Y0195636D02*
X0047491Y0195636D01*
X0047003Y0196816D02*
X0058140Y0196816D01*
X0059047Y0197995D02*
X0045931Y0197995D01*
X0047645Y0189738D02*
X0057499Y0189738D01*
X0057499Y0188559D02*
X0047645Y0188559D01*
X0047645Y0187379D02*
X0057499Y0187379D01*
X0057606Y0186199D02*
X0047586Y0186199D01*
X0047098Y0185020D02*
X0058024Y0185020D01*
X0058818Y0183840D02*
X0046160Y0183840D01*
X0062030Y0193277D02*
X0063199Y0193277D01*
X0063199Y0194457D02*
X0062030Y0194457D01*
X0062030Y0195636D02*
X0063199Y0195636D01*
X0063199Y0196816D02*
X0062030Y0196816D01*
X0062030Y0197995D02*
X0063199Y0197995D01*
X0026775Y0150811D02*
X0009134Y0150811D01*
X0009134Y0151991D02*
X0025595Y0151991D01*
X0024416Y0153170D02*
X0009134Y0153170D01*
X0009134Y0154350D02*
X0016306Y0154350D01*
X0014938Y0155529D02*
X0009134Y0155529D01*
X0009134Y0156709D02*
X0014286Y0156709D01*
X0013941Y0157889D02*
X0013279Y0157889D01*
X0009588Y0157889D02*
X0009134Y0157889D01*
X0009134Y0149631D02*
X0027954Y0149631D01*
X0029134Y0148452D02*
X0009134Y0148452D01*
X0021597Y0143733D02*
X0022766Y0143733D01*
X0022766Y0142554D02*
X0021597Y0142554D01*
X0021597Y0141374D02*
X0022766Y0141374D01*
X0022766Y0140194D02*
X0021597Y0140194D01*
X0019761Y0111884D02*
X0009134Y0111884D01*
X0009134Y0110704D02*
X0018971Y0110704D01*
X0018529Y0109524D02*
X0009134Y0109524D01*
X0009134Y0108345D02*
X0018529Y0108345D01*
X0018529Y0107165D02*
X0009134Y0107165D01*
X0009134Y0105986D02*
X0018529Y0105986D01*
X0018529Y0104806D02*
X0009134Y0104806D01*
X0009134Y0103626D02*
X0018529Y0103626D01*
X0018529Y0102447D02*
X0009134Y0102447D01*
X0009134Y0101267D02*
X0018529Y0101267D01*
X0018786Y0100088D02*
X0015484Y0100088D01*
X0017120Y0098908D02*
X0019316Y0098908D01*
X0062030Y0026952D02*
X0063199Y0026952D01*
X0063199Y0025772D02*
X0062030Y0025772D01*
X0062030Y0024592D02*
X0063199Y0024592D01*
X0063199Y0023413D02*
X0062030Y0023413D01*
X0062030Y0022233D02*
X0063199Y0022233D01*
X0087561Y0009257D02*
X0019689Y0009257D01*
X0019961Y0008078D02*
X0088740Y0008078D01*
X0089920Y0006898D02*
X0019961Y0006898D01*
X0019961Y0005718D02*
X0091100Y0005718D01*
X0125852Y0056423D02*
X0122958Y0059316D01*
X0122466Y0059809D01*
X0122426Y0059849D01*
X0123007Y0059849D01*
X0123104Y0059752D01*
X0124089Y0059344D01*
X0125155Y0059344D01*
X0126140Y0059752D01*
X0126894Y0060506D01*
X0127302Y0061491D01*
X0127302Y0061747D01*
X0130715Y0058333D01*
X0131758Y0057290D01*
X0132067Y0057290D01*
X0131200Y0056423D01*
X0125852Y0056423D01*
X0125833Y0056442D02*
X0131219Y0056442D01*
X0131427Y0057621D02*
X0124653Y0057621D01*
X0123474Y0058801D02*
X0130247Y0058801D01*
X0129067Y0059981D02*
X0126369Y0059981D01*
X0127165Y0061160D02*
X0127888Y0061160D01*
X0126098Y0065469D02*
X0132496Y0059071D01*
X0106018Y0069418D02*
X0103015Y0069418D01*
X0102626Y0070597D02*
X0104937Y0070597D01*
X0124977Y0097728D02*
X0125775Y0097728D01*
X0126002Y0098908D02*
X0126954Y0098908D01*
X0126541Y0100088D02*
X0128134Y0100088D01*
X0129314Y0101267D02*
X0126785Y0101267D01*
X0126785Y0102447D02*
X0130493Y0102447D01*
X0131673Y0103626D02*
X0126785Y0103626D01*
X0116554Y0105986D02*
X0106700Y0105986D01*
X0106700Y0107165D02*
X0116554Y0107165D01*
X0116554Y0108345D02*
X0106700Y0108345D01*
X0106700Y0109524D02*
X0116621Y0109524D01*
X0116950Y0110704D02*
X0106257Y0110704D01*
X0105468Y0111884D02*
X0117660Y0111884D01*
X0107890Y0123047D02*
X0212931Y0123047D01*
X0213205Y0123320D01*
X0214994Y0121321D02*
X0223047Y0121321D01*
X0223047Y0120141D02*
X0084309Y0120141D01*
X0083129Y0121321D02*
X0105827Y0121321D01*
X0105216Y0122500D02*
X0081950Y0122500D01*
X0080770Y0123680D02*
X0105252Y0123680D01*
X0105913Y0124859D02*
X0079591Y0124859D01*
X0079159Y0126039D02*
X0106655Y0126039D01*
X0106591Y0127219D02*
X0096438Y0127219D01*
X0093121Y0127219D02*
X0089193Y0127219D01*
X0090373Y0128398D02*
X0091942Y0128398D01*
X0085877Y0127219D02*
X0079159Y0127219D01*
X0079159Y0128398D02*
X0079370Y0128398D01*
X0083260Y0128398D02*
X0084698Y0128398D01*
X0093837Y0135476D02*
X0145935Y0135476D01*
X0145479Y0134296D02*
X0136765Y0134296D01*
X0137945Y0133117D02*
X0145565Y0133117D01*
X0137704Y0137835D02*
X0218975Y0137835D01*
X0221214Y0137835D02*
X0223047Y0137835D01*
X0223047Y0136656D02*
X0136524Y0136656D01*
X0134780Y0140272D02*
X0220094Y0140272D01*
X0222538Y0141374D02*
X0223047Y0141374D01*
X0223047Y0140194D02*
X0222774Y0140194D01*
X0223047Y0139015D02*
X0222474Y0139015D01*
X0223047Y0142554D02*
X0221587Y0142554D01*
X0223047Y0143733D02*
X0212788Y0143733D01*
X0213017Y0143963D02*
X0213017Y0143963D01*
X0215238Y0144913D02*
X0223047Y0144913D01*
X0223047Y0146092D02*
X0215866Y0146092D01*
X0215855Y0147272D02*
X0223047Y0147272D01*
X0218602Y0142554D02*
X0137858Y0142554D01*
X0138150Y0154350D02*
X0138969Y0154350D01*
X0138969Y0155529D02*
X0138150Y0155529D01*
X0138150Y0156709D02*
X0138969Y0156709D01*
X0138969Y0157889D02*
X0138150Y0157889D01*
X0138150Y0159068D02*
X0138969Y0159068D01*
X0140657Y0154350D02*
X0146778Y0154350D01*
X0145536Y0155529D02*
X0142124Y0155529D01*
X0142826Y0156709D02*
X0144737Y0156709D01*
X0144369Y0157889D02*
X0143121Y0157889D01*
X0143150Y0159068D02*
X0144369Y0159068D01*
X0144369Y0160248D02*
X0143150Y0160248D01*
X0142132Y0167326D02*
X0145525Y0167326D01*
X0134986Y0167326D02*
X0131593Y0167326D01*
X0132385Y0166146D02*
X0134289Y0166146D01*
X0133996Y0164966D02*
X0132750Y0164966D01*
X0132750Y0163787D02*
X0133969Y0163787D01*
X0133969Y0162607D02*
X0132750Y0162607D01*
X0150340Y0153170D02*
X0165719Y0153170D01*
X0165250Y0151991D02*
X0150340Y0151991D01*
X0150340Y0150811D02*
X0165352Y0150811D01*
X0167929Y0151591D02*
X0169898Y0153559D01*
X0172206Y0135476D02*
X0223047Y0135476D01*
X0223047Y0131937D02*
X0184188Y0131937D01*
X0184388Y0130758D02*
X0223047Y0130758D01*
X0223047Y0129578D02*
X0184052Y0129578D01*
X0187395Y0117361D02*
X0197457Y0107299D01*
X0196474Y0104806D02*
X0142901Y0104806D01*
X0144081Y0105986D02*
X0195100Y0105986D01*
X0194777Y0107165D02*
X0144737Y0107165D01*
X0144907Y0108345D02*
X0193892Y0108345D01*
X0192713Y0109524D02*
X0149588Y0109524D01*
X0150477Y0110704D02*
X0191533Y0110704D01*
X0190353Y0111884D02*
X0150813Y0111884D01*
X0150756Y0113063D02*
X0189174Y0113063D01*
X0187994Y0114243D02*
X0150262Y0114243D01*
X0148813Y0115423D02*
X0186815Y0115423D01*
X0131942Y0128398D02*
X0111388Y0128398D01*
X0098501Y0111884D02*
X0085783Y0111884D01*
X0086572Y0110704D02*
X0097711Y0110704D01*
X0126785Y0192097D02*
X0128906Y0192097D01*
X0127808Y0193277D02*
X0126785Y0193277D01*
X0077584Y0277030D02*
X0067730Y0277030D01*
X0067730Y0278209D02*
X0077584Y0278209D01*
X0077584Y0279389D02*
X0067730Y0279389D01*
X0067697Y0280568D02*
X0077584Y0280568D01*
X0077937Y0281748D02*
X0067411Y0281748D01*
X0066780Y0282928D02*
X0078600Y0282928D01*
X0079994Y0284107D02*
X0065606Y0284107D01*
X0058449Y0282928D02*
X0046628Y0282928D01*
X0047292Y0281748D02*
X0057817Y0281748D01*
X0057532Y0280568D02*
X0047645Y0280568D01*
X0047645Y0279389D02*
X0057499Y0279389D01*
X0057499Y0278209D02*
X0047645Y0278209D01*
X0047645Y0277030D02*
X0057499Y0277030D01*
X0057499Y0274670D02*
X0047645Y0274670D01*
X0047645Y0273491D02*
X0057499Y0273491D01*
X0057529Y0272311D02*
X0047645Y0272311D01*
X0047297Y0271132D02*
X0057813Y0271132D01*
X0058439Y0269952D02*
X0046642Y0269952D01*
X0045267Y0268772D02*
X0059603Y0268772D01*
X0062030Y0268772D02*
X0063199Y0268772D01*
X0063199Y0269952D02*
X0062030Y0269952D01*
X0062030Y0271132D02*
X0063199Y0271132D01*
X0063199Y0272311D02*
X0062030Y0272311D01*
X0062030Y0273491D02*
X0063199Y0273491D01*
X0063199Y0274670D02*
X0062030Y0274670D01*
X0062030Y0275850D02*
X0047645Y0275850D01*
X0016641Y0305340D02*
X0009134Y0305340D01*
X0009134Y0306520D02*
X0014957Y0306520D01*
X0014115Y0307700D02*
X0009134Y0307700D01*
X0009134Y0308879D02*
X0013663Y0308879D01*
X0009134Y0321855D02*
X0026991Y0321855D01*
X0025811Y0323035D02*
X0009134Y0323035D01*
X0009134Y0324214D02*
X0024631Y0324214D01*
X0016827Y0325394D02*
X0009134Y0325394D01*
X0009134Y0326573D02*
X0015154Y0326573D01*
X0014375Y0327753D02*
X0009134Y0327753D01*
X0009134Y0328933D02*
X0013941Y0328933D01*
X0014086Y0242821D02*
X0009134Y0242821D01*
X0009134Y0241641D02*
X0014575Y0241641D01*
X0015636Y0240462D02*
X0009134Y0240462D01*
D15*
X0011433Y0242142D03*
X0024228Y0234268D03*
X0038008Y0245094D03*
X0021276Y0264780D03*
X0013402Y0274622D03*
X0020291Y0297260D03*
X0034071Y0293323D03*
X0051787Y0293323D03*
X0071472Y0286433D03*
X0087220Y0294307D03*
X0091157Y0307102D03*
X0077378Y0312024D03*
X0076394Y0322850D03*
X0056709Y0320882D03*
X0038008Y0330724D03*
X0024228Y0319898D03*
X0011433Y0327772D03*
X0076394Y0237220D03*
X0077378Y0226394D03*
X0091157Y0221472D03*
X0087220Y0208677D03*
X0092142Y0193913D03*
X0094110Y0188008D03*
X0107890Y0184071D03*
X0110843Y0195882D03*
X0107890Y0208677D03*
X0109270Y0212357D03*
X0106906Y0220488D03*
X0106906Y0226394D03*
X0100016Y0241157D03*
X0107890Y0269701D03*
X0110843Y0281512D03*
X0107890Y0294307D03*
X0109270Y0297987D03*
X0106906Y0306118D03*
X0106906Y0312024D03*
X0100016Y0326787D03*
X0123638Y0325803D03*
X0124622Y0318913D03*
X0128559Y0314976D03*
X0148244Y0305134D03*
X0147260Y0283480D03*
X0155134Y0272654D03*
X0171866Y0280528D03*
X0181709Y0302181D03*
X0169898Y0305134D03*
X0167929Y0322850D03*
X0157102Y0326787D03*
X0158087Y0335646D03*
X0189780Y0320609D03*
X0196472Y0305134D03*
X0195488Y0289386D03*
X0197457Y0278559D03*
X0205331Y0278559D03*
X0207299Y0284465D03*
X0213205Y0294580D03*
X0220094Y0297260D03*
X0212220Y0306118D03*
X0220094Y0311531D03*
X0213205Y0317929D03*
X0205331Y0323835D03*
X0158087Y0250016D03*
X0157102Y0241157D03*
X0167929Y0237220D03*
X0169898Y0219504D03*
X0181709Y0216551D03*
X0196472Y0219504D03*
X0189780Y0234979D03*
X0205331Y0238205D03*
X0213205Y0232299D03*
X0220094Y0225902D03*
X0212220Y0220488D03*
X0213205Y0208950D03*
X0220094Y0211630D03*
X0207299Y0198835D03*
X0205331Y0192929D03*
X0197457Y0192929D03*
X0195488Y0203756D03*
X0171866Y0194898D03*
X0155134Y0187024D03*
X0147260Y0197850D03*
X0135449Y0197850D03*
X0131512Y0200803D03*
X0131586Y0192019D03*
X0128559Y0188992D03*
X0133480Y0178165D03*
X0123638Y0154543D03*
X0124622Y0147654D03*
X0128559Y0143717D03*
X0109270Y0126727D03*
X0107890Y0123047D03*
X0106906Y0134858D03*
X0106906Y0140764D03*
X0100016Y0155528D03*
X0091157Y0135843D03*
X0087220Y0123047D03*
X0092142Y0108283D03*
X0094110Y0102378D03*
X0107890Y0098441D03*
X0110843Y0110252D03*
X0128559Y0103362D03*
X0131586Y0106389D03*
X0135449Y0112220D03*
X0131512Y0115173D03*
X0147260Y0112220D03*
X0155134Y0101394D03*
X0171866Y0109268D03*
X0181709Y0130921D03*
X0169898Y0133874D03*
X0167929Y0151591D03*
X0157102Y0155528D03*
X0158087Y0164386D03*
X0148244Y0133874D03*
X0133480Y0092535D03*
X0123638Y0068913D03*
X0124622Y0062024D03*
X0128559Y0058087D03*
X0109270Y0041097D03*
X0107890Y0037417D03*
X0110843Y0024622D03*
X0107890Y0012811D03*
X0094110Y0016748D03*
X0092142Y0022654D03*
X0087220Y0037417D03*
X0091157Y0050213D03*
X0077378Y0055134D03*
X0076394Y0065961D03*
X0056709Y0063992D03*
X0038008Y0073835D03*
X0024228Y0063008D03*
X0011433Y0070882D03*
X0021276Y0093520D03*
X0013402Y0103362D03*
X0020291Y0126000D03*
X0034071Y0122063D03*
X0051787Y0122063D03*
X0071472Y0115173D03*
X0077378Y0140764D03*
X0076394Y0151591D03*
X0056709Y0149622D03*
X0038008Y0159465D03*
X0024228Y0148638D03*
X0011433Y0156512D03*
X0021276Y0179150D03*
X0013402Y0188992D03*
X0020291Y0211630D03*
X0034071Y0207693D03*
X0051787Y0207693D03*
X0071472Y0200803D03*
X0056709Y0235252D03*
X0094110Y0273638D03*
X0092142Y0279543D03*
X0123638Y0240173D03*
X0124622Y0233283D03*
X0128559Y0229346D03*
X0148244Y0219504D03*
X0133480Y0263795D03*
X0128559Y0274622D03*
X0131586Y0277649D03*
X0135449Y0283480D03*
X0131512Y0286433D03*
X0205331Y0152575D03*
X0213205Y0146669D03*
X0220094Y0140272D03*
X0212220Y0134858D03*
X0213205Y0123320D03*
X0220094Y0126000D03*
X0207299Y0113205D03*
X0205331Y0107299D03*
X0197457Y0107299D03*
X0195488Y0118126D03*
X0196472Y0133874D03*
X0189780Y0149349D03*
X0158087Y0078756D03*
X0157102Y0069898D03*
X0167929Y0065961D03*
X0169898Y0048244D03*
X0181709Y0045291D03*
X0196472Y0048244D03*
X0195488Y0032496D03*
X0197457Y0021669D03*
X0205331Y0021669D03*
X0207299Y0027575D03*
X0213205Y0037691D03*
X0220094Y0040370D03*
X0212220Y0049228D03*
X0220094Y0054642D03*
X0213205Y0061039D03*
X0205331Y0066945D03*
X0189780Y0063719D03*
X0171866Y0023638D03*
X0155134Y0015764D03*
X0147260Y0026591D03*
X0135449Y0026591D03*
X0131512Y0029543D03*
X0131586Y0020759D03*
X0128559Y0017732D03*
X0133480Y0006906D03*
X0148244Y0048244D03*
X0106906Y0049228D03*
X0106906Y0055134D03*
X0100016Y0069898D03*
X0071472Y0029543D03*
X0051787Y0036433D03*
X0034071Y0036433D03*
X0020291Y0040370D03*
X0013402Y0017732D03*
X0021276Y0007890D03*
D16*
X0042929Y0019543D02*
X0042929Y0040685D01*
X0047535Y0045291D01*
X0047535Y0055134D02*
X0039898Y0055134D01*
X0022181Y0072850D01*
X0042929Y0105173D02*
X0042929Y0126315D01*
X0047535Y0130921D01*
X0047535Y0140764D02*
X0039898Y0140764D01*
X0022181Y0158480D01*
X0042929Y0190803D02*
X0042929Y0211945D01*
X0047535Y0216551D01*
X0047535Y0226394D02*
X0039898Y0226394D01*
X0022181Y0244110D01*
X0042929Y0276433D02*
X0042929Y0297575D01*
X0047535Y0302181D01*
X0047535Y0312024D02*
X0039898Y0312024D01*
X0022181Y0329740D01*
X0094780Y0321866D02*
X0097732Y0318913D01*
X0124622Y0318913D01*
X0094780Y0236236D02*
X0097732Y0233283D01*
X0124622Y0233283D01*
X0094780Y0150606D02*
X0097732Y0147654D01*
X0124622Y0147654D01*
X0094780Y0064976D02*
X0097732Y0062024D01*
X0124622Y0062024D01*
D17*
X0126591Y0093520D02*
X0141354Y0108283D01*
X0141354Y0112220D01*
X0135449Y0112220D01*
X0141354Y0112220D02*
X0147260Y0112220D01*
X0126591Y0093520D02*
X0093953Y0093520D01*
X0082299Y0105173D01*
X0093953Y0179150D02*
X0126591Y0179150D01*
X0141354Y0193913D01*
X0141354Y0197850D01*
X0135449Y0197850D01*
X0141354Y0197850D02*
X0147260Y0197850D01*
X0126591Y0264780D02*
X0141354Y0279543D01*
X0141354Y0283480D01*
X0135449Y0283480D01*
X0141354Y0283480D02*
X0147260Y0283480D01*
X0126591Y0264780D02*
X0093953Y0264780D01*
X0082299Y0276433D01*
X0082299Y0190803D02*
X0093953Y0179150D01*
X0135449Y0026591D02*
X0141354Y0026591D01*
X0141354Y0022654D01*
X0126591Y0007890D01*
X0093953Y0007890D01*
X0082299Y0019543D01*
X0141354Y0026591D02*
X0147260Y0026591D01*
D18*
X0148244Y0048244D02*
X0169898Y0048244D01*
X0169898Y0133874D02*
X0148244Y0133874D01*
X0148244Y0219504D02*
X0169898Y0219504D01*
X0169898Y0305134D02*
X0148244Y0305134D01*
D19*
X0081315Y0302181D03*
X0081315Y0216551D03*
X0081315Y0130921D03*
X0081315Y0045291D03*
M02*
