G75*
%MOIN*%
%OFA0B0*%
%FSLAX25Y25*%
%IPPOS*%
%LPD*%
%AMOC8*
5,1,8,0,0,1.08239X$1,22.5*
%
%ADD10C,0.08674*%
%ADD11R,0.06706X0.05918*%
%ADD12C,0.06800*%
%ADD13OC8,0.06000*%
%ADD14R,0.04737X0.06312*%
%ADD15R,0.05524X0.12611*%
%ADD16R,0.12611X0.05524*%
%ADD17C,0.06737*%
%ADD18C,0.07850*%
%ADD19R,0.10643X0.10643*%
%ADD20C,0.12611*%
%ADD21R,0.07100X0.05400*%
%ADD22R,0.07200X0.00600*%
%ADD23C,0.03778*%
D10*
X0011433Y0011433D03*
X0011433Y0085252D03*
X0011433Y0183677D03*
X0011433Y0257496D03*
X0253559Y0257496D03*
X0253559Y0183677D03*
X0253559Y0170882D03*
X0253559Y0085252D03*
X0253559Y0011433D03*
X0252575Y0344110D03*
D11*
X0143323Y0236630D03*
X0143323Y0229150D03*
X0143323Y0064386D03*
X0143323Y0056906D03*
D12*
X0138559Y0076346D02*
X0138559Y0082346D01*
X0128559Y0082346D02*
X0128559Y0076346D01*
X0118559Y0076346D02*
X0118559Y0082346D01*
X0108559Y0082346D02*
X0108559Y0076346D01*
X0148559Y0076346D02*
X0148559Y0082346D01*
X0061709Y0083331D02*
X0061709Y0077331D01*
X0051709Y0077331D02*
X0051709Y0083331D01*
X0051709Y0249575D02*
X0051709Y0255575D01*
X0061709Y0255575D02*
X0061709Y0249575D01*
X0108559Y0248591D02*
X0108559Y0254591D01*
X0118559Y0254591D02*
X0118559Y0248591D01*
X0128559Y0248591D02*
X0128559Y0254591D01*
X0138559Y0254591D02*
X0138559Y0248591D01*
X0148559Y0248591D02*
X0148559Y0254591D01*
D13*
X0134780Y0241748D03*
X0134780Y0231413D03*
X0134780Y0222063D03*
X0094780Y0222063D03*
X0087535Y0222063D03*
X0087535Y0231906D03*
X0094780Y0231413D03*
X0094780Y0241748D03*
X0087535Y0241748D03*
X0047535Y0241748D03*
X0047535Y0231906D03*
X0047535Y0222063D03*
X0047535Y0069504D03*
X0047535Y0059661D03*
X0047535Y0049819D03*
X0087535Y0049819D03*
X0094780Y0049819D03*
X0094780Y0059169D03*
X0087535Y0059661D03*
X0087535Y0069504D03*
X0094780Y0069504D03*
X0134780Y0069504D03*
X0134780Y0059169D03*
X0134780Y0049819D03*
D14*
X0137614Y0041354D03*
X0145094Y0041354D03*
X0141354Y0032693D03*
X0141354Y0023638D03*
X0137614Y0014976D03*
X0145094Y0014976D03*
X0145094Y0187220D03*
X0137614Y0187220D03*
X0141354Y0195882D03*
X0141354Y0204937D03*
X0137614Y0213598D03*
X0145094Y0213598D03*
D15*
X0166157Y0188205D03*
X0174031Y0188205D03*
X0181906Y0188205D03*
X0189780Y0188205D03*
X0197654Y0188205D03*
X0205528Y0188205D03*
X0213402Y0188205D03*
X0221276Y0188205D03*
X0221276Y0252772D03*
X0213402Y0252772D03*
X0205528Y0252772D03*
X0197654Y0252772D03*
X0189780Y0252772D03*
X0181906Y0252772D03*
X0174031Y0252772D03*
X0166157Y0252772D03*
X0166157Y0080528D03*
X0174031Y0080528D03*
X0181906Y0080528D03*
X0189780Y0080528D03*
X0197654Y0080528D03*
X0205528Y0080528D03*
X0213402Y0080528D03*
X0221276Y0080528D03*
X0221276Y0015961D03*
X0213402Y0015961D03*
X0205528Y0015961D03*
X0197654Y0015961D03*
X0189780Y0015961D03*
X0181906Y0015961D03*
X0174031Y0015961D03*
X0166157Y0015961D03*
D16*
X0157890Y0027378D03*
X0157890Y0035252D03*
X0157890Y0043126D03*
X0157890Y0051000D03*
X0157890Y0058874D03*
X0157890Y0066748D03*
X0157890Y0199622D03*
X0157890Y0207496D03*
X0157890Y0215370D03*
X0157890Y0223244D03*
X0157890Y0231118D03*
X0157890Y0238992D03*
D17*
X0095094Y0251591D03*
X0085252Y0251591D03*
X0075409Y0251591D03*
X0075409Y0079346D03*
X0085252Y0079346D03*
X0095094Y0079346D03*
D18*
X0101984Y0027596D02*
X0101984Y0020546D01*
X0121669Y0020546D02*
X0121669Y0027596D01*
X0082299Y0027596D02*
X0082299Y0020546D01*
X0062614Y0020546D02*
X0062614Y0027596D01*
X0042929Y0027596D02*
X0042929Y0020546D01*
X0023244Y0020546D02*
X0023244Y0027596D01*
X0021609Y0055724D02*
X0028659Y0055724D01*
X0028659Y0075409D02*
X0021609Y0075409D01*
X0023244Y0192790D02*
X0023244Y0199840D01*
X0042929Y0199840D02*
X0042929Y0192790D01*
X0062614Y0192790D02*
X0062614Y0199840D01*
X0082299Y0199840D02*
X0082299Y0192790D01*
X0101984Y0192790D02*
X0101984Y0199840D01*
X0121669Y0199840D02*
X0121669Y0192790D01*
X0028659Y0227969D02*
X0021609Y0227969D01*
X0021609Y0247654D02*
X0028659Y0247654D01*
D19*
X0016110Y0272709D03*
X0016110Y0340709D03*
X0016110Y0168465D03*
X0016110Y0100465D03*
X0172110Y0100465D03*
X0172110Y0168465D03*
X0172110Y0272709D03*
X0172110Y0340709D03*
D20*
X0154110Y0276709D03*
X0037110Y0336709D03*
X0037110Y0164465D03*
X0154110Y0104465D03*
D21*
X0039976Y0094157D03*
X0039976Y0088157D03*
X0039976Y0260402D03*
X0039976Y0266402D03*
D22*
X0039976Y0263402D03*
X0039976Y0091157D03*
D23*
X0038992Y0076394D03*
X0044898Y0076394D03*
X0056709Y0068520D03*
X0076394Y0070488D03*
X0077378Y0059661D03*
X0091157Y0054740D03*
X0087220Y0041945D03*
X0092142Y0027181D03*
X0094110Y0021276D03*
X0086236Y0011433D03*
X0077378Y0011433D03*
X0071472Y0034071D03*
X0051787Y0040961D03*
X0052772Y0023244D03*
X0034071Y0028165D03*
X0021276Y0012417D03*
X0013402Y0022260D03*
X0020291Y0044898D03*
X0024228Y0067535D03*
X0011433Y0075409D03*
X0027181Y0143323D03*
X0021276Y0184661D03*
X0013402Y0194504D03*
X0034071Y0200409D03*
X0020291Y0217142D03*
X0024228Y0239780D03*
X0011433Y0247654D03*
X0038992Y0248638D03*
X0044898Y0248638D03*
X0056709Y0240764D03*
X0076394Y0242732D03*
X0077378Y0231906D03*
X0091157Y0226984D03*
X0087220Y0214189D03*
X0092142Y0199425D03*
X0094110Y0193520D03*
X0086236Y0183677D03*
X0077378Y0183677D03*
X0071472Y0206315D03*
X0051787Y0213205D03*
X0052772Y0195488D03*
X0107890Y0189583D03*
X0110843Y0201394D03*
X0107890Y0214189D03*
X0109270Y0217869D03*
X0106906Y0226000D03*
X0106906Y0231906D03*
X0123638Y0245685D03*
X0124622Y0238795D03*
X0128559Y0234858D03*
X0148244Y0223047D03*
X0147260Y0203362D03*
X0155134Y0192535D03*
X0171866Y0200409D03*
X0181709Y0220094D03*
X0175803Y0232890D03*
X0169898Y0223047D03*
X0189780Y0242459D03*
X0200409Y0239780D03*
X0205331Y0243717D03*
X0213205Y0237811D03*
X0220094Y0226492D03*
X0213205Y0223047D03*
X0213205Y0214462D03*
X0220094Y0217142D03*
X0207299Y0204346D03*
X0205331Y0198441D03*
X0197457Y0198441D03*
X0195488Y0209268D03*
X0197457Y0222063D03*
X0161039Y0251591D03*
X0157102Y0254543D03*
X0157102Y0246669D03*
X0131512Y0206315D03*
X0135449Y0203362D03*
X0131586Y0197530D03*
X0128559Y0194504D03*
X0133480Y0183677D03*
X0113795Y0257496D03*
X0027181Y0315567D03*
X0113795Y0085252D03*
X0123638Y0073441D03*
X0124622Y0066551D03*
X0128559Y0062614D03*
X0148244Y0050803D03*
X0131512Y0034071D03*
X0135449Y0031118D03*
X0131586Y0025286D03*
X0128559Y0022260D03*
X0133480Y0011433D03*
X0147260Y0031118D03*
X0155134Y0020291D03*
X0171866Y0028165D03*
X0181709Y0047850D03*
X0175803Y0060646D03*
X0169898Y0050803D03*
X0157102Y0074425D03*
X0161039Y0079346D03*
X0157102Y0082299D03*
X0189780Y0070215D03*
X0200409Y0067535D03*
X0205331Y0071472D03*
X0213205Y0065567D03*
X0220094Y0054248D03*
X0213205Y0050803D03*
X0220094Y0044898D03*
X0213205Y0042218D03*
X0207299Y0032102D03*
X0205331Y0026197D03*
X0197457Y0026197D03*
X0195488Y0037024D03*
X0197457Y0049819D03*
X0109270Y0045625D03*
X0107890Y0041945D03*
X0106906Y0053756D03*
X0106906Y0059661D03*
X0110843Y0029150D03*
X0107890Y0017339D03*
M02*
