M48
;GenerationSoftware,Autodesk,EAGLE,9.5.2*%
;CreationDate,2020-03-09T22:15:12Z*%
FMAT,2
ICI,OFF
METRIC,TZ,000.000
T8C0.350
T7C0.813
T6C1.000
T5C1.016
T4C1.194
T3C1.500
T2C2.000
T1C3.000
%
G90
M71
T1
X8272Y40370
X37990Y25130
X8272Y84120
X37990Y68880
T2
X1750Y20250
X63250Y20250
X63250Y1500
X1750Y1500
X1750Y64000
X63250Y64000
X63250Y45250
X1750Y45250
X63250Y42000
X63000Y86000
T3
X42562Y85136
X42562Y67864
X2938Y67864
X2938Y85136
X42562Y41386
X42562Y24114
X2938Y24114
X2938Y41386
T4
X24750Y4710
X5230Y56500
X5230Y61500
X29750Y48460
X24750Y48460
X19750Y48460
X14750Y48460
X9750Y48460
X4750Y48460
X4750Y4710
X9750Y4710
X14750Y4710
X19750Y4710
X29750Y4710
X5230Y17750
X5230Y12750
T5
X11980Y62750
X14520Y62750
X26420Y62500
X11980Y19000
X28960Y62500
X31500Y62500
X34040Y62500
X36580Y62500
X14520Y19000
X26420Y18750
X28960Y18750
X31500Y18750
X34040Y18750
X36580Y18750
T6
X20500Y62500
X18000Y18750
X20500Y18750
X23000Y62500
X18000Y62500
X23000Y18750
T7
X22920Y16250
X33080Y16250
X10920Y13750
X21080Y13750
X21080Y16250
X10920Y16250
X33080Y11250
X22920Y11250
X22920Y13625
X33080Y13625
X10920Y11250
X21080Y11250
X10920Y55000
X21080Y55000
X22920Y55000
X33080Y55000
X10920Y60000
X21080Y60000
X21080Y57500
X10920Y57500
X33080Y60000
X22920Y60000
X33080Y57375
X22920Y57375
T8
X26000Y57500
X13250Y59750
X26000Y56000
X21000Y53000
X18250Y60250
X32250Y51000
X31500Y58250
X1750Y61500
X30250Y61000
X31500Y48000
X22000Y56250
X20750Y45250
X18500Y45250
X7500Y49500
X12250Y48250
X27750Y64000
X36500Y55250
X42000Y55250
X54750Y12375
X30500Y59250
X39750Y62500
X26601Y53935
X54750Y53750
X26250Y53000
X53000Y53069
X47050Y60181
X45000Y54500
X51000Y49000
X32750Y45250
X49000Y49000
X18500Y57500
X32269Y48769
X43500Y57750
X53000Y59000
X49750Y59500
X5750Y78750
X38750Y63250
X38750Y61250
X49000Y55000
X53000Y55250
X51500Y50500
X48500Y51750
X42500Y49500
X38250Y47500
X26250Y46750
X27000Y49750
X22750Y47750
X22250Y49250
X17000Y51000
X12000Y52750
X5000Y59500
X4000Y53750
X4250Y45500
X2250Y48000
X8750Y61750
X10250Y61750
X33250Y50250
X36250Y50250
X54750Y56125
X5750Y35000
X49750Y15750
X53000Y15250
X43500Y14000
X32269Y5019
X18500Y13750
X49000Y5250
X32750Y1500
X51000Y5250
X45000Y10750
X47050Y16431
X53000Y9319
X26250Y9250
X54750Y10000
X26601Y10185
X39750Y18750
X30500Y15500
X51000Y16750
X42000Y11500
X36500Y11500
X27750Y20250
X12250Y4500
X7500Y5750
X18500Y1500
X20750Y1500
X22000Y12500
X31500Y4250
X30250Y17250
X1750Y17750
X31500Y14500
X32250Y7250
X18250Y16500
X21000Y9250
X26000Y12250
X13250Y16000
X26000Y13750
X38750Y19500
X38750Y17500
X49000Y11250
X53000Y11500
X51500Y6750
X48500Y8000
X42500Y5750
X38250Y3750
X26250Y3000
X27000Y6000
X22750Y4000
X22250Y5500
X17000Y7250
X12000Y9000
X5000Y15750
X4000Y10000
X4250Y1750
X2250Y4250
X8750Y18000
X10250Y18000
X33250Y6500
X36250Y6500
X51000Y60500
M30