G75*
%MOIN*%
%OFA0B0*%
%FSLAX25Y25*%
%IPPOS*%
%LPD*%
%AMOC8*
5,1,8,0,0,1.08239X$1,22.5*
%
%ADD10C,0.08674*%
%ADD11C,0.07850*%
%ADD12R,0.06706X0.05918*%
%ADD13C,0.06800*%
%ADD14OC8,0.06000*%
%ADD15R,0.04737X0.06312*%
%ADD16R,0.05524X0.12611*%
%ADD17R,0.12611X0.05524*%
%ADD18C,0.06737*%
%ADD19C,0.03778*%
%ADD20OC8,0.04737*%
D10*
X0011433Y0006906D03*
X0011433Y0080724D03*
X0011433Y0092535D03*
X0011433Y0166354D03*
X0011433Y0178165D03*
X0011433Y0251984D03*
X0011433Y0263795D03*
X0011433Y0337614D03*
X0253559Y0337614D03*
X0253559Y0263795D03*
X0253559Y0251984D03*
X0253559Y0178165D03*
X0253559Y0166354D03*
X0253559Y0092535D03*
X0253559Y0080724D03*
X0253559Y0006906D03*
D11*
X0121669Y0016018D02*
X0121669Y0023068D01*
X0101984Y0023068D02*
X0101984Y0016018D01*
X0082299Y0016018D02*
X0082299Y0023068D01*
X0062614Y0023068D02*
X0062614Y0016018D01*
X0042929Y0016018D02*
X0042929Y0023068D01*
X0023244Y0023068D02*
X0023244Y0016018D01*
X0025706Y0053165D02*
X0018656Y0053165D01*
X0018656Y0072850D02*
X0025706Y0072850D01*
X0023244Y0101648D02*
X0023244Y0108698D01*
X0042929Y0108698D02*
X0042929Y0101648D01*
X0062614Y0101648D02*
X0062614Y0108698D01*
X0082299Y0108698D02*
X0082299Y0101648D01*
X0101984Y0101648D02*
X0101984Y0108698D01*
X0121669Y0108698D02*
X0121669Y0101648D01*
X0121669Y0187278D02*
X0121669Y0194328D01*
X0101984Y0194328D02*
X0101984Y0187278D01*
X0082299Y0187278D02*
X0082299Y0194328D01*
X0062614Y0194328D02*
X0062614Y0187278D01*
X0042929Y0187278D02*
X0042929Y0194328D01*
X0023244Y0194328D02*
X0023244Y0187278D01*
X0025706Y0158480D02*
X0018656Y0158480D01*
X0018656Y0138795D02*
X0025706Y0138795D01*
X0025706Y0224425D02*
X0018656Y0224425D01*
X0018656Y0244110D02*
X0025706Y0244110D01*
X0023244Y0272908D02*
X0023244Y0279958D01*
X0042929Y0279958D02*
X0042929Y0272908D01*
X0062614Y0272908D02*
X0062614Y0279958D01*
X0082299Y0279958D02*
X0082299Y0272908D01*
X0101984Y0272908D02*
X0101984Y0279958D01*
X0121669Y0279958D02*
X0121669Y0272908D01*
X0025706Y0310055D02*
X0018656Y0310055D01*
X0018656Y0329740D02*
X0025706Y0329740D01*
D12*
X0143323Y0316748D03*
X0143323Y0309268D03*
X0143323Y0231118D03*
X0143323Y0223638D03*
X0143323Y0145488D03*
X0143323Y0138008D03*
X0143323Y0059858D03*
X0143323Y0052378D03*
D13*
X0138559Y0072803D02*
X0138559Y0078803D01*
X0128559Y0078803D02*
X0128559Y0072803D01*
X0118559Y0072803D02*
X0118559Y0078803D01*
X0108559Y0078803D02*
X0108559Y0072803D01*
X0148559Y0072803D02*
X0148559Y0078803D01*
X0148559Y0158433D02*
X0148559Y0164433D01*
X0138559Y0164433D02*
X0138559Y0158433D01*
X0128559Y0158433D02*
X0128559Y0164433D01*
X0118559Y0164433D02*
X0118559Y0158433D01*
X0108559Y0158433D02*
X0108559Y0164433D01*
X0063677Y0164433D02*
X0063677Y0158433D01*
X0053677Y0158433D02*
X0053677Y0164433D01*
X0053677Y0244063D02*
X0053677Y0250063D01*
X0063677Y0250063D02*
X0063677Y0244063D01*
X0108559Y0244063D02*
X0108559Y0250063D01*
X0118559Y0250063D02*
X0118559Y0244063D01*
X0128559Y0244063D02*
X0128559Y0250063D01*
X0138559Y0250063D02*
X0138559Y0244063D01*
X0148559Y0244063D02*
X0148559Y0250063D01*
X0148559Y0329693D02*
X0148559Y0335693D01*
X0138559Y0335693D02*
X0138559Y0329693D01*
X0128559Y0329693D02*
X0128559Y0335693D01*
X0118559Y0335693D02*
X0118559Y0329693D01*
X0108559Y0329693D02*
X0108559Y0335693D01*
X0063677Y0335693D02*
X0063677Y0329693D01*
X0053677Y0329693D02*
X0053677Y0335693D01*
X0053677Y0078803D02*
X0053677Y0072803D01*
X0063677Y0072803D02*
X0063677Y0078803D01*
D14*
X0047535Y0064976D03*
X0047535Y0055134D03*
X0047535Y0045291D03*
X0087535Y0045291D03*
X0087535Y0055134D03*
X0094780Y0054642D03*
X0094780Y0045291D03*
X0094780Y0064976D03*
X0087535Y0064976D03*
X0134780Y0064976D03*
X0134780Y0054642D03*
X0134780Y0045291D03*
X0134780Y0130921D03*
X0134780Y0140272D03*
X0134780Y0150606D03*
X0094780Y0150606D03*
X0087535Y0150606D03*
X0087535Y0140764D03*
X0094780Y0140272D03*
X0094780Y0130921D03*
X0087535Y0130921D03*
X0047535Y0130921D03*
X0047535Y0140764D03*
X0047535Y0150606D03*
X0047535Y0216551D03*
X0047535Y0226394D03*
X0047535Y0236236D03*
X0087535Y0236236D03*
X0094780Y0236236D03*
X0094780Y0225902D03*
X0087535Y0226394D03*
X0087535Y0216551D03*
X0094780Y0216551D03*
X0134780Y0216551D03*
X0134780Y0225902D03*
X0134780Y0236236D03*
X0134780Y0302181D03*
X0134780Y0311531D03*
X0134780Y0321866D03*
X0094780Y0321866D03*
X0087535Y0321866D03*
X0087535Y0312024D03*
X0094780Y0311531D03*
X0094780Y0302181D03*
X0087535Y0302181D03*
X0047535Y0302181D03*
X0047535Y0312024D03*
X0047535Y0321866D03*
D15*
X0137614Y0293717D03*
X0141354Y0285055D03*
X0145094Y0293717D03*
X0141354Y0276000D03*
X0137614Y0267339D03*
X0145094Y0267339D03*
X0145094Y0208087D03*
X0141354Y0199425D03*
X0137614Y0208087D03*
X0141354Y0190370D03*
X0137614Y0181709D03*
X0145094Y0181709D03*
X0145094Y0122457D03*
X0137614Y0122457D03*
X0141354Y0113795D03*
X0141354Y0104740D03*
X0137614Y0096079D03*
X0145094Y0096079D03*
X0145094Y0036827D03*
X0141354Y0028165D03*
X0137614Y0036827D03*
X0141354Y0019110D03*
X0137614Y0010449D03*
X0145094Y0010449D03*
D16*
X0166157Y0011433D03*
X0174031Y0011433D03*
X0181906Y0011433D03*
X0189780Y0011433D03*
X0197654Y0011433D03*
X0205528Y0011433D03*
X0213402Y0011433D03*
X0221276Y0011433D03*
X0221276Y0076000D03*
X0213402Y0076000D03*
X0205528Y0076000D03*
X0197654Y0076000D03*
X0189780Y0076000D03*
X0181906Y0076000D03*
X0174031Y0076000D03*
X0166157Y0076000D03*
X0166157Y0097063D03*
X0174031Y0097063D03*
X0181906Y0097063D03*
X0189780Y0097063D03*
X0197654Y0097063D03*
X0205528Y0097063D03*
X0213402Y0097063D03*
X0221276Y0097063D03*
X0221276Y0161630D03*
X0213402Y0161630D03*
X0205528Y0161630D03*
X0197654Y0161630D03*
X0189780Y0161630D03*
X0181906Y0161630D03*
X0174031Y0161630D03*
X0166157Y0161630D03*
X0166157Y0182693D03*
X0174031Y0182693D03*
X0181906Y0182693D03*
X0189780Y0182693D03*
X0197654Y0182693D03*
X0205528Y0182693D03*
X0213402Y0182693D03*
X0221276Y0182693D03*
X0221276Y0247260D03*
X0213402Y0247260D03*
X0205528Y0247260D03*
X0197654Y0247260D03*
X0189780Y0247260D03*
X0181906Y0247260D03*
X0174031Y0247260D03*
X0166157Y0247260D03*
X0166157Y0268323D03*
X0174031Y0268323D03*
X0181906Y0268323D03*
X0189780Y0268323D03*
X0197654Y0268323D03*
X0205528Y0268323D03*
X0213402Y0268323D03*
X0221276Y0268323D03*
X0221276Y0332890D03*
X0213402Y0332890D03*
X0205528Y0332890D03*
X0197654Y0332890D03*
X0189780Y0332890D03*
X0181906Y0332890D03*
X0174031Y0332890D03*
X0166157Y0332890D03*
D17*
X0157890Y0319110D03*
X0157890Y0311236D03*
X0157890Y0303362D03*
X0157890Y0295488D03*
X0157890Y0287614D03*
X0157890Y0279740D03*
X0157890Y0233480D03*
X0157890Y0225606D03*
X0157890Y0217732D03*
X0157890Y0209858D03*
X0157890Y0201984D03*
X0157890Y0194110D03*
X0157890Y0147850D03*
X0157890Y0139976D03*
X0157890Y0132102D03*
X0157890Y0124228D03*
X0157890Y0116354D03*
X0157890Y0108480D03*
X0157890Y0062220D03*
X0157890Y0054346D03*
X0157890Y0046472D03*
X0157890Y0038598D03*
X0157890Y0030724D03*
X0157890Y0022850D03*
D18*
X0095094Y0074819D03*
X0085252Y0074819D03*
X0075409Y0074819D03*
X0075409Y0160449D03*
X0085252Y0160449D03*
X0095094Y0160449D03*
X0095094Y0246079D03*
X0085252Y0246079D03*
X0075409Y0246079D03*
X0075409Y0331709D03*
X0085252Y0331709D03*
X0095094Y0331709D03*
D19*
X0100016Y0326787D03*
X0106906Y0312024D03*
X0106906Y0306118D03*
X0109270Y0297987D03*
X0107890Y0294307D03*
X0110843Y0281512D03*
X0107890Y0269701D03*
X0094110Y0273638D03*
X0092142Y0279543D03*
X0087220Y0294307D03*
X0091157Y0307102D03*
X0077378Y0312024D03*
X0076394Y0322850D03*
X0056709Y0320882D03*
X0038008Y0330724D03*
X0024228Y0319898D03*
X0011433Y0327772D03*
X0020291Y0297260D03*
X0034071Y0293323D03*
X0051787Y0293323D03*
X0071472Y0286433D03*
X0038008Y0245094D03*
X0024228Y0234268D03*
X0011433Y0242142D03*
X0021276Y0264780D03*
X0013402Y0274622D03*
X0056709Y0235252D03*
X0076394Y0237220D03*
X0077378Y0226394D03*
X0091157Y0221472D03*
X0087220Y0208677D03*
X0092142Y0193913D03*
X0094110Y0188008D03*
X0107890Y0184071D03*
X0110843Y0195882D03*
X0107890Y0208677D03*
X0109270Y0212357D03*
X0106906Y0220488D03*
X0106906Y0226394D03*
X0100016Y0241157D03*
X0123638Y0240173D03*
X0124622Y0233283D03*
X0128559Y0229346D03*
X0148244Y0219504D03*
X0157102Y0241157D03*
X0158087Y0250016D03*
X0167929Y0237220D03*
X0169898Y0219504D03*
X0181709Y0216551D03*
X0196472Y0219504D03*
X0189780Y0234979D03*
X0205331Y0238205D03*
X0213205Y0232299D03*
X0220094Y0225902D03*
X0212220Y0220488D03*
X0213205Y0208950D03*
X0220094Y0211630D03*
X0207299Y0198835D03*
X0205331Y0192929D03*
X0197457Y0192929D03*
X0195488Y0203756D03*
X0171866Y0194898D03*
X0155134Y0187024D03*
X0147260Y0197850D03*
X0135449Y0197850D03*
X0131512Y0200803D03*
X0131586Y0192019D03*
X0128559Y0188992D03*
X0133480Y0178165D03*
X0123638Y0154543D03*
X0124622Y0147654D03*
X0128559Y0143717D03*
X0109270Y0126727D03*
X0107890Y0123047D03*
X0106906Y0134858D03*
X0106906Y0140764D03*
X0100016Y0155528D03*
X0091157Y0135843D03*
X0087220Y0123047D03*
X0092142Y0108283D03*
X0094110Y0102378D03*
X0107890Y0098441D03*
X0110843Y0110252D03*
X0128559Y0103362D03*
X0131586Y0106389D03*
X0135449Y0112220D03*
X0131512Y0115173D03*
X0147260Y0112220D03*
X0155134Y0101394D03*
X0171866Y0109268D03*
X0181709Y0130921D03*
X0169898Y0133874D03*
X0167929Y0151591D03*
X0157102Y0155528D03*
X0158087Y0164386D03*
X0148244Y0133874D03*
X0133480Y0092535D03*
X0123638Y0068913D03*
X0124622Y0062024D03*
X0128559Y0058087D03*
X0109270Y0041097D03*
X0107890Y0037417D03*
X0110843Y0024622D03*
X0107890Y0012811D03*
X0094110Y0016748D03*
X0092142Y0022654D03*
X0087220Y0037417D03*
X0091157Y0050213D03*
X0077378Y0055134D03*
X0076394Y0065961D03*
X0056709Y0063992D03*
X0038008Y0073835D03*
X0024228Y0063008D03*
X0011433Y0070882D03*
X0021276Y0093520D03*
X0013402Y0103362D03*
X0020291Y0126000D03*
X0034071Y0122063D03*
X0051787Y0122063D03*
X0071472Y0115173D03*
X0077378Y0140764D03*
X0076394Y0151591D03*
X0056709Y0149622D03*
X0038008Y0159465D03*
X0024228Y0148638D03*
X0011433Y0156512D03*
X0021276Y0179150D03*
X0013402Y0188992D03*
X0020291Y0211630D03*
X0034071Y0207693D03*
X0051787Y0207693D03*
X0071472Y0200803D03*
X0128559Y0274622D03*
X0131586Y0277649D03*
X0135449Y0283480D03*
X0131512Y0286433D03*
X0147260Y0283480D03*
X0155134Y0272654D03*
X0171866Y0280528D03*
X0181709Y0302181D03*
X0169898Y0305134D03*
X0167929Y0322850D03*
X0157102Y0326787D03*
X0158087Y0335646D03*
X0148244Y0305134D03*
X0128559Y0314976D03*
X0124622Y0318913D03*
X0123638Y0325803D03*
X0133480Y0263795D03*
X0189780Y0320609D03*
X0196472Y0305134D03*
X0195488Y0289386D03*
X0197457Y0278559D03*
X0205331Y0278559D03*
X0207299Y0284465D03*
X0213205Y0294580D03*
X0220094Y0297260D03*
X0212220Y0306118D03*
X0220094Y0311531D03*
X0213205Y0317929D03*
X0205331Y0323835D03*
X0205331Y0152575D03*
X0213205Y0146669D03*
X0220094Y0140272D03*
X0212220Y0134858D03*
X0213205Y0123320D03*
X0220094Y0126000D03*
X0207299Y0113205D03*
X0205331Y0107299D03*
X0197457Y0107299D03*
X0195488Y0118126D03*
X0196472Y0133874D03*
X0189780Y0149349D03*
X0158087Y0078756D03*
X0157102Y0069898D03*
X0167929Y0065961D03*
X0169898Y0048244D03*
X0181709Y0045291D03*
X0196472Y0048244D03*
X0195488Y0032496D03*
X0197457Y0021669D03*
X0205331Y0021669D03*
X0207299Y0027575D03*
X0213205Y0037691D03*
X0220094Y0040370D03*
X0212220Y0049228D03*
X0220094Y0054642D03*
X0213205Y0061039D03*
X0205331Y0066945D03*
X0189780Y0063719D03*
X0171866Y0023638D03*
X0155134Y0015764D03*
X0147260Y0026591D03*
X0135449Y0026591D03*
X0131512Y0029543D03*
X0131586Y0020759D03*
X0128559Y0017732D03*
X0133480Y0006906D03*
X0148244Y0048244D03*
X0106906Y0049228D03*
X0106906Y0055134D03*
X0100016Y0069898D03*
X0071472Y0029543D03*
X0051787Y0036433D03*
X0034071Y0036433D03*
X0020291Y0040370D03*
X0013402Y0017732D03*
X0021276Y0007890D03*
D20*
X0081315Y0045291D03*
X0081315Y0130921D03*
X0081315Y0216551D03*
X0081315Y0302181D03*
M02*
