%
M48
M72
T01C0.01378
T02C0.03200
T03C0.03937
T04C0.04000
T05C0.04700
T06C0.07874
%
T01
X13402Y17732
X21276Y7890
X34071Y36433
X20291Y40370
X24228Y63008
X11433Y70882
X21276Y93520
X13402Y103362
X20291Y126000
X34071Y122063
X51787Y122063
X71472Y115173
X81315Y130921
X87220Y123047
X91157Y135843
X77378Y140764
X76394Y151591
X56709Y149622
X38008Y159465
X24228Y148638
X11433Y156512
X21276Y179150
X13402Y188992
X20291Y211630
X34071Y207693
X51787Y207693
X71472Y200803
X81315Y216551
X87220Y208677
X91157Y221472
X77378Y226394
X76394Y237220
X56709Y235252
X38008Y245094
X24228Y234268
X11433Y242142
X21276Y264780
X13402Y274622
X20291Y297260
X34071Y293323
X51787Y293323
X71472Y286433
X81315Y302181
X87220Y294307
X91157Y307102
X77378Y312024
X76394Y322850
X56709Y320882
X38008Y330724
X24228Y319898
X11433Y327772
X92142Y279543
X94110Y273638
X107890Y269701
X110843Y281512
X107890Y294307
X109270Y297987
X106906Y306118
X106906Y312024
X100016Y326787
X123638Y325803
X124622Y318913
X128559Y314976
X148244Y305134
X147260Y283480
X155134Y272654
X171866Y280528
X181709Y302181
X169898Y305134
X167929Y322850
X157102Y326787
X158087Y335646
X189780Y320609
X196472Y305134
X195488Y289386
X197457Y278559
X205331Y278559
X207299Y284465
X213205Y294580
X220094Y297260
X212220Y306118
X220094Y311531
X213205Y317929
X205331Y323835
X158087Y250016
X157102Y241157
X167929Y237220
X169898Y219504
X181709Y216551
X196472Y219504
X189780Y234979
X205331Y238205
X213205Y232299
X220094Y225902
X212220Y220488
X213205Y208950
X220094Y211630
X207299Y198835
X205331Y192929
X197457Y192929
X195488Y203756
X171866Y194898
X155134Y187024
X147260Y197850
X135449Y197850
X131512Y200803
X131586Y192019
X128559Y188992
X133480Y178165
X123638Y154543
X124622Y147654
X128559Y143717
X109270Y126727
X107890Y123047
X106906Y134858
X106906Y140764
X100016Y155528
X107890Y184071
X110843Y195882
X107890Y208677
X109270Y212357
X106906Y220488
X106906Y226394
X100016Y241157
X123638Y240173
X124622Y233283
X128559Y229346
X148244Y219504
X133480Y263795
X128559Y274622
X131586Y277649
X135449Y283480
X131512Y286433
X92142Y193913
X94110Y188008
X148244Y133874
X147260Y112220
X155134Y101394
X171866Y109268
X181709Y130921
X169898Y133874
X167929Y151591
X157102Y155528
X158087Y164386
X189780Y149349
X196472Y133874
X195488Y118126
X197457Y107299
X205331Y107299
X207299Y113205
X213205Y123320
X220094Y126000
X212220Y134858
X220094Y140272
X213205Y146669
X205331Y152575
X158087Y78756
X157102Y69898
X167929Y65961
X169898Y48244
X181709Y45291
X196472Y48244
X195488Y32496
X197457Y21669
X205331Y21669
X207299Y27575
X213205Y37691
X220094Y40370
X212220Y49228
X220094Y54642
X213205Y61039
X205331Y66945
X189780Y63719
X171866Y23638
X155134Y15764
X147260Y26591
X135449Y26591
X131512Y29543
X131586Y20759
X128559Y17732
X133480Y6906
X110843Y24622
X107890Y37417
X109270Y41097
X106906Y49228
X106906Y55134
X100016Y69898
X91157Y50213
X81315Y45291
X77378Y55134
X76394Y65961
X56709Y63992
X38008Y73835
X51787Y36433
X71472Y29543
X87220Y37417
X92142Y22654
X94110Y16748
X107890Y12811
X128559Y58087
X124622Y62024
X123638Y68913
X133480Y92535
X128559Y103362
X131586Y106389
X135449Y112220
X131512Y115173
X110843Y110252
X107890Y98441
X94110Y102378
X92142Y108283
X148244Y48244
T02
X134780Y45291
X134780Y54642
X134780Y64976
X94780Y64976
X87535Y64976
X87535Y55134
X87535Y45291
X94780Y45291
X94780Y54642
X47535Y55134
X47535Y45291
X47535Y64976
X47535Y130921
X47535Y140764
X47535Y150606
X87535Y150606
X94780Y150606
X94780Y140272
X87535Y140764
X87535Y130921
X94780Y130921
X134780Y130921
X134780Y140272
X134780Y150606
X134780Y216551
X134780Y225902
X134780Y236236
X94780Y236236
X87535Y236236
X87535Y226394
X94780Y225902
X94780Y216551
X87535Y216551
X47535Y216551
X47535Y226394
X47535Y236236
X47535Y302181
X47535Y312024
X47535Y321866
X87535Y321866
X94780Y321866
X94780Y311531
X87535Y312024
X87535Y302181
X94780Y302181
X134780Y302181
X134780Y311531
X134780Y321866
T03
X95094Y331709
X85252Y331709
X75409Y331709
X75409Y246079
X85252Y246079
X95094Y246079
X95094Y160449
X85252Y160449
X75409Y160449
X75409Y74819
X85252Y74819
X95094Y74819
T04
X108559Y75803
X118559Y75803
X128559Y75803
X138559Y75803
X148559Y75803
X148559Y161433
X138559Y161433
X128559Y161433
X118559Y161433
X108559Y161433
X63677Y161433
X53677Y161433
X53677Y75803
X63677Y75803
X63677Y247063
X53677Y247063
X108559Y247063
X118559Y247063
X128559Y247063
X138559Y247063
X148559Y247063
X148559Y332693
X138559Y332693
X128559Y332693
X118559Y332693
X108559Y332693
X63677Y332693
X53677Y332693
T05
X22181Y329740
X22181Y310055
X23244Y276433
X42929Y276433
X62614Y276433
X82299Y276433
X101984Y276433
X121669Y276433
X121669Y190803
X101984Y190803
X82299Y190803
X62614Y190803
X42929Y190803
X23244Y190803
X22181Y158480
X22181Y138795
X23244Y105173
X42929Y105173
X62614Y105173
X82299Y105173
X101984Y105173
X121669Y105173
X121669Y19543
X101984Y19543
X82299Y19543
X62614Y19543
X42929Y19543
X23244Y19543
X22181Y53165
X22181Y72850
X22181Y224425
X22181Y244110
T06
X11433Y6906
X11433Y80724
X11433Y92535
X11433Y166354
X11433Y178165
X11433Y251984
X11433Y263795
X11433Y337614
X253559Y337614
X253559Y263795
X253559Y251984
X253559Y178165
X253559Y166354
X253559Y92535
X253559Y80724
X253559Y6906
M30
