%
M48
M72
T01C0.01378
T02C0.03200
T03C0.03937
T04C0.04000
T05C0.04700
T06C0.07874
%
T01
X13402Y21276
X21276Y11433
X34071Y39976
X20291Y43913
X24228Y66551
X11433Y74425
X21276Y101984
X13402Y111827
X20291Y134465
X34071Y130528
X51787Y130528
X71472Y123638
X81315Y139386
X77378Y149228
X76394Y160055
X91157Y144307
X87220Y131512
X92142Y116748
X94110Y110843
X107890Y106906
X110843Y118717
X107890Y131512
X109270Y135191
X106906Y143323
X106906Y149228
X100016Y163992
X123638Y163008
X124622Y156118
X128559Y152181
X148244Y142339
X147260Y120685
X155134Y109858
X171866Y117732
X181709Y139386
X169898Y142339
X167929Y160055
X157102Y163992
X158087Y172850
X155134Y200409
X147260Y211236
X135449Y211236
X131512Y214189
X131586Y205404
X128559Y202378
X133480Y191551
X110843Y209268
X107890Y222063
X109270Y225743
X106906Y233874
X106906Y239780
X100016Y254543
X91157Y234858
X81315Y229937
X87220Y222063
X92142Y207299
X94110Y201394
X107890Y197457
X77378Y239780
X76394Y250606
X56709Y248638
X38008Y258480
X24228Y247654
X11433Y255528
X21276Y283087
X13402Y292929
X20291Y315567
X34071Y311630
X51787Y311630
X56709Y339189
X38008Y349031
X24228Y338205
X11433Y346079
X71472Y304740
X81315Y320488
X87220Y312614
X91157Y325409
X77378Y330331
X76394Y341157
X100016Y345094
X106906Y330331
X106906Y324425
X109270Y316294
X107890Y312614
X110843Y299819
X107890Y288008
X94110Y291945
X92142Y297850
X124622Y337220
X128559Y333283
X123638Y344110
X148244Y323441
X147260Y301787
X155134Y290961
X171866Y298835
X181709Y320488
X169898Y323441
X167929Y341157
X158087Y353953
X157102Y345094
X131512Y304740
X135449Y301787
X131586Y295956
X128559Y292929
X133480Y282102
X123638Y253559
X124622Y246669
X128559Y242732
X148244Y232890
X157102Y254543
X158087Y263402
X167929Y250606
X169898Y232890
X181709Y229937
X196472Y232890
X195488Y217142
X197457Y206315
X205331Y206315
X207299Y212220
X213205Y222336
X220094Y225016
X212220Y233874
X220094Y239287
X213205Y245685
X205331Y251591
X189780Y248365
X171866Y208283
X189780Y157813
X196472Y142339
X195488Y126591
X197457Y115764
X205331Y115764
X207299Y121669
X213205Y131785
X220094Y134465
X212220Y143323
X220094Y148736
X213205Y155134
X205331Y161039
X158087Y82299
X157102Y73441
X167929Y69504
X169898Y51787
X181709Y48835
X196472Y51787
X189780Y67262
X205331Y70488
X213205Y64583
X220094Y58185
X212220Y52772
X213205Y41234
X220094Y43913
X207299Y31118
X205331Y25213
X197457Y25213
X195488Y36039
X171866Y27181
X155134Y19307
X147260Y30134
X135449Y30134
X131512Y33087
X131586Y24302
X128559Y21276
X133480Y10449
X110843Y28165
X107890Y16354
X94110Y20291
X92142Y26197
X87220Y40961
X81315Y48835
X77378Y58677
X76394Y69504
X91157Y53756
X106906Y52772
X106906Y58677
X109270Y44640
X107890Y40961
X124622Y65567
X128559Y61630
X123638Y72457
X133480Y101000
X128559Y111827
X131586Y114853
X135449Y120685
X131512Y123638
X100016Y73441
X71472Y33087
X51787Y39976
X56709Y67535
X38008Y77378
X24228Y157102
X11433Y164976
X21276Y192535
X13402Y202378
X20291Y225016
X34071Y221079
X51787Y221079
X71472Y214189
X38008Y167929
X56709Y158087
X148244Y51787
X197457Y296866
X205331Y296866
X207299Y302772
X213205Y312887
X220094Y315567
X212220Y324425
X220094Y329839
X213205Y336236
X205331Y342142
X196472Y323441
X195488Y307693
X189780Y338916
T02
X134780Y340173
X134780Y329839
X134780Y320488
X94780Y320488
X87535Y320488
X87535Y330331
X94780Y329839
X94780Y340173
X87535Y340173
X47535Y340173
X47535Y330331
X47535Y320488
X47535Y249622
X47535Y239780
X47535Y229937
X87535Y229937
X94780Y229937
X94780Y239287
X87535Y239780
X87535Y249622
X94780Y249622
X134780Y249622
X134780Y239287
X134780Y229937
X134780Y159071
X134780Y148736
X134780Y139386
X94780Y139386
X94780Y148736
X87535Y149228
X87535Y139386
X87535Y159071
X94780Y159071
X47535Y159071
X47535Y149228
X47535Y139386
X47535Y68520
X47535Y58677
X47535Y48835
X87535Y48835
X94780Y48835
X94780Y58185
X87535Y58677
X87535Y68520
X94780Y68520
X134780Y68520
X134780Y58185
X134780Y48835
T03
X95094Y78362
X85252Y78362
X75409Y78362
X75409Y168913
X85252Y168913
X95094Y168913
X95094Y259465
X85252Y259465
X75409Y259465
X75409Y350016
X85252Y350016
X95094Y350016
T04
X108559Y351000
X118559Y351000
X128559Y351000
X138559Y351000
X148559Y351000
X148559Y260449
X138559Y260449
X128559Y260449
X118559Y260449
X108559Y260449
X63677Y260449
X53677Y260449
X53677Y351000
X63677Y351000
X63677Y169898
X53677Y169898
X108559Y169898
X118559Y169898
X128559Y169898
X138559Y169898
X148559Y169898
X148559Y79346
X138559Y79346
X128559Y79346
X118559Y79346
X108559Y79346
X63677Y79346
X53677Y79346
T05
X62614Y113638
X42929Y113638
X23244Y113638
X22181Y147260
X22181Y166945
X23244Y204189
X42929Y204189
X62614Y204189
X82299Y204189
X101984Y204189
X121669Y204189
X121669Y113638
X101984Y113638
X82299Y113638
X22181Y76394
X22181Y56709
X23244Y23087
X42929Y23087
X62614Y23087
X82299Y23087
X101984Y23087
X121669Y23087
X22181Y237811
X22181Y257496
X23244Y294740
X42929Y294740
X62614Y294740
X82299Y294740
X101984Y294740
X121669Y294740
X22181Y328362
X22181Y348047
T06
X11433Y10449
X11433Y84268
X11433Y101000
X11433Y174819
X11433Y191551
X11433Y265370
X11433Y282102
X11433Y355921
X253559Y355921
X253559Y282102
X253559Y265370
X253559Y191551
X253559Y174819
X253559Y101000
X253559Y84268
X253559Y10449
M30
