G75*
%MOIN*%
%OFA0B0*%
%FSLAX25Y25*%
%IPPOS*%
%LPD*%
%AMOC8*
5,1,8,0,0,1.08239X$1,22.5*
%
%ADD10C,0.08674*%
%ADD11C,0.07850*%
%ADD12C,0.06800*%
%ADD13OC8,0.06000*%
%ADD14C,0.06737*%
%ADD15C,0.03778*%
%ADD16OC8,0.04737*%
D10*
X0011433Y0010449D03*
X0011433Y0084268D03*
X0011433Y0101000D03*
X0011433Y0174819D03*
X0011433Y0191551D03*
X0011433Y0265370D03*
X0011433Y0282102D03*
X0011433Y0355921D03*
X0253559Y0355921D03*
X0253559Y0282102D03*
X0253559Y0265370D03*
X0253559Y0191551D03*
X0253559Y0174819D03*
X0253559Y0101000D03*
X0253559Y0084268D03*
X0253559Y0010449D03*
D11*
X0121669Y0019562D02*
X0121669Y0026612D01*
X0101984Y0026612D02*
X0101984Y0019562D01*
X0082299Y0019562D02*
X0082299Y0026612D01*
X0062614Y0026612D02*
X0062614Y0019562D01*
X0042929Y0019562D02*
X0042929Y0026612D01*
X0023244Y0026612D02*
X0023244Y0019562D01*
X0025706Y0056709D02*
X0018656Y0056709D01*
X0018656Y0076394D02*
X0025706Y0076394D01*
X0023244Y0110113D02*
X0023244Y0117163D01*
X0042929Y0117163D02*
X0042929Y0110113D01*
X0062614Y0110113D02*
X0062614Y0117163D01*
X0082299Y0117163D02*
X0082299Y0110113D01*
X0101984Y0110113D02*
X0101984Y0117163D01*
X0121669Y0117163D02*
X0121669Y0110113D01*
X0121669Y0200664D02*
X0121669Y0207714D01*
X0101984Y0207714D02*
X0101984Y0200664D01*
X0082299Y0200664D02*
X0082299Y0207714D01*
X0062614Y0207714D02*
X0062614Y0200664D01*
X0042929Y0200664D02*
X0042929Y0207714D01*
X0023244Y0207714D02*
X0023244Y0200664D01*
X0025706Y0166945D02*
X0018656Y0166945D01*
X0018656Y0147260D02*
X0025706Y0147260D01*
X0025706Y0237811D02*
X0018656Y0237811D01*
X0018656Y0257496D02*
X0025706Y0257496D01*
X0023244Y0291215D02*
X0023244Y0298265D01*
X0042929Y0298265D02*
X0042929Y0291215D01*
X0062614Y0291215D02*
X0062614Y0298265D01*
X0082299Y0298265D02*
X0082299Y0291215D01*
X0101984Y0291215D02*
X0101984Y0298265D01*
X0121669Y0298265D02*
X0121669Y0291215D01*
X0025706Y0328362D02*
X0018656Y0328362D01*
X0018656Y0348047D02*
X0025706Y0348047D01*
D12*
X0053677Y0348000D02*
X0053677Y0354000D01*
X0063677Y0354000D02*
X0063677Y0348000D01*
X0108559Y0348000D02*
X0108559Y0354000D01*
X0118559Y0354000D02*
X0118559Y0348000D01*
X0128559Y0348000D02*
X0128559Y0354000D01*
X0138559Y0354000D02*
X0138559Y0348000D01*
X0148559Y0348000D02*
X0148559Y0354000D01*
X0148559Y0263449D02*
X0148559Y0257449D01*
X0138559Y0257449D02*
X0138559Y0263449D01*
X0128559Y0263449D02*
X0128559Y0257449D01*
X0118559Y0257449D02*
X0118559Y0263449D01*
X0108559Y0263449D02*
X0108559Y0257449D01*
X0063677Y0257449D02*
X0063677Y0263449D01*
X0053677Y0263449D02*
X0053677Y0257449D01*
X0053677Y0172898D02*
X0053677Y0166898D01*
X0063677Y0166898D02*
X0063677Y0172898D01*
X0108559Y0172898D02*
X0108559Y0166898D01*
X0118559Y0166898D02*
X0118559Y0172898D01*
X0128559Y0172898D02*
X0128559Y0166898D01*
X0138559Y0166898D02*
X0138559Y0172898D01*
X0148559Y0172898D02*
X0148559Y0166898D01*
X0148559Y0082346D02*
X0148559Y0076346D01*
X0138559Y0076346D02*
X0138559Y0082346D01*
X0128559Y0082346D02*
X0128559Y0076346D01*
X0118559Y0076346D02*
X0118559Y0082346D01*
X0108559Y0082346D02*
X0108559Y0076346D01*
X0063677Y0076346D02*
X0063677Y0082346D01*
X0053677Y0082346D02*
X0053677Y0076346D01*
D13*
X0047535Y0068520D03*
X0047535Y0058677D03*
X0047535Y0048835D03*
X0087535Y0048835D03*
X0094780Y0048835D03*
X0094780Y0058185D03*
X0087535Y0058677D03*
X0087535Y0068520D03*
X0094780Y0068520D03*
X0134780Y0068520D03*
X0134780Y0058185D03*
X0134780Y0048835D03*
X0134780Y0139386D03*
X0134780Y0148736D03*
X0134780Y0159071D03*
X0094780Y0159071D03*
X0087535Y0159071D03*
X0087535Y0149228D03*
X0087535Y0139386D03*
X0094780Y0139386D03*
X0094780Y0148736D03*
X0047535Y0149228D03*
X0047535Y0139386D03*
X0047535Y0159071D03*
X0047535Y0229937D03*
X0047535Y0239780D03*
X0047535Y0249622D03*
X0087535Y0249622D03*
X0094780Y0249622D03*
X0094780Y0239287D03*
X0087535Y0239780D03*
X0087535Y0229937D03*
X0094780Y0229937D03*
X0134780Y0229937D03*
X0134780Y0239287D03*
X0134780Y0249622D03*
X0134780Y0320488D03*
X0134780Y0329839D03*
X0134780Y0340173D03*
X0094780Y0340173D03*
X0087535Y0340173D03*
X0087535Y0330331D03*
X0094780Y0329839D03*
X0094780Y0320488D03*
X0087535Y0320488D03*
X0047535Y0320488D03*
X0047535Y0330331D03*
X0047535Y0340173D03*
D14*
X0075409Y0350016D03*
X0085252Y0350016D03*
X0095094Y0350016D03*
X0095094Y0259465D03*
X0085252Y0259465D03*
X0075409Y0259465D03*
X0075409Y0168913D03*
X0085252Y0168913D03*
X0095094Y0168913D03*
X0095094Y0078362D03*
X0085252Y0078362D03*
X0075409Y0078362D03*
D15*
X0076394Y0069504D03*
X0077378Y0058677D03*
X0091157Y0053756D03*
X0087220Y0040961D03*
X0092142Y0026197D03*
X0094110Y0020291D03*
X0107890Y0016354D03*
X0110843Y0028165D03*
X0107890Y0040961D03*
X0109270Y0044640D03*
X0106906Y0052772D03*
X0106906Y0058677D03*
X0100016Y0073441D03*
X0123638Y0072457D03*
X0124622Y0065567D03*
X0128559Y0061630D03*
X0131512Y0033087D03*
X0135449Y0030134D03*
X0131586Y0024302D03*
X0128559Y0021276D03*
X0133480Y0010449D03*
X0147260Y0030134D03*
X0155134Y0019307D03*
X0171866Y0027181D03*
X0181709Y0048835D03*
X0169898Y0051787D03*
X0167929Y0069504D03*
X0158087Y0082299D03*
X0157102Y0073441D03*
X0148244Y0051787D03*
X0133480Y0101000D03*
X0128559Y0111827D03*
X0131586Y0114853D03*
X0135449Y0120685D03*
X0131512Y0123638D03*
X0147260Y0120685D03*
X0155134Y0109858D03*
X0171866Y0117732D03*
X0181709Y0139386D03*
X0169898Y0142339D03*
X0167929Y0160055D03*
X0157102Y0163992D03*
X0158087Y0172850D03*
X0155134Y0200409D03*
X0147260Y0211236D03*
X0135449Y0211236D03*
X0131512Y0214189D03*
X0131586Y0205404D03*
X0128559Y0202378D03*
X0133480Y0191551D03*
X0110843Y0209268D03*
X0107890Y0222063D03*
X0109270Y0225743D03*
X0106906Y0233874D03*
X0106906Y0239780D03*
X0100016Y0254543D03*
X0091157Y0234858D03*
X0087220Y0222063D03*
X0092142Y0207299D03*
X0094110Y0201394D03*
X0107890Y0197457D03*
X0100016Y0163992D03*
X0106906Y0149228D03*
X0106906Y0143323D03*
X0109270Y0135191D03*
X0107890Y0131512D03*
X0110843Y0118717D03*
X0107890Y0106906D03*
X0094110Y0110843D03*
X0092142Y0116748D03*
X0087220Y0131512D03*
X0091157Y0144307D03*
X0077378Y0149228D03*
X0076394Y0160055D03*
X0056709Y0158087D03*
X0038008Y0167929D03*
X0024228Y0157102D03*
X0011433Y0164976D03*
X0021276Y0192535D03*
X0013402Y0202378D03*
X0020291Y0225016D03*
X0034071Y0221079D03*
X0051787Y0221079D03*
X0056709Y0248638D03*
X0038008Y0258480D03*
X0024228Y0247654D03*
X0011433Y0255528D03*
X0021276Y0283087D03*
X0013402Y0292929D03*
X0020291Y0315567D03*
X0034071Y0311630D03*
X0051787Y0311630D03*
X0056709Y0339189D03*
X0038008Y0349031D03*
X0024228Y0338205D03*
X0011433Y0346079D03*
X0071472Y0304740D03*
X0087220Y0312614D03*
X0091157Y0325409D03*
X0077378Y0330331D03*
X0076394Y0341157D03*
X0100016Y0345094D03*
X0106906Y0330331D03*
X0106906Y0324425D03*
X0109270Y0316294D03*
X0107890Y0312614D03*
X0110843Y0299819D03*
X0107890Y0288008D03*
X0094110Y0291945D03*
X0092142Y0297850D03*
X0124622Y0337220D03*
X0128559Y0333283D03*
X0123638Y0344110D03*
X0148244Y0323441D03*
X0147260Y0301787D03*
X0155134Y0290961D03*
X0171866Y0298835D03*
X0181709Y0320488D03*
X0169898Y0323441D03*
X0167929Y0341157D03*
X0158087Y0353953D03*
X0157102Y0345094D03*
X0131512Y0304740D03*
X0135449Y0301787D03*
X0131586Y0295956D03*
X0128559Y0292929D03*
X0133480Y0282102D03*
X0123638Y0253559D03*
X0124622Y0246669D03*
X0128559Y0242732D03*
X0148244Y0232890D03*
X0157102Y0254543D03*
X0158087Y0263402D03*
X0167929Y0250606D03*
X0169898Y0232890D03*
X0181709Y0229937D03*
X0196472Y0232890D03*
X0195488Y0217142D03*
X0197457Y0206315D03*
X0205331Y0206315D03*
X0207299Y0212220D03*
X0213205Y0222336D03*
X0220094Y0225016D03*
X0212220Y0233874D03*
X0220094Y0239287D03*
X0213205Y0245685D03*
X0205331Y0251591D03*
X0189780Y0248365D03*
X0171866Y0208283D03*
X0189780Y0157813D03*
X0196472Y0142339D03*
X0195488Y0126591D03*
X0197457Y0115764D03*
X0205331Y0115764D03*
X0207299Y0121669D03*
X0213205Y0131785D03*
X0220094Y0134465D03*
X0212220Y0143323D03*
X0220094Y0148736D03*
X0213205Y0155134D03*
X0205331Y0161039D03*
X0148244Y0142339D03*
X0128559Y0152181D03*
X0124622Y0156118D03*
X0123638Y0163008D03*
X0071472Y0123638D03*
X0051787Y0130528D03*
X0034071Y0130528D03*
X0020291Y0134465D03*
X0013402Y0111827D03*
X0021276Y0101984D03*
X0038008Y0077378D03*
X0024228Y0066551D03*
X0011433Y0074425D03*
X0020291Y0043913D03*
X0034071Y0039976D03*
X0051787Y0039976D03*
X0071472Y0033087D03*
X0056709Y0067535D03*
X0021276Y0011433D03*
X0013402Y0021276D03*
X0071472Y0214189D03*
X0077378Y0239780D03*
X0076394Y0250606D03*
X0189780Y0338916D03*
X0196472Y0323441D03*
X0195488Y0307693D03*
X0197457Y0296866D03*
X0205331Y0296866D03*
X0207299Y0302772D03*
X0213205Y0312887D03*
X0220094Y0315567D03*
X0212220Y0324425D03*
X0220094Y0329839D03*
X0213205Y0336236D03*
X0205331Y0342142D03*
X0205331Y0070488D03*
X0213205Y0064583D03*
X0220094Y0058185D03*
X0212220Y0052772D03*
X0213205Y0041234D03*
X0220094Y0043913D03*
X0207299Y0031118D03*
X0205331Y0025213D03*
X0197457Y0025213D03*
X0195488Y0036039D03*
X0196472Y0051787D03*
X0189780Y0067262D03*
D16*
X0081315Y0048835D03*
X0081315Y0139386D03*
X0081315Y0229937D03*
X0081315Y0320488D03*
M02*
