G75*
%MOIN*%
%OFA0B0*%
%FSLAX25Y25*%
%IPPOS*%
%LPD*%
%AMOC8*
5,1,8,0,0,1.08239X$1,22.5*
%
%ADD10C,0.07050*%
%ADD11C,0.06000*%
%ADD12OC8,0.05200*%
%ADD13C,0.05937*%
%ADD14C,0.01181*%
%ADD15C,0.02978*%
%ADD16C,0.01969*%
%ADD17C,0.04724*%
%ADD18C,0.03150*%
%ADD19OC8,0.03937*%
D10*
X0023244Y0019562D02*
X0023244Y0026612D01*
X0042929Y0026612D02*
X0042929Y0019562D01*
X0062614Y0019562D02*
X0062614Y0026612D01*
X0082299Y0026612D02*
X0082299Y0019562D01*
X0101984Y0019562D02*
X0101984Y0026612D01*
X0121669Y0026612D02*
X0121669Y0019562D01*
X0121669Y0110113D02*
X0121669Y0117163D01*
X0101984Y0117163D02*
X0101984Y0110113D01*
X0082299Y0110113D02*
X0082299Y0117163D01*
X0062614Y0117163D02*
X0062614Y0110113D01*
X0042929Y0110113D02*
X0042929Y0117163D01*
X0023244Y0117163D02*
X0023244Y0110113D01*
X0025706Y0076394D02*
X0018656Y0076394D01*
X0018656Y0056709D02*
X0025706Y0056709D01*
X0025706Y0147260D02*
X0018656Y0147260D01*
X0018656Y0166945D02*
X0025706Y0166945D01*
X0023244Y0200664D02*
X0023244Y0207714D01*
X0042929Y0207714D02*
X0042929Y0200664D01*
X0062614Y0200664D02*
X0062614Y0207714D01*
X0082299Y0207714D02*
X0082299Y0200664D01*
X0101984Y0200664D02*
X0101984Y0207714D01*
X0121669Y0207714D02*
X0121669Y0200664D01*
X0121669Y0291215D02*
X0121669Y0298265D01*
X0101984Y0298265D02*
X0101984Y0291215D01*
X0082299Y0291215D02*
X0082299Y0298265D01*
X0062614Y0298265D02*
X0062614Y0291215D01*
X0042929Y0291215D02*
X0042929Y0298265D01*
X0023244Y0298265D02*
X0023244Y0291215D01*
X0025706Y0257496D02*
X0018656Y0257496D01*
X0018656Y0237811D02*
X0025706Y0237811D01*
X0025706Y0328362D02*
X0018656Y0328362D01*
X0018656Y0348047D02*
X0025706Y0348047D01*
D11*
X0053677Y0348000D02*
X0053677Y0354000D01*
X0063677Y0354000D02*
X0063677Y0348000D01*
X0108559Y0348000D02*
X0108559Y0354000D01*
X0118559Y0354000D02*
X0118559Y0348000D01*
X0128559Y0348000D02*
X0128559Y0354000D01*
X0138559Y0354000D02*
X0138559Y0348000D01*
X0148559Y0348000D02*
X0148559Y0354000D01*
X0148559Y0263449D02*
X0148559Y0257449D01*
X0138559Y0257449D02*
X0138559Y0263449D01*
X0128559Y0263449D02*
X0128559Y0257449D01*
X0118559Y0257449D02*
X0118559Y0263449D01*
X0108559Y0263449D02*
X0108559Y0257449D01*
X0063677Y0257449D02*
X0063677Y0263449D01*
X0053677Y0263449D02*
X0053677Y0257449D01*
X0053677Y0172898D02*
X0053677Y0166898D01*
X0063677Y0166898D02*
X0063677Y0172898D01*
X0108559Y0172898D02*
X0108559Y0166898D01*
X0118559Y0166898D02*
X0118559Y0172898D01*
X0128559Y0172898D02*
X0128559Y0166898D01*
X0138559Y0166898D02*
X0138559Y0172898D01*
X0148559Y0172898D02*
X0148559Y0166898D01*
X0148559Y0082346D02*
X0148559Y0076346D01*
X0138559Y0076346D02*
X0138559Y0082346D01*
X0128559Y0082346D02*
X0128559Y0076346D01*
X0118559Y0076346D02*
X0118559Y0082346D01*
X0108559Y0082346D02*
X0108559Y0076346D01*
X0063677Y0076346D02*
X0063677Y0082346D01*
X0053677Y0082346D02*
X0053677Y0076346D01*
D12*
X0047535Y0068520D03*
X0047535Y0058677D03*
X0047535Y0048835D03*
X0087535Y0048835D03*
X0094780Y0048835D03*
X0094780Y0058185D03*
X0087535Y0058677D03*
X0087535Y0068520D03*
X0094780Y0068520D03*
X0134780Y0068520D03*
X0134780Y0058185D03*
X0134780Y0048835D03*
X0134780Y0139386D03*
X0134780Y0148736D03*
X0134780Y0159071D03*
X0094780Y0159071D03*
X0087535Y0159071D03*
X0087535Y0149228D03*
X0087535Y0139386D03*
X0094780Y0139386D03*
X0094780Y0148736D03*
X0047535Y0149228D03*
X0047535Y0139386D03*
X0047535Y0159071D03*
X0047535Y0229937D03*
X0047535Y0239780D03*
X0047535Y0249622D03*
X0087535Y0249622D03*
X0094780Y0249622D03*
X0094780Y0239287D03*
X0087535Y0239780D03*
X0087535Y0229937D03*
X0094780Y0229937D03*
X0134780Y0229937D03*
X0134780Y0239287D03*
X0134780Y0249622D03*
X0134780Y0320488D03*
X0134780Y0329839D03*
X0134780Y0340173D03*
X0094780Y0340173D03*
X0087535Y0340173D03*
X0087535Y0330331D03*
X0094780Y0329839D03*
X0094780Y0320488D03*
X0087535Y0320488D03*
X0047535Y0320488D03*
X0047535Y0330331D03*
X0047535Y0340173D03*
D13*
X0075409Y0350016D03*
X0085252Y0350016D03*
X0095094Y0350016D03*
X0095094Y0259465D03*
X0085252Y0259465D03*
X0075409Y0259465D03*
X0075409Y0168913D03*
X0085252Y0168913D03*
X0095094Y0168913D03*
X0095094Y0078362D03*
X0085252Y0078362D03*
X0075409Y0078362D03*
D14*
X0009134Y0075990D02*
X0009134Y0018727D01*
X0009737Y0018976D01*
X0013129Y0018976D01*
X0016264Y0017678D01*
X0018662Y0015279D01*
X0019961Y0012145D01*
X0019961Y0009134D01*
X0091228Y0009134D01*
X0090941Y0009421D01*
X0090941Y0009421D01*
X0084848Y0015513D01*
X0083237Y0014846D01*
X0081361Y0014846D01*
X0079628Y0015564D01*
X0078302Y0016890D01*
X0077584Y0018624D01*
X0077584Y0027550D01*
X0078302Y0029283D01*
X0079628Y0030609D01*
X0081361Y0031327D01*
X0082209Y0031327D01*
X0081680Y0031857D01*
X0048807Y0064729D01*
X0045965Y0064729D01*
X0043745Y0066950D01*
X0043745Y0070090D01*
X0045965Y0072310D01*
X0049106Y0072310D01*
X0051326Y0070090D01*
X0051326Y0067248D01*
X0075597Y0042977D01*
X0075597Y0056669D01*
X0075106Y0057159D01*
X0074698Y0058144D01*
X0074698Y0059210D01*
X0075106Y0060195D01*
X0075744Y0060833D01*
X0074672Y0060833D01*
X0073628Y0061876D01*
X0063349Y0072156D01*
X0062844Y0072156D01*
X0061303Y0072794D01*
X0060125Y0073973D01*
X0059487Y0075513D01*
X0059487Y0083180D01*
X0060125Y0084720D01*
X0060987Y0085583D01*
X0056933Y0085583D01*
X0057179Y0085337D01*
X0057603Y0084752D01*
X0057931Y0084109D01*
X0058155Y0083421D01*
X0058268Y0082708D01*
X0058268Y0079756D01*
X0054087Y0079756D01*
X0054087Y0078937D01*
X0058268Y0078937D01*
X0058268Y0075985D01*
X0058155Y0075271D01*
X0057931Y0074584D01*
X0057603Y0073940D01*
X0057179Y0073356D01*
X0056668Y0072845D01*
X0056083Y0072420D01*
X0055439Y0072092D01*
X0054752Y0071869D01*
X0054087Y0071764D01*
X0054087Y0078937D01*
X0053268Y0078937D01*
X0053268Y0071764D01*
X0052602Y0071869D01*
X0051915Y0072092D01*
X0051271Y0072420D01*
X0050687Y0072845D01*
X0050176Y0073356D01*
X0049751Y0073940D01*
X0049423Y0074584D01*
X0049200Y0075271D01*
X0049087Y0075985D01*
X0049087Y0078937D01*
X0053268Y0078937D01*
X0053268Y0079756D01*
X0049087Y0079756D01*
X0049087Y0082708D01*
X0049200Y0083421D01*
X0049423Y0084109D01*
X0049751Y0084752D01*
X0050176Y0085337D01*
X0050421Y0085583D01*
X0019961Y0085583D01*
X0019961Y0082571D01*
X0019355Y0081109D01*
X0026644Y0081109D01*
X0028377Y0080391D01*
X0029704Y0079065D01*
X0030422Y0077332D01*
X0030422Y0075456D01*
X0029704Y0073723D01*
X0028816Y0072835D01*
X0040798Y0060852D01*
X0044350Y0060852D01*
X0045965Y0062468D01*
X0049106Y0062468D01*
X0051326Y0060247D01*
X0051326Y0057107D01*
X0049106Y0054887D01*
X0045965Y0054887D01*
X0044350Y0056502D01*
X0038997Y0056502D01*
X0037723Y0057776D01*
X0023821Y0071678D01*
X0017718Y0071678D01*
X0015985Y0072396D01*
X0014658Y0073723D01*
X0013941Y0075456D01*
X0013941Y0076076D01*
X0013129Y0075740D01*
X0009737Y0075740D01*
X0009134Y0075990D01*
X0009134Y0075320D02*
X0013997Y0075320D01*
X0014485Y0074141D02*
X0009134Y0074141D01*
X0009134Y0072961D02*
X0015420Y0072961D01*
X0017469Y0071781D02*
X0009134Y0071781D01*
X0009134Y0070602D02*
X0024897Y0070602D01*
X0026077Y0069422D02*
X0009134Y0069422D01*
X0009134Y0068242D02*
X0027257Y0068242D01*
X0028436Y0067063D02*
X0009134Y0067063D01*
X0009134Y0065883D02*
X0029616Y0065883D01*
X0030796Y0064704D02*
X0009134Y0064704D01*
X0009134Y0063524D02*
X0031975Y0063524D01*
X0033155Y0062344D02*
X0009134Y0062344D01*
X0009134Y0061165D02*
X0016134Y0061165D01*
X0015975Y0061084D02*
X0015324Y0060611D01*
X0014754Y0060041D01*
X0014281Y0059390D01*
X0013915Y0058672D01*
X0013667Y0057907D01*
X0013569Y0057293D01*
X0021597Y0057293D01*
X0021597Y0061824D01*
X0018253Y0061824D01*
X0017458Y0061698D01*
X0016692Y0061449D01*
X0015975Y0061084D01*
X0014713Y0059985D02*
X0009134Y0059985D01*
X0009134Y0058806D02*
X0013983Y0058806D01*
X0013622Y0057626D02*
X0009134Y0057626D01*
X0009134Y0056446D02*
X0021597Y0056446D01*
X0021597Y0056124D02*
X0013569Y0056124D01*
X0013667Y0055511D01*
X0013915Y0054745D01*
X0014281Y0054028D01*
X0014754Y0053376D01*
X0015324Y0052807D01*
X0015975Y0052333D01*
X0016692Y0051968D01*
X0017458Y0051719D01*
X0018253Y0051593D01*
X0021597Y0051593D01*
X0021597Y0056124D01*
X0022766Y0056124D01*
X0022766Y0057293D01*
X0030793Y0057293D01*
X0030696Y0057907D01*
X0030447Y0058672D01*
X0030081Y0059390D01*
X0029608Y0060041D01*
X0029039Y0060611D01*
X0028387Y0061084D01*
X0027670Y0061449D01*
X0026904Y0061698D01*
X0026109Y0061824D01*
X0022766Y0061824D01*
X0022766Y0057293D01*
X0021597Y0057293D01*
X0021597Y0056124D01*
X0021597Y0055267D02*
X0022766Y0055267D01*
X0022766Y0056124D02*
X0022766Y0051593D01*
X0026109Y0051593D01*
X0026904Y0051719D01*
X0027670Y0051968D01*
X0028387Y0052333D01*
X0029039Y0052807D01*
X0029608Y0053376D01*
X0030081Y0054028D01*
X0030447Y0054745D01*
X0030696Y0055511D01*
X0030793Y0056124D01*
X0022766Y0056124D01*
X0022766Y0056446D02*
X0044406Y0056446D01*
X0045585Y0055267D02*
X0030616Y0055267D01*
X0030112Y0054087D02*
X0059449Y0054087D01*
X0058270Y0055267D02*
X0049486Y0055267D01*
X0050665Y0056446D02*
X0057090Y0056446D01*
X0055910Y0057626D02*
X0051326Y0057626D01*
X0051326Y0058806D02*
X0054731Y0058806D01*
X0053551Y0059985D02*
X0051326Y0059985D01*
X0050408Y0061165D02*
X0052371Y0061165D01*
X0051192Y0062344D02*
X0049229Y0062344D01*
X0050012Y0063524D02*
X0038126Y0063524D01*
X0036947Y0064704D02*
X0048833Y0064704D01*
X0051511Y0067063D02*
X0068442Y0067063D01*
X0067262Y0068242D02*
X0051326Y0068242D01*
X0051326Y0069422D02*
X0066083Y0069422D01*
X0064903Y0070602D02*
X0050814Y0070602D01*
X0049634Y0071781D02*
X0053156Y0071781D01*
X0053268Y0071781D02*
X0054087Y0071781D01*
X0054199Y0071781D02*
X0063723Y0071781D01*
X0063677Y0074346D02*
X0075409Y0062614D01*
X0120685Y0062614D01*
X0121177Y0062122D01*
X0125114Y0058185D01*
X0134780Y0058185D01*
X0220094Y0058185D01*
X0218105Y0059985D02*
X0138340Y0059985D01*
X0138359Y0059966D02*
X0137492Y0060833D01*
X0211974Y0060833D01*
X0213017Y0061876D01*
X0213044Y0061903D01*
X0213738Y0061903D01*
X0214723Y0062311D01*
X0215476Y0063065D01*
X0215884Y0064050D01*
X0215884Y0065116D01*
X0215476Y0066101D01*
X0214723Y0066854D01*
X0213738Y0067262D01*
X0212672Y0067262D01*
X0211687Y0066854D01*
X0210933Y0066101D01*
X0210525Y0065116D01*
X0210525Y0064422D01*
X0210498Y0064395D01*
X0133234Y0064395D01*
X0127880Y0069750D01*
X0126836Y0070793D01*
X0105183Y0070793D01*
X0102695Y0073280D01*
X0102695Y0073974D01*
X0102287Y0074959D01*
X0101534Y0075713D01*
X0100549Y0076120D01*
X0099483Y0076120D01*
X0098937Y0075894D01*
X0098994Y0075973D01*
X0099320Y0076612D01*
X0099541Y0077295D01*
X0099648Y0077968D01*
X0095488Y0077968D01*
X0095488Y0073809D01*
X0096162Y0073915D01*
X0096845Y0074137D01*
X0097484Y0074463D01*
X0097562Y0074520D01*
X0097336Y0073974D01*
X0097336Y0072908D01*
X0097744Y0071923D01*
X0098498Y0071169D01*
X0099483Y0070761D01*
X0100176Y0070761D01*
X0103196Y0067742D01*
X0098633Y0067742D01*
X0098570Y0067805D01*
X0098570Y0070090D01*
X0096350Y0072310D01*
X0093209Y0072310D01*
X0091157Y0070258D01*
X0089106Y0072310D01*
X0085965Y0072310D01*
X0083745Y0070090D01*
X0083745Y0066950D01*
X0085965Y0064729D01*
X0089106Y0064729D01*
X0091157Y0066781D01*
X0093209Y0064729D01*
X0095494Y0064729D01*
X0095557Y0064666D01*
X0095828Y0064395D01*
X0076147Y0064395D01*
X0066900Y0073643D01*
X0067230Y0073973D01*
X0067868Y0075513D01*
X0067868Y0083180D01*
X0067230Y0084720D01*
X0066367Y0085583D01*
X0105869Y0085583D01*
X0105006Y0084720D01*
X0104369Y0083180D01*
X0104369Y0075513D01*
X0105006Y0073973D01*
X0106185Y0072794D01*
X0107725Y0072156D01*
X0109393Y0072156D01*
X0110933Y0072794D01*
X0112112Y0073973D01*
X0112750Y0075513D01*
X0112750Y0083180D01*
X0112112Y0084720D01*
X0111249Y0085583D01*
X0115869Y0085583D01*
X0115006Y0084720D01*
X0114369Y0083180D01*
X0114369Y0075513D01*
X0115006Y0073973D01*
X0116185Y0072794D01*
X0117725Y0072156D01*
X0119393Y0072156D01*
X0120933Y0072794D01*
X0122112Y0073973D01*
X0122750Y0075513D01*
X0122750Y0083180D01*
X0122112Y0084720D01*
X0121249Y0085583D01*
X0125869Y0085583D01*
X0125006Y0084720D01*
X0124369Y0083180D01*
X0124369Y0075513D01*
X0125006Y0073973D01*
X0126185Y0072794D01*
X0127725Y0072156D01*
X0129393Y0072156D01*
X0130933Y0072794D01*
X0132112Y0073973D01*
X0132750Y0075513D01*
X0132750Y0083180D01*
X0132112Y0084720D01*
X0131249Y0085583D01*
X0135303Y0085583D01*
X0135058Y0085337D01*
X0134633Y0084752D01*
X0134305Y0084109D01*
X0134082Y0083421D01*
X0133969Y0082708D01*
X0133969Y0079756D01*
X0138150Y0079756D01*
X0138150Y0078937D01*
X0138969Y0078937D01*
X0138969Y0079756D01*
X0143150Y0079756D01*
X0143150Y0082708D01*
X0143037Y0083421D01*
X0142813Y0084109D01*
X0142485Y0084752D01*
X0142061Y0085337D01*
X0141815Y0085583D01*
X0145869Y0085583D01*
X0145006Y0084720D01*
X0144369Y0083180D01*
X0144369Y0075513D01*
X0145006Y0073973D01*
X0146185Y0072794D01*
X0146778Y0072548D01*
X0146778Y0068145D01*
X0138570Y0068145D01*
X0138570Y0070090D01*
X0136350Y0072310D01*
X0133209Y0072310D01*
X0130989Y0070090D01*
X0130989Y0066950D01*
X0133209Y0064729D01*
X0136051Y0064729D01*
X0136198Y0064583D01*
X0190313Y0064583D01*
X0191297Y0064991D01*
X0192051Y0065744D01*
X0192459Y0066729D01*
X0192459Y0067795D01*
X0192051Y0068780D01*
X0191297Y0069534D01*
X0190917Y0069691D01*
X0202760Y0069691D01*
X0203059Y0068970D01*
X0203813Y0068217D01*
X0204798Y0067809D01*
X0205864Y0067809D01*
X0206849Y0068217D01*
X0207602Y0068970D01*
X0208010Y0069955D01*
X0208010Y0071021D01*
X0207602Y0072006D01*
X0206849Y0072760D01*
X0205864Y0073168D01*
X0205170Y0073168D01*
X0205084Y0073254D01*
X0169160Y0073254D01*
X0168117Y0072210D01*
X0168090Y0072183D01*
X0167396Y0072183D01*
X0166411Y0071776D01*
X0165658Y0071022D01*
X0165250Y0070037D01*
X0165250Y0068971D01*
X0165592Y0068145D01*
X0150340Y0068145D01*
X0150340Y0072548D01*
X0150933Y0072794D01*
X0152112Y0073973D01*
X0152750Y0075513D01*
X0152750Y0083180D01*
X0152112Y0084720D01*
X0151249Y0085583D01*
X0223047Y0085583D01*
X0223047Y0009134D01*
X0191771Y0009134D01*
X0205170Y0022533D01*
X0205864Y0022533D01*
X0206849Y0022941D01*
X0207602Y0023695D01*
X0208010Y0024680D01*
X0208010Y0025746D01*
X0207602Y0026730D01*
X0206849Y0027484D01*
X0205864Y0027892D01*
X0204798Y0027892D01*
X0203813Y0027484D01*
X0203059Y0026730D01*
X0202651Y0025746D01*
X0202651Y0025052D01*
X0188514Y0010915D01*
X0136160Y0010915D01*
X0136160Y0010982D01*
X0135752Y0011967D01*
X0134998Y0012720D01*
X0134013Y0013128D01*
X0133310Y0013128D01*
X0143367Y0023185D01*
X0144366Y0024184D01*
X0144907Y0025490D01*
X0144907Y0026581D01*
X0147967Y0026581D01*
X0149272Y0027122D01*
X0150272Y0028121D01*
X0150813Y0029427D01*
X0150813Y0030841D01*
X0150272Y0032146D01*
X0149272Y0033146D01*
X0148434Y0033493D01*
X0186658Y0033493D01*
X0194777Y0025373D01*
X0194777Y0024680D01*
X0195185Y0023695D01*
X0195939Y0022941D01*
X0196924Y0022533D01*
X0197990Y0022533D01*
X0198975Y0022941D01*
X0199728Y0023695D01*
X0200136Y0024680D01*
X0200136Y0025746D01*
X0199728Y0026730D01*
X0198975Y0027484D01*
X0197990Y0027892D01*
X0197296Y0027892D01*
X0189176Y0036012D01*
X0188133Y0037055D01*
X0133852Y0037055D01*
X0133359Y0037547D01*
X0129664Y0037547D01*
X0129172Y0037055D01*
X0085308Y0037055D01*
X0079159Y0043204D01*
X0079159Y0046523D01*
X0080006Y0045676D01*
X0082623Y0045676D01*
X0083979Y0047031D01*
X0085965Y0045044D01*
X0089106Y0045044D01*
X0091157Y0047096D01*
X0093209Y0045044D01*
X0096350Y0045044D01*
X0098570Y0047265D01*
X0098570Y0050405D01*
X0096350Y0052625D01*
X0093589Y0052625D01*
X0093837Y0053223D01*
X0093837Y0054289D01*
X0093793Y0054394D01*
X0096350Y0054394D01*
X0098570Y0056615D01*
X0098570Y0059755D01*
X0097492Y0060833D01*
X0119947Y0060833D01*
X0120439Y0060341D01*
X0124376Y0056404D01*
X0131200Y0056404D01*
X0133209Y0054394D01*
X0136350Y0054394D01*
X0138359Y0056404D01*
X0218086Y0056404D01*
X0218577Y0055913D01*
X0219561Y0055506D01*
X0220627Y0055506D01*
X0221612Y0055913D01*
X0222366Y0056667D01*
X0222774Y0057652D01*
X0222774Y0058718D01*
X0222366Y0059703D01*
X0221612Y0060457D01*
X0220627Y0060865D01*
X0219561Y0060865D01*
X0218577Y0060457D01*
X0218086Y0059966D01*
X0138359Y0059966D01*
X0137222Y0055267D02*
X0223047Y0055267D01*
X0223047Y0056446D02*
X0222145Y0056446D01*
X0222763Y0057626D02*
X0223047Y0057626D01*
X0223047Y0058806D02*
X0222738Y0058806D01*
X0223047Y0059985D02*
X0222084Y0059985D01*
X0223047Y0061165D02*
X0212306Y0061165D01*
X0211236Y0062614D02*
X0132496Y0062614D01*
X0126098Y0069012D01*
X0104445Y0069012D01*
X0100016Y0073441D01*
X0101926Y0075320D02*
X0104448Y0075320D01*
X0104369Y0076500D02*
X0099262Y0076500D01*
X0099602Y0077679D02*
X0104369Y0077679D01*
X0104369Y0078859D02*
X0099632Y0078859D01*
X0099648Y0078756D02*
X0099541Y0079430D01*
X0099320Y0080112D01*
X0098994Y0080752D01*
X0098572Y0081332D01*
X0098065Y0081840D01*
X0097484Y0082261D01*
X0096845Y0082587D01*
X0096162Y0082809D01*
X0095488Y0082916D01*
X0095488Y0078756D01*
X0094701Y0078756D01*
X0094701Y0082916D01*
X0094027Y0082809D01*
X0093344Y0082587D01*
X0092705Y0082261D01*
X0092124Y0081840D01*
X0091617Y0081332D01*
X0091195Y0080752D01*
X0090869Y0080112D01*
X0090648Y0079430D01*
X0090541Y0078756D01*
X0094701Y0078756D01*
X0094701Y0077968D01*
X0095488Y0077968D01*
X0095488Y0078756D01*
X0099648Y0078756D01*
X0099343Y0080039D02*
X0104369Y0080039D01*
X0104369Y0081218D02*
X0098655Y0081218D01*
X0097216Y0082398D02*
X0104369Y0082398D01*
X0104533Y0083577D02*
X0067703Y0083577D01*
X0067868Y0082398D02*
X0074284Y0082398D01*
X0074582Y0082521D02*
X0073054Y0081888D01*
X0071884Y0080718D01*
X0071250Y0079189D01*
X0071250Y0077535D01*
X0071884Y0076006D01*
X0073054Y0074836D01*
X0074582Y0074203D01*
X0076237Y0074203D01*
X0077765Y0074836D01*
X0078935Y0076006D01*
X0079568Y0077535D01*
X0079568Y0079189D01*
X0078935Y0080718D01*
X0077765Y0081888D01*
X0076237Y0082521D01*
X0074582Y0082521D01*
X0076535Y0082398D02*
X0084127Y0082398D01*
X0084425Y0082521D02*
X0082896Y0081888D01*
X0081726Y0080718D01*
X0081093Y0079189D01*
X0081093Y0077535D01*
X0081726Y0076006D01*
X0082896Y0074836D01*
X0084425Y0074203D01*
X0086079Y0074203D01*
X0087608Y0074836D01*
X0088778Y0076006D01*
X0089411Y0077535D01*
X0089411Y0079189D01*
X0088778Y0080718D01*
X0087608Y0081888D01*
X0086079Y0082521D01*
X0084425Y0082521D01*
X0086377Y0082398D02*
X0092973Y0082398D01*
X0094701Y0082398D02*
X0095488Y0082398D01*
X0095488Y0081218D02*
X0094701Y0081218D01*
X0094701Y0080039D02*
X0095488Y0080039D01*
X0095488Y0078859D02*
X0094701Y0078859D01*
X0094701Y0077968D02*
X0090541Y0077968D01*
X0090648Y0077295D01*
X0090869Y0076612D01*
X0091195Y0075973D01*
X0091617Y0075392D01*
X0092124Y0074885D01*
X0092705Y0074463D01*
X0093344Y0074137D01*
X0094027Y0073915D01*
X0094701Y0073809D01*
X0094701Y0077968D01*
X0094701Y0077679D02*
X0095488Y0077679D01*
X0095488Y0076500D02*
X0094701Y0076500D01*
X0094701Y0075320D02*
X0095488Y0075320D01*
X0095488Y0074141D02*
X0094701Y0074141D01*
X0093338Y0074141D02*
X0067299Y0074141D01*
X0067582Y0072961D02*
X0097336Y0072961D01*
X0097405Y0074141D02*
X0096851Y0074141D01*
X0096879Y0071781D02*
X0097886Y0071781D01*
X0098058Y0070602D02*
X0100336Y0070602D01*
X0101516Y0069422D02*
X0098570Y0069422D01*
X0098570Y0068242D02*
X0102695Y0068242D01*
X0104194Y0071781D02*
X0132680Y0071781D01*
X0131501Y0070602D02*
X0127027Y0070602D01*
X0128207Y0069422D02*
X0130989Y0069422D01*
X0130989Y0068242D02*
X0129387Y0068242D01*
X0130566Y0067063D02*
X0130989Y0067063D01*
X0131746Y0065883D02*
X0132055Y0065883D01*
X0132925Y0064704D02*
X0136077Y0064704D01*
X0136935Y0066364D02*
X0134780Y0068520D01*
X0136935Y0066364D02*
X0148244Y0066364D01*
X0148559Y0066679D01*
X0148559Y0079346D01*
X0144533Y0083577D02*
X0142986Y0083577D01*
X0143150Y0082398D02*
X0144369Y0082398D01*
X0144369Y0081218D02*
X0143150Y0081218D01*
X0143150Y0080039D02*
X0144369Y0080039D01*
X0144369Y0078859D02*
X0143150Y0078859D01*
X0143150Y0078937D02*
X0138969Y0078937D01*
X0138969Y0071764D01*
X0139634Y0071869D01*
X0140321Y0072092D01*
X0140965Y0072420D01*
X0141550Y0072845D01*
X0142061Y0073356D01*
X0142485Y0073940D01*
X0142813Y0074584D01*
X0143037Y0075271D01*
X0143150Y0075985D01*
X0143150Y0078937D01*
X0143150Y0077679D02*
X0144369Y0077679D01*
X0144369Y0076500D02*
X0143150Y0076500D01*
X0143044Y0075320D02*
X0144448Y0075320D01*
X0144937Y0074141D02*
X0142587Y0074141D01*
X0141666Y0072961D02*
X0146018Y0072961D01*
X0146778Y0071781D02*
X0139081Y0071781D01*
X0138969Y0071781D02*
X0138150Y0071781D01*
X0138150Y0071764D02*
X0138150Y0078937D01*
X0133969Y0078937D01*
X0133969Y0075985D01*
X0134082Y0075271D01*
X0134305Y0074584D01*
X0134633Y0073940D01*
X0135058Y0073356D01*
X0135569Y0072845D01*
X0136153Y0072420D01*
X0136797Y0072092D01*
X0137484Y0071869D01*
X0138150Y0071764D01*
X0138037Y0071781D02*
X0136879Y0071781D01*
X0138058Y0070602D02*
X0146778Y0070602D01*
X0146778Y0069422D02*
X0138570Y0069422D01*
X0138570Y0068242D02*
X0146778Y0068242D01*
X0148244Y0066364D02*
X0188881Y0066364D01*
X0189780Y0067262D01*
X0192274Y0068242D02*
X0203787Y0068242D01*
X0202872Y0069422D02*
X0191409Y0069422D01*
X0192459Y0067063D02*
X0212190Y0067063D01*
X0210843Y0065883D02*
X0192109Y0065883D01*
X0190604Y0064704D02*
X0210525Y0064704D01*
X0211236Y0062614D02*
X0213205Y0064583D01*
X0214219Y0067063D02*
X0223047Y0067063D01*
X0223047Y0068242D02*
X0206874Y0068242D01*
X0207789Y0069422D02*
X0223047Y0069422D01*
X0223047Y0070602D02*
X0208010Y0070602D01*
X0207695Y0071781D02*
X0223047Y0071781D01*
X0223047Y0072961D02*
X0206363Y0072961D01*
X0204346Y0071472D02*
X0205331Y0070488D01*
X0204346Y0071472D02*
X0169898Y0071472D01*
X0167929Y0069504D01*
X0165484Y0070602D02*
X0150340Y0070602D01*
X0150340Y0071781D02*
X0166425Y0071781D01*
X0165250Y0069422D02*
X0150340Y0069422D01*
X0150340Y0068242D02*
X0165551Y0068242D01*
X0168867Y0072961D02*
X0151100Y0072961D01*
X0152181Y0074141D02*
X0223047Y0074141D01*
X0223047Y0075320D02*
X0152670Y0075320D01*
X0152750Y0076500D02*
X0223047Y0076500D01*
X0223047Y0077679D02*
X0152750Y0077679D01*
X0152750Y0078859D02*
X0223047Y0078859D01*
X0223047Y0080039D02*
X0152750Y0080039D01*
X0152750Y0081218D02*
X0223047Y0081218D01*
X0223047Y0082398D02*
X0152750Y0082398D01*
X0152585Y0083577D02*
X0223047Y0083577D01*
X0223047Y0084757D02*
X0152075Y0084757D01*
X0145043Y0084757D02*
X0142482Y0084757D01*
X0138969Y0078859D02*
X0138150Y0078859D01*
X0138150Y0077679D02*
X0138969Y0077679D01*
X0138969Y0076500D02*
X0138150Y0076500D01*
X0138150Y0075320D02*
X0138969Y0075320D01*
X0138969Y0074141D02*
X0138150Y0074141D01*
X0138150Y0072961D02*
X0138969Y0072961D01*
X0135453Y0072961D02*
X0131100Y0072961D01*
X0132181Y0074141D02*
X0134531Y0074141D01*
X0134074Y0075320D02*
X0132670Y0075320D01*
X0132750Y0076500D02*
X0133969Y0076500D01*
X0133969Y0077679D02*
X0132750Y0077679D01*
X0132750Y0078859D02*
X0133969Y0078859D01*
X0133969Y0080039D02*
X0132750Y0080039D01*
X0132750Y0081218D02*
X0133969Y0081218D01*
X0133969Y0082398D02*
X0132750Y0082398D01*
X0132585Y0083577D02*
X0134132Y0083577D01*
X0134636Y0084757D02*
X0132075Y0084757D01*
X0125043Y0084757D02*
X0122075Y0084757D01*
X0122585Y0083577D02*
X0124533Y0083577D01*
X0124369Y0082398D02*
X0122750Y0082398D01*
X0122750Y0081218D02*
X0124369Y0081218D01*
X0124369Y0080039D02*
X0122750Y0080039D01*
X0122750Y0078859D02*
X0124369Y0078859D01*
X0124369Y0077679D02*
X0122750Y0077679D01*
X0122750Y0076500D02*
X0124369Y0076500D01*
X0124448Y0075320D02*
X0122670Y0075320D01*
X0122181Y0074141D02*
X0124937Y0074141D01*
X0126018Y0072961D02*
X0121100Y0072961D01*
X0116018Y0072961D02*
X0111100Y0072961D01*
X0112181Y0074141D02*
X0114937Y0074141D01*
X0114448Y0075320D02*
X0112670Y0075320D01*
X0112750Y0076500D02*
X0114369Y0076500D01*
X0114369Y0077679D02*
X0112750Y0077679D01*
X0112750Y0078859D02*
X0114369Y0078859D01*
X0114369Y0080039D02*
X0112750Y0080039D01*
X0112750Y0081218D02*
X0114369Y0081218D01*
X0114369Y0082398D02*
X0112750Y0082398D01*
X0112585Y0083577D02*
X0114533Y0083577D01*
X0115043Y0084757D02*
X0112075Y0084757D01*
X0105043Y0084757D02*
X0067193Y0084757D01*
X0067868Y0081218D02*
X0072384Y0081218D01*
X0071602Y0080039D02*
X0067868Y0080039D01*
X0067868Y0078859D02*
X0071250Y0078859D01*
X0071250Y0077679D02*
X0067868Y0077679D01*
X0067868Y0076500D02*
X0071679Y0076500D01*
X0072570Y0075320D02*
X0067788Y0075320D01*
X0068761Y0071781D02*
X0085436Y0071781D01*
X0084257Y0070602D02*
X0069941Y0070602D01*
X0071120Y0069422D02*
X0083745Y0069422D01*
X0083745Y0068242D02*
X0072300Y0068242D01*
X0073480Y0067063D02*
X0083745Y0067063D01*
X0084811Y0065883D02*
X0074659Y0065883D01*
X0075839Y0064704D02*
X0095520Y0064704D01*
X0092055Y0065883D02*
X0090260Y0065883D01*
X0090814Y0070602D02*
X0091501Y0070602D01*
X0092680Y0071781D02*
X0089634Y0071781D01*
X0088092Y0075320D02*
X0091689Y0075320D01*
X0090927Y0076500D02*
X0088982Y0076500D01*
X0089411Y0077679D02*
X0090587Y0077679D01*
X0090557Y0078859D02*
X0089411Y0078859D01*
X0089059Y0080039D02*
X0090846Y0080039D01*
X0091534Y0081218D02*
X0088278Y0081218D01*
X0082226Y0081218D02*
X0078435Y0081218D01*
X0079217Y0080039D02*
X0081445Y0080039D01*
X0081093Y0078859D02*
X0079568Y0078859D01*
X0079568Y0077679D02*
X0081093Y0077679D01*
X0081522Y0076500D02*
X0079140Y0076500D01*
X0078249Y0075320D02*
X0082412Y0075320D01*
X0071981Y0063524D02*
X0055050Y0063524D01*
X0056230Y0062344D02*
X0073160Y0062344D01*
X0074340Y0061165D02*
X0057409Y0061165D01*
X0058589Y0059985D02*
X0075019Y0059985D01*
X0074698Y0058806D02*
X0059768Y0058806D01*
X0060948Y0057626D02*
X0074913Y0057626D01*
X0075597Y0056446D02*
X0062128Y0056446D01*
X0063307Y0055267D02*
X0075597Y0055267D01*
X0075597Y0054087D02*
X0064487Y0054087D01*
X0065666Y0052907D02*
X0075597Y0052907D01*
X0075597Y0051728D02*
X0066846Y0051728D01*
X0068026Y0050548D02*
X0075597Y0050548D01*
X0075597Y0049369D02*
X0069205Y0049369D01*
X0070385Y0048189D02*
X0075597Y0048189D01*
X0075597Y0047009D02*
X0071565Y0047009D01*
X0072744Y0045830D02*
X0075597Y0045830D01*
X0075597Y0044650D02*
X0073924Y0044650D01*
X0075103Y0043471D02*
X0075597Y0043471D01*
X0077378Y0042467D02*
X0077378Y0058677D01*
X0070801Y0064704D02*
X0053870Y0064704D01*
X0052691Y0065883D02*
X0069622Y0065883D01*
X0063677Y0074346D02*
X0063677Y0079346D01*
X0059487Y0078859D02*
X0058268Y0078859D01*
X0058268Y0080039D02*
X0059487Y0080039D01*
X0059487Y0081218D02*
X0058268Y0081218D01*
X0058268Y0082398D02*
X0059487Y0082398D01*
X0059651Y0083577D02*
X0058104Y0083577D01*
X0057600Y0084757D02*
X0060161Y0084757D01*
X0059487Y0077679D02*
X0058268Y0077679D01*
X0058268Y0076500D02*
X0059487Y0076500D01*
X0059566Y0075320D02*
X0058162Y0075320D01*
X0057705Y0074141D02*
X0060055Y0074141D01*
X0061136Y0072961D02*
X0056784Y0072961D01*
X0054087Y0072961D02*
X0053268Y0072961D01*
X0053268Y0074141D02*
X0054087Y0074141D01*
X0054087Y0075320D02*
X0053268Y0075320D01*
X0053268Y0076500D02*
X0054087Y0076500D01*
X0054087Y0077679D02*
X0053268Y0077679D01*
X0053268Y0078859D02*
X0054087Y0078859D01*
X0049087Y0078859D02*
X0029789Y0078859D01*
X0030278Y0077679D02*
X0049087Y0077679D01*
X0049087Y0076500D02*
X0030422Y0076500D01*
X0030365Y0075320D02*
X0049192Y0075320D01*
X0049649Y0074141D02*
X0029877Y0074141D01*
X0028942Y0072961D02*
X0050571Y0072961D01*
X0047535Y0068520D02*
X0083461Y0032594D01*
X0123293Y0032594D01*
X0131586Y0024302D01*
X0129052Y0023417D02*
X0122254Y0023417D01*
X0122254Y0023671D02*
X0126785Y0023671D01*
X0126785Y0026584D01*
X0128906Y0024463D01*
X0128906Y0023769D01*
X0129314Y0022784D01*
X0130068Y0022031D01*
X0131053Y0021623D01*
X0131756Y0021623D01*
X0125119Y0014986D01*
X0123957Y0014986D01*
X0124350Y0015186D01*
X0125002Y0015660D01*
X0125571Y0016229D01*
X0126044Y0016880D01*
X0126410Y0017598D01*
X0126659Y0018364D01*
X0126785Y0019159D01*
X0126785Y0022502D01*
X0122254Y0022502D01*
X0122254Y0023671D01*
X0121085Y0023671D02*
X0121085Y0022502D01*
X0116554Y0022502D01*
X0116554Y0019159D01*
X0116680Y0018364D01*
X0116929Y0017598D01*
X0117294Y0016880D01*
X0117767Y0016229D01*
X0118337Y0015660D01*
X0118988Y0015186D01*
X0119382Y0014986D01*
X0103260Y0014986D01*
X0104655Y0015564D01*
X0105982Y0016890D01*
X0106700Y0018624D01*
X0106700Y0027550D01*
X0105982Y0029283D01*
X0104655Y0030609D01*
X0104163Y0030813D01*
X0118749Y0030813D01*
X0118337Y0030514D01*
X0117767Y0029944D01*
X0117294Y0029293D01*
X0116929Y0028575D01*
X0116680Y0027810D01*
X0116554Y0027014D01*
X0116554Y0023671D01*
X0121085Y0023671D01*
X0121085Y0023417D02*
X0106700Y0023417D01*
X0106700Y0022238D02*
X0116554Y0022238D01*
X0116554Y0021058D02*
X0106700Y0021058D01*
X0106700Y0019878D02*
X0116554Y0019878D01*
X0116627Y0018699D02*
X0106700Y0018699D01*
X0106242Y0017519D02*
X0116969Y0017519D01*
X0117687Y0016339D02*
X0105431Y0016339D01*
X0103680Y0015160D02*
X0119040Y0015160D01*
X0124298Y0015160D02*
X0125293Y0015160D01*
X0125651Y0016339D02*
X0126473Y0016339D01*
X0126370Y0017519D02*
X0127652Y0017519D01*
X0126712Y0018699D02*
X0128832Y0018699D01*
X0130011Y0019878D02*
X0126785Y0019878D01*
X0126785Y0021058D02*
X0131191Y0021058D01*
X0129861Y0022238D02*
X0126785Y0022238D01*
X0126785Y0024597D02*
X0128772Y0024597D01*
X0127593Y0025776D02*
X0126785Y0025776D01*
X0130271Y0028136D02*
X0132431Y0028136D01*
X0132437Y0028121D02*
X0133436Y0027122D01*
X0134742Y0026581D01*
X0136714Y0026581D01*
X0134265Y0024132D01*
X0134265Y0024835D01*
X0133857Y0025820D01*
X0133103Y0026574D01*
X0132119Y0026982D01*
X0131425Y0026982D01*
X0124914Y0033493D01*
X0130648Y0033493D01*
X0131140Y0033985D01*
X0131884Y0033985D01*
X0132376Y0033493D01*
X0134275Y0033493D01*
X0133436Y0033146D01*
X0132437Y0032146D01*
X0131896Y0030841D01*
X0131896Y0029427D01*
X0132437Y0028121D01*
X0132181Y0026956D02*
X0133837Y0026956D01*
X0133875Y0025776D02*
X0135909Y0025776D01*
X0134730Y0024597D02*
X0134265Y0024597D01*
X0138880Y0018699D02*
X0196298Y0018699D01*
X0197478Y0019878D02*
X0140060Y0019878D01*
X0141240Y0021058D02*
X0198657Y0021058D01*
X0199837Y0022238D02*
X0142419Y0022238D01*
X0143599Y0023417D02*
X0195463Y0023417D01*
X0194811Y0024597D02*
X0144537Y0024597D01*
X0144907Y0025776D02*
X0194374Y0025776D01*
X0193194Y0026956D02*
X0148872Y0026956D01*
X0150278Y0028136D02*
X0192015Y0028136D01*
X0190835Y0029315D02*
X0150766Y0029315D01*
X0150813Y0030495D02*
X0189656Y0030495D01*
X0188476Y0031674D02*
X0150467Y0031674D01*
X0149564Y0032854D02*
X0187296Y0032854D01*
X0187395Y0035274D02*
X0133114Y0035274D01*
X0132622Y0035766D01*
X0130402Y0035766D01*
X0129910Y0035274D01*
X0084571Y0035274D01*
X0077378Y0042467D01*
X0079159Y0043471D02*
X0106854Y0043471D01*
X0106868Y0043438D02*
X0106372Y0043232D01*
X0105618Y0042478D01*
X0105210Y0041494D01*
X0105210Y0040428D01*
X0105618Y0039443D01*
X0106372Y0038689D01*
X0107357Y0038281D01*
X0108423Y0038281D01*
X0109408Y0038689D01*
X0109898Y0039180D01*
X0211470Y0039180D01*
X0211687Y0038962D01*
X0212672Y0038554D01*
X0213738Y0038554D01*
X0214723Y0038962D01*
X0215476Y0039716D01*
X0215884Y0040701D01*
X0215884Y0041767D01*
X0215733Y0042132D01*
X0218086Y0042132D01*
X0218577Y0041642D01*
X0219561Y0041234D01*
X0220627Y0041234D01*
X0221612Y0041642D01*
X0222366Y0042396D01*
X0222774Y0043380D01*
X0222774Y0044446D01*
X0222366Y0045431D01*
X0221612Y0046185D01*
X0220627Y0046593D01*
X0219561Y0046593D01*
X0218577Y0046185D01*
X0218086Y0045694D01*
X0137000Y0045694D01*
X0138359Y0047054D01*
X0179700Y0047054D01*
X0180191Y0046563D01*
X0181176Y0046155D01*
X0182242Y0046155D01*
X0183226Y0046563D01*
X0183980Y0047317D01*
X0184388Y0048302D01*
X0184388Y0049368D01*
X0183980Y0050352D01*
X0183226Y0051106D01*
X0182242Y0051514D01*
X0181176Y0051514D01*
X0180191Y0051106D01*
X0179700Y0050616D01*
X0172405Y0050616D01*
X0172663Y0051237D01*
X0172663Y0052337D01*
X0172242Y0053354D01*
X0171464Y0054132D01*
X0170448Y0054553D01*
X0147694Y0054553D01*
X0146678Y0054132D01*
X0145900Y0053354D01*
X0145479Y0052337D01*
X0145479Y0051237D01*
X0145736Y0050616D01*
X0138359Y0050616D01*
X0136350Y0052625D01*
X0133209Y0052625D01*
X0130989Y0050405D01*
X0130989Y0047265D01*
X0132559Y0045694D01*
X0111734Y0045694D01*
X0111542Y0046158D01*
X0110788Y0046912D01*
X0109803Y0047320D01*
X0108737Y0047320D01*
X0107752Y0046912D01*
X0106998Y0046158D01*
X0106591Y0045173D01*
X0106591Y0044107D01*
X0106868Y0043438D01*
X0106591Y0044650D02*
X0079159Y0044650D01*
X0079159Y0045830D02*
X0079852Y0045830D01*
X0082778Y0045830D02*
X0085180Y0045830D01*
X0084000Y0047009D02*
X0083957Y0047009D01*
X0080072Y0042291D02*
X0105541Y0042291D01*
X0105210Y0041111D02*
X0081252Y0041111D01*
X0082432Y0039932D02*
X0105416Y0039932D01*
X0106309Y0038752D02*
X0083611Y0038752D01*
X0084791Y0037572D02*
X0223047Y0037572D01*
X0223047Y0036393D02*
X0188795Y0036393D01*
X0189975Y0035213D02*
X0223047Y0035213D01*
X0223047Y0034034D02*
X0191154Y0034034D01*
X0192334Y0032854D02*
X0223047Y0032854D01*
X0223047Y0031674D02*
X0193514Y0031674D01*
X0194693Y0030495D02*
X0223047Y0030495D01*
X0223047Y0029315D02*
X0195873Y0029315D01*
X0197053Y0028136D02*
X0223047Y0028136D01*
X0223047Y0026956D02*
X0207377Y0026956D01*
X0207997Y0025776D02*
X0223047Y0025776D01*
X0223047Y0024597D02*
X0207976Y0024597D01*
X0207325Y0023417D02*
X0223047Y0023417D01*
X0223047Y0022238D02*
X0204874Y0022238D01*
X0203695Y0021058D02*
X0223047Y0021058D01*
X0223047Y0019878D02*
X0202515Y0019878D01*
X0201336Y0018699D02*
X0223047Y0018699D01*
X0223047Y0017519D02*
X0200156Y0017519D01*
X0198976Y0016339D02*
X0223047Y0016339D01*
X0223047Y0015160D02*
X0197797Y0015160D01*
X0196617Y0013980D02*
X0223047Y0013980D01*
X0223047Y0012801D02*
X0195438Y0012801D01*
X0194258Y0011621D02*
X0223047Y0011621D01*
X0223047Y0010441D02*
X0193078Y0010441D01*
X0191899Y0009262D02*
X0223047Y0009262D01*
X0205331Y0025213D02*
X0189252Y0009134D01*
X0134795Y0009134D01*
X0133480Y0010449D01*
X0135895Y0011621D02*
X0189220Y0011621D01*
X0190400Y0012801D02*
X0134805Y0012801D01*
X0134162Y0013980D02*
X0191579Y0013980D01*
X0192759Y0015160D02*
X0135342Y0015160D01*
X0136521Y0016339D02*
X0193939Y0016339D01*
X0195118Y0017519D02*
X0137701Y0017519D01*
X0131942Y0029315D02*
X0129091Y0029315D01*
X0127912Y0030495D02*
X0131896Y0030495D01*
X0132241Y0031674D02*
X0126732Y0031674D01*
X0125553Y0032854D02*
X0133145Y0032854D01*
X0132424Y0045830D02*
X0111678Y0045830D01*
X0110552Y0047009D02*
X0131244Y0047009D01*
X0130989Y0048189D02*
X0098570Y0048189D01*
X0098570Y0049369D02*
X0130989Y0049369D01*
X0131132Y0050548D02*
X0098427Y0050548D01*
X0097247Y0051728D02*
X0132312Y0051728D01*
X0132337Y0055267D02*
X0097222Y0055267D01*
X0098401Y0056446D02*
X0124334Y0056446D01*
X0123154Y0057626D02*
X0098570Y0057626D01*
X0098570Y0058806D02*
X0121975Y0058806D01*
X0120795Y0059985D02*
X0098340Y0059985D01*
X0093837Y0054087D02*
X0146633Y0054087D01*
X0145715Y0052907D02*
X0093706Y0052907D01*
X0091244Y0047009D02*
X0091071Y0047009D01*
X0089891Y0045830D02*
X0092424Y0045830D01*
X0097135Y0045830D02*
X0106862Y0045830D01*
X0107988Y0047009D02*
X0098315Y0047009D01*
X0109270Y0044640D02*
X0109270Y0043913D01*
X0220094Y0043913D01*
X0218221Y0045830D02*
X0137135Y0045830D01*
X0138315Y0047009D02*
X0179744Y0047009D01*
X0181709Y0048835D02*
X0134780Y0048835D01*
X0137247Y0051728D02*
X0145479Y0051728D01*
X0132067Y0060833D02*
X0131200Y0059966D01*
X0125852Y0059966D01*
X0122958Y0062860D01*
X0122466Y0063352D01*
X0122426Y0063392D01*
X0123007Y0063392D01*
X0123104Y0063295D01*
X0124089Y0062887D01*
X0125155Y0062887D01*
X0126140Y0063295D01*
X0126894Y0064049D01*
X0127302Y0065034D01*
X0127302Y0065290D01*
X0130715Y0061876D01*
X0131758Y0060833D01*
X0132067Y0060833D01*
X0131427Y0061165D02*
X0124653Y0061165D01*
X0123474Y0062344D02*
X0130247Y0062344D01*
X0129067Y0063524D02*
X0126369Y0063524D01*
X0127165Y0064704D02*
X0127888Y0064704D01*
X0125833Y0059985D02*
X0131219Y0059985D01*
X0122466Y0063352D02*
X0122466Y0063352D01*
X0106018Y0072961D02*
X0103015Y0072961D01*
X0102626Y0074141D02*
X0104937Y0074141D01*
X0091228Y0099685D02*
X0019961Y0099685D01*
X0019961Y0102696D01*
X0018662Y0105830D01*
X0016264Y0108229D01*
X0013129Y0109528D01*
X0009737Y0109528D01*
X0009134Y0109278D01*
X0009134Y0166541D01*
X0009737Y0166291D01*
X0013129Y0166291D01*
X0013941Y0166627D01*
X0013941Y0166007D01*
X0014658Y0164274D01*
X0015985Y0162947D01*
X0017718Y0162229D01*
X0023821Y0162229D01*
X0037723Y0148328D01*
X0038997Y0147054D01*
X0044350Y0147054D01*
X0045965Y0145438D01*
X0049106Y0145438D01*
X0051326Y0147658D01*
X0051326Y0150798D01*
X0049106Y0153019D01*
X0045965Y0153019D01*
X0044350Y0151403D01*
X0040798Y0151403D01*
X0028816Y0163386D01*
X0029704Y0164274D01*
X0030422Y0166007D01*
X0030422Y0167883D01*
X0029704Y0169616D01*
X0028377Y0170943D01*
X0026644Y0171660D01*
X0019355Y0171660D01*
X0019961Y0173123D01*
X0019961Y0176134D01*
X0050421Y0176134D01*
X0050176Y0175888D01*
X0049751Y0175304D01*
X0049423Y0174660D01*
X0049200Y0173973D01*
X0049087Y0173259D01*
X0049087Y0170307D01*
X0053268Y0170307D01*
X0053268Y0169488D01*
X0054087Y0169488D01*
X0054087Y0170307D01*
X0058268Y0170307D01*
X0058268Y0173259D01*
X0058155Y0173973D01*
X0057931Y0174660D01*
X0057603Y0175304D01*
X0057179Y0175888D01*
X0056933Y0176134D01*
X0060987Y0176134D01*
X0060125Y0175271D01*
X0059487Y0173731D01*
X0059487Y0166064D01*
X0060125Y0164524D01*
X0061303Y0163345D01*
X0062844Y0162707D01*
X0063349Y0162707D01*
X0073628Y0152428D01*
X0074672Y0151384D01*
X0075744Y0151384D01*
X0075106Y0150746D01*
X0074698Y0149761D01*
X0074698Y0148695D01*
X0075106Y0147711D01*
X0075597Y0147220D01*
X0075597Y0133528D01*
X0051326Y0157799D01*
X0051326Y0160641D01*
X0049106Y0162861D01*
X0045965Y0162861D01*
X0043745Y0160641D01*
X0043745Y0157501D01*
X0045965Y0155280D01*
X0048807Y0155280D01*
X0081680Y0122408D01*
X0082209Y0121878D01*
X0081361Y0121878D01*
X0079628Y0121160D01*
X0078302Y0119834D01*
X0077584Y0118101D01*
X0077584Y0109175D01*
X0078302Y0107442D01*
X0079628Y0106115D01*
X0081361Y0105397D01*
X0083237Y0105397D01*
X0084848Y0106065D01*
X0090941Y0099972D01*
X0090941Y0099972D01*
X0091228Y0099685D01*
X0090821Y0100092D02*
X0019961Y0100092D01*
X0019961Y0101272D02*
X0089641Y0101272D01*
X0088461Y0102451D02*
X0019961Y0102451D01*
X0019573Y0103631D02*
X0087282Y0103631D01*
X0086102Y0104810D02*
X0019085Y0104810D01*
X0018503Y0105990D02*
X0020875Y0105990D01*
X0020573Y0106115D02*
X0022306Y0105397D01*
X0024182Y0105397D01*
X0025915Y0106115D01*
X0027242Y0107442D01*
X0027960Y0109175D01*
X0027960Y0118101D01*
X0027242Y0119834D01*
X0025915Y0121160D01*
X0024182Y0121878D01*
X0022306Y0121878D01*
X0020573Y0121160D01*
X0019246Y0119834D01*
X0018529Y0118101D01*
X0018529Y0109175D01*
X0019246Y0107442D01*
X0020573Y0106115D01*
X0019518Y0107170D02*
X0017323Y0107170D01*
X0015974Y0108349D02*
X0018870Y0108349D01*
X0018529Y0109529D02*
X0009134Y0109529D01*
X0009134Y0110709D02*
X0018529Y0110709D01*
X0018529Y0111888D02*
X0009134Y0111888D01*
X0009134Y0113068D02*
X0018529Y0113068D01*
X0018529Y0114247D02*
X0009134Y0114247D01*
X0009134Y0115427D02*
X0018529Y0115427D01*
X0018529Y0116607D02*
X0009134Y0116607D01*
X0009134Y0117786D02*
X0018529Y0117786D01*
X0018887Y0118966D02*
X0009134Y0118966D01*
X0009134Y0120145D02*
X0019558Y0120145D01*
X0020970Y0121325D02*
X0009134Y0121325D01*
X0009134Y0122505D02*
X0040754Y0122505D01*
X0040754Y0121366D02*
X0040258Y0121160D01*
X0038931Y0119834D01*
X0038214Y0118101D01*
X0038214Y0109175D01*
X0038931Y0107442D01*
X0040258Y0106115D01*
X0041991Y0105397D01*
X0043867Y0105397D01*
X0045600Y0106115D01*
X0046927Y0107442D01*
X0047645Y0109175D01*
X0047645Y0118101D01*
X0046927Y0119834D01*
X0045600Y0121160D01*
X0045104Y0121366D01*
X0045104Y0133879D01*
X0046821Y0135595D01*
X0049106Y0135595D01*
X0051326Y0137816D01*
X0051326Y0140956D01*
X0049106Y0143176D01*
X0045965Y0143176D01*
X0043745Y0140956D01*
X0043745Y0138671D01*
X0042028Y0136954D01*
X0040754Y0135680D01*
X0040754Y0121366D01*
X0040655Y0121325D02*
X0025518Y0121325D01*
X0026930Y0120145D02*
X0039243Y0120145D01*
X0038572Y0118966D02*
X0027601Y0118966D01*
X0027960Y0117786D02*
X0038214Y0117786D01*
X0038214Y0116607D02*
X0027960Y0116607D01*
X0027960Y0115427D02*
X0038214Y0115427D01*
X0038214Y0114247D02*
X0027960Y0114247D01*
X0027960Y0113068D02*
X0038214Y0113068D01*
X0038214Y0111888D02*
X0027960Y0111888D01*
X0027960Y0110709D02*
X0038214Y0110709D01*
X0038214Y0109529D02*
X0027960Y0109529D01*
X0027618Y0108349D02*
X0038556Y0108349D01*
X0039203Y0107170D02*
X0026970Y0107170D01*
X0025613Y0105990D02*
X0040560Y0105990D01*
X0045298Y0105990D02*
X0059585Y0105990D01*
X0059282Y0106211D02*
X0059933Y0105738D01*
X0060650Y0105372D01*
X0061416Y0105123D01*
X0062030Y0105026D01*
X0062030Y0113053D01*
X0063199Y0113053D01*
X0063199Y0114222D01*
X0067730Y0114222D01*
X0067730Y0117565D01*
X0067604Y0118361D01*
X0067355Y0119126D01*
X0066989Y0119844D01*
X0066516Y0120495D01*
X0065947Y0121065D01*
X0065295Y0121538D01*
X0064578Y0121904D01*
X0063812Y0122152D01*
X0063199Y0122250D01*
X0063199Y0114222D01*
X0062030Y0114222D01*
X0062030Y0113053D01*
X0057499Y0113053D01*
X0057499Y0109710D01*
X0057625Y0108915D01*
X0057873Y0108149D01*
X0058239Y0107432D01*
X0058712Y0106780D01*
X0059282Y0106211D01*
X0058429Y0107170D02*
X0046655Y0107170D01*
X0047303Y0108349D02*
X0057808Y0108349D01*
X0057527Y0109529D02*
X0047645Y0109529D01*
X0047645Y0110709D02*
X0057499Y0110709D01*
X0057499Y0111888D02*
X0047645Y0111888D01*
X0047645Y0113068D02*
X0062030Y0113068D01*
X0062030Y0114222D02*
X0057499Y0114222D01*
X0057499Y0117565D01*
X0057625Y0118361D01*
X0057873Y0119126D01*
X0058239Y0119844D01*
X0058712Y0120495D01*
X0059282Y0121065D01*
X0059933Y0121538D01*
X0060650Y0121904D01*
X0061416Y0122152D01*
X0062030Y0122250D01*
X0062030Y0114222D01*
X0062030Y0114247D02*
X0063199Y0114247D01*
X0063199Y0113068D02*
X0077584Y0113068D01*
X0077584Y0114247D02*
X0067730Y0114247D01*
X0067730Y0115427D02*
X0077584Y0115427D01*
X0077584Y0116607D02*
X0067730Y0116607D01*
X0067695Y0117786D02*
X0077584Y0117786D01*
X0077942Y0118966D02*
X0067407Y0118966D01*
X0066770Y0120145D02*
X0078613Y0120145D01*
X0080026Y0121325D02*
X0065588Y0121325D01*
X0063199Y0121325D02*
X0062030Y0121325D01*
X0062030Y0120145D02*
X0063199Y0120145D01*
X0063199Y0118966D02*
X0062030Y0118966D01*
X0062030Y0117786D02*
X0063199Y0117786D01*
X0063199Y0116607D02*
X0062030Y0116607D01*
X0062030Y0115427D02*
X0063199Y0115427D01*
X0063199Y0113053D02*
X0067730Y0113053D01*
X0067730Y0109710D01*
X0067604Y0108915D01*
X0067355Y0108149D01*
X0066989Y0107432D01*
X0066516Y0106780D01*
X0065947Y0106211D01*
X0065295Y0105738D01*
X0064578Y0105372D01*
X0063812Y0105123D01*
X0063199Y0105026D01*
X0063199Y0113053D01*
X0063199Y0111888D02*
X0062030Y0111888D01*
X0062030Y0110709D02*
X0063199Y0110709D01*
X0063199Y0109529D02*
X0062030Y0109529D01*
X0062030Y0108349D02*
X0063199Y0108349D01*
X0063199Y0107170D02*
X0062030Y0107170D01*
X0062030Y0105990D02*
X0063199Y0105990D01*
X0065643Y0105990D02*
X0079930Y0105990D01*
X0078574Y0107170D02*
X0066799Y0107170D01*
X0067420Y0108349D02*
X0077926Y0108349D01*
X0077584Y0109529D02*
X0067701Y0109529D01*
X0067730Y0110709D02*
X0077584Y0110709D01*
X0077584Y0111888D02*
X0067730Y0111888D01*
X0057821Y0118966D02*
X0047286Y0118966D01*
X0047645Y0117786D02*
X0057534Y0117786D01*
X0057499Y0116607D02*
X0047645Y0116607D01*
X0047645Y0115427D02*
X0057499Y0115427D01*
X0057499Y0114247D02*
X0047645Y0114247D01*
X0046615Y0120145D02*
X0058458Y0120145D01*
X0059640Y0121325D02*
X0045203Y0121325D01*
X0045104Y0122505D02*
X0081583Y0122505D01*
X0080403Y0123684D02*
X0045104Y0123684D01*
X0045104Y0124864D02*
X0079224Y0124864D01*
X0078044Y0126044D02*
X0045104Y0126044D01*
X0045104Y0127223D02*
X0076864Y0127223D01*
X0075685Y0128403D02*
X0045104Y0128403D01*
X0045104Y0129582D02*
X0074505Y0129582D01*
X0073325Y0130762D02*
X0045104Y0130762D01*
X0045104Y0131942D02*
X0072146Y0131942D01*
X0070966Y0133121D02*
X0045104Y0133121D01*
X0045526Y0134301D02*
X0069787Y0134301D01*
X0068607Y0135480D02*
X0046706Y0135480D01*
X0042914Y0137840D02*
X0009134Y0137840D01*
X0009134Y0139019D02*
X0043745Y0139019D01*
X0043745Y0140199D02*
X0009134Y0140199D01*
X0009134Y0141378D02*
X0044167Y0141378D01*
X0045347Y0142558D02*
X0027746Y0142558D01*
X0027670Y0142519D02*
X0028387Y0142885D01*
X0029039Y0143358D01*
X0029608Y0143927D01*
X0030081Y0144579D01*
X0030447Y0145296D01*
X0030696Y0146062D01*
X0030793Y0146675D01*
X0022766Y0146675D01*
X0022766Y0147844D01*
X0030793Y0147844D01*
X0030696Y0148458D01*
X0030447Y0149224D01*
X0030081Y0149941D01*
X0029608Y0150592D01*
X0029039Y0151162D01*
X0028387Y0151635D01*
X0027670Y0152001D01*
X0026904Y0152249D01*
X0026109Y0152375D01*
X0022766Y0152375D01*
X0022766Y0147844D01*
X0021597Y0147844D01*
X0021597Y0146675D01*
X0022766Y0146675D01*
X0022766Y0142144D01*
X0026109Y0142144D01*
X0026904Y0142270D01*
X0027670Y0142519D01*
X0029418Y0143738D02*
X0060350Y0143738D01*
X0059170Y0144917D02*
X0030254Y0144917D01*
X0030701Y0146097D02*
X0045306Y0146097D01*
X0049765Y0146097D02*
X0057990Y0146097D01*
X0056811Y0147277D02*
X0050944Y0147277D01*
X0051326Y0148456D02*
X0055631Y0148456D01*
X0054452Y0149636D02*
X0051326Y0149636D01*
X0051309Y0150815D02*
X0053272Y0150815D01*
X0052092Y0151995D02*
X0050129Y0151995D01*
X0050913Y0153175D02*
X0039027Y0153175D01*
X0037847Y0154354D02*
X0049733Y0154354D01*
X0052412Y0156713D02*
X0069342Y0156713D01*
X0070522Y0155534D02*
X0053591Y0155534D01*
X0054771Y0154354D02*
X0071702Y0154354D01*
X0072881Y0153175D02*
X0055951Y0153175D01*
X0057130Y0151995D02*
X0074061Y0151995D01*
X0075176Y0150815D02*
X0058310Y0150815D01*
X0059489Y0149636D02*
X0074698Y0149636D01*
X0074797Y0148456D02*
X0060669Y0148456D01*
X0061849Y0147277D02*
X0075540Y0147277D01*
X0075597Y0146097D02*
X0063028Y0146097D01*
X0064208Y0144917D02*
X0075597Y0144917D01*
X0075597Y0143738D02*
X0065387Y0143738D01*
X0066567Y0142558D02*
X0075597Y0142558D01*
X0075597Y0141378D02*
X0067747Y0141378D01*
X0068926Y0140199D02*
X0075597Y0140199D01*
X0075597Y0139019D02*
X0070106Y0139019D01*
X0071285Y0137840D02*
X0075597Y0137840D01*
X0075597Y0136660D02*
X0072465Y0136660D01*
X0073645Y0135480D02*
X0075597Y0135480D01*
X0075597Y0134301D02*
X0074824Y0134301D01*
X0077378Y0133018D02*
X0077378Y0149228D01*
X0075409Y0153165D02*
X0120685Y0153165D01*
X0121177Y0152673D01*
X0125114Y0148736D01*
X0134780Y0148736D01*
X0220094Y0148736D01*
X0222622Y0149636D02*
X0223047Y0149636D01*
X0222774Y0149269D02*
X0222366Y0150254D01*
X0221612Y0151008D01*
X0220627Y0151416D01*
X0219561Y0151416D01*
X0218577Y0151008D01*
X0218086Y0150517D01*
X0138359Y0150517D01*
X0137492Y0151384D01*
X0211974Y0151384D01*
X0213017Y0152428D01*
X0213044Y0152454D01*
X0213738Y0152454D01*
X0214723Y0152862D01*
X0215476Y0153616D01*
X0215884Y0154601D01*
X0215884Y0155667D01*
X0215476Y0156652D01*
X0214723Y0157405D01*
X0213738Y0157813D01*
X0212672Y0157813D01*
X0211687Y0157405D01*
X0210933Y0156652D01*
X0210525Y0155667D01*
X0210525Y0154973D01*
X0210498Y0154946D01*
X0133234Y0154946D01*
X0127880Y0160301D01*
X0126836Y0161344D01*
X0105183Y0161344D01*
X0102695Y0163831D01*
X0102695Y0164525D01*
X0102287Y0165510D01*
X0101534Y0166264D01*
X0100549Y0166672D01*
X0099483Y0166672D01*
X0098937Y0166445D01*
X0098994Y0166524D01*
X0099320Y0167163D01*
X0099541Y0167846D01*
X0099648Y0168520D01*
X0095488Y0168520D01*
X0095488Y0169307D01*
X0094701Y0169307D01*
X0094701Y0173467D01*
X0094027Y0173360D01*
X0093344Y0173138D01*
X0092705Y0172813D01*
X0092124Y0172391D01*
X0091617Y0171883D01*
X0091195Y0171303D01*
X0090869Y0170663D01*
X0090648Y0169981D01*
X0090541Y0169307D01*
X0094701Y0169307D01*
X0094701Y0168520D01*
X0090541Y0168520D01*
X0090648Y0167846D01*
X0090869Y0167163D01*
X0091195Y0166524D01*
X0091617Y0165943D01*
X0092124Y0165436D01*
X0092705Y0165014D01*
X0093344Y0164688D01*
X0094027Y0164467D01*
X0094701Y0164360D01*
X0094701Y0168520D01*
X0095488Y0168520D01*
X0095488Y0164360D01*
X0096162Y0164467D01*
X0096845Y0164688D01*
X0097484Y0165014D01*
X0097562Y0165071D01*
X0097336Y0164525D01*
X0097336Y0163459D01*
X0097744Y0162474D01*
X0098498Y0161721D01*
X0099483Y0161313D01*
X0100176Y0161313D01*
X0103196Y0158293D01*
X0098633Y0158293D01*
X0098570Y0158356D01*
X0098570Y0160641D01*
X0096350Y0162861D01*
X0093209Y0162861D01*
X0091157Y0160809D01*
X0089106Y0162861D01*
X0085965Y0162861D01*
X0083745Y0160641D01*
X0083745Y0157501D01*
X0085965Y0155280D01*
X0089106Y0155280D01*
X0091157Y0157332D01*
X0093209Y0155280D01*
X0095494Y0155280D01*
X0095557Y0155217D01*
X0095828Y0154946D01*
X0076147Y0154946D01*
X0066900Y0164194D01*
X0067230Y0164524D01*
X0067868Y0166064D01*
X0067868Y0173731D01*
X0067230Y0175271D01*
X0066367Y0176134D01*
X0105869Y0176134D01*
X0105006Y0175271D01*
X0104369Y0173731D01*
X0104369Y0166064D01*
X0105006Y0164524D01*
X0106185Y0163345D01*
X0107725Y0162707D01*
X0109393Y0162707D01*
X0110933Y0163345D01*
X0112112Y0164524D01*
X0112750Y0166064D01*
X0112750Y0173731D01*
X0112112Y0175271D01*
X0111249Y0176134D01*
X0115869Y0176134D01*
X0115006Y0175271D01*
X0114369Y0173731D01*
X0114369Y0166064D01*
X0115006Y0164524D01*
X0116185Y0163345D01*
X0117725Y0162707D01*
X0119393Y0162707D01*
X0120933Y0163345D01*
X0122112Y0164524D01*
X0122750Y0166064D01*
X0122750Y0173731D01*
X0122112Y0175271D01*
X0121249Y0176134D01*
X0125869Y0176134D01*
X0125006Y0175271D01*
X0124369Y0173731D01*
X0124369Y0166064D01*
X0125006Y0164524D01*
X0126185Y0163345D01*
X0127725Y0162707D01*
X0129393Y0162707D01*
X0130933Y0163345D01*
X0132112Y0164524D01*
X0132750Y0166064D01*
X0132750Y0173731D01*
X0132112Y0175271D01*
X0131249Y0176134D01*
X0135303Y0176134D01*
X0135058Y0175888D01*
X0134633Y0175304D01*
X0134305Y0174660D01*
X0134082Y0173973D01*
X0133969Y0173259D01*
X0133969Y0170307D01*
X0138150Y0170307D01*
X0138150Y0169488D01*
X0138969Y0169488D01*
X0138969Y0170307D01*
X0143150Y0170307D01*
X0143150Y0173259D01*
X0143037Y0173973D01*
X0142813Y0174660D01*
X0142485Y0175304D01*
X0142061Y0175888D01*
X0141815Y0176134D01*
X0145869Y0176134D01*
X0145006Y0175271D01*
X0144369Y0173731D01*
X0144369Y0166064D01*
X0145006Y0164524D01*
X0146185Y0163345D01*
X0146778Y0163100D01*
X0146778Y0158696D01*
X0138570Y0158696D01*
X0138570Y0160641D01*
X0136350Y0162861D01*
X0133209Y0162861D01*
X0130989Y0160641D01*
X0130989Y0157501D01*
X0133209Y0155280D01*
X0136051Y0155280D01*
X0136198Y0155134D01*
X0190313Y0155134D01*
X0191297Y0155542D01*
X0192051Y0156296D01*
X0192459Y0157280D01*
X0192459Y0158346D01*
X0192051Y0159331D01*
X0191297Y0160085D01*
X0190917Y0160243D01*
X0202760Y0160243D01*
X0203059Y0159522D01*
X0203813Y0158768D01*
X0204798Y0158360D01*
X0205864Y0158360D01*
X0206849Y0158768D01*
X0207602Y0159522D01*
X0208010Y0160506D01*
X0208010Y0161572D01*
X0207602Y0162557D01*
X0206849Y0163311D01*
X0205864Y0163719D01*
X0205170Y0163719D01*
X0205084Y0163805D01*
X0169160Y0163805D01*
X0168117Y0162761D01*
X0168090Y0162735D01*
X0167396Y0162735D01*
X0166411Y0162327D01*
X0165658Y0161573D01*
X0165250Y0160588D01*
X0165250Y0159522D01*
X0165592Y0158696D01*
X0150340Y0158696D01*
X0150340Y0163100D01*
X0150933Y0163345D01*
X0152112Y0164524D01*
X0152750Y0166064D01*
X0152750Y0173731D01*
X0152112Y0175271D01*
X0151249Y0176134D01*
X0223047Y0176134D01*
X0223047Y0099685D01*
X0191771Y0099685D01*
X0205170Y0113084D01*
X0205864Y0113084D01*
X0206849Y0113492D01*
X0207602Y0114246D01*
X0208010Y0115231D01*
X0208010Y0116297D01*
X0207602Y0117282D01*
X0206849Y0118035D01*
X0205864Y0118443D01*
X0204798Y0118443D01*
X0203813Y0118035D01*
X0203059Y0117282D01*
X0202651Y0116297D01*
X0202651Y0115603D01*
X0188514Y0101466D01*
X0136160Y0101466D01*
X0136160Y0101533D01*
X0135752Y0102518D01*
X0134998Y0103272D01*
X0134013Y0103680D01*
X0133310Y0103680D01*
X0143367Y0113736D01*
X0144366Y0114736D01*
X0144907Y0116041D01*
X0144907Y0117132D01*
X0147967Y0117132D01*
X0149272Y0117673D01*
X0150272Y0118673D01*
X0150813Y0119978D01*
X0150813Y0121392D01*
X0150272Y0122698D01*
X0149272Y0123697D01*
X0148434Y0124044D01*
X0186658Y0124044D01*
X0194777Y0115924D01*
X0194777Y0115231D01*
X0195185Y0114246D01*
X0195939Y0113492D01*
X0196924Y0113084D01*
X0197990Y0113084D01*
X0198975Y0113492D01*
X0199728Y0114246D01*
X0200136Y0115231D01*
X0200136Y0116297D01*
X0199728Y0117282D01*
X0198975Y0118035D01*
X0197990Y0118443D01*
X0197296Y0118443D01*
X0189176Y0126563D01*
X0188133Y0127606D01*
X0133852Y0127606D01*
X0133359Y0128098D01*
X0129664Y0128098D01*
X0129172Y0127606D01*
X0085308Y0127606D01*
X0079159Y0133756D01*
X0079159Y0137074D01*
X0080006Y0136227D01*
X0082623Y0136227D01*
X0083979Y0137582D01*
X0085965Y0135595D01*
X0089106Y0135595D01*
X0091157Y0137647D01*
X0093209Y0135595D01*
X0096350Y0135595D01*
X0098570Y0137816D01*
X0098570Y0140956D01*
X0096350Y0143176D01*
X0093589Y0143176D01*
X0093837Y0143774D01*
X0093837Y0144840D01*
X0093793Y0144946D01*
X0096350Y0144946D01*
X0098570Y0147166D01*
X0098570Y0150306D01*
X0097492Y0151384D01*
X0119947Y0151384D01*
X0120439Y0150892D01*
X0120439Y0150892D01*
X0123333Y0147998D01*
X0124376Y0146955D01*
X0131200Y0146955D01*
X0133209Y0144946D01*
X0136350Y0144946D01*
X0138359Y0146955D01*
X0218086Y0146955D01*
X0218577Y0146465D01*
X0219561Y0146057D01*
X0220627Y0146057D01*
X0221612Y0146465D01*
X0222366Y0147218D01*
X0222774Y0148203D01*
X0222774Y0149269D01*
X0222774Y0148456D02*
X0223047Y0148456D01*
X0223047Y0147277D02*
X0222390Y0147277D01*
X0223047Y0146097D02*
X0220725Y0146097D01*
X0219464Y0146097D02*
X0137501Y0146097D01*
X0136350Y0143176D02*
X0138359Y0141167D01*
X0145736Y0141167D01*
X0145479Y0141789D01*
X0145479Y0142889D01*
X0145900Y0143905D01*
X0146678Y0144683D01*
X0147694Y0145104D01*
X0170448Y0145104D01*
X0171464Y0144683D01*
X0172242Y0143905D01*
X0172663Y0142889D01*
X0172663Y0141789D01*
X0172405Y0141167D01*
X0179700Y0141167D01*
X0180191Y0141657D01*
X0181176Y0142065D01*
X0182242Y0142065D01*
X0183226Y0141657D01*
X0183980Y0140904D01*
X0184388Y0139919D01*
X0184388Y0138853D01*
X0183980Y0137868D01*
X0183226Y0137114D01*
X0182242Y0136706D01*
X0181176Y0136706D01*
X0180191Y0137114D01*
X0179700Y0137605D01*
X0138359Y0137605D01*
X0137000Y0136246D01*
X0218086Y0136246D01*
X0218577Y0136736D01*
X0219561Y0137144D01*
X0220627Y0137144D01*
X0221612Y0136736D01*
X0222366Y0135982D01*
X0222774Y0134998D01*
X0222774Y0133932D01*
X0222366Y0132947D01*
X0221612Y0132193D01*
X0220627Y0131785D01*
X0219561Y0131785D01*
X0218577Y0132193D01*
X0218086Y0132683D01*
X0215733Y0132683D01*
X0215884Y0132318D01*
X0215884Y0131252D01*
X0215476Y0130267D01*
X0214723Y0129513D01*
X0213738Y0129106D01*
X0212672Y0129106D01*
X0211687Y0129513D01*
X0211470Y0129731D01*
X0109898Y0129731D01*
X0109408Y0129240D01*
X0108423Y0128832D01*
X0107357Y0128832D01*
X0106372Y0129240D01*
X0105618Y0129994D01*
X0105210Y0130979D01*
X0105210Y0132045D01*
X0105618Y0133030D01*
X0106372Y0133783D01*
X0106868Y0133989D01*
X0106591Y0134658D01*
X0106591Y0135724D01*
X0106998Y0136709D01*
X0107752Y0137463D01*
X0108737Y0137871D01*
X0109803Y0137871D01*
X0110788Y0137463D01*
X0111542Y0136709D01*
X0111734Y0136246D01*
X0132559Y0136246D01*
X0130989Y0137816D01*
X0130989Y0140956D01*
X0133209Y0143176D01*
X0136350Y0143176D01*
X0136968Y0142558D02*
X0145479Y0142558D01*
X0145649Y0141378D02*
X0138147Y0141378D01*
X0134780Y0139386D02*
X0181709Y0139386D01*
X0183505Y0141378D02*
X0223047Y0141378D01*
X0223047Y0140199D02*
X0184272Y0140199D01*
X0184388Y0139019D02*
X0223047Y0139019D01*
X0223047Y0137840D02*
X0183952Y0137840D01*
X0179912Y0141378D02*
X0172493Y0141378D01*
X0172663Y0142558D02*
X0223047Y0142558D01*
X0223047Y0143738D02*
X0172311Y0143738D01*
X0170898Y0144917D02*
X0223047Y0144917D01*
X0223047Y0150815D02*
X0221805Y0150815D01*
X0223047Y0151995D02*
X0212585Y0151995D01*
X0211236Y0153165D02*
X0132496Y0153165D01*
X0126098Y0159563D01*
X0104445Y0159563D01*
X0100016Y0163992D01*
X0102511Y0164971D02*
X0104821Y0164971D01*
X0104369Y0166150D02*
X0101647Y0166150D01*
X0099374Y0167330D02*
X0104369Y0167330D01*
X0104369Y0168510D02*
X0099646Y0168510D01*
X0099648Y0169307D02*
X0099541Y0169981D01*
X0099320Y0170663D01*
X0098994Y0171303D01*
X0098572Y0171883D01*
X0098065Y0172391D01*
X0097484Y0172813D01*
X0096845Y0173138D01*
X0096162Y0173360D01*
X0095488Y0173467D01*
X0095488Y0169307D01*
X0099648Y0169307D01*
X0099587Y0169689D02*
X0104369Y0169689D01*
X0104369Y0170869D02*
X0099215Y0170869D01*
X0098407Y0172048D02*
X0104369Y0172048D01*
X0104369Y0173228D02*
X0096569Y0173228D01*
X0095488Y0173228D02*
X0094701Y0173228D01*
X0093620Y0173228D02*
X0067868Y0173228D01*
X0067868Y0172048D02*
X0072663Y0172048D01*
X0073054Y0172439D02*
X0071884Y0171269D01*
X0071250Y0169741D01*
X0071250Y0168086D01*
X0071884Y0166557D01*
X0073054Y0165388D01*
X0074582Y0164754D01*
X0076237Y0164754D01*
X0077765Y0165388D01*
X0078935Y0166557D01*
X0079568Y0168086D01*
X0079568Y0169741D01*
X0078935Y0171269D01*
X0077765Y0172439D01*
X0076237Y0173072D01*
X0074582Y0173072D01*
X0073054Y0172439D01*
X0071718Y0170869D02*
X0067868Y0170869D01*
X0067868Y0169689D02*
X0071250Y0169689D01*
X0071250Y0168510D02*
X0067868Y0168510D01*
X0067868Y0167330D02*
X0071564Y0167330D01*
X0072291Y0166150D02*
X0067868Y0166150D01*
X0067415Y0164971D02*
X0074060Y0164971D01*
X0076759Y0164971D02*
X0083902Y0164971D01*
X0084425Y0164754D02*
X0082896Y0165388D01*
X0081726Y0166557D01*
X0081093Y0168086D01*
X0081093Y0169741D01*
X0081726Y0171269D01*
X0082896Y0172439D01*
X0084425Y0173072D01*
X0086079Y0173072D01*
X0087608Y0172439D01*
X0088778Y0171269D01*
X0089411Y0169741D01*
X0089411Y0168086D01*
X0088778Y0166557D01*
X0087608Y0165388D01*
X0086079Y0164754D01*
X0084425Y0164754D01*
X0086602Y0164971D02*
X0092790Y0164971D01*
X0091467Y0166150D02*
X0088371Y0166150D01*
X0089098Y0167330D02*
X0090815Y0167330D01*
X0090543Y0168510D02*
X0089411Y0168510D01*
X0089411Y0169689D02*
X0090601Y0169689D01*
X0090974Y0170869D02*
X0088944Y0170869D01*
X0087999Y0172048D02*
X0091782Y0172048D01*
X0094701Y0172048D02*
X0095488Y0172048D01*
X0095488Y0170869D02*
X0094701Y0170869D01*
X0094701Y0169689D02*
X0095488Y0169689D01*
X0095488Y0168510D02*
X0094701Y0168510D01*
X0094701Y0167330D02*
X0095488Y0167330D01*
X0095488Y0166150D02*
X0094701Y0166150D01*
X0094701Y0164971D02*
X0095488Y0164971D01*
X0097399Y0164971D02*
X0097521Y0164971D01*
X0097336Y0163791D02*
X0067302Y0163791D01*
X0068482Y0162612D02*
X0085715Y0162612D01*
X0084536Y0161432D02*
X0069662Y0161432D01*
X0070841Y0160252D02*
X0083745Y0160252D01*
X0083745Y0159073D02*
X0072021Y0159073D01*
X0073201Y0157893D02*
X0083745Y0157893D01*
X0084532Y0156713D02*
X0074380Y0156713D01*
X0075560Y0155534D02*
X0085712Y0155534D01*
X0089359Y0155534D02*
X0092956Y0155534D01*
X0091776Y0156713D02*
X0090539Y0156713D01*
X0090535Y0161432D02*
X0091780Y0161432D01*
X0092960Y0162612D02*
X0089355Y0162612D01*
X0096599Y0162612D02*
X0097687Y0162612D01*
X0097779Y0161432D02*
X0099195Y0161432D01*
X0098570Y0160252D02*
X0101237Y0160252D01*
X0102416Y0159073D02*
X0098570Y0159073D01*
X0102736Y0163791D02*
X0105739Y0163791D01*
X0103915Y0162612D02*
X0132960Y0162612D01*
X0131780Y0161432D02*
X0105095Y0161432D01*
X0111379Y0163791D02*
X0115739Y0163791D01*
X0114821Y0164971D02*
X0112297Y0164971D01*
X0112750Y0166150D02*
X0114369Y0166150D01*
X0114369Y0167330D02*
X0112750Y0167330D01*
X0112750Y0168510D02*
X0114369Y0168510D01*
X0114369Y0169689D02*
X0112750Y0169689D01*
X0112750Y0170869D02*
X0114369Y0170869D01*
X0114369Y0172048D02*
X0112750Y0172048D01*
X0112750Y0173228D02*
X0114369Y0173228D01*
X0114649Y0174408D02*
X0112469Y0174408D01*
X0111796Y0175587D02*
X0115322Y0175587D01*
X0121796Y0175587D02*
X0125322Y0175587D01*
X0124649Y0174408D02*
X0122469Y0174408D01*
X0122750Y0173228D02*
X0124369Y0173228D01*
X0124369Y0172048D02*
X0122750Y0172048D01*
X0122750Y0170869D02*
X0124369Y0170869D01*
X0124369Y0169689D02*
X0122750Y0169689D01*
X0122750Y0168510D02*
X0124369Y0168510D01*
X0124369Y0167330D02*
X0122750Y0167330D01*
X0122750Y0166150D02*
X0124369Y0166150D01*
X0124821Y0164971D02*
X0122297Y0164971D01*
X0121379Y0163791D02*
X0125739Y0163791D01*
X0127928Y0160252D02*
X0130989Y0160252D01*
X0130989Y0159073D02*
X0129108Y0159073D01*
X0130287Y0157893D02*
X0130989Y0157893D01*
X0131467Y0156713D02*
X0131776Y0156713D01*
X0132646Y0155534D02*
X0132956Y0155534D01*
X0129968Y0153175D02*
X0123195Y0153175D01*
X0122958Y0153411D02*
X0122958Y0153411D01*
X0122466Y0153903D01*
X0122426Y0153943D01*
X0123007Y0153943D01*
X0123104Y0153847D01*
X0124089Y0153439D01*
X0125155Y0153439D01*
X0126140Y0153847D01*
X0126894Y0154600D01*
X0127302Y0155585D01*
X0127302Y0155841D01*
X0130715Y0152428D01*
X0131758Y0151384D01*
X0132067Y0151384D01*
X0131200Y0150517D01*
X0125852Y0150517D01*
X0122958Y0153411D01*
X0122466Y0153903D02*
X0122466Y0153903D01*
X0124374Y0151995D02*
X0131148Y0151995D01*
X0131498Y0150815D02*
X0125554Y0150815D01*
X0122875Y0148456D02*
X0098570Y0148456D01*
X0098570Y0147277D02*
X0124055Y0147277D01*
X0123333Y0147998D02*
X0123333Y0147998D01*
X0121696Y0149636D02*
X0098570Y0149636D01*
X0098061Y0150815D02*
X0120516Y0150815D01*
X0126648Y0154354D02*
X0128788Y0154354D01*
X0127609Y0155534D02*
X0127280Y0155534D01*
X0131379Y0163791D02*
X0135174Y0163791D01*
X0135058Y0163907D02*
X0135569Y0163396D01*
X0136153Y0162971D01*
X0136797Y0162643D01*
X0137484Y0162420D01*
X0138150Y0162315D01*
X0138150Y0169488D01*
X0133969Y0169488D01*
X0133969Y0166536D01*
X0134082Y0165823D01*
X0134305Y0165135D01*
X0134633Y0164492D01*
X0135058Y0163907D01*
X0134389Y0164971D02*
X0132297Y0164971D01*
X0132750Y0166150D02*
X0134030Y0166150D01*
X0133969Y0167330D02*
X0132750Y0167330D01*
X0132750Y0168510D02*
X0133969Y0168510D01*
X0132750Y0169689D02*
X0138150Y0169689D01*
X0138969Y0169689D02*
X0144369Y0169689D01*
X0144369Y0168510D02*
X0143150Y0168510D01*
X0143150Y0169488D02*
X0138969Y0169488D01*
X0138969Y0162315D01*
X0139634Y0162420D01*
X0140321Y0162643D01*
X0140965Y0162971D01*
X0141550Y0163396D01*
X0142061Y0163907D01*
X0142485Y0164492D01*
X0142813Y0165135D01*
X0143037Y0165823D01*
X0143150Y0166536D01*
X0143150Y0169488D01*
X0143150Y0170869D02*
X0144369Y0170869D01*
X0144369Y0172048D02*
X0143150Y0172048D01*
X0143150Y0173228D02*
X0144369Y0173228D01*
X0144649Y0174408D02*
X0142895Y0174408D01*
X0142279Y0175587D02*
X0145322Y0175587D01*
X0151796Y0175587D02*
X0223047Y0175587D01*
X0223047Y0174408D02*
X0152469Y0174408D01*
X0152750Y0173228D02*
X0223047Y0173228D01*
X0223047Y0172048D02*
X0152750Y0172048D01*
X0152750Y0170869D02*
X0223047Y0170869D01*
X0223047Y0169689D02*
X0152750Y0169689D01*
X0152750Y0168510D02*
X0223047Y0168510D01*
X0223047Y0167330D02*
X0152750Y0167330D01*
X0152750Y0166150D02*
X0223047Y0166150D01*
X0223047Y0164971D02*
X0152297Y0164971D01*
X0151379Y0163791D02*
X0169146Y0163791D01*
X0169898Y0162024D02*
X0204346Y0162024D01*
X0205331Y0161039D01*
X0207153Y0159073D02*
X0223047Y0159073D01*
X0223047Y0160252D02*
X0207905Y0160252D01*
X0208010Y0161432D02*
X0223047Y0161432D01*
X0223047Y0162612D02*
X0207548Y0162612D01*
X0205098Y0163791D02*
X0223047Y0163791D01*
X0223047Y0157893D02*
X0192459Y0157893D01*
X0192224Y0156713D02*
X0210995Y0156713D01*
X0210525Y0155534D02*
X0191278Y0155534D01*
X0189780Y0157813D02*
X0188881Y0156915D01*
X0148244Y0156915D01*
X0148559Y0157230D01*
X0148559Y0169898D01*
X0144821Y0164971D02*
X0142729Y0164971D01*
X0143088Y0166150D02*
X0144369Y0166150D01*
X0144369Y0167330D02*
X0143150Y0167330D01*
X0141945Y0163791D02*
X0145739Y0163791D01*
X0146778Y0162612D02*
X0140223Y0162612D01*
X0138969Y0162612D02*
X0138150Y0162612D01*
X0138150Y0163791D02*
X0138969Y0163791D01*
X0138969Y0164971D02*
X0138150Y0164971D01*
X0138150Y0166150D02*
X0138969Y0166150D01*
X0138969Y0167330D02*
X0138150Y0167330D01*
X0138150Y0168510D02*
X0138969Y0168510D01*
X0134223Y0174408D02*
X0132469Y0174408D01*
X0132750Y0173228D02*
X0133969Y0173228D01*
X0133969Y0172048D02*
X0132750Y0172048D01*
X0132750Y0170869D02*
X0133969Y0170869D01*
X0134839Y0175587D02*
X0131796Y0175587D01*
X0136599Y0162612D02*
X0136895Y0162612D01*
X0137779Y0161432D02*
X0146778Y0161432D01*
X0146778Y0160252D02*
X0138570Y0160252D01*
X0138570Y0159073D02*
X0146778Y0159073D01*
X0148244Y0156915D02*
X0136935Y0156915D01*
X0134780Y0159071D01*
X0138061Y0150815D02*
X0218384Y0150815D01*
X0215035Y0153175D02*
X0223047Y0153175D01*
X0223047Y0154354D02*
X0215782Y0154354D01*
X0215884Y0155534D02*
X0223047Y0155534D01*
X0223047Y0156713D02*
X0215415Y0156713D01*
X0213205Y0155134D02*
X0211236Y0153165D01*
X0203508Y0159073D02*
X0192158Y0159073D01*
X0213205Y0131785D02*
X0212931Y0131512D01*
X0107890Y0131512D01*
X0109750Y0129582D02*
X0211618Y0129582D01*
X0214791Y0129582D02*
X0223047Y0129582D01*
X0223047Y0128403D02*
X0084512Y0128403D01*
X0083332Y0129582D02*
X0106030Y0129582D01*
X0105300Y0130762D02*
X0082153Y0130762D01*
X0080973Y0131942D02*
X0105210Y0131942D01*
X0105710Y0133121D02*
X0079793Y0133121D01*
X0079159Y0134301D02*
X0106739Y0134301D01*
X0106591Y0135480D02*
X0079159Y0135480D01*
X0079159Y0136660D02*
X0079573Y0136660D01*
X0083057Y0136660D02*
X0084901Y0136660D01*
X0090170Y0136660D02*
X0092145Y0136660D01*
X0096968Y0142558D02*
X0132591Y0142558D01*
X0131412Y0141378D02*
X0098147Y0141378D01*
X0098570Y0140199D02*
X0130989Y0140199D01*
X0130989Y0139019D02*
X0098570Y0139019D01*
X0098570Y0137840D02*
X0108661Y0137840D01*
X0109879Y0137840D02*
X0130989Y0137840D01*
X0132145Y0136660D02*
X0111562Y0136660D01*
X0109270Y0135191D02*
X0109270Y0134465D01*
X0220094Y0134465D01*
X0222574Y0135480D02*
X0223047Y0135480D01*
X0223047Y0134301D02*
X0222774Y0134301D01*
X0223047Y0133121D02*
X0222438Y0133121D01*
X0223047Y0131942D02*
X0221005Y0131942D01*
X0219184Y0131942D02*
X0215884Y0131942D01*
X0215681Y0130762D02*
X0223047Y0130762D01*
X0223047Y0127223D02*
X0188516Y0127223D01*
X0189696Y0126044D02*
X0223047Y0126044D01*
X0223047Y0124864D02*
X0190875Y0124864D01*
X0192055Y0123684D02*
X0223047Y0123684D01*
X0223047Y0122505D02*
X0193235Y0122505D01*
X0194414Y0121325D02*
X0223047Y0121325D01*
X0223047Y0120145D02*
X0195594Y0120145D01*
X0196773Y0118966D02*
X0223047Y0118966D01*
X0223047Y0117786D02*
X0207098Y0117786D01*
X0207882Y0116607D02*
X0223047Y0116607D01*
X0223047Y0115427D02*
X0208010Y0115427D01*
X0207603Y0114247D02*
X0223047Y0114247D01*
X0223047Y0113068D02*
X0205154Y0113068D01*
X0203974Y0111888D02*
X0223047Y0111888D01*
X0223047Y0110709D02*
X0202794Y0110709D01*
X0201615Y0109529D02*
X0223047Y0109529D01*
X0223047Y0108349D02*
X0200435Y0108349D01*
X0199255Y0107170D02*
X0223047Y0107170D01*
X0223047Y0105990D02*
X0198076Y0105990D01*
X0196896Y0104810D02*
X0223047Y0104810D01*
X0223047Y0103631D02*
X0195717Y0103631D01*
X0194537Y0102451D02*
X0223047Y0102451D01*
X0223047Y0101272D02*
X0193357Y0101272D01*
X0192178Y0100092D02*
X0223047Y0100092D01*
X0205331Y0115764D02*
X0189252Y0099685D01*
X0134795Y0099685D01*
X0133480Y0101000D01*
X0134131Y0103631D02*
X0190679Y0103631D01*
X0191859Y0104810D02*
X0134441Y0104810D01*
X0135621Y0105990D02*
X0193038Y0105990D01*
X0194218Y0107170D02*
X0136800Y0107170D01*
X0137980Y0108349D02*
X0195397Y0108349D01*
X0196577Y0109529D02*
X0139160Y0109529D01*
X0140339Y0110709D02*
X0197757Y0110709D01*
X0198936Y0111888D02*
X0141519Y0111888D01*
X0142698Y0113068D02*
X0200116Y0113068D01*
X0199729Y0114247D02*
X0201295Y0114247D01*
X0200136Y0115427D02*
X0202475Y0115427D01*
X0202780Y0116607D02*
X0200008Y0116607D01*
X0199224Y0117786D02*
X0203564Y0117786D01*
X0197457Y0115764D02*
X0187395Y0125825D01*
X0133114Y0125825D01*
X0132622Y0126317D01*
X0130402Y0126317D01*
X0129910Y0125825D01*
X0084571Y0125825D01*
X0077378Y0133018D01*
X0083461Y0123146D02*
X0123293Y0123146D01*
X0131586Y0114853D01*
X0129582Y0113068D02*
X0122254Y0113068D01*
X0122254Y0113053D02*
X0122254Y0114222D01*
X0126785Y0114222D01*
X0126785Y0117135D01*
X0128906Y0115014D01*
X0128906Y0114320D01*
X0129314Y0113335D01*
X0130068Y0112582D01*
X0131053Y0112174D01*
X0131756Y0112174D01*
X0125119Y0105537D01*
X0123957Y0105537D01*
X0124350Y0105738D01*
X0125002Y0106211D01*
X0125571Y0106780D01*
X0126044Y0107432D01*
X0126410Y0108149D01*
X0126659Y0108915D01*
X0126785Y0109710D01*
X0126785Y0113053D01*
X0122254Y0113053D01*
X0121085Y0113053D02*
X0116554Y0113053D01*
X0116554Y0109710D01*
X0116680Y0108915D01*
X0116929Y0108149D01*
X0117294Y0107432D01*
X0117767Y0106780D01*
X0118337Y0106211D01*
X0118988Y0105738D01*
X0119382Y0105537D01*
X0103260Y0105537D01*
X0104655Y0106115D01*
X0105982Y0107442D01*
X0106700Y0109175D01*
X0106700Y0118101D01*
X0105982Y0119834D01*
X0104655Y0121160D01*
X0104163Y0121365D01*
X0118749Y0121365D01*
X0118337Y0121065D01*
X0117767Y0120495D01*
X0117294Y0119844D01*
X0116929Y0119126D01*
X0116680Y0118361D01*
X0116554Y0117565D01*
X0116554Y0114222D01*
X0121085Y0114222D01*
X0121085Y0113053D01*
X0121085Y0113068D02*
X0106700Y0113068D01*
X0106700Y0114247D02*
X0116554Y0114247D01*
X0116554Y0115427D02*
X0106700Y0115427D01*
X0106700Y0116607D02*
X0116554Y0116607D01*
X0116589Y0117786D02*
X0106700Y0117786D01*
X0106341Y0118966D02*
X0116876Y0118966D01*
X0117513Y0120145D02*
X0105670Y0120145D01*
X0104258Y0121325D02*
X0118695Y0121325D01*
X0124914Y0124044D02*
X0130648Y0124044D01*
X0131140Y0124536D01*
X0131884Y0124536D01*
X0132376Y0124044D01*
X0134275Y0124044D01*
X0133436Y0123697D01*
X0132437Y0122698D01*
X0131896Y0121392D01*
X0131896Y0119978D01*
X0132437Y0118673D01*
X0133436Y0117673D01*
X0134742Y0117132D01*
X0136714Y0117132D01*
X0134265Y0114683D01*
X0134265Y0115386D01*
X0133857Y0116371D01*
X0133103Y0117125D01*
X0132119Y0117533D01*
X0131425Y0117533D01*
X0124914Y0124044D01*
X0125273Y0123684D02*
X0133424Y0123684D01*
X0132357Y0122505D02*
X0126453Y0122505D01*
X0127633Y0121325D02*
X0131896Y0121325D01*
X0131896Y0120145D02*
X0128812Y0120145D01*
X0129992Y0118966D02*
X0132315Y0118966D01*
X0133323Y0117786D02*
X0131172Y0117786D01*
X0133622Y0116607D02*
X0136189Y0116607D01*
X0135009Y0115427D02*
X0134248Y0115427D01*
X0131470Y0111888D02*
X0126785Y0111888D01*
X0126785Y0110709D02*
X0130291Y0110709D01*
X0129111Y0109529D02*
X0126756Y0109529D01*
X0126475Y0108349D02*
X0127931Y0108349D01*
X0126752Y0107170D02*
X0125854Y0107170D01*
X0125572Y0105990D02*
X0124698Y0105990D01*
X0118641Y0105990D02*
X0104353Y0105990D01*
X0105710Y0107170D02*
X0117484Y0107170D01*
X0116863Y0108349D02*
X0106358Y0108349D01*
X0106700Y0109529D02*
X0116582Y0109529D01*
X0116554Y0110709D02*
X0106700Y0110709D01*
X0106700Y0111888D02*
X0116554Y0111888D01*
X0126785Y0114247D02*
X0128936Y0114247D01*
X0128493Y0115427D02*
X0126785Y0115427D01*
X0126785Y0116607D02*
X0127313Y0116607D01*
X0135779Y0102451D02*
X0189499Y0102451D01*
X0195184Y0114247D02*
X0143878Y0114247D01*
X0144653Y0115427D02*
X0194777Y0115427D01*
X0194095Y0116607D02*
X0144907Y0116607D01*
X0149385Y0117786D02*
X0192915Y0117786D01*
X0191736Y0118966D02*
X0150393Y0118966D01*
X0150813Y0120145D02*
X0190556Y0120145D01*
X0189377Y0121325D02*
X0150813Y0121325D01*
X0150352Y0122505D02*
X0188197Y0122505D01*
X0187017Y0123684D02*
X0149285Y0123684D01*
X0137414Y0136660D02*
X0218501Y0136660D01*
X0221688Y0136660D02*
X0223047Y0136660D01*
X0223047Y0190236D02*
X0191771Y0190236D01*
X0205170Y0203635D01*
X0205864Y0203635D01*
X0206849Y0204043D01*
X0207602Y0204797D01*
X0208010Y0205782D01*
X0208010Y0206848D01*
X0207602Y0207833D01*
X0206849Y0208587D01*
X0205864Y0208994D01*
X0204798Y0208994D01*
X0203813Y0208587D01*
X0203059Y0207833D01*
X0202651Y0206848D01*
X0202651Y0206154D01*
X0188514Y0192017D01*
X0136160Y0192017D01*
X0136160Y0192084D01*
X0135752Y0193069D01*
X0134998Y0193823D01*
X0134013Y0194231D01*
X0133310Y0194231D01*
X0143367Y0204287D01*
X0144366Y0205287D01*
X0144907Y0206593D01*
X0144907Y0207683D01*
X0147967Y0207683D01*
X0149272Y0208224D01*
X0150272Y0209224D01*
X0150813Y0210530D01*
X0150813Y0211943D01*
X0150272Y0213249D01*
X0149272Y0214248D01*
X0148434Y0214595D01*
X0186658Y0214595D01*
X0194777Y0206476D01*
X0194777Y0205782D01*
X0195185Y0204797D01*
X0195939Y0204043D01*
X0196924Y0203635D01*
X0197990Y0203635D01*
X0198975Y0204043D01*
X0199728Y0204797D01*
X0200136Y0205782D01*
X0200136Y0206848D01*
X0199728Y0207833D01*
X0198975Y0208587D01*
X0197990Y0208994D01*
X0197296Y0208994D01*
X0189176Y0217114D01*
X0188133Y0218157D01*
X0133852Y0218157D01*
X0133359Y0218650D01*
X0129664Y0218650D01*
X0129172Y0218157D01*
X0085308Y0218157D01*
X0079159Y0224307D01*
X0079159Y0227625D01*
X0080006Y0226778D01*
X0082623Y0226778D01*
X0083979Y0228133D01*
X0085965Y0226146D01*
X0089106Y0226146D01*
X0091157Y0228198D01*
X0093209Y0226146D01*
X0096350Y0226146D01*
X0098570Y0228367D01*
X0098570Y0231507D01*
X0096350Y0233728D01*
X0093589Y0233728D01*
X0093837Y0234325D01*
X0093837Y0235391D01*
X0093793Y0235497D01*
X0096350Y0235497D01*
X0098570Y0237717D01*
X0098570Y0240857D01*
X0097492Y0241935D01*
X0119947Y0241935D01*
X0120439Y0241443D01*
X0124376Y0237506D01*
X0131200Y0237506D01*
X0133209Y0235497D01*
X0136350Y0235497D01*
X0138359Y0237506D01*
X0218086Y0237506D01*
X0218577Y0237016D01*
X0219561Y0236608D01*
X0220627Y0236608D01*
X0221612Y0237016D01*
X0222366Y0237770D01*
X0222774Y0238754D01*
X0222774Y0239820D01*
X0222366Y0240805D01*
X0221612Y0241559D01*
X0220627Y0241967D01*
X0219561Y0241967D01*
X0218577Y0241559D01*
X0218086Y0241068D01*
X0138359Y0241068D01*
X0137492Y0241935D01*
X0211974Y0241935D01*
X0213017Y0242979D01*
X0213044Y0243006D01*
X0213738Y0243006D01*
X0214723Y0243413D01*
X0215476Y0244167D01*
X0215884Y0245152D01*
X0215884Y0246218D01*
X0215476Y0247203D01*
X0214723Y0247957D01*
X0213738Y0248365D01*
X0212672Y0248365D01*
X0211687Y0247957D01*
X0210933Y0247203D01*
X0210525Y0246218D01*
X0210525Y0245524D01*
X0210498Y0245498D01*
X0133234Y0245498D01*
X0127880Y0250852D01*
X0126836Y0251895D01*
X0105183Y0251895D01*
X0102695Y0254383D01*
X0102695Y0255076D01*
X0102287Y0256061D01*
X0101534Y0256815D01*
X0100549Y0257223D01*
X0099483Y0257223D01*
X0098937Y0256997D01*
X0098994Y0257075D01*
X0099320Y0257714D01*
X0099541Y0258397D01*
X0099648Y0259071D01*
X0095488Y0259071D01*
X0095488Y0254911D01*
X0096162Y0255018D01*
X0096845Y0255240D01*
X0097484Y0255565D01*
X0097562Y0255622D01*
X0097336Y0255076D01*
X0097336Y0254010D01*
X0097744Y0253025D01*
X0098498Y0252272D01*
X0099483Y0251864D01*
X0100176Y0251864D01*
X0103196Y0248844D01*
X0098633Y0248844D01*
X0098570Y0248907D01*
X0098570Y0251192D01*
X0096350Y0253413D01*
X0093209Y0253413D01*
X0091157Y0251361D01*
X0089106Y0253413D01*
X0085965Y0253413D01*
X0083745Y0251192D01*
X0083745Y0248052D01*
X0085965Y0245831D01*
X0089106Y0245831D01*
X0091157Y0247883D01*
X0093209Y0245831D01*
X0095494Y0245831D01*
X0095557Y0245768D01*
X0095828Y0245498D01*
X0076147Y0245498D01*
X0066900Y0254745D01*
X0067230Y0255075D01*
X0067868Y0256615D01*
X0067868Y0264282D01*
X0067230Y0265823D01*
X0066367Y0266685D01*
X0105869Y0266685D01*
X0105006Y0265823D01*
X0104369Y0264282D01*
X0104369Y0256615D01*
X0105006Y0255075D01*
X0106185Y0253896D01*
X0107725Y0253258D01*
X0109393Y0253258D01*
X0110933Y0253896D01*
X0112112Y0255075D01*
X0112750Y0256615D01*
X0112750Y0264282D01*
X0112112Y0265823D01*
X0111249Y0266685D01*
X0115869Y0266685D01*
X0115006Y0265823D01*
X0114369Y0264282D01*
X0114369Y0256615D01*
X0115006Y0255075D01*
X0116185Y0253896D01*
X0117725Y0253258D01*
X0119393Y0253258D01*
X0120933Y0253896D01*
X0122112Y0255075D01*
X0122750Y0256615D01*
X0122750Y0264282D01*
X0122112Y0265823D01*
X0121249Y0266685D01*
X0125869Y0266685D01*
X0125006Y0265823D01*
X0124369Y0264282D01*
X0124369Y0256615D01*
X0125006Y0255075D01*
X0126185Y0253896D01*
X0127725Y0253258D01*
X0129393Y0253258D01*
X0130933Y0253896D01*
X0132112Y0255075D01*
X0132750Y0256615D01*
X0132750Y0264282D01*
X0132112Y0265823D01*
X0131249Y0266685D01*
X0135303Y0266685D01*
X0135058Y0266439D01*
X0134633Y0265855D01*
X0134305Y0265211D01*
X0134082Y0264524D01*
X0133969Y0263810D01*
X0133969Y0260858D01*
X0138150Y0260858D01*
X0138150Y0260039D01*
X0138969Y0260039D01*
X0138969Y0260858D01*
X0143150Y0260858D01*
X0143150Y0263810D01*
X0143037Y0264524D01*
X0142813Y0265211D01*
X0142485Y0265855D01*
X0142061Y0266439D01*
X0141815Y0266685D01*
X0145869Y0266685D01*
X0145006Y0265823D01*
X0144369Y0264282D01*
X0144369Y0256615D01*
X0145006Y0255075D01*
X0146185Y0253896D01*
X0146778Y0253651D01*
X0146778Y0249247D01*
X0138570Y0249247D01*
X0138570Y0251192D01*
X0136350Y0253413D01*
X0133209Y0253413D01*
X0130989Y0251192D01*
X0130989Y0248052D01*
X0133209Y0245831D01*
X0136051Y0245831D01*
X0136198Y0245685D01*
X0190313Y0245685D01*
X0191297Y0246093D01*
X0192051Y0246847D01*
X0192459Y0247832D01*
X0192459Y0248898D01*
X0192051Y0249882D01*
X0191297Y0250636D01*
X0190917Y0250794D01*
X0202760Y0250794D01*
X0203059Y0250073D01*
X0203813Y0249319D01*
X0204798Y0248911D01*
X0205864Y0248911D01*
X0206849Y0249319D01*
X0207602Y0250073D01*
X0208010Y0251058D01*
X0208010Y0252124D01*
X0207602Y0253108D01*
X0206849Y0253862D01*
X0205864Y0254270D01*
X0205170Y0254270D01*
X0205084Y0254356D01*
X0169160Y0254356D01*
X0168117Y0253313D01*
X0168090Y0253286D01*
X0167396Y0253286D01*
X0166411Y0252878D01*
X0165658Y0252124D01*
X0165250Y0251139D01*
X0165250Y0250073D01*
X0165592Y0249247D01*
X0150340Y0249247D01*
X0150340Y0253651D01*
X0150933Y0253896D01*
X0152112Y0255075D01*
X0152750Y0256615D01*
X0152750Y0264282D01*
X0152112Y0265823D01*
X0151249Y0266685D01*
X0223047Y0266685D01*
X0223047Y0190236D01*
X0223047Y0190922D02*
X0192457Y0190922D01*
X0193636Y0192102D02*
X0223047Y0192102D01*
X0223047Y0193281D02*
X0194816Y0193281D01*
X0195996Y0194461D02*
X0223047Y0194461D01*
X0223047Y0195641D02*
X0197175Y0195641D01*
X0198355Y0196820D02*
X0223047Y0196820D01*
X0223047Y0198000D02*
X0199535Y0198000D01*
X0200714Y0199180D02*
X0223047Y0199180D01*
X0223047Y0200359D02*
X0201894Y0200359D01*
X0203073Y0201539D02*
X0223047Y0201539D01*
X0223047Y0202718D02*
X0204253Y0202718D01*
X0206498Y0203898D02*
X0223047Y0203898D01*
X0223047Y0205078D02*
X0207718Y0205078D01*
X0208010Y0206257D02*
X0223047Y0206257D01*
X0223047Y0207437D02*
X0207766Y0207437D01*
X0206776Y0208616D02*
X0223047Y0208616D01*
X0223047Y0209796D02*
X0196494Y0209796D01*
X0195315Y0210976D02*
X0223047Y0210976D01*
X0223047Y0212155D02*
X0194135Y0212155D01*
X0192956Y0213335D02*
X0223047Y0213335D01*
X0223047Y0214515D02*
X0191776Y0214515D01*
X0190596Y0215694D02*
X0223047Y0215694D01*
X0223047Y0216874D02*
X0189417Y0216874D01*
X0188237Y0218053D02*
X0223047Y0218053D01*
X0223047Y0219233D02*
X0084233Y0219233D01*
X0083053Y0220413D02*
X0105751Y0220413D01*
X0105618Y0220545D02*
X0106372Y0219791D01*
X0107357Y0219383D01*
X0108423Y0219383D01*
X0109408Y0219791D01*
X0109898Y0220282D01*
X0211470Y0220282D01*
X0211687Y0220065D01*
X0212672Y0219657D01*
X0213738Y0219657D01*
X0214723Y0220065D01*
X0215476Y0220818D01*
X0215884Y0221803D01*
X0215884Y0222869D01*
X0215733Y0223235D01*
X0218086Y0223235D01*
X0218577Y0222744D01*
X0219561Y0222336D01*
X0220627Y0222336D01*
X0221612Y0222744D01*
X0222366Y0223498D01*
X0222774Y0224483D01*
X0222774Y0225549D01*
X0222366Y0226534D01*
X0221612Y0227287D01*
X0220627Y0227695D01*
X0219561Y0227695D01*
X0218577Y0227287D01*
X0218086Y0226797D01*
X0137000Y0226797D01*
X0138359Y0228156D01*
X0179700Y0228156D01*
X0180191Y0227665D01*
X0181176Y0227257D01*
X0182242Y0227257D01*
X0183226Y0227665D01*
X0183980Y0228419D01*
X0184388Y0229404D01*
X0184388Y0230470D01*
X0183980Y0231455D01*
X0183226Y0232209D01*
X0223047Y0232209D01*
X0223047Y0233388D02*
X0172663Y0233388D01*
X0172663Y0233440D02*
X0172242Y0234456D01*
X0171464Y0235234D01*
X0170448Y0235655D01*
X0147694Y0235655D01*
X0146678Y0235234D01*
X0145900Y0234456D01*
X0145479Y0233440D01*
X0145479Y0232340D01*
X0145736Y0231718D01*
X0138359Y0231718D01*
X0136350Y0233728D01*
X0133209Y0233728D01*
X0130989Y0231507D01*
X0130989Y0228367D01*
X0132559Y0226797D01*
X0111734Y0226797D01*
X0111542Y0227260D01*
X0110788Y0228014D01*
X0109803Y0228422D01*
X0108737Y0228422D01*
X0107752Y0228014D01*
X0106998Y0227260D01*
X0106591Y0226276D01*
X0106591Y0225210D01*
X0106868Y0224540D01*
X0106372Y0224335D01*
X0105618Y0223581D01*
X0105210Y0222596D01*
X0105210Y0221530D01*
X0105618Y0220545D01*
X0105210Y0221592D02*
X0081874Y0221592D01*
X0080694Y0222772D02*
X0105283Y0222772D01*
X0105989Y0223951D02*
X0079514Y0223951D01*
X0079159Y0225131D02*
X0106623Y0225131D01*
X0106605Y0226311D02*
X0096514Y0226311D01*
X0097693Y0227490D02*
X0107228Y0227490D01*
X0109270Y0225743D02*
X0109270Y0225016D01*
X0220094Y0225016D01*
X0219067Y0227490D02*
X0182804Y0227490D01*
X0184084Y0228670D02*
X0223047Y0228670D01*
X0223047Y0229850D02*
X0184388Y0229850D01*
X0184157Y0231029D02*
X0223047Y0231029D01*
X0223047Y0227490D02*
X0221122Y0227490D01*
X0222458Y0226311D02*
X0223047Y0226311D01*
X0223047Y0225131D02*
X0222774Y0225131D01*
X0222554Y0223951D02*
X0223047Y0223951D01*
X0223047Y0222772D02*
X0221640Y0222772D01*
X0223047Y0221592D02*
X0215797Y0221592D01*
X0215884Y0222772D02*
X0218549Y0222772D01*
X0215071Y0220413D02*
X0223047Y0220413D01*
X0213205Y0222336D02*
X0212931Y0222063D01*
X0107890Y0222063D01*
X0111312Y0227490D02*
X0131866Y0227490D01*
X0130989Y0228670D02*
X0098570Y0228670D01*
X0098570Y0229850D02*
X0130989Y0229850D01*
X0130989Y0231029D02*
X0098570Y0231029D01*
X0097868Y0232209D02*
X0131691Y0232209D01*
X0132870Y0233388D02*
X0096689Y0233388D01*
X0096600Y0235748D02*
X0132959Y0235748D01*
X0131779Y0236927D02*
X0097780Y0236927D01*
X0098570Y0238107D02*
X0123776Y0238107D01*
X0122596Y0239286D02*
X0098570Y0239286D01*
X0098570Y0240466D02*
X0121417Y0240466D01*
X0120237Y0241646D02*
X0097782Y0241646D01*
X0092677Y0246364D02*
X0089638Y0246364D01*
X0090818Y0247544D02*
X0091497Y0247544D01*
X0092059Y0252262D02*
X0090256Y0252262D01*
X0092705Y0255565D02*
X0093344Y0255240D01*
X0094027Y0255018D01*
X0094701Y0254911D01*
X0094701Y0259071D01*
X0095488Y0259071D01*
X0095488Y0259858D01*
X0099648Y0259858D01*
X0099541Y0260532D01*
X0099320Y0261215D01*
X0098994Y0261854D01*
X0098572Y0262435D01*
X0098065Y0262942D01*
X0097484Y0263364D01*
X0096845Y0263690D01*
X0096162Y0263911D01*
X0095488Y0264018D01*
X0095488Y0259858D01*
X0094701Y0259858D01*
X0094701Y0259071D01*
X0090541Y0259071D01*
X0090648Y0258397D01*
X0090869Y0257714D01*
X0091195Y0257075D01*
X0091617Y0256495D01*
X0092124Y0255987D01*
X0092705Y0255565D01*
X0092381Y0255801D02*
X0087276Y0255801D01*
X0087608Y0255939D02*
X0088778Y0257109D01*
X0089411Y0258637D01*
X0089411Y0260292D01*
X0088778Y0261820D01*
X0087608Y0262990D01*
X0086079Y0263624D01*
X0084425Y0263624D01*
X0082896Y0262990D01*
X0081726Y0261820D01*
X0081093Y0260292D01*
X0081093Y0258637D01*
X0081726Y0257109D01*
X0082896Y0255939D01*
X0084425Y0255306D01*
X0086079Y0255306D01*
X0087608Y0255939D01*
X0088650Y0256981D02*
X0091264Y0256981D01*
X0090725Y0258160D02*
X0089213Y0258160D01*
X0089411Y0259340D02*
X0094701Y0259340D01*
X0094701Y0259858D02*
X0090541Y0259858D01*
X0090648Y0260532D01*
X0090869Y0261215D01*
X0091195Y0261854D01*
X0091617Y0262435D01*
X0092124Y0262942D01*
X0092705Y0263364D01*
X0093344Y0263690D01*
X0094027Y0263911D01*
X0094701Y0264018D01*
X0094701Y0259858D01*
X0094701Y0260519D02*
X0095488Y0260519D01*
X0095488Y0259340D02*
X0104369Y0259340D01*
X0104369Y0260519D02*
X0099543Y0260519D01*
X0099073Y0261699D02*
X0104369Y0261699D01*
X0104369Y0262879D02*
X0098128Y0262879D01*
X0095488Y0262879D02*
X0094701Y0262879D01*
X0094701Y0261699D02*
X0095488Y0261699D01*
X0095488Y0258160D02*
X0094701Y0258160D01*
X0094701Y0256981D02*
X0095488Y0256981D01*
X0095488Y0255801D02*
X0094701Y0255801D01*
X0097336Y0254621D02*
X0067023Y0254621D01*
X0067530Y0255801D02*
X0073386Y0255801D01*
X0073054Y0255939D02*
X0074582Y0255306D01*
X0076237Y0255306D01*
X0077765Y0255939D01*
X0078935Y0257109D01*
X0079568Y0258637D01*
X0079568Y0260292D01*
X0078935Y0261820D01*
X0077765Y0262990D01*
X0076237Y0263624D01*
X0074582Y0263624D01*
X0073054Y0262990D01*
X0071884Y0261820D01*
X0071250Y0260292D01*
X0071250Y0258637D01*
X0071884Y0257109D01*
X0073054Y0255939D01*
X0072012Y0256981D02*
X0067868Y0256981D01*
X0067868Y0258160D02*
X0071448Y0258160D01*
X0071250Y0259340D02*
X0067868Y0259340D01*
X0067868Y0260519D02*
X0071345Y0260519D01*
X0071833Y0261699D02*
X0067868Y0261699D01*
X0067868Y0262879D02*
X0072942Y0262879D01*
X0077877Y0262879D02*
X0082784Y0262879D01*
X0081676Y0261699D02*
X0078986Y0261699D01*
X0079474Y0260519D02*
X0081187Y0260519D01*
X0081093Y0259340D02*
X0079568Y0259340D01*
X0079371Y0258160D02*
X0081291Y0258160D01*
X0081854Y0256981D02*
X0078807Y0256981D01*
X0077433Y0255801D02*
X0083228Y0255801D01*
X0084815Y0252262D02*
X0069383Y0252262D01*
X0070562Y0251083D02*
X0083745Y0251083D01*
X0083745Y0249903D02*
X0071742Y0249903D01*
X0072921Y0248723D02*
X0083745Y0248723D01*
X0084253Y0247544D02*
X0074101Y0247544D01*
X0075281Y0246364D02*
X0085433Y0246364D01*
X0077378Y0239780D02*
X0077378Y0223569D01*
X0084571Y0216376D01*
X0129910Y0216376D01*
X0130402Y0216869D01*
X0132622Y0216869D01*
X0133114Y0216376D01*
X0187395Y0216376D01*
X0197457Y0206315D01*
X0200136Y0206257D02*
X0202651Y0206257D01*
X0202895Y0207437D02*
X0199892Y0207437D01*
X0198902Y0208616D02*
X0203885Y0208616D01*
X0205331Y0206315D02*
X0189252Y0190236D01*
X0134795Y0190236D01*
X0133480Y0191551D01*
X0135539Y0193281D02*
X0189778Y0193281D01*
X0188599Y0192102D02*
X0136152Y0192102D01*
X0133541Y0194461D02*
X0190958Y0194461D01*
X0192138Y0195641D02*
X0134720Y0195641D01*
X0135900Y0196820D02*
X0193317Y0196820D01*
X0194497Y0198000D02*
X0137079Y0198000D01*
X0138259Y0199180D02*
X0195676Y0199180D01*
X0196856Y0200359D02*
X0139439Y0200359D01*
X0140618Y0201539D02*
X0198036Y0201539D01*
X0199215Y0202718D02*
X0141798Y0202718D01*
X0142977Y0203898D02*
X0196290Y0203898D01*
X0195069Y0205078D02*
X0144157Y0205078D01*
X0144768Y0206257D02*
X0194777Y0206257D01*
X0193816Y0207437D02*
X0144907Y0207437D01*
X0149664Y0208616D02*
X0192636Y0208616D01*
X0191457Y0209796D02*
X0150509Y0209796D01*
X0150813Y0210976D02*
X0190277Y0210976D01*
X0189097Y0212155D02*
X0150725Y0212155D01*
X0150185Y0213335D02*
X0187918Y0213335D01*
X0186738Y0214515D02*
X0148629Y0214515D01*
X0136714Y0207683D02*
X0134265Y0205234D01*
X0134265Y0205937D01*
X0133857Y0206922D01*
X0133103Y0207676D01*
X0132119Y0208084D01*
X0131425Y0208084D01*
X0124914Y0214595D01*
X0130648Y0214595D01*
X0131140Y0215087D01*
X0131884Y0215087D01*
X0132376Y0214595D01*
X0134275Y0214595D01*
X0133436Y0214248D01*
X0132437Y0213249D01*
X0131896Y0211943D01*
X0131896Y0210530D01*
X0132437Y0209224D01*
X0133436Y0208224D01*
X0134742Y0207683D01*
X0136714Y0207683D01*
X0136468Y0207437D02*
X0133343Y0207437D01*
X0133044Y0208616D02*
X0130892Y0208616D01*
X0129713Y0209796D02*
X0132200Y0209796D01*
X0131896Y0210976D02*
X0128533Y0210976D01*
X0127354Y0212155D02*
X0131984Y0212155D01*
X0132523Y0213335D02*
X0126174Y0213335D01*
X0124994Y0214515D02*
X0134080Y0214515D01*
X0134133Y0206257D02*
X0135288Y0206257D01*
X0131586Y0205404D02*
X0123293Y0213697D01*
X0083461Y0213697D01*
X0047535Y0249622D01*
X0044815Y0252262D02*
X0030491Y0252262D01*
X0031670Y0251083D02*
X0043745Y0251083D01*
X0043745Y0251192D02*
X0043745Y0248052D01*
X0045965Y0245831D01*
X0048807Y0245831D01*
X0081680Y0212959D01*
X0082209Y0212430D01*
X0081361Y0212430D01*
X0079628Y0211712D01*
X0078302Y0210385D01*
X0077584Y0208652D01*
X0077584Y0199726D01*
X0078302Y0197993D01*
X0079628Y0196666D01*
X0081361Y0195948D01*
X0083237Y0195948D01*
X0084848Y0196616D01*
X0090941Y0190523D01*
X0091228Y0190236D01*
X0019961Y0190236D01*
X0019961Y0193247D01*
X0018662Y0196382D01*
X0016264Y0198780D01*
X0013129Y0200079D01*
X0009737Y0200079D01*
X0009134Y0199829D01*
X0009134Y0257092D01*
X0009737Y0256843D01*
X0013129Y0256843D01*
X0013941Y0257179D01*
X0013941Y0256558D01*
X0014658Y0254825D01*
X0015985Y0253498D01*
X0017718Y0252781D01*
X0023821Y0252781D01*
X0037723Y0238879D01*
X0038997Y0237605D01*
X0044350Y0237605D01*
X0045965Y0235989D01*
X0049106Y0235989D01*
X0051326Y0238209D01*
X0051326Y0241350D01*
X0049106Y0243570D01*
X0045965Y0243570D01*
X0044350Y0241954D01*
X0040798Y0241954D01*
X0028816Y0253937D01*
X0029704Y0254825D01*
X0030422Y0256558D01*
X0030422Y0258434D01*
X0029704Y0260167D01*
X0028377Y0261494D01*
X0026644Y0262212D01*
X0019355Y0262212D01*
X0019961Y0263674D01*
X0019961Y0266685D01*
X0050421Y0266685D01*
X0050176Y0266439D01*
X0049751Y0265855D01*
X0049423Y0265211D01*
X0049200Y0264524D01*
X0049087Y0263810D01*
X0049087Y0260858D01*
X0053268Y0260858D01*
X0053268Y0260039D01*
X0054087Y0260039D01*
X0054087Y0260858D01*
X0058268Y0260858D01*
X0058268Y0263810D01*
X0058155Y0264524D01*
X0057931Y0265211D01*
X0057603Y0265855D01*
X0057179Y0266439D01*
X0056933Y0266685D01*
X0060987Y0266685D01*
X0060125Y0265823D01*
X0059487Y0264282D01*
X0059487Y0256615D01*
X0060125Y0255075D01*
X0061303Y0253896D01*
X0062844Y0253258D01*
X0063349Y0253258D01*
X0073628Y0242979D01*
X0073628Y0242979D01*
X0074672Y0241935D01*
X0075744Y0241935D01*
X0075106Y0241297D01*
X0074698Y0240313D01*
X0074698Y0239247D01*
X0075106Y0238262D01*
X0075597Y0237771D01*
X0075597Y0224079D01*
X0051326Y0248350D01*
X0051326Y0251192D01*
X0049106Y0253413D01*
X0045965Y0253413D01*
X0043745Y0251192D01*
X0043745Y0249903D02*
X0032850Y0249903D01*
X0034029Y0248723D02*
X0043745Y0248723D01*
X0044253Y0247544D02*
X0035209Y0247544D01*
X0036389Y0246364D02*
X0045433Y0246364D01*
X0045221Y0242825D02*
X0039928Y0242825D01*
X0038748Y0244005D02*
X0050634Y0244005D01*
X0049850Y0242825D02*
X0051813Y0242825D01*
X0051030Y0241646D02*
X0052993Y0241646D01*
X0054173Y0240466D02*
X0051326Y0240466D01*
X0051326Y0239286D02*
X0055352Y0239286D01*
X0056532Y0238107D02*
X0051223Y0238107D01*
X0050044Y0236927D02*
X0057711Y0236927D01*
X0058891Y0235748D02*
X0030396Y0235748D01*
X0030447Y0235847D02*
X0030696Y0236613D01*
X0030793Y0237227D01*
X0022766Y0237227D01*
X0022766Y0238395D01*
X0030793Y0238395D01*
X0030696Y0239009D01*
X0030447Y0239775D01*
X0030081Y0240492D01*
X0029608Y0241144D01*
X0029039Y0241713D01*
X0028387Y0242186D01*
X0027670Y0242552D01*
X0026904Y0242801D01*
X0026109Y0242927D01*
X0022766Y0242927D01*
X0022766Y0238396D01*
X0021597Y0238396D01*
X0021597Y0242927D01*
X0018253Y0242927D01*
X0017458Y0242801D01*
X0016692Y0242552D01*
X0015975Y0242186D01*
X0015324Y0241713D01*
X0014754Y0241144D01*
X0014281Y0240492D01*
X0013915Y0239775D01*
X0013667Y0239009D01*
X0013569Y0238395D01*
X0021597Y0238395D01*
X0021597Y0237227D01*
X0013569Y0237227D01*
X0013667Y0236613D01*
X0013915Y0235847D01*
X0014281Y0235130D01*
X0014754Y0234478D01*
X0015324Y0233909D01*
X0015975Y0233436D01*
X0016692Y0233070D01*
X0017458Y0232821D01*
X0018253Y0232695D01*
X0021597Y0232695D01*
X0021597Y0237226D01*
X0022766Y0237226D01*
X0022766Y0232695D01*
X0026109Y0232695D01*
X0026904Y0232821D01*
X0027670Y0233070D01*
X0028387Y0233436D01*
X0029039Y0233909D01*
X0029608Y0234478D01*
X0030081Y0235130D01*
X0030447Y0235847D01*
X0030745Y0236927D02*
X0045027Y0236927D01*
X0045965Y0233728D02*
X0043745Y0231507D01*
X0043745Y0229222D01*
X0042028Y0227505D01*
X0040754Y0226232D01*
X0040754Y0211917D01*
X0040258Y0211712D01*
X0038931Y0210385D01*
X0038214Y0208652D01*
X0038214Y0199726D01*
X0038931Y0197993D01*
X0040258Y0196666D01*
X0041991Y0195948D01*
X0043867Y0195948D01*
X0045600Y0196666D01*
X0046927Y0197993D01*
X0047645Y0199726D01*
X0047645Y0208652D01*
X0046927Y0210385D01*
X0045600Y0211712D01*
X0045104Y0211917D01*
X0045104Y0224430D01*
X0046821Y0226146D01*
X0049106Y0226146D01*
X0051326Y0228367D01*
X0051326Y0231507D01*
X0049106Y0233728D01*
X0045965Y0233728D01*
X0045626Y0233388D02*
X0028294Y0233388D01*
X0029673Y0234568D02*
X0060071Y0234568D01*
X0061250Y0233388D02*
X0049445Y0233388D01*
X0050624Y0232209D02*
X0062430Y0232209D01*
X0063609Y0231029D02*
X0051326Y0231029D01*
X0051326Y0229850D02*
X0064789Y0229850D01*
X0065969Y0228670D02*
X0051326Y0228670D01*
X0050449Y0227490D02*
X0067148Y0227490D01*
X0068328Y0226311D02*
X0049270Y0226311D01*
X0045805Y0225131D02*
X0069508Y0225131D01*
X0070687Y0223951D02*
X0045104Y0223951D01*
X0045104Y0222772D02*
X0071867Y0222772D01*
X0073046Y0221592D02*
X0045104Y0221592D01*
X0045104Y0220413D02*
X0074226Y0220413D01*
X0075406Y0219233D02*
X0045104Y0219233D01*
X0045104Y0218053D02*
X0076585Y0218053D01*
X0077765Y0216874D02*
X0045104Y0216874D01*
X0045104Y0215694D02*
X0078944Y0215694D01*
X0080124Y0214515D02*
X0045104Y0214515D01*
X0045104Y0213335D02*
X0081304Y0213335D01*
X0080699Y0212155D02*
X0065166Y0212155D01*
X0065295Y0212089D02*
X0064578Y0212455D01*
X0063812Y0212704D01*
X0063199Y0212801D01*
X0063199Y0204773D01*
X0067730Y0204773D01*
X0067730Y0208117D01*
X0067604Y0208912D01*
X0067355Y0209678D01*
X0066989Y0210395D01*
X0066516Y0211047D01*
X0065947Y0211616D01*
X0065295Y0212089D01*
X0066568Y0210976D02*
X0078892Y0210976D01*
X0078058Y0209796D02*
X0067295Y0209796D01*
X0067651Y0208616D02*
X0077584Y0208616D01*
X0077584Y0207437D02*
X0067730Y0207437D01*
X0067730Y0206257D02*
X0077584Y0206257D01*
X0077584Y0205078D02*
X0067730Y0205078D01*
X0067730Y0203605D02*
X0063199Y0203605D01*
X0063199Y0204773D01*
X0062030Y0204773D01*
X0062030Y0203605D01*
X0057499Y0203605D01*
X0057499Y0200261D01*
X0057625Y0199466D01*
X0057873Y0198700D01*
X0058239Y0197983D01*
X0058712Y0197331D01*
X0059282Y0196762D01*
X0059933Y0196289D01*
X0060650Y0195923D01*
X0061416Y0195674D01*
X0062030Y0195577D01*
X0062030Y0203604D01*
X0063199Y0203604D01*
X0063199Y0195577D01*
X0063812Y0195674D01*
X0064578Y0195923D01*
X0065295Y0196289D01*
X0065947Y0196762D01*
X0066516Y0197331D01*
X0066989Y0197983D01*
X0067355Y0198700D01*
X0067604Y0199466D01*
X0067730Y0200261D01*
X0067730Y0203605D01*
X0067730Y0202718D02*
X0077584Y0202718D01*
X0077584Y0201539D02*
X0067730Y0201539D01*
X0067730Y0200359D02*
X0077584Y0200359D01*
X0077810Y0199180D02*
X0067511Y0199180D01*
X0066998Y0198000D02*
X0078299Y0198000D01*
X0079474Y0196820D02*
X0066005Y0196820D01*
X0063600Y0195641D02*
X0085823Y0195641D01*
X0087003Y0194461D02*
X0019458Y0194461D01*
X0019947Y0193281D02*
X0088182Y0193281D01*
X0089362Y0192102D02*
X0019961Y0192102D01*
X0019961Y0190922D02*
X0090542Y0190922D01*
X0090941Y0190523D02*
X0090941Y0190523D01*
X0095424Y0196088D02*
X0087015Y0204498D01*
X0087015Y0208652D01*
X0086297Y0210385D01*
X0084970Y0211712D01*
X0084478Y0211916D01*
X0099806Y0211916D01*
X0099313Y0211712D01*
X0097987Y0210385D01*
X0097269Y0208652D01*
X0097269Y0199726D01*
X0097987Y0197993D01*
X0099313Y0196666D01*
X0100709Y0196088D01*
X0095424Y0196088D01*
X0094692Y0196820D02*
X0099159Y0196820D01*
X0097984Y0198000D02*
X0093513Y0198000D01*
X0092333Y0199180D02*
X0097495Y0199180D01*
X0097269Y0200359D02*
X0091153Y0200359D01*
X0089974Y0201539D02*
X0097269Y0201539D01*
X0097269Y0202718D02*
X0088794Y0202718D01*
X0087615Y0203898D02*
X0097269Y0203898D01*
X0097269Y0205078D02*
X0087015Y0205078D01*
X0087015Y0206257D02*
X0097269Y0206257D01*
X0097269Y0207437D02*
X0087015Y0207437D01*
X0087015Y0208616D02*
X0097269Y0208616D01*
X0097743Y0209796D02*
X0086541Y0209796D01*
X0085706Y0210976D02*
X0098577Y0210976D01*
X0104163Y0211916D02*
X0118749Y0211916D01*
X0118337Y0211616D01*
X0117767Y0211047D01*
X0117294Y0210395D01*
X0116929Y0209678D01*
X0116680Y0208912D01*
X0116554Y0208117D01*
X0116554Y0204773D01*
X0121085Y0204773D01*
X0121085Y0203605D01*
X0116554Y0203605D01*
X0116554Y0200261D01*
X0116680Y0199466D01*
X0116929Y0198700D01*
X0117294Y0197983D01*
X0117767Y0197331D01*
X0118337Y0196762D01*
X0118988Y0196289D01*
X0119382Y0196088D01*
X0103260Y0196088D01*
X0104655Y0196666D01*
X0105982Y0197993D01*
X0106700Y0199726D01*
X0106700Y0208652D01*
X0105982Y0210385D01*
X0104655Y0211712D01*
X0104163Y0211916D01*
X0105391Y0210976D02*
X0117716Y0210976D01*
X0116989Y0209796D02*
X0106226Y0209796D01*
X0106700Y0208616D02*
X0116633Y0208616D01*
X0116554Y0207437D02*
X0106700Y0207437D01*
X0106700Y0206257D02*
X0116554Y0206257D01*
X0116554Y0205078D02*
X0106700Y0205078D01*
X0106700Y0203898D02*
X0121085Y0203898D01*
X0122254Y0203898D02*
X0129309Y0203898D01*
X0129314Y0203887D02*
X0130068Y0203133D01*
X0131053Y0202725D01*
X0131756Y0202725D01*
X0125119Y0196088D01*
X0123957Y0196088D01*
X0124350Y0196289D01*
X0125002Y0196762D01*
X0125571Y0197331D01*
X0126044Y0197983D01*
X0126410Y0198700D01*
X0126659Y0199466D01*
X0126785Y0200261D01*
X0126785Y0203605D01*
X0122254Y0203605D01*
X0122254Y0204773D01*
X0126785Y0204773D01*
X0126785Y0207686D01*
X0128906Y0205565D01*
X0128906Y0204871D01*
X0129314Y0203887D01*
X0128906Y0205078D02*
X0126785Y0205078D01*
X0126785Y0206257D02*
X0128214Y0206257D01*
X0127034Y0207437D02*
X0126785Y0207437D01*
X0126785Y0202718D02*
X0131749Y0202718D01*
X0130570Y0201539D02*
X0126785Y0201539D01*
X0126785Y0200359D02*
X0129390Y0200359D01*
X0128210Y0199180D02*
X0126566Y0199180D01*
X0127031Y0198000D02*
X0126053Y0198000D01*
X0125851Y0196820D02*
X0125060Y0196820D01*
X0118278Y0196820D02*
X0104809Y0196820D01*
X0105985Y0198000D02*
X0117285Y0198000D01*
X0116773Y0199180D02*
X0106473Y0199180D01*
X0106700Y0200359D02*
X0116554Y0200359D01*
X0116554Y0201539D02*
X0106700Y0201539D01*
X0106700Y0202718D02*
X0116554Y0202718D01*
X0105322Y0175587D02*
X0066914Y0175587D01*
X0067588Y0174408D02*
X0104649Y0174408D01*
X0082505Y0172048D02*
X0078156Y0172048D01*
X0079101Y0170869D02*
X0081560Y0170869D01*
X0081093Y0169689D02*
X0079568Y0169689D01*
X0079568Y0168510D02*
X0081093Y0168510D01*
X0081406Y0167330D02*
X0079255Y0167330D01*
X0078528Y0166150D02*
X0082133Y0166150D01*
X0075409Y0153165D02*
X0063677Y0164898D01*
X0063677Y0169898D01*
X0059487Y0169689D02*
X0054087Y0169689D01*
X0054087Y0169488D02*
X0058268Y0169488D01*
X0058268Y0166536D01*
X0058155Y0165823D01*
X0057931Y0165135D01*
X0057603Y0164492D01*
X0057179Y0163907D01*
X0056668Y0163396D01*
X0056083Y0162971D01*
X0055439Y0162643D01*
X0054752Y0162420D01*
X0054087Y0162315D01*
X0054087Y0169488D01*
X0053268Y0169488D02*
X0053268Y0162315D01*
X0052602Y0162420D01*
X0051915Y0162643D01*
X0051271Y0162971D01*
X0050687Y0163396D01*
X0050176Y0163907D01*
X0049751Y0164492D01*
X0049423Y0165135D01*
X0049200Y0165823D01*
X0049087Y0166536D01*
X0049087Y0169488D01*
X0053268Y0169488D01*
X0053268Y0169689D02*
X0029631Y0169689D01*
X0030162Y0168510D02*
X0049087Y0168510D01*
X0049087Y0167330D02*
X0030422Y0167330D01*
X0030422Y0166150D02*
X0049148Y0166150D01*
X0049507Y0164971D02*
X0029992Y0164971D01*
X0029221Y0163791D02*
X0050292Y0163791D01*
X0049355Y0162612D02*
X0052013Y0162612D01*
X0053268Y0162612D02*
X0054087Y0162612D01*
X0054087Y0163791D02*
X0053268Y0163791D01*
X0053268Y0164971D02*
X0054087Y0164971D01*
X0054087Y0166150D02*
X0053268Y0166150D01*
X0053268Y0167330D02*
X0054087Y0167330D01*
X0054087Y0168510D02*
X0053268Y0168510D01*
X0049087Y0170869D02*
X0028451Y0170869D01*
X0029590Y0162612D02*
X0045715Y0162612D01*
X0044536Y0161432D02*
X0030770Y0161432D01*
X0031949Y0160252D02*
X0043745Y0160252D01*
X0043745Y0159073D02*
X0033129Y0159073D01*
X0034309Y0157893D02*
X0043745Y0157893D01*
X0044532Y0156713D02*
X0035488Y0156713D01*
X0036668Y0155534D02*
X0045712Y0155534D01*
X0044941Y0151995D02*
X0040207Y0151995D01*
X0037594Y0148456D02*
X0030696Y0148456D01*
X0030237Y0149636D02*
X0036415Y0149636D01*
X0035235Y0150815D02*
X0029385Y0150815D01*
X0027681Y0151995D02*
X0034055Y0151995D01*
X0032876Y0153175D02*
X0009134Y0153175D01*
X0009134Y0154354D02*
X0031696Y0154354D01*
X0030516Y0155534D02*
X0009134Y0155534D01*
X0009134Y0156713D02*
X0029337Y0156713D01*
X0028157Y0157893D02*
X0009134Y0157893D01*
X0009134Y0159073D02*
X0026978Y0159073D01*
X0025798Y0160252D02*
X0009134Y0160252D01*
X0009134Y0161432D02*
X0024618Y0161432D01*
X0016795Y0162612D02*
X0009134Y0162612D01*
X0009134Y0163791D02*
X0015141Y0163791D01*
X0014370Y0164971D02*
X0009134Y0164971D01*
X0009134Y0166150D02*
X0013941Y0166150D01*
X0019516Y0172048D02*
X0049087Y0172048D01*
X0049087Y0173228D02*
X0019961Y0173228D01*
X0019961Y0174408D02*
X0049341Y0174408D01*
X0049957Y0175587D02*
X0019961Y0175587D01*
X0018969Y0195641D02*
X0061629Y0195641D01*
X0062030Y0195641D02*
X0063199Y0195641D01*
X0063199Y0196820D02*
X0062030Y0196820D01*
X0062030Y0198000D02*
X0063199Y0198000D01*
X0063199Y0199180D02*
X0062030Y0199180D01*
X0062030Y0200359D02*
X0063199Y0200359D01*
X0063199Y0201539D02*
X0062030Y0201539D01*
X0062030Y0202718D02*
X0063199Y0202718D01*
X0063199Y0203898D02*
X0077584Y0203898D01*
X0063199Y0205078D02*
X0062030Y0205078D01*
X0062030Y0204773D02*
X0062030Y0212801D01*
X0061416Y0212704D01*
X0060650Y0212455D01*
X0059933Y0212089D01*
X0059282Y0211616D01*
X0058712Y0211047D01*
X0058239Y0210395D01*
X0057873Y0209678D01*
X0057625Y0208912D01*
X0057499Y0208117D01*
X0057499Y0204773D01*
X0062030Y0204773D01*
X0062030Y0203898D02*
X0047645Y0203898D01*
X0047645Y0202718D02*
X0057499Y0202718D01*
X0057499Y0201539D02*
X0047645Y0201539D01*
X0047645Y0200359D02*
X0057499Y0200359D01*
X0057718Y0199180D02*
X0047418Y0199180D01*
X0046930Y0198000D02*
X0058230Y0198000D01*
X0059223Y0196820D02*
X0045754Y0196820D01*
X0040104Y0196820D02*
X0026069Y0196820D01*
X0025915Y0196666D02*
X0027242Y0197993D01*
X0027960Y0199726D01*
X0027960Y0208652D01*
X0027242Y0210385D01*
X0025915Y0211712D01*
X0024182Y0212430D01*
X0022306Y0212430D01*
X0020573Y0211712D01*
X0019246Y0210385D01*
X0018529Y0208652D01*
X0018529Y0199726D01*
X0019246Y0197993D01*
X0020573Y0196666D01*
X0022306Y0195948D01*
X0024182Y0195948D01*
X0025915Y0196666D01*
X0027245Y0198000D02*
X0038929Y0198000D01*
X0038440Y0199180D02*
X0027733Y0199180D01*
X0027960Y0200359D02*
X0038214Y0200359D01*
X0038214Y0201539D02*
X0027960Y0201539D01*
X0027960Y0202718D02*
X0038214Y0202718D01*
X0038214Y0203898D02*
X0027960Y0203898D01*
X0027960Y0205078D02*
X0038214Y0205078D01*
X0038214Y0206257D02*
X0027960Y0206257D01*
X0027960Y0207437D02*
X0038214Y0207437D01*
X0038214Y0208616D02*
X0027960Y0208616D01*
X0027486Y0209796D02*
X0038688Y0209796D01*
X0039522Y0210976D02*
X0026651Y0210976D01*
X0024844Y0212155D02*
X0040754Y0212155D01*
X0040754Y0213335D02*
X0009134Y0213335D01*
X0009134Y0214515D02*
X0040754Y0214515D01*
X0040754Y0215694D02*
X0009134Y0215694D01*
X0009134Y0216874D02*
X0040754Y0216874D01*
X0040754Y0218053D02*
X0009134Y0218053D01*
X0009134Y0219233D02*
X0040754Y0219233D01*
X0040754Y0220413D02*
X0009134Y0220413D01*
X0009134Y0221592D02*
X0040754Y0221592D01*
X0040754Y0222772D02*
X0009134Y0222772D01*
X0009134Y0223951D02*
X0040754Y0223951D01*
X0040754Y0225131D02*
X0009134Y0225131D01*
X0009134Y0226311D02*
X0040833Y0226311D01*
X0042013Y0227490D02*
X0009134Y0227490D01*
X0009134Y0228670D02*
X0043193Y0228670D01*
X0043745Y0229850D02*
X0009134Y0229850D01*
X0009134Y0231029D02*
X0043745Y0231029D01*
X0044447Y0232209D02*
X0009134Y0232209D01*
X0009134Y0233388D02*
X0016068Y0233388D01*
X0014689Y0234568D02*
X0009134Y0234568D01*
X0009134Y0235748D02*
X0013966Y0235748D01*
X0013617Y0236927D02*
X0009134Y0236927D01*
X0009134Y0238107D02*
X0021597Y0238107D01*
X0022766Y0238107D02*
X0038495Y0238107D01*
X0037315Y0239286D02*
X0030606Y0239286D01*
X0030095Y0240466D02*
X0036135Y0240466D01*
X0034956Y0241646D02*
X0029106Y0241646D01*
X0026748Y0242825D02*
X0033776Y0242825D01*
X0032597Y0244005D02*
X0009134Y0244005D01*
X0009134Y0245184D02*
X0031417Y0245184D01*
X0030237Y0246364D02*
X0009134Y0246364D01*
X0009134Y0247544D02*
X0029058Y0247544D01*
X0027878Y0248723D02*
X0009134Y0248723D01*
X0009134Y0249903D02*
X0026699Y0249903D01*
X0025519Y0251083D02*
X0009134Y0251083D01*
X0009134Y0252262D02*
X0024339Y0252262D01*
X0029311Y0253442D02*
X0051430Y0253442D01*
X0051271Y0253523D02*
X0051915Y0253195D01*
X0052602Y0252971D01*
X0053268Y0252866D01*
X0053268Y0260039D01*
X0049087Y0260039D01*
X0049087Y0257088D01*
X0049200Y0256374D01*
X0049423Y0255687D01*
X0049751Y0255043D01*
X0050176Y0254458D01*
X0050687Y0253947D01*
X0051271Y0253523D01*
X0050256Y0252262D02*
X0064345Y0252262D01*
X0065525Y0251083D02*
X0051326Y0251083D01*
X0051326Y0249903D02*
X0066704Y0249903D01*
X0067884Y0248723D02*
X0051326Y0248723D01*
X0052133Y0247544D02*
X0069063Y0247544D01*
X0070243Y0246364D02*
X0053312Y0246364D01*
X0054492Y0245184D02*
X0071423Y0245184D01*
X0072602Y0244005D02*
X0055671Y0244005D01*
X0056851Y0242825D02*
X0073782Y0242825D01*
X0075409Y0243717D02*
X0120685Y0243717D01*
X0121177Y0243224D01*
X0125114Y0239287D01*
X0134780Y0239287D01*
X0220094Y0239287D01*
X0222774Y0239286D02*
X0223047Y0239286D01*
X0223047Y0238107D02*
X0222506Y0238107D01*
X0223047Y0236927D02*
X0221398Y0236927D01*
X0223047Y0235748D02*
X0136600Y0235748D01*
X0137780Y0236927D02*
X0218791Y0236927D01*
X0223047Y0234568D02*
X0172130Y0234568D01*
X0172663Y0233440D02*
X0172663Y0232340D01*
X0172405Y0231718D01*
X0179700Y0231718D01*
X0180191Y0232209D01*
X0172609Y0232209D01*
X0180191Y0232209D02*
X0181176Y0232617D01*
X0182242Y0232617D01*
X0183226Y0232209D01*
X0181709Y0229937D02*
X0134780Y0229937D01*
X0137693Y0227490D02*
X0180614Y0227490D01*
X0188881Y0247466D02*
X0148244Y0247466D01*
X0148559Y0247781D01*
X0148559Y0260449D01*
X0144764Y0265238D02*
X0142800Y0265238D01*
X0143110Y0264058D02*
X0144369Y0264058D01*
X0144369Y0262879D02*
X0143150Y0262879D01*
X0143150Y0261699D02*
X0144369Y0261699D01*
X0144369Y0260519D02*
X0138969Y0260519D01*
X0138969Y0260039D02*
X0143150Y0260039D01*
X0143150Y0257088D01*
X0143037Y0256374D01*
X0142813Y0255687D01*
X0142485Y0255043D01*
X0142061Y0254458D01*
X0141550Y0253947D01*
X0140965Y0253523D01*
X0140321Y0253195D01*
X0139634Y0252971D01*
X0138969Y0252866D01*
X0138969Y0260039D01*
X0138969Y0259340D02*
X0138150Y0259340D01*
X0138150Y0260039D02*
X0138150Y0252866D01*
X0137484Y0252971D01*
X0136797Y0253195D01*
X0136153Y0253523D01*
X0135569Y0253947D01*
X0135058Y0254458D01*
X0134633Y0255043D01*
X0134305Y0255687D01*
X0134082Y0256374D01*
X0133969Y0257088D01*
X0133969Y0260039D01*
X0138150Y0260039D01*
X0138150Y0260519D02*
X0132750Y0260519D01*
X0132750Y0259340D02*
X0133969Y0259340D01*
X0133969Y0258160D02*
X0132750Y0258160D01*
X0132750Y0256981D02*
X0133985Y0256981D01*
X0134268Y0255801D02*
X0132412Y0255801D01*
X0131658Y0254621D02*
X0134939Y0254621D01*
X0136312Y0253442D02*
X0129836Y0253442D01*
X0132059Y0252262D02*
X0104816Y0252262D01*
X0103636Y0253442D02*
X0107282Y0253442D01*
X0105460Y0254621D02*
X0102695Y0254621D01*
X0102395Y0255801D02*
X0104706Y0255801D01*
X0104369Y0256981D02*
X0101133Y0256981D01*
X0099464Y0258160D02*
X0104369Y0258160D01*
X0100016Y0254543D02*
X0104445Y0250114D01*
X0126098Y0250114D01*
X0132496Y0243717D01*
X0211236Y0243717D01*
X0213205Y0245685D01*
X0215135Y0247544D02*
X0223047Y0247544D01*
X0223047Y0248723D02*
X0192459Y0248723D01*
X0192340Y0247544D02*
X0211274Y0247544D01*
X0210586Y0246364D02*
X0191568Y0246364D01*
X0189780Y0248365D02*
X0188881Y0247466D01*
X0192031Y0249903D02*
X0203229Y0249903D01*
X0205331Y0251591D02*
X0204346Y0252575D01*
X0169898Y0252575D01*
X0167929Y0250606D01*
X0165796Y0252262D02*
X0150340Y0252262D01*
X0150340Y0251083D02*
X0165250Y0251083D01*
X0165320Y0249903D02*
X0150340Y0249903D01*
X0148244Y0247466D02*
X0136935Y0247466D01*
X0134780Y0249622D01*
X0137500Y0252262D02*
X0146778Y0252262D01*
X0146778Y0251083D02*
X0138570Y0251083D01*
X0138570Y0249903D02*
X0146778Y0249903D01*
X0146778Y0253442D02*
X0140806Y0253442D01*
X0142179Y0254621D02*
X0145460Y0254621D01*
X0144706Y0255801D02*
X0142850Y0255801D01*
X0143133Y0256981D02*
X0144369Y0256981D01*
X0144369Y0258160D02*
X0143150Y0258160D01*
X0143150Y0259340D02*
X0144369Y0259340D01*
X0138969Y0258160D02*
X0138150Y0258160D01*
X0138150Y0256981D02*
X0138969Y0256981D01*
X0138969Y0255801D02*
X0138150Y0255801D01*
X0138150Y0254621D02*
X0138969Y0254621D01*
X0138969Y0253442D02*
X0138150Y0253442D01*
X0131497Y0247544D02*
X0131188Y0247544D01*
X0130989Y0248723D02*
X0130008Y0248723D01*
X0130989Y0249903D02*
X0128828Y0249903D01*
X0127649Y0251083D02*
X0130989Y0251083D01*
X0127282Y0253442D02*
X0119836Y0253442D01*
X0121658Y0254621D02*
X0125460Y0254621D01*
X0124706Y0255801D02*
X0122412Y0255801D01*
X0122750Y0256981D02*
X0124369Y0256981D01*
X0124369Y0258160D02*
X0122750Y0258160D01*
X0122750Y0259340D02*
X0124369Y0259340D01*
X0124369Y0260519D02*
X0122750Y0260519D01*
X0122750Y0261699D02*
X0124369Y0261699D01*
X0124369Y0262879D02*
X0122750Y0262879D01*
X0122750Y0264058D02*
X0124369Y0264058D01*
X0124764Y0265238D02*
X0122354Y0265238D01*
X0121517Y0266418D02*
X0125601Y0266418D01*
X0131517Y0266418D02*
X0135042Y0266418D01*
X0134319Y0265238D02*
X0132354Y0265238D01*
X0132750Y0264058D02*
X0134008Y0264058D01*
X0133969Y0262879D02*
X0132750Y0262879D01*
X0132750Y0261699D02*
X0133969Y0261699D01*
X0142076Y0266418D02*
X0145601Y0266418D01*
X0151517Y0266418D02*
X0223047Y0266418D01*
X0223047Y0265238D02*
X0152354Y0265238D01*
X0152750Y0264058D02*
X0223047Y0264058D01*
X0223047Y0262879D02*
X0152750Y0262879D01*
X0152750Y0261699D02*
X0223047Y0261699D01*
X0223047Y0260519D02*
X0152750Y0260519D01*
X0152750Y0259340D02*
X0223047Y0259340D01*
X0223047Y0258160D02*
X0152750Y0258160D01*
X0152750Y0256981D02*
X0223047Y0256981D01*
X0223047Y0255801D02*
X0152412Y0255801D01*
X0151658Y0254621D02*
X0223047Y0254621D01*
X0223047Y0253442D02*
X0207269Y0253442D01*
X0207953Y0252262D02*
X0223047Y0252262D01*
X0223047Y0251083D02*
X0208010Y0251083D01*
X0207433Y0249903D02*
X0223047Y0249903D01*
X0223047Y0246364D02*
X0215824Y0246364D01*
X0215884Y0245184D02*
X0223047Y0245184D01*
X0223047Y0244005D02*
X0215314Y0244005D01*
X0212864Y0242825D02*
X0223047Y0242825D01*
X0223047Y0241646D02*
X0221403Y0241646D01*
X0222507Y0240466D02*
X0223047Y0240466D01*
X0218786Y0241646D02*
X0137782Y0241646D01*
X0132067Y0241935D02*
X0131200Y0241068D01*
X0125852Y0241068D01*
X0122958Y0243962D01*
X0122426Y0244494D01*
X0123007Y0244494D01*
X0123104Y0244398D01*
X0124089Y0243990D01*
X0125155Y0243990D01*
X0126140Y0244398D01*
X0126894Y0245151D01*
X0127302Y0246136D01*
X0127302Y0246392D01*
X0130715Y0242979D01*
X0131758Y0241935D01*
X0132067Y0241935D01*
X0131777Y0241646D02*
X0125275Y0241646D01*
X0124095Y0242825D02*
X0130868Y0242825D01*
X0129689Y0244005D02*
X0125192Y0244005D01*
X0124053Y0244005D02*
X0122916Y0244005D01*
X0126907Y0245184D02*
X0128509Y0245184D01*
X0127330Y0246364D02*
X0127302Y0246364D01*
X0132367Y0246364D02*
X0132677Y0246364D01*
X0136689Y0233388D02*
X0145479Y0233388D01*
X0145533Y0232209D02*
X0137868Y0232209D01*
X0146012Y0234568D02*
X0093837Y0234568D01*
X0091866Y0227490D02*
X0090449Y0227490D01*
X0089270Y0226311D02*
X0093045Y0226311D01*
X0085801Y0226311D02*
X0079159Y0226311D01*
X0079159Y0227490D02*
X0079294Y0227490D01*
X0083336Y0227490D02*
X0084621Y0227490D01*
X0075597Y0227490D02*
X0072186Y0227490D01*
X0073366Y0226311D02*
X0075597Y0226311D01*
X0075597Y0225131D02*
X0074545Y0225131D01*
X0075597Y0228670D02*
X0071006Y0228670D01*
X0069827Y0229850D02*
X0075597Y0229850D01*
X0075597Y0231029D02*
X0068647Y0231029D01*
X0067468Y0232209D02*
X0075597Y0232209D01*
X0075597Y0233388D02*
X0066288Y0233388D01*
X0065108Y0234568D02*
X0075597Y0234568D01*
X0075597Y0235748D02*
X0063929Y0235748D01*
X0062749Y0236927D02*
X0075597Y0236927D01*
X0075261Y0238107D02*
X0061570Y0238107D01*
X0060390Y0239286D02*
X0074698Y0239286D01*
X0074762Y0240466D02*
X0059210Y0240466D01*
X0058031Y0241646D02*
X0075455Y0241646D01*
X0075409Y0243717D02*
X0063677Y0255449D01*
X0063677Y0260449D01*
X0067868Y0264058D02*
X0104369Y0264058D01*
X0104764Y0265238D02*
X0067472Y0265238D01*
X0066635Y0266418D02*
X0105601Y0266418D01*
X0111517Y0266418D02*
X0115601Y0266418D01*
X0114764Y0265238D02*
X0112354Y0265238D01*
X0112750Y0264058D02*
X0114369Y0264058D01*
X0114369Y0262879D02*
X0112750Y0262879D01*
X0112750Y0261699D02*
X0114369Y0261699D01*
X0114369Y0260519D02*
X0112750Y0260519D01*
X0112750Y0259340D02*
X0114369Y0259340D01*
X0114369Y0258160D02*
X0112750Y0258160D01*
X0112750Y0256981D02*
X0114369Y0256981D01*
X0114706Y0255801D02*
X0112412Y0255801D01*
X0111658Y0254621D02*
X0115460Y0254621D01*
X0117282Y0253442D02*
X0109836Y0253442D01*
X0102137Y0249903D02*
X0098570Y0249903D01*
X0098570Y0251083D02*
X0100958Y0251083D01*
X0098521Y0252262D02*
X0097500Y0252262D01*
X0097572Y0253442D02*
X0068203Y0253442D01*
X0062401Y0253442D02*
X0055924Y0253442D01*
X0056083Y0253523D02*
X0056668Y0253947D01*
X0057179Y0254458D01*
X0057603Y0255043D01*
X0057931Y0255687D01*
X0058155Y0256374D01*
X0058268Y0257088D01*
X0058268Y0260039D01*
X0054087Y0260039D01*
X0054087Y0252866D01*
X0054752Y0252971D01*
X0055439Y0253195D01*
X0056083Y0253523D01*
X0057297Y0254621D02*
X0060578Y0254621D01*
X0059824Y0255801D02*
X0057969Y0255801D01*
X0058251Y0256981D02*
X0059487Y0256981D01*
X0059487Y0258160D02*
X0058268Y0258160D01*
X0058268Y0259340D02*
X0059487Y0259340D01*
X0059487Y0260519D02*
X0054087Y0260519D01*
X0053268Y0260519D02*
X0029351Y0260519D01*
X0030046Y0259340D02*
X0049087Y0259340D01*
X0049087Y0258160D02*
X0030422Y0258160D01*
X0030422Y0256981D02*
X0049104Y0256981D01*
X0049386Y0255801D02*
X0030108Y0255801D01*
X0029500Y0254621D02*
X0050057Y0254621D01*
X0053268Y0254621D02*
X0054087Y0254621D01*
X0054087Y0253442D02*
X0053268Y0253442D01*
X0053268Y0255801D02*
X0054087Y0255801D01*
X0054087Y0256981D02*
X0053268Y0256981D01*
X0053268Y0258160D02*
X0054087Y0258160D01*
X0054087Y0259340D02*
X0053268Y0259340D01*
X0049087Y0261699D02*
X0027881Y0261699D01*
X0019961Y0264058D02*
X0049126Y0264058D01*
X0049087Y0262879D02*
X0019631Y0262879D01*
X0019961Y0265238D02*
X0049437Y0265238D01*
X0050160Y0266418D02*
X0019961Y0266418D01*
X0013941Y0256981D02*
X0013463Y0256981D01*
X0014254Y0255801D02*
X0009134Y0255801D01*
X0009134Y0254621D02*
X0014862Y0254621D01*
X0016122Y0253442D02*
X0009134Y0253442D01*
X0009134Y0256981D02*
X0009403Y0256981D01*
X0009134Y0242825D02*
X0017614Y0242825D01*
X0015256Y0241646D02*
X0009134Y0241646D01*
X0009134Y0240466D02*
X0014268Y0240466D01*
X0013757Y0239286D02*
X0009134Y0239286D01*
X0021597Y0239286D02*
X0022766Y0239286D01*
X0022766Y0240466D02*
X0021597Y0240466D01*
X0021597Y0241646D02*
X0022766Y0241646D01*
X0022766Y0242825D02*
X0021597Y0242825D01*
X0021597Y0236927D02*
X0022766Y0236927D01*
X0022766Y0235748D02*
X0021597Y0235748D01*
X0021597Y0234568D02*
X0022766Y0234568D01*
X0022766Y0233388D02*
X0021597Y0233388D01*
X0021644Y0212155D02*
X0009134Y0212155D01*
X0009134Y0210976D02*
X0019837Y0210976D01*
X0019002Y0209796D02*
X0009134Y0209796D01*
X0009134Y0208616D02*
X0018529Y0208616D01*
X0018529Y0207437D02*
X0009134Y0207437D01*
X0009134Y0206257D02*
X0018529Y0206257D01*
X0018529Y0205078D02*
X0009134Y0205078D01*
X0009134Y0203898D02*
X0018529Y0203898D01*
X0018529Y0202718D02*
X0009134Y0202718D01*
X0009134Y0201539D02*
X0018529Y0201539D01*
X0018529Y0200359D02*
X0009134Y0200359D01*
X0015300Y0199180D02*
X0018755Y0199180D01*
X0019243Y0198000D02*
X0017044Y0198000D01*
X0018224Y0196820D02*
X0020419Y0196820D01*
X0045104Y0212155D02*
X0060063Y0212155D01*
X0058661Y0210976D02*
X0046336Y0210976D01*
X0047171Y0209796D02*
X0057934Y0209796D01*
X0057578Y0208616D02*
X0047645Y0208616D01*
X0047645Y0207437D02*
X0057499Y0207437D01*
X0057499Y0206257D02*
X0047645Y0206257D01*
X0047645Y0205078D02*
X0057499Y0205078D01*
X0062030Y0206257D02*
X0063199Y0206257D01*
X0063199Y0207437D02*
X0062030Y0207437D01*
X0062030Y0208616D02*
X0063199Y0208616D01*
X0063199Y0209796D02*
X0062030Y0209796D01*
X0062030Y0210976D02*
X0063199Y0210976D01*
X0063199Y0212155D02*
X0062030Y0212155D01*
X0049454Y0245184D02*
X0037568Y0245184D01*
X0057194Y0266418D02*
X0060720Y0266418D01*
X0059882Y0265238D02*
X0057918Y0265238D01*
X0058228Y0264058D02*
X0059487Y0264058D01*
X0059487Y0262879D02*
X0058268Y0262879D01*
X0058268Y0261699D02*
X0059487Y0261699D01*
X0062030Y0286128D02*
X0062030Y0294156D01*
X0057499Y0294156D01*
X0057499Y0290813D01*
X0057625Y0290017D01*
X0057873Y0289251D01*
X0058239Y0288534D01*
X0058712Y0287883D01*
X0059282Y0287313D01*
X0059933Y0286840D01*
X0060650Y0286474D01*
X0061416Y0286226D01*
X0062030Y0286128D01*
X0062030Y0286471D02*
X0063199Y0286471D01*
X0063199Y0286128D02*
X0063812Y0286226D01*
X0064578Y0286474D01*
X0065295Y0286840D01*
X0065947Y0287313D01*
X0066516Y0287883D01*
X0066989Y0288534D01*
X0067355Y0289251D01*
X0067604Y0290017D01*
X0067730Y0290813D01*
X0067730Y0294156D01*
X0063199Y0294156D01*
X0063199Y0295325D01*
X0067730Y0295325D01*
X0067730Y0298668D01*
X0067604Y0299463D01*
X0067355Y0300229D01*
X0066989Y0300946D01*
X0066516Y0301598D01*
X0065947Y0302167D01*
X0065295Y0302640D01*
X0064578Y0303006D01*
X0063812Y0303255D01*
X0063199Y0303352D01*
X0063199Y0295325D01*
X0062030Y0295325D01*
X0062030Y0303352D01*
X0061416Y0303255D01*
X0060650Y0303006D01*
X0059933Y0302640D01*
X0059282Y0302167D01*
X0058712Y0301598D01*
X0058239Y0300946D01*
X0057873Y0300229D01*
X0057625Y0299463D01*
X0057499Y0298668D01*
X0057499Y0295325D01*
X0062030Y0295325D01*
X0062030Y0294156D01*
X0063199Y0294156D01*
X0063199Y0286128D01*
X0064567Y0286471D02*
X0085544Y0286471D01*
X0084848Y0287167D02*
X0090941Y0281074D01*
X0091228Y0280787D01*
X0019961Y0280787D01*
X0019961Y0283799D01*
X0018662Y0286933D01*
X0016264Y0289332D01*
X0013129Y0290630D01*
X0009737Y0290630D01*
X0009134Y0290380D01*
X0009134Y0347643D01*
X0009737Y0347394D01*
X0013129Y0347394D01*
X0013941Y0347730D01*
X0013941Y0347109D01*
X0014658Y0345376D01*
X0015985Y0344050D01*
X0017718Y0343332D01*
X0023821Y0343332D01*
X0037723Y0329430D01*
X0037723Y0329430D01*
X0038997Y0328156D01*
X0044350Y0328156D01*
X0045965Y0326540D01*
X0049106Y0326540D01*
X0051326Y0328761D01*
X0051326Y0331901D01*
X0049106Y0334121D01*
X0045965Y0334121D01*
X0044350Y0332505D01*
X0040798Y0332505D01*
X0028816Y0344488D01*
X0029704Y0345376D01*
X0030422Y0347109D01*
X0030422Y0348985D01*
X0029704Y0350718D01*
X0028377Y0352045D01*
X0026644Y0352763D01*
X0019355Y0352763D01*
X0019961Y0354225D01*
X0019961Y0357236D01*
X0050421Y0357236D01*
X0050176Y0356991D01*
X0049751Y0356406D01*
X0049423Y0355762D01*
X0049200Y0355075D01*
X0049087Y0354361D01*
X0049087Y0351409D01*
X0053268Y0351409D01*
X0053268Y0350591D01*
X0049087Y0350591D01*
X0049087Y0347639D01*
X0049200Y0346925D01*
X0049423Y0346238D01*
X0049751Y0345594D01*
X0050176Y0345009D01*
X0050687Y0344499D01*
X0051271Y0344074D01*
X0051915Y0343746D01*
X0052602Y0343522D01*
X0053268Y0343417D01*
X0053268Y0350590D01*
X0054087Y0350590D01*
X0054087Y0350591D02*
X0054087Y0351409D01*
X0058268Y0351409D01*
X0058268Y0354361D01*
X0058155Y0355075D01*
X0057931Y0355762D01*
X0057603Y0356406D01*
X0057179Y0356991D01*
X0056933Y0357236D01*
X0060987Y0357236D01*
X0060125Y0356374D01*
X0059487Y0354834D01*
X0059487Y0347166D01*
X0060125Y0345626D01*
X0061303Y0344447D01*
X0062844Y0343809D01*
X0063349Y0343809D01*
X0073628Y0333530D01*
X0074672Y0332487D01*
X0075744Y0332487D01*
X0075106Y0331849D01*
X0074698Y0330864D01*
X0074698Y0329798D01*
X0075106Y0328813D01*
X0075597Y0328322D01*
X0075597Y0314631D01*
X0051326Y0338902D01*
X0051326Y0341743D01*
X0049106Y0343964D01*
X0045965Y0343964D01*
X0043745Y0341743D01*
X0043745Y0338603D01*
X0045965Y0336383D01*
X0048807Y0336383D01*
X0081680Y0303510D01*
X0082209Y0302981D01*
X0081361Y0302981D01*
X0079628Y0302263D01*
X0078302Y0300936D01*
X0077584Y0299203D01*
X0077584Y0290277D01*
X0078302Y0288544D01*
X0079628Y0287218D01*
X0081361Y0286500D01*
X0083237Y0286500D01*
X0084848Y0287167D01*
X0086724Y0285291D02*
X0019342Y0285291D01*
X0019831Y0284112D02*
X0087903Y0284112D01*
X0089083Y0282932D02*
X0019961Y0282932D01*
X0019961Y0281753D02*
X0090262Y0281753D01*
X0090941Y0281074D02*
X0090941Y0281074D01*
X0095424Y0286639D02*
X0087015Y0295049D01*
X0087015Y0299203D01*
X0086297Y0300936D01*
X0084970Y0302263D01*
X0084478Y0302467D01*
X0099806Y0302467D01*
X0099313Y0302263D01*
X0097987Y0300936D01*
X0097269Y0299203D01*
X0097269Y0290277D01*
X0097987Y0288544D01*
X0099313Y0287218D01*
X0100709Y0286639D01*
X0095424Y0286639D01*
X0094413Y0287651D02*
X0098880Y0287651D01*
X0097868Y0288830D02*
X0093233Y0288830D01*
X0092054Y0290010D02*
X0097379Y0290010D01*
X0097269Y0291189D02*
X0090874Y0291189D01*
X0089695Y0292369D02*
X0097269Y0292369D01*
X0097269Y0293549D02*
X0088515Y0293549D01*
X0087335Y0294728D02*
X0097269Y0294728D01*
X0097269Y0295908D02*
X0087015Y0295908D01*
X0087015Y0297088D02*
X0097269Y0297088D01*
X0097269Y0298267D02*
X0087015Y0298267D01*
X0086914Y0299447D02*
X0097370Y0299447D01*
X0097858Y0300626D02*
X0086425Y0300626D01*
X0085427Y0301806D02*
X0098856Y0301806D01*
X0104163Y0302467D02*
X0118749Y0302467D01*
X0118337Y0302167D01*
X0117767Y0301598D01*
X0117294Y0300946D01*
X0116929Y0300229D01*
X0116680Y0299463D01*
X0116554Y0298668D01*
X0116554Y0295325D01*
X0121085Y0295325D01*
X0121085Y0294156D01*
X0116554Y0294156D01*
X0116554Y0290813D01*
X0116680Y0290017D01*
X0116929Y0289251D01*
X0117294Y0288534D01*
X0117767Y0287883D01*
X0118337Y0287313D01*
X0118988Y0286840D01*
X0119382Y0286639D01*
X0103260Y0286639D01*
X0104655Y0287218D01*
X0105982Y0288544D01*
X0106700Y0290277D01*
X0106700Y0299203D01*
X0105982Y0300936D01*
X0104655Y0302263D01*
X0104163Y0302467D01*
X0105112Y0301806D02*
X0117976Y0301806D01*
X0117131Y0300626D02*
X0106110Y0300626D01*
X0106599Y0299447D02*
X0116677Y0299447D01*
X0116554Y0298267D02*
X0106700Y0298267D01*
X0106700Y0297088D02*
X0116554Y0297088D01*
X0116554Y0295908D02*
X0106700Y0295908D01*
X0106700Y0294728D02*
X0121085Y0294728D01*
X0122254Y0294728D02*
X0129194Y0294728D01*
X0129314Y0294438D02*
X0130068Y0293684D01*
X0131053Y0293276D01*
X0131756Y0293276D01*
X0125119Y0286639D01*
X0123957Y0286639D01*
X0124350Y0286840D01*
X0125002Y0287313D01*
X0125571Y0287883D01*
X0126044Y0288534D01*
X0126410Y0289251D01*
X0126659Y0290017D01*
X0126785Y0290813D01*
X0126785Y0294156D01*
X0122254Y0294156D01*
X0122254Y0295325D01*
X0126785Y0295325D01*
X0126785Y0298238D01*
X0128906Y0296116D01*
X0128906Y0295423D01*
X0129314Y0294438D01*
X0130395Y0293549D02*
X0126785Y0293549D01*
X0126785Y0292369D02*
X0130849Y0292369D01*
X0129669Y0291189D02*
X0126785Y0291189D01*
X0126656Y0290010D02*
X0128489Y0290010D01*
X0127310Y0288830D02*
X0126195Y0288830D01*
X0126130Y0287651D02*
X0125339Y0287651D01*
X0126785Y0295908D02*
X0128906Y0295908D01*
X0127935Y0297088D02*
X0126785Y0297088D01*
X0129434Y0300626D02*
X0132084Y0300626D01*
X0131896Y0301081D02*
X0132437Y0299775D01*
X0133436Y0298776D01*
X0134742Y0298235D01*
X0136714Y0298235D01*
X0134265Y0295786D01*
X0134265Y0296489D01*
X0133857Y0297473D01*
X0133103Y0298227D01*
X0132119Y0298635D01*
X0131425Y0298635D01*
X0124914Y0305146D01*
X0130648Y0305146D01*
X0131140Y0305639D01*
X0131884Y0305639D01*
X0132376Y0305146D01*
X0134275Y0305146D01*
X0133436Y0304799D01*
X0132437Y0303800D01*
X0131896Y0302494D01*
X0131896Y0301081D01*
X0131896Y0301806D02*
X0128254Y0301806D01*
X0127075Y0302986D02*
X0132100Y0302986D01*
X0132802Y0304165D02*
X0125895Y0304165D01*
X0123293Y0304248D02*
X0131586Y0295956D01*
X0134265Y0295908D02*
X0134387Y0295908D01*
X0134017Y0297088D02*
X0135567Y0297088D01*
X0134664Y0298267D02*
X0133007Y0298267D01*
X0132765Y0299447D02*
X0130613Y0299447D01*
X0130846Y0305345D02*
X0132178Y0305345D01*
X0133114Y0306928D02*
X0187395Y0306928D01*
X0197457Y0296866D01*
X0199960Y0295908D02*
X0201854Y0295908D01*
X0202651Y0296705D02*
X0188514Y0282568D01*
X0136160Y0282568D01*
X0136160Y0282635D01*
X0135752Y0283620D01*
X0134998Y0284374D01*
X0134013Y0284782D01*
X0133310Y0284782D01*
X0143367Y0294839D01*
X0144366Y0295838D01*
X0144907Y0297144D01*
X0144907Y0298235D01*
X0147967Y0298235D01*
X0149272Y0298776D01*
X0150272Y0299775D01*
X0150813Y0301081D01*
X0150813Y0302494D01*
X0150272Y0303800D01*
X0149272Y0304799D01*
X0148434Y0305146D01*
X0186658Y0305146D01*
X0194777Y0297027D01*
X0194777Y0296333D01*
X0195185Y0295348D01*
X0195939Y0294595D01*
X0196924Y0294187D01*
X0197990Y0294187D01*
X0198975Y0294595D01*
X0199728Y0295348D01*
X0200136Y0296333D01*
X0200136Y0297399D01*
X0199728Y0298384D01*
X0198975Y0299138D01*
X0197990Y0299546D01*
X0197296Y0299546D01*
X0189176Y0307665D01*
X0188133Y0308709D01*
X0133852Y0308709D01*
X0133359Y0309201D01*
X0129664Y0309201D01*
X0129172Y0308709D01*
X0085308Y0308709D01*
X0079159Y0314858D01*
X0079159Y0318177D01*
X0080006Y0317329D01*
X0082623Y0317329D01*
X0083979Y0318684D01*
X0085965Y0316698D01*
X0089106Y0316698D01*
X0091157Y0318750D01*
X0093209Y0316698D01*
X0096350Y0316698D01*
X0098570Y0318918D01*
X0098570Y0322058D01*
X0096350Y0324279D01*
X0093589Y0324279D01*
X0093837Y0324876D01*
X0093837Y0325942D01*
X0093793Y0326048D01*
X0096350Y0326048D01*
X0098570Y0328268D01*
X0098570Y0331409D01*
X0097492Y0332487D01*
X0119947Y0332487D01*
X0120439Y0331994D01*
X0124376Y0328057D01*
X0131200Y0328057D01*
X0133209Y0326048D01*
X0136350Y0326048D01*
X0138359Y0328057D01*
X0218086Y0328057D01*
X0218577Y0327567D01*
X0219561Y0327159D01*
X0220627Y0327159D01*
X0221612Y0327567D01*
X0222366Y0328321D01*
X0222774Y0329306D01*
X0222774Y0330372D01*
X0222366Y0331356D01*
X0221612Y0332110D01*
X0220627Y0332518D01*
X0219561Y0332518D01*
X0218577Y0332110D01*
X0218086Y0331620D01*
X0138359Y0331620D01*
X0137492Y0332487D01*
X0211974Y0332487D01*
X0213017Y0333530D01*
X0213044Y0333557D01*
X0213738Y0333557D01*
X0214723Y0333965D01*
X0215476Y0334718D01*
X0215884Y0335703D01*
X0215884Y0336769D01*
X0215476Y0337754D01*
X0214723Y0338508D01*
X0213738Y0338916D01*
X0212672Y0338916D01*
X0211687Y0338508D01*
X0210933Y0337754D01*
X0210525Y0336769D01*
X0210525Y0336076D01*
X0210498Y0336049D01*
X0133234Y0336049D01*
X0127880Y0341403D01*
X0126836Y0342446D01*
X0105183Y0342446D01*
X0102695Y0344934D01*
X0102695Y0345627D01*
X0102287Y0346612D01*
X0101534Y0347366D01*
X0100549Y0347774D01*
X0099483Y0347774D01*
X0098937Y0347548D01*
X0098994Y0347626D01*
X0099320Y0348266D01*
X0099541Y0348948D01*
X0099648Y0349622D01*
X0095488Y0349622D01*
X0095488Y0345462D01*
X0096162Y0345569D01*
X0096845Y0345791D01*
X0097484Y0346116D01*
X0097562Y0346174D01*
X0097336Y0345627D01*
X0097336Y0344561D01*
X0097744Y0343577D01*
X0098498Y0342823D01*
X0099483Y0342415D01*
X0100176Y0342415D01*
X0103196Y0339395D01*
X0098633Y0339395D01*
X0098570Y0339458D01*
X0098570Y0341743D01*
X0096350Y0343964D01*
X0093209Y0343964D01*
X0091157Y0341912D01*
X0089106Y0343964D01*
X0085965Y0343964D01*
X0083745Y0341743D01*
X0083745Y0338603D01*
X0085965Y0336383D01*
X0089106Y0336383D01*
X0091157Y0338435D01*
X0093209Y0336383D01*
X0095494Y0336383D01*
X0095557Y0336320D01*
X0095828Y0336049D01*
X0076147Y0336049D01*
X0066900Y0345296D01*
X0067230Y0345626D01*
X0067868Y0347166D01*
X0067868Y0354834D01*
X0067230Y0356374D01*
X0066367Y0357236D01*
X0105869Y0357236D01*
X0105006Y0356374D01*
X0104369Y0354834D01*
X0104369Y0347166D01*
X0105006Y0345626D01*
X0106185Y0344447D01*
X0107725Y0343809D01*
X0109393Y0343809D01*
X0110933Y0344447D01*
X0112112Y0345626D01*
X0112750Y0347166D01*
X0112750Y0354834D01*
X0112112Y0356374D01*
X0111249Y0357236D01*
X0115869Y0357236D01*
X0115006Y0356374D01*
X0114369Y0354834D01*
X0114369Y0347166D01*
X0115006Y0345626D01*
X0116185Y0344447D01*
X0117725Y0343809D01*
X0119393Y0343809D01*
X0120933Y0344447D01*
X0122112Y0345626D01*
X0122750Y0347166D01*
X0122750Y0354834D01*
X0122112Y0356374D01*
X0121249Y0357236D01*
X0125869Y0357236D01*
X0125006Y0356374D01*
X0124369Y0354834D01*
X0124369Y0347166D01*
X0125006Y0345626D01*
X0126185Y0344447D01*
X0127725Y0343809D01*
X0129393Y0343809D01*
X0130933Y0344447D01*
X0132112Y0345626D01*
X0132750Y0347166D01*
X0132750Y0354834D01*
X0132112Y0356374D01*
X0131249Y0357236D01*
X0135303Y0357236D01*
X0135058Y0356991D01*
X0134633Y0356406D01*
X0134305Y0355762D01*
X0134082Y0355075D01*
X0133969Y0354361D01*
X0133969Y0351409D01*
X0138150Y0351409D01*
X0138150Y0350591D01*
X0138150Y0350590D02*
X0138969Y0350590D01*
X0138969Y0350591D02*
X0138969Y0351409D01*
X0143150Y0351409D01*
X0143150Y0354361D01*
X0143037Y0355075D01*
X0142813Y0355762D01*
X0142485Y0356406D01*
X0142061Y0356991D01*
X0141815Y0357236D01*
X0145869Y0357236D01*
X0145006Y0356374D01*
X0144369Y0354834D01*
X0144369Y0347166D01*
X0145006Y0345626D01*
X0146185Y0344447D01*
X0146778Y0344202D01*
X0146778Y0339798D01*
X0138570Y0339798D01*
X0138570Y0341743D01*
X0136350Y0343964D01*
X0133209Y0343964D01*
X0130989Y0341743D01*
X0130989Y0338603D01*
X0133209Y0336383D01*
X0136051Y0336383D01*
X0136198Y0336236D01*
X0190313Y0336236D01*
X0191297Y0336644D01*
X0192051Y0337398D01*
X0192459Y0338383D01*
X0192459Y0339449D01*
X0192051Y0340434D01*
X0191297Y0341187D01*
X0190917Y0341345D01*
X0202760Y0341345D01*
X0203059Y0340624D01*
X0203813Y0339870D01*
X0204798Y0339462D01*
X0205864Y0339462D01*
X0206849Y0339870D01*
X0207602Y0340624D01*
X0208010Y0341609D01*
X0208010Y0342675D01*
X0207602Y0343660D01*
X0206849Y0344413D01*
X0205864Y0344821D01*
X0205170Y0344821D01*
X0205084Y0344907D01*
X0169160Y0344907D01*
X0168117Y0343864D01*
X0168090Y0343837D01*
X0167396Y0343837D01*
X0166411Y0343429D01*
X0165658Y0342675D01*
X0165250Y0341690D01*
X0165250Y0340624D01*
X0165592Y0339798D01*
X0150340Y0339798D01*
X0150340Y0344202D01*
X0150933Y0344447D01*
X0152112Y0345626D01*
X0152750Y0347166D01*
X0152750Y0354834D01*
X0152112Y0356374D01*
X0151249Y0357236D01*
X0223047Y0357236D01*
X0223047Y0280787D01*
X0191771Y0280787D01*
X0205170Y0294187D01*
X0205864Y0294187D01*
X0206849Y0294595D01*
X0207602Y0295348D01*
X0208010Y0296333D01*
X0208010Y0297399D01*
X0207602Y0298384D01*
X0206849Y0299138D01*
X0205864Y0299546D01*
X0204798Y0299546D01*
X0203813Y0299138D01*
X0203059Y0298384D01*
X0202651Y0297399D01*
X0202651Y0296705D01*
X0202651Y0297088D02*
X0200136Y0297088D01*
X0199777Y0298267D02*
X0203011Y0298267D01*
X0204559Y0299447D02*
X0198229Y0299447D01*
X0196215Y0300626D02*
X0223047Y0300626D01*
X0223047Y0299447D02*
X0206103Y0299447D01*
X0207651Y0298267D02*
X0223047Y0298267D01*
X0223047Y0297088D02*
X0208010Y0297088D01*
X0207834Y0295908D02*
X0223047Y0295908D01*
X0223047Y0294728D02*
X0206982Y0294728D01*
X0205331Y0296866D02*
X0189252Y0280787D01*
X0134795Y0280787D01*
X0133480Y0282102D01*
X0135260Y0284112D02*
X0190057Y0284112D01*
X0188878Y0282932D02*
X0136037Y0282932D01*
X0133820Y0285291D02*
X0191237Y0285291D01*
X0192417Y0286471D02*
X0134999Y0286471D01*
X0136179Y0287651D02*
X0193596Y0287651D01*
X0194776Y0288830D02*
X0137358Y0288830D01*
X0138538Y0290010D02*
X0195956Y0290010D01*
X0197135Y0291189D02*
X0139718Y0291189D01*
X0140897Y0292369D02*
X0198315Y0292369D01*
X0199494Y0293549D02*
X0142077Y0293549D01*
X0143257Y0294728D02*
X0195805Y0294728D01*
X0194953Y0295908D02*
X0144395Y0295908D01*
X0144884Y0297088D02*
X0194716Y0297088D01*
X0193537Y0298267D02*
X0148045Y0298267D01*
X0149944Y0299447D02*
X0192357Y0299447D01*
X0191178Y0300626D02*
X0150624Y0300626D01*
X0150813Y0301806D02*
X0189998Y0301806D01*
X0188818Y0302986D02*
X0150609Y0302986D01*
X0149906Y0304165D02*
X0187639Y0304165D01*
X0190317Y0306524D02*
X0223047Y0306524D01*
X0223047Y0305345D02*
X0191497Y0305345D01*
X0192676Y0304165D02*
X0223047Y0304165D01*
X0223047Y0302986D02*
X0193856Y0302986D01*
X0195036Y0301806D02*
X0223047Y0301806D01*
X0223047Y0307704D02*
X0189138Y0307704D01*
X0183226Y0318217D02*
X0182242Y0317809D01*
X0181176Y0317809D01*
X0180191Y0318217D01*
X0179700Y0318707D01*
X0138359Y0318707D01*
X0137000Y0317348D01*
X0218086Y0317348D01*
X0218577Y0317839D01*
X0219561Y0318246D01*
X0220627Y0318246D01*
X0221612Y0317839D01*
X0222366Y0317085D01*
X0222774Y0316100D01*
X0222774Y0315034D01*
X0222366Y0314049D01*
X0221612Y0313295D01*
X0220627Y0312887D01*
X0219561Y0312887D01*
X0218577Y0313295D01*
X0218086Y0313786D01*
X0215733Y0313786D01*
X0215884Y0313420D01*
X0215884Y0312354D01*
X0215476Y0311370D01*
X0214723Y0310616D01*
X0213738Y0310208D01*
X0212672Y0310208D01*
X0211687Y0310616D01*
X0211470Y0310833D01*
X0109898Y0310833D01*
X0109408Y0310343D01*
X0108423Y0309935D01*
X0107357Y0309935D01*
X0106372Y0310343D01*
X0105618Y0311096D01*
X0105210Y0312081D01*
X0105210Y0313147D01*
X0105618Y0314132D01*
X0106372Y0314886D01*
X0106868Y0315091D01*
X0106591Y0315761D01*
X0106591Y0316827D01*
X0106998Y0317812D01*
X0107752Y0318565D01*
X0108737Y0318973D01*
X0109803Y0318973D01*
X0110788Y0318565D01*
X0111542Y0317812D01*
X0111734Y0317348D01*
X0132559Y0317348D01*
X0130989Y0318918D01*
X0130989Y0322058D01*
X0133209Y0324279D01*
X0136350Y0324279D01*
X0138359Y0322269D01*
X0145736Y0322269D01*
X0145479Y0322891D01*
X0145479Y0323991D01*
X0145900Y0325007D01*
X0146678Y0325785D01*
X0147694Y0326206D01*
X0170448Y0326206D01*
X0171464Y0325785D01*
X0172242Y0325007D01*
X0172663Y0323991D01*
X0172663Y0322891D01*
X0172405Y0322269D01*
X0179700Y0322269D01*
X0180191Y0322760D01*
X0181176Y0323168D01*
X0182242Y0323168D01*
X0183226Y0322760D01*
X0183980Y0322006D01*
X0184388Y0321021D01*
X0184388Y0319955D01*
X0183980Y0318970D01*
X0183226Y0318217D01*
X0183330Y0318321D02*
X0223047Y0318321D01*
X0223047Y0319500D02*
X0184200Y0319500D01*
X0184388Y0320680D02*
X0223047Y0320680D01*
X0223047Y0321859D02*
X0184041Y0321859D01*
X0182552Y0323039D02*
X0223047Y0323039D01*
X0223047Y0324219D02*
X0172569Y0324219D01*
X0172663Y0323039D02*
X0180865Y0323039D01*
X0181709Y0320488D02*
X0134780Y0320488D01*
X0137589Y0323039D02*
X0145479Y0323039D01*
X0145573Y0324219D02*
X0136410Y0324219D01*
X0136879Y0326578D02*
X0223047Y0326578D01*
X0223047Y0327757D02*
X0221803Y0327757D01*
X0222621Y0328937D02*
X0223047Y0328937D01*
X0223047Y0330117D02*
X0222774Y0330117D01*
X0223047Y0331296D02*
X0222391Y0331296D01*
X0223047Y0332476D02*
X0220729Y0332476D01*
X0219460Y0332476D02*
X0137503Y0332476D01*
X0134780Y0329839D02*
X0125114Y0329839D01*
X0121177Y0333776D01*
X0120685Y0334268D01*
X0075409Y0334268D01*
X0063677Y0346000D01*
X0063677Y0351000D01*
X0067868Y0351350D02*
X0071460Y0351350D01*
X0071250Y0350843D02*
X0071884Y0352372D01*
X0073054Y0353542D01*
X0074582Y0354175D01*
X0076237Y0354175D01*
X0077765Y0353542D01*
X0078935Y0352372D01*
X0079568Y0350843D01*
X0079568Y0349188D01*
X0078935Y0347660D01*
X0077765Y0346490D01*
X0076237Y0345857D01*
X0074582Y0345857D01*
X0073054Y0346490D01*
X0071884Y0347660D01*
X0071250Y0349188D01*
X0071250Y0350843D01*
X0071250Y0350170D02*
X0067868Y0350170D01*
X0067868Y0348991D02*
X0071332Y0348991D01*
X0071821Y0347811D02*
X0067868Y0347811D01*
X0067646Y0346631D02*
X0072912Y0346631D01*
X0069104Y0343092D02*
X0085094Y0343092D01*
X0083914Y0341913D02*
X0070283Y0341913D01*
X0071463Y0340733D02*
X0083745Y0340733D01*
X0083745Y0339554D02*
X0072642Y0339554D01*
X0073822Y0338374D02*
X0083974Y0338374D01*
X0085154Y0337194D02*
X0075002Y0337194D01*
X0072323Y0334835D02*
X0055392Y0334835D01*
X0054213Y0336015D02*
X0071144Y0336015D01*
X0069964Y0337194D02*
X0053033Y0337194D01*
X0051854Y0338374D02*
X0068784Y0338374D01*
X0067605Y0339554D02*
X0051326Y0339554D01*
X0051326Y0340733D02*
X0066425Y0340733D01*
X0065245Y0341913D02*
X0051156Y0341913D01*
X0049977Y0343092D02*
X0064066Y0343092D01*
X0061727Y0344272D02*
X0056356Y0344272D01*
X0056083Y0344074D02*
X0056668Y0344499D01*
X0057179Y0345009D01*
X0057603Y0345594D01*
X0057931Y0346238D01*
X0058155Y0346925D01*
X0058268Y0347639D01*
X0058268Y0350591D01*
X0054087Y0350591D01*
X0054087Y0350590D02*
X0054087Y0343417D01*
X0054752Y0343522D01*
X0055439Y0343746D01*
X0056083Y0344074D01*
X0057500Y0345452D02*
X0060299Y0345452D01*
X0059708Y0346631D02*
X0058059Y0346631D01*
X0058268Y0347811D02*
X0059487Y0347811D01*
X0059487Y0348991D02*
X0058268Y0348991D01*
X0058268Y0350170D02*
X0059487Y0350170D01*
X0059487Y0351350D02*
X0054087Y0351350D01*
X0053268Y0351350D02*
X0029072Y0351350D01*
X0029931Y0350170D02*
X0049087Y0350170D01*
X0049087Y0348991D02*
X0030419Y0348991D01*
X0030422Y0347811D02*
X0049087Y0347811D01*
X0049295Y0346631D02*
X0030224Y0346631D01*
X0029735Y0345452D02*
X0049854Y0345452D01*
X0050998Y0344272D02*
X0029032Y0344272D01*
X0030212Y0343092D02*
X0045094Y0343092D01*
X0043914Y0341913D02*
X0031391Y0341913D01*
X0032571Y0340733D02*
X0043745Y0340733D01*
X0043745Y0339554D02*
X0033750Y0339554D01*
X0034930Y0338374D02*
X0043974Y0338374D01*
X0045154Y0337194D02*
X0036110Y0337194D01*
X0037289Y0336015D02*
X0049175Y0336015D01*
X0050355Y0334835D02*
X0038469Y0334835D01*
X0039648Y0333656D02*
X0045500Y0333656D01*
X0049571Y0333656D02*
X0051534Y0333656D01*
X0050751Y0332476D02*
X0052714Y0332476D01*
X0053894Y0331296D02*
X0051326Y0331296D01*
X0051326Y0330117D02*
X0055073Y0330117D01*
X0056253Y0328937D02*
X0051326Y0328937D01*
X0050323Y0327757D02*
X0057432Y0327757D01*
X0058612Y0326578D02*
X0049143Y0326578D01*
X0049106Y0324279D02*
X0045965Y0324279D01*
X0043745Y0322058D01*
X0043745Y0319773D01*
X0042028Y0318057D01*
X0040754Y0316783D01*
X0040754Y0302468D01*
X0040258Y0302263D01*
X0038931Y0300936D01*
X0038214Y0299203D01*
X0038214Y0290277D01*
X0038931Y0288544D01*
X0040258Y0287218D01*
X0041991Y0286500D01*
X0043867Y0286500D01*
X0045600Y0287218D01*
X0046927Y0288544D01*
X0047645Y0290277D01*
X0047645Y0299203D01*
X0046927Y0300936D01*
X0045600Y0302263D01*
X0045104Y0302468D01*
X0045104Y0314981D01*
X0046821Y0316698D01*
X0049106Y0316698D01*
X0051326Y0318918D01*
X0051326Y0322058D01*
X0049106Y0324279D01*
X0049166Y0324219D02*
X0060971Y0324219D01*
X0059792Y0325398D02*
X0029876Y0325398D01*
X0030081Y0325681D02*
X0029608Y0325030D01*
X0029039Y0324460D01*
X0028387Y0323987D01*
X0027670Y0323621D01*
X0026904Y0323373D01*
X0026109Y0323247D01*
X0022766Y0323247D01*
X0022766Y0327778D01*
X0022766Y0328947D01*
X0030793Y0328947D01*
X0030696Y0329560D01*
X0030447Y0330326D01*
X0030081Y0331043D01*
X0029608Y0331695D01*
X0029039Y0332264D01*
X0028387Y0332737D01*
X0027670Y0333103D01*
X0026904Y0333352D01*
X0026109Y0333478D01*
X0022766Y0333478D01*
X0022766Y0328947D01*
X0021597Y0328947D01*
X0021597Y0333478D01*
X0018253Y0333478D01*
X0017458Y0333352D01*
X0016692Y0333103D01*
X0015975Y0332737D01*
X0015324Y0332264D01*
X0014754Y0331695D01*
X0014281Y0331043D01*
X0013915Y0330326D01*
X0013667Y0329560D01*
X0013569Y0328947D01*
X0021597Y0328947D01*
X0021597Y0327778D01*
X0022766Y0327778D01*
X0030793Y0327778D01*
X0030696Y0327164D01*
X0030447Y0326399D01*
X0030081Y0325681D01*
X0030505Y0326578D02*
X0045928Y0326578D01*
X0044748Y0327757D02*
X0030790Y0327757D01*
X0030515Y0330117D02*
X0037036Y0330117D01*
X0035856Y0331296D02*
X0029898Y0331296D01*
X0028747Y0332476D02*
X0034677Y0332476D01*
X0033497Y0333656D02*
X0009134Y0333656D01*
X0009134Y0334835D02*
X0032318Y0334835D01*
X0031138Y0336015D02*
X0009134Y0336015D01*
X0009134Y0337194D02*
X0029958Y0337194D01*
X0028779Y0338374D02*
X0009134Y0338374D01*
X0009134Y0339554D02*
X0027599Y0339554D01*
X0026420Y0340733D02*
X0009134Y0340733D01*
X0009134Y0341913D02*
X0025240Y0341913D01*
X0024060Y0343092D02*
X0009134Y0343092D01*
X0009134Y0344272D02*
X0015762Y0344272D01*
X0014627Y0345452D02*
X0009134Y0345452D01*
X0009134Y0346631D02*
X0014139Y0346631D01*
X0019747Y0353709D02*
X0049087Y0353709D01*
X0049087Y0352529D02*
X0027208Y0352529D01*
X0019961Y0354889D02*
X0049170Y0354889D01*
X0049579Y0356068D02*
X0019961Y0356068D01*
X0021597Y0332476D02*
X0022766Y0332476D01*
X0022766Y0331296D02*
X0021597Y0331296D01*
X0021597Y0330117D02*
X0022766Y0330117D01*
X0022766Y0328937D02*
X0038216Y0328937D01*
X0043745Y0321859D02*
X0009134Y0321859D01*
X0009134Y0320680D02*
X0043745Y0320680D01*
X0043472Y0319500D02*
X0009134Y0319500D01*
X0009134Y0318321D02*
X0042292Y0318321D01*
X0041113Y0317141D02*
X0009134Y0317141D01*
X0009134Y0315961D02*
X0040754Y0315961D01*
X0040754Y0314782D02*
X0009134Y0314782D01*
X0009134Y0313602D02*
X0040754Y0313602D01*
X0040754Y0312422D02*
X0009134Y0312422D01*
X0009134Y0311243D02*
X0040754Y0311243D01*
X0040754Y0310063D02*
X0009134Y0310063D01*
X0009134Y0308884D02*
X0040754Y0308884D01*
X0040754Y0307704D02*
X0009134Y0307704D01*
X0009134Y0306524D02*
X0040754Y0306524D01*
X0040754Y0305345D02*
X0009134Y0305345D01*
X0009134Y0304165D02*
X0040754Y0304165D01*
X0040754Y0302986D02*
X0009134Y0302986D01*
X0009134Y0301806D02*
X0020116Y0301806D01*
X0020573Y0302263D02*
X0019246Y0300936D01*
X0018529Y0299203D01*
X0018529Y0290277D01*
X0019246Y0288544D01*
X0020573Y0287218D01*
X0022306Y0286500D01*
X0024182Y0286500D01*
X0025915Y0287218D01*
X0027242Y0288544D01*
X0027960Y0290277D01*
X0027960Y0299203D01*
X0027242Y0300936D01*
X0025915Y0302263D01*
X0024182Y0302981D01*
X0022306Y0302981D01*
X0020573Y0302263D01*
X0019118Y0300626D02*
X0009134Y0300626D01*
X0009134Y0299447D02*
X0018629Y0299447D01*
X0018529Y0298267D02*
X0009134Y0298267D01*
X0009134Y0297088D02*
X0018529Y0297088D01*
X0018529Y0295908D02*
X0009134Y0295908D01*
X0009134Y0294728D02*
X0018529Y0294728D01*
X0018529Y0293549D02*
X0009134Y0293549D01*
X0009134Y0292369D02*
X0018529Y0292369D01*
X0018529Y0291189D02*
X0009134Y0291189D01*
X0014626Y0290010D02*
X0018639Y0290010D01*
X0019128Y0288830D02*
X0016765Y0288830D01*
X0017945Y0287651D02*
X0020140Y0287651D01*
X0018854Y0286471D02*
X0060661Y0286471D01*
X0062030Y0287651D02*
X0063199Y0287651D01*
X0063199Y0288830D02*
X0062030Y0288830D01*
X0062030Y0290010D02*
X0063199Y0290010D01*
X0063199Y0291189D02*
X0062030Y0291189D01*
X0062030Y0292369D02*
X0063199Y0292369D01*
X0063199Y0293549D02*
X0062030Y0293549D01*
X0062030Y0294728D02*
X0047645Y0294728D01*
X0047645Y0293549D02*
X0057499Y0293549D01*
X0057499Y0292369D02*
X0047645Y0292369D01*
X0047645Y0291189D02*
X0057499Y0291189D01*
X0057627Y0290010D02*
X0047534Y0290010D01*
X0047045Y0288830D02*
X0058088Y0288830D01*
X0058944Y0287651D02*
X0046033Y0287651D01*
X0039825Y0287651D02*
X0026348Y0287651D01*
X0027360Y0288830D02*
X0038813Y0288830D01*
X0038324Y0290010D02*
X0027849Y0290010D01*
X0027960Y0291189D02*
X0038214Y0291189D01*
X0038214Y0292369D02*
X0027960Y0292369D01*
X0027960Y0293549D02*
X0038214Y0293549D01*
X0038214Y0294728D02*
X0027960Y0294728D01*
X0027960Y0295908D02*
X0038214Y0295908D01*
X0038214Y0297088D02*
X0027960Y0297088D01*
X0027960Y0298267D02*
X0038214Y0298267D01*
X0038314Y0299447D02*
X0027859Y0299447D01*
X0027370Y0300626D02*
X0038803Y0300626D01*
X0039801Y0301806D02*
X0026372Y0301806D01*
X0021597Y0323247D02*
X0018253Y0323247D01*
X0017458Y0323373D01*
X0016692Y0323621D01*
X0015975Y0323987D01*
X0015324Y0324460D01*
X0014754Y0325030D01*
X0014281Y0325681D01*
X0013915Y0326399D01*
X0013667Y0327164D01*
X0013569Y0327778D01*
X0021597Y0327778D01*
X0021597Y0323247D01*
X0021597Y0324219D02*
X0022766Y0324219D01*
X0022766Y0325398D02*
X0021597Y0325398D01*
X0021597Y0326578D02*
X0022766Y0326578D01*
X0022766Y0327757D02*
X0021597Y0327757D01*
X0021597Y0328937D02*
X0009134Y0328937D01*
X0009134Y0327757D02*
X0013573Y0327757D01*
X0013857Y0326578D02*
X0009134Y0326578D01*
X0009134Y0325398D02*
X0014486Y0325398D01*
X0015656Y0324219D02*
X0009134Y0324219D01*
X0009134Y0323039D02*
X0044726Y0323039D01*
X0045905Y0324219D02*
X0028706Y0324219D01*
X0015615Y0332476D02*
X0009134Y0332476D01*
X0009134Y0331296D02*
X0014465Y0331296D01*
X0013847Y0330117D02*
X0009134Y0330117D01*
X0045104Y0314782D02*
X0070408Y0314782D01*
X0069228Y0315961D02*
X0046084Y0315961D01*
X0045104Y0313602D02*
X0071588Y0313602D01*
X0072767Y0312422D02*
X0045104Y0312422D01*
X0045104Y0311243D02*
X0073947Y0311243D01*
X0075127Y0310063D02*
X0045104Y0310063D01*
X0045104Y0308884D02*
X0076306Y0308884D01*
X0077486Y0307704D02*
X0045104Y0307704D01*
X0045104Y0306524D02*
X0078665Y0306524D01*
X0079845Y0305345D02*
X0045104Y0305345D01*
X0045104Y0304165D02*
X0081025Y0304165D01*
X0082204Y0302986D02*
X0064618Y0302986D01*
X0063199Y0302986D02*
X0062030Y0302986D01*
X0062030Y0301806D02*
X0063199Y0301806D01*
X0063199Y0300626D02*
X0062030Y0300626D01*
X0062030Y0299447D02*
X0063199Y0299447D01*
X0063199Y0298267D02*
X0062030Y0298267D01*
X0062030Y0297088D02*
X0063199Y0297088D01*
X0063199Y0295908D02*
X0062030Y0295908D01*
X0063199Y0294728D02*
X0077584Y0294728D01*
X0077584Y0293549D02*
X0067730Y0293549D01*
X0067730Y0292369D02*
X0077584Y0292369D01*
X0077584Y0291189D02*
X0067730Y0291189D01*
X0067601Y0290010D02*
X0077694Y0290010D01*
X0078183Y0288830D02*
X0067140Y0288830D01*
X0066284Y0287651D02*
X0079195Y0287651D01*
X0077584Y0295908D02*
X0067730Y0295908D01*
X0067730Y0297088D02*
X0077584Y0297088D01*
X0077584Y0298267D02*
X0067730Y0298267D01*
X0067606Y0299447D02*
X0077685Y0299447D01*
X0078173Y0300626D02*
X0067152Y0300626D01*
X0066308Y0301806D02*
X0079171Y0301806D01*
X0083461Y0304248D02*
X0123293Y0304248D01*
X0129910Y0306928D02*
X0084571Y0306928D01*
X0077378Y0314120D01*
X0077378Y0330331D01*
X0074878Y0331296D02*
X0058931Y0331296D01*
X0060111Y0330117D02*
X0074698Y0330117D01*
X0075055Y0328937D02*
X0061290Y0328937D01*
X0062470Y0327757D02*
X0075597Y0327757D01*
X0075597Y0326578D02*
X0063650Y0326578D01*
X0064829Y0325398D02*
X0075597Y0325398D01*
X0075597Y0324219D02*
X0066009Y0324219D01*
X0067188Y0323039D02*
X0075597Y0323039D01*
X0075597Y0321859D02*
X0068368Y0321859D01*
X0069548Y0320680D02*
X0075597Y0320680D01*
X0075597Y0319500D02*
X0070727Y0319500D01*
X0071907Y0318321D02*
X0075597Y0318321D01*
X0075597Y0317141D02*
X0073087Y0317141D01*
X0074266Y0315961D02*
X0075597Y0315961D01*
X0075597Y0314782D02*
X0075446Y0314782D01*
X0079235Y0314782D02*
X0106268Y0314782D01*
X0106591Y0315961D02*
X0079159Y0315961D01*
X0079159Y0317141D02*
X0085522Y0317141D01*
X0084342Y0318321D02*
X0083615Y0318321D01*
X0080415Y0313602D02*
X0105399Y0313602D01*
X0105210Y0312422D02*
X0081594Y0312422D01*
X0082774Y0311243D02*
X0105557Y0311243D01*
X0107046Y0310063D02*
X0083954Y0310063D01*
X0085133Y0308884D02*
X0129347Y0308884D01*
X0130402Y0307420D02*
X0132622Y0307420D01*
X0133114Y0306928D01*
X0133677Y0308884D02*
X0223047Y0308884D01*
X0223047Y0310063D02*
X0108733Y0310063D01*
X0107890Y0312614D02*
X0212931Y0312614D01*
X0213205Y0312887D01*
X0215809Y0313602D02*
X0218270Y0313602D01*
X0215884Y0312422D02*
X0223047Y0312422D01*
X0223047Y0311243D02*
X0215350Y0311243D01*
X0220094Y0315567D02*
X0109270Y0315567D01*
X0109270Y0316294D01*
X0107507Y0318321D02*
X0097973Y0318321D01*
X0098570Y0319500D02*
X0130989Y0319500D01*
X0130989Y0320680D02*
X0098570Y0320680D01*
X0098570Y0321859D02*
X0130989Y0321859D01*
X0131970Y0323039D02*
X0097589Y0323039D01*
X0096410Y0324219D02*
X0133149Y0324219D01*
X0132680Y0326578D02*
X0096879Y0326578D01*
X0098059Y0327757D02*
X0131500Y0327757D01*
X0131200Y0331620D02*
X0132067Y0332487D01*
X0131758Y0332487D01*
X0130715Y0333530D01*
X0127302Y0336943D01*
X0127302Y0336687D01*
X0126894Y0335703D01*
X0126140Y0334949D01*
X0125155Y0334541D01*
X0124089Y0334541D01*
X0123104Y0334949D01*
X0123007Y0335046D01*
X0122426Y0335046D01*
X0122466Y0335005D01*
X0122958Y0334513D01*
X0125852Y0331620D01*
X0131200Y0331620D01*
X0132056Y0332476D02*
X0124996Y0332476D01*
X0123816Y0333656D02*
X0130589Y0333656D01*
X0129410Y0334835D02*
X0125865Y0334835D01*
X0127023Y0336015D02*
X0128230Y0336015D01*
X0130909Y0338374D02*
X0131218Y0338374D01*
X0130989Y0339554D02*
X0129729Y0339554D01*
X0128549Y0340733D02*
X0130989Y0340733D01*
X0131158Y0341913D02*
X0127370Y0341913D01*
X0127880Y0341403D02*
X0127880Y0341403D01*
X0126098Y0340665D02*
X0104445Y0340665D01*
X0100016Y0345094D01*
X0098228Y0343092D02*
X0097221Y0343092D01*
X0097456Y0344272D02*
X0067924Y0344272D01*
X0067055Y0345452D02*
X0097336Y0345452D01*
X0095488Y0346631D02*
X0094701Y0346631D01*
X0094701Y0345462D02*
X0094701Y0349622D01*
X0095488Y0349622D01*
X0095488Y0350409D01*
X0099648Y0350409D01*
X0099541Y0351083D01*
X0099320Y0351766D01*
X0098994Y0352405D01*
X0098572Y0352986D01*
X0098065Y0353493D01*
X0097484Y0353915D01*
X0096845Y0354241D01*
X0096162Y0354463D01*
X0095488Y0354569D01*
X0095488Y0350410D01*
X0094701Y0350410D01*
X0094701Y0354569D01*
X0094027Y0354463D01*
X0093344Y0354241D01*
X0092705Y0353915D01*
X0092124Y0353493D01*
X0091617Y0352986D01*
X0091195Y0352405D01*
X0090869Y0351766D01*
X0090648Y0351083D01*
X0090541Y0350409D01*
X0094701Y0350409D01*
X0094701Y0349622D01*
X0090541Y0349622D01*
X0090648Y0348948D01*
X0090869Y0348266D01*
X0091195Y0347626D01*
X0091617Y0347046D01*
X0092124Y0346538D01*
X0092705Y0346116D01*
X0093344Y0345791D01*
X0094027Y0345569D01*
X0094701Y0345462D01*
X0094701Y0347811D02*
X0095488Y0347811D01*
X0095488Y0348991D02*
X0094701Y0348991D01*
X0094701Y0350170D02*
X0089411Y0350170D01*
X0089411Y0350843D02*
X0088778Y0352372D01*
X0087608Y0353542D01*
X0086079Y0354175D01*
X0084425Y0354175D01*
X0082896Y0353542D01*
X0081726Y0352372D01*
X0081093Y0350843D01*
X0081093Y0349188D01*
X0081726Y0347660D01*
X0082896Y0346490D01*
X0084425Y0345857D01*
X0086079Y0345857D01*
X0087608Y0346490D01*
X0088778Y0347660D01*
X0089411Y0349188D01*
X0089411Y0350843D01*
X0089201Y0351350D02*
X0090734Y0351350D01*
X0091285Y0352529D02*
X0088620Y0352529D01*
X0087204Y0353709D02*
X0092421Y0353709D01*
X0094701Y0353709D02*
X0095488Y0353709D01*
X0095488Y0352529D02*
X0094701Y0352529D01*
X0094701Y0351350D02*
X0095488Y0351350D01*
X0095488Y0350170D02*
X0104369Y0350170D01*
X0104369Y0348991D02*
X0099548Y0348991D01*
X0099088Y0347811D02*
X0104369Y0347811D01*
X0104590Y0346631D02*
X0102268Y0346631D01*
X0102695Y0345452D02*
X0105181Y0345452D01*
X0106609Y0344272D02*
X0103357Y0344272D01*
X0104537Y0343092D02*
X0132338Y0343092D01*
X0130509Y0344272D02*
X0135880Y0344272D01*
X0136153Y0344074D02*
X0136797Y0343746D01*
X0137484Y0343522D01*
X0138150Y0343417D01*
X0138150Y0350590D01*
X0138150Y0350591D02*
X0133969Y0350591D01*
X0133969Y0347639D01*
X0134082Y0346925D01*
X0134305Y0346238D01*
X0134633Y0345594D01*
X0135058Y0345009D01*
X0135569Y0344499D01*
X0136153Y0344074D01*
X0137221Y0343092D02*
X0146778Y0343092D01*
X0146778Y0341913D02*
X0138401Y0341913D01*
X0138570Y0340733D02*
X0146778Y0340733D01*
X0148559Y0338332D02*
X0148244Y0338017D01*
X0136935Y0338017D01*
X0134780Y0340173D01*
X0132398Y0337194D02*
X0132088Y0337194D01*
X0132496Y0334268D02*
X0211236Y0334268D01*
X0213205Y0336236D01*
X0215708Y0337194D02*
X0223047Y0337194D01*
X0223047Y0336015D02*
X0215884Y0336015D01*
X0215525Y0334835D02*
X0223047Y0334835D01*
X0223047Y0333656D02*
X0213976Y0333656D01*
X0213017Y0333530D02*
X0213017Y0333530D01*
X0210701Y0337194D02*
X0191848Y0337194D01*
X0192455Y0338374D02*
X0211553Y0338374D01*
X0214856Y0338374D02*
X0223047Y0338374D01*
X0223047Y0339554D02*
X0206084Y0339554D01*
X0204577Y0339554D02*
X0192416Y0339554D01*
X0191751Y0340733D02*
X0203014Y0340733D01*
X0205331Y0342142D02*
X0204346Y0343126D01*
X0169898Y0343126D01*
X0167929Y0341157D01*
X0166075Y0343092D02*
X0150340Y0343092D01*
X0150340Y0341913D02*
X0165342Y0341913D01*
X0165250Y0340733D02*
X0150340Y0340733D01*
X0148559Y0338332D02*
X0148559Y0351000D01*
X0144590Y0346631D02*
X0142941Y0346631D01*
X0143037Y0346925D02*
X0143150Y0347639D01*
X0143150Y0350591D01*
X0138969Y0350591D01*
X0138969Y0350590D02*
X0138969Y0343417D01*
X0139634Y0343522D01*
X0140321Y0343746D01*
X0140965Y0344074D01*
X0141550Y0344499D01*
X0142061Y0345009D01*
X0142485Y0345594D01*
X0142813Y0346238D01*
X0143037Y0346925D01*
X0143150Y0347811D02*
X0144369Y0347811D01*
X0144369Y0348991D02*
X0143150Y0348991D01*
X0143150Y0350170D02*
X0144369Y0350170D01*
X0144369Y0351350D02*
X0138969Y0351350D01*
X0138150Y0351350D02*
X0132750Y0351350D01*
X0132750Y0352529D02*
X0133969Y0352529D01*
X0133969Y0353709D02*
X0132750Y0353709D01*
X0132727Y0354889D02*
X0134052Y0354889D01*
X0134461Y0356068D02*
X0132238Y0356068D01*
X0132750Y0350170D02*
X0133969Y0350170D01*
X0133969Y0348991D02*
X0132750Y0348991D01*
X0132750Y0347811D02*
X0133969Y0347811D01*
X0134177Y0346631D02*
X0132528Y0346631D01*
X0131937Y0345452D02*
X0134736Y0345452D01*
X0138150Y0345452D02*
X0138969Y0345452D01*
X0138969Y0346631D02*
X0138150Y0346631D01*
X0138150Y0347811D02*
X0138969Y0347811D01*
X0138969Y0348991D02*
X0138150Y0348991D01*
X0138150Y0350170D02*
X0138969Y0350170D01*
X0138969Y0344272D02*
X0138150Y0344272D01*
X0141238Y0344272D02*
X0146609Y0344272D01*
X0145181Y0345452D02*
X0142382Y0345452D01*
X0143150Y0352529D02*
X0144369Y0352529D01*
X0144369Y0353709D02*
X0143150Y0353709D01*
X0143066Y0354889D02*
X0144391Y0354889D01*
X0144880Y0356068D02*
X0142657Y0356068D01*
X0152238Y0356068D02*
X0223047Y0356068D01*
X0223047Y0354889D02*
X0152727Y0354889D01*
X0152750Y0353709D02*
X0223047Y0353709D01*
X0223047Y0352529D02*
X0152750Y0352529D01*
X0152750Y0351350D02*
X0223047Y0351350D01*
X0223047Y0350170D02*
X0152750Y0350170D01*
X0152750Y0348991D02*
X0223047Y0348991D01*
X0223047Y0347811D02*
X0152750Y0347811D01*
X0152528Y0346631D02*
X0223047Y0346631D01*
X0223047Y0345452D02*
X0151937Y0345452D01*
X0150509Y0344272D02*
X0168525Y0344272D01*
X0171851Y0325398D02*
X0223047Y0325398D01*
X0218386Y0327757D02*
X0138059Y0327757D01*
X0134780Y0329839D02*
X0220094Y0329839D01*
X0223047Y0340733D02*
X0207648Y0340733D01*
X0208010Y0341913D02*
X0223047Y0341913D01*
X0223047Y0343092D02*
X0207837Y0343092D01*
X0206990Y0344272D02*
X0223047Y0344272D01*
X0223047Y0317141D02*
X0222310Y0317141D01*
X0222774Y0315961D02*
X0223047Y0315961D01*
X0223047Y0314782D02*
X0222670Y0314782D01*
X0223047Y0313602D02*
X0221919Y0313602D01*
X0223047Y0293549D02*
X0204532Y0293549D01*
X0203352Y0292369D02*
X0223047Y0292369D01*
X0223047Y0291189D02*
X0202173Y0291189D01*
X0200993Y0290010D02*
X0223047Y0290010D01*
X0223047Y0288830D02*
X0199814Y0288830D01*
X0198634Y0287651D02*
X0223047Y0287651D01*
X0223047Y0286471D02*
X0197454Y0286471D01*
X0196275Y0285291D02*
X0223047Y0285291D01*
X0223047Y0284112D02*
X0195095Y0284112D01*
X0193916Y0282932D02*
X0223047Y0282932D01*
X0223047Y0281753D02*
X0192736Y0281753D01*
X0199108Y0294728D02*
X0200674Y0294728D01*
X0180087Y0318321D02*
X0137973Y0318321D01*
X0131587Y0318321D02*
X0111033Y0318321D01*
X0106721Y0317141D02*
X0096793Y0317141D01*
X0092766Y0317141D02*
X0089549Y0317141D01*
X0090728Y0318321D02*
X0091587Y0318321D01*
X0093837Y0325398D02*
X0146291Y0325398D01*
X0148244Y0338017D02*
X0188881Y0338017D01*
X0189780Y0338916D01*
X0132496Y0334268D02*
X0126098Y0340665D01*
X0126609Y0344272D02*
X0120509Y0344272D01*
X0121937Y0345452D02*
X0125181Y0345452D01*
X0124590Y0346631D02*
X0122528Y0346631D01*
X0122750Y0347811D02*
X0124369Y0347811D01*
X0124369Y0348991D02*
X0122750Y0348991D01*
X0122750Y0350170D02*
X0124369Y0350170D01*
X0124369Y0351350D02*
X0122750Y0351350D01*
X0122750Y0352529D02*
X0124369Y0352529D01*
X0124369Y0353709D02*
X0122750Y0353709D01*
X0122727Y0354889D02*
X0124391Y0354889D01*
X0124880Y0356068D02*
X0122238Y0356068D01*
X0114880Y0356068D02*
X0112238Y0356068D01*
X0112727Y0354889D02*
X0114391Y0354889D01*
X0114369Y0353709D02*
X0112750Y0353709D01*
X0112750Y0352529D02*
X0114369Y0352529D01*
X0114369Y0351350D02*
X0112750Y0351350D01*
X0112750Y0350170D02*
X0114369Y0350170D01*
X0114369Y0348991D02*
X0112750Y0348991D01*
X0112750Y0347811D02*
X0114369Y0347811D01*
X0114590Y0346631D02*
X0112528Y0346631D01*
X0111937Y0345452D02*
X0115181Y0345452D01*
X0116609Y0344272D02*
X0110509Y0344272D01*
X0103038Y0339554D02*
X0098570Y0339554D01*
X0098570Y0340733D02*
X0101858Y0340733D01*
X0100679Y0341913D02*
X0098401Y0341913D01*
X0092338Y0343092D02*
X0089977Y0343092D01*
X0091156Y0341913D02*
X0091158Y0341913D01*
X0091097Y0338374D02*
X0091218Y0338374D01*
X0092398Y0337194D02*
X0089917Y0337194D01*
X0092031Y0346631D02*
X0087749Y0346631D01*
X0088840Y0347811D02*
X0091101Y0347811D01*
X0090641Y0348991D02*
X0089329Y0348991D01*
X0082755Y0346631D02*
X0077907Y0346631D01*
X0078998Y0347811D02*
X0081664Y0347811D01*
X0081175Y0348991D02*
X0079486Y0348991D01*
X0079568Y0350170D02*
X0081093Y0350170D01*
X0081303Y0351350D02*
X0079359Y0351350D01*
X0078778Y0352529D02*
X0081884Y0352529D01*
X0083300Y0353709D02*
X0077361Y0353709D01*
X0073458Y0353709D02*
X0067868Y0353709D01*
X0067868Y0352529D02*
X0072041Y0352529D01*
X0067845Y0354889D02*
X0104391Y0354889D01*
X0104369Y0353709D02*
X0097768Y0353709D01*
X0098904Y0352529D02*
X0104369Y0352529D01*
X0104369Y0351350D02*
X0099455Y0351350D01*
X0104880Y0356068D02*
X0067356Y0356068D01*
X0059998Y0356068D02*
X0057775Y0356068D01*
X0058184Y0354889D02*
X0059509Y0354889D01*
X0059487Y0353709D02*
X0058268Y0353709D01*
X0058268Y0352529D02*
X0059487Y0352529D01*
X0054087Y0350170D02*
X0053268Y0350170D01*
X0053268Y0348991D02*
X0054087Y0348991D01*
X0054087Y0347811D02*
X0053268Y0347811D01*
X0053268Y0346631D02*
X0054087Y0346631D01*
X0054087Y0345452D02*
X0053268Y0345452D01*
X0053268Y0344272D02*
X0054087Y0344272D01*
X0047535Y0340173D02*
X0083461Y0304248D01*
X0068049Y0317141D02*
X0049549Y0317141D01*
X0050728Y0318321D02*
X0066869Y0318321D01*
X0065690Y0319500D02*
X0051326Y0319500D01*
X0051326Y0320680D02*
X0064510Y0320680D01*
X0063330Y0321859D02*
X0051326Y0321859D01*
X0050345Y0323039D02*
X0062151Y0323039D01*
X0057752Y0332476D02*
X0075734Y0332476D01*
X0073503Y0333656D02*
X0056572Y0333656D01*
X0060611Y0302986D02*
X0045104Y0302986D01*
X0046057Y0301806D02*
X0058920Y0301806D01*
X0058076Y0300626D02*
X0047055Y0300626D01*
X0047544Y0299447D02*
X0057622Y0299447D01*
X0057499Y0298267D02*
X0047645Y0298267D01*
X0047645Y0297088D02*
X0057499Y0297088D01*
X0057499Y0295908D02*
X0047645Y0295908D01*
X0087720Y0262879D02*
X0092061Y0262879D01*
X0091116Y0261699D02*
X0088828Y0261699D01*
X0089317Y0260519D02*
X0090646Y0260519D01*
X0105088Y0287651D02*
X0117999Y0287651D01*
X0117143Y0288830D02*
X0106100Y0288830D01*
X0106589Y0290010D02*
X0116682Y0290010D01*
X0116554Y0291189D02*
X0106700Y0291189D01*
X0106700Y0292369D02*
X0116554Y0292369D01*
X0116554Y0293549D02*
X0106700Y0293549D01*
X0129910Y0306928D02*
X0130402Y0307420D01*
X0123497Y0328937D02*
X0098570Y0328937D01*
X0098570Y0330117D02*
X0122317Y0330117D01*
X0121138Y0331296D02*
X0098570Y0331296D01*
X0097503Y0332476D02*
X0119958Y0332476D01*
X0122636Y0334835D02*
X0123379Y0334835D01*
X0150340Y0253442D02*
X0168246Y0253442D01*
X0199844Y0205078D02*
X0201575Y0205078D01*
X0200395Y0203898D02*
X0198624Y0203898D01*
X0169898Y0162024D02*
X0167929Y0160055D01*
X0165436Y0159073D02*
X0150340Y0159073D01*
X0150340Y0160252D02*
X0165250Y0160252D01*
X0165599Y0161432D02*
X0150340Y0161432D01*
X0150340Y0162612D02*
X0167099Y0162612D01*
X0147244Y0144917D02*
X0093805Y0144917D01*
X0093822Y0143738D02*
X0145830Y0143738D01*
X0132058Y0146097D02*
X0097501Y0146097D01*
X0097414Y0136660D02*
X0106978Y0136660D01*
X0099806Y0121365D02*
X0099313Y0121160D01*
X0097987Y0119834D01*
X0097269Y0118101D01*
X0097269Y0109175D01*
X0097987Y0107442D01*
X0099313Y0106115D01*
X0100709Y0105537D01*
X0095424Y0105537D01*
X0087015Y0113947D01*
X0087015Y0118101D01*
X0086297Y0119834D01*
X0084970Y0121160D01*
X0084478Y0121365D01*
X0099806Y0121365D01*
X0099711Y0121325D02*
X0084573Y0121325D01*
X0085985Y0120145D02*
X0098298Y0120145D01*
X0097627Y0118966D02*
X0086656Y0118966D01*
X0087015Y0117786D02*
X0097269Y0117786D01*
X0097269Y0116607D02*
X0087015Y0116607D01*
X0087015Y0115427D02*
X0097269Y0115427D01*
X0097269Y0114247D02*
X0087015Y0114247D01*
X0087894Y0113068D02*
X0097269Y0113068D01*
X0097269Y0111888D02*
X0089073Y0111888D01*
X0090253Y0110709D02*
X0097269Y0110709D01*
X0097269Y0109529D02*
X0091432Y0109529D01*
X0092612Y0108349D02*
X0097611Y0108349D01*
X0098259Y0107170D02*
X0093792Y0107170D01*
X0094971Y0105990D02*
X0099615Y0105990D01*
X0084923Y0105990D02*
X0084668Y0105990D01*
X0083461Y0123146D02*
X0047535Y0159071D01*
X0051326Y0159073D02*
X0066983Y0159073D01*
X0065804Y0160252D02*
X0051326Y0160252D01*
X0050535Y0161432D02*
X0064624Y0161432D01*
X0063444Y0162612D02*
X0055341Y0162612D01*
X0057063Y0163791D02*
X0060857Y0163791D01*
X0059939Y0164971D02*
X0057847Y0164971D01*
X0058207Y0166150D02*
X0059487Y0166150D01*
X0059487Y0167330D02*
X0058268Y0167330D01*
X0058268Y0168510D02*
X0059487Y0168510D01*
X0059487Y0170869D02*
X0058268Y0170869D01*
X0058268Y0172048D02*
X0059487Y0172048D01*
X0059487Y0173228D02*
X0058268Y0173228D01*
X0058013Y0174408D02*
X0059767Y0174408D01*
X0060441Y0175587D02*
X0057397Y0175587D01*
X0051326Y0157893D02*
X0068163Y0157893D01*
X0061529Y0142558D02*
X0049724Y0142558D01*
X0050903Y0141378D02*
X0062709Y0141378D01*
X0063889Y0140199D02*
X0051326Y0140199D01*
X0051326Y0139019D02*
X0065068Y0139019D01*
X0066248Y0137840D02*
X0051326Y0137840D01*
X0050170Y0136660D02*
X0067427Y0136660D01*
X0041734Y0136660D02*
X0009134Y0136660D01*
X0009134Y0135480D02*
X0040754Y0135480D01*
X0040754Y0134301D02*
X0009134Y0134301D01*
X0009134Y0133121D02*
X0040754Y0133121D01*
X0040754Y0131942D02*
X0009134Y0131942D01*
X0009134Y0130762D02*
X0040754Y0130762D01*
X0040754Y0129582D02*
X0009134Y0129582D01*
X0009134Y0128403D02*
X0040754Y0128403D01*
X0040754Y0127223D02*
X0009134Y0127223D01*
X0009134Y0126044D02*
X0040754Y0126044D01*
X0040754Y0124864D02*
X0009134Y0124864D01*
X0009134Y0123684D02*
X0040754Y0123684D01*
X0038774Y0147277D02*
X0022766Y0147277D01*
X0021597Y0147277D02*
X0009134Y0147277D01*
X0009134Y0148456D02*
X0013666Y0148456D01*
X0013667Y0148458D02*
X0013569Y0147844D01*
X0021597Y0147844D01*
X0021597Y0152375D01*
X0018253Y0152375D01*
X0017458Y0152249D01*
X0016692Y0152001D01*
X0015975Y0151635D01*
X0015324Y0151162D01*
X0014754Y0150592D01*
X0014281Y0149941D01*
X0013915Y0149224D01*
X0013667Y0148458D01*
X0014125Y0149636D02*
X0009134Y0149636D01*
X0009134Y0150815D02*
X0014977Y0150815D01*
X0016681Y0151995D02*
X0009134Y0151995D01*
X0009134Y0146097D02*
X0013661Y0146097D01*
X0013667Y0146062D02*
X0013915Y0145296D01*
X0014281Y0144579D01*
X0014754Y0143927D01*
X0015324Y0143358D01*
X0015975Y0142885D01*
X0016692Y0142519D01*
X0017458Y0142270D01*
X0018253Y0142144D01*
X0021597Y0142144D01*
X0021597Y0146675D01*
X0013569Y0146675D01*
X0013667Y0146062D01*
X0014108Y0144917D02*
X0009134Y0144917D01*
X0009134Y0143738D02*
X0014944Y0143738D01*
X0016616Y0142558D02*
X0009134Y0142558D01*
X0021597Y0142558D02*
X0022766Y0142558D01*
X0022766Y0143738D02*
X0021597Y0143738D01*
X0021597Y0144917D02*
X0022766Y0144917D01*
X0022766Y0146097D02*
X0021597Y0146097D01*
X0021597Y0148456D02*
X0022766Y0148456D01*
X0022766Y0149636D02*
X0021597Y0149636D01*
X0021597Y0150815D02*
X0022766Y0150815D01*
X0022766Y0151995D02*
X0021597Y0151995D01*
X0019961Y0084757D02*
X0049754Y0084757D01*
X0049250Y0083577D02*
X0019961Y0083577D01*
X0019889Y0082398D02*
X0049087Y0082398D01*
X0049087Y0081218D02*
X0019400Y0081218D01*
X0028730Y0080039D02*
X0049087Y0080039D01*
X0045436Y0071781D02*
X0029869Y0071781D01*
X0031049Y0070602D02*
X0044257Y0070602D01*
X0043745Y0069422D02*
X0032228Y0069422D01*
X0033408Y0068242D02*
X0043745Y0068242D01*
X0043745Y0067063D02*
X0034588Y0067063D01*
X0035767Y0065883D02*
X0044811Y0065883D01*
X0045842Y0062344D02*
X0039306Y0062344D01*
X0040486Y0061165D02*
X0044662Y0061165D01*
X0037873Y0057626D02*
X0030740Y0057626D01*
X0030379Y0058806D02*
X0036694Y0058806D01*
X0035514Y0059985D02*
X0029649Y0059985D01*
X0028228Y0061165D02*
X0034334Y0061165D01*
X0029139Y0052907D02*
X0060629Y0052907D01*
X0061808Y0051728D02*
X0050003Y0051728D01*
X0049106Y0052625D02*
X0051326Y0050405D01*
X0051326Y0047265D01*
X0049106Y0045044D01*
X0046821Y0045044D01*
X0045104Y0043328D01*
X0045104Y0030815D01*
X0045600Y0030609D01*
X0046927Y0029283D01*
X0047645Y0027550D01*
X0047645Y0018624D01*
X0046927Y0016890D01*
X0045600Y0015564D01*
X0043867Y0014846D01*
X0041991Y0014846D01*
X0040258Y0015564D01*
X0038931Y0016890D01*
X0038214Y0018624D01*
X0038214Y0027550D01*
X0038931Y0029283D01*
X0040258Y0030609D01*
X0040754Y0030815D01*
X0040754Y0045129D01*
X0042028Y0046403D01*
X0043745Y0048120D01*
X0043745Y0050405D01*
X0045965Y0052625D01*
X0049106Y0052625D01*
X0051182Y0050548D02*
X0062988Y0050548D01*
X0064168Y0049369D02*
X0051326Y0049369D01*
X0051326Y0048189D02*
X0065347Y0048189D01*
X0066527Y0047009D02*
X0051071Y0047009D01*
X0049891Y0045830D02*
X0067706Y0045830D01*
X0068886Y0044650D02*
X0046427Y0044650D01*
X0045247Y0043471D02*
X0070066Y0043471D01*
X0071245Y0042291D02*
X0045104Y0042291D01*
X0045104Y0041111D02*
X0072425Y0041111D01*
X0073605Y0039932D02*
X0045104Y0039932D01*
X0045104Y0038752D02*
X0074784Y0038752D01*
X0075964Y0037572D02*
X0045104Y0037572D01*
X0045104Y0036393D02*
X0077143Y0036393D01*
X0078323Y0035213D02*
X0045104Y0035213D01*
X0045104Y0034034D02*
X0079503Y0034034D01*
X0080682Y0032854D02*
X0045104Y0032854D01*
X0045104Y0031674D02*
X0061879Y0031674D01*
X0062030Y0031674D02*
X0063199Y0031674D01*
X0063199Y0031698D02*
X0063199Y0023671D01*
X0067730Y0023671D01*
X0067730Y0027014D01*
X0067604Y0027810D01*
X0067355Y0028575D01*
X0066989Y0029293D01*
X0066516Y0029944D01*
X0065947Y0030514D01*
X0065295Y0030987D01*
X0064578Y0031352D01*
X0063812Y0031601D01*
X0063199Y0031698D01*
X0063350Y0031674D02*
X0081862Y0031674D01*
X0079514Y0030495D02*
X0065965Y0030495D01*
X0066973Y0029315D02*
X0078334Y0029315D01*
X0077826Y0028136D02*
X0067498Y0028136D01*
X0067730Y0026956D02*
X0077584Y0026956D01*
X0077584Y0025776D02*
X0067730Y0025776D01*
X0067730Y0024597D02*
X0077584Y0024597D01*
X0077584Y0023417D02*
X0063199Y0023417D01*
X0063199Y0023671D02*
X0063199Y0022502D01*
X0067730Y0022502D01*
X0067730Y0019159D01*
X0067604Y0018364D01*
X0067355Y0017598D01*
X0066989Y0016880D01*
X0066516Y0016229D01*
X0065947Y0015660D01*
X0065295Y0015186D01*
X0064578Y0014821D01*
X0063812Y0014572D01*
X0063199Y0014475D01*
X0063199Y0022502D01*
X0062030Y0022502D01*
X0062030Y0014475D01*
X0061416Y0014572D01*
X0060650Y0014821D01*
X0059933Y0015186D01*
X0059282Y0015660D01*
X0058712Y0016229D01*
X0058239Y0016880D01*
X0057873Y0017598D01*
X0057625Y0018364D01*
X0057499Y0019159D01*
X0057499Y0022502D01*
X0062030Y0022502D01*
X0062030Y0023671D01*
X0062030Y0031698D01*
X0061416Y0031601D01*
X0060650Y0031352D01*
X0059933Y0030987D01*
X0059282Y0030514D01*
X0058712Y0029944D01*
X0058239Y0029293D01*
X0057873Y0028575D01*
X0057625Y0027810D01*
X0057499Y0027014D01*
X0057499Y0023671D01*
X0062030Y0023671D01*
X0063199Y0023671D01*
X0063199Y0024597D02*
X0062030Y0024597D01*
X0062030Y0025776D02*
X0063199Y0025776D01*
X0063199Y0026956D02*
X0062030Y0026956D01*
X0062030Y0028136D02*
X0063199Y0028136D01*
X0063199Y0029315D02*
X0062030Y0029315D01*
X0062030Y0030495D02*
X0063199Y0030495D01*
X0059263Y0030495D02*
X0045715Y0030495D01*
X0046894Y0029315D02*
X0058255Y0029315D01*
X0057731Y0028136D02*
X0047402Y0028136D01*
X0047645Y0026956D02*
X0057499Y0026956D01*
X0057499Y0025776D02*
X0047645Y0025776D01*
X0047645Y0024597D02*
X0057499Y0024597D01*
X0057499Y0022238D02*
X0047645Y0022238D01*
X0047645Y0023417D02*
X0062030Y0023417D01*
X0062030Y0022238D02*
X0063199Y0022238D01*
X0063199Y0021058D02*
X0062030Y0021058D01*
X0062030Y0019878D02*
X0063199Y0019878D01*
X0063199Y0018699D02*
X0062030Y0018699D01*
X0062030Y0017519D02*
X0063199Y0017519D01*
X0063199Y0016339D02*
X0062030Y0016339D01*
X0062030Y0015160D02*
X0063199Y0015160D01*
X0065243Y0015160D02*
X0080604Y0015160D01*
X0078853Y0016339D02*
X0066596Y0016339D01*
X0067315Y0017519D02*
X0078041Y0017519D01*
X0077584Y0018699D02*
X0067657Y0018699D01*
X0067730Y0019878D02*
X0077584Y0019878D01*
X0077584Y0021058D02*
X0067730Y0021058D01*
X0067730Y0022238D02*
X0077584Y0022238D01*
X0083995Y0015160D02*
X0085202Y0015160D01*
X0086381Y0013980D02*
X0019200Y0013980D01*
X0019689Y0012801D02*
X0087561Y0012801D01*
X0088740Y0011621D02*
X0019961Y0011621D01*
X0019961Y0010441D02*
X0089920Y0010441D01*
X0091100Y0009262D02*
X0019961Y0009262D01*
X0018712Y0015160D02*
X0021549Y0015160D01*
X0022306Y0014846D02*
X0024182Y0014846D01*
X0025915Y0015564D01*
X0027242Y0016890D01*
X0027960Y0018624D01*
X0027960Y0027550D01*
X0027242Y0029283D01*
X0025915Y0030609D01*
X0024182Y0031327D01*
X0022306Y0031327D01*
X0020573Y0030609D01*
X0019246Y0029283D01*
X0018529Y0027550D01*
X0018529Y0018624D01*
X0019246Y0016890D01*
X0020573Y0015564D01*
X0022306Y0014846D01*
X0024940Y0015160D02*
X0041234Y0015160D01*
X0039483Y0016339D02*
X0026691Y0016339D01*
X0027502Y0017519D02*
X0038671Y0017519D01*
X0038214Y0018699D02*
X0027960Y0018699D01*
X0027960Y0019878D02*
X0038214Y0019878D01*
X0038214Y0021058D02*
X0027960Y0021058D01*
X0027960Y0022238D02*
X0038214Y0022238D01*
X0038214Y0023417D02*
X0027960Y0023417D01*
X0027960Y0024597D02*
X0038214Y0024597D01*
X0038214Y0025776D02*
X0027960Y0025776D01*
X0027960Y0026956D02*
X0038214Y0026956D01*
X0038456Y0028136D02*
X0027717Y0028136D01*
X0027209Y0029315D02*
X0038964Y0029315D01*
X0040144Y0030495D02*
X0026030Y0030495D01*
X0020459Y0030495D02*
X0009134Y0030495D01*
X0009134Y0031674D02*
X0040754Y0031674D01*
X0040754Y0032854D02*
X0009134Y0032854D01*
X0009134Y0034034D02*
X0040754Y0034034D01*
X0040754Y0035213D02*
X0009134Y0035213D01*
X0009134Y0036393D02*
X0040754Y0036393D01*
X0040754Y0037572D02*
X0009134Y0037572D01*
X0009134Y0038752D02*
X0040754Y0038752D01*
X0040754Y0039932D02*
X0009134Y0039932D01*
X0009134Y0041111D02*
X0040754Y0041111D01*
X0040754Y0042291D02*
X0009134Y0042291D01*
X0009134Y0043471D02*
X0040754Y0043471D01*
X0040754Y0044650D02*
X0009134Y0044650D01*
X0009134Y0045830D02*
X0041455Y0045830D01*
X0042635Y0047009D02*
X0009134Y0047009D01*
X0009134Y0048189D02*
X0043745Y0048189D01*
X0043745Y0049369D02*
X0009134Y0049369D01*
X0009134Y0050548D02*
X0043888Y0050548D01*
X0045068Y0051728D02*
X0026931Y0051728D01*
X0022766Y0051728D02*
X0021597Y0051728D01*
X0021597Y0052907D02*
X0022766Y0052907D01*
X0022766Y0054087D02*
X0021597Y0054087D01*
X0021597Y0057626D02*
X0022766Y0057626D01*
X0022766Y0058806D02*
X0021597Y0058806D01*
X0021597Y0059985D02*
X0022766Y0059985D01*
X0022766Y0061165D02*
X0021597Y0061165D01*
X0017431Y0051728D02*
X0009134Y0051728D01*
X0009134Y0052907D02*
X0015223Y0052907D01*
X0014251Y0054087D02*
X0009134Y0054087D01*
X0009134Y0055267D02*
X0013746Y0055267D01*
X0009134Y0029315D02*
X0019279Y0029315D01*
X0018771Y0028136D02*
X0009134Y0028136D01*
X0009134Y0026956D02*
X0018529Y0026956D01*
X0018529Y0025776D02*
X0009134Y0025776D01*
X0009134Y0024597D02*
X0018529Y0024597D01*
X0018529Y0023417D02*
X0009134Y0023417D01*
X0009134Y0022238D02*
X0018529Y0022238D01*
X0018529Y0021058D02*
X0009134Y0021058D01*
X0009134Y0019878D02*
X0018529Y0019878D01*
X0018529Y0018699D02*
X0013800Y0018699D01*
X0016423Y0017519D02*
X0018986Y0017519D01*
X0019797Y0016339D02*
X0017602Y0016339D01*
X0044625Y0015160D02*
X0059985Y0015160D01*
X0058632Y0016339D02*
X0046376Y0016339D01*
X0047187Y0017519D02*
X0057914Y0017519D01*
X0057572Y0018699D02*
X0047645Y0018699D01*
X0047645Y0019878D02*
X0057499Y0019878D01*
X0057499Y0021058D02*
X0047645Y0021058D01*
X0084478Y0030813D02*
X0099806Y0030813D01*
X0099313Y0030609D01*
X0097987Y0029283D01*
X0097269Y0027550D01*
X0097269Y0018624D01*
X0097987Y0016890D01*
X0099313Y0015564D01*
X0100709Y0014986D01*
X0095424Y0014986D01*
X0087015Y0023395D01*
X0087015Y0027550D01*
X0086297Y0029283D01*
X0084970Y0030609D01*
X0084478Y0030813D01*
X0085085Y0030495D02*
X0099199Y0030495D01*
X0098019Y0029315D02*
X0086264Y0029315D01*
X0086772Y0028136D02*
X0097511Y0028136D01*
X0097269Y0026956D02*
X0087015Y0026956D01*
X0087015Y0025776D02*
X0097269Y0025776D01*
X0097269Y0024597D02*
X0087015Y0024597D01*
X0087015Y0023417D02*
X0097269Y0023417D01*
X0097269Y0022238D02*
X0088173Y0022238D01*
X0089352Y0021058D02*
X0097269Y0021058D01*
X0097269Y0019878D02*
X0090532Y0019878D01*
X0091711Y0018699D02*
X0097269Y0018699D01*
X0097726Y0017519D02*
X0092891Y0017519D01*
X0094071Y0016339D02*
X0098538Y0016339D01*
X0100289Y0015160D02*
X0095250Y0015160D01*
X0106700Y0024597D02*
X0116554Y0024597D01*
X0116554Y0025776D02*
X0106700Y0025776D01*
X0106700Y0026956D02*
X0116554Y0026956D01*
X0116786Y0028136D02*
X0106457Y0028136D01*
X0105949Y0029315D02*
X0117310Y0029315D01*
X0118318Y0030495D02*
X0104770Y0030495D01*
X0109471Y0038752D02*
X0212194Y0038752D01*
X0214215Y0038752D02*
X0223047Y0038752D01*
X0223047Y0039932D02*
X0215566Y0039932D01*
X0215884Y0041111D02*
X0223047Y0041111D01*
X0223047Y0042291D02*
X0222261Y0042291D01*
X0222774Y0043471D02*
X0223047Y0043471D01*
X0223047Y0044650D02*
X0222690Y0044650D01*
X0223047Y0045830D02*
X0221967Y0045830D01*
X0223047Y0047009D02*
X0183673Y0047009D01*
X0184342Y0048189D02*
X0223047Y0048189D01*
X0223047Y0049369D02*
X0184388Y0049369D01*
X0183784Y0050548D02*
X0223047Y0050548D01*
X0223047Y0051728D02*
X0172663Y0051728D01*
X0172427Y0052907D02*
X0223047Y0052907D01*
X0223047Y0054087D02*
X0171509Y0054087D01*
X0187395Y0035274D02*
X0197457Y0025213D01*
X0199451Y0023417D02*
X0201016Y0023417D01*
X0200102Y0024597D02*
X0202196Y0024597D01*
X0202664Y0025776D02*
X0200123Y0025776D01*
X0199503Y0026956D02*
X0203285Y0026956D01*
X0212931Y0040961D02*
X0213205Y0041234D01*
X0212931Y0040961D02*
X0107890Y0040961D01*
X0214756Y0062344D02*
X0223047Y0062344D01*
X0223047Y0063524D02*
X0215666Y0063524D01*
X0215884Y0064704D02*
X0223047Y0064704D01*
X0223047Y0065883D02*
X0215566Y0065883D01*
D15*
X0213205Y0064583D03*
X0220094Y0058185D03*
X0212220Y0052772D03*
X0213205Y0041234D03*
X0220094Y0043913D03*
X0207299Y0031118D03*
X0205331Y0025213D03*
X0197457Y0025213D03*
X0195488Y0036039D03*
X0196472Y0051787D03*
X0189780Y0067262D03*
X0181709Y0048835D03*
X0169898Y0051787D03*
X0167929Y0069504D03*
X0158087Y0082299D03*
X0157102Y0073441D03*
X0148244Y0051787D03*
X0147260Y0030134D03*
X0155134Y0019307D03*
X0171866Y0027181D03*
X0205331Y0070488D03*
X0205331Y0115764D03*
X0207299Y0121669D03*
X0197457Y0115764D03*
X0195488Y0126591D03*
X0196472Y0142339D03*
X0181709Y0139386D03*
X0169898Y0142339D03*
X0167929Y0160055D03*
X0157102Y0163992D03*
X0158087Y0172850D03*
X0155134Y0200409D03*
X0147260Y0211236D03*
X0135449Y0211236D03*
X0131512Y0214189D03*
X0131586Y0205404D03*
X0128559Y0202378D03*
X0133480Y0191551D03*
X0110843Y0209268D03*
X0107890Y0222063D03*
X0109270Y0225743D03*
X0106906Y0233874D03*
X0106906Y0239780D03*
X0100016Y0254543D03*
X0091157Y0234858D03*
X0087220Y0222063D03*
X0092142Y0207299D03*
X0094110Y0201394D03*
X0107890Y0197457D03*
X0100016Y0163992D03*
X0106906Y0149228D03*
X0106906Y0143323D03*
X0109270Y0135191D03*
X0107890Y0131512D03*
X0110843Y0118717D03*
X0107890Y0106906D03*
X0094110Y0110843D03*
X0092142Y0116748D03*
X0087220Y0131512D03*
X0091157Y0144307D03*
X0077378Y0149228D03*
X0076394Y0160055D03*
X0056709Y0158087D03*
X0038008Y0167929D03*
X0024228Y0157102D03*
X0011433Y0164976D03*
X0021276Y0192535D03*
X0013402Y0202378D03*
X0020291Y0225016D03*
X0034071Y0221079D03*
X0051787Y0221079D03*
X0056709Y0248638D03*
X0038008Y0258480D03*
X0024228Y0247654D03*
X0011433Y0255528D03*
X0021276Y0283087D03*
X0013402Y0292929D03*
X0020291Y0315567D03*
X0034071Y0311630D03*
X0051787Y0311630D03*
X0056709Y0339189D03*
X0038008Y0349031D03*
X0024228Y0338205D03*
X0011433Y0346079D03*
X0071472Y0304740D03*
X0087220Y0312614D03*
X0091157Y0325409D03*
X0077378Y0330331D03*
X0076394Y0341157D03*
X0100016Y0345094D03*
X0106906Y0330331D03*
X0106906Y0324425D03*
X0109270Y0316294D03*
X0107890Y0312614D03*
X0110843Y0299819D03*
X0107890Y0288008D03*
X0094110Y0291945D03*
X0092142Y0297850D03*
X0124622Y0337220D03*
X0128559Y0333283D03*
X0123638Y0344110D03*
X0148244Y0323441D03*
X0147260Y0301787D03*
X0155134Y0290961D03*
X0171866Y0298835D03*
X0181709Y0320488D03*
X0169898Y0323441D03*
X0167929Y0341157D03*
X0158087Y0353953D03*
X0157102Y0345094D03*
X0131512Y0304740D03*
X0135449Y0301787D03*
X0131586Y0295956D03*
X0128559Y0292929D03*
X0133480Y0282102D03*
X0123638Y0253559D03*
X0124622Y0246669D03*
X0128559Y0242732D03*
X0148244Y0232890D03*
X0157102Y0254543D03*
X0158087Y0263402D03*
X0167929Y0250606D03*
X0169898Y0232890D03*
X0181709Y0229937D03*
X0196472Y0232890D03*
X0195488Y0217142D03*
X0197457Y0206315D03*
X0205331Y0206315D03*
X0207299Y0212220D03*
X0213205Y0222336D03*
X0220094Y0225016D03*
X0212220Y0233874D03*
X0220094Y0239287D03*
X0213205Y0245685D03*
X0205331Y0251591D03*
X0189780Y0248365D03*
X0171866Y0208283D03*
X0189780Y0157813D03*
X0205331Y0161039D03*
X0213205Y0155134D03*
X0220094Y0148736D03*
X0212220Y0143323D03*
X0213205Y0131785D03*
X0220094Y0134465D03*
X0171866Y0117732D03*
X0155134Y0109858D03*
X0147260Y0120685D03*
X0135449Y0120685D03*
X0131512Y0123638D03*
X0131586Y0114853D03*
X0128559Y0111827D03*
X0133480Y0101000D03*
X0123638Y0072457D03*
X0124622Y0065567D03*
X0128559Y0061630D03*
X0109270Y0044640D03*
X0107890Y0040961D03*
X0106906Y0052772D03*
X0106906Y0058677D03*
X0100016Y0073441D03*
X0091157Y0053756D03*
X0087220Y0040961D03*
X0092142Y0026197D03*
X0094110Y0020291D03*
X0107890Y0016354D03*
X0110843Y0028165D03*
X0128559Y0021276D03*
X0131586Y0024302D03*
X0135449Y0030134D03*
X0131512Y0033087D03*
X0133480Y0010449D03*
X0077378Y0058677D03*
X0076394Y0069504D03*
X0056709Y0067535D03*
X0038008Y0077378D03*
X0024228Y0066551D03*
X0011433Y0074425D03*
X0021276Y0101984D03*
X0013402Y0111827D03*
X0020291Y0134465D03*
X0034071Y0130528D03*
X0051787Y0130528D03*
X0071472Y0123638D03*
X0124622Y0156118D03*
X0128559Y0152181D03*
X0123638Y0163008D03*
X0148244Y0142339D03*
X0077378Y0239780D03*
X0076394Y0250606D03*
X0071472Y0214189D03*
X0189780Y0338916D03*
X0196472Y0323441D03*
X0195488Y0307693D03*
X0197457Y0296866D03*
X0205331Y0296866D03*
X0207299Y0302772D03*
X0213205Y0312887D03*
X0220094Y0315567D03*
X0212220Y0324425D03*
X0220094Y0329839D03*
X0213205Y0336236D03*
X0205331Y0342142D03*
X0020291Y0043913D03*
X0034071Y0039976D03*
X0051787Y0039976D03*
X0071472Y0033087D03*
X0021276Y0011433D03*
X0013402Y0021276D03*
D16*
X0042929Y0023087D02*
X0042929Y0044228D01*
X0047535Y0048835D01*
X0047535Y0058677D02*
X0039898Y0058677D01*
X0022181Y0076394D01*
X0042929Y0113638D02*
X0042929Y0134780D01*
X0047535Y0139386D01*
X0047535Y0149228D02*
X0039898Y0149228D01*
X0022181Y0166945D01*
X0042929Y0204189D02*
X0042929Y0225331D01*
X0047535Y0229937D01*
X0047535Y0239780D02*
X0039898Y0239780D01*
X0022181Y0257496D01*
X0042929Y0294740D02*
X0042929Y0315882D01*
X0047535Y0320488D01*
X0047535Y0330331D02*
X0039898Y0330331D01*
X0022181Y0348047D01*
X0094780Y0340173D02*
X0097732Y0337220D01*
X0124622Y0337220D01*
X0094780Y0249622D02*
X0097732Y0246669D01*
X0124622Y0246669D01*
X0094780Y0159071D02*
X0097732Y0156118D01*
X0124622Y0156118D01*
X0094780Y0068520D02*
X0097732Y0065567D01*
X0124622Y0065567D01*
D17*
X0135449Y0030134D02*
X0141354Y0030134D01*
X0141354Y0026197D01*
X0126591Y0011433D01*
X0093953Y0011433D01*
X0082299Y0023087D01*
X0093953Y0101984D02*
X0126591Y0101984D01*
X0141354Y0116748D01*
X0141354Y0120685D01*
X0135449Y0120685D01*
X0141354Y0120685D02*
X0147260Y0120685D01*
X0126591Y0192535D02*
X0141354Y0207299D01*
X0141354Y0211236D01*
X0135449Y0211236D01*
X0141354Y0211236D02*
X0147260Y0211236D01*
X0126591Y0192535D02*
X0093953Y0192535D01*
X0082299Y0204189D01*
X0093953Y0283087D02*
X0126591Y0283087D01*
X0141354Y0297850D01*
X0141354Y0301787D01*
X0135449Y0301787D01*
X0141354Y0301787D02*
X0147260Y0301787D01*
X0093953Y0283087D02*
X0082299Y0294740D01*
X0082299Y0113638D02*
X0093953Y0101984D01*
X0141354Y0030134D02*
X0147260Y0030134D01*
D18*
X0148244Y0051787D02*
X0169898Y0051787D01*
X0169898Y0142339D02*
X0148244Y0142339D01*
X0148244Y0232890D02*
X0169898Y0232890D01*
X0169898Y0323441D02*
X0148244Y0323441D01*
D19*
X0081315Y0320488D03*
X0081315Y0229937D03*
X0081315Y0139386D03*
X0081315Y0048835D03*
M02*
