G04 EAGLE Gerber RS-274X export*
G75*
%MOMM*%
%FSLAX34Y34*%
%LPD*%
%INSolderpaste Top*%
%IPPOS*%
%AMOC8*
5,1,8,0,0,1.08239X$1,22.5*%
G01*
%ADD10R,1.500000X1.300000*%
%ADD11R,1.000000X1.400000*%
%ADD12R,1.200000X3.000000*%
%ADD13R,3.000000X1.200000*%
%ADD14R,1.600200X1.168400*%


D10*
X352500Y130500D03*
X352500Y149500D03*
D11*
X347500Y46000D03*
X357000Y24000D03*
X338000Y24000D03*
D12*
X550500Y190500D03*
X530500Y190500D03*
X510500Y190500D03*
X490500Y190500D03*
X470500Y190500D03*
X450500Y190500D03*
X430500Y190500D03*
X410500Y190500D03*
X550500Y26500D03*
X530500Y26500D03*
X490500Y26500D03*
X510500Y26500D03*
X470500Y26500D03*
X450500Y26500D03*
X430500Y26500D03*
X410500Y26500D03*
D13*
X389500Y75500D03*
X389500Y95500D03*
X389500Y115500D03*
X389500Y135500D03*
X389500Y155500D03*
X389500Y55500D03*
D11*
X347500Y69000D03*
X338000Y91000D03*
X357000Y91000D03*
D14*
X90000Y225120D03*
X90000Y209880D03*
D10*
X352500Y568000D03*
X352500Y587000D03*
D11*
X347500Y483500D03*
X357000Y461500D03*
X338000Y461500D03*
D12*
X550500Y628000D03*
X530500Y628000D03*
X510500Y628000D03*
X490500Y628000D03*
X470500Y628000D03*
X450500Y628000D03*
X430500Y628000D03*
X410500Y628000D03*
X550500Y464000D03*
X530500Y464000D03*
X490500Y464000D03*
X510500Y464000D03*
X470500Y464000D03*
X450500Y464000D03*
X430500Y464000D03*
X410500Y464000D03*
D13*
X389500Y513000D03*
X389500Y533000D03*
X389500Y553000D03*
X389500Y573000D03*
X389500Y593000D03*
X389500Y493000D03*
D11*
X347500Y506500D03*
X338000Y528500D03*
X357000Y528500D03*
D14*
X90000Y662620D03*
X90000Y647380D03*
M02*
