G04 EAGLE Gerber RS-274X export*
G75*
%MOMM*%
%FSLAX34Y34*%
%LPD*%
%INBestückungsdruck unten*%
%IPPOS*%
%AMOC8*
5,1,8,0,0,1.08239X$1,22.5*%
G01*
%ADD10C,0.000000*%
%ADD11C,0.300000*%
%ADD12C,0.152400*%
%ADD13C,0.127000*%


D10*
X7500Y202500D02*
X7503Y202745D01*
X7512Y202991D01*
X7527Y203236D01*
X7548Y203480D01*
X7575Y203724D01*
X7608Y203967D01*
X7647Y204210D01*
X7692Y204451D01*
X7743Y204691D01*
X7800Y204930D01*
X7862Y205167D01*
X7931Y205403D01*
X8005Y205637D01*
X8085Y205869D01*
X8170Y206099D01*
X8261Y206327D01*
X8358Y206552D01*
X8460Y206776D01*
X8568Y206996D01*
X8681Y207214D01*
X8799Y207429D01*
X8923Y207641D01*
X9051Y207850D01*
X9185Y208056D01*
X9324Y208258D01*
X9468Y208457D01*
X9617Y208652D01*
X9770Y208844D01*
X9928Y209032D01*
X10090Y209216D01*
X10258Y209395D01*
X10429Y209571D01*
X10605Y209742D01*
X10784Y209910D01*
X10968Y210072D01*
X11156Y210230D01*
X11348Y210383D01*
X11543Y210532D01*
X11742Y210676D01*
X11944Y210815D01*
X12150Y210949D01*
X12359Y211077D01*
X12571Y211201D01*
X12786Y211319D01*
X13004Y211432D01*
X13224Y211540D01*
X13448Y211642D01*
X13673Y211739D01*
X13901Y211830D01*
X14131Y211915D01*
X14363Y211995D01*
X14597Y212069D01*
X14833Y212138D01*
X15070Y212200D01*
X15309Y212257D01*
X15549Y212308D01*
X15790Y212353D01*
X16033Y212392D01*
X16276Y212425D01*
X16520Y212452D01*
X16764Y212473D01*
X17009Y212488D01*
X17255Y212497D01*
X17500Y212500D01*
X17745Y212497D01*
X17991Y212488D01*
X18236Y212473D01*
X18480Y212452D01*
X18724Y212425D01*
X18967Y212392D01*
X19210Y212353D01*
X19451Y212308D01*
X19691Y212257D01*
X19930Y212200D01*
X20167Y212138D01*
X20403Y212069D01*
X20637Y211995D01*
X20869Y211915D01*
X21099Y211830D01*
X21327Y211739D01*
X21552Y211642D01*
X21776Y211540D01*
X21996Y211432D01*
X22214Y211319D01*
X22429Y211201D01*
X22641Y211077D01*
X22850Y210949D01*
X23056Y210815D01*
X23258Y210676D01*
X23457Y210532D01*
X23652Y210383D01*
X23844Y210230D01*
X24032Y210072D01*
X24216Y209910D01*
X24395Y209742D01*
X24571Y209571D01*
X24742Y209395D01*
X24910Y209216D01*
X25072Y209032D01*
X25230Y208844D01*
X25383Y208652D01*
X25532Y208457D01*
X25676Y208258D01*
X25815Y208056D01*
X25949Y207850D01*
X26077Y207641D01*
X26201Y207429D01*
X26319Y207214D01*
X26432Y206996D01*
X26540Y206776D01*
X26642Y206552D01*
X26739Y206327D01*
X26830Y206099D01*
X26915Y205869D01*
X26995Y205637D01*
X27069Y205403D01*
X27138Y205167D01*
X27200Y204930D01*
X27257Y204691D01*
X27308Y204451D01*
X27353Y204210D01*
X27392Y203967D01*
X27425Y203724D01*
X27452Y203480D01*
X27473Y203236D01*
X27488Y202991D01*
X27497Y202745D01*
X27500Y202500D01*
X27497Y202255D01*
X27488Y202009D01*
X27473Y201764D01*
X27452Y201520D01*
X27425Y201276D01*
X27392Y201033D01*
X27353Y200790D01*
X27308Y200549D01*
X27257Y200309D01*
X27200Y200070D01*
X27138Y199833D01*
X27069Y199597D01*
X26995Y199363D01*
X26915Y199131D01*
X26830Y198901D01*
X26739Y198673D01*
X26642Y198448D01*
X26540Y198224D01*
X26432Y198004D01*
X26319Y197786D01*
X26201Y197571D01*
X26077Y197359D01*
X25949Y197150D01*
X25815Y196944D01*
X25676Y196742D01*
X25532Y196543D01*
X25383Y196348D01*
X25230Y196156D01*
X25072Y195968D01*
X24910Y195784D01*
X24742Y195605D01*
X24571Y195429D01*
X24395Y195258D01*
X24216Y195090D01*
X24032Y194928D01*
X23844Y194770D01*
X23652Y194617D01*
X23457Y194468D01*
X23258Y194324D01*
X23056Y194185D01*
X22850Y194051D01*
X22641Y193923D01*
X22429Y193799D01*
X22214Y193681D01*
X21996Y193568D01*
X21776Y193460D01*
X21552Y193358D01*
X21327Y193261D01*
X21099Y193170D01*
X20869Y193085D01*
X20637Y193005D01*
X20403Y192931D01*
X20167Y192862D01*
X19930Y192800D01*
X19691Y192743D01*
X19451Y192692D01*
X19210Y192647D01*
X18967Y192608D01*
X18724Y192575D01*
X18480Y192548D01*
X18236Y192527D01*
X17991Y192512D01*
X17745Y192503D01*
X17500Y192500D01*
X17255Y192503D01*
X17009Y192512D01*
X16764Y192527D01*
X16520Y192548D01*
X16276Y192575D01*
X16033Y192608D01*
X15790Y192647D01*
X15549Y192692D01*
X15309Y192743D01*
X15070Y192800D01*
X14833Y192862D01*
X14597Y192931D01*
X14363Y193005D01*
X14131Y193085D01*
X13901Y193170D01*
X13673Y193261D01*
X13448Y193358D01*
X13224Y193460D01*
X13004Y193568D01*
X12786Y193681D01*
X12571Y193799D01*
X12359Y193923D01*
X12150Y194051D01*
X11944Y194185D01*
X11742Y194324D01*
X11543Y194468D01*
X11348Y194617D01*
X11156Y194770D01*
X10968Y194928D01*
X10784Y195090D01*
X10605Y195258D01*
X10429Y195429D01*
X10258Y195605D01*
X10090Y195784D01*
X9928Y195968D01*
X9770Y196156D01*
X9617Y196348D01*
X9468Y196543D01*
X9324Y196742D01*
X9185Y196944D01*
X9051Y197150D01*
X8923Y197359D01*
X8799Y197571D01*
X8681Y197786D01*
X8568Y198004D01*
X8460Y198224D01*
X8358Y198448D01*
X8261Y198673D01*
X8170Y198901D01*
X8085Y199131D01*
X8005Y199363D01*
X7931Y199597D01*
X7862Y199833D01*
X7800Y200070D01*
X7743Y200309D01*
X7692Y200549D01*
X7647Y200790D01*
X7608Y201033D01*
X7575Y201276D01*
X7548Y201520D01*
X7527Y201764D01*
X7512Y202009D01*
X7503Y202255D01*
X7500Y202500D01*
X622500Y202500D02*
X622503Y202745D01*
X622512Y202991D01*
X622527Y203236D01*
X622548Y203480D01*
X622575Y203724D01*
X622608Y203967D01*
X622647Y204210D01*
X622692Y204451D01*
X622743Y204691D01*
X622800Y204930D01*
X622862Y205167D01*
X622931Y205403D01*
X623005Y205637D01*
X623085Y205869D01*
X623170Y206099D01*
X623261Y206327D01*
X623358Y206552D01*
X623460Y206776D01*
X623568Y206996D01*
X623681Y207214D01*
X623799Y207429D01*
X623923Y207641D01*
X624051Y207850D01*
X624185Y208056D01*
X624324Y208258D01*
X624468Y208457D01*
X624617Y208652D01*
X624770Y208844D01*
X624928Y209032D01*
X625090Y209216D01*
X625258Y209395D01*
X625429Y209571D01*
X625605Y209742D01*
X625784Y209910D01*
X625968Y210072D01*
X626156Y210230D01*
X626348Y210383D01*
X626543Y210532D01*
X626742Y210676D01*
X626944Y210815D01*
X627150Y210949D01*
X627359Y211077D01*
X627571Y211201D01*
X627786Y211319D01*
X628004Y211432D01*
X628224Y211540D01*
X628448Y211642D01*
X628673Y211739D01*
X628901Y211830D01*
X629131Y211915D01*
X629363Y211995D01*
X629597Y212069D01*
X629833Y212138D01*
X630070Y212200D01*
X630309Y212257D01*
X630549Y212308D01*
X630790Y212353D01*
X631033Y212392D01*
X631276Y212425D01*
X631520Y212452D01*
X631764Y212473D01*
X632009Y212488D01*
X632255Y212497D01*
X632500Y212500D01*
X632745Y212497D01*
X632991Y212488D01*
X633236Y212473D01*
X633480Y212452D01*
X633724Y212425D01*
X633967Y212392D01*
X634210Y212353D01*
X634451Y212308D01*
X634691Y212257D01*
X634930Y212200D01*
X635167Y212138D01*
X635403Y212069D01*
X635637Y211995D01*
X635869Y211915D01*
X636099Y211830D01*
X636327Y211739D01*
X636552Y211642D01*
X636776Y211540D01*
X636996Y211432D01*
X637214Y211319D01*
X637429Y211201D01*
X637641Y211077D01*
X637850Y210949D01*
X638056Y210815D01*
X638258Y210676D01*
X638457Y210532D01*
X638652Y210383D01*
X638844Y210230D01*
X639032Y210072D01*
X639216Y209910D01*
X639395Y209742D01*
X639571Y209571D01*
X639742Y209395D01*
X639910Y209216D01*
X640072Y209032D01*
X640230Y208844D01*
X640383Y208652D01*
X640532Y208457D01*
X640676Y208258D01*
X640815Y208056D01*
X640949Y207850D01*
X641077Y207641D01*
X641201Y207429D01*
X641319Y207214D01*
X641432Y206996D01*
X641540Y206776D01*
X641642Y206552D01*
X641739Y206327D01*
X641830Y206099D01*
X641915Y205869D01*
X641995Y205637D01*
X642069Y205403D01*
X642138Y205167D01*
X642200Y204930D01*
X642257Y204691D01*
X642308Y204451D01*
X642353Y204210D01*
X642392Y203967D01*
X642425Y203724D01*
X642452Y203480D01*
X642473Y203236D01*
X642488Y202991D01*
X642497Y202745D01*
X642500Y202500D01*
X642497Y202255D01*
X642488Y202009D01*
X642473Y201764D01*
X642452Y201520D01*
X642425Y201276D01*
X642392Y201033D01*
X642353Y200790D01*
X642308Y200549D01*
X642257Y200309D01*
X642200Y200070D01*
X642138Y199833D01*
X642069Y199597D01*
X641995Y199363D01*
X641915Y199131D01*
X641830Y198901D01*
X641739Y198673D01*
X641642Y198448D01*
X641540Y198224D01*
X641432Y198004D01*
X641319Y197786D01*
X641201Y197571D01*
X641077Y197359D01*
X640949Y197150D01*
X640815Y196944D01*
X640676Y196742D01*
X640532Y196543D01*
X640383Y196348D01*
X640230Y196156D01*
X640072Y195968D01*
X639910Y195784D01*
X639742Y195605D01*
X639571Y195429D01*
X639395Y195258D01*
X639216Y195090D01*
X639032Y194928D01*
X638844Y194770D01*
X638652Y194617D01*
X638457Y194468D01*
X638258Y194324D01*
X638056Y194185D01*
X637850Y194051D01*
X637641Y193923D01*
X637429Y193799D01*
X637214Y193681D01*
X636996Y193568D01*
X636776Y193460D01*
X636552Y193358D01*
X636327Y193261D01*
X636099Y193170D01*
X635869Y193085D01*
X635637Y193005D01*
X635403Y192931D01*
X635167Y192862D01*
X634930Y192800D01*
X634691Y192743D01*
X634451Y192692D01*
X634210Y192647D01*
X633967Y192608D01*
X633724Y192575D01*
X633480Y192548D01*
X633236Y192527D01*
X632991Y192512D01*
X632745Y192503D01*
X632500Y192500D01*
X632255Y192503D01*
X632009Y192512D01*
X631764Y192527D01*
X631520Y192548D01*
X631276Y192575D01*
X631033Y192608D01*
X630790Y192647D01*
X630549Y192692D01*
X630309Y192743D01*
X630070Y192800D01*
X629833Y192862D01*
X629597Y192931D01*
X629363Y193005D01*
X629131Y193085D01*
X628901Y193170D01*
X628673Y193261D01*
X628448Y193358D01*
X628224Y193460D01*
X628004Y193568D01*
X627786Y193681D01*
X627571Y193799D01*
X627359Y193923D01*
X627150Y194051D01*
X626944Y194185D01*
X626742Y194324D01*
X626543Y194468D01*
X626348Y194617D01*
X626156Y194770D01*
X625968Y194928D01*
X625784Y195090D01*
X625605Y195258D01*
X625429Y195429D01*
X625258Y195605D01*
X625090Y195784D01*
X624928Y195968D01*
X624770Y196156D01*
X624617Y196348D01*
X624468Y196543D01*
X624324Y196742D01*
X624185Y196944D01*
X624051Y197150D01*
X623923Y197359D01*
X623799Y197571D01*
X623681Y197786D01*
X623568Y198004D01*
X623460Y198224D01*
X623358Y198448D01*
X623261Y198673D01*
X623170Y198901D01*
X623085Y199131D01*
X623005Y199363D01*
X622931Y199597D01*
X622862Y199833D01*
X622800Y200070D01*
X622743Y200309D01*
X622692Y200549D01*
X622647Y200790D01*
X622608Y201033D01*
X622575Y201276D01*
X622548Y201520D01*
X622527Y201764D01*
X622512Y202009D01*
X622503Y202255D01*
X622500Y202500D01*
X622500Y15000D02*
X622503Y15245D01*
X622512Y15491D01*
X622527Y15736D01*
X622548Y15980D01*
X622575Y16224D01*
X622608Y16467D01*
X622647Y16710D01*
X622692Y16951D01*
X622743Y17191D01*
X622800Y17430D01*
X622862Y17667D01*
X622931Y17903D01*
X623005Y18137D01*
X623085Y18369D01*
X623170Y18599D01*
X623261Y18827D01*
X623358Y19052D01*
X623460Y19276D01*
X623568Y19496D01*
X623681Y19714D01*
X623799Y19929D01*
X623923Y20141D01*
X624051Y20350D01*
X624185Y20556D01*
X624324Y20758D01*
X624468Y20957D01*
X624617Y21152D01*
X624770Y21344D01*
X624928Y21532D01*
X625090Y21716D01*
X625258Y21895D01*
X625429Y22071D01*
X625605Y22242D01*
X625784Y22410D01*
X625968Y22572D01*
X626156Y22730D01*
X626348Y22883D01*
X626543Y23032D01*
X626742Y23176D01*
X626944Y23315D01*
X627150Y23449D01*
X627359Y23577D01*
X627571Y23701D01*
X627786Y23819D01*
X628004Y23932D01*
X628224Y24040D01*
X628448Y24142D01*
X628673Y24239D01*
X628901Y24330D01*
X629131Y24415D01*
X629363Y24495D01*
X629597Y24569D01*
X629833Y24638D01*
X630070Y24700D01*
X630309Y24757D01*
X630549Y24808D01*
X630790Y24853D01*
X631033Y24892D01*
X631276Y24925D01*
X631520Y24952D01*
X631764Y24973D01*
X632009Y24988D01*
X632255Y24997D01*
X632500Y25000D01*
X632745Y24997D01*
X632991Y24988D01*
X633236Y24973D01*
X633480Y24952D01*
X633724Y24925D01*
X633967Y24892D01*
X634210Y24853D01*
X634451Y24808D01*
X634691Y24757D01*
X634930Y24700D01*
X635167Y24638D01*
X635403Y24569D01*
X635637Y24495D01*
X635869Y24415D01*
X636099Y24330D01*
X636327Y24239D01*
X636552Y24142D01*
X636776Y24040D01*
X636996Y23932D01*
X637214Y23819D01*
X637429Y23701D01*
X637641Y23577D01*
X637850Y23449D01*
X638056Y23315D01*
X638258Y23176D01*
X638457Y23032D01*
X638652Y22883D01*
X638844Y22730D01*
X639032Y22572D01*
X639216Y22410D01*
X639395Y22242D01*
X639571Y22071D01*
X639742Y21895D01*
X639910Y21716D01*
X640072Y21532D01*
X640230Y21344D01*
X640383Y21152D01*
X640532Y20957D01*
X640676Y20758D01*
X640815Y20556D01*
X640949Y20350D01*
X641077Y20141D01*
X641201Y19929D01*
X641319Y19714D01*
X641432Y19496D01*
X641540Y19276D01*
X641642Y19052D01*
X641739Y18827D01*
X641830Y18599D01*
X641915Y18369D01*
X641995Y18137D01*
X642069Y17903D01*
X642138Y17667D01*
X642200Y17430D01*
X642257Y17191D01*
X642308Y16951D01*
X642353Y16710D01*
X642392Y16467D01*
X642425Y16224D01*
X642452Y15980D01*
X642473Y15736D01*
X642488Y15491D01*
X642497Y15245D01*
X642500Y15000D01*
X642497Y14755D01*
X642488Y14509D01*
X642473Y14264D01*
X642452Y14020D01*
X642425Y13776D01*
X642392Y13533D01*
X642353Y13290D01*
X642308Y13049D01*
X642257Y12809D01*
X642200Y12570D01*
X642138Y12333D01*
X642069Y12097D01*
X641995Y11863D01*
X641915Y11631D01*
X641830Y11401D01*
X641739Y11173D01*
X641642Y10948D01*
X641540Y10724D01*
X641432Y10504D01*
X641319Y10286D01*
X641201Y10071D01*
X641077Y9859D01*
X640949Y9650D01*
X640815Y9444D01*
X640676Y9242D01*
X640532Y9043D01*
X640383Y8848D01*
X640230Y8656D01*
X640072Y8468D01*
X639910Y8284D01*
X639742Y8105D01*
X639571Y7929D01*
X639395Y7758D01*
X639216Y7590D01*
X639032Y7428D01*
X638844Y7270D01*
X638652Y7117D01*
X638457Y6968D01*
X638258Y6824D01*
X638056Y6685D01*
X637850Y6551D01*
X637641Y6423D01*
X637429Y6299D01*
X637214Y6181D01*
X636996Y6068D01*
X636776Y5960D01*
X636552Y5858D01*
X636327Y5761D01*
X636099Y5670D01*
X635869Y5585D01*
X635637Y5505D01*
X635403Y5431D01*
X635167Y5362D01*
X634930Y5300D01*
X634691Y5243D01*
X634451Y5192D01*
X634210Y5147D01*
X633967Y5108D01*
X633724Y5075D01*
X633480Y5048D01*
X633236Y5027D01*
X632991Y5012D01*
X632745Y5003D01*
X632500Y5000D01*
X632255Y5003D01*
X632009Y5012D01*
X631764Y5027D01*
X631520Y5048D01*
X631276Y5075D01*
X631033Y5108D01*
X630790Y5147D01*
X630549Y5192D01*
X630309Y5243D01*
X630070Y5300D01*
X629833Y5362D01*
X629597Y5431D01*
X629363Y5505D01*
X629131Y5585D01*
X628901Y5670D01*
X628673Y5761D01*
X628448Y5858D01*
X628224Y5960D01*
X628004Y6068D01*
X627786Y6181D01*
X627571Y6299D01*
X627359Y6423D01*
X627150Y6551D01*
X626944Y6685D01*
X626742Y6824D01*
X626543Y6968D01*
X626348Y7117D01*
X626156Y7270D01*
X625968Y7428D01*
X625784Y7590D01*
X625605Y7758D01*
X625429Y7929D01*
X625258Y8105D01*
X625090Y8284D01*
X624928Y8468D01*
X624770Y8656D01*
X624617Y8848D01*
X624468Y9043D01*
X624324Y9242D01*
X624185Y9444D01*
X624051Y9650D01*
X623923Y9859D01*
X623799Y10071D01*
X623681Y10286D01*
X623568Y10504D01*
X623460Y10724D01*
X623358Y10948D01*
X623261Y11173D01*
X623170Y11401D01*
X623085Y11631D01*
X623005Y11863D01*
X622931Y12097D01*
X622862Y12333D01*
X622800Y12570D01*
X622743Y12809D01*
X622692Y13049D01*
X622647Y13290D01*
X622608Y13533D01*
X622575Y13776D01*
X622548Y14020D01*
X622527Y14264D01*
X622512Y14509D01*
X622503Y14755D01*
X622500Y15000D01*
X7500Y15000D02*
X7503Y15245D01*
X7512Y15491D01*
X7527Y15736D01*
X7548Y15980D01*
X7575Y16224D01*
X7608Y16467D01*
X7647Y16710D01*
X7692Y16951D01*
X7743Y17191D01*
X7800Y17430D01*
X7862Y17667D01*
X7931Y17903D01*
X8005Y18137D01*
X8085Y18369D01*
X8170Y18599D01*
X8261Y18827D01*
X8358Y19052D01*
X8460Y19276D01*
X8568Y19496D01*
X8681Y19714D01*
X8799Y19929D01*
X8923Y20141D01*
X9051Y20350D01*
X9185Y20556D01*
X9324Y20758D01*
X9468Y20957D01*
X9617Y21152D01*
X9770Y21344D01*
X9928Y21532D01*
X10090Y21716D01*
X10258Y21895D01*
X10429Y22071D01*
X10605Y22242D01*
X10784Y22410D01*
X10968Y22572D01*
X11156Y22730D01*
X11348Y22883D01*
X11543Y23032D01*
X11742Y23176D01*
X11944Y23315D01*
X12150Y23449D01*
X12359Y23577D01*
X12571Y23701D01*
X12786Y23819D01*
X13004Y23932D01*
X13224Y24040D01*
X13448Y24142D01*
X13673Y24239D01*
X13901Y24330D01*
X14131Y24415D01*
X14363Y24495D01*
X14597Y24569D01*
X14833Y24638D01*
X15070Y24700D01*
X15309Y24757D01*
X15549Y24808D01*
X15790Y24853D01*
X16033Y24892D01*
X16276Y24925D01*
X16520Y24952D01*
X16764Y24973D01*
X17009Y24988D01*
X17255Y24997D01*
X17500Y25000D01*
X17745Y24997D01*
X17991Y24988D01*
X18236Y24973D01*
X18480Y24952D01*
X18724Y24925D01*
X18967Y24892D01*
X19210Y24853D01*
X19451Y24808D01*
X19691Y24757D01*
X19930Y24700D01*
X20167Y24638D01*
X20403Y24569D01*
X20637Y24495D01*
X20869Y24415D01*
X21099Y24330D01*
X21327Y24239D01*
X21552Y24142D01*
X21776Y24040D01*
X21996Y23932D01*
X22214Y23819D01*
X22429Y23701D01*
X22641Y23577D01*
X22850Y23449D01*
X23056Y23315D01*
X23258Y23176D01*
X23457Y23032D01*
X23652Y22883D01*
X23844Y22730D01*
X24032Y22572D01*
X24216Y22410D01*
X24395Y22242D01*
X24571Y22071D01*
X24742Y21895D01*
X24910Y21716D01*
X25072Y21532D01*
X25230Y21344D01*
X25383Y21152D01*
X25532Y20957D01*
X25676Y20758D01*
X25815Y20556D01*
X25949Y20350D01*
X26077Y20141D01*
X26201Y19929D01*
X26319Y19714D01*
X26432Y19496D01*
X26540Y19276D01*
X26642Y19052D01*
X26739Y18827D01*
X26830Y18599D01*
X26915Y18369D01*
X26995Y18137D01*
X27069Y17903D01*
X27138Y17667D01*
X27200Y17430D01*
X27257Y17191D01*
X27308Y16951D01*
X27353Y16710D01*
X27392Y16467D01*
X27425Y16224D01*
X27452Y15980D01*
X27473Y15736D01*
X27488Y15491D01*
X27497Y15245D01*
X27500Y15000D01*
X27497Y14755D01*
X27488Y14509D01*
X27473Y14264D01*
X27452Y14020D01*
X27425Y13776D01*
X27392Y13533D01*
X27353Y13290D01*
X27308Y13049D01*
X27257Y12809D01*
X27200Y12570D01*
X27138Y12333D01*
X27069Y12097D01*
X26995Y11863D01*
X26915Y11631D01*
X26830Y11401D01*
X26739Y11173D01*
X26642Y10948D01*
X26540Y10724D01*
X26432Y10504D01*
X26319Y10286D01*
X26201Y10071D01*
X26077Y9859D01*
X25949Y9650D01*
X25815Y9444D01*
X25676Y9242D01*
X25532Y9043D01*
X25383Y8848D01*
X25230Y8656D01*
X25072Y8468D01*
X24910Y8284D01*
X24742Y8105D01*
X24571Y7929D01*
X24395Y7758D01*
X24216Y7590D01*
X24032Y7428D01*
X23844Y7270D01*
X23652Y7117D01*
X23457Y6968D01*
X23258Y6824D01*
X23056Y6685D01*
X22850Y6551D01*
X22641Y6423D01*
X22429Y6299D01*
X22214Y6181D01*
X21996Y6068D01*
X21776Y5960D01*
X21552Y5858D01*
X21327Y5761D01*
X21099Y5670D01*
X20869Y5585D01*
X20637Y5505D01*
X20403Y5431D01*
X20167Y5362D01*
X19930Y5300D01*
X19691Y5243D01*
X19451Y5192D01*
X19210Y5147D01*
X18967Y5108D01*
X18724Y5075D01*
X18480Y5048D01*
X18236Y5027D01*
X17991Y5012D01*
X17745Y5003D01*
X17500Y5000D01*
X17255Y5003D01*
X17009Y5012D01*
X16764Y5027D01*
X16520Y5048D01*
X16276Y5075D01*
X16033Y5108D01*
X15790Y5147D01*
X15549Y5192D01*
X15309Y5243D01*
X15070Y5300D01*
X14833Y5362D01*
X14597Y5431D01*
X14363Y5505D01*
X14131Y5585D01*
X13901Y5670D01*
X13673Y5761D01*
X13448Y5858D01*
X13224Y5960D01*
X13004Y6068D01*
X12786Y6181D01*
X12571Y6299D01*
X12359Y6423D01*
X12150Y6551D01*
X11944Y6685D01*
X11742Y6824D01*
X11543Y6968D01*
X11348Y7117D01*
X11156Y7270D01*
X10968Y7428D01*
X10784Y7590D01*
X10605Y7758D01*
X10429Y7929D01*
X10258Y8105D01*
X10090Y8284D01*
X9928Y8468D01*
X9770Y8656D01*
X9617Y8848D01*
X9468Y9043D01*
X9324Y9242D01*
X9185Y9444D01*
X9051Y9650D01*
X8923Y9859D01*
X8799Y10071D01*
X8681Y10286D01*
X8568Y10504D01*
X8460Y10724D01*
X8358Y10948D01*
X8261Y11173D01*
X8170Y11401D01*
X8085Y11631D01*
X8005Y11863D01*
X7931Y12097D01*
X7862Y12333D01*
X7800Y12570D01*
X7743Y12809D01*
X7692Y13049D01*
X7647Y13290D01*
X7608Y13533D01*
X7575Y13776D01*
X7548Y14020D01*
X7527Y14264D01*
X7512Y14509D01*
X7503Y14755D01*
X7500Y15000D01*
X7500Y640000D02*
X7503Y640245D01*
X7512Y640491D01*
X7527Y640736D01*
X7548Y640980D01*
X7575Y641224D01*
X7608Y641467D01*
X7647Y641710D01*
X7692Y641951D01*
X7743Y642191D01*
X7800Y642430D01*
X7862Y642667D01*
X7931Y642903D01*
X8005Y643137D01*
X8085Y643369D01*
X8170Y643599D01*
X8261Y643827D01*
X8358Y644052D01*
X8460Y644276D01*
X8568Y644496D01*
X8681Y644714D01*
X8799Y644929D01*
X8923Y645141D01*
X9051Y645350D01*
X9185Y645556D01*
X9324Y645758D01*
X9468Y645957D01*
X9617Y646152D01*
X9770Y646344D01*
X9928Y646532D01*
X10090Y646716D01*
X10258Y646895D01*
X10429Y647071D01*
X10605Y647242D01*
X10784Y647410D01*
X10968Y647572D01*
X11156Y647730D01*
X11348Y647883D01*
X11543Y648032D01*
X11742Y648176D01*
X11944Y648315D01*
X12150Y648449D01*
X12359Y648577D01*
X12571Y648701D01*
X12786Y648819D01*
X13004Y648932D01*
X13224Y649040D01*
X13448Y649142D01*
X13673Y649239D01*
X13901Y649330D01*
X14131Y649415D01*
X14363Y649495D01*
X14597Y649569D01*
X14833Y649638D01*
X15070Y649700D01*
X15309Y649757D01*
X15549Y649808D01*
X15790Y649853D01*
X16033Y649892D01*
X16276Y649925D01*
X16520Y649952D01*
X16764Y649973D01*
X17009Y649988D01*
X17255Y649997D01*
X17500Y650000D01*
X17745Y649997D01*
X17991Y649988D01*
X18236Y649973D01*
X18480Y649952D01*
X18724Y649925D01*
X18967Y649892D01*
X19210Y649853D01*
X19451Y649808D01*
X19691Y649757D01*
X19930Y649700D01*
X20167Y649638D01*
X20403Y649569D01*
X20637Y649495D01*
X20869Y649415D01*
X21099Y649330D01*
X21327Y649239D01*
X21552Y649142D01*
X21776Y649040D01*
X21996Y648932D01*
X22214Y648819D01*
X22429Y648701D01*
X22641Y648577D01*
X22850Y648449D01*
X23056Y648315D01*
X23258Y648176D01*
X23457Y648032D01*
X23652Y647883D01*
X23844Y647730D01*
X24032Y647572D01*
X24216Y647410D01*
X24395Y647242D01*
X24571Y647071D01*
X24742Y646895D01*
X24910Y646716D01*
X25072Y646532D01*
X25230Y646344D01*
X25383Y646152D01*
X25532Y645957D01*
X25676Y645758D01*
X25815Y645556D01*
X25949Y645350D01*
X26077Y645141D01*
X26201Y644929D01*
X26319Y644714D01*
X26432Y644496D01*
X26540Y644276D01*
X26642Y644052D01*
X26739Y643827D01*
X26830Y643599D01*
X26915Y643369D01*
X26995Y643137D01*
X27069Y642903D01*
X27138Y642667D01*
X27200Y642430D01*
X27257Y642191D01*
X27308Y641951D01*
X27353Y641710D01*
X27392Y641467D01*
X27425Y641224D01*
X27452Y640980D01*
X27473Y640736D01*
X27488Y640491D01*
X27497Y640245D01*
X27500Y640000D01*
X27497Y639755D01*
X27488Y639509D01*
X27473Y639264D01*
X27452Y639020D01*
X27425Y638776D01*
X27392Y638533D01*
X27353Y638290D01*
X27308Y638049D01*
X27257Y637809D01*
X27200Y637570D01*
X27138Y637333D01*
X27069Y637097D01*
X26995Y636863D01*
X26915Y636631D01*
X26830Y636401D01*
X26739Y636173D01*
X26642Y635948D01*
X26540Y635724D01*
X26432Y635504D01*
X26319Y635286D01*
X26201Y635071D01*
X26077Y634859D01*
X25949Y634650D01*
X25815Y634444D01*
X25676Y634242D01*
X25532Y634043D01*
X25383Y633848D01*
X25230Y633656D01*
X25072Y633468D01*
X24910Y633284D01*
X24742Y633105D01*
X24571Y632929D01*
X24395Y632758D01*
X24216Y632590D01*
X24032Y632428D01*
X23844Y632270D01*
X23652Y632117D01*
X23457Y631968D01*
X23258Y631824D01*
X23056Y631685D01*
X22850Y631551D01*
X22641Y631423D01*
X22429Y631299D01*
X22214Y631181D01*
X21996Y631068D01*
X21776Y630960D01*
X21552Y630858D01*
X21327Y630761D01*
X21099Y630670D01*
X20869Y630585D01*
X20637Y630505D01*
X20403Y630431D01*
X20167Y630362D01*
X19930Y630300D01*
X19691Y630243D01*
X19451Y630192D01*
X19210Y630147D01*
X18967Y630108D01*
X18724Y630075D01*
X18480Y630048D01*
X18236Y630027D01*
X17991Y630012D01*
X17745Y630003D01*
X17500Y630000D01*
X17255Y630003D01*
X17009Y630012D01*
X16764Y630027D01*
X16520Y630048D01*
X16276Y630075D01*
X16033Y630108D01*
X15790Y630147D01*
X15549Y630192D01*
X15309Y630243D01*
X15070Y630300D01*
X14833Y630362D01*
X14597Y630431D01*
X14363Y630505D01*
X14131Y630585D01*
X13901Y630670D01*
X13673Y630761D01*
X13448Y630858D01*
X13224Y630960D01*
X13004Y631068D01*
X12786Y631181D01*
X12571Y631299D01*
X12359Y631423D01*
X12150Y631551D01*
X11944Y631685D01*
X11742Y631824D01*
X11543Y631968D01*
X11348Y632117D01*
X11156Y632270D01*
X10968Y632428D01*
X10784Y632590D01*
X10605Y632758D01*
X10429Y632929D01*
X10258Y633105D01*
X10090Y633284D01*
X9928Y633468D01*
X9770Y633656D01*
X9617Y633848D01*
X9468Y634043D01*
X9324Y634242D01*
X9185Y634444D01*
X9051Y634650D01*
X8923Y634859D01*
X8799Y635071D01*
X8681Y635286D01*
X8568Y635504D01*
X8460Y635724D01*
X8358Y635948D01*
X8261Y636173D01*
X8170Y636401D01*
X8085Y636631D01*
X8005Y636863D01*
X7931Y637097D01*
X7862Y637333D01*
X7800Y637570D01*
X7743Y637809D01*
X7692Y638049D01*
X7647Y638290D01*
X7608Y638533D01*
X7575Y638776D01*
X7548Y639020D01*
X7527Y639264D01*
X7512Y639509D01*
X7503Y639755D01*
X7500Y640000D01*
X622500Y640000D02*
X622503Y640245D01*
X622512Y640491D01*
X622527Y640736D01*
X622548Y640980D01*
X622575Y641224D01*
X622608Y641467D01*
X622647Y641710D01*
X622692Y641951D01*
X622743Y642191D01*
X622800Y642430D01*
X622862Y642667D01*
X622931Y642903D01*
X623005Y643137D01*
X623085Y643369D01*
X623170Y643599D01*
X623261Y643827D01*
X623358Y644052D01*
X623460Y644276D01*
X623568Y644496D01*
X623681Y644714D01*
X623799Y644929D01*
X623923Y645141D01*
X624051Y645350D01*
X624185Y645556D01*
X624324Y645758D01*
X624468Y645957D01*
X624617Y646152D01*
X624770Y646344D01*
X624928Y646532D01*
X625090Y646716D01*
X625258Y646895D01*
X625429Y647071D01*
X625605Y647242D01*
X625784Y647410D01*
X625968Y647572D01*
X626156Y647730D01*
X626348Y647883D01*
X626543Y648032D01*
X626742Y648176D01*
X626944Y648315D01*
X627150Y648449D01*
X627359Y648577D01*
X627571Y648701D01*
X627786Y648819D01*
X628004Y648932D01*
X628224Y649040D01*
X628448Y649142D01*
X628673Y649239D01*
X628901Y649330D01*
X629131Y649415D01*
X629363Y649495D01*
X629597Y649569D01*
X629833Y649638D01*
X630070Y649700D01*
X630309Y649757D01*
X630549Y649808D01*
X630790Y649853D01*
X631033Y649892D01*
X631276Y649925D01*
X631520Y649952D01*
X631764Y649973D01*
X632009Y649988D01*
X632255Y649997D01*
X632500Y650000D01*
X632745Y649997D01*
X632991Y649988D01*
X633236Y649973D01*
X633480Y649952D01*
X633724Y649925D01*
X633967Y649892D01*
X634210Y649853D01*
X634451Y649808D01*
X634691Y649757D01*
X634930Y649700D01*
X635167Y649638D01*
X635403Y649569D01*
X635637Y649495D01*
X635869Y649415D01*
X636099Y649330D01*
X636327Y649239D01*
X636552Y649142D01*
X636776Y649040D01*
X636996Y648932D01*
X637214Y648819D01*
X637429Y648701D01*
X637641Y648577D01*
X637850Y648449D01*
X638056Y648315D01*
X638258Y648176D01*
X638457Y648032D01*
X638652Y647883D01*
X638844Y647730D01*
X639032Y647572D01*
X639216Y647410D01*
X639395Y647242D01*
X639571Y647071D01*
X639742Y646895D01*
X639910Y646716D01*
X640072Y646532D01*
X640230Y646344D01*
X640383Y646152D01*
X640532Y645957D01*
X640676Y645758D01*
X640815Y645556D01*
X640949Y645350D01*
X641077Y645141D01*
X641201Y644929D01*
X641319Y644714D01*
X641432Y644496D01*
X641540Y644276D01*
X641642Y644052D01*
X641739Y643827D01*
X641830Y643599D01*
X641915Y643369D01*
X641995Y643137D01*
X642069Y642903D01*
X642138Y642667D01*
X642200Y642430D01*
X642257Y642191D01*
X642308Y641951D01*
X642353Y641710D01*
X642392Y641467D01*
X642425Y641224D01*
X642452Y640980D01*
X642473Y640736D01*
X642488Y640491D01*
X642497Y640245D01*
X642500Y640000D01*
X642497Y639755D01*
X642488Y639509D01*
X642473Y639264D01*
X642452Y639020D01*
X642425Y638776D01*
X642392Y638533D01*
X642353Y638290D01*
X642308Y638049D01*
X642257Y637809D01*
X642200Y637570D01*
X642138Y637333D01*
X642069Y637097D01*
X641995Y636863D01*
X641915Y636631D01*
X641830Y636401D01*
X641739Y636173D01*
X641642Y635948D01*
X641540Y635724D01*
X641432Y635504D01*
X641319Y635286D01*
X641201Y635071D01*
X641077Y634859D01*
X640949Y634650D01*
X640815Y634444D01*
X640676Y634242D01*
X640532Y634043D01*
X640383Y633848D01*
X640230Y633656D01*
X640072Y633468D01*
X639910Y633284D01*
X639742Y633105D01*
X639571Y632929D01*
X639395Y632758D01*
X639216Y632590D01*
X639032Y632428D01*
X638844Y632270D01*
X638652Y632117D01*
X638457Y631968D01*
X638258Y631824D01*
X638056Y631685D01*
X637850Y631551D01*
X637641Y631423D01*
X637429Y631299D01*
X637214Y631181D01*
X636996Y631068D01*
X636776Y630960D01*
X636552Y630858D01*
X636327Y630761D01*
X636099Y630670D01*
X635869Y630585D01*
X635637Y630505D01*
X635403Y630431D01*
X635167Y630362D01*
X634930Y630300D01*
X634691Y630243D01*
X634451Y630192D01*
X634210Y630147D01*
X633967Y630108D01*
X633724Y630075D01*
X633480Y630048D01*
X633236Y630027D01*
X632991Y630012D01*
X632745Y630003D01*
X632500Y630000D01*
X632255Y630003D01*
X632009Y630012D01*
X631764Y630027D01*
X631520Y630048D01*
X631276Y630075D01*
X631033Y630108D01*
X630790Y630147D01*
X630549Y630192D01*
X630309Y630243D01*
X630070Y630300D01*
X629833Y630362D01*
X629597Y630431D01*
X629363Y630505D01*
X629131Y630585D01*
X628901Y630670D01*
X628673Y630761D01*
X628448Y630858D01*
X628224Y630960D01*
X628004Y631068D01*
X627786Y631181D01*
X627571Y631299D01*
X627359Y631423D01*
X627150Y631551D01*
X626944Y631685D01*
X626742Y631824D01*
X626543Y631968D01*
X626348Y632117D01*
X626156Y632270D01*
X625968Y632428D01*
X625784Y632590D01*
X625605Y632758D01*
X625429Y632929D01*
X625258Y633105D01*
X625090Y633284D01*
X624928Y633468D01*
X624770Y633656D01*
X624617Y633848D01*
X624468Y634043D01*
X624324Y634242D01*
X624185Y634444D01*
X624051Y634650D01*
X623923Y634859D01*
X623799Y635071D01*
X623681Y635286D01*
X623568Y635504D01*
X623460Y635724D01*
X623358Y635948D01*
X623261Y636173D01*
X623170Y636401D01*
X623085Y636631D01*
X623005Y636863D01*
X622931Y637097D01*
X622862Y637333D01*
X622800Y637570D01*
X622743Y637809D01*
X622692Y638049D01*
X622647Y638290D01*
X622608Y638533D01*
X622575Y638776D01*
X622548Y639020D01*
X622527Y639264D01*
X622512Y639509D01*
X622503Y639755D01*
X622500Y640000D01*
X622500Y452500D02*
X622503Y452745D01*
X622512Y452991D01*
X622527Y453236D01*
X622548Y453480D01*
X622575Y453724D01*
X622608Y453967D01*
X622647Y454210D01*
X622692Y454451D01*
X622743Y454691D01*
X622800Y454930D01*
X622862Y455167D01*
X622931Y455403D01*
X623005Y455637D01*
X623085Y455869D01*
X623170Y456099D01*
X623261Y456327D01*
X623358Y456552D01*
X623460Y456776D01*
X623568Y456996D01*
X623681Y457214D01*
X623799Y457429D01*
X623923Y457641D01*
X624051Y457850D01*
X624185Y458056D01*
X624324Y458258D01*
X624468Y458457D01*
X624617Y458652D01*
X624770Y458844D01*
X624928Y459032D01*
X625090Y459216D01*
X625258Y459395D01*
X625429Y459571D01*
X625605Y459742D01*
X625784Y459910D01*
X625968Y460072D01*
X626156Y460230D01*
X626348Y460383D01*
X626543Y460532D01*
X626742Y460676D01*
X626944Y460815D01*
X627150Y460949D01*
X627359Y461077D01*
X627571Y461201D01*
X627786Y461319D01*
X628004Y461432D01*
X628224Y461540D01*
X628448Y461642D01*
X628673Y461739D01*
X628901Y461830D01*
X629131Y461915D01*
X629363Y461995D01*
X629597Y462069D01*
X629833Y462138D01*
X630070Y462200D01*
X630309Y462257D01*
X630549Y462308D01*
X630790Y462353D01*
X631033Y462392D01*
X631276Y462425D01*
X631520Y462452D01*
X631764Y462473D01*
X632009Y462488D01*
X632255Y462497D01*
X632500Y462500D01*
X632745Y462497D01*
X632991Y462488D01*
X633236Y462473D01*
X633480Y462452D01*
X633724Y462425D01*
X633967Y462392D01*
X634210Y462353D01*
X634451Y462308D01*
X634691Y462257D01*
X634930Y462200D01*
X635167Y462138D01*
X635403Y462069D01*
X635637Y461995D01*
X635869Y461915D01*
X636099Y461830D01*
X636327Y461739D01*
X636552Y461642D01*
X636776Y461540D01*
X636996Y461432D01*
X637214Y461319D01*
X637429Y461201D01*
X637641Y461077D01*
X637850Y460949D01*
X638056Y460815D01*
X638258Y460676D01*
X638457Y460532D01*
X638652Y460383D01*
X638844Y460230D01*
X639032Y460072D01*
X639216Y459910D01*
X639395Y459742D01*
X639571Y459571D01*
X639742Y459395D01*
X639910Y459216D01*
X640072Y459032D01*
X640230Y458844D01*
X640383Y458652D01*
X640532Y458457D01*
X640676Y458258D01*
X640815Y458056D01*
X640949Y457850D01*
X641077Y457641D01*
X641201Y457429D01*
X641319Y457214D01*
X641432Y456996D01*
X641540Y456776D01*
X641642Y456552D01*
X641739Y456327D01*
X641830Y456099D01*
X641915Y455869D01*
X641995Y455637D01*
X642069Y455403D01*
X642138Y455167D01*
X642200Y454930D01*
X642257Y454691D01*
X642308Y454451D01*
X642353Y454210D01*
X642392Y453967D01*
X642425Y453724D01*
X642452Y453480D01*
X642473Y453236D01*
X642488Y452991D01*
X642497Y452745D01*
X642500Y452500D01*
X642497Y452255D01*
X642488Y452009D01*
X642473Y451764D01*
X642452Y451520D01*
X642425Y451276D01*
X642392Y451033D01*
X642353Y450790D01*
X642308Y450549D01*
X642257Y450309D01*
X642200Y450070D01*
X642138Y449833D01*
X642069Y449597D01*
X641995Y449363D01*
X641915Y449131D01*
X641830Y448901D01*
X641739Y448673D01*
X641642Y448448D01*
X641540Y448224D01*
X641432Y448004D01*
X641319Y447786D01*
X641201Y447571D01*
X641077Y447359D01*
X640949Y447150D01*
X640815Y446944D01*
X640676Y446742D01*
X640532Y446543D01*
X640383Y446348D01*
X640230Y446156D01*
X640072Y445968D01*
X639910Y445784D01*
X639742Y445605D01*
X639571Y445429D01*
X639395Y445258D01*
X639216Y445090D01*
X639032Y444928D01*
X638844Y444770D01*
X638652Y444617D01*
X638457Y444468D01*
X638258Y444324D01*
X638056Y444185D01*
X637850Y444051D01*
X637641Y443923D01*
X637429Y443799D01*
X637214Y443681D01*
X636996Y443568D01*
X636776Y443460D01*
X636552Y443358D01*
X636327Y443261D01*
X636099Y443170D01*
X635869Y443085D01*
X635637Y443005D01*
X635403Y442931D01*
X635167Y442862D01*
X634930Y442800D01*
X634691Y442743D01*
X634451Y442692D01*
X634210Y442647D01*
X633967Y442608D01*
X633724Y442575D01*
X633480Y442548D01*
X633236Y442527D01*
X632991Y442512D01*
X632745Y442503D01*
X632500Y442500D01*
X632255Y442503D01*
X632009Y442512D01*
X631764Y442527D01*
X631520Y442548D01*
X631276Y442575D01*
X631033Y442608D01*
X630790Y442647D01*
X630549Y442692D01*
X630309Y442743D01*
X630070Y442800D01*
X629833Y442862D01*
X629597Y442931D01*
X629363Y443005D01*
X629131Y443085D01*
X628901Y443170D01*
X628673Y443261D01*
X628448Y443358D01*
X628224Y443460D01*
X628004Y443568D01*
X627786Y443681D01*
X627571Y443799D01*
X627359Y443923D01*
X627150Y444051D01*
X626944Y444185D01*
X626742Y444324D01*
X626543Y444468D01*
X626348Y444617D01*
X626156Y444770D01*
X625968Y444928D01*
X625784Y445090D01*
X625605Y445258D01*
X625429Y445429D01*
X625258Y445605D01*
X625090Y445784D01*
X624928Y445968D01*
X624770Y446156D01*
X624617Y446348D01*
X624468Y446543D01*
X624324Y446742D01*
X624185Y446944D01*
X624051Y447150D01*
X623923Y447359D01*
X623799Y447571D01*
X623681Y447786D01*
X623568Y448004D01*
X623460Y448224D01*
X623358Y448448D01*
X623261Y448673D01*
X623170Y448901D01*
X623085Y449131D01*
X623005Y449363D01*
X622931Y449597D01*
X622862Y449833D01*
X622800Y450070D01*
X622743Y450309D01*
X622692Y450549D01*
X622647Y450790D01*
X622608Y451033D01*
X622575Y451276D01*
X622548Y451520D01*
X622527Y451764D01*
X622512Y452009D01*
X622503Y452255D01*
X622500Y452500D01*
X7500Y452500D02*
X7503Y452745D01*
X7512Y452991D01*
X7527Y453236D01*
X7548Y453480D01*
X7575Y453724D01*
X7608Y453967D01*
X7647Y454210D01*
X7692Y454451D01*
X7743Y454691D01*
X7800Y454930D01*
X7862Y455167D01*
X7931Y455403D01*
X8005Y455637D01*
X8085Y455869D01*
X8170Y456099D01*
X8261Y456327D01*
X8358Y456552D01*
X8460Y456776D01*
X8568Y456996D01*
X8681Y457214D01*
X8799Y457429D01*
X8923Y457641D01*
X9051Y457850D01*
X9185Y458056D01*
X9324Y458258D01*
X9468Y458457D01*
X9617Y458652D01*
X9770Y458844D01*
X9928Y459032D01*
X10090Y459216D01*
X10258Y459395D01*
X10429Y459571D01*
X10605Y459742D01*
X10784Y459910D01*
X10968Y460072D01*
X11156Y460230D01*
X11348Y460383D01*
X11543Y460532D01*
X11742Y460676D01*
X11944Y460815D01*
X12150Y460949D01*
X12359Y461077D01*
X12571Y461201D01*
X12786Y461319D01*
X13004Y461432D01*
X13224Y461540D01*
X13448Y461642D01*
X13673Y461739D01*
X13901Y461830D01*
X14131Y461915D01*
X14363Y461995D01*
X14597Y462069D01*
X14833Y462138D01*
X15070Y462200D01*
X15309Y462257D01*
X15549Y462308D01*
X15790Y462353D01*
X16033Y462392D01*
X16276Y462425D01*
X16520Y462452D01*
X16764Y462473D01*
X17009Y462488D01*
X17255Y462497D01*
X17500Y462500D01*
X17745Y462497D01*
X17991Y462488D01*
X18236Y462473D01*
X18480Y462452D01*
X18724Y462425D01*
X18967Y462392D01*
X19210Y462353D01*
X19451Y462308D01*
X19691Y462257D01*
X19930Y462200D01*
X20167Y462138D01*
X20403Y462069D01*
X20637Y461995D01*
X20869Y461915D01*
X21099Y461830D01*
X21327Y461739D01*
X21552Y461642D01*
X21776Y461540D01*
X21996Y461432D01*
X22214Y461319D01*
X22429Y461201D01*
X22641Y461077D01*
X22850Y460949D01*
X23056Y460815D01*
X23258Y460676D01*
X23457Y460532D01*
X23652Y460383D01*
X23844Y460230D01*
X24032Y460072D01*
X24216Y459910D01*
X24395Y459742D01*
X24571Y459571D01*
X24742Y459395D01*
X24910Y459216D01*
X25072Y459032D01*
X25230Y458844D01*
X25383Y458652D01*
X25532Y458457D01*
X25676Y458258D01*
X25815Y458056D01*
X25949Y457850D01*
X26077Y457641D01*
X26201Y457429D01*
X26319Y457214D01*
X26432Y456996D01*
X26540Y456776D01*
X26642Y456552D01*
X26739Y456327D01*
X26830Y456099D01*
X26915Y455869D01*
X26995Y455637D01*
X27069Y455403D01*
X27138Y455167D01*
X27200Y454930D01*
X27257Y454691D01*
X27308Y454451D01*
X27353Y454210D01*
X27392Y453967D01*
X27425Y453724D01*
X27452Y453480D01*
X27473Y453236D01*
X27488Y452991D01*
X27497Y452745D01*
X27500Y452500D01*
X27497Y452255D01*
X27488Y452009D01*
X27473Y451764D01*
X27452Y451520D01*
X27425Y451276D01*
X27392Y451033D01*
X27353Y450790D01*
X27308Y450549D01*
X27257Y450309D01*
X27200Y450070D01*
X27138Y449833D01*
X27069Y449597D01*
X26995Y449363D01*
X26915Y449131D01*
X26830Y448901D01*
X26739Y448673D01*
X26642Y448448D01*
X26540Y448224D01*
X26432Y448004D01*
X26319Y447786D01*
X26201Y447571D01*
X26077Y447359D01*
X25949Y447150D01*
X25815Y446944D01*
X25676Y446742D01*
X25532Y446543D01*
X25383Y446348D01*
X25230Y446156D01*
X25072Y445968D01*
X24910Y445784D01*
X24742Y445605D01*
X24571Y445429D01*
X24395Y445258D01*
X24216Y445090D01*
X24032Y444928D01*
X23844Y444770D01*
X23652Y444617D01*
X23457Y444468D01*
X23258Y444324D01*
X23056Y444185D01*
X22850Y444051D01*
X22641Y443923D01*
X22429Y443799D01*
X22214Y443681D01*
X21996Y443568D01*
X21776Y443460D01*
X21552Y443358D01*
X21327Y443261D01*
X21099Y443170D01*
X20869Y443085D01*
X20637Y443005D01*
X20403Y442931D01*
X20167Y442862D01*
X19930Y442800D01*
X19691Y442743D01*
X19451Y442692D01*
X19210Y442647D01*
X18967Y442608D01*
X18724Y442575D01*
X18480Y442548D01*
X18236Y442527D01*
X17991Y442512D01*
X17745Y442503D01*
X17500Y442500D01*
X17255Y442503D01*
X17009Y442512D01*
X16764Y442527D01*
X16520Y442548D01*
X16276Y442575D01*
X16033Y442608D01*
X15790Y442647D01*
X15549Y442692D01*
X15309Y442743D01*
X15070Y442800D01*
X14833Y442862D01*
X14597Y442931D01*
X14363Y443005D01*
X14131Y443085D01*
X13901Y443170D01*
X13673Y443261D01*
X13448Y443358D01*
X13224Y443460D01*
X13004Y443568D01*
X12786Y443681D01*
X12571Y443799D01*
X12359Y443923D01*
X12150Y444051D01*
X11944Y444185D01*
X11742Y444324D01*
X11543Y444468D01*
X11348Y444617D01*
X11156Y444770D01*
X10968Y444928D01*
X10784Y445090D01*
X10605Y445258D01*
X10429Y445429D01*
X10258Y445605D01*
X10090Y445784D01*
X9928Y445968D01*
X9770Y446156D01*
X9617Y446348D01*
X9468Y446543D01*
X9324Y446742D01*
X9185Y446944D01*
X9051Y447150D01*
X8923Y447359D01*
X8799Y447571D01*
X8681Y447786D01*
X8568Y448004D01*
X8460Y448224D01*
X8358Y448448D01*
X8261Y448673D01*
X8170Y448901D01*
X8085Y449131D01*
X8005Y449363D01*
X7931Y449597D01*
X7862Y449833D01*
X7800Y450070D01*
X7743Y450309D01*
X7692Y450549D01*
X7647Y450790D01*
X7608Y451033D01*
X7575Y451276D01*
X7548Y451520D01*
X7527Y451764D01*
X7512Y452009D01*
X7503Y452255D01*
X7500Y452500D01*
X0Y217500D02*
X0Y0D01*
X0Y217500D02*
X0Y437500D01*
X0Y655000D01*
X0Y875000D01*
X652500Y875000D01*
X792500Y875000D01*
X792500Y655000D01*
X792500Y437500D01*
X792500Y217500D01*
X792500Y0D01*
X652500Y0D01*
X0Y0D01*
D11*
X0Y217500D02*
X792500Y217500D01*
X792500Y437500D02*
X0Y437500D01*
X0Y655000D02*
X792500Y655000D01*
D10*
X622500Y420000D02*
X622503Y420245D01*
X622512Y420491D01*
X622527Y420736D01*
X622548Y420980D01*
X622575Y421224D01*
X622608Y421467D01*
X622647Y421710D01*
X622692Y421951D01*
X622743Y422191D01*
X622800Y422430D01*
X622862Y422667D01*
X622931Y422903D01*
X623005Y423137D01*
X623085Y423369D01*
X623170Y423599D01*
X623261Y423827D01*
X623358Y424052D01*
X623460Y424276D01*
X623568Y424496D01*
X623681Y424714D01*
X623799Y424929D01*
X623923Y425141D01*
X624051Y425350D01*
X624185Y425556D01*
X624324Y425758D01*
X624468Y425957D01*
X624617Y426152D01*
X624770Y426344D01*
X624928Y426532D01*
X625090Y426716D01*
X625258Y426895D01*
X625429Y427071D01*
X625605Y427242D01*
X625784Y427410D01*
X625968Y427572D01*
X626156Y427730D01*
X626348Y427883D01*
X626543Y428032D01*
X626742Y428176D01*
X626944Y428315D01*
X627150Y428449D01*
X627359Y428577D01*
X627571Y428701D01*
X627786Y428819D01*
X628004Y428932D01*
X628224Y429040D01*
X628448Y429142D01*
X628673Y429239D01*
X628901Y429330D01*
X629131Y429415D01*
X629363Y429495D01*
X629597Y429569D01*
X629833Y429638D01*
X630070Y429700D01*
X630309Y429757D01*
X630549Y429808D01*
X630790Y429853D01*
X631033Y429892D01*
X631276Y429925D01*
X631520Y429952D01*
X631764Y429973D01*
X632009Y429988D01*
X632255Y429997D01*
X632500Y430000D01*
X632745Y429997D01*
X632991Y429988D01*
X633236Y429973D01*
X633480Y429952D01*
X633724Y429925D01*
X633967Y429892D01*
X634210Y429853D01*
X634451Y429808D01*
X634691Y429757D01*
X634930Y429700D01*
X635167Y429638D01*
X635403Y429569D01*
X635637Y429495D01*
X635869Y429415D01*
X636099Y429330D01*
X636327Y429239D01*
X636552Y429142D01*
X636776Y429040D01*
X636996Y428932D01*
X637214Y428819D01*
X637429Y428701D01*
X637641Y428577D01*
X637850Y428449D01*
X638056Y428315D01*
X638258Y428176D01*
X638457Y428032D01*
X638652Y427883D01*
X638844Y427730D01*
X639032Y427572D01*
X639216Y427410D01*
X639395Y427242D01*
X639571Y427071D01*
X639742Y426895D01*
X639910Y426716D01*
X640072Y426532D01*
X640230Y426344D01*
X640383Y426152D01*
X640532Y425957D01*
X640676Y425758D01*
X640815Y425556D01*
X640949Y425350D01*
X641077Y425141D01*
X641201Y424929D01*
X641319Y424714D01*
X641432Y424496D01*
X641540Y424276D01*
X641642Y424052D01*
X641739Y423827D01*
X641830Y423599D01*
X641915Y423369D01*
X641995Y423137D01*
X642069Y422903D01*
X642138Y422667D01*
X642200Y422430D01*
X642257Y422191D01*
X642308Y421951D01*
X642353Y421710D01*
X642392Y421467D01*
X642425Y421224D01*
X642452Y420980D01*
X642473Y420736D01*
X642488Y420491D01*
X642497Y420245D01*
X642500Y420000D01*
X642497Y419755D01*
X642488Y419509D01*
X642473Y419264D01*
X642452Y419020D01*
X642425Y418776D01*
X642392Y418533D01*
X642353Y418290D01*
X642308Y418049D01*
X642257Y417809D01*
X642200Y417570D01*
X642138Y417333D01*
X642069Y417097D01*
X641995Y416863D01*
X641915Y416631D01*
X641830Y416401D01*
X641739Y416173D01*
X641642Y415948D01*
X641540Y415724D01*
X641432Y415504D01*
X641319Y415286D01*
X641201Y415071D01*
X641077Y414859D01*
X640949Y414650D01*
X640815Y414444D01*
X640676Y414242D01*
X640532Y414043D01*
X640383Y413848D01*
X640230Y413656D01*
X640072Y413468D01*
X639910Y413284D01*
X639742Y413105D01*
X639571Y412929D01*
X639395Y412758D01*
X639216Y412590D01*
X639032Y412428D01*
X638844Y412270D01*
X638652Y412117D01*
X638457Y411968D01*
X638258Y411824D01*
X638056Y411685D01*
X637850Y411551D01*
X637641Y411423D01*
X637429Y411299D01*
X637214Y411181D01*
X636996Y411068D01*
X636776Y410960D01*
X636552Y410858D01*
X636327Y410761D01*
X636099Y410670D01*
X635869Y410585D01*
X635637Y410505D01*
X635403Y410431D01*
X635167Y410362D01*
X634930Y410300D01*
X634691Y410243D01*
X634451Y410192D01*
X634210Y410147D01*
X633967Y410108D01*
X633724Y410075D01*
X633480Y410048D01*
X633236Y410027D01*
X632991Y410012D01*
X632745Y410003D01*
X632500Y410000D01*
X632255Y410003D01*
X632009Y410012D01*
X631764Y410027D01*
X631520Y410048D01*
X631276Y410075D01*
X631033Y410108D01*
X630790Y410147D01*
X630549Y410192D01*
X630309Y410243D01*
X630070Y410300D01*
X629833Y410362D01*
X629597Y410431D01*
X629363Y410505D01*
X629131Y410585D01*
X628901Y410670D01*
X628673Y410761D01*
X628448Y410858D01*
X628224Y410960D01*
X628004Y411068D01*
X627786Y411181D01*
X627571Y411299D01*
X627359Y411423D01*
X627150Y411551D01*
X626944Y411685D01*
X626742Y411824D01*
X626543Y411968D01*
X626348Y412117D01*
X626156Y412270D01*
X625968Y412428D01*
X625784Y412590D01*
X625605Y412758D01*
X625429Y412929D01*
X625258Y413105D01*
X625090Y413284D01*
X624928Y413468D01*
X624770Y413656D01*
X624617Y413848D01*
X624468Y414043D01*
X624324Y414242D01*
X624185Y414444D01*
X624051Y414650D01*
X623923Y414859D01*
X623799Y415071D01*
X623681Y415286D01*
X623568Y415504D01*
X623460Y415724D01*
X623358Y415948D01*
X623261Y416173D01*
X623170Y416401D01*
X623085Y416631D01*
X623005Y416863D01*
X622931Y417097D01*
X622862Y417333D01*
X622800Y417570D01*
X622743Y417809D01*
X622692Y418049D01*
X622647Y418290D01*
X622608Y418533D01*
X622575Y418776D01*
X622548Y419020D01*
X622527Y419264D01*
X622512Y419509D01*
X622503Y419755D01*
X622500Y420000D01*
X620000Y860000D02*
X620003Y860245D01*
X620012Y860491D01*
X620027Y860736D01*
X620048Y860980D01*
X620075Y861224D01*
X620108Y861467D01*
X620147Y861710D01*
X620192Y861951D01*
X620243Y862191D01*
X620300Y862430D01*
X620362Y862667D01*
X620431Y862903D01*
X620505Y863137D01*
X620585Y863369D01*
X620670Y863599D01*
X620761Y863827D01*
X620858Y864052D01*
X620960Y864276D01*
X621068Y864496D01*
X621181Y864714D01*
X621299Y864929D01*
X621423Y865141D01*
X621551Y865350D01*
X621685Y865556D01*
X621824Y865758D01*
X621968Y865957D01*
X622117Y866152D01*
X622270Y866344D01*
X622428Y866532D01*
X622590Y866716D01*
X622758Y866895D01*
X622929Y867071D01*
X623105Y867242D01*
X623284Y867410D01*
X623468Y867572D01*
X623656Y867730D01*
X623848Y867883D01*
X624043Y868032D01*
X624242Y868176D01*
X624444Y868315D01*
X624650Y868449D01*
X624859Y868577D01*
X625071Y868701D01*
X625286Y868819D01*
X625504Y868932D01*
X625724Y869040D01*
X625948Y869142D01*
X626173Y869239D01*
X626401Y869330D01*
X626631Y869415D01*
X626863Y869495D01*
X627097Y869569D01*
X627333Y869638D01*
X627570Y869700D01*
X627809Y869757D01*
X628049Y869808D01*
X628290Y869853D01*
X628533Y869892D01*
X628776Y869925D01*
X629020Y869952D01*
X629264Y869973D01*
X629509Y869988D01*
X629755Y869997D01*
X630000Y870000D01*
X630245Y869997D01*
X630491Y869988D01*
X630736Y869973D01*
X630980Y869952D01*
X631224Y869925D01*
X631467Y869892D01*
X631710Y869853D01*
X631951Y869808D01*
X632191Y869757D01*
X632430Y869700D01*
X632667Y869638D01*
X632903Y869569D01*
X633137Y869495D01*
X633369Y869415D01*
X633599Y869330D01*
X633827Y869239D01*
X634052Y869142D01*
X634276Y869040D01*
X634496Y868932D01*
X634714Y868819D01*
X634929Y868701D01*
X635141Y868577D01*
X635350Y868449D01*
X635556Y868315D01*
X635758Y868176D01*
X635957Y868032D01*
X636152Y867883D01*
X636344Y867730D01*
X636532Y867572D01*
X636716Y867410D01*
X636895Y867242D01*
X637071Y867071D01*
X637242Y866895D01*
X637410Y866716D01*
X637572Y866532D01*
X637730Y866344D01*
X637883Y866152D01*
X638032Y865957D01*
X638176Y865758D01*
X638315Y865556D01*
X638449Y865350D01*
X638577Y865141D01*
X638701Y864929D01*
X638819Y864714D01*
X638932Y864496D01*
X639040Y864276D01*
X639142Y864052D01*
X639239Y863827D01*
X639330Y863599D01*
X639415Y863369D01*
X639495Y863137D01*
X639569Y862903D01*
X639638Y862667D01*
X639700Y862430D01*
X639757Y862191D01*
X639808Y861951D01*
X639853Y861710D01*
X639892Y861467D01*
X639925Y861224D01*
X639952Y860980D01*
X639973Y860736D01*
X639988Y860491D01*
X639997Y860245D01*
X640000Y860000D01*
X639997Y859755D01*
X639988Y859509D01*
X639973Y859264D01*
X639952Y859020D01*
X639925Y858776D01*
X639892Y858533D01*
X639853Y858290D01*
X639808Y858049D01*
X639757Y857809D01*
X639700Y857570D01*
X639638Y857333D01*
X639569Y857097D01*
X639495Y856863D01*
X639415Y856631D01*
X639330Y856401D01*
X639239Y856173D01*
X639142Y855948D01*
X639040Y855724D01*
X638932Y855504D01*
X638819Y855286D01*
X638701Y855071D01*
X638577Y854859D01*
X638449Y854650D01*
X638315Y854444D01*
X638176Y854242D01*
X638032Y854043D01*
X637883Y853848D01*
X637730Y853656D01*
X637572Y853468D01*
X637410Y853284D01*
X637242Y853105D01*
X637071Y852929D01*
X636895Y852758D01*
X636716Y852590D01*
X636532Y852428D01*
X636344Y852270D01*
X636152Y852117D01*
X635957Y851968D01*
X635758Y851824D01*
X635556Y851685D01*
X635350Y851551D01*
X635141Y851423D01*
X634929Y851299D01*
X634714Y851181D01*
X634496Y851068D01*
X634276Y850960D01*
X634052Y850858D01*
X633827Y850761D01*
X633599Y850670D01*
X633369Y850585D01*
X633137Y850505D01*
X632903Y850431D01*
X632667Y850362D01*
X632430Y850300D01*
X632191Y850243D01*
X631951Y850192D01*
X631710Y850147D01*
X631467Y850108D01*
X631224Y850075D01*
X630980Y850048D01*
X630736Y850027D01*
X630491Y850012D01*
X630245Y850003D01*
X630000Y850000D01*
X629755Y850003D01*
X629509Y850012D01*
X629264Y850027D01*
X629020Y850048D01*
X628776Y850075D01*
X628533Y850108D01*
X628290Y850147D01*
X628049Y850192D01*
X627809Y850243D01*
X627570Y850300D01*
X627333Y850362D01*
X627097Y850431D01*
X626863Y850505D01*
X626631Y850585D01*
X626401Y850670D01*
X626173Y850761D01*
X625948Y850858D01*
X625724Y850960D01*
X625504Y851068D01*
X625286Y851181D01*
X625071Y851299D01*
X624859Y851423D01*
X624650Y851551D01*
X624444Y851685D01*
X624242Y851824D01*
X624043Y851968D01*
X623848Y852117D01*
X623656Y852270D01*
X623468Y852428D01*
X623284Y852590D01*
X623105Y852758D01*
X622929Y852929D01*
X622758Y853105D01*
X622590Y853284D01*
X622428Y853468D01*
X622270Y853656D01*
X622117Y853848D01*
X621968Y854043D01*
X621824Y854242D01*
X621685Y854444D01*
X621551Y854650D01*
X621423Y854859D01*
X621299Y855071D01*
X621181Y855286D01*
X621068Y855504D01*
X620960Y855724D01*
X620858Y855948D01*
X620761Y856173D01*
X620670Y856401D01*
X620585Y856631D01*
X620505Y856863D01*
X620431Y857097D01*
X620362Y857333D01*
X620300Y857570D01*
X620243Y857809D01*
X620192Y858049D01*
X620147Y858290D01*
X620108Y858533D01*
X620075Y858776D01*
X620048Y859020D01*
X620027Y859264D01*
X620012Y859509D01*
X620003Y859755D01*
X620000Y860000D01*
D12*
X652500Y875000D02*
X652500Y0D01*
X486590Y129840D02*
X443410Y129840D01*
X440870Y147620D02*
X440872Y147720D01*
X440878Y147819D01*
X440888Y147919D01*
X440901Y148017D01*
X440919Y148116D01*
X440940Y148213D01*
X440965Y148309D01*
X440994Y148405D01*
X441027Y148499D01*
X441063Y148592D01*
X441103Y148683D01*
X441147Y148773D01*
X441194Y148861D01*
X441244Y148947D01*
X441298Y149031D01*
X441355Y149113D01*
X441415Y149192D01*
X441479Y149270D01*
X441545Y149344D01*
X441614Y149416D01*
X441686Y149485D01*
X441760Y149551D01*
X441838Y149615D01*
X441917Y149675D01*
X441999Y149732D01*
X442083Y149786D01*
X442169Y149836D01*
X442257Y149883D01*
X442347Y149927D01*
X442438Y149967D01*
X442531Y150003D01*
X442625Y150036D01*
X442721Y150065D01*
X442817Y150090D01*
X442914Y150111D01*
X443013Y150129D01*
X443111Y150142D01*
X443211Y150152D01*
X443310Y150158D01*
X443410Y150160D01*
X486590Y150160D02*
X486690Y150158D01*
X486789Y150152D01*
X486889Y150142D01*
X486987Y150129D01*
X487086Y150111D01*
X487183Y150090D01*
X487279Y150065D01*
X487375Y150036D01*
X487469Y150003D01*
X487562Y149967D01*
X487653Y149927D01*
X487743Y149883D01*
X487831Y149836D01*
X487917Y149786D01*
X488001Y149732D01*
X488083Y149675D01*
X488162Y149615D01*
X488240Y149551D01*
X488314Y149485D01*
X488386Y149416D01*
X488455Y149344D01*
X488521Y149270D01*
X488585Y149192D01*
X488645Y149113D01*
X488702Y149031D01*
X488756Y148947D01*
X488806Y148861D01*
X488853Y148773D01*
X488897Y148683D01*
X488937Y148592D01*
X488973Y148499D01*
X489006Y148405D01*
X489035Y148309D01*
X489060Y148213D01*
X489081Y148116D01*
X489099Y148017D01*
X489112Y147919D01*
X489122Y147819D01*
X489128Y147720D01*
X489130Y147620D01*
X489130Y132380D02*
X489128Y132280D01*
X489122Y132181D01*
X489112Y132081D01*
X489099Y131983D01*
X489081Y131884D01*
X489060Y131787D01*
X489035Y131691D01*
X489006Y131595D01*
X488973Y131501D01*
X488937Y131408D01*
X488897Y131317D01*
X488853Y131227D01*
X488806Y131139D01*
X488756Y131053D01*
X488702Y130969D01*
X488645Y130887D01*
X488585Y130808D01*
X488521Y130730D01*
X488455Y130656D01*
X488386Y130584D01*
X488314Y130515D01*
X488240Y130449D01*
X488162Y130385D01*
X488083Y130325D01*
X488001Y130268D01*
X487917Y130214D01*
X487831Y130164D01*
X487743Y130117D01*
X487653Y130073D01*
X487562Y130033D01*
X487469Y129997D01*
X487375Y129964D01*
X487279Y129935D01*
X487183Y129910D01*
X487086Y129889D01*
X486987Y129871D01*
X486889Y129858D01*
X486789Y129848D01*
X486690Y129842D01*
X486590Y129840D01*
X443410Y129840D02*
X443310Y129842D01*
X443211Y129848D01*
X443111Y129858D01*
X443013Y129871D01*
X442914Y129889D01*
X442817Y129910D01*
X442721Y129935D01*
X442625Y129964D01*
X442531Y129997D01*
X442438Y130033D01*
X442347Y130073D01*
X442257Y130117D01*
X442169Y130164D01*
X442083Y130214D01*
X441999Y130268D01*
X441917Y130325D01*
X441838Y130385D01*
X441760Y130449D01*
X441686Y130515D01*
X441614Y130584D01*
X441545Y130656D01*
X441479Y130730D01*
X441415Y130808D01*
X441355Y130887D01*
X441298Y130969D01*
X441244Y131053D01*
X441194Y131139D01*
X441147Y131227D01*
X441103Y131317D01*
X441063Y131408D01*
X441027Y131501D01*
X440994Y131595D01*
X440965Y131691D01*
X440940Y131787D01*
X440919Y131884D01*
X440901Y131983D01*
X440888Y132081D01*
X440878Y132181D01*
X440872Y132280D01*
X440870Y132380D01*
X440870Y147620D01*
X489130Y147620D02*
X489130Y132380D01*
X486590Y150160D02*
X443410Y150160D01*
D13*
X472145Y160875D02*
X472147Y160775D01*
X472153Y160676D01*
X472163Y160576D01*
X472176Y160478D01*
X472194Y160379D01*
X472215Y160282D01*
X472240Y160186D01*
X472269Y160090D01*
X472302Y159996D01*
X472338Y159903D01*
X472378Y159812D01*
X472422Y159722D01*
X472469Y159634D01*
X472519Y159548D01*
X472573Y159464D01*
X472630Y159382D01*
X472690Y159303D01*
X472754Y159225D01*
X472820Y159151D01*
X472889Y159079D01*
X472961Y159010D01*
X473035Y158944D01*
X473113Y158880D01*
X473192Y158820D01*
X473274Y158763D01*
X473358Y158709D01*
X473444Y158659D01*
X473532Y158612D01*
X473622Y158568D01*
X473713Y158528D01*
X473806Y158492D01*
X473900Y158459D01*
X473996Y158430D01*
X474092Y158405D01*
X474189Y158384D01*
X474288Y158366D01*
X474386Y158353D01*
X474486Y158343D01*
X474585Y158337D01*
X474685Y158335D01*
X474826Y158337D01*
X474967Y158342D01*
X475108Y158352D01*
X475249Y158365D01*
X475389Y158381D01*
X475529Y158402D01*
X475668Y158426D01*
X475807Y158454D01*
X475944Y158485D01*
X476081Y158520D01*
X476217Y158558D01*
X476352Y158600D01*
X476485Y158646D01*
X476618Y158695D01*
X476749Y158748D01*
X476878Y158804D01*
X477007Y158863D01*
X477133Y158926D01*
X477258Y158992D01*
X477381Y159061D01*
X477502Y159134D01*
X477621Y159210D01*
X477739Y159289D01*
X477854Y159370D01*
X477966Y159455D01*
X478077Y159543D01*
X478185Y159634D01*
X478291Y159727D01*
X478394Y159824D01*
X478495Y159923D01*
X478178Y167225D02*
X478176Y167325D01*
X478170Y167424D01*
X478160Y167524D01*
X478147Y167622D01*
X478129Y167721D01*
X478108Y167818D01*
X478083Y167914D01*
X478054Y168010D01*
X478021Y168104D01*
X477985Y168197D01*
X477945Y168288D01*
X477901Y168378D01*
X477854Y168466D01*
X477804Y168552D01*
X477750Y168636D01*
X477693Y168718D01*
X477633Y168797D01*
X477569Y168875D01*
X477503Y168949D01*
X477434Y169021D01*
X477362Y169090D01*
X477288Y169156D01*
X477210Y169220D01*
X477131Y169280D01*
X477049Y169337D01*
X476965Y169391D01*
X476879Y169441D01*
X476791Y169488D01*
X476701Y169532D01*
X476610Y169572D01*
X476517Y169608D01*
X476423Y169641D01*
X476327Y169670D01*
X476231Y169695D01*
X476134Y169716D01*
X476035Y169734D01*
X475937Y169747D01*
X475837Y169757D01*
X475738Y169763D01*
X475638Y169765D01*
X475638Y169766D02*
X475505Y169764D01*
X475372Y169759D01*
X475239Y169749D01*
X475106Y169736D01*
X474974Y169719D01*
X474842Y169699D01*
X474711Y169675D01*
X474581Y169647D01*
X474451Y169616D01*
X474323Y169581D01*
X474195Y169542D01*
X474069Y169500D01*
X473944Y169454D01*
X473820Y169405D01*
X473697Y169353D01*
X473576Y169297D01*
X473457Y169237D01*
X473339Y169175D01*
X473224Y169109D01*
X473110Y169040D01*
X472998Y168967D01*
X472888Y168892D01*
X472780Y168813D01*
X476908Y165002D02*
X476992Y165054D01*
X477075Y165109D01*
X477155Y165168D01*
X477233Y165229D01*
X477308Y165293D01*
X477381Y165361D01*
X477452Y165431D01*
X477519Y165503D01*
X477584Y165578D01*
X477646Y165656D01*
X477705Y165736D01*
X477761Y165818D01*
X477813Y165902D01*
X477862Y165988D01*
X477908Y166076D01*
X477951Y166166D01*
X477990Y166257D01*
X478025Y166350D01*
X478057Y166444D01*
X478085Y166539D01*
X478110Y166635D01*
X478130Y166732D01*
X478148Y166830D01*
X478161Y166928D01*
X478170Y167027D01*
X478176Y167126D01*
X478178Y167225D01*
X473415Y163098D02*
X473331Y163046D01*
X473248Y162991D01*
X473168Y162932D01*
X473090Y162871D01*
X473015Y162807D01*
X472942Y162739D01*
X472871Y162669D01*
X472804Y162597D01*
X472739Y162522D01*
X472677Y162444D01*
X472618Y162364D01*
X472562Y162282D01*
X472510Y162198D01*
X472461Y162112D01*
X472415Y162024D01*
X472372Y161934D01*
X472333Y161843D01*
X472298Y161750D01*
X472266Y161656D01*
X472238Y161561D01*
X472213Y161465D01*
X472193Y161368D01*
X472175Y161270D01*
X472162Y161172D01*
X472153Y161073D01*
X472147Y160974D01*
X472145Y160875D01*
X473415Y163098D02*
X476908Y165003D01*
X464854Y160875D02*
X464854Y169765D01*
X464854Y160875D02*
X464856Y160775D01*
X464862Y160676D01*
X464872Y160576D01*
X464885Y160478D01*
X464903Y160379D01*
X464924Y160282D01*
X464949Y160186D01*
X464978Y160090D01*
X465011Y159996D01*
X465047Y159903D01*
X465087Y159812D01*
X465131Y159722D01*
X465178Y159634D01*
X465228Y159548D01*
X465282Y159464D01*
X465339Y159382D01*
X465399Y159303D01*
X465463Y159225D01*
X465529Y159151D01*
X465598Y159079D01*
X465670Y159010D01*
X465744Y158944D01*
X465822Y158880D01*
X465901Y158820D01*
X465983Y158763D01*
X466067Y158709D01*
X466153Y158659D01*
X466241Y158612D01*
X466331Y158568D01*
X466422Y158528D01*
X466515Y158492D01*
X466609Y158459D01*
X466705Y158430D01*
X466801Y158405D01*
X466898Y158384D01*
X466997Y158366D01*
X467095Y158353D01*
X467195Y158343D01*
X467294Y158337D01*
X467394Y158335D01*
X468664Y158335D01*
X459445Y167225D02*
X456270Y169765D01*
X456270Y158335D01*
X459445Y158335D02*
X453095Y158335D01*
D12*
X82340Y188410D02*
X82340Y231590D01*
X100120Y234130D02*
X100220Y234128D01*
X100319Y234122D01*
X100419Y234112D01*
X100517Y234099D01*
X100616Y234081D01*
X100713Y234060D01*
X100809Y234035D01*
X100905Y234006D01*
X100999Y233973D01*
X101092Y233937D01*
X101183Y233897D01*
X101273Y233853D01*
X101361Y233806D01*
X101447Y233756D01*
X101531Y233702D01*
X101613Y233645D01*
X101692Y233585D01*
X101770Y233521D01*
X101844Y233455D01*
X101916Y233386D01*
X101985Y233314D01*
X102051Y233240D01*
X102115Y233162D01*
X102175Y233083D01*
X102232Y233001D01*
X102286Y232917D01*
X102336Y232831D01*
X102383Y232743D01*
X102427Y232653D01*
X102467Y232562D01*
X102503Y232469D01*
X102536Y232375D01*
X102565Y232279D01*
X102590Y232183D01*
X102611Y232086D01*
X102629Y231987D01*
X102642Y231889D01*
X102652Y231789D01*
X102658Y231690D01*
X102660Y231590D01*
X102660Y188410D02*
X102658Y188310D01*
X102652Y188211D01*
X102642Y188111D01*
X102629Y188013D01*
X102611Y187914D01*
X102590Y187817D01*
X102565Y187721D01*
X102536Y187625D01*
X102503Y187531D01*
X102467Y187438D01*
X102427Y187347D01*
X102383Y187257D01*
X102336Y187169D01*
X102286Y187083D01*
X102232Y186999D01*
X102175Y186917D01*
X102115Y186838D01*
X102051Y186760D01*
X101985Y186686D01*
X101916Y186614D01*
X101844Y186545D01*
X101770Y186479D01*
X101692Y186415D01*
X101613Y186355D01*
X101531Y186298D01*
X101447Y186244D01*
X101361Y186194D01*
X101273Y186147D01*
X101183Y186103D01*
X101092Y186063D01*
X100999Y186027D01*
X100905Y185994D01*
X100809Y185965D01*
X100713Y185940D01*
X100616Y185919D01*
X100517Y185901D01*
X100419Y185888D01*
X100319Y185878D01*
X100220Y185872D01*
X100120Y185870D01*
X84880Y185870D02*
X84780Y185872D01*
X84681Y185878D01*
X84581Y185888D01*
X84483Y185901D01*
X84384Y185919D01*
X84287Y185940D01*
X84191Y185965D01*
X84095Y185994D01*
X84001Y186027D01*
X83908Y186063D01*
X83817Y186103D01*
X83727Y186147D01*
X83639Y186194D01*
X83553Y186244D01*
X83469Y186298D01*
X83387Y186355D01*
X83308Y186415D01*
X83230Y186479D01*
X83156Y186545D01*
X83084Y186614D01*
X83015Y186686D01*
X82949Y186760D01*
X82885Y186838D01*
X82825Y186917D01*
X82768Y186999D01*
X82714Y187083D01*
X82664Y187169D01*
X82617Y187257D01*
X82573Y187347D01*
X82533Y187438D01*
X82497Y187531D01*
X82464Y187625D01*
X82435Y187721D01*
X82410Y187817D01*
X82389Y187914D01*
X82371Y188013D01*
X82358Y188111D01*
X82348Y188211D01*
X82342Y188310D01*
X82340Y188410D01*
X82340Y231590D02*
X82342Y231690D01*
X82348Y231789D01*
X82358Y231889D01*
X82371Y231987D01*
X82389Y232086D01*
X82410Y232183D01*
X82435Y232279D01*
X82464Y232375D01*
X82497Y232469D01*
X82533Y232562D01*
X82573Y232653D01*
X82617Y232743D01*
X82664Y232831D01*
X82714Y232917D01*
X82768Y233001D01*
X82825Y233083D01*
X82885Y233162D01*
X82949Y233240D01*
X83015Y233314D01*
X83084Y233386D01*
X83156Y233455D01*
X83230Y233521D01*
X83308Y233585D01*
X83387Y233645D01*
X83469Y233702D01*
X83553Y233756D01*
X83639Y233806D01*
X83727Y233853D01*
X83817Y233897D01*
X83908Y233937D01*
X84001Y233973D01*
X84095Y234006D01*
X84191Y234035D01*
X84287Y234060D01*
X84384Y234081D01*
X84483Y234099D01*
X84581Y234112D01*
X84681Y234122D01*
X84780Y234128D01*
X84880Y234130D01*
X100120Y234130D01*
X100120Y185870D02*
X84880Y185870D01*
X102660Y188410D02*
X102660Y231590D01*
D13*
X108375Y192855D02*
X108275Y192853D01*
X108176Y192847D01*
X108076Y192837D01*
X107978Y192824D01*
X107879Y192806D01*
X107782Y192785D01*
X107686Y192760D01*
X107590Y192731D01*
X107496Y192698D01*
X107403Y192662D01*
X107312Y192622D01*
X107222Y192578D01*
X107134Y192531D01*
X107048Y192481D01*
X106964Y192427D01*
X106882Y192370D01*
X106803Y192310D01*
X106725Y192246D01*
X106651Y192180D01*
X106579Y192111D01*
X106510Y192039D01*
X106444Y191965D01*
X106380Y191887D01*
X106320Y191808D01*
X106263Y191726D01*
X106209Y191642D01*
X106159Y191556D01*
X106112Y191468D01*
X106068Y191378D01*
X106028Y191287D01*
X105992Y191194D01*
X105959Y191100D01*
X105930Y191004D01*
X105905Y190908D01*
X105884Y190811D01*
X105866Y190712D01*
X105853Y190614D01*
X105843Y190514D01*
X105837Y190415D01*
X105835Y190315D01*
X105837Y190174D01*
X105842Y190033D01*
X105852Y189892D01*
X105865Y189751D01*
X105881Y189611D01*
X105902Y189471D01*
X105926Y189332D01*
X105954Y189193D01*
X105985Y189056D01*
X106020Y188919D01*
X106058Y188783D01*
X106100Y188648D01*
X106146Y188515D01*
X106195Y188382D01*
X106248Y188251D01*
X106304Y188122D01*
X106363Y187993D01*
X106426Y187867D01*
X106492Y187742D01*
X106561Y187619D01*
X106634Y187498D01*
X106710Y187379D01*
X106789Y187261D01*
X106870Y187146D01*
X106955Y187034D01*
X107043Y186923D01*
X107134Y186815D01*
X107227Y186709D01*
X107324Y186606D01*
X107423Y186505D01*
X114725Y186823D02*
X114825Y186825D01*
X114924Y186831D01*
X115024Y186841D01*
X115122Y186854D01*
X115221Y186872D01*
X115318Y186893D01*
X115414Y186918D01*
X115510Y186947D01*
X115604Y186980D01*
X115697Y187016D01*
X115788Y187056D01*
X115878Y187100D01*
X115966Y187147D01*
X116052Y187197D01*
X116136Y187251D01*
X116218Y187308D01*
X116297Y187368D01*
X116375Y187432D01*
X116449Y187498D01*
X116521Y187567D01*
X116590Y187639D01*
X116656Y187713D01*
X116720Y187791D01*
X116780Y187870D01*
X116837Y187952D01*
X116891Y188036D01*
X116941Y188122D01*
X116988Y188210D01*
X117032Y188300D01*
X117072Y188391D01*
X117108Y188484D01*
X117141Y188578D01*
X117170Y188674D01*
X117195Y188770D01*
X117216Y188867D01*
X117234Y188966D01*
X117247Y189064D01*
X117257Y189164D01*
X117263Y189263D01*
X117265Y189363D01*
X117266Y189363D02*
X117264Y189496D01*
X117259Y189629D01*
X117249Y189762D01*
X117236Y189895D01*
X117219Y190027D01*
X117199Y190159D01*
X117175Y190290D01*
X117147Y190420D01*
X117116Y190550D01*
X117081Y190678D01*
X117042Y190806D01*
X117000Y190932D01*
X116954Y191057D01*
X116905Y191181D01*
X116853Y191304D01*
X116797Y191425D01*
X116737Y191544D01*
X116675Y191662D01*
X116609Y191777D01*
X116540Y191891D01*
X116467Y192003D01*
X116392Y192113D01*
X116313Y192221D01*
X112502Y188092D02*
X112554Y188008D01*
X112609Y187925D01*
X112668Y187845D01*
X112729Y187767D01*
X112793Y187692D01*
X112861Y187619D01*
X112931Y187548D01*
X113003Y187481D01*
X113078Y187416D01*
X113156Y187354D01*
X113236Y187295D01*
X113318Y187239D01*
X113402Y187187D01*
X113488Y187138D01*
X113576Y187092D01*
X113666Y187049D01*
X113757Y187010D01*
X113850Y186975D01*
X113944Y186943D01*
X114039Y186915D01*
X114135Y186890D01*
X114232Y186870D01*
X114330Y186852D01*
X114428Y186839D01*
X114527Y186830D01*
X114626Y186824D01*
X114725Y186822D01*
X110598Y191585D02*
X110546Y191669D01*
X110491Y191752D01*
X110432Y191832D01*
X110371Y191910D01*
X110307Y191985D01*
X110239Y192058D01*
X110169Y192129D01*
X110097Y192196D01*
X110022Y192261D01*
X109944Y192323D01*
X109864Y192382D01*
X109782Y192438D01*
X109698Y192490D01*
X109612Y192539D01*
X109524Y192585D01*
X109434Y192628D01*
X109343Y192667D01*
X109250Y192702D01*
X109156Y192734D01*
X109061Y192762D01*
X108965Y192787D01*
X108868Y192807D01*
X108770Y192825D01*
X108672Y192838D01*
X108573Y192847D01*
X108474Y192853D01*
X108375Y192855D01*
X110598Y191585D02*
X112503Y188093D01*
X108375Y200146D02*
X117265Y200146D01*
X108375Y200146D02*
X108275Y200144D01*
X108176Y200138D01*
X108076Y200128D01*
X107978Y200115D01*
X107879Y200097D01*
X107782Y200076D01*
X107686Y200051D01*
X107590Y200022D01*
X107496Y199989D01*
X107403Y199953D01*
X107312Y199913D01*
X107222Y199869D01*
X107134Y199822D01*
X107048Y199772D01*
X106964Y199718D01*
X106882Y199661D01*
X106803Y199601D01*
X106725Y199537D01*
X106651Y199471D01*
X106579Y199402D01*
X106510Y199330D01*
X106444Y199256D01*
X106380Y199178D01*
X106320Y199099D01*
X106263Y199017D01*
X106209Y198933D01*
X106159Y198847D01*
X106112Y198759D01*
X106068Y198669D01*
X106028Y198578D01*
X105992Y198485D01*
X105959Y198391D01*
X105930Y198295D01*
X105905Y198199D01*
X105884Y198102D01*
X105866Y198003D01*
X105853Y197905D01*
X105843Y197805D01*
X105837Y197706D01*
X105835Y197606D01*
X105835Y196336D01*
X117266Y209047D02*
X117264Y209151D01*
X117258Y209256D01*
X117249Y209360D01*
X117236Y209463D01*
X117218Y209566D01*
X117198Y209668D01*
X117173Y209770D01*
X117145Y209870D01*
X117113Y209970D01*
X117077Y210068D01*
X117038Y210165D01*
X116996Y210260D01*
X116950Y210354D01*
X116900Y210446D01*
X116848Y210536D01*
X116792Y210624D01*
X116732Y210710D01*
X116670Y210794D01*
X116605Y210875D01*
X116537Y210954D01*
X116465Y211031D01*
X116392Y211104D01*
X116315Y211176D01*
X116236Y211244D01*
X116155Y211309D01*
X116071Y211371D01*
X115985Y211431D01*
X115897Y211487D01*
X115807Y211539D01*
X115715Y211589D01*
X115621Y211635D01*
X115526Y211677D01*
X115429Y211716D01*
X115331Y211752D01*
X115231Y211784D01*
X115131Y211812D01*
X115029Y211837D01*
X114927Y211857D01*
X114824Y211875D01*
X114721Y211888D01*
X114617Y211897D01*
X114512Y211903D01*
X114408Y211905D01*
X117265Y209047D02*
X117263Y208929D01*
X117257Y208810D01*
X117248Y208692D01*
X117235Y208575D01*
X117217Y208458D01*
X117197Y208341D01*
X117172Y208225D01*
X117144Y208110D01*
X117111Y207997D01*
X117076Y207884D01*
X117036Y207772D01*
X116994Y207662D01*
X116947Y207553D01*
X116897Y207445D01*
X116844Y207340D01*
X116787Y207236D01*
X116727Y207134D01*
X116664Y207034D01*
X116597Y206936D01*
X116528Y206840D01*
X116455Y206747D01*
X116379Y206656D01*
X116301Y206567D01*
X116219Y206481D01*
X116135Y206398D01*
X116049Y206317D01*
X115959Y206240D01*
X115868Y206165D01*
X115774Y206093D01*
X115677Y206024D01*
X115579Y205959D01*
X115478Y205896D01*
X115375Y205837D01*
X115271Y205781D01*
X115165Y205729D01*
X115057Y205680D01*
X114948Y205635D01*
X114837Y205593D01*
X114725Y205555D01*
X112186Y210953D02*
X112261Y211029D01*
X112340Y211104D01*
X112421Y211175D01*
X112505Y211244D01*
X112591Y211309D01*
X112679Y211371D01*
X112769Y211431D01*
X112861Y211487D01*
X112956Y211540D01*
X113052Y211589D01*
X113150Y211635D01*
X113249Y211678D01*
X113350Y211717D01*
X113452Y211752D01*
X113555Y211784D01*
X113659Y211812D01*
X113764Y211837D01*
X113871Y211858D01*
X113977Y211875D01*
X114084Y211888D01*
X114192Y211897D01*
X114300Y211903D01*
X114408Y211905D01*
X112185Y210952D02*
X105835Y205555D01*
X105835Y211905D01*
D10*
X67720Y403700D02*
X67725Y404068D01*
X67738Y404436D01*
X67761Y404803D01*
X67792Y405170D01*
X67833Y405536D01*
X67882Y405901D01*
X67941Y406264D01*
X68008Y406626D01*
X68084Y406987D01*
X68170Y407345D01*
X68263Y407701D01*
X68366Y408054D01*
X68477Y408405D01*
X68597Y408753D01*
X68725Y409098D01*
X68862Y409440D01*
X69007Y409779D01*
X69160Y410113D01*
X69322Y410444D01*
X69491Y410771D01*
X69669Y411093D01*
X69854Y411412D01*
X70047Y411725D01*
X70248Y412034D01*
X70456Y412337D01*
X70672Y412635D01*
X70895Y412928D01*
X71125Y413216D01*
X71362Y413498D01*
X71606Y413773D01*
X71856Y414043D01*
X72113Y414307D01*
X72377Y414564D01*
X72647Y414814D01*
X72922Y415058D01*
X73204Y415295D01*
X73492Y415525D01*
X73785Y415748D01*
X74083Y415964D01*
X74386Y416172D01*
X74695Y416373D01*
X75008Y416566D01*
X75327Y416751D01*
X75649Y416929D01*
X75976Y417098D01*
X76307Y417260D01*
X76641Y417413D01*
X76980Y417558D01*
X77322Y417695D01*
X77667Y417823D01*
X78015Y417943D01*
X78366Y418054D01*
X78719Y418157D01*
X79075Y418250D01*
X79433Y418336D01*
X79794Y418412D01*
X80156Y418479D01*
X80519Y418538D01*
X80884Y418587D01*
X81250Y418628D01*
X81617Y418659D01*
X81984Y418682D01*
X82352Y418695D01*
X82720Y418700D01*
X83088Y418695D01*
X83456Y418682D01*
X83823Y418659D01*
X84190Y418628D01*
X84556Y418587D01*
X84921Y418538D01*
X85284Y418479D01*
X85646Y418412D01*
X86007Y418336D01*
X86365Y418250D01*
X86721Y418157D01*
X87074Y418054D01*
X87425Y417943D01*
X87773Y417823D01*
X88118Y417695D01*
X88460Y417558D01*
X88799Y417413D01*
X89133Y417260D01*
X89464Y417098D01*
X89791Y416929D01*
X90113Y416751D01*
X90432Y416566D01*
X90745Y416373D01*
X91054Y416172D01*
X91357Y415964D01*
X91655Y415748D01*
X91948Y415525D01*
X92236Y415295D01*
X92518Y415058D01*
X92793Y414814D01*
X93063Y414564D01*
X93327Y414307D01*
X93584Y414043D01*
X93834Y413773D01*
X94078Y413498D01*
X94315Y413216D01*
X94545Y412928D01*
X94768Y412635D01*
X94984Y412337D01*
X95192Y412034D01*
X95393Y411725D01*
X95586Y411412D01*
X95771Y411093D01*
X95949Y410771D01*
X96118Y410444D01*
X96280Y410113D01*
X96433Y409779D01*
X96578Y409440D01*
X96715Y409098D01*
X96843Y408753D01*
X96963Y408405D01*
X97074Y408054D01*
X97177Y407701D01*
X97270Y407345D01*
X97356Y406987D01*
X97432Y406626D01*
X97499Y406264D01*
X97558Y405901D01*
X97607Y405536D01*
X97648Y405170D01*
X97679Y404803D01*
X97702Y404436D01*
X97715Y404068D01*
X97720Y403700D01*
X97715Y403332D01*
X97702Y402964D01*
X97679Y402597D01*
X97648Y402230D01*
X97607Y401864D01*
X97558Y401499D01*
X97499Y401136D01*
X97432Y400774D01*
X97356Y400413D01*
X97270Y400055D01*
X97177Y399699D01*
X97074Y399346D01*
X96963Y398995D01*
X96843Y398647D01*
X96715Y398302D01*
X96578Y397960D01*
X96433Y397621D01*
X96280Y397287D01*
X96118Y396956D01*
X95949Y396629D01*
X95771Y396307D01*
X95586Y395988D01*
X95393Y395675D01*
X95192Y395366D01*
X94984Y395063D01*
X94768Y394765D01*
X94545Y394472D01*
X94315Y394184D01*
X94078Y393902D01*
X93834Y393627D01*
X93584Y393357D01*
X93327Y393093D01*
X93063Y392836D01*
X92793Y392586D01*
X92518Y392342D01*
X92236Y392105D01*
X91948Y391875D01*
X91655Y391652D01*
X91357Y391436D01*
X91054Y391228D01*
X90745Y391027D01*
X90432Y390834D01*
X90113Y390649D01*
X89791Y390471D01*
X89464Y390302D01*
X89133Y390140D01*
X88799Y389987D01*
X88460Y389842D01*
X88118Y389705D01*
X87773Y389577D01*
X87425Y389457D01*
X87074Y389346D01*
X86721Y389243D01*
X86365Y389150D01*
X86007Y389064D01*
X85646Y388988D01*
X85284Y388921D01*
X84921Y388862D01*
X84556Y388813D01*
X84190Y388772D01*
X83823Y388741D01*
X83456Y388718D01*
X83088Y388705D01*
X82720Y388700D01*
X82352Y388705D01*
X81984Y388718D01*
X81617Y388741D01*
X81250Y388772D01*
X80884Y388813D01*
X80519Y388862D01*
X80156Y388921D01*
X79794Y388988D01*
X79433Y389064D01*
X79075Y389150D01*
X78719Y389243D01*
X78366Y389346D01*
X78015Y389457D01*
X77667Y389577D01*
X77322Y389705D01*
X76980Y389842D01*
X76641Y389987D01*
X76307Y390140D01*
X75976Y390302D01*
X75649Y390471D01*
X75327Y390649D01*
X75008Y390834D01*
X74695Y391027D01*
X74386Y391228D01*
X74083Y391436D01*
X73785Y391652D01*
X73492Y391875D01*
X73204Y392105D01*
X72922Y392342D01*
X72647Y392586D01*
X72377Y392836D01*
X72113Y393093D01*
X71856Y393357D01*
X71606Y393627D01*
X71362Y393902D01*
X71125Y394184D01*
X70895Y394472D01*
X70672Y394765D01*
X70456Y395063D01*
X70248Y395366D01*
X70047Y395675D01*
X69854Y395988D01*
X69669Y396307D01*
X69491Y396629D01*
X69322Y396956D01*
X69160Y397287D01*
X69007Y397621D01*
X68862Y397960D01*
X68725Y398302D01*
X68597Y398647D01*
X68477Y398995D01*
X68366Y399346D01*
X68263Y399699D01*
X68170Y400055D01*
X68084Y400413D01*
X68008Y400774D01*
X67941Y401136D01*
X67882Y401499D01*
X67833Y401864D01*
X67792Y402230D01*
X67761Y402597D01*
X67738Y402964D01*
X67725Y403332D01*
X67720Y403700D01*
X364900Y251300D02*
X364905Y251668D01*
X364918Y252036D01*
X364941Y252403D01*
X364972Y252770D01*
X365013Y253136D01*
X365062Y253501D01*
X365121Y253864D01*
X365188Y254226D01*
X365264Y254587D01*
X365350Y254945D01*
X365443Y255301D01*
X365546Y255654D01*
X365657Y256005D01*
X365777Y256353D01*
X365905Y256698D01*
X366042Y257040D01*
X366187Y257379D01*
X366340Y257713D01*
X366502Y258044D01*
X366671Y258371D01*
X366849Y258693D01*
X367034Y259012D01*
X367227Y259325D01*
X367428Y259634D01*
X367636Y259937D01*
X367852Y260235D01*
X368075Y260528D01*
X368305Y260816D01*
X368542Y261098D01*
X368786Y261373D01*
X369036Y261643D01*
X369293Y261907D01*
X369557Y262164D01*
X369827Y262414D01*
X370102Y262658D01*
X370384Y262895D01*
X370672Y263125D01*
X370965Y263348D01*
X371263Y263564D01*
X371566Y263772D01*
X371875Y263973D01*
X372188Y264166D01*
X372507Y264351D01*
X372829Y264529D01*
X373156Y264698D01*
X373487Y264860D01*
X373821Y265013D01*
X374160Y265158D01*
X374502Y265295D01*
X374847Y265423D01*
X375195Y265543D01*
X375546Y265654D01*
X375899Y265757D01*
X376255Y265850D01*
X376613Y265936D01*
X376974Y266012D01*
X377336Y266079D01*
X377699Y266138D01*
X378064Y266187D01*
X378430Y266228D01*
X378797Y266259D01*
X379164Y266282D01*
X379532Y266295D01*
X379900Y266300D01*
X380268Y266295D01*
X380636Y266282D01*
X381003Y266259D01*
X381370Y266228D01*
X381736Y266187D01*
X382101Y266138D01*
X382464Y266079D01*
X382826Y266012D01*
X383187Y265936D01*
X383545Y265850D01*
X383901Y265757D01*
X384254Y265654D01*
X384605Y265543D01*
X384953Y265423D01*
X385298Y265295D01*
X385640Y265158D01*
X385979Y265013D01*
X386313Y264860D01*
X386644Y264698D01*
X386971Y264529D01*
X387293Y264351D01*
X387612Y264166D01*
X387925Y263973D01*
X388234Y263772D01*
X388537Y263564D01*
X388835Y263348D01*
X389128Y263125D01*
X389416Y262895D01*
X389698Y262658D01*
X389973Y262414D01*
X390243Y262164D01*
X390507Y261907D01*
X390764Y261643D01*
X391014Y261373D01*
X391258Y261098D01*
X391495Y260816D01*
X391725Y260528D01*
X391948Y260235D01*
X392164Y259937D01*
X392372Y259634D01*
X392573Y259325D01*
X392766Y259012D01*
X392951Y258693D01*
X393129Y258371D01*
X393298Y258044D01*
X393460Y257713D01*
X393613Y257379D01*
X393758Y257040D01*
X393895Y256698D01*
X394023Y256353D01*
X394143Y256005D01*
X394254Y255654D01*
X394357Y255301D01*
X394450Y254945D01*
X394536Y254587D01*
X394612Y254226D01*
X394679Y253864D01*
X394738Y253501D01*
X394787Y253136D01*
X394828Y252770D01*
X394859Y252403D01*
X394882Y252036D01*
X394895Y251668D01*
X394900Y251300D01*
X394895Y250932D01*
X394882Y250564D01*
X394859Y250197D01*
X394828Y249830D01*
X394787Y249464D01*
X394738Y249099D01*
X394679Y248736D01*
X394612Y248374D01*
X394536Y248013D01*
X394450Y247655D01*
X394357Y247299D01*
X394254Y246946D01*
X394143Y246595D01*
X394023Y246247D01*
X393895Y245902D01*
X393758Y245560D01*
X393613Y245221D01*
X393460Y244887D01*
X393298Y244556D01*
X393129Y244229D01*
X392951Y243907D01*
X392766Y243588D01*
X392573Y243275D01*
X392372Y242966D01*
X392164Y242663D01*
X391948Y242365D01*
X391725Y242072D01*
X391495Y241784D01*
X391258Y241502D01*
X391014Y241227D01*
X390764Y240957D01*
X390507Y240693D01*
X390243Y240436D01*
X389973Y240186D01*
X389698Y239942D01*
X389416Y239705D01*
X389128Y239475D01*
X388835Y239252D01*
X388537Y239036D01*
X388234Y238828D01*
X387925Y238627D01*
X387612Y238434D01*
X387293Y238249D01*
X386971Y238071D01*
X386644Y237902D01*
X386313Y237740D01*
X385979Y237587D01*
X385640Y237442D01*
X385298Y237305D01*
X384953Y237177D01*
X384605Y237057D01*
X384254Y236946D01*
X383901Y236843D01*
X383545Y236750D01*
X383187Y236664D01*
X382826Y236588D01*
X382464Y236521D01*
X382101Y236462D01*
X381736Y236413D01*
X381370Y236372D01*
X381003Y236341D01*
X380636Y236318D01*
X380268Y236305D01*
X379900Y236300D01*
X379532Y236305D01*
X379164Y236318D01*
X378797Y236341D01*
X378430Y236372D01*
X378064Y236413D01*
X377699Y236462D01*
X377336Y236521D01*
X376974Y236588D01*
X376613Y236664D01*
X376255Y236750D01*
X375899Y236843D01*
X375546Y236946D01*
X375195Y237057D01*
X374847Y237177D01*
X374502Y237305D01*
X374160Y237442D01*
X373821Y237587D01*
X373487Y237740D01*
X373156Y237902D01*
X372829Y238071D01*
X372507Y238249D01*
X372188Y238434D01*
X371875Y238627D01*
X371566Y238828D01*
X371263Y239036D01*
X370965Y239252D01*
X370672Y239475D01*
X370384Y239705D01*
X370102Y239942D01*
X369827Y240186D01*
X369557Y240436D01*
X369293Y240693D01*
X369036Y240957D01*
X368786Y241227D01*
X368542Y241502D01*
X368305Y241784D01*
X368075Y242072D01*
X367852Y242365D01*
X367636Y242663D01*
X367428Y242966D01*
X367227Y243275D01*
X367034Y243588D01*
X366849Y243907D01*
X366671Y244229D01*
X366502Y244556D01*
X366340Y244887D01*
X366187Y245221D01*
X366042Y245560D01*
X365905Y245902D01*
X365777Y246247D01*
X365657Y246595D01*
X365546Y246946D01*
X365443Y247299D01*
X365350Y247655D01*
X365264Y248013D01*
X365188Y248374D01*
X365121Y248736D01*
X365062Y249099D01*
X365013Y249464D01*
X364972Y249830D01*
X364941Y250197D01*
X364918Y250564D01*
X364905Y250932D01*
X364900Y251300D01*
D12*
X392340Y231470D02*
X392340Y203530D01*
X412660Y231470D02*
X412658Y231570D01*
X412652Y231669D01*
X412642Y231769D01*
X412629Y231867D01*
X412611Y231966D01*
X412590Y232063D01*
X412565Y232159D01*
X412536Y232255D01*
X412503Y232349D01*
X412467Y232442D01*
X412427Y232533D01*
X412383Y232623D01*
X412336Y232711D01*
X412286Y232797D01*
X412232Y232881D01*
X412175Y232963D01*
X412115Y233042D01*
X412051Y233120D01*
X411985Y233194D01*
X411916Y233266D01*
X411844Y233335D01*
X411770Y233401D01*
X411692Y233465D01*
X411613Y233525D01*
X411531Y233582D01*
X411447Y233636D01*
X411361Y233686D01*
X411273Y233733D01*
X411183Y233777D01*
X411092Y233817D01*
X410999Y233853D01*
X410905Y233886D01*
X410809Y233915D01*
X410713Y233940D01*
X410616Y233961D01*
X410517Y233979D01*
X410419Y233992D01*
X410319Y234002D01*
X410220Y234008D01*
X410120Y234010D01*
X412660Y203530D02*
X412658Y203430D01*
X412652Y203331D01*
X412642Y203231D01*
X412629Y203133D01*
X412611Y203034D01*
X412590Y202937D01*
X412565Y202841D01*
X412536Y202745D01*
X412503Y202651D01*
X412467Y202558D01*
X412427Y202467D01*
X412383Y202377D01*
X412336Y202289D01*
X412286Y202203D01*
X412232Y202119D01*
X412175Y202037D01*
X412115Y201958D01*
X412051Y201880D01*
X411985Y201806D01*
X411916Y201734D01*
X411844Y201665D01*
X411770Y201599D01*
X411692Y201535D01*
X411613Y201475D01*
X411531Y201418D01*
X411447Y201364D01*
X411361Y201314D01*
X411273Y201267D01*
X411183Y201223D01*
X411092Y201183D01*
X410999Y201147D01*
X410905Y201114D01*
X410809Y201085D01*
X410713Y201060D01*
X410616Y201039D01*
X410517Y201021D01*
X410419Y201008D01*
X410319Y200998D01*
X410220Y200992D01*
X410120Y200990D01*
X394880Y200990D02*
X394780Y200992D01*
X394681Y200998D01*
X394581Y201008D01*
X394483Y201021D01*
X394384Y201039D01*
X394287Y201060D01*
X394191Y201085D01*
X394095Y201114D01*
X394001Y201147D01*
X393908Y201183D01*
X393817Y201223D01*
X393727Y201267D01*
X393639Y201314D01*
X393553Y201364D01*
X393469Y201418D01*
X393387Y201475D01*
X393308Y201535D01*
X393230Y201599D01*
X393156Y201665D01*
X393084Y201734D01*
X393015Y201806D01*
X392949Y201880D01*
X392885Y201958D01*
X392825Y202037D01*
X392768Y202119D01*
X392714Y202203D01*
X392664Y202289D01*
X392617Y202377D01*
X392573Y202467D01*
X392533Y202558D01*
X392497Y202651D01*
X392464Y202745D01*
X392435Y202841D01*
X392410Y202937D01*
X392389Y203034D01*
X392371Y203133D01*
X392358Y203231D01*
X392348Y203331D01*
X392342Y203430D01*
X392340Y203530D01*
X392340Y231470D02*
X392342Y231570D01*
X392348Y231669D01*
X392358Y231769D01*
X392371Y231867D01*
X392389Y231966D01*
X392410Y232063D01*
X392435Y232159D01*
X392464Y232255D01*
X392497Y232349D01*
X392533Y232442D01*
X392573Y232533D01*
X392617Y232623D01*
X392664Y232711D01*
X392714Y232797D01*
X392768Y232881D01*
X392825Y232963D01*
X392885Y233042D01*
X392949Y233120D01*
X393015Y233194D01*
X393084Y233266D01*
X393156Y233335D01*
X393230Y233401D01*
X393308Y233465D01*
X393387Y233525D01*
X393469Y233582D01*
X393553Y233636D01*
X393639Y233686D01*
X393727Y233733D01*
X393817Y233777D01*
X393908Y233817D01*
X394001Y233853D01*
X394095Y233886D01*
X394191Y233915D01*
X394287Y233940D01*
X394384Y233961D01*
X394483Y233979D01*
X394581Y233992D01*
X394681Y234002D01*
X394780Y234008D01*
X394880Y234010D01*
X410120Y234010D01*
X410120Y200990D02*
X394880Y200990D01*
X412660Y203530D02*
X412660Y231470D01*
D13*
X417105Y207975D02*
X417005Y207973D01*
X416906Y207967D01*
X416806Y207957D01*
X416708Y207944D01*
X416609Y207926D01*
X416512Y207905D01*
X416416Y207880D01*
X416320Y207851D01*
X416226Y207818D01*
X416133Y207782D01*
X416042Y207742D01*
X415952Y207698D01*
X415864Y207651D01*
X415778Y207601D01*
X415694Y207547D01*
X415612Y207490D01*
X415533Y207430D01*
X415455Y207366D01*
X415381Y207300D01*
X415309Y207231D01*
X415240Y207159D01*
X415174Y207085D01*
X415110Y207007D01*
X415050Y206928D01*
X414993Y206846D01*
X414939Y206762D01*
X414889Y206676D01*
X414842Y206588D01*
X414798Y206498D01*
X414758Y206407D01*
X414722Y206314D01*
X414689Y206220D01*
X414660Y206124D01*
X414635Y206028D01*
X414614Y205931D01*
X414596Y205832D01*
X414583Y205734D01*
X414573Y205634D01*
X414567Y205535D01*
X414565Y205435D01*
X414567Y205294D01*
X414572Y205153D01*
X414582Y205012D01*
X414595Y204871D01*
X414611Y204731D01*
X414632Y204591D01*
X414656Y204452D01*
X414684Y204313D01*
X414715Y204176D01*
X414750Y204039D01*
X414788Y203903D01*
X414830Y203768D01*
X414876Y203635D01*
X414925Y203502D01*
X414978Y203371D01*
X415034Y203242D01*
X415093Y203113D01*
X415156Y202987D01*
X415222Y202862D01*
X415291Y202739D01*
X415364Y202618D01*
X415440Y202499D01*
X415519Y202381D01*
X415600Y202266D01*
X415685Y202154D01*
X415773Y202043D01*
X415864Y201935D01*
X415957Y201829D01*
X416054Y201726D01*
X416153Y201625D01*
X423455Y201943D02*
X423555Y201945D01*
X423654Y201951D01*
X423754Y201961D01*
X423852Y201974D01*
X423951Y201992D01*
X424048Y202013D01*
X424144Y202038D01*
X424240Y202067D01*
X424334Y202100D01*
X424427Y202136D01*
X424518Y202176D01*
X424608Y202220D01*
X424696Y202267D01*
X424782Y202317D01*
X424866Y202371D01*
X424948Y202428D01*
X425027Y202488D01*
X425105Y202552D01*
X425179Y202618D01*
X425251Y202687D01*
X425320Y202759D01*
X425386Y202833D01*
X425450Y202911D01*
X425510Y202990D01*
X425567Y203072D01*
X425621Y203156D01*
X425671Y203242D01*
X425718Y203330D01*
X425762Y203420D01*
X425802Y203511D01*
X425838Y203604D01*
X425871Y203698D01*
X425900Y203794D01*
X425925Y203890D01*
X425946Y203987D01*
X425964Y204086D01*
X425977Y204184D01*
X425987Y204284D01*
X425993Y204383D01*
X425995Y204483D01*
X425993Y204616D01*
X425988Y204749D01*
X425978Y204882D01*
X425965Y205015D01*
X425948Y205147D01*
X425928Y205279D01*
X425904Y205410D01*
X425876Y205540D01*
X425845Y205670D01*
X425810Y205798D01*
X425771Y205926D01*
X425729Y206052D01*
X425683Y206177D01*
X425634Y206301D01*
X425582Y206424D01*
X425526Y206545D01*
X425466Y206664D01*
X425404Y206782D01*
X425338Y206897D01*
X425269Y207011D01*
X425196Y207123D01*
X425121Y207233D01*
X425042Y207341D01*
X421232Y203212D02*
X421284Y203128D01*
X421339Y203045D01*
X421398Y202965D01*
X421459Y202887D01*
X421523Y202812D01*
X421591Y202739D01*
X421661Y202668D01*
X421733Y202601D01*
X421808Y202536D01*
X421886Y202474D01*
X421966Y202415D01*
X422048Y202359D01*
X422132Y202307D01*
X422218Y202258D01*
X422306Y202212D01*
X422396Y202169D01*
X422487Y202130D01*
X422580Y202095D01*
X422674Y202063D01*
X422769Y202035D01*
X422865Y202010D01*
X422962Y201990D01*
X423060Y201972D01*
X423158Y201959D01*
X423257Y201950D01*
X423356Y201944D01*
X423455Y201942D01*
X419328Y206705D02*
X419276Y206789D01*
X419221Y206872D01*
X419162Y206952D01*
X419101Y207030D01*
X419037Y207105D01*
X418969Y207178D01*
X418899Y207249D01*
X418827Y207316D01*
X418752Y207381D01*
X418674Y207443D01*
X418594Y207502D01*
X418512Y207558D01*
X418428Y207610D01*
X418342Y207659D01*
X418254Y207705D01*
X418164Y207748D01*
X418073Y207787D01*
X417980Y207822D01*
X417886Y207854D01*
X417791Y207882D01*
X417695Y207907D01*
X417598Y207927D01*
X417500Y207945D01*
X417402Y207958D01*
X417303Y207967D01*
X417204Y207973D01*
X417105Y207975D01*
X419327Y206705D02*
X421232Y203213D01*
X417105Y215266D02*
X425995Y215266D01*
X417105Y215266D02*
X417005Y215264D01*
X416906Y215258D01*
X416806Y215248D01*
X416708Y215235D01*
X416609Y215217D01*
X416512Y215196D01*
X416416Y215171D01*
X416320Y215142D01*
X416226Y215109D01*
X416133Y215073D01*
X416042Y215033D01*
X415952Y214989D01*
X415864Y214942D01*
X415778Y214892D01*
X415694Y214838D01*
X415612Y214781D01*
X415533Y214721D01*
X415455Y214657D01*
X415381Y214591D01*
X415309Y214522D01*
X415240Y214450D01*
X415174Y214376D01*
X415110Y214298D01*
X415050Y214219D01*
X414993Y214137D01*
X414939Y214053D01*
X414889Y213967D01*
X414842Y213879D01*
X414798Y213789D01*
X414758Y213698D01*
X414722Y213605D01*
X414689Y213511D01*
X414660Y213415D01*
X414635Y213319D01*
X414614Y213222D01*
X414596Y213123D01*
X414583Y213025D01*
X414573Y212925D01*
X414567Y212826D01*
X414565Y212726D01*
X414565Y211456D01*
X417105Y220675D02*
X425995Y223215D01*
X417105Y220675D02*
X417105Y227025D01*
X419645Y225120D02*
X414565Y225120D01*
D12*
X43173Y231470D02*
X43173Y203530D01*
X63493Y231470D02*
X63491Y231570D01*
X63485Y231669D01*
X63475Y231769D01*
X63462Y231867D01*
X63444Y231966D01*
X63423Y232063D01*
X63398Y232159D01*
X63369Y232255D01*
X63336Y232349D01*
X63300Y232442D01*
X63260Y232533D01*
X63216Y232623D01*
X63169Y232711D01*
X63119Y232797D01*
X63065Y232881D01*
X63008Y232963D01*
X62948Y233042D01*
X62884Y233120D01*
X62818Y233194D01*
X62749Y233266D01*
X62677Y233335D01*
X62603Y233401D01*
X62525Y233465D01*
X62446Y233525D01*
X62364Y233582D01*
X62280Y233636D01*
X62194Y233686D01*
X62106Y233733D01*
X62016Y233777D01*
X61925Y233817D01*
X61832Y233853D01*
X61738Y233886D01*
X61642Y233915D01*
X61546Y233940D01*
X61449Y233961D01*
X61350Y233979D01*
X61252Y233992D01*
X61152Y234002D01*
X61053Y234008D01*
X60953Y234010D01*
X63493Y203530D02*
X63491Y203430D01*
X63485Y203331D01*
X63475Y203231D01*
X63462Y203133D01*
X63444Y203034D01*
X63423Y202937D01*
X63398Y202841D01*
X63369Y202745D01*
X63336Y202651D01*
X63300Y202558D01*
X63260Y202467D01*
X63216Y202377D01*
X63169Y202289D01*
X63119Y202203D01*
X63065Y202119D01*
X63008Y202037D01*
X62948Y201958D01*
X62884Y201880D01*
X62818Y201806D01*
X62749Y201734D01*
X62677Y201665D01*
X62603Y201599D01*
X62525Y201535D01*
X62446Y201475D01*
X62364Y201418D01*
X62280Y201364D01*
X62194Y201314D01*
X62106Y201267D01*
X62016Y201223D01*
X61925Y201183D01*
X61832Y201147D01*
X61738Y201114D01*
X61642Y201085D01*
X61546Y201060D01*
X61449Y201039D01*
X61350Y201021D01*
X61252Y201008D01*
X61152Y200998D01*
X61053Y200992D01*
X60953Y200990D01*
X45713Y200990D02*
X45613Y200992D01*
X45514Y200998D01*
X45414Y201008D01*
X45316Y201021D01*
X45217Y201039D01*
X45120Y201060D01*
X45024Y201085D01*
X44928Y201114D01*
X44834Y201147D01*
X44741Y201183D01*
X44650Y201223D01*
X44560Y201267D01*
X44472Y201314D01*
X44386Y201364D01*
X44302Y201418D01*
X44220Y201475D01*
X44141Y201535D01*
X44063Y201599D01*
X43989Y201665D01*
X43917Y201734D01*
X43848Y201806D01*
X43782Y201880D01*
X43718Y201958D01*
X43658Y202037D01*
X43601Y202119D01*
X43547Y202203D01*
X43497Y202289D01*
X43450Y202377D01*
X43406Y202467D01*
X43366Y202558D01*
X43330Y202651D01*
X43297Y202745D01*
X43268Y202841D01*
X43243Y202937D01*
X43222Y203034D01*
X43204Y203133D01*
X43191Y203231D01*
X43181Y203331D01*
X43175Y203430D01*
X43173Y203530D01*
X43173Y231470D02*
X43175Y231570D01*
X43181Y231669D01*
X43191Y231769D01*
X43204Y231867D01*
X43222Y231966D01*
X43243Y232063D01*
X43268Y232159D01*
X43297Y232255D01*
X43330Y232349D01*
X43366Y232442D01*
X43406Y232533D01*
X43450Y232623D01*
X43497Y232711D01*
X43547Y232797D01*
X43601Y232881D01*
X43658Y232963D01*
X43718Y233042D01*
X43782Y233120D01*
X43848Y233194D01*
X43917Y233266D01*
X43989Y233335D01*
X44063Y233401D01*
X44141Y233465D01*
X44220Y233525D01*
X44302Y233582D01*
X44386Y233636D01*
X44472Y233686D01*
X44560Y233733D01*
X44650Y233777D01*
X44741Y233817D01*
X44834Y233853D01*
X44928Y233886D01*
X45024Y233915D01*
X45120Y233940D01*
X45217Y233961D01*
X45316Y233979D01*
X45414Y233992D01*
X45514Y234002D01*
X45613Y234008D01*
X45713Y234010D01*
X60953Y234010D01*
X60953Y200990D02*
X45713Y200990D01*
X63493Y203530D02*
X63493Y231470D01*
D13*
X67938Y207975D02*
X67838Y207973D01*
X67739Y207967D01*
X67639Y207957D01*
X67541Y207944D01*
X67442Y207926D01*
X67345Y207905D01*
X67249Y207880D01*
X67153Y207851D01*
X67059Y207818D01*
X66966Y207782D01*
X66875Y207742D01*
X66785Y207698D01*
X66697Y207651D01*
X66611Y207601D01*
X66527Y207547D01*
X66445Y207490D01*
X66366Y207430D01*
X66288Y207366D01*
X66214Y207300D01*
X66142Y207231D01*
X66073Y207159D01*
X66007Y207085D01*
X65943Y207007D01*
X65883Y206928D01*
X65826Y206846D01*
X65772Y206762D01*
X65722Y206676D01*
X65675Y206588D01*
X65631Y206498D01*
X65591Y206407D01*
X65555Y206314D01*
X65522Y206220D01*
X65493Y206124D01*
X65468Y206028D01*
X65447Y205931D01*
X65429Y205832D01*
X65416Y205734D01*
X65406Y205634D01*
X65400Y205535D01*
X65398Y205435D01*
X65400Y205294D01*
X65405Y205153D01*
X65415Y205012D01*
X65428Y204871D01*
X65444Y204731D01*
X65465Y204591D01*
X65489Y204452D01*
X65517Y204313D01*
X65548Y204176D01*
X65583Y204039D01*
X65621Y203903D01*
X65663Y203768D01*
X65709Y203635D01*
X65758Y203502D01*
X65811Y203371D01*
X65867Y203242D01*
X65926Y203113D01*
X65989Y202987D01*
X66055Y202862D01*
X66124Y202739D01*
X66197Y202618D01*
X66273Y202499D01*
X66352Y202381D01*
X66433Y202266D01*
X66518Y202154D01*
X66606Y202043D01*
X66697Y201935D01*
X66790Y201829D01*
X66887Y201726D01*
X66986Y201625D01*
X74288Y201943D02*
X74388Y201945D01*
X74487Y201951D01*
X74587Y201961D01*
X74685Y201974D01*
X74784Y201992D01*
X74881Y202013D01*
X74977Y202038D01*
X75073Y202067D01*
X75167Y202100D01*
X75260Y202136D01*
X75351Y202176D01*
X75441Y202220D01*
X75529Y202267D01*
X75615Y202317D01*
X75699Y202371D01*
X75781Y202428D01*
X75860Y202488D01*
X75938Y202552D01*
X76012Y202618D01*
X76084Y202687D01*
X76153Y202759D01*
X76219Y202833D01*
X76283Y202911D01*
X76343Y202990D01*
X76400Y203072D01*
X76454Y203156D01*
X76504Y203242D01*
X76551Y203330D01*
X76595Y203420D01*
X76635Y203511D01*
X76671Y203604D01*
X76704Y203698D01*
X76733Y203794D01*
X76758Y203890D01*
X76779Y203987D01*
X76797Y204086D01*
X76810Y204184D01*
X76820Y204284D01*
X76826Y204383D01*
X76828Y204483D01*
X76829Y204483D02*
X76827Y204616D01*
X76822Y204749D01*
X76812Y204882D01*
X76799Y205015D01*
X76782Y205147D01*
X76762Y205279D01*
X76738Y205410D01*
X76710Y205540D01*
X76679Y205670D01*
X76644Y205798D01*
X76605Y205926D01*
X76563Y206052D01*
X76517Y206177D01*
X76468Y206301D01*
X76416Y206424D01*
X76360Y206545D01*
X76300Y206664D01*
X76238Y206782D01*
X76172Y206897D01*
X76103Y207011D01*
X76030Y207123D01*
X75955Y207233D01*
X75876Y207341D01*
X72065Y203212D02*
X72117Y203128D01*
X72172Y203045D01*
X72231Y202965D01*
X72292Y202887D01*
X72356Y202812D01*
X72424Y202739D01*
X72494Y202668D01*
X72566Y202601D01*
X72641Y202536D01*
X72719Y202474D01*
X72799Y202415D01*
X72881Y202359D01*
X72965Y202307D01*
X73051Y202258D01*
X73139Y202212D01*
X73229Y202169D01*
X73320Y202130D01*
X73413Y202095D01*
X73507Y202063D01*
X73602Y202035D01*
X73698Y202010D01*
X73795Y201990D01*
X73893Y201972D01*
X73991Y201959D01*
X74090Y201950D01*
X74189Y201944D01*
X74288Y201942D01*
X70161Y206705D02*
X70109Y206789D01*
X70054Y206872D01*
X69995Y206952D01*
X69934Y207030D01*
X69870Y207105D01*
X69802Y207178D01*
X69732Y207249D01*
X69660Y207316D01*
X69585Y207381D01*
X69507Y207443D01*
X69427Y207502D01*
X69345Y207558D01*
X69261Y207610D01*
X69175Y207659D01*
X69087Y207705D01*
X68997Y207748D01*
X68906Y207787D01*
X68813Y207822D01*
X68719Y207854D01*
X68624Y207882D01*
X68528Y207907D01*
X68431Y207927D01*
X68333Y207945D01*
X68235Y207958D01*
X68136Y207967D01*
X68037Y207973D01*
X67938Y207975D01*
X70161Y206705D02*
X72066Y203213D01*
X67938Y215266D02*
X76828Y215266D01*
X67938Y215266D02*
X67838Y215264D01*
X67739Y215258D01*
X67639Y215248D01*
X67541Y215235D01*
X67442Y215217D01*
X67345Y215196D01*
X67249Y215171D01*
X67153Y215142D01*
X67059Y215109D01*
X66966Y215073D01*
X66875Y215033D01*
X66785Y214989D01*
X66697Y214942D01*
X66611Y214892D01*
X66527Y214838D01*
X66445Y214781D01*
X66366Y214721D01*
X66288Y214657D01*
X66214Y214591D01*
X66142Y214522D01*
X66073Y214450D01*
X66007Y214376D01*
X65943Y214298D01*
X65883Y214219D01*
X65826Y214137D01*
X65772Y214053D01*
X65722Y213967D01*
X65675Y213879D01*
X65631Y213789D01*
X65591Y213698D01*
X65555Y213605D01*
X65522Y213511D01*
X65493Y213415D01*
X65468Y213319D01*
X65447Y213222D01*
X65429Y213123D01*
X65416Y213025D01*
X65406Y212925D01*
X65400Y212826D01*
X65398Y212726D01*
X65398Y211456D01*
X65398Y220675D02*
X65398Y224485D01*
X65400Y224585D01*
X65406Y224684D01*
X65416Y224784D01*
X65429Y224882D01*
X65447Y224981D01*
X65468Y225078D01*
X65493Y225174D01*
X65522Y225270D01*
X65555Y225364D01*
X65591Y225457D01*
X65631Y225548D01*
X65675Y225638D01*
X65722Y225726D01*
X65772Y225812D01*
X65826Y225896D01*
X65883Y225978D01*
X65943Y226057D01*
X66007Y226135D01*
X66073Y226209D01*
X66142Y226281D01*
X66214Y226350D01*
X66288Y226416D01*
X66366Y226480D01*
X66445Y226540D01*
X66527Y226597D01*
X66611Y226651D01*
X66697Y226701D01*
X66785Y226748D01*
X66875Y226792D01*
X66966Y226832D01*
X67059Y226868D01*
X67153Y226901D01*
X67249Y226930D01*
X67345Y226955D01*
X67442Y226976D01*
X67541Y226994D01*
X67639Y227007D01*
X67739Y227017D01*
X67838Y227023D01*
X67938Y227025D01*
X69208Y227025D01*
X69308Y227023D01*
X69407Y227017D01*
X69507Y227007D01*
X69605Y226994D01*
X69704Y226976D01*
X69801Y226955D01*
X69897Y226930D01*
X69993Y226901D01*
X70087Y226868D01*
X70180Y226832D01*
X70271Y226792D01*
X70361Y226748D01*
X70449Y226701D01*
X70535Y226651D01*
X70619Y226597D01*
X70701Y226540D01*
X70780Y226480D01*
X70858Y226416D01*
X70932Y226350D01*
X71004Y226281D01*
X71073Y226209D01*
X71139Y226135D01*
X71203Y226057D01*
X71263Y225978D01*
X71320Y225896D01*
X71374Y225812D01*
X71424Y225726D01*
X71471Y225638D01*
X71515Y225548D01*
X71555Y225457D01*
X71591Y225364D01*
X71624Y225270D01*
X71653Y225174D01*
X71678Y225078D01*
X71699Y224981D01*
X71717Y224882D01*
X71730Y224784D01*
X71740Y224684D01*
X71746Y224585D01*
X71748Y224485D01*
X71748Y220675D01*
X76828Y220675D01*
X76828Y227025D01*
D12*
X159007Y231470D02*
X159007Y203530D01*
X179327Y231470D02*
X179325Y231570D01*
X179319Y231669D01*
X179309Y231769D01*
X179296Y231867D01*
X179278Y231966D01*
X179257Y232063D01*
X179232Y232159D01*
X179203Y232255D01*
X179170Y232349D01*
X179134Y232442D01*
X179094Y232533D01*
X179050Y232623D01*
X179003Y232711D01*
X178953Y232797D01*
X178899Y232881D01*
X178842Y232963D01*
X178782Y233042D01*
X178718Y233120D01*
X178652Y233194D01*
X178583Y233266D01*
X178511Y233335D01*
X178437Y233401D01*
X178359Y233465D01*
X178280Y233525D01*
X178198Y233582D01*
X178114Y233636D01*
X178028Y233686D01*
X177940Y233733D01*
X177850Y233777D01*
X177759Y233817D01*
X177666Y233853D01*
X177572Y233886D01*
X177476Y233915D01*
X177380Y233940D01*
X177283Y233961D01*
X177184Y233979D01*
X177086Y233992D01*
X176986Y234002D01*
X176887Y234008D01*
X176787Y234010D01*
X179327Y203530D02*
X179325Y203430D01*
X179319Y203331D01*
X179309Y203231D01*
X179296Y203133D01*
X179278Y203034D01*
X179257Y202937D01*
X179232Y202841D01*
X179203Y202745D01*
X179170Y202651D01*
X179134Y202558D01*
X179094Y202467D01*
X179050Y202377D01*
X179003Y202289D01*
X178953Y202203D01*
X178899Y202119D01*
X178842Y202037D01*
X178782Y201958D01*
X178718Y201880D01*
X178652Y201806D01*
X178583Y201734D01*
X178511Y201665D01*
X178437Y201599D01*
X178359Y201535D01*
X178280Y201475D01*
X178198Y201418D01*
X178114Y201364D01*
X178028Y201314D01*
X177940Y201267D01*
X177850Y201223D01*
X177759Y201183D01*
X177666Y201147D01*
X177572Y201114D01*
X177476Y201085D01*
X177380Y201060D01*
X177283Y201039D01*
X177184Y201021D01*
X177086Y201008D01*
X176986Y200998D01*
X176887Y200992D01*
X176787Y200990D01*
X161547Y200990D02*
X161447Y200992D01*
X161348Y200998D01*
X161248Y201008D01*
X161150Y201021D01*
X161051Y201039D01*
X160954Y201060D01*
X160858Y201085D01*
X160762Y201114D01*
X160668Y201147D01*
X160575Y201183D01*
X160484Y201223D01*
X160394Y201267D01*
X160306Y201314D01*
X160220Y201364D01*
X160136Y201418D01*
X160054Y201475D01*
X159975Y201535D01*
X159897Y201599D01*
X159823Y201665D01*
X159751Y201734D01*
X159682Y201806D01*
X159616Y201880D01*
X159552Y201958D01*
X159492Y202037D01*
X159435Y202119D01*
X159381Y202203D01*
X159331Y202289D01*
X159284Y202377D01*
X159240Y202467D01*
X159200Y202558D01*
X159164Y202651D01*
X159131Y202745D01*
X159102Y202841D01*
X159077Y202937D01*
X159056Y203034D01*
X159038Y203133D01*
X159025Y203231D01*
X159015Y203331D01*
X159009Y203430D01*
X159007Y203530D01*
X159007Y231470D02*
X159009Y231570D01*
X159015Y231669D01*
X159025Y231769D01*
X159038Y231867D01*
X159056Y231966D01*
X159077Y232063D01*
X159102Y232159D01*
X159131Y232255D01*
X159164Y232349D01*
X159200Y232442D01*
X159240Y232533D01*
X159284Y232623D01*
X159331Y232711D01*
X159381Y232797D01*
X159435Y232881D01*
X159492Y232963D01*
X159552Y233042D01*
X159616Y233120D01*
X159682Y233194D01*
X159751Y233266D01*
X159823Y233335D01*
X159897Y233401D01*
X159975Y233465D01*
X160054Y233525D01*
X160136Y233582D01*
X160220Y233636D01*
X160306Y233686D01*
X160394Y233733D01*
X160484Y233777D01*
X160575Y233817D01*
X160668Y233853D01*
X160762Y233886D01*
X160858Y233915D01*
X160954Y233940D01*
X161051Y233961D01*
X161150Y233979D01*
X161248Y233992D01*
X161348Y234002D01*
X161447Y234008D01*
X161547Y234010D01*
X176787Y234010D01*
X176787Y200990D02*
X161547Y200990D01*
X179327Y203530D02*
X179327Y231470D01*
D13*
X183772Y207975D02*
X183672Y207973D01*
X183573Y207967D01*
X183473Y207957D01*
X183375Y207944D01*
X183276Y207926D01*
X183179Y207905D01*
X183083Y207880D01*
X182987Y207851D01*
X182893Y207818D01*
X182800Y207782D01*
X182709Y207742D01*
X182619Y207698D01*
X182531Y207651D01*
X182445Y207601D01*
X182361Y207547D01*
X182279Y207490D01*
X182200Y207430D01*
X182122Y207366D01*
X182048Y207300D01*
X181976Y207231D01*
X181907Y207159D01*
X181841Y207085D01*
X181777Y207007D01*
X181717Y206928D01*
X181660Y206846D01*
X181606Y206762D01*
X181556Y206676D01*
X181509Y206588D01*
X181465Y206498D01*
X181425Y206407D01*
X181389Y206314D01*
X181356Y206220D01*
X181327Y206124D01*
X181302Y206028D01*
X181281Y205931D01*
X181263Y205832D01*
X181250Y205734D01*
X181240Y205634D01*
X181234Y205535D01*
X181232Y205435D01*
X181231Y205435D02*
X181233Y205294D01*
X181238Y205153D01*
X181248Y205012D01*
X181261Y204871D01*
X181277Y204731D01*
X181298Y204591D01*
X181322Y204452D01*
X181350Y204313D01*
X181381Y204176D01*
X181416Y204039D01*
X181454Y203903D01*
X181496Y203768D01*
X181542Y203635D01*
X181591Y203502D01*
X181644Y203371D01*
X181700Y203242D01*
X181759Y203113D01*
X181822Y202987D01*
X181888Y202862D01*
X181957Y202739D01*
X182030Y202618D01*
X182106Y202499D01*
X182185Y202381D01*
X182266Y202266D01*
X182351Y202154D01*
X182439Y202043D01*
X182530Y201935D01*
X182623Y201829D01*
X182720Y201726D01*
X182819Y201625D01*
X190122Y201943D02*
X190222Y201945D01*
X190321Y201951D01*
X190421Y201961D01*
X190519Y201974D01*
X190618Y201992D01*
X190715Y202013D01*
X190811Y202038D01*
X190907Y202067D01*
X191001Y202100D01*
X191094Y202136D01*
X191185Y202176D01*
X191275Y202220D01*
X191363Y202267D01*
X191449Y202317D01*
X191533Y202371D01*
X191615Y202428D01*
X191694Y202488D01*
X191772Y202552D01*
X191846Y202618D01*
X191918Y202687D01*
X191987Y202759D01*
X192053Y202833D01*
X192117Y202911D01*
X192177Y202990D01*
X192234Y203072D01*
X192288Y203156D01*
X192338Y203242D01*
X192385Y203330D01*
X192429Y203420D01*
X192469Y203511D01*
X192505Y203604D01*
X192538Y203698D01*
X192567Y203794D01*
X192592Y203890D01*
X192613Y203987D01*
X192631Y204086D01*
X192644Y204184D01*
X192654Y204284D01*
X192660Y204383D01*
X192662Y204483D01*
X192660Y204616D01*
X192655Y204749D01*
X192645Y204882D01*
X192632Y205015D01*
X192615Y205147D01*
X192595Y205279D01*
X192571Y205410D01*
X192543Y205540D01*
X192512Y205670D01*
X192477Y205798D01*
X192438Y205926D01*
X192396Y206052D01*
X192350Y206177D01*
X192301Y206301D01*
X192249Y206424D01*
X192193Y206545D01*
X192133Y206664D01*
X192071Y206782D01*
X192005Y206897D01*
X191936Y207011D01*
X191863Y207123D01*
X191788Y207233D01*
X191709Y207341D01*
X187899Y203212D02*
X187951Y203128D01*
X188006Y203045D01*
X188065Y202965D01*
X188126Y202887D01*
X188190Y202812D01*
X188258Y202739D01*
X188328Y202668D01*
X188400Y202601D01*
X188475Y202536D01*
X188553Y202474D01*
X188633Y202415D01*
X188715Y202359D01*
X188799Y202307D01*
X188885Y202258D01*
X188973Y202212D01*
X189063Y202169D01*
X189154Y202130D01*
X189247Y202095D01*
X189341Y202063D01*
X189436Y202035D01*
X189532Y202010D01*
X189629Y201990D01*
X189727Y201972D01*
X189825Y201959D01*
X189924Y201950D01*
X190023Y201944D01*
X190122Y201942D01*
X185995Y206705D02*
X185943Y206789D01*
X185888Y206872D01*
X185829Y206952D01*
X185768Y207030D01*
X185704Y207105D01*
X185636Y207178D01*
X185566Y207249D01*
X185494Y207316D01*
X185419Y207381D01*
X185341Y207443D01*
X185261Y207502D01*
X185179Y207558D01*
X185095Y207610D01*
X185009Y207659D01*
X184921Y207705D01*
X184831Y207748D01*
X184740Y207787D01*
X184647Y207822D01*
X184553Y207854D01*
X184458Y207882D01*
X184362Y207907D01*
X184265Y207927D01*
X184167Y207945D01*
X184069Y207958D01*
X183970Y207967D01*
X183871Y207973D01*
X183772Y207975D01*
X185994Y206705D02*
X187899Y203213D01*
X183772Y215266D02*
X192662Y215266D01*
X183772Y215266D02*
X183672Y215264D01*
X183573Y215258D01*
X183473Y215248D01*
X183375Y215235D01*
X183276Y215217D01*
X183179Y215196D01*
X183083Y215171D01*
X182987Y215142D01*
X182893Y215109D01*
X182800Y215073D01*
X182709Y215033D01*
X182619Y214989D01*
X182531Y214942D01*
X182445Y214892D01*
X182361Y214838D01*
X182279Y214781D01*
X182200Y214721D01*
X182122Y214657D01*
X182048Y214591D01*
X181976Y214522D01*
X181907Y214450D01*
X181841Y214376D01*
X181777Y214298D01*
X181717Y214219D01*
X181660Y214137D01*
X181606Y214053D01*
X181556Y213967D01*
X181509Y213879D01*
X181465Y213789D01*
X181425Y213698D01*
X181389Y213605D01*
X181356Y213511D01*
X181327Y213415D01*
X181302Y213319D01*
X181281Y213222D01*
X181263Y213123D01*
X181250Y213025D01*
X181240Y212925D01*
X181234Y212826D01*
X181232Y212726D01*
X181232Y211456D01*
X187582Y220675D02*
X187582Y224485D01*
X187580Y224585D01*
X187574Y224684D01*
X187564Y224784D01*
X187551Y224882D01*
X187533Y224981D01*
X187512Y225078D01*
X187487Y225174D01*
X187458Y225270D01*
X187425Y225364D01*
X187389Y225457D01*
X187349Y225548D01*
X187305Y225638D01*
X187258Y225726D01*
X187208Y225812D01*
X187154Y225896D01*
X187097Y225978D01*
X187037Y226057D01*
X186973Y226135D01*
X186907Y226209D01*
X186838Y226281D01*
X186766Y226350D01*
X186692Y226416D01*
X186614Y226480D01*
X186535Y226540D01*
X186453Y226597D01*
X186369Y226651D01*
X186283Y226701D01*
X186195Y226748D01*
X186105Y226792D01*
X186014Y226832D01*
X185921Y226868D01*
X185827Y226901D01*
X185731Y226930D01*
X185635Y226955D01*
X185538Y226976D01*
X185439Y226994D01*
X185341Y227007D01*
X185241Y227017D01*
X185142Y227023D01*
X185042Y227025D01*
X184407Y227025D01*
X184296Y227023D01*
X184186Y227017D01*
X184075Y227008D01*
X183965Y226994D01*
X183856Y226977D01*
X183747Y226956D01*
X183639Y226931D01*
X183532Y226902D01*
X183426Y226870D01*
X183321Y226834D01*
X183218Y226794D01*
X183116Y226751D01*
X183015Y226704D01*
X182916Y226653D01*
X182820Y226600D01*
X182725Y226543D01*
X182632Y226482D01*
X182541Y226419D01*
X182452Y226352D01*
X182366Y226282D01*
X182283Y226209D01*
X182201Y226134D01*
X182123Y226056D01*
X182048Y225974D01*
X181975Y225891D01*
X181905Y225805D01*
X181838Y225716D01*
X181775Y225625D01*
X181714Y225532D01*
X181657Y225438D01*
X181604Y225341D01*
X181553Y225242D01*
X181506Y225141D01*
X181463Y225039D01*
X181423Y224936D01*
X181387Y224831D01*
X181355Y224725D01*
X181326Y224618D01*
X181301Y224510D01*
X181280Y224401D01*
X181263Y224292D01*
X181249Y224182D01*
X181240Y224071D01*
X181234Y223961D01*
X181232Y223850D01*
X181234Y223739D01*
X181240Y223629D01*
X181249Y223518D01*
X181263Y223408D01*
X181280Y223299D01*
X181301Y223190D01*
X181326Y223082D01*
X181355Y222975D01*
X181387Y222869D01*
X181423Y222764D01*
X181463Y222661D01*
X181506Y222559D01*
X181553Y222458D01*
X181604Y222359D01*
X181657Y222263D01*
X181714Y222168D01*
X181775Y222075D01*
X181838Y221984D01*
X181905Y221895D01*
X181975Y221809D01*
X182048Y221726D01*
X182123Y221644D01*
X182201Y221566D01*
X182283Y221491D01*
X182366Y221418D01*
X182452Y221348D01*
X182541Y221281D01*
X182632Y221218D01*
X182725Y221157D01*
X182820Y221100D01*
X182916Y221047D01*
X183015Y220996D01*
X183116Y220949D01*
X183218Y220906D01*
X183321Y220866D01*
X183426Y220830D01*
X183532Y220798D01*
X183639Y220769D01*
X183747Y220744D01*
X183856Y220723D01*
X183965Y220706D01*
X184075Y220692D01*
X184186Y220683D01*
X184296Y220677D01*
X184407Y220675D01*
X187582Y220675D01*
X187722Y220677D01*
X187862Y220683D01*
X188002Y220692D01*
X188141Y220706D01*
X188280Y220723D01*
X188418Y220744D01*
X188556Y220769D01*
X188693Y220798D01*
X188829Y220830D01*
X188964Y220867D01*
X189098Y220907D01*
X189231Y220950D01*
X189363Y220998D01*
X189494Y221048D01*
X189623Y221103D01*
X189750Y221161D01*
X189876Y221222D01*
X190000Y221287D01*
X190122Y221356D01*
X190242Y221427D01*
X190360Y221502D01*
X190477Y221580D01*
X190591Y221662D01*
X190702Y221746D01*
X190811Y221834D01*
X190918Y221924D01*
X191023Y222018D01*
X191124Y222114D01*
X191223Y222213D01*
X191319Y222314D01*
X191413Y222419D01*
X191503Y222526D01*
X191591Y222635D01*
X191675Y222746D01*
X191757Y222860D01*
X191835Y222977D01*
X191910Y223095D01*
X191981Y223215D01*
X192050Y223337D01*
X192115Y223461D01*
X192176Y223587D01*
X192234Y223714D01*
X192289Y223843D01*
X192339Y223974D01*
X192387Y224106D01*
X192430Y224239D01*
X192470Y224373D01*
X192507Y224508D01*
X192539Y224644D01*
X192568Y224781D01*
X192593Y224919D01*
X192614Y225057D01*
X192631Y225196D01*
X192645Y225335D01*
X192654Y225475D01*
X192660Y225615D01*
X192662Y225755D01*
D12*
X217340Y231470D02*
X217340Y203530D01*
X237660Y231470D02*
X237658Y231570D01*
X237652Y231669D01*
X237642Y231769D01*
X237629Y231867D01*
X237611Y231966D01*
X237590Y232063D01*
X237565Y232159D01*
X237536Y232255D01*
X237503Y232349D01*
X237467Y232442D01*
X237427Y232533D01*
X237383Y232623D01*
X237336Y232711D01*
X237286Y232797D01*
X237232Y232881D01*
X237175Y232963D01*
X237115Y233042D01*
X237051Y233120D01*
X236985Y233194D01*
X236916Y233266D01*
X236844Y233335D01*
X236770Y233401D01*
X236692Y233465D01*
X236613Y233525D01*
X236531Y233582D01*
X236447Y233636D01*
X236361Y233686D01*
X236273Y233733D01*
X236183Y233777D01*
X236092Y233817D01*
X235999Y233853D01*
X235905Y233886D01*
X235809Y233915D01*
X235713Y233940D01*
X235616Y233961D01*
X235517Y233979D01*
X235419Y233992D01*
X235319Y234002D01*
X235220Y234008D01*
X235120Y234010D01*
X237660Y203530D02*
X237658Y203430D01*
X237652Y203331D01*
X237642Y203231D01*
X237629Y203133D01*
X237611Y203034D01*
X237590Y202937D01*
X237565Y202841D01*
X237536Y202745D01*
X237503Y202651D01*
X237467Y202558D01*
X237427Y202467D01*
X237383Y202377D01*
X237336Y202289D01*
X237286Y202203D01*
X237232Y202119D01*
X237175Y202037D01*
X237115Y201958D01*
X237051Y201880D01*
X236985Y201806D01*
X236916Y201734D01*
X236844Y201665D01*
X236770Y201599D01*
X236692Y201535D01*
X236613Y201475D01*
X236531Y201418D01*
X236447Y201364D01*
X236361Y201314D01*
X236273Y201267D01*
X236183Y201223D01*
X236092Y201183D01*
X235999Y201147D01*
X235905Y201114D01*
X235809Y201085D01*
X235713Y201060D01*
X235616Y201039D01*
X235517Y201021D01*
X235419Y201008D01*
X235319Y200998D01*
X235220Y200992D01*
X235120Y200990D01*
X219880Y200990D02*
X219780Y200992D01*
X219681Y200998D01*
X219581Y201008D01*
X219483Y201021D01*
X219384Y201039D01*
X219287Y201060D01*
X219191Y201085D01*
X219095Y201114D01*
X219001Y201147D01*
X218908Y201183D01*
X218817Y201223D01*
X218727Y201267D01*
X218639Y201314D01*
X218553Y201364D01*
X218469Y201418D01*
X218387Y201475D01*
X218308Y201535D01*
X218230Y201599D01*
X218156Y201665D01*
X218084Y201734D01*
X218015Y201806D01*
X217949Y201880D01*
X217885Y201958D01*
X217825Y202037D01*
X217768Y202119D01*
X217714Y202203D01*
X217664Y202289D01*
X217617Y202377D01*
X217573Y202467D01*
X217533Y202558D01*
X217497Y202651D01*
X217464Y202745D01*
X217435Y202841D01*
X217410Y202937D01*
X217389Y203034D01*
X217371Y203133D01*
X217358Y203231D01*
X217348Y203331D01*
X217342Y203430D01*
X217340Y203530D01*
X217340Y231470D02*
X217342Y231570D01*
X217348Y231669D01*
X217358Y231769D01*
X217371Y231867D01*
X217389Y231966D01*
X217410Y232063D01*
X217435Y232159D01*
X217464Y232255D01*
X217497Y232349D01*
X217533Y232442D01*
X217573Y232533D01*
X217617Y232623D01*
X217664Y232711D01*
X217714Y232797D01*
X217768Y232881D01*
X217825Y232963D01*
X217885Y233042D01*
X217949Y233120D01*
X218015Y233194D01*
X218084Y233266D01*
X218156Y233335D01*
X218230Y233401D01*
X218308Y233465D01*
X218387Y233525D01*
X218469Y233582D01*
X218553Y233636D01*
X218639Y233686D01*
X218727Y233733D01*
X218817Y233777D01*
X218908Y233817D01*
X219001Y233853D01*
X219095Y233886D01*
X219191Y233915D01*
X219287Y233940D01*
X219384Y233961D01*
X219483Y233979D01*
X219581Y233992D01*
X219681Y234002D01*
X219780Y234008D01*
X219880Y234010D01*
X235120Y234010D01*
X235120Y200990D02*
X219880Y200990D01*
X237660Y203530D02*
X237660Y231470D01*
D13*
X242105Y207975D02*
X242005Y207973D01*
X241906Y207967D01*
X241806Y207957D01*
X241708Y207944D01*
X241609Y207926D01*
X241512Y207905D01*
X241416Y207880D01*
X241320Y207851D01*
X241226Y207818D01*
X241133Y207782D01*
X241042Y207742D01*
X240952Y207698D01*
X240864Y207651D01*
X240778Y207601D01*
X240694Y207547D01*
X240612Y207490D01*
X240533Y207430D01*
X240455Y207366D01*
X240381Y207300D01*
X240309Y207231D01*
X240240Y207159D01*
X240174Y207085D01*
X240110Y207007D01*
X240050Y206928D01*
X239993Y206846D01*
X239939Y206762D01*
X239889Y206676D01*
X239842Y206588D01*
X239798Y206498D01*
X239758Y206407D01*
X239722Y206314D01*
X239689Y206220D01*
X239660Y206124D01*
X239635Y206028D01*
X239614Y205931D01*
X239596Y205832D01*
X239583Y205734D01*
X239573Y205634D01*
X239567Y205535D01*
X239565Y205435D01*
X239567Y205294D01*
X239572Y205153D01*
X239582Y205012D01*
X239595Y204871D01*
X239611Y204731D01*
X239632Y204591D01*
X239656Y204452D01*
X239684Y204313D01*
X239715Y204176D01*
X239750Y204039D01*
X239788Y203903D01*
X239830Y203768D01*
X239876Y203635D01*
X239925Y203502D01*
X239978Y203371D01*
X240034Y203242D01*
X240093Y203113D01*
X240156Y202987D01*
X240222Y202862D01*
X240291Y202739D01*
X240364Y202618D01*
X240440Y202499D01*
X240519Y202381D01*
X240600Y202266D01*
X240685Y202154D01*
X240773Y202043D01*
X240864Y201935D01*
X240957Y201829D01*
X241054Y201726D01*
X241153Y201625D01*
X248455Y201943D02*
X248555Y201945D01*
X248654Y201951D01*
X248754Y201961D01*
X248852Y201974D01*
X248951Y201992D01*
X249048Y202013D01*
X249144Y202038D01*
X249240Y202067D01*
X249334Y202100D01*
X249427Y202136D01*
X249518Y202176D01*
X249608Y202220D01*
X249696Y202267D01*
X249782Y202317D01*
X249866Y202371D01*
X249948Y202428D01*
X250027Y202488D01*
X250105Y202552D01*
X250179Y202618D01*
X250251Y202687D01*
X250320Y202759D01*
X250386Y202833D01*
X250450Y202911D01*
X250510Y202990D01*
X250567Y203072D01*
X250621Y203156D01*
X250671Y203242D01*
X250718Y203330D01*
X250762Y203420D01*
X250802Y203511D01*
X250838Y203604D01*
X250871Y203698D01*
X250900Y203794D01*
X250925Y203890D01*
X250946Y203987D01*
X250964Y204086D01*
X250977Y204184D01*
X250987Y204284D01*
X250993Y204383D01*
X250995Y204483D01*
X250996Y204483D02*
X250994Y204616D01*
X250989Y204749D01*
X250979Y204882D01*
X250966Y205015D01*
X250949Y205147D01*
X250929Y205279D01*
X250905Y205410D01*
X250877Y205540D01*
X250846Y205670D01*
X250811Y205798D01*
X250772Y205926D01*
X250730Y206052D01*
X250684Y206177D01*
X250635Y206301D01*
X250583Y206424D01*
X250527Y206545D01*
X250467Y206664D01*
X250405Y206782D01*
X250339Y206897D01*
X250270Y207011D01*
X250197Y207123D01*
X250122Y207233D01*
X250043Y207341D01*
X246232Y203212D02*
X246284Y203128D01*
X246339Y203045D01*
X246398Y202965D01*
X246459Y202887D01*
X246523Y202812D01*
X246591Y202739D01*
X246661Y202668D01*
X246733Y202601D01*
X246808Y202536D01*
X246886Y202474D01*
X246966Y202415D01*
X247048Y202359D01*
X247132Y202307D01*
X247218Y202258D01*
X247306Y202212D01*
X247396Y202169D01*
X247487Y202130D01*
X247580Y202095D01*
X247674Y202063D01*
X247769Y202035D01*
X247865Y202010D01*
X247962Y201990D01*
X248060Y201972D01*
X248158Y201959D01*
X248257Y201950D01*
X248356Y201944D01*
X248455Y201942D01*
X244328Y206705D02*
X244276Y206789D01*
X244221Y206872D01*
X244162Y206952D01*
X244101Y207030D01*
X244037Y207105D01*
X243969Y207178D01*
X243899Y207249D01*
X243827Y207316D01*
X243752Y207381D01*
X243674Y207443D01*
X243594Y207502D01*
X243512Y207558D01*
X243428Y207610D01*
X243342Y207659D01*
X243254Y207705D01*
X243164Y207748D01*
X243073Y207787D01*
X242980Y207822D01*
X242886Y207854D01*
X242791Y207882D01*
X242695Y207907D01*
X242598Y207927D01*
X242500Y207945D01*
X242402Y207958D01*
X242303Y207967D01*
X242204Y207973D01*
X242105Y207975D01*
X244328Y206705D02*
X246233Y203213D01*
X242105Y215266D02*
X250995Y215266D01*
X242105Y215266D02*
X242005Y215264D01*
X241906Y215258D01*
X241806Y215248D01*
X241708Y215235D01*
X241609Y215217D01*
X241512Y215196D01*
X241416Y215171D01*
X241320Y215142D01*
X241226Y215109D01*
X241133Y215073D01*
X241042Y215033D01*
X240952Y214989D01*
X240864Y214942D01*
X240778Y214892D01*
X240694Y214838D01*
X240612Y214781D01*
X240533Y214721D01*
X240455Y214657D01*
X240381Y214591D01*
X240309Y214522D01*
X240240Y214450D01*
X240174Y214376D01*
X240110Y214298D01*
X240050Y214219D01*
X239993Y214137D01*
X239939Y214053D01*
X239889Y213967D01*
X239842Y213879D01*
X239798Y213789D01*
X239758Y213698D01*
X239722Y213605D01*
X239689Y213511D01*
X239660Y213415D01*
X239635Y213319D01*
X239614Y213222D01*
X239596Y213123D01*
X239583Y213025D01*
X239573Y212925D01*
X239567Y212826D01*
X239565Y212726D01*
X239565Y211456D01*
X249725Y220675D02*
X250995Y220675D01*
X250995Y227025D01*
X239565Y223850D01*
D12*
X443410Y567340D02*
X486590Y567340D01*
X443410Y587660D02*
X443310Y587658D01*
X443211Y587652D01*
X443111Y587642D01*
X443013Y587629D01*
X442914Y587611D01*
X442817Y587590D01*
X442721Y587565D01*
X442625Y587536D01*
X442531Y587503D01*
X442438Y587467D01*
X442347Y587427D01*
X442257Y587383D01*
X442169Y587336D01*
X442083Y587286D01*
X441999Y587232D01*
X441917Y587175D01*
X441838Y587115D01*
X441760Y587051D01*
X441686Y586985D01*
X441614Y586916D01*
X441545Y586844D01*
X441479Y586770D01*
X441415Y586692D01*
X441355Y586613D01*
X441298Y586531D01*
X441244Y586447D01*
X441194Y586361D01*
X441147Y586273D01*
X441103Y586183D01*
X441063Y586092D01*
X441027Y585999D01*
X440994Y585905D01*
X440965Y585809D01*
X440940Y585713D01*
X440919Y585616D01*
X440901Y585517D01*
X440888Y585419D01*
X440878Y585319D01*
X440872Y585220D01*
X440870Y585120D01*
X486590Y587660D02*
X486690Y587658D01*
X486789Y587652D01*
X486889Y587642D01*
X486987Y587629D01*
X487086Y587611D01*
X487183Y587590D01*
X487279Y587565D01*
X487375Y587536D01*
X487469Y587503D01*
X487562Y587467D01*
X487653Y587427D01*
X487743Y587383D01*
X487831Y587336D01*
X487917Y587286D01*
X488001Y587232D01*
X488083Y587175D01*
X488162Y587115D01*
X488240Y587051D01*
X488314Y586985D01*
X488386Y586916D01*
X488455Y586844D01*
X488521Y586770D01*
X488585Y586692D01*
X488645Y586613D01*
X488702Y586531D01*
X488756Y586447D01*
X488806Y586361D01*
X488853Y586273D01*
X488897Y586183D01*
X488937Y586092D01*
X488973Y585999D01*
X489006Y585905D01*
X489035Y585809D01*
X489060Y585713D01*
X489081Y585616D01*
X489099Y585517D01*
X489112Y585419D01*
X489122Y585319D01*
X489128Y585220D01*
X489130Y585120D01*
X489130Y569880D02*
X489128Y569780D01*
X489122Y569681D01*
X489112Y569581D01*
X489099Y569483D01*
X489081Y569384D01*
X489060Y569287D01*
X489035Y569191D01*
X489006Y569095D01*
X488973Y569001D01*
X488937Y568908D01*
X488897Y568817D01*
X488853Y568727D01*
X488806Y568639D01*
X488756Y568553D01*
X488702Y568469D01*
X488645Y568387D01*
X488585Y568308D01*
X488521Y568230D01*
X488455Y568156D01*
X488386Y568084D01*
X488314Y568015D01*
X488240Y567949D01*
X488162Y567885D01*
X488083Y567825D01*
X488001Y567768D01*
X487917Y567714D01*
X487831Y567664D01*
X487743Y567617D01*
X487653Y567573D01*
X487562Y567533D01*
X487469Y567497D01*
X487375Y567464D01*
X487279Y567435D01*
X487183Y567410D01*
X487086Y567389D01*
X486987Y567371D01*
X486889Y567358D01*
X486789Y567348D01*
X486690Y567342D01*
X486590Y567340D01*
X443410Y567340D02*
X443310Y567342D01*
X443211Y567348D01*
X443111Y567358D01*
X443013Y567371D01*
X442914Y567389D01*
X442817Y567410D01*
X442721Y567435D01*
X442625Y567464D01*
X442531Y567497D01*
X442438Y567533D01*
X442347Y567573D01*
X442257Y567617D01*
X442169Y567664D01*
X442083Y567714D01*
X441999Y567768D01*
X441917Y567825D01*
X441838Y567885D01*
X441760Y567949D01*
X441686Y568015D01*
X441614Y568084D01*
X441545Y568156D01*
X441479Y568230D01*
X441415Y568308D01*
X441355Y568387D01*
X441298Y568469D01*
X441244Y568553D01*
X441194Y568639D01*
X441147Y568727D01*
X441103Y568817D01*
X441063Y568908D01*
X441027Y569001D01*
X440994Y569095D01*
X440965Y569191D01*
X440940Y569287D01*
X440919Y569384D01*
X440901Y569483D01*
X440888Y569581D01*
X440878Y569681D01*
X440872Y569780D01*
X440870Y569880D01*
X440870Y585120D01*
X489130Y585120D02*
X489130Y569880D01*
X486590Y587660D02*
X443410Y587660D01*
D13*
X472145Y598375D02*
X472147Y598275D01*
X472153Y598176D01*
X472163Y598076D01*
X472176Y597978D01*
X472194Y597879D01*
X472215Y597782D01*
X472240Y597686D01*
X472269Y597590D01*
X472302Y597496D01*
X472338Y597403D01*
X472378Y597312D01*
X472422Y597222D01*
X472469Y597134D01*
X472519Y597048D01*
X472573Y596964D01*
X472630Y596882D01*
X472690Y596803D01*
X472754Y596725D01*
X472820Y596651D01*
X472889Y596579D01*
X472961Y596510D01*
X473035Y596444D01*
X473113Y596380D01*
X473192Y596320D01*
X473274Y596263D01*
X473358Y596209D01*
X473444Y596159D01*
X473532Y596112D01*
X473622Y596068D01*
X473713Y596028D01*
X473806Y595992D01*
X473900Y595959D01*
X473996Y595930D01*
X474092Y595905D01*
X474189Y595884D01*
X474288Y595866D01*
X474386Y595853D01*
X474486Y595843D01*
X474585Y595837D01*
X474685Y595835D01*
X474826Y595837D01*
X474967Y595842D01*
X475108Y595852D01*
X475249Y595865D01*
X475389Y595881D01*
X475529Y595902D01*
X475668Y595926D01*
X475807Y595954D01*
X475944Y595985D01*
X476081Y596020D01*
X476217Y596058D01*
X476352Y596100D01*
X476485Y596146D01*
X476618Y596195D01*
X476749Y596248D01*
X476878Y596304D01*
X477007Y596363D01*
X477133Y596426D01*
X477258Y596492D01*
X477381Y596561D01*
X477502Y596634D01*
X477621Y596710D01*
X477739Y596789D01*
X477854Y596870D01*
X477966Y596955D01*
X478077Y597043D01*
X478185Y597134D01*
X478291Y597227D01*
X478394Y597324D01*
X478495Y597423D01*
X478178Y604725D02*
X478176Y604825D01*
X478170Y604924D01*
X478160Y605024D01*
X478147Y605122D01*
X478129Y605221D01*
X478108Y605318D01*
X478083Y605414D01*
X478054Y605510D01*
X478021Y605604D01*
X477985Y605697D01*
X477945Y605788D01*
X477901Y605878D01*
X477854Y605966D01*
X477804Y606052D01*
X477750Y606136D01*
X477693Y606218D01*
X477633Y606297D01*
X477569Y606375D01*
X477503Y606449D01*
X477434Y606521D01*
X477362Y606590D01*
X477288Y606656D01*
X477210Y606720D01*
X477131Y606780D01*
X477049Y606837D01*
X476965Y606891D01*
X476879Y606941D01*
X476791Y606988D01*
X476701Y607032D01*
X476610Y607072D01*
X476517Y607108D01*
X476423Y607141D01*
X476327Y607170D01*
X476231Y607195D01*
X476134Y607216D01*
X476035Y607234D01*
X475937Y607247D01*
X475837Y607257D01*
X475738Y607263D01*
X475638Y607265D01*
X475638Y607266D02*
X475505Y607264D01*
X475372Y607259D01*
X475239Y607249D01*
X475106Y607236D01*
X474974Y607219D01*
X474842Y607199D01*
X474711Y607175D01*
X474581Y607147D01*
X474451Y607116D01*
X474323Y607081D01*
X474195Y607042D01*
X474069Y607000D01*
X473944Y606954D01*
X473820Y606905D01*
X473697Y606853D01*
X473576Y606797D01*
X473457Y606737D01*
X473339Y606675D01*
X473224Y606609D01*
X473110Y606540D01*
X472998Y606467D01*
X472888Y606392D01*
X472780Y606313D01*
X476908Y602502D02*
X476992Y602554D01*
X477075Y602609D01*
X477155Y602668D01*
X477233Y602729D01*
X477308Y602793D01*
X477381Y602861D01*
X477452Y602931D01*
X477519Y603003D01*
X477584Y603078D01*
X477646Y603156D01*
X477705Y603236D01*
X477761Y603318D01*
X477813Y603402D01*
X477862Y603488D01*
X477908Y603576D01*
X477951Y603666D01*
X477990Y603757D01*
X478025Y603850D01*
X478057Y603944D01*
X478085Y604039D01*
X478110Y604135D01*
X478130Y604232D01*
X478148Y604330D01*
X478161Y604428D01*
X478170Y604527D01*
X478176Y604626D01*
X478178Y604725D01*
X473415Y600598D02*
X473331Y600546D01*
X473248Y600491D01*
X473168Y600432D01*
X473090Y600371D01*
X473015Y600307D01*
X472942Y600239D01*
X472871Y600169D01*
X472804Y600097D01*
X472739Y600022D01*
X472677Y599944D01*
X472618Y599864D01*
X472562Y599782D01*
X472510Y599698D01*
X472461Y599612D01*
X472415Y599524D01*
X472372Y599434D01*
X472333Y599343D01*
X472298Y599250D01*
X472266Y599156D01*
X472238Y599061D01*
X472213Y598965D01*
X472193Y598868D01*
X472175Y598770D01*
X472162Y598672D01*
X472153Y598573D01*
X472147Y598474D01*
X472145Y598375D01*
X473415Y600598D02*
X476908Y602503D01*
X464854Y598375D02*
X464854Y607265D01*
X464854Y598375D02*
X464856Y598275D01*
X464862Y598176D01*
X464872Y598076D01*
X464885Y597978D01*
X464903Y597879D01*
X464924Y597782D01*
X464949Y597686D01*
X464978Y597590D01*
X465011Y597496D01*
X465047Y597403D01*
X465087Y597312D01*
X465131Y597222D01*
X465178Y597134D01*
X465228Y597048D01*
X465282Y596964D01*
X465339Y596882D01*
X465399Y596803D01*
X465463Y596725D01*
X465529Y596651D01*
X465598Y596579D01*
X465670Y596510D01*
X465744Y596444D01*
X465822Y596380D01*
X465901Y596320D01*
X465983Y596263D01*
X466067Y596209D01*
X466153Y596159D01*
X466241Y596112D01*
X466331Y596068D01*
X466422Y596028D01*
X466515Y595992D01*
X466609Y595959D01*
X466705Y595930D01*
X466801Y595905D01*
X466898Y595884D01*
X466997Y595866D01*
X467095Y595853D01*
X467195Y595843D01*
X467294Y595837D01*
X467394Y595835D01*
X468664Y595835D01*
X459445Y599010D02*
X459443Y599121D01*
X459437Y599231D01*
X459428Y599342D01*
X459414Y599452D01*
X459397Y599561D01*
X459376Y599670D01*
X459351Y599778D01*
X459322Y599885D01*
X459290Y599991D01*
X459254Y600096D01*
X459214Y600199D01*
X459171Y600301D01*
X459124Y600402D01*
X459073Y600501D01*
X459020Y600598D01*
X458963Y600692D01*
X458902Y600785D01*
X458839Y600876D01*
X458772Y600965D01*
X458702Y601051D01*
X458629Y601134D01*
X458554Y601216D01*
X458476Y601294D01*
X458394Y601369D01*
X458311Y601442D01*
X458225Y601512D01*
X458136Y601579D01*
X458045Y601642D01*
X457952Y601703D01*
X457858Y601760D01*
X457761Y601813D01*
X457662Y601864D01*
X457561Y601911D01*
X457459Y601954D01*
X457356Y601994D01*
X457251Y602030D01*
X457145Y602062D01*
X457038Y602091D01*
X456930Y602116D01*
X456821Y602137D01*
X456712Y602154D01*
X456602Y602168D01*
X456491Y602177D01*
X456381Y602183D01*
X456270Y602185D01*
X456159Y602183D01*
X456049Y602177D01*
X455938Y602168D01*
X455828Y602154D01*
X455719Y602137D01*
X455610Y602116D01*
X455502Y602091D01*
X455395Y602062D01*
X455289Y602030D01*
X455184Y601994D01*
X455081Y601954D01*
X454979Y601911D01*
X454878Y601864D01*
X454779Y601813D01*
X454683Y601760D01*
X454588Y601703D01*
X454495Y601642D01*
X454404Y601579D01*
X454315Y601512D01*
X454229Y601442D01*
X454146Y601369D01*
X454064Y601294D01*
X453986Y601216D01*
X453911Y601134D01*
X453838Y601051D01*
X453768Y600965D01*
X453701Y600876D01*
X453638Y600785D01*
X453577Y600692D01*
X453520Y600598D01*
X453467Y600501D01*
X453416Y600402D01*
X453369Y600301D01*
X453326Y600199D01*
X453286Y600096D01*
X453250Y599991D01*
X453218Y599885D01*
X453189Y599778D01*
X453164Y599670D01*
X453143Y599561D01*
X453126Y599452D01*
X453112Y599342D01*
X453103Y599231D01*
X453097Y599121D01*
X453095Y599010D01*
X453097Y598899D01*
X453103Y598789D01*
X453112Y598678D01*
X453126Y598568D01*
X453143Y598459D01*
X453164Y598350D01*
X453189Y598242D01*
X453218Y598135D01*
X453250Y598029D01*
X453286Y597924D01*
X453326Y597821D01*
X453369Y597719D01*
X453416Y597618D01*
X453467Y597519D01*
X453520Y597423D01*
X453577Y597328D01*
X453638Y597235D01*
X453701Y597144D01*
X453768Y597055D01*
X453838Y596969D01*
X453911Y596886D01*
X453986Y596804D01*
X454064Y596726D01*
X454146Y596651D01*
X454229Y596578D01*
X454315Y596508D01*
X454404Y596441D01*
X454495Y596378D01*
X454588Y596317D01*
X454683Y596260D01*
X454779Y596207D01*
X454878Y596156D01*
X454979Y596109D01*
X455081Y596066D01*
X455184Y596026D01*
X455289Y595990D01*
X455395Y595958D01*
X455502Y595929D01*
X455610Y595904D01*
X455719Y595883D01*
X455828Y595866D01*
X455938Y595852D01*
X456049Y595843D01*
X456159Y595837D01*
X456270Y595835D01*
X456381Y595837D01*
X456491Y595843D01*
X456602Y595852D01*
X456712Y595866D01*
X456821Y595883D01*
X456930Y595904D01*
X457038Y595929D01*
X457145Y595958D01*
X457251Y595990D01*
X457356Y596026D01*
X457459Y596066D01*
X457561Y596109D01*
X457662Y596156D01*
X457761Y596207D01*
X457857Y596260D01*
X457952Y596317D01*
X458045Y596378D01*
X458136Y596441D01*
X458225Y596508D01*
X458311Y596578D01*
X458394Y596651D01*
X458476Y596726D01*
X458554Y596804D01*
X458629Y596886D01*
X458702Y596969D01*
X458772Y597055D01*
X458839Y597144D01*
X458902Y597235D01*
X458963Y597328D01*
X459020Y597423D01*
X459073Y597519D01*
X459124Y597618D01*
X459171Y597719D01*
X459214Y597821D01*
X459254Y597924D01*
X459290Y598029D01*
X459322Y598135D01*
X459351Y598242D01*
X459376Y598350D01*
X459397Y598459D01*
X459414Y598568D01*
X459428Y598678D01*
X459437Y598789D01*
X459443Y598899D01*
X459445Y599010D01*
X458810Y604725D02*
X458808Y604825D01*
X458802Y604924D01*
X458792Y605024D01*
X458779Y605122D01*
X458761Y605221D01*
X458740Y605318D01*
X458715Y605414D01*
X458686Y605510D01*
X458653Y605604D01*
X458617Y605697D01*
X458577Y605788D01*
X458533Y605878D01*
X458486Y605966D01*
X458436Y606052D01*
X458382Y606136D01*
X458325Y606218D01*
X458265Y606297D01*
X458201Y606375D01*
X458135Y606449D01*
X458066Y606521D01*
X457994Y606590D01*
X457920Y606656D01*
X457842Y606720D01*
X457763Y606780D01*
X457681Y606837D01*
X457597Y606891D01*
X457511Y606941D01*
X457423Y606988D01*
X457333Y607032D01*
X457242Y607072D01*
X457149Y607108D01*
X457055Y607141D01*
X456959Y607170D01*
X456863Y607195D01*
X456766Y607216D01*
X456667Y607234D01*
X456569Y607247D01*
X456469Y607257D01*
X456370Y607263D01*
X456270Y607265D01*
X456170Y607263D01*
X456071Y607257D01*
X455971Y607247D01*
X455873Y607234D01*
X455774Y607216D01*
X455677Y607195D01*
X455581Y607170D01*
X455485Y607141D01*
X455391Y607108D01*
X455298Y607072D01*
X455207Y607032D01*
X455117Y606988D01*
X455029Y606941D01*
X454943Y606891D01*
X454859Y606837D01*
X454777Y606780D01*
X454698Y606720D01*
X454620Y606656D01*
X454546Y606590D01*
X454474Y606521D01*
X454405Y606449D01*
X454339Y606375D01*
X454275Y606297D01*
X454215Y606218D01*
X454158Y606136D01*
X454104Y606052D01*
X454054Y605966D01*
X454007Y605878D01*
X453963Y605788D01*
X453923Y605697D01*
X453887Y605604D01*
X453854Y605510D01*
X453825Y605414D01*
X453800Y605318D01*
X453779Y605221D01*
X453761Y605122D01*
X453748Y605024D01*
X453738Y604924D01*
X453732Y604825D01*
X453730Y604725D01*
X453732Y604625D01*
X453738Y604526D01*
X453748Y604426D01*
X453761Y604328D01*
X453779Y604229D01*
X453800Y604132D01*
X453825Y604036D01*
X453854Y603940D01*
X453887Y603846D01*
X453923Y603753D01*
X453963Y603662D01*
X454007Y603572D01*
X454054Y603484D01*
X454104Y603398D01*
X454158Y603314D01*
X454215Y603232D01*
X454275Y603153D01*
X454339Y603075D01*
X454405Y603001D01*
X454474Y602929D01*
X454546Y602860D01*
X454620Y602794D01*
X454698Y602730D01*
X454777Y602670D01*
X454859Y602613D01*
X454943Y602559D01*
X455029Y602509D01*
X455117Y602462D01*
X455207Y602418D01*
X455298Y602378D01*
X455391Y602342D01*
X455485Y602309D01*
X455581Y602280D01*
X455677Y602255D01*
X455774Y602234D01*
X455873Y602216D01*
X455971Y602203D01*
X456071Y602193D01*
X456170Y602187D01*
X456270Y602185D01*
X456370Y602187D01*
X456469Y602193D01*
X456569Y602203D01*
X456667Y602216D01*
X456766Y602234D01*
X456863Y602255D01*
X456959Y602280D01*
X457055Y602309D01*
X457149Y602342D01*
X457242Y602378D01*
X457333Y602418D01*
X457423Y602462D01*
X457511Y602509D01*
X457597Y602559D01*
X457681Y602613D01*
X457763Y602670D01*
X457842Y602730D01*
X457920Y602794D01*
X457994Y602860D01*
X458066Y602929D01*
X458135Y603001D01*
X458201Y603075D01*
X458265Y603153D01*
X458325Y603232D01*
X458382Y603314D01*
X458436Y603398D01*
X458486Y603484D01*
X458533Y603572D01*
X458577Y603662D01*
X458617Y603753D01*
X458653Y603846D01*
X458686Y603940D01*
X458715Y604036D01*
X458740Y604132D01*
X458761Y604229D01*
X458779Y604328D01*
X458792Y604426D01*
X458802Y604526D01*
X458808Y604625D01*
X458810Y604725D01*
D12*
X82340Y625910D02*
X82340Y669090D01*
X100120Y671630D02*
X100220Y671628D01*
X100319Y671622D01*
X100419Y671612D01*
X100517Y671599D01*
X100616Y671581D01*
X100713Y671560D01*
X100809Y671535D01*
X100905Y671506D01*
X100999Y671473D01*
X101092Y671437D01*
X101183Y671397D01*
X101273Y671353D01*
X101361Y671306D01*
X101447Y671256D01*
X101531Y671202D01*
X101613Y671145D01*
X101692Y671085D01*
X101770Y671021D01*
X101844Y670955D01*
X101916Y670886D01*
X101985Y670814D01*
X102051Y670740D01*
X102115Y670662D01*
X102175Y670583D01*
X102232Y670501D01*
X102286Y670417D01*
X102336Y670331D01*
X102383Y670243D01*
X102427Y670153D01*
X102467Y670062D01*
X102503Y669969D01*
X102536Y669875D01*
X102565Y669779D01*
X102590Y669683D01*
X102611Y669586D01*
X102629Y669487D01*
X102642Y669389D01*
X102652Y669289D01*
X102658Y669190D01*
X102660Y669090D01*
X102660Y625910D02*
X102658Y625810D01*
X102652Y625711D01*
X102642Y625611D01*
X102629Y625513D01*
X102611Y625414D01*
X102590Y625317D01*
X102565Y625221D01*
X102536Y625125D01*
X102503Y625031D01*
X102467Y624938D01*
X102427Y624847D01*
X102383Y624757D01*
X102336Y624669D01*
X102286Y624583D01*
X102232Y624499D01*
X102175Y624417D01*
X102115Y624338D01*
X102051Y624260D01*
X101985Y624186D01*
X101916Y624114D01*
X101844Y624045D01*
X101770Y623979D01*
X101692Y623915D01*
X101613Y623855D01*
X101531Y623798D01*
X101447Y623744D01*
X101361Y623694D01*
X101273Y623647D01*
X101183Y623603D01*
X101092Y623563D01*
X100999Y623527D01*
X100905Y623494D01*
X100809Y623465D01*
X100713Y623440D01*
X100616Y623419D01*
X100517Y623401D01*
X100419Y623388D01*
X100319Y623378D01*
X100220Y623372D01*
X100120Y623370D01*
X84880Y623370D02*
X84780Y623372D01*
X84681Y623378D01*
X84581Y623388D01*
X84483Y623401D01*
X84384Y623419D01*
X84287Y623440D01*
X84191Y623465D01*
X84095Y623494D01*
X84001Y623527D01*
X83908Y623563D01*
X83817Y623603D01*
X83727Y623647D01*
X83639Y623694D01*
X83553Y623744D01*
X83469Y623798D01*
X83387Y623855D01*
X83308Y623915D01*
X83230Y623979D01*
X83156Y624045D01*
X83084Y624114D01*
X83015Y624186D01*
X82949Y624260D01*
X82885Y624338D01*
X82825Y624417D01*
X82768Y624499D01*
X82714Y624583D01*
X82664Y624669D01*
X82617Y624757D01*
X82573Y624847D01*
X82533Y624938D01*
X82497Y625031D01*
X82464Y625125D01*
X82435Y625221D01*
X82410Y625317D01*
X82389Y625414D01*
X82371Y625513D01*
X82358Y625611D01*
X82348Y625711D01*
X82342Y625810D01*
X82340Y625910D01*
X82340Y669090D02*
X82342Y669190D01*
X82348Y669289D01*
X82358Y669389D01*
X82371Y669487D01*
X82389Y669586D01*
X82410Y669683D01*
X82435Y669779D01*
X82464Y669875D01*
X82497Y669969D01*
X82533Y670062D01*
X82573Y670153D01*
X82617Y670243D01*
X82664Y670331D01*
X82714Y670417D01*
X82768Y670501D01*
X82825Y670583D01*
X82885Y670662D01*
X82949Y670740D01*
X83015Y670814D01*
X83084Y670886D01*
X83156Y670955D01*
X83230Y671021D01*
X83308Y671085D01*
X83387Y671145D01*
X83469Y671202D01*
X83553Y671256D01*
X83639Y671306D01*
X83727Y671353D01*
X83817Y671397D01*
X83908Y671437D01*
X84001Y671473D01*
X84095Y671506D01*
X84191Y671535D01*
X84287Y671560D01*
X84384Y671581D01*
X84483Y671599D01*
X84581Y671612D01*
X84681Y671622D01*
X84780Y671628D01*
X84880Y671630D01*
X100120Y671630D01*
X100120Y623370D02*
X84880Y623370D01*
X102660Y625910D02*
X102660Y669090D01*
D13*
X108375Y630355D02*
X108275Y630353D01*
X108176Y630347D01*
X108076Y630337D01*
X107978Y630324D01*
X107879Y630306D01*
X107782Y630285D01*
X107686Y630260D01*
X107590Y630231D01*
X107496Y630198D01*
X107403Y630162D01*
X107312Y630122D01*
X107222Y630078D01*
X107134Y630031D01*
X107048Y629981D01*
X106964Y629927D01*
X106882Y629870D01*
X106803Y629810D01*
X106725Y629746D01*
X106651Y629680D01*
X106579Y629611D01*
X106510Y629539D01*
X106444Y629465D01*
X106380Y629387D01*
X106320Y629308D01*
X106263Y629226D01*
X106209Y629142D01*
X106159Y629056D01*
X106112Y628968D01*
X106068Y628878D01*
X106028Y628787D01*
X105992Y628694D01*
X105959Y628600D01*
X105930Y628504D01*
X105905Y628408D01*
X105884Y628311D01*
X105866Y628212D01*
X105853Y628114D01*
X105843Y628014D01*
X105837Y627915D01*
X105835Y627815D01*
X105837Y627674D01*
X105842Y627533D01*
X105852Y627392D01*
X105865Y627251D01*
X105881Y627111D01*
X105902Y626971D01*
X105926Y626832D01*
X105954Y626693D01*
X105985Y626556D01*
X106020Y626419D01*
X106058Y626283D01*
X106100Y626148D01*
X106146Y626015D01*
X106195Y625882D01*
X106248Y625751D01*
X106304Y625622D01*
X106363Y625493D01*
X106426Y625367D01*
X106492Y625242D01*
X106561Y625119D01*
X106634Y624998D01*
X106710Y624879D01*
X106789Y624761D01*
X106870Y624646D01*
X106955Y624534D01*
X107043Y624423D01*
X107134Y624315D01*
X107227Y624209D01*
X107324Y624106D01*
X107423Y624005D01*
X114725Y624323D02*
X114825Y624325D01*
X114924Y624331D01*
X115024Y624341D01*
X115122Y624354D01*
X115221Y624372D01*
X115318Y624393D01*
X115414Y624418D01*
X115510Y624447D01*
X115604Y624480D01*
X115697Y624516D01*
X115788Y624556D01*
X115878Y624600D01*
X115966Y624647D01*
X116052Y624697D01*
X116136Y624751D01*
X116218Y624808D01*
X116297Y624868D01*
X116375Y624932D01*
X116449Y624998D01*
X116521Y625067D01*
X116590Y625139D01*
X116656Y625213D01*
X116720Y625291D01*
X116780Y625370D01*
X116837Y625452D01*
X116891Y625536D01*
X116941Y625622D01*
X116988Y625710D01*
X117032Y625800D01*
X117072Y625891D01*
X117108Y625984D01*
X117141Y626078D01*
X117170Y626174D01*
X117195Y626270D01*
X117216Y626367D01*
X117234Y626466D01*
X117247Y626564D01*
X117257Y626664D01*
X117263Y626763D01*
X117265Y626863D01*
X117266Y626863D02*
X117264Y626996D01*
X117259Y627129D01*
X117249Y627262D01*
X117236Y627395D01*
X117219Y627527D01*
X117199Y627659D01*
X117175Y627790D01*
X117147Y627920D01*
X117116Y628050D01*
X117081Y628178D01*
X117042Y628306D01*
X117000Y628432D01*
X116954Y628557D01*
X116905Y628681D01*
X116853Y628804D01*
X116797Y628925D01*
X116737Y629044D01*
X116675Y629162D01*
X116609Y629277D01*
X116540Y629391D01*
X116467Y629503D01*
X116392Y629613D01*
X116313Y629721D01*
X112502Y625592D02*
X112554Y625508D01*
X112609Y625425D01*
X112668Y625345D01*
X112729Y625267D01*
X112793Y625192D01*
X112861Y625119D01*
X112931Y625048D01*
X113003Y624981D01*
X113078Y624916D01*
X113156Y624854D01*
X113236Y624795D01*
X113318Y624739D01*
X113402Y624687D01*
X113488Y624638D01*
X113576Y624592D01*
X113666Y624549D01*
X113757Y624510D01*
X113850Y624475D01*
X113944Y624443D01*
X114039Y624415D01*
X114135Y624390D01*
X114232Y624370D01*
X114330Y624352D01*
X114428Y624339D01*
X114527Y624330D01*
X114626Y624324D01*
X114725Y624322D01*
X110598Y629085D02*
X110546Y629169D01*
X110491Y629252D01*
X110432Y629332D01*
X110371Y629410D01*
X110307Y629485D01*
X110239Y629558D01*
X110169Y629629D01*
X110097Y629696D01*
X110022Y629761D01*
X109944Y629823D01*
X109864Y629882D01*
X109782Y629938D01*
X109698Y629990D01*
X109612Y630039D01*
X109524Y630085D01*
X109434Y630128D01*
X109343Y630167D01*
X109250Y630202D01*
X109156Y630234D01*
X109061Y630262D01*
X108965Y630287D01*
X108868Y630307D01*
X108770Y630325D01*
X108672Y630338D01*
X108573Y630347D01*
X108474Y630353D01*
X108375Y630355D01*
X110598Y629085D02*
X112503Y625593D01*
X108375Y637646D02*
X117265Y637646D01*
X108375Y637646D02*
X108275Y637644D01*
X108176Y637638D01*
X108076Y637628D01*
X107978Y637615D01*
X107879Y637597D01*
X107782Y637576D01*
X107686Y637551D01*
X107590Y637522D01*
X107496Y637489D01*
X107403Y637453D01*
X107312Y637413D01*
X107222Y637369D01*
X107134Y637322D01*
X107048Y637272D01*
X106964Y637218D01*
X106882Y637161D01*
X106803Y637101D01*
X106725Y637037D01*
X106651Y636971D01*
X106579Y636902D01*
X106510Y636830D01*
X106444Y636756D01*
X106380Y636678D01*
X106320Y636599D01*
X106263Y636517D01*
X106209Y636433D01*
X106159Y636347D01*
X106112Y636259D01*
X106068Y636169D01*
X106028Y636078D01*
X105992Y635985D01*
X105959Y635891D01*
X105930Y635795D01*
X105905Y635699D01*
X105884Y635602D01*
X105866Y635503D01*
X105853Y635405D01*
X105843Y635305D01*
X105837Y635206D01*
X105835Y635106D01*
X105835Y633836D01*
X110915Y645595D02*
X110915Y649405D01*
X110915Y645595D02*
X110917Y645495D01*
X110923Y645396D01*
X110933Y645296D01*
X110946Y645198D01*
X110964Y645099D01*
X110985Y645002D01*
X111010Y644906D01*
X111039Y644810D01*
X111072Y644716D01*
X111108Y644623D01*
X111148Y644532D01*
X111192Y644442D01*
X111239Y644354D01*
X111289Y644268D01*
X111343Y644184D01*
X111400Y644102D01*
X111460Y644023D01*
X111524Y643945D01*
X111590Y643871D01*
X111659Y643799D01*
X111731Y643730D01*
X111805Y643664D01*
X111883Y643600D01*
X111962Y643540D01*
X112044Y643483D01*
X112128Y643429D01*
X112214Y643379D01*
X112302Y643332D01*
X112392Y643288D01*
X112483Y643248D01*
X112576Y643212D01*
X112670Y643179D01*
X112766Y643150D01*
X112862Y643125D01*
X112959Y643104D01*
X113058Y643086D01*
X113156Y643073D01*
X113256Y643063D01*
X113355Y643057D01*
X113455Y643055D01*
X114090Y643055D01*
X114201Y643057D01*
X114311Y643063D01*
X114422Y643072D01*
X114532Y643086D01*
X114641Y643103D01*
X114750Y643124D01*
X114858Y643149D01*
X114965Y643178D01*
X115071Y643210D01*
X115176Y643246D01*
X115279Y643286D01*
X115381Y643329D01*
X115482Y643376D01*
X115581Y643427D01*
X115677Y643480D01*
X115772Y643537D01*
X115865Y643598D01*
X115956Y643661D01*
X116045Y643728D01*
X116131Y643798D01*
X116214Y643871D01*
X116296Y643946D01*
X116374Y644024D01*
X116449Y644106D01*
X116522Y644189D01*
X116592Y644275D01*
X116659Y644364D01*
X116722Y644455D01*
X116783Y644548D01*
X116840Y644643D01*
X116893Y644739D01*
X116944Y644838D01*
X116991Y644939D01*
X117034Y645041D01*
X117074Y645144D01*
X117110Y645249D01*
X117142Y645355D01*
X117171Y645462D01*
X117196Y645570D01*
X117217Y645679D01*
X117234Y645788D01*
X117248Y645898D01*
X117257Y646009D01*
X117263Y646119D01*
X117265Y646230D01*
X117263Y646341D01*
X117257Y646451D01*
X117248Y646562D01*
X117234Y646672D01*
X117217Y646781D01*
X117196Y646890D01*
X117171Y646998D01*
X117142Y647105D01*
X117110Y647211D01*
X117074Y647316D01*
X117034Y647419D01*
X116991Y647521D01*
X116944Y647622D01*
X116893Y647721D01*
X116840Y647817D01*
X116783Y647912D01*
X116722Y648005D01*
X116659Y648096D01*
X116592Y648185D01*
X116522Y648271D01*
X116449Y648354D01*
X116374Y648436D01*
X116296Y648514D01*
X116214Y648589D01*
X116131Y648662D01*
X116045Y648732D01*
X115956Y648799D01*
X115865Y648862D01*
X115772Y648923D01*
X115678Y648980D01*
X115581Y649033D01*
X115482Y649084D01*
X115381Y649131D01*
X115279Y649174D01*
X115176Y649214D01*
X115071Y649250D01*
X114965Y649282D01*
X114858Y649311D01*
X114750Y649336D01*
X114641Y649357D01*
X114532Y649374D01*
X114422Y649388D01*
X114311Y649397D01*
X114201Y649403D01*
X114090Y649405D01*
X110915Y649405D01*
X110775Y649403D01*
X110635Y649397D01*
X110495Y649388D01*
X110356Y649374D01*
X110217Y649357D01*
X110079Y649336D01*
X109941Y649311D01*
X109804Y649282D01*
X109668Y649250D01*
X109533Y649213D01*
X109399Y649173D01*
X109266Y649130D01*
X109134Y649082D01*
X109003Y649032D01*
X108874Y648977D01*
X108747Y648919D01*
X108621Y648858D01*
X108497Y648793D01*
X108375Y648724D01*
X108255Y648653D01*
X108137Y648578D01*
X108020Y648500D01*
X107906Y648418D01*
X107795Y648334D01*
X107686Y648246D01*
X107579Y648156D01*
X107474Y648062D01*
X107373Y647966D01*
X107274Y647867D01*
X107178Y647766D01*
X107084Y647661D01*
X106994Y647554D01*
X106906Y647445D01*
X106822Y647334D01*
X106740Y647220D01*
X106662Y647103D01*
X106587Y646985D01*
X106516Y646865D01*
X106447Y646743D01*
X106382Y646619D01*
X106321Y646493D01*
X106263Y646366D01*
X106208Y646237D01*
X106158Y646106D01*
X106110Y645974D01*
X106067Y645841D01*
X106027Y645707D01*
X105990Y645572D01*
X105958Y645436D01*
X105929Y645299D01*
X105904Y645161D01*
X105883Y645023D01*
X105866Y644884D01*
X105852Y644745D01*
X105843Y644605D01*
X105837Y644465D01*
X105835Y644325D01*
D10*
X67720Y841200D02*
X67725Y841568D01*
X67738Y841936D01*
X67761Y842303D01*
X67792Y842670D01*
X67833Y843036D01*
X67882Y843401D01*
X67941Y843764D01*
X68008Y844126D01*
X68084Y844487D01*
X68170Y844845D01*
X68263Y845201D01*
X68366Y845554D01*
X68477Y845905D01*
X68597Y846253D01*
X68725Y846598D01*
X68862Y846940D01*
X69007Y847279D01*
X69160Y847613D01*
X69322Y847944D01*
X69491Y848271D01*
X69669Y848593D01*
X69854Y848912D01*
X70047Y849225D01*
X70248Y849534D01*
X70456Y849837D01*
X70672Y850135D01*
X70895Y850428D01*
X71125Y850716D01*
X71362Y850998D01*
X71606Y851273D01*
X71856Y851543D01*
X72113Y851807D01*
X72377Y852064D01*
X72647Y852314D01*
X72922Y852558D01*
X73204Y852795D01*
X73492Y853025D01*
X73785Y853248D01*
X74083Y853464D01*
X74386Y853672D01*
X74695Y853873D01*
X75008Y854066D01*
X75327Y854251D01*
X75649Y854429D01*
X75976Y854598D01*
X76307Y854760D01*
X76641Y854913D01*
X76980Y855058D01*
X77322Y855195D01*
X77667Y855323D01*
X78015Y855443D01*
X78366Y855554D01*
X78719Y855657D01*
X79075Y855750D01*
X79433Y855836D01*
X79794Y855912D01*
X80156Y855979D01*
X80519Y856038D01*
X80884Y856087D01*
X81250Y856128D01*
X81617Y856159D01*
X81984Y856182D01*
X82352Y856195D01*
X82720Y856200D01*
X83088Y856195D01*
X83456Y856182D01*
X83823Y856159D01*
X84190Y856128D01*
X84556Y856087D01*
X84921Y856038D01*
X85284Y855979D01*
X85646Y855912D01*
X86007Y855836D01*
X86365Y855750D01*
X86721Y855657D01*
X87074Y855554D01*
X87425Y855443D01*
X87773Y855323D01*
X88118Y855195D01*
X88460Y855058D01*
X88799Y854913D01*
X89133Y854760D01*
X89464Y854598D01*
X89791Y854429D01*
X90113Y854251D01*
X90432Y854066D01*
X90745Y853873D01*
X91054Y853672D01*
X91357Y853464D01*
X91655Y853248D01*
X91948Y853025D01*
X92236Y852795D01*
X92518Y852558D01*
X92793Y852314D01*
X93063Y852064D01*
X93327Y851807D01*
X93584Y851543D01*
X93834Y851273D01*
X94078Y850998D01*
X94315Y850716D01*
X94545Y850428D01*
X94768Y850135D01*
X94984Y849837D01*
X95192Y849534D01*
X95393Y849225D01*
X95586Y848912D01*
X95771Y848593D01*
X95949Y848271D01*
X96118Y847944D01*
X96280Y847613D01*
X96433Y847279D01*
X96578Y846940D01*
X96715Y846598D01*
X96843Y846253D01*
X96963Y845905D01*
X97074Y845554D01*
X97177Y845201D01*
X97270Y844845D01*
X97356Y844487D01*
X97432Y844126D01*
X97499Y843764D01*
X97558Y843401D01*
X97607Y843036D01*
X97648Y842670D01*
X97679Y842303D01*
X97702Y841936D01*
X97715Y841568D01*
X97720Y841200D01*
X97715Y840832D01*
X97702Y840464D01*
X97679Y840097D01*
X97648Y839730D01*
X97607Y839364D01*
X97558Y838999D01*
X97499Y838636D01*
X97432Y838274D01*
X97356Y837913D01*
X97270Y837555D01*
X97177Y837199D01*
X97074Y836846D01*
X96963Y836495D01*
X96843Y836147D01*
X96715Y835802D01*
X96578Y835460D01*
X96433Y835121D01*
X96280Y834787D01*
X96118Y834456D01*
X95949Y834129D01*
X95771Y833807D01*
X95586Y833488D01*
X95393Y833175D01*
X95192Y832866D01*
X94984Y832563D01*
X94768Y832265D01*
X94545Y831972D01*
X94315Y831684D01*
X94078Y831402D01*
X93834Y831127D01*
X93584Y830857D01*
X93327Y830593D01*
X93063Y830336D01*
X92793Y830086D01*
X92518Y829842D01*
X92236Y829605D01*
X91948Y829375D01*
X91655Y829152D01*
X91357Y828936D01*
X91054Y828728D01*
X90745Y828527D01*
X90432Y828334D01*
X90113Y828149D01*
X89791Y827971D01*
X89464Y827802D01*
X89133Y827640D01*
X88799Y827487D01*
X88460Y827342D01*
X88118Y827205D01*
X87773Y827077D01*
X87425Y826957D01*
X87074Y826846D01*
X86721Y826743D01*
X86365Y826650D01*
X86007Y826564D01*
X85646Y826488D01*
X85284Y826421D01*
X84921Y826362D01*
X84556Y826313D01*
X84190Y826272D01*
X83823Y826241D01*
X83456Y826218D01*
X83088Y826205D01*
X82720Y826200D01*
X82352Y826205D01*
X81984Y826218D01*
X81617Y826241D01*
X81250Y826272D01*
X80884Y826313D01*
X80519Y826362D01*
X80156Y826421D01*
X79794Y826488D01*
X79433Y826564D01*
X79075Y826650D01*
X78719Y826743D01*
X78366Y826846D01*
X78015Y826957D01*
X77667Y827077D01*
X77322Y827205D01*
X76980Y827342D01*
X76641Y827487D01*
X76307Y827640D01*
X75976Y827802D01*
X75649Y827971D01*
X75327Y828149D01*
X75008Y828334D01*
X74695Y828527D01*
X74386Y828728D01*
X74083Y828936D01*
X73785Y829152D01*
X73492Y829375D01*
X73204Y829605D01*
X72922Y829842D01*
X72647Y830086D01*
X72377Y830336D01*
X72113Y830593D01*
X71856Y830857D01*
X71606Y831127D01*
X71362Y831402D01*
X71125Y831684D01*
X70895Y831972D01*
X70672Y832265D01*
X70456Y832563D01*
X70248Y832866D01*
X70047Y833175D01*
X69854Y833488D01*
X69669Y833807D01*
X69491Y834129D01*
X69322Y834456D01*
X69160Y834787D01*
X69007Y835121D01*
X68862Y835460D01*
X68725Y835802D01*
X68597Y836147D01*
X68477Y836495D01*
X68366Y836846D01*
X68263Y837199D01*
X68170Y837555D01*
X68084Y837913D01*
X68008Y838274D01*
X67941Y838636D01*
X67882Y838999D01*
X67833Y839364D01*
X67792Y839730D01*
X67761Y840097D01*
X67738Y840464D01*
X67725Y840832D01*
X67720Y841200D01*
X364900Y688800D02*
X364905Y689168D01*
X364918Y689536D01*
X364941Y689903D01*
X364972Y690270D01*
X365013Y690636D01*
X365062Y691001D01*
X365121Y691364D01*
X365188Y691726D01*
X365264Y692087D01*
X365350Y692445D01*
X365443Y692801D01*
X365546Y693154D01*
X365657Y693505D01*
X365777Y693853D01*
X365905Y694198D01*
X366042Y694540D01*
X366187Y694879D01*
X366340Y695213D01*
X366502Y695544D01*
X366671Y695871D01*
X366849Y696193D01*
X367034Y696512D01*
X367227Y696825D01*
X367428Y697134D01*
X367636Y697437D01*
X367852Y697735D01*
X368075Y698028D01*
X368305Y698316D01*
X368542Y698598D01*
X368786Y698873D01*
X369036Y699143D01*
X369293Y699407D01*
X369557Y699664D01*
X369827Y699914D01*
X370102Y700158D01*
X370384Y700395D01*
X370672Y700625D01*
X370965Y700848D01*
X371263Y701064D01*
X371566Y701272D01*
X371875Y701473D01*
X372188Y701666D01*
X372507Y701851D01*
X372829Y702029D01*
X373156Y702198D01*
X373487Y702360D01*
X373821Y702513D01*
X374160Y702658D01*
X374502Y702795D01*
X374847Y702923D01*
X375195Y703043D01*
X375546Y703154D01*
X375899Y703257D01*
X376255Y703350D01*
X376613Y703436D01*
X376974Y703512D01*
X377336Y703579D01*
X377699Y703638D01*
X378064Y703687D01*
X378430Y703728D01*
X378797Y703759D01*
X379164Y703782D01*
X379532Y703795D01*
X379900Y703800D01*
X380268Y703795D01*
X380636Y703782D01*
X381003Y703759D01*
X381370Y703728D01*
X381736Y703687D01*
X382101Y703638D01*
X382464Y703579D01*
X382826Y703512D01*
X383187Y703436D01*
X383545Y703350D01*
X383901Y703257D01*
X384254Y703154D01*
X384605Y703043D01*
X384953Y702923D01*
X385298Y702795D01*
X385640Y702658D01*
X385979Y702513D01*
X386313Y702360D01*
X386644Y702198D01*
X386971Y702029D01*
X387293Y701851D01*
X387612Y701666D01*
X387925Y701473D01*
X388234Y701272D01*
X388537Y701064D01*
X388835Y700848D01*
X389128Y700625D01*
X389416Y700395D01*
X389698Y700158D01*
X389973Y699914D01*
X390243Y699664D01*
X390507Y699407D01*
X390764Y699143D01*
X391014Y698873D01*
X391258Y698598D01*
X391495Y698316D01*
X391725Y698028D01*
X391948Y697735D01*
X392164Y697437D01*
X392372Y697134D01*
X392573Y696825D01*
X392766Y696512D01*
X392951Y696193D01*
X393129Y695871D01*
X393298Y695544D01*
X393460Y695213D01*
X393613Y694879D01*
X393758Y694540D01*
X393895Y694198D01*
X394023Y693853D01*
X394143Y693505D01*
X394254Y693154D01*
X394357Y692801D01*
X394450Y692445D01*
X394536Y692087D01*
X394612Y691726D01*
X394679Y691364D01*
X394738Y691001D01*
X394787Y690636D01*
X394828Y690270D01*
X394859Y689903D01*
X394882Y689536D01*
X394895Y689168D01*
X394900Y688800D01*
X394895Y688432D01*
X394882Y688064D01*
X394859Y687697D01*
X394828Y687330D01*
X394787Y686964D01*
X394738Y686599D01*
X394679Y686236D01*
X394612Y685874D01*
X394536Y685513D01*
X394450Y685155D01*
X394357Y684799D01*
X394254Y684446D01*
X394143Y684095D01*
X394023Y683747D01*
X393895Y683402D01*
X393758Y683060D01*
X393613Y682721D01*
X393460Y682387D01*
X393298Y682056D01*
X393129Y681729D01*
X392951Y681407D01*
X392766Y681088D01*
X392573Y680775D01*
X392372Y680466D01*
X392164Y680163D01*
X391948Y679865D01*
X391725Y679572D01*
X391495Y679284D01*
X391258Y679002D01*
X391014Y678727D01*
X390764Y678457D01*
X390507Y678193D01*
X390243Y677936D01*
X389973Y677686D01*
X389698Y677442D01*
X389416Y677205D01*
X389128Y676975D01*
X388835Y676752D01*
X388537Y676536D01*
X388234Y676328D01*
X387925Y676127D01*
X387612Y675934D01*
X387293Y675749D01*
X386971Y675571D01*
X386644Y675402D01*
X386313Y675240D01*
X385979Y675087D01*
X385640Y674942D01*
X385298Y674805D01*
X384953Y674677D01*
X384605Y674557D01*
X384254Y674446D01*
X383901Y674343D01*
X383545Y674250D01*
X383187Y674164D01*
X382826Y674088D01*
X382464Y674021D01*
X382101Y673962D01*
X381736Y673913D01*
X381370Y673872D01*
X381003Y673841D01*
X380636Y673818D01*
X380268Y673805D01*
X379900Y673800D01*
X379532Y673805D01*
X379164Y673818D01*
X378797Y673841D01*
X378430Y673872D01*
X378064Y673913D01*
X377699Y673962D01*
X377336Y674021D01*
X376974Y674088D01*
X376613Y674164D01*
X376255Y674250D01*
X375899Y674343D01*
X375546Y674446D01*
X375195Y674557D01*
X374847Y674677D01*
X374502Y674805D01*
X374160Y674942D01*
X373821Y675087D01*
X373487Y675240D01*
X373156Y675402D01*
X372829Y675571D01*
X372507Y675749D01*
X372188Y675934D01*
X371875Y676127D01*
X371566Y676328D01*
X371263Y676536D01*
X370965Y676752D01*
X370672Y676975D01*
X370384Y677205D01*
X370102Y677442D01*
X369827Y677686D01*
X369557Y677936D01*
X369293Y678193D01*
X369036Y678457D01*
X368786Y678727D01*
X368542Y679002D01*
X368305Y679284D01*
X368075Y679572D01*
X367852Y679865D01*
X367636Y680163D01*
X367428Y680466D01*
X367227Y680775D01*
X367034Y681088D01*
X366849Y681407D01*
X366671Y681729D01*
X366502Y682056D01*
X366340Y682387D01*
X366187Y682721D01*
X366042Y683060D01*
X365905Y683402D01*
X365777Y683747D01*
X365657Y684095D01*
X365546Y684446D01*
X365443Y684799D01*
X365350Y685155D01*
X365264Y685513D01*
X365188Y685874D01*
X365121Y686236D01*
X365062Y686599D01*
X365013Y686964D01*
X364972Y687330D01*
X364941Y687697D01*
X364918Y688064D01*
X364905Y688432D01*
X364900Y688800D01*
D12*
X392340Y668970D02*
X392340Y641030D01*
X412660Y668970D02*
X412658Y669070D01*
X412652Y669169D01*
X412642Y669269D01*
X412629Y669367D01*
X412611Y669466D01*
X412590Y669563D01*
X412565Y669659D01*
X412536Y669755D01*
X412503Y669849D01*
X412467Y669942D01*
X412427Y670033D01*
X412383Y670123D01*
X412336Y670211D01*
X412286Y670297D01*
X412232Y670381D01*
X412175Y670463D01*
X412115Y670542D01*
X412051Y670620D01*
X411985Y670694D01*
X411916Y670766D01*
X411844Y670835D01*
X411770Y670901D01*
X411692Y670965D01*
X411613Y671025D01*
X411531Y671082D01*
X411447Y671136D01*
X411361Y671186D01*
X411273Y671233D01*
X411183Y671277D01*
X411092Y671317D01*
X410999Y671353D01*
X410905Y671386D01*
X410809Y671415D01*
X410713Y671440D01*
X410616Y671461D01*
X410517Y671479D01*
X410419Y671492D01*
X410319Y671502D01*
X410220Y671508D01*
X410120Y671510D01*
X412660Y641030D02*
X412658Y640930D01*
X412652Y640831D01*
X412642Y640731D01*
X412629Y640633D01*
X412611Y640534D01*
X412590Y640437D01*
X412565Y640341D01*
X412536Y640245D01*
X412503Y640151D01*
X412467Y640058D01*
X412427Y639967D01*
X412383Y639877D01*
X412336Y639789D01*
X412286Y639703D01*
X412232Y639619D01*
X412175Y639537D01*
X412115Y639458D01*
X412051Y639380D01*
X411985Y639306D01*
X411916Y639234D01*
X411844Y639165D01*
X411770Y639099D01*
X411692Y639035D01*
X411613Y638975D01*
X411531Y638918D01*
X411447Y638864D01*
X411361Y638814D01*
X411273Y638767D01*
X411183Y638723D01*
X411092Y638683D01*
X410999Y638647D01*
X410905Y638614D01*
X410809Y638585D01*
X410713Y638560D01*
X410616Y638539D01*
X410517Y638521D01*
X410419Y638508D01*
X410319Y638498D01*
X410220Y638492D01*
X410120Y638490D01*
X394880Y638490D02*
X394780Y638492D01*
X394681Y638498D01*
X394581Y638508D01*
X394483Y638521D01*
X394384Y638539D01*
X394287Y638560D01*
X394191Y638585D01*
X394095Y638614D01*
X394001Y638647D01*
X393908Y638683D01*
X393817Y638723D01*
X393727Y638767D01*
X393639Y638814D01*
X393553Y638864D01*
X393469Y638918D01*
X393387Y638975D01*
X393308Y639035D01*
X393230Y639099D01*
X393156Y639165D01*
X393084Y639234D01*
X393015Y639306D01*
X392949Y639380D01*
X392885Y639458D01*
X392825Y639537D01*
X392768Y639619D01*
X392714Y639703D01*
X392664Y639789D01*
X392617Y639877D01*
X392573Y639967D01*
X392533Y640058D01*
X392497Y640151D01*
X392464Y640245D01*
X392435Y640341D01*
X392410Y640437D01*
X392389Y640534D01*
X392371Y640633D01*
X392358Y640731D01*
X392348Y640831D01*
X392342Y640930D01*
X392340Y641030D01*
X392340Y668970D02*
X392342Y669070D01*
X392348Y669169D01*
X392358Y669269D01*
X392371Y669367D01*
X392389Y669466D01*
X392410Y669563D01*
X392435Y669659D01*
X392464Y669755D01*
X392497Y669849D01*
X392533Y669942D01*
X392573Y670033D01*
X392617Y670123D01*
X392664Y670211D01*
X392714Y670297D01*
X392768Y670381D01*
X392825Y670463D01*
X392885Y670542D01*
X392949Y670620D01*
X393015Y670694D01*
X393084Y670766D01*
X393156Y670835D01*
X393230Y670901D01*
X393308Y670965D01*
X393387Y671025D01*
X393469Y671082D01*
X393553Y671136D01*
X393639Y671186D01*
X393727Y671233D01*
X393817Y671277D01*
X393908Y671317D01*
X394001Y671353D01*
X394095Y671386D01*
X394191Y671415D01*
X394287Y671440D01*
X394384Y671461D01*
X394483Y671479D01*
X394581Y671492D01*
X394681Y671502D01*
X394780Y671508D01*
X394880Y671510D01*
X410120Y671510D01*
X410120Y638490D02*
X394880Y638490D01*
X412660Y641030D02*
X412660Y668970D01*
D13*
X417105Y645475D02*
X417005Y645473D01*
X416906Y645467D01*
X416806Y645457D01*
X416708Y645444D01*
X416609Y645426D01*
X416512Y645405D01*
X416416Y645380D01*
X416320Y645351D01*
X416226Y645318D01*
X416133Y645282D01*
X416042Y645242D01*
X415952Y645198D01*
X415864Y645151D01*
X415778Y645101D01*
X415694Y645047D01*
X415612Y644990D01*
X415533Y644930D01*
X415455Y644866D01*
X415381Y644800D01*
X415309Y644731D01*
X415240Y644659D01*
X415174Y644585D01*
X415110Y644507D01*
X415050Y644428D01*
X414993Y644346D01*
X414939Y644262D01*
X414889Y644176D01*
X414842Y644088D01*
X414798Y643998D01*
X414758Y643907D01*
X414722Y643814D01*
X414689Y643720D01*
X414660Y643624D01*
X414635Y643528D01*
X414614Y643431D01*
X414596Y643332D01*
X414583Y643234D01*
X414573Y643134D01*
X414567Y643035D01*
X414565Y642935D01*
X414567Y642794D01*
X414572Y642653D01*
X414582Y642512D01*
X414595Y642371D01*
X414611Y642231D01*
X414632Y642091D01*
X414656Y641952D01*
X414684Y641813D01*
X414715Y641676D01*
X414750Y641539D01*
X414788Y641403D01*
X414830Y641268D01*
X414876Y641135D01*
X414925Y641002D01*
X414978Y640871D01*
X415034Y640742D01*
X415093Y640613D01*
X415156Y640487D01*
X415222Y640362D01*
X415291Y640239D01*
X415364Y640118D01*
X415440Y639999D01*
X415519Y639881D01*
X415600Y639766D01*
X415685Y639654D01*
X415773Y639543D01*
X415864Y639435D01*
X415957Y639329D01*
X416054Y639226D01*
X416153Y639125D01*
X423455Y639443D02*
X423555Y639445D01*
X423654Y639451D01*
X423754Y639461D01*
X423852Y639474D01*
X423951Y639492D01*
X424048Y639513D01*
X424144Y639538D01*
X424240Y639567D01*
X424334Y639600D01*
X424427Y639636D01*
X424518Y639676D01*
X424608Y639720D01*
X424696Y639767D01*
X424782Y639817D01*
X424866Y639871D01*
X424948Y639928D01*
X425027Y639988D01*
X425105Y640052D01*
X425179Y640118D01*
X425251Y640187D01*
X425320Y640259D01*
X425386Y640333D01*
X425450Y640411D01*
X425510Y640490D01*
X425567Y640572D01*
X425621Y640656D01*
X425671Y640742D01*
X425718Y640830D01*
X425762Y640920D01*
X425802Y641011D01*
X425838Y641104D01*
X425871Y641198D01*
X425900Y641294D01*
X425925Y641390D01*
X425946Y641487D01*
X425964Y641586D01*
X425977Y641684D01*
X425987Y641784D01*
X425993Y641883D01*
X425995Y641983D01*
X425993Y642116D01*
X425988Y642249D01*
X425978Y642382D01*
X425965Y642515D01*
X425948Y642647D01*
X425928Y642779D01*
X425904Y642910D01*
X425876Y643040D01*
X425845Y643170D01*
X425810Y643298D01*
X425771Y643426D01*
X425729Y643552D01*
X425683Y643677D01*
X425634Y643801D01*
X425582Y643924D01*
X425526Y644045D01*
X425466Y644164D01*
X425404Y644282D01*
X425338Y644397D01*
X425269Y644511D01*
X425196Y644623D01*
X425121Y644733D01*
X425042Y644841D01*
X421232Y640712D02*
X421284Y640628D01*
X421339Y640545D01*
X421398Y640465D01*
X421459Y640387D01*
X421523Y640312D01*
X421591Y640239D01*
X421661Y640168D01*
X421733Y640101D01*
X421808Y640036D01*
X421886Y639974D01*
X421966Y639915D01*
X422048Y639859D01*
X422132Y639807D01*
X422218Y639758D01*
X422306Y639712D01*
X422396Y639669D01*
X422487Y639630D01*
X422580Y639595D01*
X422674Y639563D01*
X422769Y639535D01*
X422865Y639510D01*
X422962Y639490D01*
X423060Y639472D01*
X423158Y639459D01*
X423257Y639450D01*
X423356Y639444D01*
X423455Y639442D01*
X419328Y644205D02*
X419276Y644289D01*
X419221Y644372D01*
X419162Y644452D01*
X419101Y644530D01*
X419037Y644605D01*
X418969Y644678D01*
X418899Y644749D01*
X418827Y644816D01*
X418752Y644881D01*
X418674Y644943D01*
X418594Y645002D01*
X418512Y645058D01*
X418428Y645110D01*
X418342Y645159D01*
X418254Y645205D01*
X418164Y645248D01*
X418073Y645287D01*
X417980Y645322D01*
X417886Y645354D01*
X417791Y645382D01*
X417695Y645407D01*
X417598Y645427D01*
X417500Y645445D01*
X417402Y645458D01*
X417303Y645467D01*
X417204Y645473D01*
X417105Y645475D01*
X419327Y644205D02*
X421232Y640713D01*
X417105Y652766D02*
X425995Y652766D01*
X417105Y652766D02*
X417005Y652764D01*
X416906Y652758D01*
X416806Y652748D01*
X416708Y652735D01*
X416609Y652717D01*
X416512Y652696D01*
X416416Y652671D01*
X416320Y652642D01*
X416226Y652609D01*
X416133Y652573D01*
X416042Y652533D01*
X415952Y652489D01*
X415864Y652442D01*
X415778Y652392D01*
X415694Y652338D01*
X415612Y652281D01*
X415533Y652221D01*
X415455Y652157D01*
X415381Y652091D01*
X415309Y652022D01*
X415240Y651950D01*
X415174Y651876D01*
X415110Y651798D01*
X415050Y651719D01*
X414993Y651637D01*
X414939Y651553D01*
X414889Y651467D01*
X414842Y651379D01*
X414798Y651289D01*
X414758Y651198D01*
X414722Y651105D01*
X414689Y651011D01*
X414660Y650915D01*
X414635Y650819D01*
X414614Y650722D01*
X414596Y650623D01*
X414583Y650525D01*
X414573Y650425D01*
X414567Y650326D01*
X414565Y650226D01*
X414565Y648956D01*
X423455Y658175D02*
X425995Y661350D01*
X414565Y661350D01*
X414565Y658175D02*
X414565Y664525D01*
X423455Y669605D02*
X425995Y672780D01*
X414565Y672780D01*
X414565Y669605D02*
X414565Y675955D01*
D12*
X43173Y668970D02*
X43173Y641030D01*
X63493Y668970D02*
X63491Y669070D01*
X63485Y669169D01*
X63475Y669269D01*
X63462Y669367D01*
X63444Y669466D01*
X63423Y669563D01*
X63398Y669659D01*
X63369Y669755D01*
X63336Y669849D01*
X63300Y669942D01*
X63260Y670033D01*
X63216Y670123D01*
X63169Y670211D01*
X63119Y670297D01*
X63065Y670381D01*
X63008Y670463D01*
X62948Y670542D01*
X62884Y670620D01*
X62818Y670694D01*
X62749Y670766D01*
X62677Y670835D01*
X62603Y670901D01*
X62525Y670965D01*
X62446Y671025D01*
X62364Y671082D01*
X62280Y671136D01*
X62194Y671186D01*
X62106Y671233D01*
X62016Y671277D01*
X61925Y671317D01*
X61832Y671353D01*
X61738Y671386D01*
X61642Y671415D01*
X61546Y671440D01*
X61449Y671461D01*
X61350Y671479D01*
X61252Y671492D01*
X61152Y671502D01*
X61053Y671508D01*
X60953Y671510D01*
X63493Y641030D02*
X63491Y640930D01*
X63485Y640831D01*
X63475Y640731D01*
X63462Y640633D01*
X63444Y640534D01*
X63423Y640437D01*
X63398Y640341D01*
X63369Y640245D01*
X63336Y640151D01*
X63300Y640058D01*
X63260Y639967D01*
X63216Y639877D01*
X63169Y639789D01*
X63119Y639703D01*
X63065Y639619D01*
X63008Y639537D01*
X62948Y639458D01*
X62884Y639380D01*
X62818Y639306D01*
X62749Y639234D01*
X62677Y639165D01*
X62603Y639099D01*
X62525Y639035D01*
X62446Y638975D01*
X62364Y638918D01*
X62280Y638864D01*
X62194Y638814D01*
X62106Y638767D01*
X62016Y638723D01*
X61925Y638683D01*
X61832Y638647D01*
X61738Y638614D01*
X61642Y638585D01*
X61546Y638560D01*
X61449Y638539D01*
X61350Y638521D01*
X61252Y638508D01*
X61152Y638498D01*
X61053Y638492D01*
X60953Y638490D01*
X45713Y638490D02*
X45613Y638492D01*
X45514Y638498D01*
X45414Y638508D01*
X45316Y638521D01*
X45217Y638539D01*
X45120Y638560D01*
X45024Y638585D01*
X44928Y638614D01*
X44834Y638647D01*
X44741Y638683D01*
X44650Y638723D01*
X44560Y638767D01*
X44472Y638814D01*
X44386Y638864D01*
X44302Y638918D01*
X44220Y638975D01*
X44141Y639035D01*
X44063Y639099D01*
X43989Y639165D01*
X43917Y639234D01*
X43848Y639306D01*
X43782Y639380D01*
X43718Y639458D01*
X43658Y639537D01*
X43601Y639619D01*
X43547Y639703D01*
X43497Y639789D01*
X43450Y639877D01*
X43406Y639967D01*
X43366Y640058D01*
X43330Y640151D01*
X43297Y640245D01*
X43268Y640341D01*
X43243Y640437D01*
X43222Y640534D01*
X43204Y640633D01*
X43191Y640731D01*
X43181Y640831D01*
X43175Y640930D01*
X43173Y641030D01*
X43173Y668970D02*
X43175Y669070D01*
X43181Y669169D01*
X43191Y669269D01*
X43204Y669367D01*
X43222Y669466D01*
X43243Y669563D01*
X43268Y669659D01*
X43297Y669755D01*
X43330Y669849D01*
X43366Y669942D01*
X43406Y670033D01*
X43450Y670123D01*
X43497Y670211D01*
X43547Y670297D01*
X43601Y670381D01*
X43658Y670463D01*
X43718Y670542D01*
X43782Y670620D01*
X43848Y670694D01*
X43917Y670766D01*
X43989Y670835D01*
X44063Y670901D01*
X44141Y670965D01*
X44220Y671025D01*
X44302Y671082D01*
X44386Y671136D01*
X44472Y671186D01*
X44560Y671233D01*
X44650Y671277D01*
X44741Y671317D01*
X44834Y671353D01*
X44928Y671386D01*
X45024Y671415D01*
X45120Y671440D01*
X45217Y671461D01*
X45316Y671479D01*
X45414Y671492D01*
X45514Y671502D01*
X45613Y671508D01*
X45713Y671510D01*
X60953Y671510D01*
X60953Y638490D02*
X45713Y638490D01*
X63493Y641030D02*
X63493Y668970D01*
D13*
X67938Y645475D02*
X67838Y645473D01*
X67739Y645467D01*
X67639Y645457D01*
X67541Y645444D01*
X67442Y645426D01*
X67345Y645405D01*
X67249Y645380D01*
X67153Y645351D01*
X67059Y645318D01*
X66966Y645282D01*
X66875Y645242D01*
X66785Y645198D01*
X66697Y645151D01*
X66611Y645101D01*
X66527Y645047D01*
X66445Y644990D01*
X66366Y644930D01*
X66288Y644866D01*
X66214Y644800D01*
X66142Y644731D01*
X66073Y644659D01*
X66007Y644585D01*
X65943Y644507D01*
X65883Y644428D01*
X65826Y644346D01*
X65772Y644262D01*
X65722Y644176D01*
X65675Y644088D01*
X65631Y643998D01*
X65591Y643907D01*
X65555Y643814D01*
X65522Y643720D01*
X65493Y643624D01*
X65468Y643528D01*
X65447Y643431D01*
X65429Y643332D01*
X65416Y643234D01*
X65406Y643134D01*
X65400Y643035D01*
X65398Y642935D01*
X65400Y642794D01*
X65405Y642653D01*
X65415Y642512D01*
X65428Y642371D01*
X65444Y642231D01*
X65465Y642091D01*
X65489Y641952D01*
X65517Y641813D01*
X65548Y641676D01*
X65583Y641539D01*
X65621Y641403D01*
X65663Y641268D01*
X65709Y641135D01*
X65758Y641002D01*
X65811Y640871D01*
X65867Y640742D01*
X65926Y640613D01*
X65989Y640487D01*
X66055Y640362D01*
X66124Y640239D01*
X66197Y640118D01*
X66273Y639999D01*
X66352Y639881D01*
X66433Y639766D01*
X66518Y639654D01*
X66606Y639543D01*
X66697Y639435D01*
X66790Y639329D01*
X66887Y639226D01*
X66986Y639125D01*
X74288Y639443D02*
X74388Y639445D01*
X74487Y639451D01*
X74587Y639461D01*
X74685Y639474D01*
X74784Y639492D01*
X74881Y639513D01*
X74977Y639538D01*
X75073Y639567D01*
X75167Y639600D01*
X75260Y639636D01*
X75351Y639676D01*
X75441Y639720D01*
X75529Y639767D01*
X75615Y639817D01*
X75699Y639871D01*
X75781Y639928D01*
X75860Y639988D01*
X75938Y640052D01*
X76012Y640118D01*
X76084Y640187D01*
X76153Y640259D01*
X76219Y640333D01*
X76283Y640411D01*
X76343Y640490D01*
X76400Y640572D01*
X76454Y640656D01*
X76504Y640742D01*
X76551Y640830D01*
X76595Y640920D01*
X76635Y641011D01*
X76671Y641104D01*
X76704Y641198D01*
X76733Y641294D01*
X76758Y641390D01*
X76779Y641487D01*
X76797Y641586D01*
X76810Y641684D01*
X76820Y641784D01*
X76826Y641883D01*
X76828Y641983D01*
X76829Y641983D02*
X76827Y642116D01*
X76822Y642249D01*
X76812Y642382D01*
X76799Y642515D01*
X76782Y642647D01*
X76762Y642779D01*
X76738Y642910D01*
X76710Y643040D01*
X76679Y643170D01*
X76644Y643298D01*
X76605Y643426D01*
X76563Y643552D01*
X76517Y643677D01*
X76468Y643801D01*
X76416Y643924D01*
X76360Y644045D01*
X76300Y644164D01*
X76238Y644282D01*
X76172Y644397D01*
X76103Y644511D01*
X76030Y644623D01*
X75955Y644733D01*
X75876Y644841D01*
X72065Y640712D02*
X72117Y640628D01*
X72172Y640545D01*
X72231Y640465D01*
X72292Y640387D01*
X72356Y640312D01*
X72424Y640239D01*
X72494Y640168D01*
X72566Y640101D01*
X72641Y640036D01*
X72719Y639974D01*
X72799Y639915D01*
X72881Y639859D01*
X72965Y639807D01*
X73051Y639758D01*
X73139Y639712D01*
X73229Y639669D01*
X73320Y639630D01*
X73413Y639595D01*
X73507Y639563D01*
X73602Y639535D01*
X73698Y639510D01*
X73795Y639490D01*
X73893Y639472D01*
X73991Y639459D01*
X74090Y639450D01*
X74189Y639444D01*
X74288Y639442D01*
X70161Y644205D02*
X70109Y644289D01*
X70054Y644372D01*
X69995Y644452D01*
X69934Y644530D01*
X69870Y644605D01*
X69802Y644678D01*
X69732Y644749D01*
X69660Y644816D01*
X69585Y644881D01*
X69507Y644943D01*
X69427Y645002D01*
X69345Y645058D01*
X69261Y645110D01*
X69175Y645159D01*
X69087Y645205D01*
X68997Y645248D01*
X68906Y645287D01*
X68813Y645322D01*
X68719Y645354D01*
X68624Y645382D01*
X68528Y645407D01*
X68431Y645427D01*
X68333Y645445D01*
X68235Y645458D01*
X68136Y645467D01*
X68037Y645473D01*
X67938Y645475D01*
X70161Y644205D02*
X72066Y640713D01*
X67938Y652766D02*
X76828Y652766D01*
X67938Y652766D02*
X67838Y652764D01*
X67739Y652758D01*
X67639Y652748D01*
X67541Y652735D01*
X67442Y652717D01*
X67345Y652696D01*
X67249Y652671D01*
X67153Y652642D01*
X67059Y652609D01*
X66966Y652573D01*
X66875Y652533D01*
X66785Y652489D01*
X66697Y652442D01*
X66611Y652392D01*
X66527Y652338D01*
X66445Y652281D01*
X66366Y652221D01*
X66288Y652157D01*
X66214Y652091D01*
X66142Y652022D01*
X66073Y651950D01*
X66007Y651876D01*
X65943Y651798D01*
X65883Y651719D01*
X65826Y651637D01*
X65772Y651553D01*
X65722Y651467D01*
X65675Y651379D01*
X65631Y651289D01*
X65591Y651198D01*
X65555Y651105D01*
X65522Y651011D01*
X65493Y650915D01*
X65468Y650819D01*
X65447Y650722D01*
X65429Y650623D01*
X65416Y650525D01*
X65406Y650425D01*
X65400Y650326D01*
X65398Y650226D01*
X65398Y648956D01*
X74288Y658175D02*
X76828Y661350D01*
X65398Y661350D01*
X65398Y658175D02*
X65398Y664525D01*
X73971Y675955D02*
X74075Y675953D01*
X74180Y675947D01*
X74284Y675938D01*
X74387Y675925D01*
X74490Y675907D01*
X74592Y675887D01*
X74694Y675862D01*
X74794Y675834D01*
X74894Y675802D01*
X74992Y675766D01*
X75089Y675727D01*
X75184Y675685D01*
X75278Y675639D01*
X75370Y675589D01*
X75460Y675537D01*
X75548Y675481D01*
X75634Y675421D01*
X75718Y675359D01*
X75799Y675294D01*
X75878Y675226D01*
X75955Y675154D01*
X76028Y675081D01*
X76100Y675004D01*
X76168Y674925D01*
X76233Y674844D01*
X76295Y674760D01*
X76355Y674674D01*
X76411Y674586D01*
X76463Y674496D01*
X76513Y674404D01*
X76559Y674310D01*
X76601Y674215D01*
X76640Y674118D01*
X76676Y674020D01*
X76708Y673920D01*
X76736Y673820D01*
X76761Y673718D01*
X76781Y673616D01*
X76799Y673513D01*
X76812Y673410D01*
X76821Y673306D01*
X76827Y673201D01*
X76829Y673097D01*
X76828Y673097D02*
X76826Y672979D01*
X76820Y672860D01*
X76811Y672742D01*
X76798Y672625D01*
X76780Y672508D01*
X76760Y672391D01*
X76735Y672275D01*
X76707Y672160D01*
X76674Y672047D01*
X76639Y671934D01*
X76599Y671822D01*
X76557Y671712D01*
X76510Y671603D01*
X76460Y671495D01*
X76407Y671390D01*
X76350Y671286D01*
X76290Y671184D01*
X76227Y671084D01*
X76160Y670986D01*
X76091Y670890D01*
X76018Y670797D01*
X75942Y670706D01*
X75864Y670617D01*
X75782Y670531D01*
X75698Y670448D01*
X75612Y670367D01*
X75522Y670290D01*
X75431Y670215D01*
X75337Y670143D01*
X75240Y670074D01*
X75142Y670009D01*
X75041Y669946D01*
X74938Y669887D01*
X74834Y669831D01*
X74728Y669779D01*
X74620Y669730D01*
X74511Y669685D01*
X74400Y669643D01*
X74288Y669605D01*
X71749Y675003D02*
X71824Y675079D01*
X71903Y675154D01*
X71984Y675225D01*
X72068Y675294D01*
X72154Y675359D01*
X72242Y675421D01*
X72332Y675481D01*
X72424Y675537D01*
X72519Y675590D01*
X72615Y675639D01*
X72713Y675685D01*
X72812Y675728D01*
X72913Y675767D01*
X73015Y675802D01*
X73118Y675834D01*
X73222Y675862D01*
X73327Y675887D01*
X73434Y675908D01*
X73540Y675925D01*
X73647Y675938D01*
X73755Y675947D01*
X73863Y675953D01*
X73971Y675955D01*
X71748Y675002D02*
X65398Y669605D01*
X65398Y675955D01*
D12*
X159007Y668970D02*
X159007Y641030D01*
X179327Y668970D02*
X179325Y669070D01*
X179319Y669169D01*
X179309Y669269D01*
X179296Y669367D01*
X179278Y669466D01*
X179257Y669563D01*
X179232Y669659D01*
X179203Y669755D01*
X179170Y669849D01*
X179134Y669942D01*
X179094Y670033D01*
X179050Y670123D01*
X179003Y670211D01*
X178953Y670297D01*
X178899Y670381D01*
X178842Y670463D01*
X178782Y670542D01*
X178718Y670620D01*
X178652Y670694D01*
X178583Y670766D01*
X178511Y670835D01*
X178437Y670901D01*
X178359Y670965D01*
X178280Y671025D01*
X178198Y671082D01*
X178114Y671136D01*
X178028Y671186D01*
X177940Y671233D01*
X177850Y671277D01*
X177759Y671317D01*
X177666Y671353D01*
X177572Y671386D01*
X177476Y671415D01*
X177380Y671440D01*
X177283Y671461D01*
X177184Y671479D01*
X177086Y671492D01*
X176986Y671502D01*
X176887Y671508D01*
X176787Y671510D01*
X179327Y641030D02*
X179325Y640930D01*
X179319Y640831D01*
X179309Y640731D01*
X179296Y640633D01*
X179278Y640534D01*
X179257Y640437D01*
X179232Y640341D01*
X179203Y640245D01*
X179170Y640151D01*
X179134Y640058D01*
X179094Y639967D01*
X179050Y639877D01*
X179003Y639789D01*
X178953Y639703D01*
X178899Y639619D01*
X178842Y639537D01*
X178782Y639458D01*
X178718Y639380D01*
X178652Y639306D01*
X178583Y639234D01*
X178511Y639165D01*
X178437Y639099D01*
X178359Y639035D01*
X178280Y638975D01*
X178198Y638918D01*
X178114Y638864D01*
X178028Y638814D01*
X177940Y638767D01*
X177850Y638723D01*
X177759Y638683D01*
X177666Y638647D01*
X177572Y638614D01*
X177476Y638585D01*
X177380Y638560D01*
X177283Y638539D01*
X177184Y638521D01*
X177086Y638508D01*
X176986Y638498D01*
X176887Y638492D01*
X176787Y638490D01*
X161547Y638490D02*
X161447Y638492D01*
X161348Y638498D01*
X161248Y638508D01*
X161150Y638521D01*
X161051Y638539D01*
X160954Y638560D01*
X160858Y638585D01*
X160762Y638614D01*
X160668Y638647D01*
X160575Y638683D01*
X160484Y638723D01*
X160394Y638767D01*
X160306Y638814D01*
X160220Y638864D01*
X160136Y638918D01*
X160054Y638975D01*
X159975Y639035D01*
X159897Y639099D01*
X159823Y639165D01*
X159751Y639234D01*
X159682Y639306D01*
X159616Y639380D01*
X159552Y639458D01*
X159492Y639537D01*
X159435Y639619D01*
X159381Y639703D01*
X159331Y639789D01*
X159284Y639877D01*
X159240Y639967D01*
X159200Y640058D01*
X159164Y640151D01*
X159131Y640245D01*
X159102Y640341D01*
X159077Y640437D01*
X159056Y640534D01*
X159038Y640633D01*
X159025Y640731D01*
X159015Y640831D01*
X159009Y640930D01*
X159007Y641030D01*
X159007Y668970D02*
X159009Y669070D01*
X159015Y669169D01*
X159025Y669269D01*
X159038Y669367D01*
X159056Y669466D01*
X159077Y669563D01*
X159102Y669659D01*
X159131Y669755D01*
X159164Y669849D01*
X159200Y669942D01*
X159240Y670033D01*
X159284Y670123D01*
X159331Y670211D01*
X159381Y670297D01*
X159435Y670381D01*
X159492Y670463D01*
X159552Y670542D01*
X159616Y670620D01*
X159682Y670694D01*
X159751Y670766D01*
X159823Y670835D01*
X159897Y670901D01*
X159975Y670965D01*
X160054Y671025D01*
X160136Y671082D01*
X160220Y671136D01*
X160306Y671186D01*
X160394Y671233D01*
X160484Y671277D01*
X160575Y671317D01*
X160668Y671353D01*
X160762Y671386D01*
X160858Y671415D01*
X160954Y671440D01*
X161051Y671461D01*
X161150Y671479D01*
X161248Y671492D01*
X161348Y671502D01*
X161447Y671508D01*
X161547Y671510D01*
X176787Y671510D01*
X176787Y638490D02*
X161547Y638490D01*
X179327Y641030D02*
X179327Y668970D01*
D13*
X183772Y645475D02*
X183672Y645473D01*
X183573Y645467D01*
X183473Y645457D01*
X183375Y645444D01*
X183276Y645426D01*
X183179Y645405D01*
X183083Y645380D01*
X182987Y645351D01*
X182893Y645318D01*
X182800Y645282D01*
X182709Y645242D01*
X182619Y645198D01*
X182531Y645151D01*
X182445Y645101D01*
X182361Y645047D01*
X182279Y644990D01*
X182200Y644930D01*
X182122Y644866D01*
X182048Y644800D01*
X181976Y644731D01*
X181907Y644659D01*
X181841Y644585D01*
X181777Y644507D01*
X181717Y644428D01*
X181660Y644346D01*
X181606Y644262D01*
X181556Y644176D01*
X181509Y644088D01*
X181465Y643998D01*
X181425Y643907D01*
X181389Y643814D01*
X181356Y643720D01*
X181327Y643624D01*
X181302Y643528D01*
X181281Y643431D01*
X181263Y643332D01*
X181250Y643234D01*
X181240Y643134D01*
X181234Y643035D01*
X181232Y642935D01*
X181231Y642935D02*
X181233Y642794D01*
X181238Y642653D01*
X181248Y642512D01*
X181261Y642371D01*
X181277Y642231D01*
X181298Y642091D01*
X181322Y641952D01*
X181350Y641813D01*
X181381Y641676D01*
X181416Y641539D01*
X181454Y641403D01*
X181496Y641268D01*
X181542Y641135D01*
X181591Y641002D01*
X181644Y640871D01*
X181700Y640742D01*
X181759Y640613D01*
X181822Y640487D01*
X181888Y640362D01*
X181957Y640239D01*
X182030Y640118D01*
X182106Y639999D01*
X182185Y639881D01*
X182266Y639766D01*
X182351Y639654D01*
X182439Y639543D01*
X182530Y639435D01*
X182623Y639329D01*
X182720Y639226D01*
X182819Y639125D01*
X190122Y639443D02*
X190222Y639445D01*
X190321Y639451D01*
X190421Y639461D01*
X190519Y639474D01*
X190618Y639492D01*
X190715Y639513D01*
X190811Y639538D01*
X190907Y639567D01*
X191001Y639600D01*
X191094Y639636D01*
X191185Y639676D01*
X191275Y639720D01*
X191363Y639767D01*
X191449Y639817D01*
X191533Y639871D01*
X191615Y639928D01*
X191694Y639988D01*
X191772Y640052D01*
X191846Y640118D01*
X191918Y640187D01*
X191987Y640259D01*
X192053Y640333D01*
X192117Y640411D01*
X192177Y640490D01*
X192234Y640572D01*
X192288Y640656D01*
X192338Y640742D01*
X192385Y640830D01*
X192429Y640920D01*
X192469Y641011D01*
X192505Y641104D01*
X192538Y641198D01*
X192567Y641294D01*
X192592Y641390D01*
X192613Y641487D01*
X192631Y641586D01*
X192644Y641684D01*
X192654Y641784D01*
X192660Y641883D01*
X192662Y641983D01*
X192660Y642116D01*
X192655Y642249D01*
X192645Y642382D01*
X192632Y642515D01*
X192615Y642647D01*
X192595Y642779D01*
X192571Y642910D01*
X192543Y643040D01*
X192512Y643170D01*
X192477Y643298D01*
X192438Y643426D01*
X192396Y643552D01*
X192350Y643677D01*
X192301Y643801D01*
X192249Y643924D01*
X192193Y644045D01*
X192133Y644164D01*
X192071Y644282D01*
X192005Y644397D01*
X191936Y644511D01*
X191863Y644623D01*
X191788Y644733D01*
X191709Y644841D01*
X187899Y640712D02*
X187951Y640628D01*
X188006Y640545D01*
X188065Y640465D01*
X188126Y640387D01*
X188190Y640312D01*
X188258Y640239D01*
X188328Y640168D01*
X188400Y640101D01*
X188475Y640036D01*
X188553Y639974D01*
X188633Y639915D01*
X188715Y639859D01*
X188799Y639807D01*
X188885Y639758D01*
X188973Y639712D01*
X189063Y639669D01*
X189154Y639630D01*
X189247Y639595D01*
X189341Y639563D01*
X189436Y639535D01*
X189532Y639510D01*
X189629Y639490D01*
X189727Y639472D01*
X189825Y639459D01*
X189924Y639450D01*
X190023Y639444D01*
X190122Y639442D01*
X185995Y644205D02*
X185943Y644289D01*
X185888Y644372D01*
X185829Y644452D01*
X185768Y644530D01*
X185704Y644605D01*
X185636Y644678D01*
X185566Y644749D01*
X185494Y644816D01*
X185419Y644881D01*
X185341Y644943D01*
X185261Y645002D01*
X185179Y645058D01*
X185095Y645110D01*
X185009Y645159D01*
X184921Y645205D01*
X184831Y645248D01*
X184740Y645287D01*
X184647Y645322D01*
X184553Y645354D01*
X184458Y645382D01*
X184362Y645407D01*
X184265Y645427D01*
X184167Y645445D01*
X184069Y645458D01*
X183970Y645467D01*
X183871Y645473D01*
X183772Y645475D01*
X185994Y644205D02*
X187899Y640713D01*
X183772Y652766D02*
X192662Y652766D01*
X183772Y652766D02*
X183672Y652764D01*
X183573Y652758D01*
X183473Y652748D01*
X183375Y652735D01*
X183276Y652717D01*
X183179Y652696D01*
X183083Y652671D01*
X182987Y652642D01*
X182893Y652609D01*
X182800Y652573D01*
X182709Y652533D01*
X182619Y652489D01*
X182531Y652442D01*
X182445Y652392D01*
X182361Y652338D01*
X182279Y652281D01*
X182200Y652221D01*
X182122Y652157D01*
X182048Y652091D01*
X181976Y652022D01*
X181907Y651950D01*
X181841Y651876D01*
X181777Y651798D01*
X181717Y651719D01*
X181660Y651637D01*
X181606Y651553D01*
X181556Y651467D01*
X181509Y651379D01*
X181465Y651289D01*
X181425Y651198D01*
X181389Y651105D01*
X181356Y651011D01*
X181327Y650915D01*
X181302Y650819D01*
X181281Y650722D01*
X181263Y650623D01*
X181250Y650525D01*
X181240Y650425D01*
X181234Y650326D01*
X181232Y650226D01*
X181232Y648956D01*
X190122Y658175D02*
X192662Y661350D01*
X181232Y661350D01*
X181232Y658175D02*
X181232Y664525D01*
X181232Y669605D02*
X181232Y672780D01*
X181234Y672891D01*
X181240Y673001D01*
X181249Y673112D01*
X181263Y673222D01*
X181280Y673331D01*
X181301Y673440D01*
X181326Y673548D01*
X181355Y673655D01*
X181387Y673761D01*
X181423Y673866D01*
X181463Y673969D01*
X181506Y674071D01*
X181553Y674172D01*
X181604Y674271D01*
X181657Y674368D01*
X181714Y674462D01*
X181775Y674555D01*
X181838Y674646D01*
X181905Y674735D01*
X181975Y674821D01*
X182048Y674904D01*
X182123Y674986D01*
X182201Y675064D01*
X182283Y675139D01*
X182366Y675212D01*
X182452Y675282D01*
X182541Y675349D01*
X182632Y675412D01*
X182725Y675473D01*
X182820Y675530D01*
X182916Y675583D01*
X183015Y675634D01*
X183116Y675681D01*
X183218Y675724D01*
X183321Y675764D01*
X183426Y675800D01*
X183532Y675832D01*
X183639Y675861D01*
X183747Y675886D01*
X183856Y675907D01*
X183965Y675924D01*
X184075Y675938D01*
X184186Y675947D01*
X184296Y675953D01*
X184407Y675955D01*
X184518Y675953D01*
X184628Y675947D01*
X184739Y675938D01*
X184849Y675924D01*
X184958Y675907D01*
X185067Y675886D01*
X185175Y675861D01*
X185282Y675832D01*
X185388Y675800D01*
X185493Y675764D01*
X185596Y675724D01*
X185698Y675681D01*
X185799Y675634D01*
X185898Y675583D01*
X185995Y675530D01*
X186089Y675473D01*
X186182Y675412D01*
X186273Y675349D01*
X186362Y675282D01*
X186448Y675212D01*
X186531Y675139D01*
X186613Y675064D01*
X186691Y674986D01*
X186766Y674904D01*
X186839Y674821D01*
X186909Y674735D01*
X186976Y674646D01*
X187039Y674555D01*
X187100Y674462D01*
X187157Y674368D01*
X187210Y674271D01*
X187261Y674172D01*
X187308Y674071D01*
X187351Y673969D01*
X187391Y673866D01*
X187427Y673761D01*
X187459Y673655D01*
X187488Y673548D01*
X187513Y673440D01*
X187534Y673331D01*
X187551Y673222D01*
X187565Y673112D01*
X187574Y673001D01*
X187580Y672891D01*
X187582Y672780D01*
X192662Y673415D02*
X192662Y669605D01*
X192662Y673415D02*
X192660Y673515D01*
X192654Y673614D01*
X192644Y673714D01*
X192631Y673812D01*
X192613Y673911D01*
X192592Y674008D01*
X192567Y674104D01*
X192538Y674200D01*
X192505Y674294D01*
X192469Y674387D01*
X192429Y674478D01*
X192385Y674568D01*
X192338Y674656D01*
X192288Y674742D01*
X192234Y674826D01*
X192177Y674908D01*
X192117Y674987D01*
X192053Y675065D01*
X191987Y675139D01*
X191918Y675211D01*
X191846Y675280D01*
X191772Y675346D01*
X191694Y675410D01*
X191615Y675470D01*
X191533Y675527D01*
X191449Y675581D01*
X191363Y675631D01*
X191275Y675678D01*
X191185Y675722D01*
X191094Y675762D01*
X191001Y675798D01*
X190907Y675831D01*
X190811Y675860D01*
X190715Y675885D01*
X190618Y675906D01*
X190519Y675924D01*
X190421Y675937D01*
X190321Y675947D01*
X190222Y675953D01*
X190122Y675955D01*
X190022Y675953D01*
X189923Y675947D01*
X189823Y675937D01*
X189725Y675924D01*
X189626Y675906D01*
X189529Y675885D01*
X189433Y675860D01*
X189337Y675831D01*
X189243Y675798D01*
X189150Y675762D01*
X189059Y675722D01*
X188969Y675678D01*
X188881Y675631D01*
X188795Y675581D01*
X188711Y675527D01*
X188629Y675470D01*
X188550Y675410D01*
X188472Y675346D01*
X188398Y675280D01*
X188326Y675211D01*
X188257Y675139D01*
X188191Y675065D01*
X188127Y674987D01*
X188067Y674908D01*
X188010Y674826D01*
X187956Y674742D01*
X187906Y674656D01*
X187859Y674568D01*
X187815Y674478D01*
X187775Y674387D01*
X187739Y674294D01*
X187706Y674200D01*
X187677Y674104D01*
X187652Y674008D01*
X187631Y673911D01*
X187613Y673812D01*
X187600Y673714D01*
X187590Y673614D01*
X187584Y673515D01*
X187582Y673415D01*
X187582Y670875D01*
D12*
X217340Y668970D02*
X217340Y641030D01*
X237660Y668970D02*
X237658Y669070D01*
X237652Y669169D01*
X237642Y669269D01*
X237629Y669367D01*
X237611Y669466D01*
X237590Y669563D01*
X237565Y669659D01*
X237536Y669755D01*
X237503Y669849D01*
X237467Y669942D01*
X237427Y670033D01*
X237383Y670123D01*
X237336Y670211D01*
X237286Y670297D01*
X237232Y670381D01*
X237175Y670463D01*
X237115Y670542D01*
X237051Y670620D01*
X236985Y670694D01*
X236916Y670766D01*
X236844Y670835D01*
X236770Y670901D01*
X236692Y670965D01*
X236613Y671025D01*
X236531Y671082D01*
X236447Y671136D01*
X236361Y671186D01*
X236273Y671233D01*
X236183Y671277D01*
X236092Y671317D01*
X235999Y671353D01*
X235905Y671386D01*
X235809Y671415D01*
X235713Y671440D01*
X235616Y671461D01*
X235517Y671479D01*
X235419Y671492D01*
X235319Y671502D01*
X235220Y671508D01*
X235120Y671510D01*
X237660Y641030D02*
X237658Y640930D01*
X237652Y640831D01*
X237642Y640731D01*
X237629Y640633D01*
X237611Y640534D01*
X237590Y640437D01*
X237565Y640341D01*
X237536Y640245D01*
X237503Y640151D01*
X237467Y640058D01*
X237427Y639967D01*
X237383Y639877D01*
X237336Y639789D01*
X237286Y639703D01*
X237232Y639619D01*
X237175Y639537D01*
X237115Y639458D01*
X237051Y639380D01*
X236985Y639306D01*
X236916Y639234D01*
X236844Y639165D01*
X236770Y639099D01*
X236692Y639035D01*
X236613Y638975D01*
X236531Y638918D01*
X236447Y638864D01*
X236361Y638814D01*
X236273Y638767D01*
X236183Y638723D01*
X236092Y638683D01*
X235999Y638647D01*
X235905Y638614D01*
X235809Y638585D01*
X235713Y638560D01*
X235616Y638539D01*
X235517Y638521D01*
X235419Y638508D01*
X235319Y638498D01*
X235220Y638492D01*
X235120Y638490D01*
X219880Y638490D02*
X219780Y638492D01*
X219681Y638498D01*
X219581Y638508D01*
X219483Y638521D01*
X219384Y638539D01*
X219287Y638560D01*
X219191Y638585D01*
X219095Y638614D01*
X219001Y638647D01*
X218908Y638683D01*
X218817Y638723D01*
X218727Y638767D01*
X218639Y638814D01*
X218553Y638864D01*
X218469Y638918D01*
X218387Y638975D01*
X218308Y639035D01*
X218230Y639099D01*
X218156Y639165D01*
X218084Y639234D01*
X218015Y639306D01*
X217949Y639380D01*
X217885Y639458D01*
X217825Y639537D01*
X217768Y639619D01*
X217714Y639703D01*
X217664Y639789D01*
X217617Y639877D01*
X217573Y639967D01*
X217533Y640058D01*
X217497Y640151D01*
X217464Y640245D01*
X217435Y640341D01*
X217410Y640437D01*
X217389Y640534D01*
X217371Y640633D01*
X217358Y640731D01*
X217348Y640831D01*
X217342Y640930D01*
X217340Y641030D01*
X217340Y668970D02*
X217342Y669070D01*
X217348Y669169D01*
X217358Y669269D01*
X217371Y669367D01*
X217389Y669466D01*
X217410Y669563D01*
X217435Y669659D01*
X217464Y669755D01*
X217497Y669849D01*
X217533Y669942D01*
X217573Y670033D01*
X217617Y670123D01*
X217664Y670211D01*
X217714Y670297D01*
X217768Y670381D01*
X217825Y670463D01*
X217885Y670542D01*
X217949Y670620D01*
X218015Y670694D01*
X218084Y670766D01*
X218156Y670835D01*
X218230Y670901D01*
X218308Y670965D01*
X218387Y671025D01*
X218469Y671082D01*
X218553Y671136D01*
X218639Y671186D01*
X218727Y671233D01*
X218817Y671277D01*
X218908Y671317D01*
X219001Y671353D01*
X219095Y671386D01*
X219191Y671415D01*
X219287Y671440D01*
X219384Y671461D01*
X219483Y671479D01*
X219581Y671492D01*
X219681Y671502D01*
X219780Y671508D01*
X219880Y671510D01*
X235120Y671510D01*
X235120Y638490D02*
X219880Y638490D01*
X237660Y641030D02*
X237660Y668970D01*
D13*
X242105Y645475D02*
X242005Y645473D01*
X241906Y645467D01*
X241806Y645457D01*
X241708Y645444D01*
X241609Y645426D01*
X241512Y645405D01*
X241416Y645380D01*
X241320Y645351D01*
X241226Y645318D01*
X241133Y645282D01*
X241042Y645242D01*
X240952Y645198D01*
X240864Y645151D01*
X240778Y645101D01*
X240694Y645047D01*
X240612Y644990D01*
X240533Y644930D01*
X240455Y644866D01*
X240381Y644800D01*
X240309Y644731D01*
X240240Y644659D01*
X240174Y644585D01*
X240110Y644507D01*
X240050Y644428D01*
X239993Y644346D01*
X239939Y644262D01*
X239889Y644176D01*
X239842Y644088D01*
X239798Y643998D01*
X239758Y643907D01*
X239722Y643814D01*
X239689Y643720D01*
X239660Y643624D01*
X239635Y643528D01*
X239614Y643431D01*
X239596Y643332D01*
X239583Y643234D01*
X239573Y643134D01*
X239567Y643035D01*
X239565Y642935D01*
X239567Y642794D01*
X239572Y642653D01*
X239582Y642512D01*
X239595Y642371D01*
X239611Y642231D01*
X239632Y642091D01*
X239656Y641952D01*
X239684Y641813D01*
X239715Y641676D01*
X239750Y641539D01*
X239788Y641403D01*
X239830Y641268D01*
X239876Y641135D01*
X239925Y641002D01*
X239978Y640871D01*
X240034Y640742D01*
X240093Y640613D01*
X240156Y640487D01*
X240222Y640362D01*
X240291Y640239D01*
X240364Y640118D01*
X240440Y639999D01*
X240519Y639881D01*
X240600Y639766D01*
X240685Y639654D01*
X240773Y639543D01*
X240864Y639435D01*
X240957Y639329D01*
X241054Y639226D01*
X241153Y639125D01*
X248455Y639443D02*
X248555Y639445D01*
X248654Y639451D01*
X248754Y639461D01*
X248852Y639474D01*
X248951Y639492D01*
X249048Y639513D01*
X249144Y639538D01*
X249240Y639567D01*
X249334Y639600D01*
X249427Y639636D01*
X249518Y639676D01*
X249608Y639720D01*
X249696Y639767D01*
X249782Y639817D01*
X249866Y639871D01*
X249948Y639928D01*
X250027Y639988D01*
X250105Y640052D01*
X250179Y640118D01*
X250251Y640187D01*
X250320Y640259D01*
X250386Y640333D01*
X250450Y640411D01*
X250510Y640490D01*
X250567Y640572D01*
X250621Y640656D01*
X250671Y640742D01*
X250718Y640830D01*
X250762Y640920D01*
X250802Y641011D01*
X250838Y641104D01*
X250871Y641198D01*
X250900Y641294D01*
X250925Y641390D01*
X250946Y641487D01*
X250964Y641586D01*
X250977Y641684D01*
X250987Y641784D01*
X250993Y641883D01*
X250995Y641983D01*
X250996Y641983D02*
X250994Y642116D01*
X250989Y642249D01*
X250979Y642382D01*
X250966Y642515D01*
X250949Y642647D01*
X250929Y642779D01*
X250905Y642910D01*
X250877Y643040D01*
X250846Y643170D01*
X250811Y643298D01*
X250772Y643426D01*
X250730Y643552D01*
X250684Y643677D01*
X250635Y643801D01*
X250583Y643924D01*
X250527Y644045D01*
X250467Y644164D01*
X250405Y644282D01*
X250339Y644397D01*
X250270Y644511D01*
X250197Y644623D01*
X250122Y644733D01*
X250043Y644841D01*
X246232Y640712D02*
X246284Y640628D01*
X246339Y640545D01*
X246398Y640465D01*
X246459Y640387D01*
X246523Y640312D01*
X246591Y640239D01*
X246661Y640168D01*
X246733Y640101D01*
X246808Y640036D01*
X246886Y639974D01*
X246966Y639915D01*
X247048Y639859D01*
X247132Y639807D01*
X247218Y639758D01*
X247306Y639712D01*
X247396Y639669D01*
X247487Y639630D01*
X247580Y639595D01*
X247674Y639563D01*
X247769Y639535D01*
X247865Y639510D01*
X247962Y639490D01*
X248060Y639472D01*
X248158Y639459D01*
X248257Y639450D01*
X248356Y639444D01*
X248455Y639442D01*
X244328Y644205D02*
X244276Y644289D01*
X244221Y644372D01*
X244162Y644452D01*
X244101Y644530D01*
X244037Y644605D01*
X243969Y644678D01*
X243899Y644749D01*
X243827Y644816D01*
X243752Y644881D01*
X243674Y644943D01*
X243594Y645002D01*
X243512Y645058D01*
X243428Y645110D01*
X243342Y645159D01*
X243254Y645205D01*
X243164Y645248D01*
X243073Y645287D01*
X242980Y645322D01*
X242886Y645354D01*
X242791Y645382D01*
X242695Y645407D01*
X242598Y645427D01*
X242500Y645445D01*
X242402Y645458D01*
X242303Y645467D01*
X242204Y645473D01*
X242105Y645475D01*
X244328Y644205D02*
X246233Y640713D01*
X242105Y652766D02*
X250995Y652766D01*
X242105Y652766D02*
X242005Y652764D01*
X241906Y652758D01*
X241806Y652748D01*
X241708Y652735D01*
X241609Y652717D01*
X241512Y652696D01*
X241416Y652671D01*
X241320Y652642D01*
X241226Y652609D01*
X241133Y652573D01*
X241042Y652533D01*
X240952Y652489D01*
X240864Y652442D01*
X240778Y652392D01*
X240694Y652338D01*
X240612Y652281D01*
X240533Y652221D01*
X240455Y652157D01*
X240381Y652091D01*
X240309Y652022D01*
X240240Y651950D01*
X240174Y651876D01*
X240110Y651798D01*
X240050Y651719D01*
X239993Y651637D01*
X239939Y651553D01*
X239889Y651467D01*
X239842Y651379D01*
X239798Y651289D01*
X239758Y651198D01*
X239722Y651105D01*
X239689Y651011D01*
X239660Y650915D01*
X239635Y650819D01*
X239614Y650722D01*
X239596Y650623D01*
X239583Y650525D01*
X239573Y650425D01*
X239567Y650326D01*
X239565Y650226D01*
X239565Y648956D01*
X248455Y658175D02*
X250995Y661350D01*
X239565Y661350D01*
X239565Y658175D02*
X239565Y664525D01*
X242105Y669605D02*
X250995Y672145D01*
X242105Y669605D02*
X242105Y675955D01*
X244645Y674050D02*
X239565Y674050D01*
M02*
