%
M48
M72
T01C0.01378
T02C0.03200
T03C0.03937
T04C0.04000
T05C0.04700
T06C0.05906
T07C0.07874
T08C0.11811
%
T01
X21276Y12417
X13402Y22260
X34071Y28165
X20291Y44898
X24228Y67535
X11433Y75409
X38992Y76394
X44898Y76394
X56709Y68520
X76394Y70488
X77378Y59661
X91157Y54740
X87220Y41945
X92142Y27181
X94110Y21276
X86236Y11433
X77378Y11433
X71472Y34071
X51787Y40961
X52772Y23244
X107890Y17339
X110843Y29150
X107890Y41945
X109270Y45625
X106906Y53756
X106906Y59661
X123638Y73441
X124622Y66551
X128559Y62614
X148244Y50803
X131512Y34071
X135449Y31118
X131586Y25286
X128559Y22260
X133480Y11433
X147260Y31118
X155134Y20291
X171866Y28165
X181709Y47850
X175803Y60646
X169898Y50803
X157102Y74425
X161039Y79346
X157102Y82299
X189780Y70215
X200409Y67535
X205331Y71472
X213205Y65567
X220094Y54248
X213205Y50803
X220094Y44898
X213205Y42218
X207299Y32102
X205331Y26197
X197457Y26197
X195488Y37024
X197457Y49819
X113795Y85252
X27181Y143323
X21276Y184661
X13402Y194504
X34071Y200409
X20291Y217142
X24228Y239780
X11433Y247654
X38992Y248638
X44898Y248638
X56709Y240764
X76394Y242732
X77378Y231906
X91157Y226984
X87220Y214189
X92142Y199425
X94110Y193520
X86236Y183677
X77378Y183677
X71472Y206315
X51787Y213205
X52772Y195488
X107890Y189583
X110843Y201394
X107890Y214189
X109270Y217869
X106906Y226000
X106906Y231906
X123638Y245685
X124622Y238795
X128559Y234858
X148244Y223047
X147260Y203362
X155134Y192535
X171866Y200409
X181709Y220094
X175803Y232890
X169898Y223047
X189780Y242459
X200409Y239780
X205331Y243717
X213205Y237811
X220094Y226492
X213205Y223047
X213205Y214462
X220094Y217142
X207299Y204346
X205331Y198441
X197457Y198441
X195488Y209268
X197457Y222063
X161039Y251591
X157102Y254543
X157102Y246669
X131512Y206315
X135449Y203362
X131586Y197530
X128559Y194504
X133480Y183677
X113795Y257496
X27181Y315567
T02
X47535Y241748
X47535Y231906
X47535Y222063
X87535Y222063
X94780Y222063
X94780Y231413
X87535Y231906
X87535Y241748
X94780Y241748
X134780Y241748
X134780Y231413
X134780Y222063
X134780Y69504
X134780Y59169
X134780Y49819
X94780Y49819
X87535Y49819
X87535Y59661
X94780Y59169
X94780Y69504
X87535Y69504
X47535Y69504
X47535Y59661
X47535Y49819
T03
X75409Y79346
X85252Y79346
X95094Y79346
X95094Y251591
X85252Y251591
X75409Y251591
T04
X61709Y252575
X51709Y252575
X108559Y251591
X118559Y251591
X128559Y251591
X138559Y251591
X148559Y251591
X148559Y79346
X138559Y79346
X128559Y79346
X118559Y79346
X108559Y79346
X61709Y80331
X51709Y80331
T05
X25134Y75409
X25134Y55724
X23244Y24071
X42929Y24071
X62614Y24071
X82299Y24071
X101984Y24071
X121669Y24071
X121669Y196315
X101984Y196315
X82299Y196315
X62614Y196315
X42929Y196315
X23244Y196315
X25134Y227969
X25134Y247654
T06
X16110Y272709
X16110Y340709
X16110Y168465
X16110Y100465
X172110Y100465
X172110Y168465
X172110Y272709
X172110Y340709
T07
X11433Y11433
X11433Y85252
X11433Y183677
X11433Y257496
X253559Y257496
X253559Y183677
X253559Y170882
X253559Y85252
X253559Y11433
X252575Y344110
T08
X154110Y276709
X37110Y336709
X37110Y164465
X154110Y104465
M30
