G75*
%MOIN*%
%OFA0B0*%
%FSLAX25Y25*%
%IPPOS*%
%LPD*%
%AMOC8*
5,1,8,0,0,1.08239X$1,22.5*
%
%ADD10C,0.00000*%
%ADD11C,0.00600*%
%ADD12C,0.00300*%
D10*
X0009174Y0004253D02*
X0324135Y0004253D01*
X0324135Y0348741D01*
X0009174Y0348741D01*
X0009174Y0004253D01*
X0012127Y0010158D02*
X0012129Y0010283D01*
X0012135Y0010408D01*
X0012145Y0010532D01*
X0012159Y0010656D01*
X0012176Y0010780D01*
X0012198Y0010903D01*
X0012224Y0011025D01*
X0012253Y0011147D01*
X0012286Y0011267D01*
X0012324Y0011386D01*
X0012364Y0011505D01*
X0012409Y0011621D01*
X0012457Y0011736D01*
X0012509Y0011850D01*
X0012565Y0011962D01*
X0012624Y0012072D01*
X0012686Y0012180D01*
X0012752Y0012287D01*
X0012821Y0012391D01*
X0012894Y0012492D01*
X0012969Y0012592D01*
X0013048Y0012689D01*
X0013130Y0012783D01*
X0013215Y0012875D01*
X0013302Y0012964D01*
X0013393Y0013050D01*
X0013486Y0013133D01*
X0013582Y0013214D01*
X0013680Y0013291D01*
X0013780Y0013365D01*
X0013883Y0013436D01*
X0013988Y0013503D01*
X0014096Y0013568D01*
X0014205Y0013628D01*
X0014316Y0013686D01*
X0014429Y0013739D01*
X0014543Y0013789D01*
X0014659Y0013836D01*
X0014776Y0013878D01*
X0014895Y0013917D01*
X0015015Y0013953D01*
X0015136Y0013984D01*
X0015258Y0014012D01*
X0015380Y0014035D01*
X0015504Y0014055D01*
X0015628Y0014071D01*
X0015752Y0014083D01*
X0015877Y0014091D01*
X0016002Y0014095D01*
X0016126Y0014095D01*
X0016251Y0014091D01*
X0016376Y0014083D01*
X0016500Y0014071D01*
X0016624Y0014055D01*
X0016748Y0014035D01*
X0016870Y0014012D01*
X0016992Y0013984D01*
X0017113Y0013953D01*
X0017233Y0013917D01*
X0017352Y0013878D01*
X0017469Y0013836D01*
X0017585Y0013789D01*
X0017699Y0013739D01*
X0017812Y0013686D01*
X0017923Y0013628D01*
X0018033Y0013568D01*
X0018140Y0013503D01*
X0018245Y0013436D01*
X0018348Y0013365D01*
X0018448Y0013291D01*
X0018546Y0013214D01*
X0018642Y0013133D01*
X0018735Y0013050D01*
X0018826Y0012964D01*
X0018913Y0012875D01*
X0018998Y0012783D01*
X0019080Y0012689D01*
X0019159Y0012592D01*
X0019234Y0012492D01*
X0019307Y0012391D01*
X0019376Y0012287D01*
X0019442Y0012180D01*
X0019504Y0012072D01*
X0019563Y0011962D01*
X0019619Y0011850D01*
X0019671Y0011736D01*
X0019719Y0011621D01*
X0019764Y0011505D01*
X0019804Y0011386D01*
X0019842Y0011267D01*
X0019875Y0011147D01*
X0019904Y0011025D01*
X0019930Y0010903D01*
X0019952Y0010780D01*
X0019969Y0010656D01*
X0019983Y0010532D01*
X0019993Y0010408D01*
X0019999Y0010283D01*
X0020001Y0010158D01*
X0019999Y0010033D01*
X0019993Y0009908D01*
X0019983Y0009784D01*
X0019969Y0009660D01*
X0019952Y0009536D01*
X0019930Y0009413D01*
X0019904Y0009291D01*
X0019875Y0009169D01*
X0019842Y0009049D01*
X0019804Y0008930D01*
X0019764Y0008811D01*
X0019719Y0008695D01*
X0019671Y0008580D01*
X0019619Y0008466D01*
X0019563Y0008354D01*
X0019504Y0008244D01*
X0019442Y0008136D01*
X0019376Y0008029D01*
X0019307Y0007925D01*
X0019234Y0007824D01*
X0019159Y0007724D01*
X0019080Y0007627D01*
X0018998Y0007533D01*
X0018913Y0007441D01*
X0018826Y0007352D01*
X0018735Y0007266D01*
X0018642Y0007183D01*
X0018546Y0007102D01*
X0018448Y0007025D01*
X0018348Y0006951D01*
X0018245Y0006880D01*
X0018140Y0006813D01*
X0018032Y0006748D01*
X0017923Y0006688D01*
X0017812Y0006630D01*
X0017699Y0006577D01*
X0017585Y0006527D01*
X0017469Y0006480D01*
X0017352Y0006438D01*
X0017233Y0006399D01*
X0017113Y0006363D01*
X0016992Y0006332D01*
X0016870Y0006304D01*
X0016748Y0006281D01*
X0016624Y0006261D01*
X0016500Y0006245D01*
X0016376Y0006233D01*
X0016251Y0006225D01*
X0016126Y0006221D01*
X0016002Y0006221D01*
X0015877Y0006225D01*
X0015752Y0006233D01*
X0015628Y0006245D01*
X0015504Y0006261D01*
X0015380Y0006281D01*
X0015258Y0006304D01*
X0015136Y0006332D01*
X0015015Y0006363D01*
X0014895Y0006399D01*
X0014776Y0006438D01*
X0014659Y0006480D01*
X0014543Y0006527D01*
X0014429Y0006577D01*
X0014316Y0006630D01*
X0014205Y0006688D01*
X0014095Y0006748D01*
X0013988Y0006813D01*
X0013883Y0006880D01*
X0013780Y0006951D01*
X0013680Y0007025D01*
X0013582Y0007102D01*
X0013486Y0007183D01*
X0013393Y0007266D01*
X0013302Y0007352D01*
X0013215Y0007441D01*
X0013130Y0007533D01*
X0013048Y0007627D01*
X0012969Y0007724D01*
X0012894Y0007824D01*
X0012821Y0007925D01*
X0012752Y0008029D01*
X0012686Y0008136D01*
X0012624Y0008244D01*
X0012565Y0008354D01*
X0012509Y0008466D01*
X0012457Y0008580D01*
X0012409Y0008695D01*
X0012364Y0008811D01*
X0012324Y0008930D01*
X0012286Y0009049D01*
X0012253Y0009169D01*
X0012224Y0009291D01*
X0012198Y0009413D01*
X0012176Y0009536D01*
X0012159Y0009660D01*
X0012145Y0009784D01*
X0012135Y0009908D01*
X0012129Y0010033D01*
X0012127Y0010158D01*
X0012127Y0083977D02*
X0012129Y0084102D01*
X0012135Y0084227D01*
X0012145Y0084351D01*
X0012159Y0084475D01*
X0012176Y0084599D01*
X0012198Y0084722D01*
X0012224Y0084844D01*
X0012253Y0084966D01*
X0012286Y0085086D01*
X0012324Y0085205D01*
X0012364Y0085324D01*
X0012409Y0085440D01*
X0012457Y0085555D01*
X0012509Y0085669D01*
X0012565Y0085781D01*
X0012624Y0085891D01*
X0012686Y0085999D01*
X0012752Y0086106D01*
X0012821Y0086210D01*
X0012894Y0086311D01*
X0012969Y0086411D01*
X0013048Y0086508D01*
X0013130Y0086602D01*
X0013215Y0086694D01*
X0013302Y0086783D01*
X0013393Y0086869D01*
X0013486Y0086952D01*
X0013582Y0087033D01*
X0013680Y0087110D01*
X0013780Y0087184D01*
X0013883Y0087255D01*
X0013988Y0087322D01*
X0014096Y0087387D01*
X0014205Y0087447D01*
X0014316Y0087505D01*
X0014429Y0087558D01*
X0014543Y0087608D01*
X0014659Y0087655D01*
X0014776Y0087697D01*
X0014895Y0087736D01*
X0015015Y0087772D01*
X0015136Y0087803D01*
X0015258Y0087831D01*
X0015380Y0087854D01*
X0015504Y0087874D01*
X0015628Y0087890D01*
X0015752Y0087902D01*
X0015877Y0087910D01*
X0016002Y0087914D01*
X0016126Y0087914D01*
X0016251Y0087910D01*
X0016376Y0087902D01*
X0016500Y0087890D01*
X0016624Y0087874D01*
X0016748Y0087854D01*
X0016870Y0087831D01*
X0016992Y0087803D01*
X0017113Y0087772D01*
X0017233Y0087736D01*
X0017352Y0087697D01*
X0017469Y0087655D01*
X0017585Y0087608D01*
X0017699Y0087558D01*
X0017812Y0087505D01*
X0017923Y0087447D01*
X0018033Y0087387D01*
X0018140Y0087322D01*
X0018245Y0087255D01*
X0018348Y0087184D01*
X0018448Y0087110D01*
X0018546Y0087033D01*
X0018642Y0086952D01*
X0018735Y0086869D01*
X0018826Y0086783D01*
X0018913Y0086694D01*
X0018998Y0086602D01*
X0019080Y0086508D01*
X0019159Y0086411D01*
X0019234Y0086311D01*
X0019307Y0086210D01*
X0019376Y0086106D01*
X0019442Y0085999D01*
X0019504Y0085891D01*
X0019563Y0085781D01*
X0019619Y0085669D01*
X0019671Y0085555D01*
X0019719Y0085440D01*
X0019764Y0085324D01*
X0019804Y0085205D01*
X0019842Y0085086D01*
X0019875Y0084966D01*
X0019904Y0084844D01*
X0019930Y0084722D01*
X0019952Y0084599D01*
X0019969Y0084475D01*
X0019983Y0084351D01*
X0019993Y0084227D01*
X0019999Y0084102D01*
X0020001Y0083977D01*
X0019999Y0083852D01*
X0019993Y0083727D01*
X0019983Y0083603D01*
X0019969Y0083479D01*
X0019952Y0083355D01*
X0019930Y0083232D01*
X0019904Y0083110D01*
X0019875Y0082988D01*
X0019842Y0082868D01*
X0019804Y0082749D01*
X0019764Y0082630D01*
X0019719Y0082514D01*
X0019671Y0082399D01*
X0019619Y0082285D01*
X0019563Y0082173D01*
X0019504Y0082063D01*
X0019442Y0081955D01*
X0019376Y0081848D01*
X0019307Y0081744D01*
X0019234Y0081643D01*
X0019159Y0081543D01*
X0019080Y0081446D01*
X0018998Y0081352D01*
X0018913Y0081260D01*
X0018826Y0081171D01*
X0018735Y0081085D01*
X0018642Y0081002D01*
X0018546Y0080921D01*
X0018448Y0080844D01*
X0018348Y0080770D01*
X0018245Y0080699D01*
X0018140Y0080632D01*
X0018032Y0080567D01*
X0017923Y0080507D01*
X0017812Y0080449D01*
X0017699Y0080396D01*
X0017585Y0080346D01*
X0017469Y0080299D01*
X0017352Y0080257D01*
X0017233Y0080218D01*
X0017113Y0080182D01*
X0016992Y0080151D01*
X0016870Y0080123D01*
X0016748Y0080100D01*
X0016624Y0080080D01*
X0016500Y0080064D01*
X0016376Y0080052D01*
X0016251Y0080044D01*
X0016126Y0080040D01*
X0016002Y0080040D01*
X0015877Y0080044D01*
X0015752Y0080052D01*
X0015628Y0080064D01*
X0015504Y0080080D01*
X0015380Y0080100D01*
X0015258Y0080123D01*
X0015136Y0080151D01*
X0015015Y0080182D01*
X0014895Y0080218D01*
X0014776Y0080257D01*
X0014659Y0080299D01*
X0014543Y0080346D01*
X0014429Y0080396D01*
X0014316Y0080449D01*
X0014205Y0080507D01*
X0014095Y0080567D01*
X0013988Y0080632D01*
X0013883Y0080699D01*
X0013780Y0080770D01*
X0013680Y0080844D01*
X0013582Y0080921D01*
X0013486Y0081002D01*
X0013393Y0081085D01*
X0013302Y0081171D01*
X0013215Y0081260D01*
X0013130Y0081352D01*
X0013048Y0081446D01*
X0012969Y0081543D01*
X0012894Y0081643D01*
X0012821Y0081744D01*
X0012752Y0081848D01*
X0012686Y0081955D01*
X0012624Y0082063D01*
X0012565Y0082173D01*
X0012509Y0082285D01*
X0012457Y0082399D01*
X0012409Y0082514D01*
X0012364Y0082630D01*
X0012324Y0082749D01*
X0012286Y0082868D01*
X0012253Y0082988D01*
X0012224Y0083110D01*
X0012198Y0083232D01*
X0012176Y0083355D01*
X0012159Y0083479D01*
X0012145Y0083603D01*
X0012135Y0083727D01*
X0012129Y0083852D01*
X0012127Y0083977D01*
X0035835Y0163190D02*
X0035837Y0163343D01*
X0035843Y0163497D01*
X0035853Y0163650D01*
X0035867Y0163802D01*
X0035885Y0163955D01*
X0035907Y0164106D01*
X0035932Y0164257D01*
X0035962Y0164408D01*
X0035996Y0164558D01*
X0036033Y0164706D01*
X0036074Y0164854D01*
X0036119Y0165000D01*
X0036168Y0165146D01*
X0036221Y0165290D01*
X0036277Y0165432D01*
X0036337Y0165573D01*
X0036401Y0165713D01*
X0036468Y0165851D01*
X0036539Y0165987D01*
X0036614Y0166121D01*
X0036691Y0166253D01*
X0036773Y0166383D01*
X0036857Y0166511D01*
X0036945Y0166637D01*
X0037036Y0166760D01*
X0037130Y0166881D01*
X0037228Y0166999D01*
X0037328Y0167115D01*
X0037432Y0167228D01*
X0037538Y0167339D01*
X0037647Y0167447D01*
X0037759Y0167552D01*
X0037873Y0167653D01*
X0037991Y0167752D01*
X0038110Y0167848D01*
X0038232Y0167941D01*
X0038357Y0168030D01*
X0038484Y0168117D01*
X0038613Y0168199D01*
X0038744Y0168279D01*
X0038877Y0168355D01*
X0039012Y0168428D01*
X0039149Y0168497D01*
X0039288Y0168562D01*
X0039428Y0168624D01*
X0039570Y0168682D01*
X0039713Y0168737D01*
X0039858Y0168788D01*
X0040004Y0168835D01*
X0040151Y0168878D01*
X0040299Y0168917D01*
X0040448Y0168953D01*
X0040598Y0168984D01*
X0040749Y0169012D01*
X0040900Y0169036D01*
X0041053Y0169056D01*
X0041205Y0169072D01*
X0041358Y0169084D01*
X0041511Y0169092D01*
X0041664Y0169096D01*
X0041818Y0169096D01*
X0041971Y0169092D01*
X0042124Y0169084D01*
X0042277Y0169072D01*
X0042429Y0169056D01*
X0042582Y0169036D01*
X0042733Y0169012D01*
X0042884Y0168984D01*
X0043034Y0168953D01*
X0043183Y0168917D01*
X0043331Y0168878D01*
X0043478Y0168835D01*
X0043624Y0168788D01*
X0043769Y0168737D01*
X0043912Y0168682D01*
X0044054Y0168624D01*
X0044194Y0168562D01*
X0044333Y0168497D01*
X0044470Y0168428D01*
X0044605Y0168355D01*
X0044738Y0168279D01*
X0044869Y0168199D01*
X0044998Y0168117D01*
X0045125Y0168030D01*
X0045250Y0167941D01*
X0045372Y0167848D01*
X0045491Y0167752D01*
X0045609Y0167653D01*
X0045723Y0167552D01*
X0045835Y0167447D01*
X0045944Y0167339D01*
X0046050Y0167228D01*
X0046154Y0167115D01*
X0046254Y0166999D01*
X0046352Y0166881D01*
X0046446Y0166760D01*
X0046537Y0166637D01*
X0046625Y0166511D01*
X0046709Y0166383D01*
X0046791Y0166253D01*
X0046868Y0166121D01*
X0046943Y0165987D01*
X0047014Y0165851D01*
X0047081Y0165713D01*
X0047145Y0165573D01*
X0047205Y0165432D01*
X0047261Y0165290D01*
X0047314Y0165146D01*
X0047363Y0165000D01*
X0047408Y0164854D01*
X0047449Y0164706D01*
X0047486Y0164558D01*
X0047520Y0164408D01*
X0047550Y0164257D01*
X0047575Y0164106D01*
X0047597Y0163955D01*
X0047615Y0163802D01*
X0047629Y0163650D01*
X0047639Y0163497D01*
X0047645Y0163343D01*
X0047647Y0163190D01*
X0047645Y0163037D01*
X0047639Y0162883D01*
X0047629Y0162730D01*
X0047615Y0162578D01*
X0047597Y0162425D01*
X0047575Y0162274D01*
X0047550Y0162123D01*
X0047520Y0161972D01*
X0047486Y0161822D01*
X0047449Y0161674D01*
X0047408Y0161526D01*
X0047363Y0161380D01*
X0047314Y0161234D01*
X0047261Y0161090D01*
X0047205Y0160948D01*
X0047145Y0160807D01*
X0047081Y0160667D01*
X0047014Y0160529D01*
X0046943Y0160393D01*
X0046868Y0160259D01*
X0046791Y0160127D01*
X0046709Y0159997D01*
X0046625Y0159869D01*
X0046537Y0159743D01*
X0046446Y0159620D01*
X0046352Y0159499D01*
X0046254Y0159381D01*
X0046154Y0159265D01*
X0046050Y0159152D01*
X0045944Y0159041D01*
X0045835Y0158933D01*
X0045723Y0158828D01*
X0045609Y0158727D01*
X0045491Y0158628D01*
X0045372Y0158532D01*
X0045250Y0158439D01*
X0045125Y0158350D01*
X0044998Y0158263D01*
X0044869Y0158181D01*
X0044738Y0158101D01*
X0044605Y0158025D01*
X0044470Y0157952D01*
X0044333Y0157883D01*
X0044194Y0157818D01*
X0044054Y0157756D01*
X0043912Y0157698D01*
X0043769Y0157643D01*
X0043624Y0157592D01*
X0043478Y0157545D01*
X0043331Y0157502D01*
X0043183Y0157463D01*
X0043034Y0157427D01*
X0042884Y0157396D01*
X0042733Y0157368D01*
X0042582Y0157344D01*
X0042429Y0157324D01*
X0042277Y0157308D01*
X0042124Y0157296D01*
X0041971Y0157288D01*
X0041818Y0157284D01*
X0041664Y0157284D01*
X0041511Y0157288D01*
X0041358Y0157296D01*
X0041205Y0157308D01*
X0041053Y0157324D01*
X0040900Y0157344D01*
X0040749Y0157368D01*
X0040598Y0157396D01*
X0040448Y0157427D01*
X0040299Y0157463D01*
X0040151Y0157502D01*
X0040004Y0157545D01*
X0039858Y0157592D01*
X0039713Y0157643D01*
X0039570Y0157698D01*
X0039428Y0157756D01*
X0039288Y0157818D01*
X0039149Y0157883D01*
X0039012Y0157952D01*
X0038877Y0158025D01*
X0038744Y0158101D01*
X0038613Y0158181D01*
X0038484Y0158263D01*
X0038357Y0158350D01*
X0038232Y0158439D01*
X0038110Y0158532D01*
X0037991Y0158628D01*
X0037873Y0158727D01*
X0037759Y0158828D01*
X0037647Y0158933D01*
X0037538Y0159041D01*
X0037432Y0159152D01*
X0037328Y0159265D01*
X0037228Y0159381D01*
X0037130Y0159499D01*
X0037036Y0159620D01*
X0036945Y0159743D01*
X0036857Y0159869D01*
X0036773Y0159997D01*
X0036691Y0160127D01*
X0036614Y0160259D01*
X0036539Y0160393D01*
X0036468Y0160529D01*
X0036401Y0160667D01*
X0036337Y0160807D01*
X0036277Y0160948D01*
X0036221Y0161090D01*
X0036168Y0161234D01*
X0036119Y0161380D01*
X0036074Y0161526D01*
X0036033Y0161674D01*
X0035996Y0161822D01*
X0035962Y0161972D01*
X0035932Y0162123D01*
X0035907Y0162274D01*
X0035885Y0162425D01*
X0035867Y0162578D01*
X0035853Y0162730D01*
X0035843Y0162883D01*
X0035837Y0163037D01*
X0035835Y0163190D01*
X0012127Y0182402D02*
X0012129Y0182527D01*
X0012135Y0182652D01*
X0012145Y0182776D01*
X0012159Y0182900D01*
X0012176Y0183024D01*
X0012198Y0183147D01*
X0012224Y0183269D01*
X0012253Y0183391D01*
X0012286Y0183511D01*
X0012324Y0183630D01*
X0012364Y0183749D01*
X0012409Y0183865D01*
X0012457Y0183980D01*
X0012509Y0184094D01*
X0012565Y0184206D01*
X0012624Y0184316D01*
X0012686Y0184424D01*
X0012752Y0184531D01*
X0012821Y0184635D01*
X0012894Y0184736D01*
X0012969Y0184836D01*
X0013048Y0184933D01*
X0013130Y0185027D01*
X0013215Y0185119D01*
X0013302Y0185208D01*
X0013393Y0185294D01*
X0013486Y0185377D01*
X0013582Y0185458D01*
X0013680Y0185535D01*
X0013780Y0185609D01*
X0013883Y0185680D01*
X0013988Y0185747D01*
X0014096Y0185812D01*
X0014205Y0185872D01*
X0014316Y0185930D01*
X0014429Y0185983D01*
X0014543Y0186033D01*
X0014659Y0186080D01*
X0014776Y0186122D01*
X0014895Y0186161D01*
X0015015Y0186197D01*
X0015136Y0186228D01*
X0015258Y0186256D01*
X0015380Y0186279D01*
X0015504Y0186299D01*
X0015628Y0186315D01*
X0015752Y0186327D01*
X0015877Y0186335D01*
X0016002Y0186339D01*
X0016126Y0186339D01*
X0016251Y0186335D01*
X0016376Y0186327D01*
X0016500Y0186315D01*
X0016624Y0186299D01*
X0016748Y0186279D01*
X0016870Y0186256D01*
X0016992Y0186228D01*
X0017113Y0186197D01*
X0017233Y0186161D01*
X0017352Y0186122D01*
X0017469Y0186080D01*
X0017585Y0186033D01*
X0017699Y0185983D01*
X0017812Y0185930D01*
X0017923Y0185872D01*
X0018033Y0185812D01*
X0018140Y0185747D01*
X0018245Y0185680D01*
X0018348Y0185609D01*
X0018448Y0185535D01*
X0018546Y0185458D01*
X0018642Y0185377D01*
X0018735Y0185294D01*
X0018826Y0185208D01*
X0018913Y0185119D01*
X0018998Y0185027D01*
X0019080Y0184933D01*
X0019159Y0184836D01*
X0019234Y0184736D01*
X0019307Y0184635D01*
X0019376Y0184531D01*
X0019442Y0184424D01*
X0019504Y0184316D01*
X0019563Y0184206D01*
X0019619Y0184094D01*
X0019671Y0183980D01*
X0019719Y0183865D01*
X0019764Y0183749D01*
X0019804Y0183630D01*
X0019842Y0183511D01*
X0019875Y0183391D01*
X0019904Y0183269D01*
X0019930Y0183147D01*
X0019952Y0183024D01*
X0019969Y0182900D01*
X0019983Y0182776D01*
X0019993Y0182652D01*
X0019999Y0182527D01*
X0020001Y0182402D01*
X0019999Y0182277D01*
X0019993Y0182152D01*
X0019983Y0182028D01*
X0019969Y0181904D01*
X0019952Y0181780D01*
X0019930Y0181657D01*
X0019904Y0181535D01*
X0019875Y0181413D01*
X0019842Y0181293D01*
X0019804Y0181174D01*
X0019764Y0181055D01*
X0019719Y0180939D01*
X0019671Y0180824D01*
X0019619Y0180710D01*
X0019563Y0180598D01*
X0019504Y0180488D01*
X0019442Y0180380D01*
X0019376Y0180273D01*
X0019307Y0180169D01*
X0019234Y0180068D01*
X0019159Y0179968D01*
X0019080Y0179871D01*
X0018998Y0179777D01*
X0018913Y0179685D01*
X0018826Y0179596D01*
X0018735Y0179510D01*
X0018642Y0179427D01*
X0018546Y0179346D01*
X0018448Y0179269D01*
X0018348Y0179195D01*
X0018245Y0179124D01*
X0018140Y0179057D01*
X0018032Y0178992D01*
X0017923Y0178932D01*
X0017812Y0178874D01*
X0017699Y0178821D01*
X0017585Y0178771D01*
X0017469Y0178724D01*
X0017352Y0178682D01*
X0017233Y0178643D01*
X0017113Y0178607D01*
X0016992Y0178576D01*
X0016870Y0178548D01*
X0016748Y0178525D01*
X0016624Y0178505D01*
X0016500Y0178489D01*
X0016376Y0178477D01*
X0016251Y0178469D01*
X0016126Y0178465D01*
X0016002Y0178465D01*
X0015877Y0178469D01*
X0015752Y0178477D01*
X0015628Y0178489D01*
X0015504Y0178505D01*
X0015380Y0178525D01*
X0015258Y0178548D01*
X0015136Y0178576D01*
X0015015Y0178607D01*
X0014895Y0178643D01*
X0014776Y0178682D01*
X0014659Y0178724D01*
X0014543Y0178771D01*
X0014429Y0178821D01*
X0014316Y0178874D01*
X0014205Y0178932D01*
X0014095Y0178992D01*
X0013988Y0179057D01*
X0013883Y0179124D01*
X0013780Y0179195D01*
X0013680Y0179269D01*
X0013582Y0179346D01*
X0013486Y0179427D01*
X0013393Y0179510D01*
X0013302Y0179596D01*
X0013215Y0179685D01*
X0013130Y0179777D01*
X0013048Y0179871D01*
X0012969Y0179968D01*
X0012894Y0180068D01*
X0012821Y0180169D01*
X0012752Y0180273D01*
X0012686Y0180380D01*
X0012624Y0180488D01*
X0012565Y0180598D01*
X0012509Y0180710D01*
X0012457Y0180824D01*
X0012409Y0180939D01*
X0012364Y0181055D01*
X0012324Y0181174D01*
X0012286Y0181293D01*
X0012253Y0181413D01*
X0012224Y0181535D01*
X0012198Y0181657D01*
X0012176Y0181780D01*
X0012159Y0181904D01*
X0012145Y0182028D01*
X0012135Y0182152D01*
X0012129Y0182277D01*
X0012127Y0182402D01*
X0009174Y0176497D02*
X0266064Y0176497D01*
X0254253Y0182402D02*
X0254255Y0182527D01*
X0254261Y0182652D01*
X0254271Y0182776D01*
X0254285Y0182900D01*
X0254302Y0183024D01*
X0254324Y0183147D01*
X0254350Y0183269D01*
X0254379Y0183391D01*
X0254412Y0183511D01*
X0254450Y0183630D01*
X0254490Y0183749D01*
X0254535Y0183865D01*
X0254583Y0183980D01*
X0254635Y0184094D01*
X0254691Y0184206D01*
X0254750Y0184316D01*
X0254812Y0184424D01*
X0254878Y0184531D01*
X0254947Y0184635D01*
X0255020Y0184736D01*
X0255095Y0184836D01*
X0255174Y0184933D01*
X0255256Y0185027D01*
X0255341Y0185119D01*
X0255428Y0185208D01*
X0255519Y0185294D01*
X0255612Y0185377D01*
X0255708Y0185458D01*
X0255806Y0185535D01*
X0255906Y0185609D01*
X0256009Y0185680D01*
X0256114Y0185747D01*
X0256222Y0185812D01*
X0256331Y0185872D01*
X0256442Y0185930D01*
X0256555Y0185983D01*
X0256669Y0186033D01*
X0256785Y0186080D01*
X0256902Y0186122D01*
X0257021Y0186161D01*
X0257141Y0186197D01*
X0257262Y0186228D01*
X0257384Y0186256D01*
X0257506Y0186279D01*
X0257630Y0186299D01*
X0257754Y0186315D01*
X0257878Y0186327D01*
X0258003Y0186335D01*
X0258128Y0186339D01*
X0258252Y0186339D01*
X0258377Y0186335D01*
X0258502Y0186327D01*
X0258626Y0186315D01*
X0258750Y0186299D01*
X0258874Y0186279D01*
X0258996Y0186256D01*
X0259118Y0186228D01*
X0259239Y0186197D01*
X0259359Y0186161D01*
X0259478Y0186122D01*
X0259595Y0186080D01*
X0259711Y0186033D01*
X0259825Y0185983D01*
X0259938Y0185930D01*
X0260049Y0185872D01*
X0260159Y0185812D01*
X0260266Y0185747D01*
X0260371Y0185680D01*
X0260474Y0185609D01*
X0260574Y0185535D01*
X0260672Y0185458D01*
X0260768Y0185377D01*
X0260861Y0185294D01*
X0260952Y0185208D01*
X0261039Y0185119D01*
X0261124Y0185027D01*
X0261206Y0184933D01*
X0261285Y0184836D01*
X0261360Y0184736D01*
X0261433Y0184635D01*
X0261502Y0184531D01*
X0261568Y0184424D01*
X0261630Y0184316D01*
X0261689Y0184206D01*
X0261745Y0184094D01*
X0261797Y0183980D01*
X0261845Y0183865D01*
X0261890Y0183749D01*
X0261930Y0183630D01*
X0261968Y0183511D01*
X0262001Y0183391D01*
X0262030Y0183269D01*
X0262056Y0183147D01*
X0262078Y0183024D01*
X0262095Y0182900D01*
X0262109Y0182776D01*
X0262119Y0182652D01*
X0262125Y0182527D01*
X0262127Y0182402D01*
X0262125Y0182277D01*
X0262119Y0182152D01*
X0262109Y0182028D01*
X0262095Y0181904D01*
X0262078Y0181780D01*
X0262056Y0181657D01*
X0262030Y0181535D01*
X0262001Y0181413D01*
X0261968Y0181293D01*
X0261930Y0181174D01*
X0261890Y0181055D01*
X0261845Y0180939D01*
X0261797Y0180824D01*
X0261745Y0180710D01*
X0261689Y0180598D01*
X0261630Y0180488D01*
X0261568Y0180380D01*
X0261502Y0180273D01*
X0261433Y0180169D01*
X0261360Y0180068D01*
X0261285Y0179968D01*
X0261206Y0179871D01*
X0261124Y0179777D01*
X0261039Y0179685D01*
X0260952Y0179596D01*
X0260861Y0179510D01*
X0260768Y0179427D01*
X0260672Y0179346D01*
X0260574Y0179269D01*
X0260474Y0179195D01*
X0260371Y0179124D01*
X0260266Y0179057D01*
X0260158Y0178992D01*
X0260049Y0178932D01*
X0259938Y0178874D01*
X0259825Y0178821D01*
X0259711Y0178771D01*
X0259595Y0178724D01*
X0259478Y0178682D01*
X0259359Y0178643D01*
X0259239Y0178607D01*
X0259118Y0178576D01*
X0258996Y0178548D01*
X0258874Y0178525D01*
X0258750Y0178505D01*
X0258626Y0178489D01*
X0258502Y0178477D01*
X0258377Y0178469D01*
X0258252Y0178465D01*
X0258128Y0178465D01*
X0258003Y0178469D01*
X0257878Y0178477D01*
X0257754Y0178489D01*
X0257630Y0178505D01*
X0257506Y0178525D01*
X0257384Y0178548D01*
X0257262Y0178576D01*
X0257141Y0178607D01*
X0257021Y0178643D01*
X0256902Y0178682D01*
X0256785Y0178724D01*
X0256669Y0178771D01*
X0256555Y0178821D01*
X0256442Y0178874D01*
X0256331Y0178932D01*
X0256221Y0178992D01*
X0256114Y0179057D01*
X0256009Y0179124D01*
X0255906Y0179195D01*
X0255806Y0179269D01*
X0255708Y0179346D01*
X0255612Y0179427D01*
X0255519Y0179510D01*
X0255428Y0179596D01*
X0255341Y0179685D01*
X0255256Y0179777D01*
X0255174Y0179871D01*
X0255095Y0179968D01*
X0255020Y0180068D01*
X0254947Y0180169D01*
X0254878Y0180273D01*
X0254812Y0180380D01*
X0254750Y0180488D01*
X0254691Y0180598D01*
X0254635Y0180710D01*
X0254583Y0180824D01*
X0254535Y0180939D01*
X0254490Y0181055D01*
X0254450Y0181174D01*
X0254412Y0181293D01*
X0254379Y0181413D01*
X0254350Y0181535D01*
X0254324Y0181657D01*
X0254302Y0181780D01*
X0254285Y0181904D01*
X0254271Y0182028D01*
X0254261Y0182152D01*
X0254255Y0182277D01*
X0254253Y0182402D01*
X0254253Y0256221D02*
X0254255Y0256346D01*
X0254261Y0256471D01*
X0254271Y0256595D01*
X0254285Y0256719D01*
X0254302Y0256843D01*
X0254324Y0256966D01*
X0254350Y0257088D01*
X0254379Y0257210D01*
X0254412Y0257330D01*
X0254450Y0257449D01*
X0254490Y0257568D01*
X0254535Y0257684D01*
X0254583Y0257799D01*
X0254635Y0257913D01*
X0254691Y0258025D01*
X0254750Y0258135D01*
X0254812Y0258243D01*
X0254878Y0258350D01*
X0254947Y0258454D01*
X0255020Y0258555D01*
X0255095Y0258655D01*
X0255174Y0258752D01*
X0255256Y0258846D01*
X0255341Y0258938D01*
X0255428Y0259027D01*
X0255519Y0259113D01*
X0255612Y0259196D01*
X0255708Y0259277D01*
X0255806Y0259354D01*
X0255906Y0259428D01*
X0256009Y0259499D01*
X0256114Y0259566D01*
X0256222Y0259631D01*
X0256331Y0259691D01*
X0256442Y0259749D01*
X0256555Y0259802D01*
X0256669Y0259852D01*
X0256785Y0259899D01*
X0256902Y0259941D01*
X0257021Y0259980D01*
X0257141Y0260016D01*
X0257262Y0260047D01*
X0257384Y0260075D01*
X0257506Y0260098D01*
X0257630Y0260118D01*
X0257754Y0260134D01*
X0257878Y0260146D01*
X0258003Y0260154D01*
X0258128Y0260158D01*
X0258252Y0260158D01*
X0258377Y0260154D01*
X0258502Y0260146D01*
X0258626Y0260134D01*
X0258750Y0260118D01*
X0258874Y0260098D01*
X0258996Y0260075D01*
X0259118Y0260047D01*
X0259239Y0260016D01*
X0259359Y0259980D01*
X0259478Y0259941D01*
X0259595Y0259899D01*
X0259711Y0259852D01*
X0259825Y0259802D01*
X0259938Y0259749D01*
X0260049Y0259691D01*
X0260159Y0259631D01*
X0260266Y0259566D01*
X0260371Y0259499D01*
X0260474Y0259428D01*
X0260574Y0259354D01*
X0260672Y0259277D01*
X0260768Y0259196D01*
X0260861Y0259113D01*
X0260952Y0259027D01*
X0261039Y0258938D01*
X0261124Y0258846D01*
X0261206Y0258752D01*
X0261285Y0258655D01*
X0261360Y0258555D01*
X0261433Y0258454D01*
X0261502Y0258350D01*
X0261568Y0258243D01*
X0261630Y0258135D01*
X0261689Y0258025D01*
X0261745Y0257913D01*
X0261797Y0257799D01*
X0261845Y0257684D01*
X0261890Y0257568D01*
X0261930Y0257449D01*
X0261968Y0257330D01*
X0262001Y0257210D01*
X0262030Y0257088D01*
X0262056Y0256966D01*
X0262078Y0256843D01*
X0262095Y0256719D01*
X0262109Y0256595D01*
X0262119Y0256471D01*
X0262125Y0256346D01*
X0262127Y0256221D01*
X0262125Y0256096D01*
X0262119Y0255971D01*
X0262109Y0255847D01*
X0262095Y0255723D01*
X0262078Y0255599D01*
X0262056Y0255476D01*
X0262030Y0255354D01*
X0262001Y0255232D01*
X0261968Y0255112D01*
X0261930Y0254993D01*
X0261890Y0254874D01*
X0261845Y0254758D01*
X0261797Y0254643D01*
X0261745Y0254529D01*
X0261689Y0254417D01*
X0261630Y0254307D01*
X0261568Y0254199D01*
X0261502Y0254092D01*
X0261433Y0253988D01*
X0261360Y0253887D01*
X0261285Y0253787D01*
X0261206Y0253690D01*
X0261124Y0253596D01*
X0261039Y0253504D01*
X0260952Y0253415D01*
X0260861Y0253329D01*
X0260768Y0253246D01*
X0260672Y0253165D01*
X0260574Y0253088D01*
X0260474Y0253014D01*
X0260371Y0252943D01*
X0260266Y0252876D01*
X0260158Y0252811D01*
X0260049Y0252751D01*
X0259938Y0252693D01*
X0259825Y0252640D01*
X0259711Y0252590D01*
X0259595Y0252543D01*
X0259478Y0252501D01*
X0259359Y0252462D01*
X0259239Y0252426D01*
X0259118Y0252395D01*
X0258996Y0252367D01*
X0258874Y0252344D01*
X0258750Y0252324D01*
X0258626Y0252308D01*
X0258502Y0252296D01*
X0258377Y0252288D01*
X0258252Y0252284D01*
X0258128Y0252284D01*
X0258003Y0252288D01*
X0257878Y0252296D01*
X0257754Y0252308D01*
X0257630Y0252324D01*
X0257506Y0252344D01*
X0257384Y0252367D01*
X0257262Y0252395D01*
X0257141Y0252426D01*
X0257021Y0252462D01*
X0256902Y0252501D01*
X0256785Y0252543D01*
X0256669Y0252590D01*
X0256555Y0252640D01*
X0256442Y0252693D01*
X0256331Y0252751D01*
X0256221Y0252811D01*
X0256114Y0252876D01*
X0256009Y0252943D01*
X0255906Y0253014D01*
X0255806Y0253088D01*
X0255708Y0253165D01*
X0255612Y0253246D01*
X0255519Y0253329D01*
X0255428Y0253415D01*
X0255341Y0253504D01*
X0255256Y0253596D01*
X0255174Y0253690D01*
X0255095Y0253787D01*
X0255020Y0253887D01*
X0254947Y0253988D01*
X0254878Y0254092D01*
X0254812Y0254199D01*
X0254750Y0254307D01*
X0254691Y0254417D01*
X0254635Y0254529D01*
X0254583Y0254643D01*
X0254535Y0254758D01*
X0254490Y0254874D01*
X0254450Y0254993D01*
X0254412Y0255112D01*
X0254379Y0255232D01*
X0254350Y0255354D01*
X0254324Y0255476D01*
X0254302Y0255599D01*
X0254285Y0255723D01*
X0254271Y0255847D01*
X0254261Y0255971D01*
X0254255Y0256096D01*
X0254253Y0256221D01*
X0152835Y0275434D02*
X0152837Y0275587D01*
X0152843Y0275741D01*
X0152853Y0275894D01*
X0152867Y0276046D01*
X0152885Y0276199D01*
X0152907Y0276350D01*
X0152932Y0276501D01*
X0152962Y0276652D01*
X0152996Y0276802D01*
X0153033Y0276950D01*
X0153074Y0277098D01*
X0153119Y0277244D01*
X0153168Y0277390D01*
X0153221Y0277534D01*
X0153277Y0277676D01*
X0153337Y0277817D01*
X0153401Y0277957D01*
X0153468Y0278095D01*
X0153539Y0278231D01*
X0153614Y0278365D01*
X0153691Y0278497D01*
X0153773Y0278627D01*
X0153857Y0278755D01*
X0153945Y0278881D01*
X0154036Y0279004D01*
X0154130Y0279125D01*
X0154228Y0279243D01*
X0154328Y0279359D01*
X0154432Y0279472D01*
X0154538Y0279583D01*
X0154647Y0279691D01*
X0154759Y0279796D01*
X0154873Y0279897D01*
X0154991Y0279996D01*
X0155110Y0280092D01*
X0155232Y0280185D01*
X0155357Y0280274D01*
X0155484Y0280361D01*
X0155613Y0280443D01*
X0155744Y0280523D01*
X0155877Y0280599D01*
X0156012Y0280672D01*
X0156149Y0280741D01*
X0156288Y0280806D01*
X0156428Y0280868D01*
X0156570Y0280926D01*
X0156713Y0280981D01*
X0156858Y0281032D01*
X0157004Y0281079D01*
X0157151Y0281122D01*
X0157299Y0281161D01*
X0157448Y0281197D01*
X0157598Y0281228D01*
X0157749Y0281256D01*
X0157900Y0281280D01*
X0158053Y0281300D01*
X0158205Y0281316D01*
X0158358Y0281328D01*
X0158511Y0281336D01*
X0158664Y0281340D01*
X0158818Y0281340D01*
X0158971Y0281336D01*
X0159124Y0281328D01*
X0159277Y0281316D01*
X0159429Y0281300D01*
X0159582Y0281280D01*
X0159733Y0281256D01*
X0159884Y0281228D01*
X0160034Y0281197D01*
X0160183Y0281161D01*
X0160331Y0281122D01*
X0160478Y0281079D01*
X0160624Y0281032D01*
X0160769Y0280981D01*
X0160912Y0280926D01*
X0161054Y0280868D01*
X0161194Y0280806D01*
X0161333Y0280741D01*
X0161470Y0280672D01*
X0161605Y0280599D01*
X0161738Y0280523D01*
X0161869Y0280443D01*
X0161998Y0280361D01*
X0162125Y0280274D01*
X0162250Y0280185D01*
X0162372Y0280092D01*
X0162491Y0279996D01*
X0162609Y0279897D01*
X0162723Y0279796D01*
X0162835Y0279691D01*
X0162944Y0279583D01*
X0163050Y0279472D01*
X0163154Y0279359D01*
X0163254Y0279243D01*
X0163352Y0279125D01*
X0163446Y0279004D01*
X0163537Y0278881D01*
X0163625Y0278755D01*
X0163709Y0278627D01*
X0163791Y0278497D01*
X0163868Y0278365D01*
X0163943Y0278231D01*
X0164014Y0278095D01*
X0164081Y0277957D01*
X0164145Y0277817D01*
X0164205Y0277676D01*
X0164261Y0277534D01*
X0164314Y0277390D01*
X0164363Y0277244D01*
X0164408Y0277098D01*
X0164449Y0276950D01*
X0164486Y0276802D01*
X0164520Y0276652D01*
X0164550Y0276501D01*
X0164575Y0276350D01*
X0164597Y0276199D01*
X0164615Y0276046D01*
X0164629Y0275894D01*
X0164639Y0275741D01*
X0164645Y0275587D01*
X0164647Y0275434D01*
X0164645Y0275281D01*
X0164639Y0275127D01*
X0164629Y0274974D01*
X0164615Y0274822D01*
X0164597Y0274669D01*
X0164575Y0274518D01*
X0164550Y0274367D01*
X0164520Y0274216D01*
X0164486Y0274066D01*
X0164449Y0273918D01*
X0164408Y0273770D01*
X0164363Y0273624D01*
X0164314Y0273478D01*
X0164261Y0273334D01*
X0164205Y0273192D01*
X0164145Y0273051D01*
X0164081Y0272911D01*
X0164014Y0272773D01*
X0163943Y0272637D01*
X0163868Y0272503D01*
X0163791Y0272371D01*
X0163709Y0272241D01*
X0163625Y0272113D01*
X0163537Y0271987D01*
X0163446Y0271864D01*
X0163352Y0271743D01*
X0163254Y0271625D01*
X0163154Y0271509D01*
X0163050Y0271396D01*
X0162944Y0271285D01*
X0162835Y0271177D01*
X0162723Y0271072D01*
X0162609Y0270971D01*
X0162491Y0270872D01*
X0162372Y0270776D01*
X0162250Y0270683D01*
X0162125Y0270594D01*
X0161998Y0270507D01*
X0161869Y0270425D01*
X0161738Y0270345D01*
X0161605Y0270269D01*
X0161470Y0270196D01*
X0161333Y0270127D01*
X0161194Y0270062D01*
X0161054Y0270000D01*
X0160912Y0269942D01*
X0160769Y0269887D01*
X0160624Y0269836D01*
X0160478Y0269789D01*
X0160331Y0269746D01*
X0160183Y0269707D01*
X0160034Y0269671D01*
X0159884Y0269640D01*
X0159733Y0269612D01*
X0159582Y0269588D01*
X0159429Y0269568D01*
X0159277Y0269552D01*
X0159124Y0269540D01*
X0158971Y0269532D01*
X0158818Y0269528D01*
X0158664Y0269528D01*
X0158511Y0269532D01*
X0158358Y0269540D01*
X0158205Y0269552D01*
X0158053Y0269568D01*
X0157900Y0269588D01*
X0157749Y0269612D01*
X0157598Y0269640D01*
X0157448Y0269671D01*
X0157299Y0269707D01*
X0157151Y0269746D01*
X0157004Y0269789D01*
X0156858Y0269836D01*
X0156713Y0269887D01*
X0156570Y0269942D01*
X0156428Y0270000D01*
X0156288Y0270062D01*
X0156149Y0270127D01*
X0156012Y0270196D01*
X0155877Y0270269D01*
X0155744Y0270345D01*
X0155613Y0270425D01*
X0155484Y0270507D01*
X0155357Y0270594D01*
X0155232Y0270683D01*
X0155110Y0270776D01*
X0154991Y0270872D01*
X0154873Y0270971D01*
X0154759Y0271072D01*
X0154647Y0271177D01*
X0154538Y0271285D01*
X0154432Y0271396D01*
X0154328Y0271509D01*
X0154228Y0271625D01*
X0154130Y0271743D01*
X0154036Y0271864D01*
X0153945Y0271987D01*
X0153857Y0272113D01*
X0153773Y0272241D01*
X0153691Y0272371D01*
X0153614Y0272503D01*
X0153539Y0272637D01*
X0153468Y0272773D01*
X0153401Y0272911D01*
X0153337Y0273051D01*
X0153277Y0273192D01*
X0153221Y0273334D01*
X0153168Y0273478D01*
X0153119Y0273624D01*
X0153074Y0273770D01*
X0153033Y0273918D01*
X0152996Y0274066D01*
X0152962Y0274216D01*
X0152932Y0274367D01*
X0152907Y0274518D01*
X0152885Y0274669D01*
X0152867Y0274822D01*
X0152853Y0274974D01*
X0152843Y0275127D01*
X0152837Y0275281D01*
X0152835Y0275434D01*
X0035835Y0335434D02*
X0035837Y0335587D01*
X0035843Y0335741D01*
X0035853Y0335894D01*
X0035867Y0336046D01*
X0035885Y0336199D01*
X0035907Y0336350D01*
X0035932Y0336501D01*
X0035962Y0336652D01*
X0035996Y0336802D01*
X0036033Y0336950D01*
X0036074Y0337098D01*
X0036119Y0337244D01*
X0036168Y0337390D01*
X0036221Y0337534D01*
X0036277Y0337676D01*
X0036337Y0337817D01*
X0036401Y0337957D01*
X0036468Y0338095D01*
X0036539Y0338231D01*
X0036614Y0338365D01*
X0036691Y0338497D01*
X0036773Y0338627D01*
X0036857Y0338755D01*
X0036945Y0338881D01*
X0037036Y0339004D01*
X0037130Y0339125D01*
X0037228Y0339243D01*
X0037328Y0339359D01*
X0037432Y0339472D01*
X0037538Y0339583D01*
X0037647Y0339691D01*
X0037759Y0339796D01*
X0037873Y0339897D01*
X0037991Y0339996D01*
X0038110Y0340092D01*
X0038232Y0340185D01*
X0038357Y0340274D01*
X0038484Y0340361D01*
X0038613Y0340443D01*
X0038744Y0340523D01*
X0038877Y0340599D01*
X0039012Y0340672D01*
X0039149Y0340741D01*
X0039288Y0340806D01*
X0039428Y0340868D01*
X0039570Y0340926D01*
X0039713Y0340981D01*
X0039858Y0341032D01*
X0040004Y0341079D01*
X0040151Y0341122D01*
X0040299Y0341161D01*
X0040448Y0341197D01*
X0040598Y0341228D01*
X0040749Y0341256D01*
X0040900Y0341280D01*
X0041053Y0341300D01*
X0041205Y0341316D01*
X0041358Y0341328D01*
X0041511Y0341336D01*
X0041664Y0341340D01*
X0041818Y0341340D01*
X0041971Y0341336D01*
X0042124Y0341328D01*
X0042277Y0341316D01*
X0042429Y0341300D01*
X0042582Y0341280D01*
X0042733Y0341256D01*
X0042884Y0341228D01*
X0043034Y0341197D01*
X0043183Y0341161D01*
X0043331Y0341122D01*
X0043478Y0341079D01*
X0043624Y0341032D01*
X0043769Y0340981D01*
X0043912Y0340926D01*
X0044054Y0340868D01*
X0044194Y0340806D01*
X0044333Y0340741D01*
X0044470Y0340672D01*
X0044605Y0340599D01*
X0044738Y0340523D01*
X0044869Y0340443D01*
X0044998Y0340361D01*
X0045125Y0340274D01*
X0045250Y0340185D01*
X0045372Y0340092D01*
X0045491Y0339996D01*
X0045609Y0339897D01*
X0045723Y0339796D01*
X0045835Y0339691D01*
X0045944Y0339583D01*
X0046050Y0339472D01*
X0046154Y0339359D01*
X0046254Y0339243D01*
X0046352Y0339125D01*
X0046446Y0339004D01*
X0046537Y0338881D01*
X0046625Y0338755D01*
X0046709Y0338627D01*
X0046791Y0338497D01*
X0046868Y0338365D01*
X0046943Y0338231D01*
X0047014Y0338095D01*
X0047081Y0337957D01*
X0047145Y0337817D01*
X0047205Y0337676D01*
X0047261Y0337534D01*
X0047314Y0337390D01*
X0047363Y0337244D01*
X0047408Y0337098D01*
X0047449Y0336950D01*
X0047486Y0336802D01*
X0047520Y0336652D01*
X0047550Y0336501D01*
X0047575Y0336350D01*
X0047597Y0336199D01*
X0047615Y0336046D01*
X0047629Y0335894D01*
X0047639Y0335741D01*
X0047645Y0335587D01*
X0047647Y0335434D01*
X0047645Y0335281D01*
X0047639Y0335127D01*
X0047629Y0334974D01*
X0047615Y0334822D01*
X0047597Y0334669D01*
X0047575Y0334518D01*
X0047550Y0334367D01*
X0047520Y0334216D01*
X0047486Y0334066D01*
X0047449Y0333918D01*
X0047408Y0333770D01*
X0047363Y0333624D01*
X0047314Y0333478D01*
X0047261Y0333334D01*
X0047205Y0333192D01*
X0047145Y0333051D01*
X0047081Y0332911D01*
X0047014Y0332773D01*
X0046943Y0332637D01*
X0046868Y0332503D01*
X0046791Y0332371D01*
X0046709Y0332241D01*
X0046625Y0332113D01*
X0046537Y0331987D01*
X0046446Y0331864D01*
X0046352Y0331743D01*
X0046254Y0331625D01*
X0046154Y0331509D01*
X0046050Y0331396D01*
X0045944Y0331285D01*
X0045835Y0331177D01*
X0045723Y0331072D01*
X0045609Y0330971D01*
X0045491Y0330872D01*
X0045372Y0330776D01*
X0045250Y0330683D01*
X0045125Y0330594D01*
X0044998Y0330507D01*
X0044869Y0330425D01*
X0044738Y0330345D01*
X0044605Y0330269D01*
X0044470Y0330196D01*
X0044333Y0330127D01*
X0044194Y0330062D01*
X0044054Y0330000D01*
X0043912Y0329942D01*
X0043769Y0329887D01*
X0043624Y0329836D01*
X0043478Y0329789D01*
X0043331Y0329746D01*
X0043183Y0329707D01*
X0043034Y0329671D01*
X0042884Y0329640D01*
X0042733Y0329612D01*
X0042582Y0329588D01*
X0042429Y0329568D01*
X0042277Y0329552D01*
X0042124Y0329540D01*
X0041971Y0329532D01*
X0041818Y0329528D01*
X0041664Y0329528D01*
X0041511Y0329532D01*
X0041358Y0329540D01*
X0041205Y0329552D01*
X0041053Y0329568D01*
X0040900Y0329588D01*
X0040749Y0329612D01*
X0040598Y0329640D01*
X0040448Y0329671D01*
X0040299Y0329707D01*
X0040151Y0329746D01*
X0040004Y0329789D01*
X0039858Y0329836D01*
X0039713Y0329887D01*
X0039570Y0329942D01*
X0039428Y0330000D01*
X0039288Y0330062D01*
X0039149Y0330127D01*
X0039012Y0330196D01*
X0038877Y0330269D01*
X0038744Y0330345D01*
X0038613Y0330425D01*
X0038484Y0330507D01*
X0038357Y0330594D01*
X0038232Y0330683D01*
X0038110Y0330776D01*
X0037991Y0330872D01*
X0037873Y0330971D01*
X0037759Y0331072D01*
X0037647Y0331177D01*
X0037538Y0331285D01*
X0037432Y0331396D01*
X0037328Y0331509D01*
X0037228Y0331625D01*
X0037130Y0331743D01*
X0037036Y0331864D01*
X0036945Y0331987D01*
X0036857Y0332113D01*
X0036773Y0332241D01*
X0036691Y0332371D01*
X0036614Y0332503D01*
X0036539Y0332637D01*
X0036468Y0332773D01*
X0036401Y0332911D01*
X0036337Y0333051D01*
X0036277Y0333192D01*
X0036221Y0333334D01*
X0036168Y0333478D01*
X0036119Y0333624D01*
X0036074Y0333770D01*
X0036033Y0333918D01*
X0035996Y0334066D01*
X0035962Y0334216D01*
X0035932Y0334367D01*
X0035907Y0334518D01*
X0035885Y0334669D01*
X0035867Y0334822D01*
X0035853Y0334974D01*
X0035843Y0335127D01*
X0035837Y0335281D01*
X0035835Y0335434D01*
X0012127Y0256221D02*
X0012129Y0256346D01*
X0012135Y0256471D01*
X0012145Y0256595D01*
X0012159Y0256719D01*
X0012176Y0256843D01*
X0012198Y0256966D01*
X0012224Y0257088D01*
X0012253Y0257210D01*
X0012286Y0257330D01*
X0012324Y0257449D01*
X0012364Y0257568D01*
X0012409Y0257684D01*
X0012457Y0257799D01*
X0012509Y0257913D01*
X0012565Y0258025D01*
X0012624Y0258135D01*
X0012686Y0258243D01*
X0012752Y0258350D01*
X0012821Y0258454D01*
X0012894Y0258555D01*
X0012969Y0258655D01*
X0013048Y0258752D01*
X0013130Y0258846D01*
X0013215Y0258938D01*
X0013302Y0259027D01*
X0013393Y0259113D01*
X0013486Y0259196D01*
X0013582Y0259277D01*
X0013680Y0259354D01*
X0013780Y0259428D01*
X0013883Y0259499D01*
X0013988Y0259566D01*
X0014096Y0259631D01*
X0014205Y0259691D01*
X0014316Y0259749D01*
X0014429Y0259802D01*
X0014543Y0259852D01*
X0014659Y0259899D01*
X0014776Y0259941D01*
X0014895Y0259980D01*
X0015015Y0260016D01*
X0015136Y0260047D01*
X0015258Y0260075D01*
X0015380Y0260098D01*
X0015504Y0260118D01*
X0015628Y0260134D01*
X0015752Y0260146D01*
X0015877Y0260154D01*
X0016002Y0260158D01*
X0016126Y0260158D01*
X0016251Y0260154D01*
X0016376Y0260146D01*
X0016500Y0260134D01*
X0016624Y0260118D01*
X0016748Y0260098D01*
X0016870Y0260075D01*
X0016992Y0260047D01*
X0017113Y0260016D01*
X0017233Y0259980D01*
X0017352Y0259941D01*
X0017469Y0259899D01*
X0017585Y0259852D01*
X0017699Y0259802D01*
X0017812Y0259749D01*
X0017923Y0259691D01*
X0018033Y0259631D01*
X0018140Y0259566D01*
X0018245Y0259499D01*
X0018348Y0259428D01*
X0018448Y0259354D01*
X0018546Y0259277D01*
X0018642Y0259196D01*
X0018735Y0259113D01*
X0018826Y0259027D01*
X0018913Y0258938D01*
X0018998Y0258846D01*
X0019080Y0258752D01*
X0019159Y0258655D01*
X0019234Y0258555D01*
X0019307Y0258454D01*
X0019376Y0258350D01*
X0019442Y0258243D01*
X0019504Y0258135D01*
X0019563Y0258025D01*
X0019619Y0257913D01*
X0019671Y0257799D01*
X0019719Y0257684D01*
X0019764Y0257568D01*
X0019804Y0257449D01*
X0019842Y0257330D01*
X0019875Y0257210D01*
X0019904Y0257088D01*
X0019930Y0256966D01*
X0019952Y0256843D01*
X0019969Y0256719D01*
X0019983Y0256595D01*
X0019993Y0256471D01*
X0019999Y0256346D01*
X0020001Y0256221D01*
X0019999Y0256096D01*
X0019993Y0255971D01*
X0019983Y0255847D01*
X0019969Y0255723D01*
X0019952Y0255599D01*
X0019930Y0255476D01*
X0019904Y0255354D01*
X0019875Y0255232D01*
X0019842Y0255112D01*
X0019804Y0254993D01*
X0019764Y0254874D01*
X0019719Y0254758D01*
X0019671Y0254643D01*
X0019619Y0254529D01*
X0019563Y0254417D01*
X0019504Y0254307D01*
X0019442Y0254199D01*
X0019376Y0254092D01*
X0019307Y0253988D01*
X0019234Y0253887D01*
X0019159Y0253787D01*
X0019080Y0253690D01*
X0018998Y0253596D01*
X0018913Y0253504D01*
X0018826Y0253415D01*
X0018735Y0253329D01*
X0018642Y0253246D01*
X0018546Y0253165D01*
X0018448Y0253088D01*
X0018348Y0253014D01*
X0018245Y0252943D01*
X0018140Y0252876D01*
X0018032Y0252811D01*
X0017923Y0252751D01*
X0017812Y0252693D01*
X0017699Y0252640D01*
X0017585Y0252590D01*
X0017469Y0252543D01*
X0017352Y0252501D01*
X0017233Y0252462D01*
X0017113Y0252426D01*
X0016992Y0252395D01*
X0016870Y0252367D01*
X0016748Y0252344D01*
X0016624Y0252324D01*
X0016500Y0252308D01*
X0016376Y0252296D01*
X0016251Y0252288D01*
X0016126Y0252284D01*
X0016002Y0252284D01*
X0015877Y0252288D01*
X0015752Y0252296D01*
X0015628Y0252308D01*
X0015504Y0252324D01*
X0015380Y0252344D01*
X0015258Y0252367D01*
X0015136Y0252395D01*
X0015015Y0252426D01*
X0014895Y0252462D01*
X0014776Y0252501D01*
X0014659Y0252543D01*
X0014543Y0252590D01*
X0014429Y0252640D01*
X0014316Y0252693D01*
X0014205Y0252751D01*
X0014095Y0252811D01*
X0013988Y0252876D01*
X0013883Y0252943D01*
X0013780Y0253014D01*
X0013680Y0253088D01*
X0013582Y0253165D01*
X0013486Y0253246D01*
X0013393Y0253329D01*
X0013302Y0253415D01*
X0013215Y0253504D01*
X0013130Y0253596D01*
X0013048Y0253690D01*
X0012969Y0253787D01*
X0012894Y0253887D01*
X0012821Y0253988D01*
X0012752Y0254092D01*
X0012686Y0254199D01*
X0012624Y0254307D01*
X0012565Y0254417D01*
X0012509Y0254529D01*
X0012457Y0254643D01*
X0012409Y0254758D01*
X0012364Y0254874D01*
X0012324Y0254993D01*
X0012286Y0255112D01*
X0012253Y0255232D01*
X0012224Y0255354D01*
X0012198Y0255476D01*
X0012176Y0255599D01*
X0012159Y0255723D01*
X0012145Y0255847D01*
X0012135Y0255971D01*
X0012129Y0256096D01*
X0012127Y0256221D01*
X0152835Y0103190D02*
X0152837Y0103343D01*
X0152843Y0103497D01*
X0152853Y0103650D01*
X0152867Y0103802D01*
X0152885Y0103955D01*
X0152907Y0104106D01*
X0152932Y0104257D01*
X0152962Y0104408D01*
X0152996Y0104558D01*
X0153033Y0104706D01*
X0153074Y0104854D01*
X0153119Y0105000D01*
X0153168Y0105146D01*
X0153221Y0105290D01*
X0153277Y0105432D01*
X0153337Y0105573D01*
X0153401Y0105713D01*
X0153468Y0105851D01*
X0153539Y0105987D01*
X0153614Y0106121D01*
X0153691Y0106253D01*
X0153773Y0106383D01*
X0153857Y0106511D01*
X0153945Y0106637D01*
X0154036Y0106760D01*
X0154130Y0106881D01*
X0154228Y0106999D01*
X0154328Y0107115D01*
X0154432Y0107228D01*
X0154538Y0107339D01*
X0154647Y0107447D01*
X0154759Y0107552D01*
X0154873Y0107653D01*
X0154991Y0107752D01*
X0155110Y0107848D01*
X0155232Y0107941D01*
X0155357Y0108030D01*
X0155484Y0108117D01*
X0155613Y0108199D01*
X0155744Y0108279D01*
X0155877Y0108355D01*
X0156012Y0108428D01*
X0156149Y0108497D01*
X0156288Y0108562D01*
X0156428Y0108624D01*
X0156570Y0108682D01*
X0156713Y0108737D01*
X0156858Y0108788D01*
X0157004Y0108835D01*
X0157151Y0108878D01*
X0157299Y0108917D01*
X0157448Y0108953D01*
X0157598Y0108984D01*
X0157749Y0109012D01*
X0157900Y0109036D01*
X0158053Y0109056D01*
X0158205Y0109072D01*
X0158358Y0109084D01*
X0158511Y0109092D01*
X0158664Y0109096D01*
X0158818Y0109096D01*
X0158971Y0109092D01*
X0159124Y0109084D01*
X0159277Y0109072D01*
X0159429Y0109056D01*
X0159582Y0109036D01*
X0159733Y0109012D01*
X0159884Y0108984D01*
X0160034Y0108953D01*
X0160183Y0108917D01*
X0160331Y0108878D01*
X0160478Y0108835D01*
X0160624Y0108788D01*
X0160769Y0108737D01*
X0160912Y0108682D01*
X0161054Y0108624D01*
X0161194Y0108562D01*
X0161333Y0108497D01*
X0161470Y0108428D01*
X0161605Y0108355D01*
X0161738Y0108279D01*
X0161869Y0108199D01*
X0161998Y0108117D01*
X0162125Y0108030D01*
X0162250Y0107941D01*
X0162372Y0107848D01*
X0162491Y0107752D01*
X0162609Y0107653D01*
X0162723Y0107552D01*
X0162835Y0107447D01*
X0162944Y0107339D01*
X0163050Y0107228D01*
X0163154Y0107115D01*
X0163254Y0106999D01*
X0163352Y0106881D01*
X0163446Y0106760D01*
X0163537Y0106637D01*
X0163625Y0106511D01*
X0163709Y0106383D01*
X0163791Y0106253D01*
X0163868Y0106121D01*
X0163943Y0105987D01*
X0164014Y0105851D01*
X0164081Y0105713D01*
X0164145Y0105573D01*
X0164205Y0105432D01*
X0164261Y0105290D01*
X0164314Y0105146D01*
X0164363Y0105000D01*
X0164408Y0104854D01*
X0164449Y0104706D01*
X0164486Y0104558D01*
X0164520Y0104408D01*
X0164550Y0104257D01*
X0164575Y0104106D01*
X0164597Y0103955D01*
X0164615Y0103802D01*
X0164629Y0103650D01*
X0164639Y0103497D01*
X0164645Y0103343D01*
X0164647Y0103190D01*
X0164645Y0103037D01*
X0164639Y0102883D01*
X0164629Y0102730D01*
X0164615Y0102578D01*
X0164597Y0102425D01*
X0164575Y0102274D01*
X0164550Y0102123D01*
X0164520Y0101972D01*
X0164486Y0101822D01*
X0164449Y0101674D01*
X0164408Y0101526D01*
X0164363Y0101380D01*
X0164314Y0101234D01*
X0164261Y0101090D01*
X0164205Y0100948D01*
X0164145Y0100807D01*
X0164081Y0100667D01*
X0164014Y0100529D01*
X0163943Y0100393D01*
X0163868Y0100259D01*
X0163791Y0100127D01*
X0163709Y0099997D01*
X0163625Y0099869D01*
X0163537Y0099743D01*
X0163446Y0099620D01*
X0163352Y0099499D01*
X0163254Y0099381D01*
X0163154Y0099265D01*
X0163050Y0099152D01*
X0162944Y0099041D01*
X0162835Y0098933D01*
X0162723Y0098828D01*
X0162609Y0098727D01*
X0162491Y0098628D01*
X0162372Y0098532D01*
X0162250Y0098439D01*
X0162125Y0098350D01*
X0161998Y0098263D01*
X0161869Y0098181D01*
X0161738Y0098101D01*
X0161605Y0098025D01*
X0161470Y0097952D01*
X0161333Y0097883D01*
X0161194Y0097818D01*
X0161054Y0097756D01*
X0160912Y0097698D01*
X0160769Y0097643D01*
X0160624Y0097592D01*
X0160478Y0097545D01*
X0160331Y0097502D01*
X0160183Y0097463D01*
X0160034Y0097427D01*
X0159884Y0097396D01*
X0159733Y0097368D01*
X0159582Y0097344D01*
X0159429Y0097324D01*
X0159277Y0097308D01*
X0159124Y0097296D01*
X0158971Y0097288D01*
X0158818Y0097284D01*
X0158664Y0097284D01*
X0158511Y0097288D01*
X0158358Y0097296D01*
X0158205Y0097308D01*
X0158053Y0097324D01*
X0157900Y0097344D01*
X0157749Y0097368D01*
X0157598Y0097396D01*
X0157448Y0097427D01*
X0157299Y0097463D01*
X0157151Y0097502D01*
X0157004Y0097545D01*
X0156858Y0097592D01*
X0156713Y0097643D01*
X0156570Y0097698D01*
X0156428Y0097756D01*
X0156288Y0097818D01*
X0156149Y0097883D01*
X0156012Y0097952D01*
X0155877Y0098025D01*
X0155744Y0098101D01*
X0155613Y0098181D01*
X0155484Y0098263D01*
X0155357Y0098350D01*
X0155232Y0098439D01*
X0155110Y0098532D01*
X0154991Y0098628D01*
X0154873Y0098727D01*
X0154759Y0098828D01*
X0154647Y0098933D01*
X0154538Y0099041D01*
X0154432Y0099152D01*
X0154328Y0099265D01*
X0154228Y0099381D01*
X0154130Y0099499D01*
X0154036Y0099620D01*
X0153945Y0099743D01*
X0153857Y0099869D01*
X0153773Y0099997D01*
X0153691Y0100127D01*
X0153614Y0100259D01*
X0153539Y0100393D01*
X0153468Y0100529D01*
X0153401Y0100667D01*
X0153337Y0100807D01*
X0153277Y0100948D01*
X0153221Y0101090D01*
X0153168Y0101234D01*
X0153119Y0101380D01*
X0153074Y0101526D01*
X0153033Y0101674D01*
X0152996Y0101822D01*
X0152962Y0101972D01*
X0152932Y0102123D01*
X0152907Y0102274D01*
X0152885Y0102425D01*
X0152867Y0102578D01*
X0152853Y0102730D01*
X0152843Y0102883D01*
X0152837Y0103037D01*
X0152835Y0103190D01*
X0254253Y0083977D02*
X0254255Y0084102D01*
X0254261Y0084227D01*
X0254271Y0084351D01*
X0254285Y0084475D01*
X0254302Y0084599D01*
X0254324Y0084722D01*
X0254350Y0084844D01*
X0254379Y0084966D01*
X0254412Y0085086D01*
X0254450Y0085205D01*
X0254490Y0085324D01*
X0254535Y0085440D01*
X0254583Y0085555D01*
X0254635Y0085669D01*
X0254691Y0085781D01*
X0254750Y0085891D01*
X0254812Y0085999D01*
X0254878Y0086106D01*
X0254947Y0086210D01*
X0255020Y0086311D01*
X0255095Y0086411D01*
X0255174Y0086508D01*
X0255256Y0086602D01*
X0255341Y0086694D01*
X0255428Y0086783D01*
X0255519Y0086869D01*
X0255612Y0086952D01*
X0255708Y0087033D01*
X0255806Y0087110D01*
X0255906Y0087184D01*
X0256009Y0087255D01*
X0256114Y0087322D01*
X0256222Y0087387D01*
X0256331Y0087447D01*
X0256442Y0087505D01*
X0256555Y0087558D01*
X0256669Y0087608D01*
X0256785Y0087655D01*
X0256902Y0087697D01*
X0257021Y0087736D01*
X0257141Y0087772D01*
X0257262Y0087803D01*
X0257384Y0087831D01*
X0257506Y0087854D01*
X0257630Y0087874D01*
X0257754Y0087890D01*
X0257878Y0087902D01*
X0258003Y0087910D01*
X0258128Y0087914D01*
X0258252Y0087914D01*
X0258377Y0087910D01*
X0258502Y0087902D01*
X0258626Y0087890D01*
X0258750Y0087874D01*
X0258874Y0087854D01*
X0258996Y0087831D01*
X0259118Y0087803D01*
X0259239Y0087772D01*
X0259359Y0087736D01*
X0259478Y0087697D01*
X0259595Y0087655D01*
X0259711Y0087608D01*
X0259825Y0087558D01*
X0259938Y0087505D01*
X0260049Y0087447D01*
X0260159Y0087387D01*
X0260266Y0087322D01*
X0260371Y0087255D01*
X0260474Y0087184D01*
X0260574Y0087110D01*
X0260672Y0087033D01*
X0260768Y0086952D01*
X0260861Y0086869D01*
X0260952Y0086783D01*
X0261039Y0086694D01*
X0261124Y0086602D01*
X0261206Y0086508D01*
X0261285Y0086411D01*
X0261360Y0086311D01*
X0261433Y0086210D01*
X0261502Y0086106D01*
X0261568Y0085999D01*
X0261630Y0085891D01*
X0261689Y0085781D01*
X0261745Y0085669D01*
X0261797Y0085555D01*
X0261845Y0085440D01*
X0261890Y0085324D01*
X0261930Y0085205D01*
X0261968Y0085086D01*
X0262001Y0084966D01*
X0262030Y0084844D01*
X0262056Y0084722D01*
X0262078Y0084599D01*
X0262095Y0084475D01*
X0262109Y0084351D01*
X0262119Y0084227D01*
X0262125Y0084102D01*
X0262127Y0083977D01*
X0262125Y0083852D01*
X0262119Y0083727D01*
X0262109Y0083603D01*
X0262095Y0083479D01*
X0262078Y0083355D01*
X0262056Y0083232D01*
X0262030Y0083110D01*
X0262001Y0082988D01*
X0261968Y0082868D01*
X0261930Y0082749D01*
X0261890Y0082630D01*
X0261845Y0082514D01*
X0261797Y0082399D01*
X0261745Y0082285D01*
X0261689Y0082173D01*
X0261630Y0082063D01*
X0261568Y0081955D01*
X0261502Y0081848D01*
X0261433Y0081744D01*
X0261360Y0081643D01*
X0261285Y0081543D01*
X0261206Y0081446D01*
X0261124Y0081352D01*
X0261039Y0081260D01*
X0260952Y0081171D01*
X0260861Y0081085D01*
X0260768Y0081002D01*
X0260672Y0080921D01*
X0260574Y0080844D01*
X0260474Y0080770D01*
X0260371Y0080699D01*
X0260266Y0080632D01*
X0260158Y0080567D01*
X0260049Y0080507D01*
X0259938Y0080449D01*
X0259825Y0080396D01*
X0259711Y0080346D01*
X0259595Y0080299D01*
X0259478Y0080257D01*
X0259359Y0080218D01*
X0259239Y0080182D01*
X0259118Y0080151D01*
X0258996Y0080123D01*
X0258874Y0080100D01*
X0258750Y0080080D01*
X0258626Y0080064D01*
X0258502Y0080052D01*
X0258377Y0080044D01*
X0258252Y0080040D01*
X0258128Y0080040D01*
X0258003Y0080044D01*
X0257878Y0080052D01*
X0257754Y0080064D01*
X0257630Y0080080D01*
X0257506Y0080100D01*
X0257384Y0080123D01*
X0257262Y0080151D01*
X0257141Y0080182D01*
X0257021Y0080218D01*
X0256902Y0080257D01*
X0256785Y0080299D01*
X0256669Y0080346D01*
X0256555Y0080396D01*
X0256442Y0080449D01*
X0256331Y0080507D01*
X0256221Y0080567D01*
X0256114Y0080632D01*
X0256009Y0080699D01*
X0255906Y0080770D01*
X0255806Y0080844D01*
X0255708Y0080921D01*
X0255612Y0081002D01*
X0255519Y0081085D01*
X0255428Y0081171D01*
X0255341Y0081260D01*
X0255256Y0081352D01*
X0255174Y0081446D01*
X0255095Y0081543D01*
X0255020Y0081643D01*
X0254947Y0081744D01*
X0254878Y0081848D01*
X0254812Y0081955D01*
X0254750Y0082063D01*
X0254691Y0082173D01*
X0254635Y0082285D01*
X0254583Y0082399D01*
X0254535Y0082514D01*
X0254490Y0082630D01*
X0254450Y0082749D01*
X0254412Y0082868D01*
X0254379Y0082988D01*
X0254350Y0083110D01*
X0254324Y0083232D01*
X0254302Y0083355D01*
X0254285Y0083479D01*
X0254271Y0083603D01*
X0254261Y0083727D01*
X0254255Y0083852D01*
X0254253Y0083977D01*
X0254253Y0010158D02*
X0254255Y0010283D01*
X0254261Y0010408D01*
X0254271Y0010532D01*
X0254285Y0010656D01*
X0254302Y0010780D01*
X0254324Y0010903D01*
X0254350Y0011025D01*
X0254379Y0011147D01*
X0254412Y0011267D01*
X0254450Y0011386D01*
X0254490Y0011505D01*
X0254535Y0011621D01*
X0254583Y0011736D01*
X0254635Y0011850D01*
X0254691Y0011962D01*
X0254750Y0012072D01*
X0254812Y0012180D01*
X0254878Y0012287D01*
X0254947Y0012391D01*
X0255020Y0012492D01*
X0255095Y0012592D01*
X0255174Y0012689D01*
X0255256Y0012783D01*
X0255341Y0012875D01*
X0255428Y0012964D01*
X0255519Y0013050D01*
X0255612Y0013133D01*
X0255708Y0013214D01*
X0255806Y0013291D01*
X0255906Y0013365D01*
X0256009Y0013436D01*
X0256114Y0013503D01*
X0256222Y0013568D01*
X0256331Y0013628D01*
X0256442Y0013686D01*
X0256555Y0013739D01*
X0256669Y0013789D01*
X0256785Y0013836D01*
X0256902Y0013878D01*
X0257021Y0013917D01*
X0257141Y0013953D01*
X0257262Y0013984D01*
X0257384Y0014012D01*
X0257506Y0014035D01*
X0257630Y0014055D01*
X0257754Y0014071D01*
X0257878Y0014083D01*
X0258003Y0014091D01*
X0258128Y0014095D01*
X0258252Y0014095D01*
X0258377Y0014091D01*
X0258502Y0014083D01*
X0258626Y0014071D01*
X0258750Y0014055D01*
X0258874Y0014035D01*
X0258996Y0014012D01*
X0259118Y0013984D01*
X0259239Y0013953D01*
X0259359Y0013917D01*
X0259478Y0013878D01*
X0259595Y0013836D01*
X0259711Y0013789D01*
X0259825Y0013739D01*
X0259938Y0013686D01*
X0260049Y0013628D01*
X0260159Y0013568D01*
X0260266Y0013503D01*
X0260371Y0013436D01*
X0260474Y0013365D01*
X0260574Y0013291D01*
X0260672Y0013214D01*
X0260768Y0013133D01*
X0260861Y0013050D01*
X0260952Y0012964D01*
X0261039Y0012875D01*
X0261124Y0012783D01*
X0261206Y0012689D01*
X0261285Y0012592D01*
X0261360Y0012492D01*
X0261433Y0012391D01*
X0261502Y0012287D01*
X0261568Y0012180D01*
X0261630Y0012072D01*
X0261689Y0011962D01*
X0261745Y0011850D01*
X0261797Y0011736D01*
X0261845Y0011621D01*
X0261890Y0011505D01*
X0261930Y0011386D01*
X0261968Y0011267D01*
X0262001Y0011147D01*
X0262030Y0011025D01*
X0262056Y0010903D01*
X0262078Y0010780D01*
X0262095Y0010656D01*
X0262109Y0010532D01*
X0262119Y0010408D01*
X0262125Y0010283D01*
X0262127Y0010158D01*
X0262125Y0010033D01*
X0262119Y0009908D01*
X0262109Y0009784D01*
X0262095Y0009660D01*
X0262078Y0009536D01*
X0262056Y0009413D01*
X0262030Y0009291D01*
X0262001Y0009169D01*
X0261968Y0009049D01*
X0261930Y0008930D01*
X0261890Y0008811D01*
X0261845Y0008695D01*
X0261797Y0008580D01*
X0261745Y0008466D01*
X0261689Y0008354D01*
X0261630Y0008244D01*
X0261568Y0008136D01*
X0261502Y0008029D01*
X0261433Y0007925D01*
X0261360Y0007824D01*
X0261285Y0007724D01*
X0261206Y0007627D01*
X0261124Y0007533D01*
X0261039Y0007441D01*
X0260952Y0007352D01*
X0260861Y0007266D01*
X0260768Y0007183D01*
X0260672Y0007102D01*
X0260574Y0007025D01*
X0260474Y0006951D01*
X0260371Y0006880D01*
X0260266Y0006813D01*
X0260158Y0006748D01*
X0260049Y0006688D01*
X0259938Y0006630D01*
X0259825Y0006577D01*
X0259711Y0006527D01*
X0259595Y0006480D01*
X0259478Y0006438D01*
X0259359Y0006399D01*
X0259239Y0006363D01*
X0259118Y0006332D01*
X0258996Y0006304D01*
X0258874Y0006281D01*
X0258750Y0006261D01*
X0258626Y0006245D01*
X0258502Y0006233D01*
X0258377Y0006225D01*
X0258252Y0006221D01*
X0258128Y0006221D01*
X0258003Y0006225D01*
X0257878Y0006233D01*
X0257754Y0006245D01*
X0257630Y0006261D01*
X0257506Y0006281D01*
X0257384Y0006304D01*
X0257262Y0006332D01*
X0257141Y0006363D01*
X0257021Y0006399D01*
X0256902Y0006438D01*
X0256785Y0006480D01*
X0256669Y0006527D01*
X0256555Y0006577D01*
X0256442Y0006630D01*
X0256331Y0006688D01*
X0256221Y0006748D01*
X0256114Y0006813D01*
X0256009Y0006880D01*
X0255906Y0006951D01*
X0255806Y0007025D01*
X0255708Y0007102D01*
X0255612Y0007183D01*
X0255519Y0007266D01*
X0255428Y0007352D01*
X0255341Y0007441D01*
X0255256Y0007533D01*
X0255174Y0007627D01*
X0255095Y0007724D01*
X0255020Y0007824D01*
X0254947Y0007925D01*
X0254878Y0008029D01*
X0254812Y0008136D01*
X0254750Y0008244D01*
X0254691Y0008354D01*
X0254635Y0008466D01*
X0254583Y0008580D01*
X0254535Y0008695D01*
X0254490Y0008811D01*
X0254450Y0008930D01*
X0254412Y0009049D01*
X0254379Y0009169D01*
X0254350Y0009291D01*
X0254324Y0009413D01*
X0254302Y0009536D01*
X0254285Y0009660D01*
X0254271Y0009784D01*
X0254261Y0009908D01*
X0254255Y0010033D01*
X0254253Y0010158D01*
D11*
X0266064Y0001300D02*
X0266064Y0352678D01*
X0332009Y0262127D02*
X0001300Y0262127D01*
X0026171Y0267627D02*
X0026171Y0256627D01*
X0026173Y0256567D01*
X0026178Y0256506D01*
X0026187Y0256447D01*
X0026200Y0256388D01*
X0026216Y0256329D01*
X0026236Y0256272D01*
X0026259Y0256217D01*
X0026286Y0256162D01*
X0026315Y0256110D01*
X0026348Y0256059D01*
X0026384Y0256010D01*
X0026422Y0255964D01*
X0026464Y0255920D01*
X0026508Y0255878D01*
X0026554Y0255840D01*
X0026603Y0255804D01*
X0026654Y0255771D01*
X0026706Y0255742D01*
X0026761Y0255715D01*
X0026816Y0255692D01*
X0026873Y0255672D01*
X0026932Y0255656D01*
X0026991Y0255643D01*
X0027050Y0255634D01*
X0027111Y0255629D01*
X0027171Y0255627D01*
X0033171Y0255627D01*
X0033231Y0255629D01*
X0033292Y0255634D01*
X0033351Y0255643D01*
X0033410Y0255656D01*
X0033469Y0255672D01*
X0033526Y0255692D01*
X0033581Y0255715D01*
X0033636Y0255742D01*
X0033688Y0255771D01*
X0033739Y0255804D01*
X0033788Y0255840D01*
X0033834Y0255878D01*
X0033878Y0255920D01*
X0033920Y0255964D01*
X0033958Y0256010D01*
X0033994Y0256059D01*
X0034027Y0256110D01*
X0034056Y0256162D01*
X0034083Y0256217D01*
X0034106Y0256272D01*
X0034126Y0256329D01*
X0034142Y0256388D01*
X0034155Y0256447D01*
X0034164Y0256506D01*
X0034169Y0256567D01*
X0034171Y0256627D01*
X0034171Y0267627D01*
X0034169Y0267687D01*
X0034164Y0267748D01*
X0034155Y0267807D01*
X0034142Y0267866D01*
X0034126Y0267925D01*
X0034106Y0267982D01*
X0034083Y0268037D01*
X0034056Y0268092D01*
X0034027Y0268144D01*
X0033994Y0268195D01*
X0033958Y0268244D01*
X0033920Y0268290D01*
X0033878Y0268334D01*
X0033834Y0268376D01*
X0033788Y0268414D01*
X0033739Y0268450D01*
X0033688Y0268483D01*
X0033636Y0268512D01*
X0033581Y0268539D01*
X0033526Y0268562D01*
X0033469Y0268582D01*
X0033410Y0268598D01*
X0033351Y0268611D01*
X0033292Y0268620D01*
X0033231Y0268625D01*
X0033171Y0268627D01*
X0027171Y0268627D01*
X0027111Y0268625D01*
X0027050Y0268620D01*
X0026991Y0268611D01*
X0026932Y0268598D01*
X0026873Y0268582D01*
X0026816Y0268562D01*
X0026761Y0268539D01*
X0026706Y0268512D01*
X0026654Y0268483D01*
X0026603Y0268450D01*
X0026554Y0268414D01*
X0026508Y0268376D01*
X0026464Y0268334D01*
X0026422Y0268290D01*
X0026384Y0268244D01*
X0026348Y0268195D01*
X0026315Y0268144D01*
X0026286Y0268092D01*
X0026259Y0268037D01*
X0026236Y0267982D01*
X0026216Y0267925D01*
X0026200Y0267866D01*
X0026187Y0267807D01*
X0026178Y0267748D01*
X0026173Y0267687D01*
X0026171Y0267627D01*
X0041591Y0267674D02*
X0041591Y0250674D01*
X0041593Y0250614D01*
X0041598Y0250553D01*
X0041607Y0250494D01*
X0041620Y0250435D01*
X0041636Y0250376D01*
X0041656Y0250319D01*
X0041679Y0250264D01*
X0041706Y0250209D01*
X0041735Y0250157D01*
X0041768Y0250106D01*
X0041804Y0250057D01*
X0041842Y0250011D01*
X0041884Y0249967D01*
X0041928Y0249925D01*
X0041974Y0249887D01*
X0042023Y0249851D01*
X0042074Y0249818D01*
X0042126Y0249789D01*
X0042181Y0249762D01*
X0042236Y0249739D01*
X0042293Y0249719D01*
X0042352Y0249703D01*
X0042411Y0249690D01*
X0042470Y0249681D01*
X0042531Y0249676D01*
X0042591Y0249674D01*
X0048591Y0249674D01*
X0048651Y0249676D01*
X0048712Y0249681D01*
X0048771Y0249690D01*
X0048830Y0249703D01*
X0048889Y0249719D01*
X0048946Y0249739D01*
X0049001Y0249762D01*
X0049056Y0249789D01*
X0049108Y0249818D01*
X0049159Y0249851D01*
X0049208Y0249887D01*
X0049254Y0249925D01*
X0049298Y0249967D01*
X0049340Y0250011D01*
X0049378Y0250057D01*
X0049414Y0250106D01*
X0049447Y0250157D01*
X0049476Y0250209D01*
X0049503Y0250264D01*
X0049526Y0250319D01*
X0049546Y0250376D01*
X0049562Y0250435D01*
X0049575Y0250494D01*
X0049584Y0250553D01*
X0049589Y0250614D01*
X0049591Y0250674D01*
X0049591Y0267674D01*
X0049589Y0267734D01*
X0049584Y0267795D01*
X0049575Y0267854D01*
X0049562Y0267913D01*
X0049546Y0267972D01*
X0049526Y0268029D01*
X0049503Y0268084D01*
X0049476Y0268139D01*
X0049447Y0268191D01*
X0049414Y0268242D01*
X0049378Y0268291D01*
X0049340Y0268337D01*
X0049298Y0268381D01*
X0049254Y0268423D01*
X0049208Y0268461D01*
X0049159Y0268497D01*
X0049108Y0268530D01*
X0049056Y0268559D01*
X0049001Y0268586D01*
X0048946Y0268609D01*
X0048889Y0268629D01*
X0048830Y0268645D01*
X0048771Y0268658D01*
X0048712Y0268667D01*
X0048651Y0268672D01*
X0048591Y0268674D01*
X0042591Y0268674D01*
X0042531Y0268672D01*
X0042470Y0268667D01*
X0042411Y0268658D01*
X0042352Y0268645D01*
X0042293Y0268629D01*
X0042236Y0268609D01*
X0042181Y0268586D01*
X0042126Y0268559D01*
X0042074Y0268530D01*
X0042023Y0268497D01*
X0041974Y0268461D01*
X0041928Y0268423D01*
X0041884Y0268381D01*
X0041842Y0268337D01*
X0041804Y0268291D01*
X0041768Y0268242D01*
X0041735Y0268191D01*
X0041706Y0268139D01*
X0041679Y0268084D01*
X0041656Y0268029D01*
X0041636Y0267972D01*
X0041620Y0267913D01*
X0041607Y0267854D01*
X0041598Y0267795D01*
X0041593Y0267734D01*
X0041591Y0267674D01*
X0071775Y0267627D02*
X0071775Y0256627D01*
X0071777Y0256567D01*
X0071782Y0256506D01*
X0071791Y0256447D01*
X0071804Y0256388D01*
X0071820Y0256329D01*
X0071840Y0256272D01*
X0071863Y0256217D01*
X0071890Y0256162D01*
X0071919Y0256110D01*
X0071952Y0256059D01*
X0071988Y0256010D01*
X0072026Y0255964D01*
X0072068Y0255920D01*
X0072112Y0255878D01*
X0072158Y0255840D01*
X0072207Y0255804D01*
X0072258Y0255771D01*
X0072310Y0255742D01*
X0072365Y0255715D01*
X0072420Y0255692D01*
X0072477Y0255672D01*
X0072536Y0255656D01*
X0072595Y0255643D01*
X0072654Y0255634D01*
X0072715Y0255629D01*
X0072775Y0255627D01*
X0078775Y0255627D01*
X0078835Y0255629D01*
X0078896Y0255634D01*
X0078955Y0255643D01*
X0079014Y0255656D01*
X0079073Y0255672D01*
X0079130Y0255692D01*
X0079185Y0255715D01*
X0079240Y0255742D01*
X0079292Y0255771D01*
X0079343Y0255804D01*
X0079392Y0255840D01*
X0079438Y0255878D01*
X0079482Y0255920D01*
X0079524Y0255964D01*
X0079562Y0256010D01*
X0079598Y0256059D01*
X0079631Y0256110D01*
X0079660Y0256162D01*
X0079687Y0256217D01*
X0079710Y0256272D01*
X0079730Y0256329D01*
X0079746Y0256388D01*
X0079759Y0256447D01*
X0079768Y0256506D01*
X0079773Y0256567D01*
X0079775Y0256627D01*
X0079775Y0267627D01*
X0079773Y0267687D01*
X0079768Y0267748D01*
X0079759Y0267807D01*
X0079746Y0267866D01*
X0079730Y0267925D01*
X0079710Y0267982D01*
X0079687Y0268037D01*
X0079660Y0268092D01*
X0079631Y0268144D01*
X0079598Y0268195D01*
X0079562Y0268244D01*
X0079524Y0268290D01*
X0079482Y0268334D01*
X0079438Y0268376D01*
X0079392Y0268414D01*
X0079343Y0268450D01*
X0079292Y0268483D01*
X0079240Y0268512D01*
X0079185Y0268539D01*
X0079130Y0268562D01*
X0079073Y0268582D01*
X0079014Y0268598D01*
X0078955Y0268611D01*
X0078896Y0268620D01*
X0078835Y0268625D01*
X0078775Y0268627D01*
X0072775Y0268627D01*
X0072715Y0268625D01*
X0072654Y0268620D01*
X0072595Y0268611D01*
X0072536Y0268598D01*
X0072477Y0268582D01*
X0072420Y0268562D01*
X0072365Y0268539D01*
X0072310Y0268512D01*
X0072258Y0268483D01*
X0072207Y0268450D01*
X0072158Y0268414D01*
X0072112Y0268376D01*
X0072068Y0268334D01*
X0072026Y0268290D01*
X0071988Y0268244D01*
X0071952Y0268195D01*
X0071919Y0268144D01*
X0071890Y0268092D01*
X0071863Y0268037D01*
X0071840Y0267982D01*
X0071820Y0267925D01*
X0071804Y0267866D01*
X0071791Y0267807D01*
X0071782Y0267748D01*
X0071777Y0267687D01*
X0071775Y0267627D01*
X0094741Y0267627D02*
X0094741Y0256627D01*
X0094743Y0256567D01*
X0094748Y0256506D01*
X0094757Y0256447D01*
X0094770Y0256388D01*
X0094786Y0256329D01*
X0094806Y0256272D01*
X0094829Y0256217D01*
X0094856Y0256162D01*
X0094885Y0256110D01*
X0094918Y0256059D01*
X0094954Y0256010D01*
X0094992Y0255964D01*
X0095034Y0255920D01*
X0095078Y0255878D01*
X0095124Y0255840D01*
X0095173Y0255804D01*
X0095224Y0255771D01*
X0095276Y0255742D01*
X0095331Y0255715D01*
X0095386Y0255692D01*
X0095443Y0255672D01*
X0095502Y0255656D01*
X0095561Y0255643D01*
X0095620Y0255634D01*
X0095681Y0255629D01*
X0095741Y0255627D01*
X0101741Y0255627D01*
X0101801Y0255629D01*
X0101862Y0255634D01*
X0101921Y0255643D01*
X0101980Y0255656D01*
X0102039Y0255672D01*
X0102096Y0255692D01*
X0102151Y0255715D01*
X0102206Y0255742D01*
X0102258Y0255771D01*
X0102309Y0255804D01*
X0102358Y0255840D01*
X0102404Y0255878D01*
X0102448Y0255920D01*
X0102490Y0255964D01*
X0102528Y0256010D01*
X0102564Y0256059D01*
X0102597Y0256110D01*
X0102626Y0256162D01*
X0102653Y0256217D01*
X0102676Y0256272D01*
X0102696Y0256329D01*
X0102712Y0256388D01*
X0102725Y0256447D01*
X0102734Y0256506D01*
X0102739Y0256567D01*
X0102741Y0256627D01*
X0102741Y0267627D01*
X0102739Y0267687D01*
X0102734Y0267748D01*
X0102725Y0267807D01*
X0102712Y0267866D01*
X0102696Y0267925D01*
X0102676Y0267982D01*
X0102653Y0268037D01*
X0102626Y0268092D01*
X0102597Y0268144D01*
X0102564Y0268195D01*
X0102528Y0268244D01*
X0102490Y0268290D01*
X0102448Y0268334D01*
X0102404Y0268376D01*
X0102358Y0268414D01*
X0102309Y0268450D01*
X0102258Y0268483D01*
X0102206Y0268512D01*
X0102151Y0268539D01*
X0102096Y0268562D01*
X0102039Y0268582D01*
X0101980Y0268598D01*
X0101921Y0268611D01*
X0101862Y0268620D01*
X0101801Y0268625D01*
X0101741Y0268627D01*
X0095741Y0268627D01*
X0095681Y0268625D01*
X0095620Y0268620D01*
X0095561Y0268611D01*
X0095502Y0268598D01*
X0095443Y0268582D01*
X0095386Y0268562D01*
X0095331Y0268539D01*
X0095276Y0268512D01*
X0095224Y0268483D01*
X0095173Y0268450D01*
X0095124Y0268414D01*
X0095078Y0268376D01*
X0095034Y0268334D01*
X0094992Y0268290D01*
X0094954Y0268244D01*
X0094918Y0268195D01*
X0094885Y0268144D01*
X0094856Y0268092D01*
X0094829Y0268037D01*
X0094806Y0267982D01*
X0094786Y0267925D01*
X0094770Y0267866D01*
X0094757Y0267807D01*
X0094748Y0267748D01*
X0094743Y0267687D01*
X0094741Y0267627D01*
X0163639Y0267627D02*
X0163639Y0256627D01*
X0163641Y0256567D01*
X0163646Y0256506D01*
X0163655Y0256447D01*
X0163668Y0256388D01*
X0163684Y0256329D01*
X0163704Y0256272D01*
X0163727Y0256217D01*
X0163754Y0256162D01*
X0163783Y0256110D01*
X0163816Y0256059D01*
X0163852Y0256010D01*
X0163890Y0255964D01*
X0163932Y0255920D01*
X0163976Y0255878D01*
X0164022Y0255840D01*
X0164071Y0255804D01*
X0164122Y0255771D01*
X0164174Y0255742D01*
X0164229Y0255715D01*
X0164284Y0255692D01*
X0164341Y0255672D01*
X0164400Y0255656D01*
X0164459Y0255643D01*
X0164518Y0255634D01*
X0164579Y0255629D01*
X0164639Y0255627D01*
X0170639Y0255627D01*
X0170699Y0255629D01*
X0170760Y0255634D01*
X0170819Y0255643D01*
X0170878Y0255656D01*
X0170937Y0255672D01*
X0170994Y0255692D01*
X0171049Y0255715D01*
X0171104Y0255742D01*
X0171156Y0255771D01*
X0171207Y0255804D01*
X0171256Y0255840D01*
X0171302Y0255878D01*
X0171346Y0255920D01*
X0171388Y0255964D01*
X0171426Y0256010D01*
X0171462Y0256059D01*
X0171495Y0256110D01*
X0171524Y0256162D01*
X0171551Y0256217D01*
X0171574Y0256272D01*
X0171594Y0256329D01*
X0171610Y0256388D01*
X0171623Y0256447D01*
X0171632Y0256506D01*
X0171637Y0256567D01*
X0171639Y0256627D01*
X0171639Y0267627D01*
X0171637Y0267687D01*
X0171632Y0267748D01*
X0171623Y0267807D01*
X0171610Y0267866D01*
X0171594Y0267925D01*
X0171574Y0267982D01*
X0171551Y0268037D01*
X0171524Y0268092D01*
X0171495Y0268144D01*
X0171462Y0268195D01*
X0171426Y0268244D01*
X0171388Y0268290D01*
X0171346Y0268334D01*
X0171302Y0268376D01*
X0171256Y0268414D01*
X0171207Y0268450D01*
X0171156Y0268483D01*
X0171104Y0268512D01*
X0171049Y0268539D01*
X0170994Y0268562D01*
X0170937Y0268582D01*
X0170878Y0268598D01*
X0170819Y0268611D01*
X0170760Y0268620D01*
X0170699Y0268625D01*
X0170639Y0268627D01*
X0164639Y0268627D01*
X0164579Y0268625D01*
X0164518Y0268620D01*
X0164459Y0268611D01*
X0164400Y0268598D01*
X0164341Y0268582D01*
X0164284Y0268562D01*
X0164229Y0268539D01*
X0164174Y0268512D01*
X0164122Y0268483D01*
X0164071Y0268450D01*
X0164022Y0268414D01*
X0163976Y0268376D01*
X0163932Y0268334D01*
X0163890Y0268290D01*
X0163852Y0268244D01*
X0163816Y0268195D01*
X0163783Y0268144D01*
X0163754Y0268092D01*
X0163727Y0268037D01*
X0163704Y0267982D01*
X0163684Y0267925D01*
X0163668Y0267866D01*
X0163655Y0267807D01*
X0163646Y0267748D01*
X0163641Y0267687D01*
X0163639Y0267627D01*
X0192603Y0235615D02*
X0209603Y0235615D01*
X0209663Y0235613D01*
X0209724Y0235608D01*
X0209783Y0235599D01*
X0209842Y0235586D01*
X0209901Y0235570D01*
X0209958Y0235550D01*
X0210013Y0235527D01*
X0210068Y0235500D01*
X0210120Y0235471D01*
X0210171Y0235438D01*
X0210220Y0235402D01*
X0210266Y0235364D01*
X0210310Y0235322D01*
X0210352Y0235278D01*
X0210390Y0235232D01*
X0210426Y0235183D01*
X0210459Y0235132D01*
X0210488Y0235080D01*
X0210515Y0235025D01*
X0210538Y0234970D01*
X0210558Y0234913D01*
X0210574Y0234854D01*
X0210587Y0234795D01*
X0210596Y0234736D01*
X0210601Y0234675D01*
X0210603Y0234615D01*
X0210603Y0228615D01*
X0210601Y0228555D01*
X0210596Y0228494D01*
X0210587Y0228435D01*
X0210574Y0228376D01*
X0210558Y0228317D01*
X0210538Y0228260D01*
X0210515Y0228205D01*
X0210488Y0228150D01*
X0210459Y0228098D01*
X0210426Y0228047D01*
X0210390Y0227998D01*
X0210352Y0227952D01*
X0210310Y0227908D01*
X0210266Y0227866D01*
X0210220Y0227828D01*
X0210171Y0227792D01*
X0210120Y0227759D01*
X0210068Y0227730D01*
X0210013Y0227703D01*
X0209958Y0227680D01*
X0209901Y0227660D01*
X0209842Y0227644D01*
X0209783Y0227631D01*
X0209724Y0227622D01*
X0209663Y0227617D01*
X0209603Y0227615D01*
X0192603Y0227615D01*
X0192543Y0227617D01*
X0192482Y0227622D01*
X0192423Y0227631D01*
X0192364Y0227644D01*
X0192305Y0227660D01*
X0192248Y0227680D01*
X0192193Y0227703D01*
X0192138Y0227730D01*
X0192086Y0227759D01*
X0192035Y0227792D01*
X0191986Y0227828D01*
X0191940Y0227866D01*
X0191896Y0227908D01*
X0191854Y0227952D01*
X0191816Y0227998D01*
X0191780Y0228047D01*
X0191747Y0228098D01*
X0191718Y0228150D01*
X0191691Y0228205D01*
X0191668Y0228260D01*
X0191648Y0228317D01*
X0191632Y0228376D01*
X0191619Y0228435D01*
X0191610Y0228494D01*
X0191605Y0228555D01*
X0191603Y0228615D01*
X0191603Y0234615D01*
X0191605Y0234675D01*
X0191610Y0234736D01*
X0191619Y0234795D01*
X0191632Y0234854D01*
X0191648Y0234913D01*
X0191668Y0234970D01*
X0191691Y0235025D01*
X0191718Y0235080D01*
X0191747Y0235132D01*
X0191780Y0235183D01*
X0191816Y0235232D01*
X0191854Y0235278D01*
X0191896Y0235322D01*
X0191940Y0235364D01*
X0191986Y0235402D01*
X0192035Y0235438D01*
X0192086Y0235471D01*
X0192138Y0235500D01*
X0192193Y0235527D01*
X0192248Y0235550D01*
X0192305Y0235570D01*
X0192364Y0235586D01*
X0192423Y0235599D01*
X0192482Y0235608D01*
X0192543Y0235613D01*
X0192603Y0235615D01*
X0170639Y0096383D02*
X0164639Y0096383D01*
X0164579Y0096381D01*
X0164518Y0096376D01*
X0164459Y0096367D01*
X0164400Y0096354D01*
X0164341Y0096338D01*
X0164284Y0096318D01*
X0164229Y0096295D01*
X0164174Y0096268D01*
X0164122Y0096239D01*
X0164071Y0096206D01*
X0164022Y0096170D01*
X0163976Y0096132D01*
X0163932Y0096090D01*
X0163890Y0096046D01*
X0163852Y0096000D01*
X0163816Y0095951D01*
X0163783Y0095900D01*
X0163754Y0095848D01*
X0163727Y0095793D01*
X0163704Y0095738D01*
X0163684Y0095681D01*
X0163668Y0095622D01*
X0163655Y0095563D01*
X0163646Y0095504D01*
X0163641Y0095443D01*
X0163639Y0095383D01*
X0163639Y0084383D01*
X0163641Y0084323D01*
X0163646Y0084262D01*
X0163655Y0084203D01*
X0163668Y0084144D01*
X0163684Y0084085D01*
X0163704Y0084028D01*
X0163727Y0083973D01*
X0163754Y0083918D01*
X0163783Y0083866D01*
X0163816Y0083815D01*
X0163852Y0083766D01*
X0163890Y0083720D01*
X0163932Y0083676D01*
X0163976Y0083634D01*
X0164022Y0083596D01*
X0164071Y0083560D01*
X0164122Y0083527D01*
X0164174Y0083498D01*
X0164229Y0083471D01*
X0164284Y0083448D01*
X0164341Y0083428D01*
X0164400Y0083412D01*
X0164459Y0083399D01*
X0164518Y0083390D01*
X0164579Y0083385D01*
X0164639Y0083383D01*
X0170639Y0083383D01*
X0170699Y0083385D01*
X0170760Y0083390D01*
X0170819Y0083399D01*
X0170878Y0083412D01*
X0170937Y0083428D01*
X0170994Y0083448D01*
X0171049Y0083471D01*
X0171104Y0083498D01*
X0171156Y0083527D01*
X0171207Y0083560D01*
X0171256Y0083596D01*
X0171302Y0083634D01*
X0171346Y0083676D01*
X0171388Y0083720D01*
X0171426Y0083766D01*
X0171462Y0083815D01*
X0171495Y0083866D01*
X0171524Y0083918D01*
X0171551Y0083973D01*
X0171574Y0084028D01*
X0171594Y0084085D01*
X0171610Y0084144D01*
X0171623Y0084203D01*
X0171632Y0084262D01*
X0171637Y0084323D01*
X0171639Y0084383D01*
X0171639Y0095383D01*
X0171637Y0095443D01*
X0171632Y0095504D01*
X0171623Y0095563D01*
X0171610Y0095622D01*
X0171594Y0095681D01*
X0171574Y0095738D01*
X0171551Y0095793D01*
X0171524Y0095848D01*
X0171495Y0095900D01*
X0171462Y0095951D01*
X0171426Y0096000D01*
X0171388Y0096046D01*
X0171346Y0096090D01*
X0171302Y0096132D01*
X0171256Y0096170D01*
X0171207Y0096206D01*
X0171156Y0096239D01*
X0171104Y0096268D01*
X0171049Y0096295D01*
X0170994Y0096318D01*
X0170937Y0096338D01*
X0170878Y0096354D01*
X0170819Y0096367D01*
X0170760Y0096376D01*
X0170699Y0096381D01*
X0170639Y0096383D01*
X0192603Y0063371D02*
X0209603Y0063371D01*
X0209663Y0063369D01*
X0209724Y0063364D01*
X0209783Y0063355D01*
X0209842Y0063342D01*
X0209901Y0063326D01*
X0209958Y0063306D01*
X0210013Y0063283D01*
X0210068Y0063256D01*
X0210120Y0063227D01*
X0210171Y0063194D01*
X0210220Y0063158D01*
X0210266Y0063120D01*
X0210310Y0063078D01*
X0210352Y0063034D01*
X0210390Y0062988D01*
X0210426Y0062939D01*
X0210459Y0062888D01*
X0210488Y0062836D01*
X0210515Y0062781D01*
X0210538Y0062726D01*
X0210558Y0062669D01*
X0210574Y0062610D01*
X0210587Y0062551D01*
X0210596Y0062492D01*
X0210601Y0062431D01*
X0210603Y0062371D01*
X0210603Y0056371D01*
X0210601Y0056311D01*
X0210596Y0056250D01*
X0210587Y0056191D01*
X0210574Y0056132D01*
X0210558Y0056073D01*
X0210538Y0056016D01*
X0210515Y0055961D01*
X0210488Y0055906D01*
X0210459Y0055854D01*
X0210426Y0055803D01*
X0210390Y0055754D01*
X0210352Y0055708D01*
X0210310Y0055664D01*
X0210266Y0055622D01*
X0210220Y0055584D01*
X0210171Y0055548D01*
X0210120Y0055515D01*
X0210068Y0055486D01*
X0210013Y0055459D01*
X0209958Y0055436D01*
X0209901Y0055416D01*
X0209842Y0055400D01*
X0209783Y0055387D01*
X0209724Y0055378D01*
X0209663Y0055373D01*
X0209603Y0055371D01*
X0192603Y0055371D01*
X0192543Y0055373D01*
X0192482Y0055378D01*
X0192423Y0055387D01*
X0192364Y0055400D01*
X0192305Y0055416D01*
X0192248Y0055436D01*
X0192193Y0055459D01*
X0192138Y0055486D01*
X0192086Y0055515D01*
X0192035Y0055548D01*
X0191986Y0055584D01*
X0191940Y0055622D01*
X0191896Y0055664D01*
X0191854Y0055708D01*
X0191816Y0055754D01*
X0191780Y0055803D01*
X0191747Y0055854D01*
X0191718Y0055906D01*
X0191691Y0055961D01*
X0191668Y0056016D01*
X0191648Y0056073D01*
X0191632Y0056132D01*
X0191619Y0056191D01*
X0191610Y0056250D01*
X0191605Y0056311D01*
X0191603Y0056371D01*
X0191603Y0062371D01*
X0191605Y0062431D01*
X0191610Y0062492D01*
X0191619Y0062551D01*
X0191632Y0062610D01*
X0191648Y0062669D01*
X0191668Y0062726D01*
X0191691Y0062781D01*
X0191718Y0062836D01*
X0191747Y0062888D01*
X0191780Y0062939D01*
X0191816Y0062988D01*
X0191854Y0063034D01*
X0191896Y0063078D01*
X0191940Y0063120D01*
X0191986Y0063158D01*
X0192035Y0063194D01*
X0192086Y0063227D01*
X0192138Y0063256D01*
X0192193Y0063283D01*
X0192248Y0063306D01*
X0192305Y0063326D01*
X0192364Y0063342D01*
X0192423Y0063355D01*
X0192482Y0063364D01*
X0192543Y0063369D01*
X0192603Y0063371D01*
X0102741Y0084383D02*
X0102741Y0095383D01*
X0102739Y0095443D01*
X0102734Y0095504D01*
X0102725Y0095563D01*
X0102712Y0095622D01*
X0102696Y0095681D01*
X0102676Y0095738D01*
X0102653Y0095793D01*
X0102626Y0095848D01*
X0102597Y0095900D01*
X0102564Y0095951D01*
X0102528Y0096000D01*
X0102490Y0096046D01*
X0102448Y0096090D01*
X0102404Y0096132D01*
X0102358Y0096170D01*
X0102309Y0096206D01*
X0102258Y0096239D01*
X0102206Y0096268D01*
X0102151Y0096295D01*
X0102096Y0096318D01*
X0102039Y0096338D01*
X0101980Y0096354D01*
X0101921Y0096367D01*
X0101862Y0096376D01*
X0101801Y0096381D01*
X0101741Y0096383D01*
X0095741Y0096383D01*
X0095681Y0096381D01*
X0095620Y0096376D01*
X0095561Y0096367D01*
X0095502Y0096354D01*
X0095443Y0096338D01*
X0095386Y0096318D01*
X0095331Y0096295D01*
X0095276Y0096268D01*
X0095224Y0096239D01*
X0095173Y0096206D01*
X0095124Y0096170D01*
X0095078Y0096132D01*
X0095034Y0096090D01*
X0094992Y0096046D01*
X0094954Y0096000D01*
X0094918Y0095951D01*
X0094885Y0095900D01*
X0094856Y0095848D01*
X0094829Y0095793D01*
X0094806Y0095738D01*
X0094786Y0095681D01*
X0094770Y0095622D01*
X0094757Y0095563D01*
X0094748Y0095504D01*
X0094743Y0095443D01*
X0094741Y0095383D01*
X0094741Y0084383D01*
X0094743Y0084323D01*
X0094748Y0084262D01*
X0094757Y0084203D01*
X0094770Y0084144D01*
X0094786Y0084085D01*
X0094806Y0084028D01*
X0094829Y0083973D01*
X0094856Y0083918D01*
X0094885Y0083866D01*
X0094918Y0083815D01*
X0094954Y0083766D01*
X0094992Y0083720D01*
X0095034Y0083676D01*
X0095078Y0083634D01*
X0095124Y0083596D01*
X0095173Y0083560D01*
X0095224Y0083527D01*
X0095276Y0083498D01*
X0095331Y0083471D01*
X0095386Y0083448D01*
X0095443Y0083428D01*
X0095502Y0083412D01*
X0095561Y0083399D01*
X0095620Y0083390D01*
X0095681Y0083385D01*
X0095741Y0083383D01*
X0101741Y0083383D01*
X0101801Y0083385D01*
X0101862Y0083390D01*
X0101921Y0083399D01*
X0101980Y0083412D01*
X0102039Y0083428D01*
X0102096Y0083448D01*
X0102151Y0083471D01*
X0102206Y0083498D01*
X0102258Y0083527D01*
X0102309Y0083560D01*
X0102358Y0083596D01*
X0102404Y0083634D01*
X0102448Y0083676D01*
X0102490Y0083720D01*
X0102528Y0083766D01*
X0102564Y0083815D01*
X0102597Y0083866D01*
X0102626Y0083918D01*
X0102653Y0083973D01*
X0102676Y0084028D01*
X0102696Y0084085D01*
X0102712Y0084144D01*
X0102725Y0084203D01*
X0102734Y0084262D01*
X0102739Y0084323D01*
X0102741Y0084383D01*
X0079775Y0084383D02*
X0079775Y0095383D01*
X0079773Y0095443D01*
X0079768Y0095504D01*
X0079759Y0095563D01*
X0079746Y0095622D01*
X0079730Y0095681D01*
X0079710Y0095738D01*
X0079687Y0095793D01*
X0079660Y0095848D01*
X0079631Y0095900D01*
X0079598Y0095951D01*
X0079562Y0096000D01*
X0079524Y0096046D01*
X0079482Y0096090D01*
X0079438Y0096132D01*
X0079392Y0096170D01*
X0079343Y0096206D01*
X0079292Y0096239D01*
X0079240Y0096268D01*
X0079185Y0096295D01*
X0079130Y0096318D01*
X0079073Y0096338D01*
X0079014Y0096354D01*
X0078955Y0096367D01*
X0078896Y0096376D01*
X0078835Y0096381D01*
X0078775Y0096383D01*
X0072775Y0096383D01*
X0072715Y0096381D01*
X0072654Y0096376D01*
X0072595Y0096367D01*
X0072536Y0096354D01*
X0072477Y0096338D01*
X0072420Y0096318D01*
X0072365Y0096295D01*
X0072310Y0096268D01*
X0072258Y0096239D01*
X0072207Y0096206D01*
X0072158Y0096170D01*
X0072112Y0096132D01*
X0072068Y0096090D01*
X0072026Y0096046D01*
X0071988Y0096000D01*
X0071952Y0095951D01*
X0071919Y0095900D01*
X0071890Y0095848D01*
X0071863Y0095793D01*
X0071840Y0095738D01*
X0071820Y0095681D01*
X0071804Y0095622D01*
X0071791Y0095563D01*
X0071782Y0095504D01*
X0071777Y0095443D01*
X0071775Y0095383D01*
X0071775Y0084383D01*
X0071777Y0084323D01*
X0071782Y0084262D01*
X0071791Y0084203D01*
X0071804Y0084144D01*
X0071820Y0084085D01*
X0071840Y0084028D01*
X0071863Y0083973D01*
X0071890Y0083918D01*
X0071919Y0083866D01*
X0071952Y0083815D01*
X0071988Y0083766D01*
X0072026Y0083720D01*
X0072068Y0083676D01*
X0072112Y0083634D01*
X0072158Y0083596D01*
X0072207Y0083560D01*
X0072258Y0083527D01*
X0072310Y0083498D01*
X0072365Y0083471D01*
X0072420Y0083448D01*
X0072477Y0083428D01*
X0072536Y0083412D01*
X0072595Y0083399D01*
X0072654Y0083390D01*
X0072715Y0083385D01*
X0072775Y0083383D01*
X0078775Y0083383D01*
X0078835Y0083385D01*
X0078896Y0083390D01*
X0078955Y0083399D01*
X0079014Y0083412D01*
X0079073Y0083428D01*
X0079130Y0083448D01*
X0079185Y0083471D01*
X0079240Y0083498D01*
X0079292Y0083527D01*
X0079343Y0083560D01*
X0079392Y0083596D01*
X0079438Y0083634D01*
X0079482Y0083676D01*
X0079524Y0083720D01*
X0079562Y0083766D01*
X0079598Y0083815D01*
X0079631Y0083866D01*
X0079660Y0083918D01*
X0079687Y0083973D01*
X0079710Y0084028D01*
X0079730Y0084085D01*
X0079746Y0084144D01*
X0079759Y0084203D01*
X0079768Y0084262D01*
X0079773Y0084323D01*
X0079775Y0084383D01*
X0049591Y0078430D02*
X0049591Y0095430D01*
X0049589Y0095490D01*
X0049584Y0095551D01*
X0049575Y0095610D01*
X0049562Y0095669D01*
X0049546Y0095728D01*
X0049526Y0095785D01*
X0049503Y0095840D01*
X0049476Y0095895D01*
X0049447Y0095947D01*
X0049414Y0095998D01*
X0049378Y0096047D01*
X0049340Y0096093D01*
X0049298Y0096137D01*
X0049254Y0096179D01*
X0049208Y0096217D01*
X0049159Y0096253D01*
X0049108Y0096286D01*
X0049056Y0096315D01*
X0049001Y0096342D01*
X0048946Y0096365D01*
X0048889Y0096385D01*
X0048830Y0096401D01*
X0048771Y0096414D01*
X0048712Y0096423D01*
X0048651Y0096428D01*
X0048591Y0096430D01*
X0042591Y0096430D01*
X0042531Y0096428D01*
X0042470Y0096423D01*
X0042411Y0096414D01*
X0042352Y0096401D01*
X0042293Y0096385D01*
X0042236Y0096365D01*
X0042181Y0096342D01*
X0042126Y0096315D01*
X0042074Y0096286D01*
X0042023Y0096253D01*
X0041974Y0096217D01*
X0041928Y0096179D01*
X0041884Y0096137D01*
X0041842Y0096093D01*
X0041804Y0096047D01*
X0041768Y0095998D01*
X0041735Y0095947D01*
X0041706Y0095895D01*
X0041679Y0095840D01*
X0041656Y0095785D01*
X0041636Y0095728D01*
X0041620Y0095669D01*
X0041607Y0095610D01*
X0041598Y0095551D01*
X0041593Y0095490D01*
X0041591Y0095430D01*
X0041591Y0078430D01*
X0041593Y0078370D01*
X0041598Y0078309D01*
X0041607Y0078250D01*
X0041620Y0078191D01*
X0041636Y0078132D01*
X0041656Y0078075D01*
X0041679Y0078020D01*
X0041706Y0077965D01*
X0041735Y0077913D01*
X0041768Y0077862D01*
X0041804Y0077813D01*
X0041842Y0077767D01*
X0041884Y0077723D01*
X0041928Y0077681D01*
X0041974Y0077643D01*
X0042023Y0077607D01*
X0042074Y0077574D01*
X0042126Y0077545D01*
X0042181Y0077518D01*
X0042236Y0077495D01*
X0042293Y0077475D01*
X0042352Y0077459D01*
X0042411Y0077446D01*
X0042470Y0077437D01*
X0042531Y0077432D01*
X0042591Y0077430D01*
X0048591Y0077430D01*
X0048651Y0077432D01*
X0048712Y0077437D01*
X0048771Y0077446D01*
X0048830Y0077459D01*
X0048889Y0077475D01*
X0048946Y0077495D01*
X0049001Y0077518D01*
X0049056Y0077545D01*
X0049108Y0077574D01*
X0049159Y0077607D01*
X0049208Y0077643D01*
X0049254Y0077681D01*
X0049298Y0077723D01*
X0049340Y0077767D01*
X0049378Y0077813D01*
X0049414Y0077862D01*
X0049447Y0077913D01*
X0049476Y0077965D01*
X0049503Y0078020D01*
X0049526Y0078075D01*
X0049546Y0078132D01*
X0049562Y0078191D01*
X0049575Y0078250D01*
X0049584Y0078309D01*
X0049589Y0078370D01*
X0049591Y0078430D01*
X0034171Y0084383D02*
X0034171Y0095383D01*
X0034169Y0095443D01*
X0034164Y0095504D01*
X0034155Y0095563D01*
X0034142Y0095622D01*
X0034126Y0095681D01*
X0034106Y0095738D01*
X0034083Y0095793D01*
X0034056Y0095848D01*
X0034027Y0095900D01*
X0033994Y0095951D01*
X0033958Y0096000D01*
X0033920Y0096046D01*
X0033878Y0096090D01*
X0033834Y0096132D01*
X0033788Y0096170D01*
X0033739Y0096206D01*
X0033688Y0096239D01*
X0033636Y0096268D01*
X0033581Y0096295D01*
X0033526Y0096318D01*
X0033469Y0096338D01*
X0033410Y0096354D01*
X0033351Y0096367D01*
X0033292Y0096376D01*
X0033231Y0096381D01*
X0033171Y0096383D01*
X0027171Y0096383D01*
X0027111Y0096381D01*
X0027050Y0096376D01*
X0026991Y0096367D01*
X0026932Y0096354D01*
X0026873Y0096338D01*
X0026816Y0096318D01*
X0026761Y0096295D01*
X0026706Y0096268D01*
X0026654Y0096239D01*
X0026603Y0096206D01*
X0026554Y0096170D01*
X0026508Y0096132D01*
X0026464Y0096090D01*
X0026422Y0096046D01*
X0026384Y0096000D01*
X0026348Y0095951D01*
X0026315Y0095900D01*
X0026286Y0095848D01*
X0026259Y0095793D01*
X0026236Y0095738D01*
X0026216Y0095681D01*
X0026200Y0095622D01*
X0026187Y0095563D01*
X0026178Y0095504D01*
X0026173Y0095443D01*
X0026171Y0095383D01*
X0026171Y0084383D01*
X0026173Y0084323D01*
X0026178Y0084262D01*
X0026187Y0084203D01*
X0026200Y0084144D01*
X0026216Y0084085D01*
X0026236Y0084028D01*
X0026259Y0083973D01*
X0026286Y0083918D01*
X0026315Y0083866D01*
X0026348Y0083815D01*
X0026384Y0083766D01*
X0026422Y0083720D01*
X0026464Y0083676D01*
X0026508Y0083634D01*
X0026554Y0083596D01*
X0026603Y0083560D01*
X0026654Y0083527D01*
X0026706Y0083498D01*
X0026761Y0083471D01*
X0026816Y0083448D01*
X0026873Y0083428D01*
X0026932Y0083412D01*
X0026991Y0083399D01*
X0027050Y0083390D01*
X0027111Y0083385D01*
X0027171Y0083383D01*
X0033171Y0083383D01*
X0033231Y0083385D01*
X0033292Y0083390D01*
X0033351Y0083399D01*
X0033410Y0083412D01*
X0033469Y0083428D01*
X0033526Y0083448D01*
X0033581Y0083471D01*
X0033636Y0083498D01*
X0033688Y0083527D01*
X0033739Y0083560D01*
X0033788Y0083596D01*
X0033834Y0083634D01*
X0033878Y0083676D01*
X0033920Y0083720D01*
X0033958Y0083766D01*
X0033994Y0083815D01*
X0034027Y0083866D01*
X0034056Y0083918D01*
X0034083Y0083973D01*
X0034106Y0084028D01*
X0034126Y0084085D01*
X0034142Y0084144D01*
X0034155Y0084203D01*
X0034164Y0084262D01*
X0034169Y0084323D01*
X0034171Y0084383D01*
X0001300Y0089883D02*
X0332009Y0089883D01*
X0332009Y0176497D02*
X0001300Y0176497D01*
D12*
X0188458Y0235702D02*
X0189670Y0235702D01*
X0189725Y0235704D01*
X0189780Y0235710D01*
X0189834Y0235719D01*
X0189888Y0235732D01*
X0189941Y0235749D01*
X0189992Y0235769D01*
X0190042Y0235793D01*
X0190090Y0235820D01*
X0190136Y0235850D01*
X0190180Y0235883D01*
X0190222Y0235919D01*
X0190261Y0235958D01*
X0190297Y0236000D01*
X0190330Y0236044D01*
X0190360Y0236090D01*
X0190387Y0236138D01*
X0190411Y0236188D01*
X0190431Y0236239D01*
X0190448Y0236292D01*
X0190461Y0236346D01*
X0190470Y0236400D01*
X0190476Y0236455D01*
X0190478Y0236510D01*
X0190478Y0238531D01*
X0190476Y0238586D01*
X0190470Y0238641D01*
X0190461Y0238695D01*
X0190448Y0238749D01*
X0190431Y0238802D01*
X0190411Y0238853D01*
X0190387Y0238903D01*
X0190360Y0238951D01*
X0190330Y0238997D01*
X0190297Y0239041D01*
X0190261Y0239083D01*
X0190222Y0239122D01*
X0190180Y0239158D01*
X0190136Y0239191D01*
X0190090Y0239221D01*
X0190042Y0239248D01*
X0189992Y0239272D01*
X0189941Y0239292D01*
X0189888Y0239309D01*
X0189834Y0239322D01*
X0189780Y0239331D01*
X0189725Y0239337D01*
X0189670Y0239339D01*
X0188458Y0239339D01*
X0188458Y0237723D02*
X0188458Y0235702D01*
X0188458Y0237723D02*
X0189064Y0237723D01*
X0192017Y0239339D02*
X0192825Y0239339D01*
X0192421Y0239339D02*
X0192421Y0235702D01*
X0192825Y0235702D02*
X0192017Y0235702D01*
X0194363Y0236712D02*
X0194363Y0238329D01*
X0194364Y0238329D02*
X0194366Y0238390D01*
X0194371Y0238451D01*
X0194381Y0238511D01*
X0194393Y0238571D01*
X0194410Y0238629D01*
X0194430Y0238687D01*
X0194453Y0238744D01*
X0194480Y0238798D01*
X0194510Y0238852D01*
X0194543Y0238903D01*
X0194579Y0238952D01*
X0194618Y0238999D01*
X0194660Y0239043D01*
X0194704Y0239085D01*
X0194751Y0239124D01*
X0194800Y0239160D01*
X0194851Y0239193D01*
X0194905Y0239223D01*
X0194959Y0239250D01*
X0195016Y0239273D01*
X0195074Y0239293D01*
X0195132Y0239310D01*
X0195192Y0239322D01*
X0195252Y0239332D01*
X0195313Y0239337D01*
X0195374Y0239339D01*
X0196384Y0239339D01*
X0196384Y0235702D01*
X0195374Y0235702D01*
X0195313Y0235704D01*
X0195252Y0235709D01*
X0195192Y0235719D01*
X0195132Y0235731D01*
X0195074Y0235748D01*
X0195016Y0235768D01*
X0194959Y0235791D01*
X0194905Y0235818D01*
X0194851Y0235848D01*
X0194800Y0235881D01*
X0194751Y0235917D01*
X0194704Y0235956D01*
X0194660Y0235998D01*
X0194618Y0236042D01*
X0194579Y0236089D01*
X0194543Y0236138D01*
X0194510Y0236189D01*
X0194480Y0236243D01*
X0194453Y0236297D01*
X0194430Y0236354D01*
X0194410Y0236412D01*
X0194393Y0236470D01*
X0194381Y0236530D01*
X0194371Y0236590D01*
X0194366Y0236651D01*
X0194364Y0236712D01*
X0205190Y0235702D02*
X0206402Y0239339D01*
X0207615Y0235702D01*
X0207312Y0236611D02*
X0205493Y0236611D01*
X0209054Y0235702D02*
X0209054Y0239339D01*
X0211074Y0239339D02*
X0209054Y0235702D01*
X0211074Y0235702D02*
X0211074Y0239339D01*
X0213725Y0239339D02*
X0212513Y0235702D01*
X0212816Y0236611D02*
X0214635Y0236611D01*
X0214938Y0235702D02*
X0213725Y0239339D01*
X0213725Y0067095D02*
X0212513Y0063458D01*
X0212816Y0064367D02*
X0214635Y0064367D01*
X0214938Y0063458D02*
X0213725Y0067095D01*
X0211074Y0067095D02*
X0211074Y0063458D01*
X0209054Y0063458D02*
X0209054Y0067095D01*
X0211074Y0067095D02*
X0209054Y0063458D01*
X0207615Y0063458D02*
X0206402Y0067095D01*
X0205190Y0063458D01*
X0205493Y0064367D02*
X0207312Y0064367D01*
X0196384Y0063458D02*
X0195374Y0063458D01*
X0196384Y0063458D02*
X0196384Y0067095D01*
X0195374Y0067095D01*
X0195313Y0067093D01*
X0195252Y0067088D01*
X0195192Y0067078D01*
X0195132Y0067066D01*
X0195074Y0067049D01*
X0195016Y0067029D01*
X0194959Y0067006D01*
X0194905Y0066979D01*
X0194851Y0066949D01*
X0194800Y0066916D01*
X0194751Y0066880D01*
X0194704Y0066841D01*
X0194660Y0066799D01*
X0194618Y0066755D01*
X0194579Y0066708D01*
X0194543Y0066659D01*
X0194510Y0066608D01*
X0194480Y0066554D01*
X0194453Y0066500D01*
X0194430Y0066443D01*
X0194410Y0066385D01*
X0194393Y0066327D01*
X0194381Y0066267D01*
X0194371Y0066207D01*
X0194366Y0066146D01*
X0194364Y0066085D01*
X0194363Y0066085D02*
X0194363Y0064468D01*
X0194364Y0064468D02*
X0194366Y0064407D01*
X0194371Y0064346D01*
X0194381Y0064286D01*
X0194393Y0064226D01*
X0194410Y0064168D01*
X0194430Y0064110D01*
X0194453Y0064053D01*
X0194480Y0063999D01*
X0194510Y0063945D01*
X0194543Y0063894D01*
X0194579Y0063845D01*
X0194618Y0063798D01*
X0194660Y0063754D01*
X0194704Y0063712D01*
X0194751Y0063673D01*
X0194800Y0063637D01*
X0194851Y0063604D01*
X0194905Y0063574D01*
X0194959Y0063547D01*
X0195016Y0063524D01*
X0195074Y0063504D01*
X0195132Y0063487D01*
X0195192Y0063475D01*
X0195252Y0063465D01*
X0195313Y0063460D01*
X0195374Y0063458D01*
X0192825Y0063458D02*
X0192017Y0063458D01*
X0192421Y0063458D02*
X0192421Y0067095D01*
X0192825Y0067095D02*
X0192017Y0067095D01*
X0190478Y0066287D02*
X0190478Y0064266D01*
X0190476Y0064211D01*
X0190470Y0064156D01*
X0190461Y0064102D01*
X0190448Y0064048D01*
X0190431Y0063995D01*
X0190411Y0063944D01*
X0190387Y0063894D01*
X0190360Y0063846D01*
X0190330Y0063800D01*
X0190297Y0063756D01*
X0190261Y0063714D01*
X0190222Y0063675D01*
X0190180Y0063639D01*
X0190136Y0063606D01*
X0190090Y0063576D01*
X0190042Y0063549D01*
X0189992Y0063525D01*
X0189941Y0063505D01*
X0189888Y0063488D01*
X0189834Y0063475D01*
X0189780Y0063466D01*
X0189725Y0063460D01*
X0189670Y0063458D01*
X0188458Y0063458D01*
X0188458Y0065478D01*
X0189064Y0065478D01*
X0190478Y0066287D02*
X0190476Y0066342D01*
X0190470Y0066397D01*
X0190461Y0066451D01*
X0190448Y0066505D01*
X0190431Y0066558D01*
X0190411Y0066609D01*
X0190387Y0066659D01*
X0190360Y0066707D01*
X0190330Y0066753D01*
X0190297Y0066797D01*
X0190261Y0066839D01*
X0190222Y0066878D01*
X0190180Y0066914D01*
X0190136Y0066947D01*
X0190090Y0066977D01*
X0190042Y0067004D01*
X0189992Y0067028D01*
X0189941Y0067048D01*
X0189888Y0067065D01*
X0189834Y0067078D01*
X0189780Y0067087D01*
X0189725Y0067093D01*
X0189670Y0067095D01*
X0188458Y0067095D01*
M02*
