%
M48
M72
T01C0.01378
T02C0.03150
T03C0.03200
T04C0.03937
T05C0.04000
T06C0.04700
T07C0.05906
T08C0.07874
T09C0.11811
%
T01
X18032Y20985
X25906Y11143
X38702Y26891
X24922Y43623
X28859Y66261
X16064Y74135
X43623Y75119
X49528Y75119
X58387Y54450
X56418Y39686
X70198Y41654
X76103Y32796
X85946Y48544
X84961Y68229
X107599Y53465
X113505Y60355
X113505Y64172
X125316Y59371
X123347Y53465
X125316Y48544
X131221Y63308
X154646Y62127
X167639Y80040
X184371Y70198
X189292Y69213
X182402Y63308
X187324Y58387
X188308Y49528
X187324Y38702
X178465Y30828
X189292Y25906
X203072Y28859
X207009Y38702
X218820Y27875
X223741Y28859
X224725Y22954
X212914Y23938
X205040Y50513
X214883Y65276
X220788Y68229
X222757Y60355
X199135Y69213
X157796Y11523
X138111Y9742
X131221Y14095
X90867Y10158
X82009Y10158
X57402Y21969
X31812Y142048
X25906Y183387
X18032Y193229
X38702Y199135
X24922Y215867
X28859Y238505
X16064Y246379
X43623Y247363
X49528Y247363
X58387Y226694
X56418Y211930
X70198Y213898
X76103Y205040
X85946Y220788
X84961Y240473
X107599Y225709
X113505Y232599
X113505Y236416
X125316Y231615
X123347Y225709
X125316Y220788
X131221Y235552
X154646Y234371
X167639Y252284
X184371Y242442
X189292Y241457
X182402Y235552
X187324Y230631
X188308Y221772
X187324Y210946
X178465Y203072
X189292Y198150
X203072Y201103
X207009Y210946
X218820Y200119
X223741Y201103
X224725Y195198
X212914Y196182
X205040Y222757
X214883Y237520
X220788Y240473
X222757Y232599
X199135Y241457
X157796Y183767
X138111Y181986
X131221Y186339
X90867Y182402
X82009Y182402
X57402Y194213
X31812Y314292
T02
X66024Y250316
X76024Y250316
X86024Y250316
X96024Y250316
X96024Y78072
X86024Y78072
X76024Y78072
X66024Y78072
T03
X52166Y68229
X52166Y58387
X52166Y48544
X92166Y48544
X99410Y48544
X99410Y58387
X92166Y58387
X92166Y68229
X99410Y68229
X139410Y68229
X139410Y58387
X139410Y48544
X139410Y220788
X139410Y230631
X139410Y240473
X99410Y240473
X92166Y240473
X92166Y230631
X99410Y230631
X99410Y220788
X92166Y220788
X52166Y220788
X52166Y230631
X52166Y240473
T04
X66261Y250316
X76103Y250316
X85946Y250316
X85946Y78072
X76103Y78072
X66261Y78072
T05
X117127Y79056
X127127Y79056
X137127Y79056
X147127Y79056
X157127Y79056
X151969Y26891
X141969Y26891
X141969Y199135
X151969Y199135
X147127Y251300
X157127Y251300
X137127Y251300
X127127Y251300
X117127Y251300
T06
X126300Y195040
X106615Y195040
X86930Y195040
X67245Y195040
X47560Y195040
X27875Y195040
X29765Y226694
X29765Y246379
X29765Y74135
X29765Y54450
X27875Y22796
X47560Y22796
X67245Y22796
X86930Y22796
X106615Y22796
X126300Y22796
T07
X176741Y99190
X176741Y167190
X176741Y271434
X176741Y339434
X20741Y339434
X20741Y271434
X20741Y167190
X20741Y99190
T08
X16064Y10158
X16064Y83977
X16064Y182402
X16064Y256221
X258190Y256221
X258190Y182402
X258190Y83977
X258190Y10158
T09
X158741Y103190
X41741Y163190
X158741Y275434
X41741Y335434
M30
