G75*
%MOIN*%
%OFA0B0*%
%FSLAX25Y25*%
%IPPOS*%
%LPD*%
%AMOC8*
5,1,8,0,0,1.08239X$1,22.5*
%
%ADD10C,0.08674*%
%ADD11C,0.06800*%
%ADD12OC8,0.06000*%
%ADD13C,0.06737*%
%ADD14R,0.05400X0.07100*%
%ADD15C,0.07850*%
%ADD16R,0.07100X0.05400*%
%ADD17R,0.10643X0.10643*%
%ADD18C,0.12611*%
%ADD19R,0.07200X0.00600*%
%ADD20R,0.05950X0.05950*%
%ADD21C,0.05950*%
%ADD22C,0.03778*%
D10*
X0016064Y0010158D03*
X0016064Y0083977D03*
X0016064Y0182402D03*
X0016064Y0256221D03*
X0258190Y0256221D03*
X0258190Y0182402D03*
X0258190Y0083977D03*
X0258190Y0010158D03*
D11*
X0157127Y0076056D02*
X0157127Y0082056D01*
X0147127Y0082056D02*
X0147127Y0076056D01*
X0137127Y0076056D02*
X0137127Y0082056D01*
X0127127Y0082056D02*
X0127127Y0076056D01*
X0117127Y0076056D02*
X0117127Y0082056D01*
X0141969Y0029891D02*
X0141969Y0023891D01*
X0151969Y0023891D02*
X0151969Y0029891D01*
X0151969Y0196135D02*
X0151969Y0202135D01*
X0141969Y0202135D02*
X0141969Y0196135D01*
X0137127Y0248300D02*
X0137127Y0254300D01*
X0147127Y0254300D02*
X0147127Y0248300D01*
X0157127Y0248300D02*
X0157127Y0254300D01*
X0127127Y0254300D02*
X0127127Y0248300D01*
X0117127Y0248300D02*
X0117127Y0254300D01*
D12*
X0099410Y0240473D03*
X0092166Y0240473D03*
X0092166Y0230631D03*
X0099410Y0230631D03*
X0099410Y0220788D03*
X0092166Y0220788D03*
X0052166Y0220788D03*
X0052166Y0230631D03*
X0052166Y0240473D03*
X0139410Y0240473D03*
X0139410Y0230631D03*
X0139410Y0220788D03*
X0139410Y0068229D03*
X0139410Y0058387D03*
X0139410Y0048544D03*
X0099410Y0048544D03*
X0092166Y0048544D03*
X0092166Y0058387D03*
X0099410Y0058387D03*
X0099410Y0068229D03*
X0092166Y0068229D03*
X0052166Y0068229D03*
X0052166Y0058387D03*
X0052166Y0048544D03*
D13*
X0066261Y0078072D03*
X0076103Y0078072D03*
X0085946Y0078072D03*
X0085946Y0250316D03*
X0076103Y0250316D03*
X0066261Y0250316D03*
D14*
X0195103Y0231615D03*
X0201103Y0231615D03*
X0207103Y0231615D03*
X0207103Y0059371D03*
X0201103Y0059371D03*
X0195103Y0059371D03*
D15*
X0126300Y0026321D02*
X0126300Y0019271D01*
X0106615Y0019271D02*
X0106615Y0026321D01*
X0086930Y0026321D02*
X0086930Y0019271D01*
X0067245Y0019271D02*
X0067245Y0026321D01*
X0047560Y0026321D02*
X0047560Y0019271D01*
X0027875Y0019271D02*
X0027875Y0026321D01*
X0026240Y0054450D02*
X0033290Y0054450D01*
X0033290Y0074135D02*
X0026240Y0074135D01*
X0027875Y0191515D02*
X0027875Y0198565D01*
X0047560Y0198565D02*
X0047560Y0191515D01*
X0067245Y0191515D02*
X0067245Y0198565D01*
X0086930Y0198565D02*
X0086930Y0191515D01*
X0106615Y0191515D02*
X0106615Y0198565D01*
X0126300Y0198565D02*
X0126300Y0191515D01*
X0033290Y0226694D02*
X0026240Y0226694D01*
X0026240Y0246379D02*
X0033290Y0246379D01*
D16*
X0030171Y0259127D03*
X0030171Y0265127D03*
X0045591Y0265174D03*
X0045591Y0259174D03*
X0045591Y0253174D03*
X0075775Y0259127D03*
X0075775Y0265127D03*
X0098741Y0265127D03*
X0098741Y0259127D03*
X0167639Y0259127D03*
X0167639Y0265127D03*
X0167639Y0092883D03*
X0167639Y0086883D03*
X0098741Y0086883D03*
X0098741Y0092883D03*
X0075775Y0092883D03*
X0075775Y0086883D03*
X0045591Y0086930D03*
X0045591Y0092930D03*
X0045591Y0080930D03*
X0030171Y0086883D03*
X0030171Y0092883D03*
D17*
X0020741Y0099190D03*
X0020741Y0167190D03*
X0020741Y0271434D03*
X0020741Y0339434D03*
X0176741Y0339434D03*
X0176741Y0271434D03*
X0176741Y0167190D03*
X0176741Y0099190D03*
D18*
X0158741Y0103190D03*
X0041741Y0163190D03*
X0158741Y0275434D03*
X0041741Y0335434D03*
D19*
X0030171Y0262127D03*
X0075775Y0262127D03*
X0098741Y0262127D03*
X0167639Y0262127D03*
X0167639Y0089883D03*
X0098741Y0089883D03*
X0075775Y0089883D03*
X0030171Y0089883D03*
D20*
X0066024Y0078072D03*
X0066024Y0250316D03*
D21*
X0076024Y0250316D03*
X0086024Y0250316D03*
X0096024Y0250316D03*
X0096024Y0078072D03*
X0086024Y0078072D03*
X0076024Y0078072D03*
D22*
X0084961Y0068229D03*
X0085946Y0048544D03*
X0070198Y0041654D03*
X0076103Y0032796D03*
X0057402Y0021969D03*
X0056418Y0039686D03*
X0058387Y0054450D03*
X0049528Y0075119D03*
X0043623Y0075119D03*
X0028859Y0066261D03*
X0016064Y0074135D03*
X0024922Y0043623D03*
X0038702Y0026891D03*
X0025906Y0011143D03*
X0018032Y0020985D03*
X0082009Y0010158D03*
X0090867Y0010158D03*
X0125316Y0048544D03*
X0123347Y0053465D03*
X0125316Y0059371D03*
X0131221Y0063308D03*
X0113505Y0064172D03*
X0113505Y0060355D03*
X0107599Y0053465D03*
X0131221Y0014095D03*
X0138111Y0009742D03*
X0157796Y0011523D03*
X0178465Y0030828D03*
X0187324Y0038702D03*
X0188308Y0049528D03*
X0187324Y0058387D03*
X0182402Y0063308D03*
X0184371Y0070198D03*
X0189292Y0069213D03*
X0199135Y0069213D03*
X0214883Y0065276D03*
X0220788Y0068229D03*
X0222757Y0060355D03*
X0205040Y0050513D03*
X0207009Y0038702D03*
X0203072Y0028859D03*
X0212914Y0023938D03*
X0218820Y0027875D03*
X0223741Y0028859D03*
X0224725Y0022954D03*
X0189292Y0025906D03*
X0154646Y0062127D03*
X0167639Y0080040D03*
X0138111Y0181986D03*
X0131221Y0186339D03*
X0157796Y0183767D03*
X0178465Y0203072D03*
X0187324Y0210946D03*
X0188308Y0221772D03*
X0187324Y0230631D03*
X0182402Y0235552D03*
X0184371Y0242442D03*
X0189292Y0241457D03*
X0199135Y0241457D03*
X0214883Y0237520D03*
X0220788Y0240473D03*
X0222757Y0232599D03*
X0205040Y0222757D03*
X0207009Y0210946D03*
X0203072Y0201103D03*
X0212914Y0196182D03*
X0218820Y0200119D03*
X0223741Y0201103D03*
X0224725Y0195198D03*
X0189292Y0198150D03*
X0154646Y0234371D03*
X0167639Y0252284D03*
X0131221Y0235552D03*
X0125316Y0231615D03*
X0123347Y0225709D03*
X0125316Y0220788D03*
X0113505Y0232599D03*
X0113505Y0236416D03*
X0107599Y0225709D03*
X0085946Y0220788D03*
X0070198Y0213898D03*
X0076103Y0205040D03*
X0057402Y0194213D03*
X0056418Y0211930D03*
X0058387Y0226694D03*
X0049528Y0247363D03*
X0043623Y0247363D03*
X0028859Y0238505D03*
X0016064Y0246379D03*
X0024922Y0215867D03*
X0038702Y0199135D03*
X0025906Y0183387D03*
X0018032Y0193229D03*
X0031812Y0142048D03*
X0082009Y0182402D03*
X0090867Y0182402D03*
X0084961Y0240473D03*
X0031812Y0314292D03*
M02*
