G75*
%MOIN*%
%OFA0B0*%
%FSLAX25Y25*%
%IPPOS*%
%LPD*%
%AMOC8*
5,1,8,0,0,1.08239X$1,22.5*
%
%ADD10C,0.06000*%
%ADD11OC8,0.05200*%
%ADD12C,0.05937*%
%ADD13R,0.04600X0.06300*%
%ADD14C,0.07050*%
%ADD15R,0.06300X0.04600*%
%ADD16R,0.09843X0.09843*%
%ADD17C,0.01181*%
%ADD18C,0.02978*%
%ADD19C,0.04724*%
%ADD20C,0.03937*%
%ADD21C,0.03150*%
%ADD22C,0.01969*%
D10*
X0055355Y0077331D02*
X0055355Y0083331D01*
X0065355Y0083331D02*
X0065355Y0077331D01*
X0112206Y0076346D02*
X0112206Y0082346D01*
X0122206Y0082346D02*
X0122206Y0076346D01*
X0132206Y0076346D02*
X0132206Y0082346D01*
X0142206Y0082346D02*
X0142206Y0076346D01*
X0152206Y0076346D02*
X0152206Y0082346D01*
X0152206Y0248591D02*
X0152206Y0254591D01*
X0142206Y0254591D02*
X0142206Y0248591D01*
X0132206Y0248591D02*
X0132206Y0254591D01*
X0122206Y0254591D02*
X0122206Y0248591D01*
X0112206Y0248591D02*
X0112206Y0254591D01*
X0065355Y0255575D02*
X0065355Y0249575D01*
X0055355Y0249575D02*
X0055355Y0255575D01*
D11*
X0051182Y0241748D03*
X0051182Y0231906D03*
X0051182Y0222063D03*
X0091182Y0222063D03*
X0098426Y0222063D03*
X0098426Y0231413D03*
X0091182Y0231906D03*
X0091182Y0241748D03*
X0098426Y0241748D03*
X0138426Y0241748D03*
X0138426Y0231413D03*
X0138426Y0222063D03*
X0138426Y0069504D03*
X0138426Y0059169D03*
X0138426Y0049819D03*
X0098426Y0049819D03*
X0091182Y0049819D03*
X0091182Y0059661D03*
X0098426Y0059169D03*
X0098426Y0069504D03*
X0091182Y0069504D03*
X0051182Y0069504D03*
X0051182Y0059661D03*
X0051182Y0049819D03*
D12*
X0079056Y0079346D03*
X0088898Y0079346D03*
X0098741Y0079346D03*
X0098741Y0251591D03*
X0088898Y0251591D03*
X0079056Y0251591D03*
D13*
X0185261Y0232890D03*
X0191261Y0232890D03*
X0197261Y0232890D03*
X0197261Y0060646D03*
X0191261Y0060646D03*
X0185261Y0060646D03*
D14*
X0125316Y0027596D02*
X0125316Y0020546D01*
X0105631Y0020546D02*
X0105631Y0027596D01*
X0085946Y0027596D02*
X0085946Y0020546D01*
X0066261Y0020546D02*
X0066261Y0027596D01*
X0046576Y0027596D02*
X0046576Y0020546D01*
X0026891Y0020546D02*
X0026891Y0027596D01*
X0025255Y0055724D02*
X0032305Y0055724D01*
X0032305Y0075409D02*
X0025255Y0075409D01*
X0026891Y0192790D02*
X0026891Y0199840D01*
X0046576Y0199840D02*
X0046576Y0192790D01*
X0066261Y0192790D02*
X0066261Y0199840D01*
X0085946Y0199840D02*
X0085946Y0192790D01*
X0105631Y0192790D02*
X0105631Y0199840D01*
X0125316Y0199840D02*
X0125316Y0192790D01*
X0032305Y0227969D02*
X0025255Y0227969D01*
X0025255Y0247654D02*
X0032305Y0247654D01*
D15*
X0029187Y0260402D03*
X0029187Y0266402D03*
X0044607Y0266449D03*
X0044607Y0260449D03*
X0044607Y0254449D03*
X0074791Y0260402D03*
X0074791Y0266402D03*
X0097757Y0266402D03*
X0097757Y0260402D03*
X0166654Y0260402D03*
X0166654Y0266402D03*
X0166654Y0094157D03*
X0166654Y0088157D03*
X0097757Y0088157D03*
X0097757Y0094157D03*
X0074791Y0094157D03*
X0074791Y0088157D03*
X0044607Y0088205D03*
X0044607Y0094205D03*
X0044607Y0082205D03*
X0029187Y0088157D03*
X0029187Y0094157D03*
D16*
X0019757Y0100465D03*
X0019757Y0168465D03*
X0019757Y0272709D03*
X0019757Y0340709D03*
X0175757Y0340709D03*
X0175757Y0272709D03*
X0175757Y0168465D03*
X0175757Y0100465D03*
D17*
X0012780Y0076974D02*
X0012780Y0019711D01*
X0013383Y0019961D01*
X0016776Y0019961D01*
X0019910Y0018662D01*
X0022309Y0016264D01*
X0023607Y0013129D01*
X0023607Y0010118D01*
X0033480Y0010118D01*
X0027768Y0015830D01*
X0025953Y0015830D01*
X0024219Y0016548D01*
X0022893Y0017875D01*
X0022175Y0019608D01*
X0022175Y0028534D01*
X0022893Y0030267D01*
X0024219Y0031594D01*
X0025953Y0032311D01*
X0027829Y0032311D01*
X0029562Y0031594D01*
X0030888Y0030267D01*
X0031606Y0028534D01*
X0031606Y0022041D01*
X0038205Y0015443D01*
X0072293Y0015443D01*
X0081230Y0024380D01*
X0081230Y0028534D01*
X0081948Y0030267D01*
X0083275Y0031594D01*
X0085008Y0032311D01*
X0085856Y0032311D01*
X0085326Y0032841D01*
X0052454Y0065713D01*
X0049612Y0065713D01*
X0047391Y0067934D01*
X0047391Y0070773D01*
X0045964Y0069346D01*
X0051859Y0063452D01*
X0052752Y0063452D01*
X0054972Y0061232D01*
X0054972Y0058091D01*
X0052752Y0055871D01*
X0049612Y0055871D01*
X0047391Y0058091D01*
X0047391Y0058984D01*
X0040849Y0065527D01*
X0039960Y0066415D01*
X0039480Y0067576D01*
X0039480Y0078706D01*
X0039411Y0078541D01*
X0038523Y0077653D01*
X0037021Y0076151D01*
X0037021Y0074471D01*
X0036303Y0072738D01*
X0034976Y0071412D01*
X0033243Y0070694D01*
X0024317Y0070694D01*
X0022584Y0071412D01*
X0021258Y0072738D01*
X0020540Y0074471D01*
X0020540Y0076347D01*
X0021258Y0078081D01*
X0022584Y0079407D01*
X0024317Y0080125D01*
X0032060Y0080125D01*
X0033574Y0081639D01*
X0033574Y0084845D01*
X0033314Y0084585D01*
X0032951Y0084375D01*
X0032547Y0084267D01*
X0029747Y0084267D01*
X0029747Y0086267D01*
X0028628Y0086267D01*
X0028628Y0084267D01*
X0025828Y0084267D01*
X0025423Y0084375D01*
X0025061Y0084585D01*
X0024764Y0084881D01*
X0024555Y0085244D01*
X0024447Y0085648D01*
X0024447Y0086267D01*
X0023607Y0086267D01*
X0023607Y0083556D01*
X0022309Y0080421D01*
X0019910Y0078023D01*
X0016776Y0076724D01*
X0013383Y0076724D01*
X0012780Y0076974D01*
X0012780Y0076304D02*
X0020540Y0076304D01*
X0020540Y0075125D02*
X0012780Y0075125D01*
X0012780Y0073945D02*
X0020758Y0073945D01*
X0021246Y0072766D02*
X0012780Y0072766D01*
X0012780Y0071586D02*
X0022410Y0071586D01*
X0021011Y0077484D02*
X0018610Y0077484D01*
X0020551Y0078664D02*
X0021841Y0078664D01*
X0021731Y0079843D02*
X0023637Y0079843D01*
X0022558Y0081023D02*
X0032958Y0081023D01*
X0033574Y0082202D02*
X0023047Y0082202D01*
X0023535Y0083382D02*
X0033574Y0083382D01*
X0033574Y0084562D02*
X0033274Y0084562D01*
X0029747Y0084562D02*
X0028628Y0084562D01*
X0028628Y0085741D02*
X0029747Y0085741D01*
X0025100Y0084562D02*
X0023607Y0084562D01*
X0023607Y0085741D02*
X0024447Y0085741D01*
X0028628Y0096048D02*
X0028628Y0098048D01*
X0026268Y0098048D01*
X0026268Y0099874D01*
X0020347Y0099874D01*
X0020347Y0101055D01*
X0019166Y0101055D01*
X0019166Y0099874D01*
X0013245Y0099874D01*
X0013245Y0096048D01*
X0012780Y0096048D01*
X0012780Y0172881D01*
X0013645Y0172881D01*
X0013645Y0163050D01*
X0014342Y0162353D01*
X0025171Y0162353D01*
X0025868Y0163050D01*
X0025868Y0172881D01*
X0034342Y0172881D01*
X0034312Y0172863D01*
X0032358Y0170909D01*
X0030976Y0168516D01*
X0030261Y0165846D01*
X0030261Y0163083D01*
X0030976Y0160413D01*
X0032358Y0158020D01*
X0034312Y0156066D01*
X0036705Y0154684D01*
X0039375Y0153969D01*
X0042139Y0153969D01*
X0044808Y0154684D01*
X0047201Y0156066D01*
X0049156Y0158020D01*
X0050537Y0160413D01*
X0051253Y0163083D01*
X0051253Y0165846D01*
X0050537Y0168516D01*
X0049156Y0170909D01*
X0047201Y0172863D01*
X0047171Y0172881D01*
X0169645Y0172881D01*
X0169645Y0163050D01*
X0170342Y0162353D01*
X0181171Y0162353D01*
X0181868Y0163050D01*
X0181868Y0172881D01*
X0183387Y0172881D01*
X0183387Y0096048D01*
X0182268Y0096048D01*
X0182268Y0099874D01*
X0176347Y0099874D01*
X0176347Y0101055D01*
X0175166Y0101055D01*
X0175166Y0099874D01*
X0169245Y0099874D01*
X0169245Y0098048D01*
X0167214Y0098048D01*
X0167214Y0096048D01*
X0166095Y0096048D01*
X0166095Y0097959D01*
X0166156Y0098020D01*
X0167537Y0100413D01*
X0168253Y0103083D01*
X0168253Y0105846D01*
X0167537Y0108516D01*
X0166156Y0110909D01*
X0164201Y0112863D01*
X0161808Y0114245D01*
X0159139Y0114961D01*
X0156375Y0114961D01*
X0153705Y0114245D01*
X0151312Y0112863D01*
X0149358Y0110909D01*
X0147976Y0108516D01*
X0147261Y0105846D01*
X0147261Y0103083D01*
X0147976Y0100413D01*
X0149358Y0098020D01*
X0151312Y0096066D01*
X0151342Y0096048D01*
X0102497Y0096048D01*
X0102497Y0096667D01*
X0102389Y0097071D01*
X0102179Y0097434D01*
X0101883Y0097730D01*
X0101521Y0097940D01*
X0101116Y0098048D01*
X0098316Y0098048D01*
X0098316Y0096048D01*
X0097197Y0096048D01*
X0097197Y0098048D01*
X0094397Y0098048D01*
X0093993Y0097940D01*
X0093630Y0097730D01*
X0093334Y0097434D01*
X0093125Y0097071D01*
X0093016Y0096667D01*
X0093016Y0096048D01*
X0079531Y0096048D01*
X0079531Y0096667D01*
X0079423Y0097071D01*
X0079214Y0097434D01*
X0078917Y0097730D01*
X0078555Y0097940D01*
X0078150Y0098048D01*
X0075350Y0098048D01*
X0075350Y0096048D01*
X0074231Y0096048D01*
X0074231Y0098048D01*
X0071431Y0098048D01*
X0071027Y0097940D01*
X0070664Y0097730D01*
X0070368Y0097434D01*
X0070159Y0097071D01*
X0070050Y0096667D01*
X0070050Y0096048D01*
X0048948Y0096048D01*
X0048948Y0096998D01*
X0048250Y0097695D01*
X0047766Y0097695D01*
X0047766Y0130172D01*
X0047285Y0131333D01*
X0032617Y0146001D01*
X0031456Y0146482D01*
X0030199Y0146482D01*
X0029038Y0146001D01*
X0028149Y0145112D01*
X0027669Y0143951D01*
X0027669Y0142694D01*
X0028149Y0141533D01*
X0041448Y0128235D01*
X0041448Y0097695D01*
X0040964Y0097695D01*
X0040267Y0096998D01*
X0040267Y0096048D01*
X0033928Y0096048D01*
X0033928Y0096667D01*
X0033819Y0097071D01*
X0033610Y0097434D01*
X0033314Y0097730D01*
X0032951Y0097940D01*
X0032547Y0098048D01*
X0029747Y0098048D01*
X0029747Y0096048D01*
X0028628Y0096048D01*
X0028628Y0096358D02*
X0029747Y0096358D01*
X0029747Y0097537D02*
X0028628Y0097537D01*
X0026268Y0098717D02*
X0041448Y0098717D01*
X0041448Y0099897D02*
X0020347Y0099897D01*
X0020347Y0101055D02*
X0026268Y0101055D01*
X0026268Y0105595D01*
X0026160Y0106000D01*
X0025951Y0106362D01*
X0025655Y0106659D01*
X0025292Y0106868D01*
X0024887Y0106976D01*
X0020347Y0106976D01*
X0020347Y0101055D01*
X0020347Y0101076D02*
X0019166Y0101076D01*
X0019166Y0101055D02*
X0019166Y0106976D01*
X0014626Y0106976D01*
X0014221Y0106868D01*
X0013859Y0106659D01*
X0013563Y0106362D01*
X0013353Y0106000D01*
X0013245Y0105595D01*
X0013245Y0101055D01*
X0019166Y0101055D01*
X0019166Y0099897D02*
X0012780Y0099897D01*
X0012780Y0101076D02*
X0013245Y0101076D01*
X0013245Y0102256D02*
X0012780Y0102256D01*
X0012780Y0103435D02*
X0013245Y0103435D01*
X0013245Y0104615D02*
X0012780Y0104615D01*
X0012780Y0105795D02*
X0013298Y0105795D01*
X0012780Y0106974D02*
X0014618Y0106974D01*
X0012780Y0108154D02*
X0041448Y0108154D01*
X0041448Y0109334D02*
X0012780Y0109334D01*
X0012780Y0110513D02*
X0041448Y0110513D01*
X0041448Y0111693D02*
X0012780Y0111693D01*
X0012780Y0112872D02*
X0041448Y0112872D01*
X0041448Y0114052D02*
X0012780Y0114052D01*
X0012780Y0115232D02*
X0041448Y0115232D01*
X0041448Y0116411D02*
X0012780Y0116411D01*
X0012780Y0117591D02*
X0041448Y0117591D01*
X0041448Y0118770D02*
X0012780Y0118770D01*
X0012780Y0119950D02*
X0041448Y0119950D01*
X0041448Y0121130D02*
X0012780Y0121130D01*
X0012780Y0122309D02*
X0041448Y0122309D01*
X0041448Y0123489D02*
X0012780Y0123489D01*
X0012780Y0124669D02*
X0041448Y0124669D01*
X0041448Y0125848D02*
X0012780Y0125848D01*
X0012780Y0127028D02*
X0041448Y0127028D01*
X0041448Y0128207D02*
X0012780Y0128207D01*
X0012780Y0129387D02*
X0040296Y0129387D01*
X0039116Y0130567D02*
X0012780Y0130567D01*
X0012780Y0131746D02*
X0037937Y0131746D01*
X0036757Y0132926D02*
X0012780Y0132926D01*
X0012780Y0134105D02*
X0035577Y0134105D01*
X0034398Y0135285D02*
X0012780Y0135285D01*
X0012780Y0136465D02*
X0033218Y0136465D01*
X0032039Y0137644D02*
X0012780Y0137644D01*
X0012780Y0138824D02*
X0030859Y0138824D01*
X0029679Y0140004D02*
X0012780Y0140004D01*
X0012780Y0141183D02*
X0028500Y0141183D01*
X0027806Y0142363D02*
X0012780Y0142363D01*
X0012780Y0143542D02*
X0027669Y0143542D01*
X0027988Y0144722D02*
X0012780Y0144722D01*
X0012780Y0145902D02*
X0028939Y0145902D01*
X0032716Y0145902D02*
X0183387Y0145902D01*
X0183387Y0147081D02*
X0012780Y0147081D01*
X0012780Y0148261D02*
X0183387Y0148261D01*
X0183387Y0149440D02*
X0012780Y0149440D01*
X0012780Y0150620D02*
X0183387Y0150620D01*
X0183387Y0151800D02*
X0012780Y0151800D01*
X0012780Y0152979D02*
X0183387Y0152979D01*
X0183387Y0154159D02*
X0042849Y0154159D01*
X0045942Y0155338D02*
X0183387Y0155338D01*
X0183387Y0156518D02*
X0047654Y0156518D01*
X0048834Y0157698D02*
X0183387Y0157698D01*
X0183387Y0158877D02*
X0049651Y0158877D01*
X0050332Y0160057D02*
X0183387Y0160057D01*
X0183387Y0161237D02*
X0050758Y0161237D01*
X0051074Y0162416D02*
X0170279Y0162416D01*
X0169645Y0163596D02*
X0051253Y0163596D01*
X0051253Y0164775D02*
X0169645Y0164775D01*
X0169645Y0165955D02*
X0051224Y0165955D01*
X0050908Y0167135D02*
X0169645Y0167135D01*
X0169645Y0168314D02*
X0050591Y0168314D01*
X0049973Y0169494D02*
X0169645Y0169494D01*
X0169645Y0170673D02*
X0049292Y0170673D01*
X0048212Y0171853D02*
X0169645Y0171853D01*
X0181868Y0171853D02*
X0183387Y0171853D01*
X0183387Y0170673D02*
X0181868Y0170673D01*
X0181868Y0169494D02*
X0183387Y0169494D01*
X0183387Y0168314D02*
X0181868Y0168314D01*
X0181868Y0167135D02*
X0183387Y0167135D01*
X0183387Y0165955D02*
X0181868Y0165955D01*
X0181868Y0164775D02*
X0183387Y0164775D01*
X0183387Y0163596D02*
X0181868Y0163596D01*
X0181235Y0162416D02*
X0183387Y0162416D01*
X0183387Y0144722D02*
X0033896Y0144722D01*
X0035076Y0143542D02*
X0183387Y0143542D01*
X0183387Y0142363D02*
X0036255Y0142363D01*
X0037435Y0141183D02*
X0183387Y0141183D01*
X0183387Y0140004D02*
X0038614Y0140004D01*
X0039794Y0138824D02*
X0183387Y0138824D01*
X0183387Y0137644D02*
X0040974Y0137644D01*
X0042153Y0136465D02*
X0183387Y0136465D01*
X0183387Y0135285D02*
X0043333Y0135285D01*
X0044513Y0134105D02*
X0183387Y0134105D01*
X0183387Y0132926D02*
X0045692Y0132926D01*
X0046872Y0131746D02*
X0183387Y0131746D01*
X0183387Y0130567D02*
X0047603Y0130567D01*
X0047766Y0129387D02*
X0183387Y0129387D01*
X0183387Y0128207D02*
X0047766Y0128207D01*
X0047766Y0127028D02*
X0183387Y0127028D01*
X0183387Y0125848D02*
X0047766Y0125848D01*
X0047766Y0124669D02*
X0183387Y0124669D01*
X0183387Y0123489D02*
X0047766Y0123489D01*
X0047766Y0122309D02*
X0183387Y0122309D01*
X0183387Y0121130D02*
X0047766Y0121130D01*
X0047766Y0119950D02*
X0183387Y0119950D01*
X0183387Y0118770D02*
X0047766Y0118770D01*
X0047766Y0117591D02*
X0183387Y0117591D01*
X0183387Y0116411D02*
X0047766Y0116411D01*
X0047766Y0115232D02*
X0183387Y0115232D01*
X0183387Y0114052D02*
X0162143Y0114052D01*
X0164186Y0112872D02*
X0183387Y0112872D01*
X0183387Y0111693D02*
X0165372Y0111693D01*
X0166384Y0110513D02*
X0183387Y0110513D01*
X0183387Y0109334D02*
X0167065Y0109334D01*
X0167634Y0108154D02*
X0183387Y0108154D01*
X0183387Y0106974D02*
X0180895Y0106974D01*
X0180887Y0106976D02*
X0176347Y0106976D01*
X0176347Y0101055D01*
X0182268Y0101055D01*
X0182268Y0105595D01*
X0182160Y0106000D01*
X0181951Y0106362D01*
X0181655Y0106659D01*
X0181292Y0106868D01*
X0180887Y0106976D01*
X0182215Y0105795D02*
X0183387Y0105795D01*
X0183387Y0104615D02*
X0182268Y0104615D01*
X0182268Y0103435D02*
X0183387Y0103435D01*
X0183387Y0102256D02*
X0182268Y0102256D01*
X0182268Y0101076D02*
X0183387Y0101076D01*
X0183387Y0099897D02*
X0176347Y0099897D01*
X0176347Y0101076D02*
X0175166Y0101076D01*
X0175166Y0101055D02*
X0175166Y0106976D01*
X0170626Y0106976D01*
X0170221Y0106868D01*
X0169859Y0106659D01*
X0169563Y0106362D01*
X0169353Y0106000D01*
X0169245Y0105595D01*
X0169245Y0101055D01*
X0175166Y0101055D01*
X0175166Y0099897D02*
X0167239Y0099897D01*
X0167715Y0101076D02*
X0169245Y0101076D01*
X0169245Y0102256D02*
X0168031Y0102256D01*
X0168253Y0103435D02*
X0169245Y0103435D01*
X0169245Y0104615D02*
X0168253Y0104615D01*
X0168253Y0105795D02*
X0169298Y0105795D01*
X0170618Y0106974D02*
X0167951Y0106974D01*
X0175166Y0106974D02*
X0176347Y0106974D01*
X0176347Y0105795D02*
X0175166Y0105795D01*
X0175166Y0104615D02*
X0176347Y0104615D01*
X0176347Y0103435D02*
X0175166Y0103435D01*
X0175166Y0102256D02*
X0176347Y0102256D01*
X0182268Y0098717D02*
X0183387Y0098717D01*
X0183387Y0097537D02*
X0182268Y0097537D01*
X0182268Y0096358D02*
X0183387Y0096358D01*
X0171395Y0086267D02*
X0226694Y0086267D01*
X0226694Y0010118D01*
X0195417Y0010118D01*
X0208816Y0023517D01*
X0209510Y0023517D01*
X0210495Y0023925D01*
X0211249Y0024679D01*
X0211657Y0025664D01*
X0211657Y0026730D01*
X0211249Y0027715D01*
X0210495Y0028468D01*
X0209510Y0028876D01*
X0208444Y0028876D01*
X0207459Y0028468D01*
X0206706Y0027715D01*
X0206298Y0026730D01*
X0206298Y0026036D01*
X0192161Y0011899D01*
X0139806Y0011899D01*
X0139806Y0011966D01*
X0139398Y0012951D01*
X0138645Y0013705D01*
X0137660Y0014113D01*
X0136957Y0014113D01*
X0147013Y0024169D01*
X0148013Y0025169D01*
X0148554Y0026474D01*
X0148554Y0027565D01*
X0151613Y0027565D01*
X0152919Y0028106D01*
X0153918Y0029106D01*
X0154459Y0030411D01*
X0154459Y0031825D01*
X0153918Y0033131D01*
X0152919Y0034130D01*
X0152081Y0034477D01*
X0190304Y0034477D01*
X0198424Y0026358D01*
X0198424Y0025664D01*
X0198832Y0024679D01*
X0199585Y0023925D01*
X0200570Y0023517D01*
X0201636Y0023517D01*
X0202621Y0023925D01*
X0203375Y0024679D01*
X0203783Y0025664D01*
X0203783Y0026730D01*
X0203375Y0027715D01*
X0202621Y0028468D01*
X0201636Y0028876D01*
X0200942Y0028876D01*
X0192823Y0036996D01*
X0191779Y0038039D01*
X0137498Y0038039D01*
X0137006Y0038531D01*
X0133311Y0038531D01*
X0132818Y0038039D01*
X0088955Y0038039D01*
X0082805Y0044189D01*
X0082805Y0057653D01*
X0083296Y0058144D01*
X0083704Y0059128D01*
X0083704Y0060194D01*
X0083296Y0061179D01*
X0082658Y0061817D01*
X0087977Y0061817D01*
X0087391Y0061232D01*
X0087391Y0058091D01*
X0089612Y0055871D01*
X0092752Y0055871D01*
X0094635Y0057754D01*
X0094635Y0057599D01*
X0096856Y0055379D01*
X0099996Y0055379D01*
X0102217Y0057599D01*
X0102217Y0060739D01*
X0101139Y0061817D01*
X0123594Y0061817D01*
X0128023Y0057388D01*
X0134846Y0057388D01*
X0136856Y0055379D01*
X0139698Y0055379D01*
X0142609Y0052467D01*
X0149644Y0052467D01*
X0149546Y0052370D01*
X0149125Y0051353D01*
X0149125Y0050253D01*
X0149383Y0049631D01*
X0142217Y0049631D01*
X0142217Y0051389D01*
X0139996Y0053609D01*
X0136856Y0053609D01*
X0134635Y0051389D01*
X0134635Y0048249D01*
X0136206Y0046679D01*
X0115380Y0046679D01*
X0115188Y0047142D01*
X0114434Y0047896D01*
X0113450Y0048304D01*
X0112384Y0048304D01*
X0111399Y0047896D01*
X0110645Y0047142D01*
X0110237Y0046158D01*
X0110237Y0045092D01*
X0110514Y0044422D01*
X0110018Y0044216D01*
X0109265Y0043463D01*
X0108857Y0042478D01*
X0108857Y0041412D01*
X0109265Y0040427D01*
X0110018Y0039673D01*
X0111003Y0039265D01*
X0112069Y0039265D01*
X0113054Y0039673D01*
X0113545Y0040164D01*
X0215116Y0040164D01*
X0215333Y0039947D01*
X0216318Y0039539D01*
X0217384Y0039539D01*
X0218369Y0039947D01*
X0219123Y0040700D01*
X0219531Y0041685D01*
X0219531Y0042751D01*
X0219379Y0043117D01*
X0221733Y0043117D01*
X0222223Y0042626D01*
X0223208Y0042218D01*
X0224274Y0042218D01*
X0225259Y0042626D01*
X0226013Y0043380D01*
X0226420Y0044365D01*
X0226420Y0045431D01*
X0226013Y0046415D01*
X0225259Y0047169D01*
X0224274Y0047577D01*
X0223208Y0047577D01*
X0222223Y0047169D01*
X0221733Y0046679D01*
X0187770Y0046679D01*
X0188035Y0047317D01*
X0188035Y0048383D01*
X0187627Y0049368D01*
X0186873Y0050122D01*
X0185888Y0050530D01*
X0184822Y0050530D01*
X0183837Y0050122D01*
X0183347Y0049631D01*
X0176052Y0049631D01*
X0176309Y0050253D01*
X0176309Y0051353D01*
X0175888Y0052370D01*
X0175791Y0052467D01*
X0221733Y0052467D01*
X0222223Y0051976D01*
X0223208Y0051569D01*
X0224274Y0051569D01*
X0225259Y0051976D01*
X0226013Y0052730D01*
X0226420Y0053715D01*
X0226420Y0054781D01*
X0226013Y0055766D01*
X0225259Y0056520D01*
X0224274Y0056928D01*
X0223208Y0056928D01*
X0222223Y0056520D01*
X0221733Y0056029D01*
X0144085Y0056029D01*
X0142217Y0057898D01*
X0142217Y0060739D01*
X0140154Y0062802D01*
X0141802Y0062802D01*
X0142845Y0063845D01*
X0143770Y0064770D01*
X0182251Y0064770D01*
X0181770Y0064289D01*
X0181770Y0062427D01*
X0181458Y0062427D01*
X0180967Y0062917D01*
X0179983Y0063325D01*
X0178917Y0063325D01*
X0177932Y0062917D01*
X0177178Y0062163D01*
X0176770Y0061179D01*
X0176770Y0060113D01*
X0177178Y0059128D01*
X0177932Y0058374D01*
X0178917Y0057966D01*
X0179983Y0057966D01*
X0180967Y0058374D01*
X0181458Y0058865D01*
X0181770Y0058865D01*
X0181770Y0057003D01*
X0182467Y0056305D01*
X0188054Y0056305D01*
X0188261Y0056512D01*
X0188467Y0056305D01*
X0194054Y0056305D01*
X0194261Y0056512D01*
X0194467Y0056305D01*
X0200054Y0056305D01*
X0200751Y0057003D01*
X0200751Y0058865D01*
X0212668Y0058865D01*
X0216691Y0062887D01*
X0217384Y0062887D01*
X0218369Y0063295D01*
X0219123Y0064049D01*
X0219531Y0065034D01*
X0219531Y0066100D01*
X0219123Y0067085D01*
X0218369Y0067839D01*
X0217384Y0068246D01*
X0216318Y0068246D01*
X0215333Y0067839D01*
X0214580Y0067085D01*
X0214172Y0066100D01*
X0214172Y0065406D01*
X0211192Y0062427D01*
X0200751Y0062427D01*
X0200751Y0064289D01*
X0200054Y0064986D01*
X0194467Y0064986D01*
X0194261Y0064779D01*
X0194054Y0064986D01*
X0191407Y0064986D01*
X0189105Y0067289D01*
X0188061Y0068332D01*
X0142295Y0068332D01*
X0142217Y0068254D01*
X0142217Y0068707D01*
X0191150Y0068707D01*
X0191154Y0068697D01*
X0191908Y0067943D01*
X0192893Y0067535D01*
X0193959Y0067535D01*
X0194944Y0067943D01*
X0195698Y0068697D01*
X0196105Y0069682D01*
X0196105Y0070748D01*
X0195698Y0071733D01*
X0194944Y0072487D01*
X0193959Y0072894D01*
X0192893Y0072894D01*
X0191908Y0072487D01*
X0191691Y0072269D01*
X0153987Y0072269D01*
X0153987Y0072548D01*
X0154579Y0072794D01*
X0155758Y0073973D01*
X0156396Y0075513D01*
X0156396Y0083180D01*
X0155758Y0084720D01*
X0154579Y0085899D01*
X0153691Y0086267D01*
X0161914Y0086267D01*
X0161914Y0085648D01*
X0162022Y0085244D01*
X0162232Y0084881D01*
X0162528Y0084585D01*
X0162890Y0084375D01*
X0163295Y0084267D01*
X0166095Y0084267D01*
X0166095Y0086267D01*
X0167214Y0086267D01*
X0167214Y0084267D01*
X0170014Y0084267D01*
X0170418Y0084375D01*
X0170781Y0084585D01*
X0171077Y0084881D01*
X0171286Y0085244D01*
X0171395Y0085648D01*
X0171395Y0086267D01*
X0171395Y0085741D02*
X0226694Y0085741D01*
X0226694Y0084562D02*
X0170741Y0084562D01*
X0167214Y0084562D02*
X0166095Y0084562D01*
X0166095Y0085741D02*
X0167214Y0085741D01*
X0165219Y0082026D02*
X0164153Y0082026D01*
X0163168Y0081618D01*
X0162414Y0080864D01*
X0162006Y0079879D01*
X0162006Y0078813D01*
X0162414Y0077829D01*
X0163168Y0077075D01*
X0164153Y0076667D01*
X0165219Y0076667D01*
X0166204Y0077075D01*
X0166694Y0077565D01*
X0200365Y0077565D01*
X0206298Y0071633D01*
X0206298Y0070939D01*
X0206706Y0069955D01*
X0207459Y0069201D01*
X0208444Y0068793D01*
X0209510Y0068793D01*
X0210495Y0069201D01*
X0211249Y0069955D01*
X0211657Y0070939D01*
X0211657Y0072005D01*
X0211249Y0072990D01*
X0210495Y0073744D01*
X0209510Y0074152D01*
X0208816Y0074152D01*
X0201841Y0081128D01*
X0166694Y0081128D01*
X0166204Y0081618D01*
X0165219Y0082026D01*
X0164686Y0079346D02*
X0201103Y0079346D01*
X0208977Y0071472D01*
X0206518Y0070406D02*
X0196105Y0070406D01*
X0195917Y0069227D02*
X0201958Y0069227D01*
X0201784Y0069053D02*
X0201376Y0068068D01*
X0201376Y0067002D01*
X0201784Y0066018D01*
X0202538Y0065264D01*
X0203523Y0064856D01*
X0204589Y0064856D01*
X0205574Y0065264D01*
X0206327Y0066018D01*
X0206735Y0067002D01*
X0206735Y0068068D01*
X0206327Y0069053D01*
X0205574Y0069807D01*
X0204589Y0070215D01*
X0203523Y0070215D01*
X0202538Y0069807D01*
X0201784Y0069053D01*
X0201376Y0068047D02*
X0195048Y0068047D01*
X0193426Y0070215D02*
X0193153Y0070488D01*
X0152206Y0070488D01*
X0139410Y0070488D01*
X0138426Y0069504D01*
X0135702Y0066867D02*
X0135392Y0066867D01*
X0135896Y0066364D02*
X0131526Y0070734D01*
X0130483Y0071777D01*
X0108829Y0071777D01*
X0105443Y0075163D01*
X0104400Y0076206D01*
X0102048Y0076206D01*
X0102218Y0076376D01*
X0102640Y0076957D01*
X0102966Y0077596D01*
X0103188Y0078279D01*
X0103294Y0078953D01*
X0099135Y0078953D01*
X0099135Y0079740D01*
X0103294Y0079740D01*
X0103188Y0080414D01*
X0102966Y0081097D01*
X0102640Y0081736D01*
X0102218Y0082316D01*
X0101711Y0082824D01*
X0101130Y0083246D01*
X0100491Y0083571D01*
X0099809Y0083793D01*
X0099135Y0083900D01*
X0099135Y0079740D01*
X0098347Y0079740D01*
X0098347Y0078953D01*
X0094187Y0078953D01*
X0094294Y0078279D01*
X0094516Y0077596D01*
X0094842Y0076957D01*
X0095263Y0076376D01*
X0095434Y0076206D01*
X0094557Y0076206D01*
X0092819Y0077944D01*
X0093057Y0078519D01*
X0093057Y0080174D01*
X0092424Y0081702D01*
X0091254Y0082872D01*
X0089726Y0083505D01*
X0088071Y0083505D01*
X0086543Y0082872D01*
X0085373Y0081702D01*
X0084739Y0080174D01*
X0084739Y0078519D01*
X0085373Y0076991D01*
X0086543Y0075821D01*
X0088071Y0075187D01*
X0089726Y0075187D01*
X0090301Y0075426D01*
X0092432Y0073294D01*
X0089612Y0073294D01*
X0087391Y0071074D01*
X0087391Y0067934D01*
X0089612Y0065713D01*
X0092752Y0065713D01*
X0094804Y0067765D01*
X0096856Y0065713D01*
X0099141Y0065713D01*
X0099204Y0065650D01*
X0099475Y0065380D01*
X0079794Y0065380D01*
X0069291Y0075882D01*
X0069546Y0076497D01*
X0069546Y0084164D01*
X0068908Y0085704D01*
X0068345Y0086267D01*
X0070050Y0086267D01*
X0070050Y0085648D01*
X0070159Y0085244D01*
X0070368Y0084881D01*
X0070664Y0084585D01*
X0071027Y0084375D01*
X0071431Y0084267D01*
X0074231Y0084267D01*
X0074231Y0086267D01*
X0075350Y0086267D01*
X0075350Y0084267D01*
X0078150Y0084267D01*
X0078555Y0084375D01*
X0078917Y0084585D01*
X0079214Y0084881D01*
X0079423Y0085244D01*
X0079531Y0085648D01*
X0079531Y0086267D01*
X0093016Y0086267D01*
X0093016Y0085648D01*
X0093125Y0085244D01*
X0093334Y0084881D01*
X0093630Y0084585D01*
X0093993Y0084375D01*
X0094397Y0084267D01*
X0097197Y0084267D01*
X0097197Y0086267D01*
X0098316Y0086267D01*
X0098316Y0084267D01*
X0101116Y0084267D01*
X0101521Y0084375D01*
X0101883Y0084585D01*
X0102179Y0084881D01*
X0102389Y0085244D01*
X0102497Y0085648D01*
X0102497Y0086267D01*
X0110720Y0086267D01*
X0109832Y0085899D01*
X0108653Y0084720D01*
X0108015Y0083180D01*
X0108015Y0075513D01*
X0108653Y0073973D01*
X0109832Y0072794D01*
X0111372Y0072156D01*
X0113039Y0072156D01*
X0114579Y0072794D01*
X0115758Y0073973D01*
X0116396Y0075513D01*
X0116396Y0083180D01*
X0115758Y0084720D01*
X0114579Y0085899D01*
X0113691Y0086267D01*
X0120720Y0086267D01*
X0119832Y0085899D01*
X0118653Y0084720D01*
X0118015Y0083180D01*
X0118015Y0075513D01*
X0118653Y0073973D01*
X0119832Y0072794D01*
X0121372Y0072156D01*
X0123039Y0072156D01*
X0124579Y0072794D01*
X0125758Y0073973D01*
X0126396Y0075513D01*
X0126396Y0083180D01*
X0125758Y0084720D01*
X0124579Y0085899D01*
X0123691Y0086267D01*
X0130720Y0086267D01*
X0129832Y0085899D01*
X0128653Y0084720D01*
X0128015Y0083180D01*
X0128015Y0075513D01*
X0128653Y0073973D01*
X0129832Y0072794D01*
X0131372Y0072156D01*
X0133039Y0072156D01*
X0134579Y0072794D01*
X0135758Y0073973D01*
X0136396Y0075513D01*
X0136396Y0083180D01*
X0135758Y0084720D01*
X0134579Y0085899D01*
X0133691Y0086267D01*
X0139792Y0086267D01*
X0139215Y0085848D01*
X0138704Y0085337D01*
X0138279Y0084752D01*
X0137951Y0084109D01*
X0137728Y0083421D01*
X0137615Y0082708D01*
X0137615Y0079756D01*
X0141796Y0079756D01*
X0141796Y0078937D01*
X0137615Y0078937D01*
X0137615Y0075985D01*
X0137728Y0075271D01*
X0137951Y0074584D01*
X0138279Y0073940D01*
X0138704Y0073356D01*
X0138765Y0073294D01*
X0136856Y0073294D01*
X0134635Y0071074D01*
X0134635Y0067934D01*
X0136206Y0066364D01*
X0135896Y0066364D01*
X0135158Y0064583D02*
X0141064Y0064583D01*
X0143032Y0066551D01*
X0187324Y0066551D01*
X0191261Y0062614D01*
X0191261Y0060646D01*
X0190706Y0065688D02*
X0202114Y0065688D01*
X0201432Y0066867D02*
X0189526Y0066867D01*
X0189105Y0067289D02*
X0189105Y0067289D01*
X0188347Y0068047D02*
X0191804Y0068047D01*
X0192582Y0072766D02*
X0154511Y0072766D01*
X0155731Y0073945D02*
X0203986Y0073945D01*
X0205165Y0072766D02*
X0194270Y0072766D01*
X0195758Y0071586D02*
X0206298Y0071586D01*
X0206154Y0069227D02*
X0207433Y0069227D01*
X0206735Y0068047D02*
X0215837Y0068047D01*
X0214490Y0066867D02*
X0206680Y0066867D01*
X0205998Y0065688D02*
X0214172Y0065688D01*
X0213274Y0064508D02*
X0200532Y0064508D01*
X0200751Y0063329D02*
X0212094Y0063329D01*
X0211930Y0060646D02*
X0216851Y0065567D01*
X0217865Y0068047D02*
X0226694Y0068047D01*
X0226694Y0066867D02*
X0219213Y0066867D01*
X0219531Y0065688D02*
X0226694Y0065688D01*
X0226694Y0064508D02*
X0219313Y0064508D01*
X0218402Y0063329D02*
X0226694Y0063329D01*
X0226694Y0062149D02*
X0215952Y0062149D01*
X0214773Y0060969D02*
X0226694Y0060969D01*
X0226694Y0059790D02*
X0213593Y0059790D01*
X0211930Y0060646D02*
X0197261Y0060646D01*
X0200751Y0058610D02*
X0226694Y0058610D01*
X0226694Y0057431D02*
X0200751Y0057431D01*
X0210521Y0069227D02*
X0226694Y0069227D01*
X0226694Y0070406D02*
X0211436Y0070406D01*
X0211657Y0071586D02*
X0226694Y0071586D01*
X0226694Y0072766D02*
X0211342Y0072766D01*
X0210009Y0073945D02*
X0226694Y0073945D01*
X0226694Y0075125D02*
X0207844Y0075125D01*
X0206664Y0076304D02*
X0226694Y0076304D01*
X0226694Y0077484D02*
X0205484Y0077484D01*
X0204305Y0078664D02*
X0226694Y0078664D01*
X0226694Y0079843D02*
X0203125Y0079843D01*
X0201946Y0081023D02*
X0226694Y0081023D01*
X0226694Y0082202D02*
X0156396Y0082202D01*
X0156396Y0081023D02*
X0162573Y0081023D01*
X0162006Y0079843D02*
X0156396Y0079843D01*
X0156396Y0078664D02*
X0162068Y0078664D01*
X0162759Y0077484D02*
X0156396Y0077484D01*
X0156396Y0076304D02*
X0201626Y0076304D01*
X0202806Y0075125D02*
X0156235Y0075125D01*
X0152206Y0079346D02*
X0152206Y0070488D01*
X0150424Y0072269D02*
X0144315Y0072269D01*
X0144611Y0072420D01*
X0145196Y0072845D01*
X0145707Y0073356D01*
X0146132Y0073940D01*
X0146460Y0074584D01*
X0146683Y0075271D01*
X0146796Y0075985D01*
X0146796Y0078937D01*
X0142615Y0078937D01*
X0142615Y0079756D01*
X0146796Y0079756D01*
X0146796Y0082708D01*
X0146683Y0083421D01*
X0146460Y0084109D01*
X0146132Y0084752D01*
X0145707Y0085337D01*
X0145196Y0085848D01*
X0144619Y0086267D01*
X0150720Y0086267D01*
X0149832Y0085899D01*
X0148653Y0084720D01*
X0148015Y0083180D01*
X0148015Y0075513D01*
X0148653Y0073973D01*
X0149832Y0072794D01*
X0150424Y0072548D01*
X0150424Y0072269D01*
X0149900Y0072766D02*
X0145087Y0072766D01*
X0146134Y0073945D02*
X0148680Y0073945D01*
X0148176Y0075125D02*
X0146635Y0075125D01*
X0146796Y0076304D02*
X0148015Y0076304D01*
X0148015Y0077484D02*
X0146796Y0077484D01*
X0146796Y0078664D02*
X0148015Y0078664D01*
X0148015Y0079843D02*
X0146796Y0079843D01*
X0146796Y0081023D02*
X0148015Y0081023D01*
X0148015Y0082202D02*
X0146796Y0082202D01*
X0146689Y0083382D02*
X0148099Y0083382D01*
X0148587Y0084562D02*
X0146229Y0084562D01*
X0145303Y0085741D02*
X0149674Y0085741D01*
X0154737Y0085741D02*
X0161914Y0085741D01*
X0162568Y0084562D02*
X0155824Y0084562D01*
X0156312Y0083382D02*
X0226694Y0083382D01*
X0226694Y0056251D02*
X0225527Y0056251D01*
X0226300Y0055071D02*
X0226694Y0055071D01*
X0226694Y0053892D02*
X0226420Y0053892D01*
X0226694Y0052712D02*
X0225994Y0052712D01*
X0226694Y0051532D02*
X0176235Y0051532D01*
X0176309Y0050353D02*
X0184395Y0050353D01*
X0186316Y0050353D02*
X0226694Y0050353D01*
X0226694Y0049173D02*
X0187707Y0049173D01*
X0188035Y0047994D02*
X0226694Y0047994D01*
X0226694Y0046814D02*
X0225614Y0046814D01*
X0226336Y0045634D02*
X0226694Y0045634D01*
X0226694Y0044455D02*
X0226420Y0044455D01*
X0226694Y0043275D02*
X0225908Y0043275D01*
X0226694Y0042096D02*
X0219531Y0042096D01*
X0219212Y0040916D02*
X0226694Y0040916D01*
X0226694Y0039736D02*
X0217862Y0039736D01*
X0215841Y0039736D02*
X0113117Y0039736D01*
X0111536Y0041945D02*
X0216578Y0041945D01*
X0216851Y0042218D01*
X0221868Y0046814D02*
X0187826Y0046814D01*
X0185355Y0047850D02*
X0140394Y0047850D01*
X0138426Y0049819D01*
X0140893Y0052712D02*
X0142364Y0052712D01*
X0142073Y0051532D02*
X0149199Y0051532D01*
X0149125Y0050353D02*
X0142217Y0050353D01*
X0141185Y0053892D02*
X0082805Y0053892D01*
X0082805Y0055071D02*
X0140005Y0055071D01*
X0143347Y0054248D02*
X0138426Y0059169D01*
X0128761Y0059169D01*
X0124331Y0063598D01*
X0079056Y0063598D01*
X0065355Y0077299D01*
X0065355Y0080331D01*
X0061165Y0079843D02*
X0059946Y0079843D01*
X0059946Y0079921D02*
X0055765Y0079921D01*
X0055765Y0080740D01*
X0059946Y0080740D01*
X0059946Y0083692D01*
X0059833Y0084406D01*
X0059609Y0085093D01*
X0059281Y0085737D01*
X0058896Y0086267D01*
X0062365Y0086267D01*
X0061803Y0085704D01*
X0061165Y0084164D01*
X0061165Y0076497D01*
X0061803Y0074957D01*
X0062981Y0073778D01*
X0064522Y0073140D01*
X0066189Y0073140D01*
X0066759Y0073376D01*
X0077275Y0062861D01*
X0078318Y0061817D01*
X0079391Y0061817D01*
X0078753Y0061179D01*
X0078345Y0060194D01*
X0078345Y0059128D01*
X0078753Y0058144D01*
X0079243Y0057653D01*
X0079243Y0043961D01*
X0054972Y0068232D01*
X0054972Y0071074D01*
X0052752Y0073294D01*
X0049912Y0073294D01*
X0051222Y0074604D01*
X0051388Y0075005D01*
X0051429Y0074925D01*
X0051854Y0074340D01*
X0052365Y0073829D01*
X0052949Y0073405D01*
X0053593Y0073076D01*
X0054280Y0072853D01*
X0054946Y0072748D01*
X0054946Y0079921D01*
X0055765Y0079921D01*
X0055765Y0072748D01*
X0056430Y0072853D01*
X0057117Y0073076D01*
X0057761Y0073405D01*
X0058346Y0073829D01*
X0058857Y0074340D01*
X0059281Y0074925D01*
X0059609Y0075569D01*
X0059833Y0076256D01*
X0059946Y0076969D01*
X0059946Y0079921D01*
X0059946Y0081023D02*
X0061165Y0081023D01*
X0061165Y0082202D02*
X0059946Y0082202D01*
X0059946Y0083382D02*
X0061165Y0083382D01*
X0061329Y0084562D02*
X0059782Y0084562D01*
X0059278Y0085741D02*
X0061839Y0085741D01*
X0061165Y0078664D02*
X0059946Y0078664D01*
X0059946Y0077484D02*
X0061165Y0077484D01*
X0061244Y0076304D02*
X0059840Y0076304D01*
X0059383Y0075125D02*
X0061733Y0075125D01*
X0062814Y0073945D02*
X0058462Y0073945D01*
X0055765Y0073945D02*
X0054946Y0073945D01*
X0054946Y0072766D02*
X0055765Y0072766D01*
X0055877Y0072766D02*
X0067370Y0072766D01*
X0068550Y0071586D02*
X0054461Y0071586D01*
X0054834Y0072766D02*
X0053281Y0072766D01*
X0052249Y0073945D02*
X0050563Y0073945D01*
X0051182Y0069504D02*
X0087107Y0033579D01*
X0126940Y0033579D01*
X0135232Y0025286D01*
X0132698Y0024401D02*
X0125900Y0024401D01*
X0125900Y0024655D02*
X0130431Y0024655D01*
X0130431Y0027568D01*
X0132553Y0025447D01*
X0132553Y0024753D01*
X0132960Y0023769D01*
X0133714Y0023015D01*
X0134699Y0022607D01*
X0135402Y0022607D01*
X0128765Y0015970D01*
X0127603Y0015970D01*
X0127997Y0016171D01*
X0128648Y0016644D01*
X0129218Y0017213D01*
X0129691Y0017865D01*
X0130057Y0018582D01*
X0130305Y0019348D01*
X0130431Y0020143D01*
X0130431Y0023486D01*
X0125900Y0023486D01*
X0125900Y0024655D01*
X0124731Y0024655D02*
X0124731Y0023486D01*
X0120200Y0023486D01*
X0120200Y0020143D01*
X0120326Y0019348D01*
X0120575Y0018582D01*
X0120941Y0017865D01*
X0121414Y0017213D01*
X0121983Y0016644D01*
X0122635Y0016171D01*
X0123028Y0015970D01*
X0106906Y0015970D01*
X0108302Y0016548D01*
X0109628Y0017875D01*
X0110346Y0019608D01*
X0110346Y0028534D01*
X0109628Y0030267D01*
X0108302Y0031594D01*
X0107809Y0031798D01*
X0122396Y0031798D01*
X0121983Y0031498D01*
X0121414Y0030928D01*
X0120941Y0030277D01*
X0120575Y0029560D01*
X0120326Y0028794D01*
X0120200Y0027998D01*
X0120200Y0024655D01*
X0124731Y0024655D01*
X0124731Y0024401D02*
X0110346Y0024401D01*
X0110346Y0023222D02*
X0120200Y0023222D01*
X0120200Y0022042D02*
X0110346Y0022042D01*
X0110346Y0020863D02*
X0120200Y0020863D01*
X0120273Y0019683D02*
X0110346Y0019683D01*
X0109889Y0018503D02*
X0120615Y0018503D01*
X0121334Y0017324D02*
X0109077Y0017324D01*
X0107326Y0016144D02*
X0122687Y0016144D01*
X0127945Y0016144D02*
X0128939Y0016144D01*
X0129298Y0017324D02*
X0130119Y0017324D01*
X0130016Y0018503D02*
X0131299Y0018503D01*
X0130358Y0019683D02*
X0132478Y0019683D01*
X0133658Y0020863D02*
X0130431Y0020863D01*
X0130431Y0022042D02*
X0134838Y0022042D01*
X0133507Y0023222D02*
X0130431Y0023222D01*
X0130431Y0025581D02*
X0132419Y0025581D01*
X0131239Y0026761D02*
X0130431Y0026761D01*
X0133917Y0029120D02*
X0136077Y0029120D01*
X0136083Y0029106D02*
X0137083Y0028106D01*
X0138389Y0027565D01*
X0140361Y0027565D01*
X0137912Y0025116D01*
X0137912Y0025819D01*
X0137504Y0026804D01*
X0136750Y0027558D01*
X0135765Y0027966D01*
X0135071Y0027966D01*
X0128560Y0034477D01*
X0134294Y0034477D01*
X0134786Y0034969D01*
X0135530Y0034969D01*
X0136023Y0034477D01*
X0137921Y0034477D01*
X0137083Y0034130D01*
X0136083Y0033131D01*
X0135543Y0031825D01*
X0135543Y0030411D01*
X0136083Y0029106D01*
X0135827Y0027940D02*
X0137484Y0027940D01*
X0137522Y0026761D02*
X0139556Y0026761D01*
X0138376Y0025581D02*
X0137912Y0025581D01*
X0135589Y0030299D02*
X0132738Y0030299D01*
X0131558Y0031479D02*
X0135543Y0031479D01*
X0135888Y0032659D02*
X0130379Y0032659D01*
X0129199Y0033838D02*
X0136791Y0033838D01*
X0136760Y0036258D02*
X0191042Y0036258D01*
X0201103Y0026197D01*
X0199109Y0024401D02*
X0147245Y0024401D01*
X0148183Y0025581D02*
X0198458Y0025581D01*
X0198021Y0026761D02*
X0148554Y0026761D01*
X0152518Y0027940D02*
X0196841Y0027940D01*
X0195661Y0029120D02*
X0153924Y0029120D01*
X0154413Y0030299D02*
X0194482Y0030299D01*
X0193302Y0031479D02*
X0154459Y0031479D01*
X0154114Y0032659D02*
X0192122Y0032659D01*
X0190943Y0033838D02*
X0153210Y0033838D01*
X0146066Y0023222D02*
X0203483Y0023222D01*
X0203097Y0024401D02*
X0204663Y0024401D01*
X0203748Y0025581D02*
X0205842Y0025581D01*
X0206310Y0026761D02*
X0203770Y0026761D01*
X0203149Y0027940D02*
X0206931Y0027940D01*
X0208977Y0026197D02*
X0192898Y0010118D01*
X0138442Y0010118D01*
X0137127Y0011433D01*
X0139542Y0012605D02*
X0192867Y0012605D01*
X0194046Y0013785D02*
X0138451Y0013785D01*
X0137808Y0014964D02*
X0195226Y0014964D01*
X0196406Y0016144D02*
X0138988Y0016144D01*
X0140168Y0017324D02*
X0197585Y0017324D01*
X0198765Y0018503D02*
X0141347Y0018503D01*
X0142527Y0019683D02*
X0199944Y0019683D01*
X0201124Y0020863D02*
X0143707Y0020863D01*
X0144886Y0022042D02*
X0202304Y0022042D01*
X0204982Y0019683D02*
X0226694Y0019683D01*
X0226694Y0020863D02*
X0206162Y0020863D01*
X0207341Y0022042D02*
X0226694Y0022042D01*
X0226694Y0023222D02*
X0208521Y0023222D01*
X0210971Y0024401D02*
X0226694Y0024401D01*
X0226694Y0025581D02*
X0211622Y0025581D01*
X0211644Y0026761D02*
X0226694Y0026761D01*
X0226694Y0027940D02*
X0211023Y0027940D01*
X0203802Y0018503D02*
X0226694Y0018503D01*
X0226694Y0017324D02*
X0202623Y0017324D01*
X0201443Y0016144D02*
X0226694Y0016144D01*
X0226694Y0014964D02*
X0200264Y0014964D01*
X0199084Y0013785D02*
X0226694Y0013785D01*
X0226694Y0012605D02*
X0197904Y0012605D01*
X0196725Y0011426D02*
X0226694Y0011426D01*
X0226694Y0010246D02*
X0195545Y0010246D01*
X0200699Y0029120D02*
X0226694Y0029120D01*
X0226694Y0030299D02*
X0199519Y0030299D01*
X0198340Y0031479D02*
X0226694Y0031479D01*
X0226694Y0032659D02*
X0197160Y0032659D01*
X0195981Y0033838D02*
X0226694Y0033838D01*
X0226694Y0035018D02*
X0194801Y0035018D01*
X0193621Y0036198D02*
X0226694Y0036198D01*
X0226694Y0037377D02*
X0192442Y0037377D01*
X0181770Y0057431D02*
X0142684Y0057431D01*
X0142217Y0058610D02*
X0177696Y0058610D01*
X0176904Y0059790D02*
X0142217Y0059790D01*
X0141987Y0060969D02*
X0176770Y0060969D01*
X0177172Y0062149D02*
X0140807Y0062149D01*
X0142329Y0063329D02*
X0181770Y0063329D01*
X0181990Y0064508D02*
X0143508Y0064508D01*
X0143863Y0056251D02*
X0221954Y0056251D01*
X0223741Y0054248D02*
X0143347Y0054248D01*
X0135959Y0052712D02*
X0100893Y0052712D01*
X0099996Y0053609D02*
X0096856Y0053609D01*
X0094804Y0051557D01*
X0092752Y0053609D01*
X0089612Y0053609D01*
X0087391Y0051389D01*
X0087391Y0048249D01*
X0089612Y0046028D01*
X0092752Y0046028D01*
X0094804Y0048080D01*
X0096856Y0046028D01*
X0099996Y0046028D01*
X0102217Y0048249D01*
X0102217Y0051389D01*
X0099996Y0053609D01*
X0100868Y0056251D02*
X0135984Y0056251D01*
X0134846Y0060950D02*
X0136698Y0062802D01*
X0134421Y0062802D01*
X0130948Y0066274D01*
X0130948Y0066018D01*
X0130540Y0065033D01*
X0129786Y0064280D01*
X0128801Y0063872D01*
X0127736Y0063872D01*
X0126751Y0064280D01*
X0126654Y0064376D01*
X0126072Y0064376D01*
X0126113Y0064336D01*
X0129498Y0060950D01*
X0134846Y0060950D01*
X0134865Y0060969D02*
X0129479Y0060969D01*
X0128300Y0062149D02*
X0136045Y0062149D01*
X0133893Y0063329D02*
X0127120Y0063329D01*
X0130015Y0064508D02*
X0132714Y0064508D01*
X0131534Y0065688D02*
X0130811Y0065688D01*
X0134213Y0068047D02*
X0134635Y0068047D01*
X0134635Y0069227D02*
X0133033Y0069227D01*
X0131853Y0070406D02*
X0134635Y0070406D01*
X0135147Y0071586D02*
X0130674Y0071586D01*
X0129900Y0072766D02*
X0124511Y0072766D01*
X0125731Y0073945D02*
X0128680Y0073945D01*
X0128176Y0075125D02*
X0126235Y0075125D01*
X0126396Y0076304D02*
X0128015Y0076304D01*
X0128015Y0077484D02*
X0126396Y0077484D01*
X0126396Y0078664D02*
X0128015Y0078664D01*
X0128015Y0079843D02*
X0126396Y0079843D01*
X0126396Y0081023D02*
X0128015Y0081023D01*
X0128015Y0082202D02*
X0126396Y0082202D01*
X0126312Y0083382D02*
X0128099Y0083382D01*
X0128587Y0084562D02*
X0125824Y0084562D01*
X0124737Y0085741D02*
X0129674Y0085741D01*
X0134737Y0085741D02*
X0139108Y0085741D01*
X0138182Y0084562D02*
X0135824Y0084562D01*
X0136312Y0083382D02*
X0137722Y0083382D01*
X0137615Y0082202D02*
X0136396Y0082202D01*
X0136396Y0081023D02*
X0137615Y0081023D01*
X0137615Y0079843D02*
X0136396Y0079843D01*
X0136396Y0078664D02*
X0137615Y0078664D01*
X0137615Y0077484D02*
X0136396Y0077484D01*
X0136396Y0076304D02*
X0137615Y0076304D01*
X0137776Y0075125D02*
X0136235Y0075125D01*
X0135731Y0073945D02*
X0138277Y0073945D01*
X0136327Y0072766D02*
X0134511Y0072766D01*
X0129745Y0069996D02*
X0108091Y0069996D01*
X0103662Y0074425D01*
X0093820Y0074425D01*
X0088898Y0079346D01*
X0085091Y0081023D02*
X0082863Y0081023D01*
X0082582Y0081702D02*
X0081412Y0082872D01*
X0079883Y0083505D01*
X0078229Y0083505D01*
X0076700Y0082872D01*
X0075530Y0081702D01*
X0074897Y0080174D01*
X0074897Y0078519D01*
X0075530Y0076991D01*
X0076700Y0075821D01*
X0078229Y0075187D01*
X0079883Y0075187D01*
X0081412Y0075821D01*
X0082582Y0076991D01*
X0083215Y0078519D01*
X0083215Y0080174D01*
X0082582Y0081702D01*
X0082082Y0082202D02*
X0085873Y0082202D01*
X0087773Y0083382D02*
X0080181Y0083382D01*
X0078877Y0084562D02*
X0093670Y0084562D01*
X0093016Y0085741D02*
X0079531Y0085741D01*
X0077931Y0083382D02*
X0069546Y0083382D01*
X0069546Y0082202D02*
X0076030Y0082202D01*
X0075249Y0081023D02*
X0069546Y0081023D01*
X0069546Y0079843D02*
X0074897Y0079843D01*
X0074897Y0078664D02*
X0069546Y0078664D01*
X0069546Y0077484D02*
X0075326Y0077484D01*
X0076216Y0076304D02*
X0069466Y0076304D01*
X0070048Y0075125D02*
X0090601Y0075125D01*
X0091781Y0073945D02*
X0071228Y0073945D01*
X0072408Y0072766D02*
X0089083Y0072766D01*
X0087903Y0071586D02*
X0073587Y0071586D01*
X0074767Y0070406D02*
X0087391Y0070406D01*
X0087391Y0069227D02*
X0075946Y0069227D01*
X0077126Y0068047D02*
X0087391Y0068047D01*
X0088458Y0066867D02*
X0078306Y0066867D01*
X0079485Y0065688D02*
X0099166Y0065688D01*
X0095702Y0066867D02*
X0093906Y0066867D01*
X0087391Y0060969D02*
X0083383Y0060969D01*
X0083704Y0059790D02*
X0087391Y0059790D01*
X0087391Y0058610D02*
X0083489Y0058610D01*
X0082805Y0057431D02*
X0088052Y0057431D01*
X0089232Y0056251D02*
X0082805Y0056251D01*
X0082805Y0052712D02*
X0088714Y0052712D01*
X0087535Y0051532D02*
X0082805Y0051532D01*
X0082805Y0050353D02*
X0087391Y0050353D01*
X0087391Y0049173D02*
X0082805Y0049173D01*
X0082805Y0047994D02*
X0087646Y0047994D01*
X0088826Y0046814D02*
X0082805Y0046814D01*
X0082805Y0045634D02*
X0110237Y0045634D01*
X0110501Y0044455D02*
X0082805Y0044455D01*
X0083719Y0043275D02*
X0109187Y0043275D01*
X0108857Y0042096D02*
X0084899Y0042096D01*
X0086078Y0040916D02*
X0109062Y0040916D01*
X0109955Y0039736D02*
X0087258Y0039736D01*
X0088437Y0038557D02*
X0226694Y0038557D01*
X0223741Y0044898D02*
X0112917Y0044898D01*
X0112917Y0045625D01*
X0115324Y0046814D02*
X0136070Y0046814D01*
X0134891Y0047994D02*
X0114199Y0047994D01*
X0111634Y0047994D02*
X0101961Y0047994D01*
X0102217Y0049173D02*
X0134635Y0049173D01*
X0134635Y0050353D02*
X0102217Y0050353D01*
X0102073Y0051532D02*
X0134779Y0051532D01*
X0127980Y0057431D02*
X0102048Y0057431D01*
X0102217Y0058610D02*
X0126801Y0058610D01*
X0125621Y0059790D02*
X0102217Y0059790D01*
X0101987Y0060969D02*
X0124442Y0060969D01*
X0129745Y0069996D02*
X0135158Y0064583D01*
X0119900Y0072766D02*
X0114511Y0072766D01*
X0115731Y0073945D02*
X0118680Y0073945D01*
X0118176Y0075125D02*
X0116235Y0075125D01*
X0116396Y0076304D02*
X0118015Y0076304D01*
X0118015Y0077484D02*
X0116396Y0077484D01*
X0116396Y0078664D02*
X0118015Y0078664D01*
X0118015Y0079843D02*
X0116396Y0079843D01*
X0116396Y0081023D02*
X0118015Y0081023D01*
X0118015Y0082202D02*
X0116396Y0082202D01*
X0116312Y0083382D02*
X0118099Y0083382D01*
X0118587Y0084562D02*
X0115824Y0084562D01*
X0114737Y0085741D02*
X0119674Y0085741D01*
X0109900Y0072766D02*
X0107841Y0072766D01*
X0108680Y0073945D02*
X0106661Y0073945D01*
X0105481Y0075125D02*
X0108176Y0075125D01*
X0108015Y0076304D02*
X0102146Y0076304D01*
X0102909Y0077484D02*
X0108015Y0077484D01*
X0108015Y0078664D02*
X0103249Y0078664D01*
X0103278Y0079843D02*
X0108015Y0079843D01*
X0108015Y0081023D02*
X0102990Y0081023D01*
X0102301Y0082202D02*
X0108015Y0082202D01*
X0108099Y0083382D02*
X0100863Y0083382D01*
X0101843Y0084562D02*
X0108587Y0084562D01*
X0109674Y0085741D02*
X0102497Y0085741D01*
X0099135Y0083382D02*
X0098347Y0083382D01*
X0098347Y0083900D02*
X0097673Y0083793D01*
X0096991Y0083571D01*
X0096351Y0083246D01*
X0095771Y0082824D01*
X0095263Y0082316D01*
X0094842Y0081736D01*
X0094516Y0081097D01*
X0094294Y0080414D01*
X0094187Y0079740D01*
X0098347Y0079740D01*
X0098347Y0083900D01*
X0098316Y0084562D02*
X0097197Y0084562D01*
X0097197Y0085741D02*
X0098316Y0085741D01*
X0096619Y0083382D02*
X0090024Y0083382D01*
X0091924Y0082202D02*
X0095181Y0082202D01*
X0094492Y0081023D02*
X0092706Y0081023D01*
X0093057Y0079843D02*
X0094204Y0079843D01*
X0094233Y0078664D02*
X0093057Y0078664D01*
X0093280Y0077484D02*
X0094573Y0077484D01*
X0094459Y0076304D02*
X0095336Y0076304D01*
X0098347Y0079843D02*
X0099135Y0079843D01*
X0099135Y0081023D02*
X0098347Y0081023D01*
X0098347Y0082202D02*
X0099135Y0082202D01*
X0098316Y0096358D02*
X0097197Y0096358D01*
X0097197Y0097537D02*
X0098316Y0097537D01*
X0093437Y0097537D02*
X0079110Y0097537D01*
X0079531Y0096358D02*
X0093016Y0096358D01*
X0102076Y0097537D02*
X0149840Y0097537D01*
X0148955Y0098717D02*
X0047766Y0098717D01*
X0047766Y0099897D02*
X0148274Y0099897D01*
X0147798Y0101076D02*
X0047766Y0101076D01*
X0047766Y0102256D02*
X0147482Y0102256D01*
X0147261Y0103435D02*
X0047766Y0103435D01*
X0047766Y0104615D02*
X0147261Y0104615D01*
X0147261Y0105795D02*
X0047766Y0105795D01*
X0047766Y0106974D02*
X0147563Y0106974D01*
X0147879Y0108154D02*
X0047766Y0108154D01*
X0047766Y0109334D02*
X0148448Y0109334D01*
X0149129Y0110513D02*
X0047766Y0110513D01*
X0047766Y0111693D02*
X0150141Y0111693D01*
X0151327Y0112872D02*
X0047766Y0112872D01*
X0047766Y0114052D02*
X0153371Y0114052D01*
X0151020Y0096358D02*
X0102497Y0096358D01*
X0085168Y0077484D02*
X0082786Y0077484D01*
X0083215Y0078664D02*
X0084739Y0078664D01*
X0084739Y0079843D02*
X0083215Y0079843D01*
X0081896Y0076304D02*
X0086059Y0076304D01*
X0075350Y0084562D02*
X0074231Y0084562D01*
X0074231Y0085741D02*
X0075350Y0085741D01*
X0070704Y0084562D02*
X0069381Y0084562D01*
X0068871Y0085741D02*
X0070050Y0085741D01*
X0070050Y0096358D02*
X0048948Y0096358D01*
X0048408Y0097537D02*
X0070471Y0097537D01*
X0074231Y0097537D02*
X0075350Y0097537D01*
X0075350Y0096358D02*
X0074231Y0096358D01*
X0055765Y0079843D02*
X0054946Y0079843D01*
X0054946Y0079921D02*
X0051279Y0079921D01*
X0051222Y0080057D01*
X0050334Y0080946D01*
X0048948Y0082332D01*
X0048948Y0084998D01*
X0048741Y0085205D01*
X0048948Y0085412D01*
X0048948Y0086267D01*
X0051814Y0086267D01*
X0051429Y0085737D01*
X0051101Y0085093D01*
X0050878Y0084406D01*
X0050765Y0083692D01*
X0050765Y0080740D01*
X0054946Y0080740D01*
X0054946Y0079921D01*
X0054946Y0078664D02*
X0055765Y0078664D01*
X0055765Y0077484D02*
X0054946Y0077484D01*
X0054946Y0076304D02*
X0055765Y0076304D01*
X0055765Y0075125D02*
X0054946Y0075125D01*
X0054972Y0070406D02*
X0069729Y0070406D01*
X0070909Y0069227D02*
X0054972Y0069227D01*
X0055158Y0068047D02*
X0072088Y0068047D01*
X0073268Y0066867D02*
X0056337Y0066867D01*
X0057517Y0065688D02*
X0074448Y0065688D01*
X0075627Y0064508D02*
X0058696Y0064508D01*
X0059876Y0063329D02*
X0076807Y0063329D01*
X0077986Y0062149D02*
X0061056Y0062149D01*
X0062235Y0060969D02*
X0078666Y0060969D01*
X0078345Y0059790D02*
X0063415Y0059790D01*
X0064594Y0058610D02*
X0078560Y0058610D01*
X0079243Y0057431D02*
X0065774Y0057431D01*
X0066954Y0056251D02*
X0079243Y0056251D01*
X0079243Y0055071D02*
X0068133Y0055071D01*
X0069313Y0053892D02*
X0079243Y0053892D01*
X0079243Y0052712D02*
X0070493Y0052712D01*
X0071672Y0051532D02*
X0079243Y0051532D01*
X0079243Y0050353D02*
X0072852Y0050353D01*
X0074031Y0049173D02*
X0079243Y0049173D01*
X0079243Y0047994D02*
X0075211Y0047994D01*
X0076391Y0046814D02*
X0079243Y0046814D01*
X0079243Y0045634D02*
X0077570Y0045634D01*
X0078750Y0044455D02*
X0079243Y0044455D01*
X0081024Y0043451D02*
X0081024Y0059661D01*
X0071353Y0046814D02*
X0053538Y0046814D01*
X0052752Y0046028D02*
X0049612Y0046028D01*
X0047391Y0048249D01*
X0047391Y0051389D01*
X0049612Y0053609D01*
X0052752Y0053609D01*
X0054972Y0051389D01*
X0054972Y0048249D01*
X0052752Y0046028D01*
X0054717Y0047994D02*
X0070173Y0047994D01*
X0068994Y0049173D02*
X0054972Y0049173D01*
X0054972Y0050353D02*
X0067814Y0050353D01*
X0066634Y0051532D02*
X0054829Y0051532D01*
X0053649Y0052712D02*
X0065455Y0052712D01*
X0064275Y0053892D02*
X0037089Y0053892D01*
X0037046Y0053761D02*
X0037295Y0054527D01*
X0037392Y0055140D01*
X0029365Y0055140D01*
X0029365Y0056309D01*
X0037392Y0056309D01*
X0037295Y0056922D01*
X0037046Y0057688D01*
X0036681Y0058406D01*
X0036207Y0059057D01*
X0035638Y0059626D01*
X0034986Y0060100D01*
X0034269Y0060465D01*
X0033503Y0060714D01*
X0032708Y0060840D01*
X0029365Y0060840D01*
X0029365Y0056309D01*
X0028196Y0056309D01*
X0028196Y0060840D01*
X0024853Y0060840D01*
X0024057Y0060714D01*
X0023292Y0060465D01*
X0022574Y0060100D01*
X0021923Y0059626D01*
X0021353Y0059057D01*
X0020880Y0058406D01*
X0020515Y0057688D01*
X0020266Y0056922D01*
X0020169Y0056309D01*
X0028196Y0056309D01*
X0028196Y0055140D01*
X0029365Y0055140D01*
X0029365Y0050609D01*
X0032708Y0050609D01*
X0033503Y0050735D01*
X0034269Y0050984D01*
X0034986Y0051349D01*
X0035638Y0051822D01*
X0036207Y0052392D01*
X0036681Y0053043D01*
X0037046Y0053761D01*
X0036440Y0052712D02*
X0048714Y0052712D01*
X0047535Y0051532D02*
X0035239Y0051532D01*
X0037381Y0055071D02*
X0063096Y0055071D01*
X0061916Y0056251D02*
X0053132Y0056251D01*
X0054312Y0057431D02*
X0060736Y0057431D01*
X0059557Y0058610D02*
X0054972Y0058610D01*
X0054972Y0059790D02*
X0058377Y0059790D01*
X0057198Y0060969D02*
X0054972Y0060969D01*
X0054055Y0062149D02*
X0056018Y0062149D01*
X0054838Y0063329D02*
X0052875Y0063329D01*
X0053659Y0064508D02*
X0050803Y0064508D01*
X0049623Y0065688D02*
X0052479Y0065688D01*
X0048458Y0066867D02*
X0048443Y0066867D01*
X0047391Y0068047D02*
X0047264Y0068047D01*
X0047391Y0069227D02*
X0046084Y0069227D01*
X0047024Y0070406D02*
X0047391Y0070406D01*
X0041867Y0064508D02*
X0012780Y0064508D01*
X0012780Y0063329D02*
X0043047Y0063329D01*
X0044227Y0062149D02*
X0012780Y0062149D01*
X0012780Y0060969D02*
X0045406Y0060969D01*
X0046586Y0059790D02*
X0035413Y0059790D01*
X0036532Y0058610D02*
X0047391Y0058610D01*
X0048052Y0057431D02*
X0037130Y0057431D01*
X0029365Y0057431D02*
X0028196Y0057431D01*
X0028196Y0058610D02*
X0029365Y0058610D01*
X0029365Y0059790D02*
X0028196Y0059790D01*
X0028196Y0056251D02*
X0012780Y0056251D01*
X0012780Y0057431D02*
X0020431Y0057431D01*
X0021029Y0058610D02*
X0012780Y0058610D01*
X0012780Y0059790D02*
X0022148Y0059790D01*
X0020169Y0055140D02*
X0020266Y0054527D01*
X0020515Y0053761D01*
X0020880Y0053043D01*
X0021353Y0052392D01*
X0021923Y0051822D01*
X0022574Y0051349D01*
X0023292Y0050984D01*
X0024057Y0050735D01*
X0024853Y0050609D01*
X0028196Y0050609D01*
X0028196Y0055140D01*
X0020169Y0055140D01*
X0020179Y0055071D02*
X0012780Y0055071D01*
X0012780Y0053892D02*
X0020472Y0053892D01*
X0021121Y0052712D02*
X0012780Y0052712D01*
X0012780Y0051532D02*
X0022322Y0051532D01*
X0028196Y0051532D02*
X0029365Y0051532D01*
X0029365Y0052712D02*
X0028196Y0052712D01*
X0028196Y0053892D02*
X0029365Y0053892D01*
X0029365Y0055071D02*
X0028196Y0055071D01*
X0029365Y0056251D02*
X0049232Y0056251D01*
X0047391Y0050353D02*
X0012780Y0050353D01*
X0012780Y0049173D02*
X0047391Y0049173D01*
X0047646Y0047994D02*
X0012780Y0047994D01*
X0012780Y0046814D02*
X0048826Y0046814D01*
X0047514Y0032311D02*
X0045638Y0032311D01*
X0043904Y0031594D01*
X0042578Y0030267D01*
X0041860Y0028534D01*
X0041860Y0019608D01*
X0042578Y0017875D01*
X0043904Y0016548D01*
X0045638Y0015830D01*
X0047514Y0015830D01*
X0049247Y0016548D01*
X0050573Y0017875D01*
X0051291Y0019608D01*
X0051291Y0028534D01*
X0050573Y0030267D01*
X0049247Y0031594D01*
X0047514Y0032311D01*
X0049361Y0031479D02*
X0062909Y0031479D01*
X0062928Y0031498D02*
X0062359Y0030928D01*
X0061885Y0030277D01*
X0061520Y0029560D01*
X0061271Y0028794D01*
X0061145Y0027998D01*
X0061145Y0024655D01*
X0065676Y0024655D01*
X0065676Y0023486D01*
X0066845Y0023486D01*
X0066845Y0015459D01*
X0067459Y0015556D01*
X0068224Y0015805D01*
X0068942Y0016171D01*
X0069593Y0016644D01*
X0070163Y0017213D01*
X0070636Y0017865D01*
X0071001Y0018582D01*
X0071250Y0019348D01*
X0071376Y0020143D01*
X0071376Y0023486D01*
X0066845Y0023486D01*
X0066845Y0024655D01*
X0071376Y0024655D01*
X0071376Y0027998D01*
X0071250Y0028794D01*
X0071001Y0029560D01*
X0070636Y0030277D01*
X0070163Y0030928D01*
X0069593Y0031498D01*
X0068942Y0031971D01*
X0068224Y0032337D01*
X0067459Y0032585D01*
X0066845Y0032683D01*
X0066845Y0024655D01*
X0065676Y0024655D01*
X0065676Y0032683D01*
X0065063Y0032585D01*
X0064297Y0032337D01*
X0063579Y0031971D01*
X0062928Y0031498D01*
X0061902Y0030299D02*
X0050541Y0030299D01*
X0051048Y0029120D02*
X0061377Y0029120D01*
X0061145Y0027940D02*
X0051291Y0027940D01*
X0051291Y0026761D02*
X0061145Y0026761D01*
X0061145Y0025581D02*
X0051291Y0025581D01*
X0051291Y0024401D02*
X0065676Y0024401D01*
X0065676Y0023486D02*
X0061145Y0023486D01*
X0061145Y0020143D01*
X0061271Y0019348D01*
X0061520Y0018582D01*
X0061885Y0017865D01*
X0062359Y0017213D01*
X0062928Y0016644D01*
X0063579Y0016171D01*
X0064297Y0015805D01*
X0065063Y0015556D01*
X0065676Y0015459D01*
X0065676Y0023486D01*
X0065676Y0023222D02*
X0066845Y0023222D01*
X0066845Y0024401D02*
X0081230Y0024401D01*
X0081230Y0025581D02*
X0071376Y0025581D01*
X0071376Y0026761D02*
X0081230Y0026761D01*
X0081230Y0027940D02*
X0071376Y0027940D01*
X0071144Y0029120D02*
X0081473Y0029120D01*
X0081980Y0030299D02*
X0070620Y0030299D01*
X0069612Y0031479D02*
X0083160Y0031479D01*
X0085508Y0032659D02*
X0066996Y0032659D01*
X0066845Y0032659D02*
X0065676Y0032659D01*
X0065525Y0032659D02*
X0012780Y0032659D01*
X0012780Y0033838D02*
X0084329Y0033838D01*
X0083149Y0035018D02*
X0012780Y0035018D01*
X0012780Y0036198D02*
X0081969Y0036198D01*
X0080790Y0037377D02*
X0012780Y0037377D01*
X0012780Y0038557D02*
X0079610Y0038557D01*
X0078431Y0039736D02*
X0012780Y0039736D01*
X0012780Y0040916D02*
X0077251Y0040916D01*
X0076071Y0042096D02*
X0012780Y0042096D01*
X0012780Y0043275D02*
X0074892Y0043275D01*
X0073712Y0044455D02*
X0012780Y0044455D01*
X0012780Y0045634D02*
X0072533Y0045634D01*
X0081024Y0043451D02*
X0088217Y0036258D01*
X0133556Y0036258D01*
X0134048Y0036750D01*
X0136268Y0036750D01*
X0136760Y0036258D01*
X0121964Y0031479D02*
X0108416Y0031479D01*
X0109596Y0030299D02*
X0120957Y0030299D01*
X0120432Y0029120D02*
X0110104Y0029120D01*
X0110346Y0027940D02*
X0120200Y0027940D01*
X0120200Y0026761D02*
X0110346Y0026761D01*
X0110346Y0025581D02*
X0120200Y0025581D01*
X0104355Y0015970D02*
X0099071Y0015970D01*
X0090661Y0024380D01*
X0090661Y0028534D01*
X0089943Y0030267D01*
X0088617Y0031594D01*
X0088124Y0031798D01*
X0103452Y0031798D01*
X0102960Y0031594D01*
X0101633Y0030267D01*
X0100915Y0028534D01*
X0100915Y0019608D01*
X0101633Y0017875D01*
X0102960Y0016548D01*
X0104355Y0015970D01*
X0103935Y0016144D02*
X0098897Y0016144D01*
X0097717Y0017324D02*
X0102184Y0017324D01*
X0101373Y0018503D02*
X0096538Y0018503D01*
X0095358Y0019683D02*
X0100915Y0019683D01*
X0100915Y0020863D02*
X0094178Y0020863D01*
X0092999Y0022042D02*
X0100915Y0022042D01*
X0100915Y0023222D02*
X0091819Y0023222D01*
X0090661Y0024401D02*
X0100915Y0024401D01*
X0100915Y0025581D02*
X0090661Y0025581D01*
X0090661Y0026761D02*
X0100915Y0026761D01*
X0100915Y0027940D02*
X0090661Y0027940D01*
X0090418Y0029120D02*
X0101158Y0029120D01*
X0101666Y0030299D02*
X0089911Y0030299D01*
X0088731Y0031479D02*
X0102845Y0031479D01*
X0100782Y0046814D02*
X0110509Y0046814D01*
X0096070Y0046814D02*
X0093538Y0046814D01*
X0094717Y0047994D02*
X0094891Y0047994D01*
X0095959Y0052712D02*
X0093649Y0052712D01*
X0093132Y0056251D02*
X0095984Y0056251D01*
X0094804Y0057431D02*
X0094312Y0057431D01*
X0080072Y0023222D02*
X0071376Y0023222D01*
X0071376Y0022042D02*
X0078893Y0022042D01*
X0077713Y0020863D02*
X0071376Y0020863D01*
X0071303Y0019683D02*
X0076533Y0019683D01*
X0075354Y0018503D02*
X0070961Y0018503D01*
X0070243Y0017324D02*
X0074174Y0017324D01*
X0072995Y0016144D02*
X0068890Y0016144D01*
X0066845Y0016144D02*
X0065676Y0016144D01*
X0065676Y0017324D02*
X0066845Y0017324D01*
X0066845Y0018503D02*
X0065676Y0018503D01*
X0065676Y0019683D02*
X0066845Y0019683D01*
X0066845Y0020863D02*
X0065676Y0020863D01*
X0065676Y0022042D02*
X0066845Y0022042D01*
X0066845Y0025581D02*
X0065676Y0025581D01*
X0065676Y0026761D02*
X0066845Y0026761D01*
X0066845Y0027940D02*
X0065676Y0027940D01*
X0065676Y0029120D02*
X0066845Y0029120D01*
X0066845Y0030299D02*
X0065676Y0030299D01*
X0065676Y0031479D02*
X0066845Y0031479D01*
X0061145Y0023222D02*
X0051291Y0023222D01*
X0051291Y0022042D02*
X0061145Y0022042D01*
X0061145Y0020863D02*
X0051291Y0020863D01*
X0051291Y0019683D02*
X0061218Y0019683D01*
X0061560Y0018503D02*
X0050834Y0018503D01*
X0050022Y0017324D02*
X0062278Y0017324D01*
X0063632Y0016144D02*
X0048271Y0016144D01*
X0044880Y0016144D02*
X0037503Y0016144D01*
X0036323Y0017324D02*
X0043129Y0017324D01*
X0042318Y0018503D02*
X0035144Y0018503D01*
X0033964Y0019683D02*
X0041860Y0019683D01*
X0041860Y0020863D02*
X0032785Y0020863D01*
X0031606Y0022042D02*
X0041860Y0022042D01*
X0041860Y0023222D02*
X0031606Y0023222D01*
X0031606Y0024401D02*
X0041860Y0024401D01*
X0041860Y0025581D02*
X0031606Y0025581D01*
X0031606Y0026761D02*
X0041860Y0026761D01*
X0041860Y0027940D02*
X0031606Y0027940D01*
X0031363Y0029120D02*
X0042103Y0029120D01*
X0042610Y0030299D02*
X0030856Y0030299D01*
X0029676Y0031479D02*
X0043790Y0031479D01*
X0028634Y0014964D02*
X0022847Y0014964D01*
X0023336Y0013785D02*
X0029814Y0013785D01*
X0030993Y0012605D02*
X0023607Y0012605D01*
X0023607Y0011426D02*
X0032173Y0011426D01*
X0033352Y0010246D02*
X0023607Y0010246D01*
X0022358Y0016144D02*
X0025195Y0016144D01*
X0023444Y0017324D02*
X0021249Y0017324D01*
X0020069Y0018503D02*
X0022633Y0018503D01*
X0022175Y0019683D02*
X0017446Y0019683D01*
X0012780Y0020863D02*
X0022175Y0020863D01*
X0022175Y0022042D02*
X0012780Y0022042D01*
X0012780Y0023222D02*
X0022175Y0023222D01*
X0022175Y0024401D02*
X0012780Y0024401D01*
X0012780Y0025581D02*
X0022175Y0025581D01*
X0022175Y0026761D02*
X0012780Y0026761D01*
X0012780Y0027940D02*
X0022175Y0027940D01*
X0022418Y0029120D02*
X0012780Y0029120D01*
X0012780Y0030299D02*
X0022925Y0030299D01*
X0024105Y0031479D02*
X0012780Y0031479D01*
X0012780Y0065688D02*
X0040688Y0065688D01*
X0039773Y0066867D02*
X0012780Y0066867D01*
X0012780Y0068047D02*
X0039480Y0068047D01*
X0039480Y0069227D02*
X0012780Y0069227D01*
X0012780Y0070406D02*
X0039480Y0070406D01*
X0039480Y0071586D02*
X0035151Y0071586D01*
X0036314Y0072766D02*
X0039480Y0072766D01*
X0039480Y0073945D02*
X0036803Y0073945D01*
X0037021Y0075125D02*
X0039480Y0075125D01*
X0039480Y0076304D02*
X0037174Y0076304D01*
X0038354Y0077484D02*
X0039480Y0077484D01*
X0039462Y0078664D02*
X0039480Y0078664D01*
X0049077Y0082202D02*
X0050765Y0082202D01*
X0050765Y0081023D02*
X0050257Y0081023D01*
X0050765Y0083382D02*
X0048948Y0083382D01*
X0048948Y0084562D02*
X0050928Y0084562D01*
X0051432Y0085741D02*
X0048948Y0085741D01*
X0040267Y0096358D02*
X0033928Y0096358D01*
X0033507Y0097537D02*
X0040806Y0097537D01*
X0041448Y0101076D02*
X0026268Y0101076D01*
X0026268Y0102256D02*
X0041448Y0102256D01*
X0041448Y0103435D02*
X0026268Y0103435D01*
X0026268Y0104615D02*
X0041448Y0104615D01*
X0041448Y0105795D02*
X0026215Y0105795D01*
X0024895Y0106974D02*
X0041448Y0106974D01*
X0020347Y0106974D02*
X0019166Y0106974D01*
X0019166Y0105795D02*
X0020347Y0105795D01*
X0020347Y0104615D02*
X0019166Y0104615D01*
X0019166Y0103435D02*
X0020347Y0103435D01*
X0020347Y0102256D02*
X0019166Y0102256D01*
X0013245Y0098717D02*
X0012780Y0098717D01*
X0012780Y0097537D02*
X0013245Y0097537D01*
X0013245Y0096358D02*
X0012780Y0096358D01*
X0012780Y0154159D02*
X0038664Y0154159D01*
X0035571Y0155338D02*
X0012780Y0155338D01*
X0012780Y0156518D02*
X0033859Y0156518D01*
X0032680Y0157698D02*
X0012780Y0157698D01*
X0012780Y0158877D02*
X0031863Y0158877D01*
X0031182Y0160057D02*
X0012780Y0160057D01*
X0012780Y0161237D02*
X0030755Y0161237D01*
X0030439Y0162416D02*
X0025235Y0162416D01*
X0025868Y0163596D02*
X0030261Y0163596D01*
X0030261Y0164775D02*
X0025868Y0164775D01*
X0025868Y0165955D02*
X0030290Y0165955D01*
X0030606Y0167135D02*
X0025868Y0167135D01*
X0025868Y0168314D02*
X0030922Y0168314D01*
X0031541Y0169494D02*
X0025868Y0169494D01*
X0025868Y0170673D02*
X0032222Y0170673D01*
X0033302Y0171853D02*
X0025868Y0171853D01*
X0023607Y0182662D02*
X0023607Y0185373D01*
X0022309Y0188508D01*
X0019910Y0190906D01*
X0016776Y0192205D01*
X0013383Y0192205D01*
X0012780Y0191955D01*
X0012780Y0249218D01*
X0013383Y0248969D01*
X0016776Y0248969D01*
X0019910Y0250267D01*
X0022309Y0252666D01*
X0023607Y0255800D01*
X0023607Y0258511D01*
X0024447Y0258511D01*
X0024447Y0257892D01*
X0024555Y0257488D01*
X0024764Y0257125D01*
X0025061Y0256829D01*
X0025423Y0256619D01*
X0025828Y0256511D01*
X0028628Y0256511D01*
X0028628Y0258511D01*
X0029747Y0258511D01*
X0029747Y0256511D01*
X0032547Y0256511D01*
X0032951Y0256619D01*
X0033314Y0256829D01*
X0033574Y0257089D01*
X0033574Y0253883D01*
X0032060Y0252369D01*
X0024317Y0252369D01*
X0022584Y0251651D01*
X0021258Y0250325D01*
X0020540Y0248592D01*
X0020540Y0246716D01*
X0021258Y0244982D01*
X0022584Y0243656D01*
X0024317Y0242938D01*
X0033243Y0242938D01*
X0034976Y0243656D01*
X0036303Y0244982D01*
X0037021Y0246716D01*
X0037021Y0248395D01*
X0038523Y0249897D01*
X0039411Y0250785D01*
X0039480Y0250950D01*
X0039480Y0239820D01*
X0039960Y0238659D01*
X0040849Y0237771D01*
X0047391Y0231228D01*
X0047391Y0230335D01*
X0049612Y0228115D01*
X0052752Y0228115D01*
X0054972Y0230335D01*
X0054972Y0233476D01*
X0052752Y0235696D01*
X0051859Y0235696D01*
X0045964Y0241591D01*
X0047391Y0243017D01*
X0047391Y0240178D01*
X0049612Y0237957D01*
X0052454Y0237957D01*
X0085326Y0205085D01*
X0085856Y0204555D01*
X0085008Y0204555D01*
X0083275Y0203838D01*
X0081948Y0202511D01*
X0081230Y0200778D01*
X0081230Y0196624D01*
X0072293Y0187687D01*
X0038205Y0187687D01*
X0031606Y0194285D01*
X0031606Y0200778D01*
X0030888Y0202511D01*
X0029562Y0203838D01*
X0027829Y0204555D01*
X0025953Y0204555D01*
X0024219Y0203838D01*
X0022893Y0202511D01*
X0022175Y0200778D01*
X0022175Y0191852D01*
X0022893Y0190119D01*
X0024219Y0188792D01*
X0025953Y0188074D01*
X0027768Y0188074D01*
X0033180Y0182662D01*
X0023607Y0182662D01*
X0023607Y0183649D02*
X0032193Y0183649D01*
X0031014Y0184829D02*
X0023607Y0184829D01*
X0023344Y0186008D02*
X0029834Y0186008D01*
X0028655Y0187188D02*
X0022855Y0187188D01*
X0022367Y0188368D02*
X0025245Y0188368D01*
X0023464Y0189547D02*
X0021269Y0189547D01*
X0020090Y0190727D02*
X0022641Y0190727D01*
X0022175Y0191907D02*
X0017496Y0191907D01*
X0022175Y0193086D02*
X0012780Y0193086D01*
X0012780Y0194266D02*
X0022175Y0194266D01*
X0022175Y0195445D02*
X0012780Y0195445D01*
X0012780Y0196625D02*
X0022175Y0196625D01*
X0022175Y0197805D02*
X0012780Y0197805D01*
X0012780Y0198984D02*
X0022175Y0198984D01*
X0022175Y0200164D02*
X0012780Y0200164D01*
X0012780Y0201343D02*
X0022409Y0201343D01*
X0022905Y0202523D02*
X0012780Y0202523D01*
X0012780Y0203703D02*
X0024084Y0203703D01*
X0029697Y0203703D02*
X0043770Y0203703D01*
X0043904Y0203838D02*
X0042578Y0202511D01*
X0041860Y0200778D01*
X0041860Y0191852D01*
X0042578Y0190119D01*
X0043904Y0188792D01*
X0045638Y0188074D01*
X0047514Y0188074D01*
X0049247Y0188792D01*
X0050573Y0190119D01*
X0051291Y0191852D01*
X0051291Y0200778D01*
X0050573Y0202511D01*
X0049247Y0203838D01*
X0047514Y0204555D01*
X0045638Y0204555D01*
X0043904Y0203838D01*
X0042590Y0202523D02*
X0030876Y0202523D01*
X0031372Y0201343D02*
X0042094Y0201343D01*
X0041860Y0200164D02*
X0031606Y0200164D01*
X0031606Y0198984D02*
X0041860Y0198984D01*
X0041860Y0197805D02*
X0031606Y0197805D01*
X0031606Y0196625D02*
X0041860Y0196625D01*
X0041860Y0195445D02*
X0031606Y0195445D01*
X0031626Y0194266D02*
X0041860Y0194266D01*
X0041860Y0193086D02*
X0032805Y0193086D01*
X0033985Y0191907D02*
X0041860Y0191907D01*
X0042326Y0190727D02*
X0035164Y0190727D01*
X0036344Y0189547D02*
X0043149Y0189547D01*
X0044930Y0188368D02*
X0037524Y0188368D01*
X0048222Y0188368D02*
X0063672Y0188368D01*
X0063579Y0188415D02*
X0064297Y0188049D01*
X0065063Y0187800D01*
X0065676Y0187703D01*
X0065676Y0195730D01*
X0066845Y0195730D01*
X0066845Y0187703D01*
X0067459Y0187800D01*
X0068224Y0188049D01*
X0068942Y0188415D01*
X0069593Y0188888D01*
X0070163Y0189457D01*
X0070636Y0190109D01*
X0071001Y0190826D01*
X0071250Y0191592D01*
X0071376Y0192387D01*
X0071376Y0195730D01*
X0066845Y0195730D01*
X0066845Y0196899D01*
X0071376Y0196899D01*
X0071376Y0200243D01*
X0071250Y0201038D01*
X0071001Y0201804D01*
X0070636Y0202521D01*
X0070163Y0203173D01*
X0069593Y0203742D01*
X0068942Y0204215D01*
X0068224Y0204581D01*
X0067459Y0204830D01*
X0066845Y0204927D01*
X0066845Y0196899D01*
X0065676Y0196899D01*
X0065676Y0195730D01*
X0061145Y0195730D01*
X0061145Y0192387D01*
X0061271Y0191592D01*
X0061520Y0190826D01*
X0061885Y0190109D01*
X0062359Y0189457D01*
X0062928Y0188888D01*
X0063579Y0188415D01*
X0062293Y0189547D02*
X0050002Y0189547D01*
X0050825Y0190727D02*
X0061570Y0190727D01*
X0061221Y0191907D02*
X0051291Y0191907D01*
X0051291Y0193086D02*
X0061145Y0193086D01*
X0061145Y0194266D02*
X0051291Y0194266D01*
X0051291Y0195445D02*
X0061145Y0195445D01*
X0061145Y0196899D02*
X0065676Y0196899D01*
X0065676Y0204927D01*
X0065063Y0204830D01*
X0064297Y0204581D01*
X0063579Y0204215D01*
X0062928Y0203742D01*
X0062359Y0203173D01*
X0061885Y0202521D01*
X0061520Y0201804D01*
X0061271Y0201038D01*
X0061145Y0200243D01*
X0061145Y0196899D01*
X0061145Y0197805D02*
X0051291Y0197805D01*
X0051291Y0198984D02*
X0061145Y0198984D01*
X0061145Y0200164D02*
X0051291Y0200164D01*
X0051057Y0201343D02*
X0061370Y0201343D01*
X0061887Y0202523D02*
X0050561Y0202523D01*
X0049382Y0203703D02*
X0062889Y0203703D01*
X0065396Y0204882D02*
X0012780Y0204882D01*
X0012780Y0206062D02*
X0084349Y0206062D01*
X0083170Y0207241D02*
X0012780Y0207241D01*
X0012780Y0208421D02*
X0081990Y0208421D01*
X0080810Y0209601D02*
X0012780Y0209601D01*
X0012780Y0210780D02*
X0079631Y0210780D01*
X0078451Y0211960D02*
X0012780Y0211960D01*
X0012780Y0213140D02*
X0077271Y0213140D01*
X0076092Y0214319D02*
X0012780Y0214319D01*
X0012780Y0215499D02*
X0074912Y0215499D01*
X0073733Y0216678D02*
X0012780Y0216678D01*
X0012780Y0217858D02*
X0072553Y0217858D01*
X0071373Y0219038D02*
X0053517Y0219038D01*
X0052752Y0218272D02*
X0054972Y0220493D01*
X0054972Y0223633D01*
X0052752Y0225854D01*
X0049612Y0225854D01*
X0047391Y0223633D01*
X0047391Y0220493D01*
X0049612Y0218272D01*
X0052752Y0218272D01*
X0054697Y0220217D02*
X0070194Y0220217D01*
X0069014Y0221397D02*
X0054972Y0221397D01*
X0054972Y0222576D02*
X0067835Y0222576D01*
X0066655Y0223756D02*
X0054849Y0223756D01*
X0053670Y0224936D02*
X0065475Y0224936D01*
X0064296Y0226115D02*
X0037082Y0226115D01*
X0037046Y0226005D02*
X0037295Y0226771D01*
X0037392Y0227384D01*
X0029365Y0227384D01*
X0029365Y0228553D01*
X0037392Y0228553D01*
X0037295Y0229166D01*
X0037046Y0229932D01*
X0036681Y0230650D01*
X0036207Y0231301D01*
X0035638Y0231870D01*
X0034986Y0232344D01*
X0034269Y0232709D01*
X0033503Y0232958D01*
X0032708Y0233084D01*
X0029365Y0233084D01*
X0029365Y0228553D01*
X0028196Y0228553D01*
X0028196Y0233084D01*
X0024853Y0233084D01*
X0024057Y0232958D01*
X0023292Y0232709D01*
X0022574Y0232344D01*
X0021923Y0231870D01*
X0021353Y0231301D01*
X0020880Y0230650D01*
X0020515Y0229932D01*
X0020266Y0229166D01*
X0020169Y0228553D01*
X0028196Y0228553D01*
X0028196Y0227384D01*
X0029365Y0227384D01*
X0029365Y0222853D01*
X0032708Y0222853D01*
X0033503Y0222979D01*
X0034269Y0223228D01*
X0034986Y0223593D01*
X0035638Y0224067D01*
X0036207Y0224636D01*
X0036681Y0225287D01*
X0037046Y0226005D01*
X0036425Y0224936D02*
X0048694Y0224936D01*
X0047514Y0223756D02*
X0035211Y0223756D01*
X0037378Y0227295D02*
X0063116Y0227295D01*
X0061937Y0228475D02*
X0053112Y0228475D01*
X0054291Y0229654D02*
X0060757Y0229654D01*
X0059577Y0230834D02*
X0054972Y0230834D01*
X0054972Y0232013D02*
X0058398Y0232013D01*
X0057218Y0233193D02*
X0054972Y0233193D01*
X0054075Y0234373D02*
X0056038Y0234373D01*
X0054859Y0235552D02*
X0052896Y0235552D01*
X0053679Y0236732D02*
X0050823Y0236732D01*
X0049644Y0237911D02*
X0052500Y0237911D01*
X0054972Y0240476D02*
X0054972Y0243318D01*
X0052752Y0245539D01*
X0049912Y0245539D01*
X0051222Y0246848D01*
X0051388Y0247249D01*
X0051429Y0247169D01*
X0051854Y0246584D01*
X0052365Y0246073D01*
X0052949Y0245649D01*
X0053593Y0245321D01*
X0054280Y0245097D01*
X0054946Y0244992D01*
X0054946Y0252165D01*
X0055765Y0252165D01*
X0055765Y0252984D01*
X0059946Y0252984D01*
X0059946Y0255936D01*
X0059833Y0256650D01*
X0059609Y0257337D01*
X0059281Y0257981D01*
X0058896Y0258511D01*
X0062365Y0258511D01*
X0061803Y0257949D01*
X0061165Y0256408D01*
X0061165Y0248741D01*
X0061803Y0247201D01*
X0062981Y0246022D01*
X0064522Y0245384D01*
X0066189Y0245384D01*
X0066759Y0245621D01*
X0077275Y0235105D01*
X0078318Y0234061D01*
X0079391Y0234061D01*
X0078753Y0233423D01*
X0078345Y0232438D01*
X0078345Y0231373D01*
X0078753Y0230388D01*
X0079243Y0229897D01*
X0079243Y0216205D01*
X0054972Y0240476D01*
X0055178Y0240271D02*
X0072109Y0240271D01*
X0070929Y0241450D02*
X0054972Y0241450D01*
X0054972Y0242630D02*
X0069750Y0242630D01*
X0068570Y0243810D02*
X0054481Y0243810D01*
X0053301Y0244989D02*
X0067390Y0244989D01*
X0070069Y0247348D02*
X0090622Y0247348D01*
X0090301Y0247670D02*
X0092432Y0245539D01*
X0089612Y0245539D01*
X0087391Y0243318D01*
X0087391Y0240178D01*
X0089612Y0237957D01*
X0092752Y0237957D01*
X0094804Y0240009D01*
X0096856Y0237957D01*
X0099141Y0237957D01*
X0099204Y0237894D01*
X0099475Y0237624D01*
X0079794Y0237624D01*
X0069291Y0248126D01*
X0069546Y0248741D01*
X0069546Y0256408D01*
X0068908Y0257949D01*
X0068345Y0258511D01*
X0070050Y0258511D01*
X0070050Y0257892D01*
X0070159Y0257488D01*
X0070368Y0257125D01*
X0070664Y0256829D01*
X0071027Y0256619D01*
X0071431Y0256511D01*
X0074231Y0256511D01*
X0074231Y0258511D01*
X0075350Y0258511D01*
X0075350Y0256511D01*
X0078150Y0256511D01*
X0078555Y0256619D01*
X0078917Y0256829D01*
X0079214Y0257125D01*
X0079423Y0257488D01*
X0079531Y0257892D01*
X0079531Y0258511D01*
X0093016Y0258511D01*
X0093016Y0257892D01*
X0093125Y0257488D01*
X0093334Y0257125D01*
X0093630Y0256829D01*
X0093993Y0256619D01*
X0094397Y0256511D01*
X0097197Y0256511D01*
X0097197Y0258511D01*
X0098316Y0258511D01*
X0098316Y0256511D01*
X0101116Y0256511D01*
X0101521Y0256619D01*
X0101883Y0256829D01*
X0102179Y0257125D01*
X0102389Y0257488D01*
X0102497Y0257892D01*
X0102497Y0258511D01*
X0110720Y0258511D01*
X0109832Y0258143D01*
X0108653Y0256964D01*
X0108015Y0255424D01*
X0108015Y0247757D01*
X0108653Y0246217D01*
X0109832Y0245038D01*
X0111372Y0244400D01*
X0113039Y0244400D01*
X0114579Y0245038D01*
X0115758Y0246217D01*
X0116396Y0247757D01*
X0116396Y0255424D01*
X0115758Y0256964D01*
X0114579Y0258143D01*
X0113691Y0258511D01*
X0120720Y0258511D01*
X0119832Y0258143D01*
X0118653Y0256964D01*
X0118015Y0255424D01*
X0118015Y0247757D01*
X0118653Y0246217D01*
X0119832Y0245038D01*
X0121372Y0244400D01*
X0123039Y0244400D01*
X0124579Y0245038D01*
X0125758Y0246217D01*
X0126396Y0247757D01*
X0126396Y0255424D01*
X0125758Y0256964D01*
X0124579Y0258143D01*
X0123691Y0258511D01*
X0130720Y0258511D01*
X0129832Y0258143D01*
X0128653Y0256964D01*
X0128015Y0255424D01*
X0128015Y0247757D01*
X0128653Y0246217D01*
X0129832Y0245038D01*
X0131372Y0244400D01*
X0133039Y0244400D01*
X0134579Y0245038D01*
X0135758Y0246217D01*
X0136396Y0247757D01*
X0136396Y0255424D01*
X0135758Y0256964D01*
X0134579Y0258143D01*
X0133691Y0258511D01*
X0139792Y0258511D01*
X0139215Y0258092D01*
X0138704Y0257581D01*
X0138279Y0256997D01*
X0137951Y0256353D01*
X0137728Y0255666D01*
X0137615Y0254952D01*
X0137615Y0252000D01*
X0141796Y0252000D01*
X0141796Y0251181D01*
X0137615Y0251181D01*
X0137615Y0248229D01*
X0137728Y0247516D01*
X0137951Y0246828D01*
X0138279Y0246185D01*
X0138704Y0245600D01*
X0138765Y0245539D01*
X0136856Y0245539D01*
X0134635Y0243318D01*
X0134635Y0240178D01*
X0136206Y0238608D01*
X0135896Y0238608D01*
X0131526Y0242978D01*
X0130483Y0244021D01*
X0108829Y0244021D01*
X0105443Y0247407D01*
X0104400Y0248450D01*
X0102048Y0248450D01*
X0102218Y0248621D01*
X0102640Y0249201D01*
X0102966Y0249840D01*
X0103188Y0250523D01*
X0103294Y0251197D01*
X0099135Y0251197D01*
X0099135Y0251984D01*
X0103294Y0251984D01*
X0103188Y0252658D01*
X0102966Y0253341D01*
X0102640Y0253980D01*
X0102218Y0254561D01*
X0101711Y0255068D01*
X0101130Y0255490D01*
X0100491Y0255816D01*
X0099809Y0256037D01*
X0099135Y0256144D01*
X0099135Y0251984D01*
X0098347Y0251984D01*
X0098347Y0251197D01*
X0094187Y0251197D01*
X0094294Y0250523D01*
X0094516Y0249840D01*
X0094842Y0249201D01*
X0095263Y0248621D01*
X0095434Y0248450D01*
X0094557Y0248450D01*
X0092819Y0250188D01*
X0093057Y0250763D01*
X0093057Y0252418D01*
X0092424Y0253946D01*
X0091254Y0255116D01*
X0089726Y0255750D01*
X0088071Y0255750D01*
X0086543Y0255116D01*
X0085373Y0253946D01*
X0084739Y0252418D01*
X0084739Y0250763D01*
X0085373Y0249235D01*
X0086543Y0248065D01*
X0088071Y0247431D01*
X0089726Y0247431D01*
X0090301Y0247670D01*
X0091801Y0246169D02*
X0071249Y0246169D01*
X0072428Y0244989D02*
X0089062Y0244989D01*
X0087883Y0243810D02*
X0073608Y0243810D01*
X0074787Y0242630D02*
X0087391Y0242630D01*
X0087391Y0241450D02*
X0075967Y0241450D01*
X0077147Y0240271D02*
X0087391Y0240271D01*
X0088478Y0239091D02*
X0078326Y0239091D01*
X0079506Y0237911D02*
X0099187Y0237911D01*
X0101139Y0234061D02*
X0123594Y0234061D01*
X0128023Y0229632D01*
X0134846Y0229632D01*
X0136856Y0227623D01*
X0139698Y0227623D01*
X0142609Y0224711D01*
X0149644Y0224711D01*
X0149546Y0224614D01*
X0149125Y0223597D01*
X0149125Y0222497D01*
X0149383Y0221876D01*
X0142217Y0221876D01*
X0142217Y0223633D01*
X0139996Y0225854D01*
X0136856Y0225854D01*
X0134635Y0223633D01*
X0134635Y0220493D01*
X0136206Y0218923D01*
X0115380Y0218923D01*
X0115188Y0219386D01*
X0114434Y0220140D01*
X0113450Y0220548D01*
X0112384Y0220548D01*
X0111399Y0220140D01*
X0110645Y0219386D01*
X0110237Y0218402D01*
X0110237Y0217336D01*
X0110514Y0216666D01*
X0110018Y0216461D01*
X0109265Y0215707D01*
X0108857Y0214722D01*
X0108857Y0213656D01*
X0109265Y0212671D01*
X0110018Y0211917D01*
X0111003Y0211509D01*
X0112069Y0211509D01*
X0113054Y0211917D01*
X0113545Y0212408D01*
X0215116Y0212408D01*
X0215333Y0212191D01*
X0216318Y0211783D01*
X0217384Y0211783D01*
X0218369Y0212191D01*
X0219123Y0212944D01*
X0219531Y0213929D01*
X0219531Y0214995D01*
X0219379Y0215361D01*
X0221733Y0215361D01*
X0222223Y0214870D01*
X0223208Y0214462D01*
X0224274Y0214462D01*
X0225259Y0214870D01*
X0226013Y0215624D01*
X0226420Y0216609D01*
X0226420Y0217675D01*
X0226013Y0218660D01*
X0225259Y0219413D01*
X0224274Y0219821D01*
X0223208Y0219821D01*
X0222223Y0219413D01*
X0221733Y0218923D01*
X0187770Y0218923D01*
X0188035Y0219561D01*
X0188035Y0220627D01*
X0187627Y0221612D01*
X0186873Y0222366D01*
X0185888Y0222774D01*
X0184822Y0222774D01*
X0183837Y0222366D01*
X0183347Y0221876D01*
X0176052Y0221876D01*
X0176309Y0222497D01*
X0176309Y0223597D01*
X0175888Y0224614D01*
X0175791Y0224711D01*
X0221733Y0224711D01*
X0222223Y0224221D01*
X0223208Y0223813D01*
X0224274Y0223813D01*
X0225259Y0224221D01*
X0226013Y0224974D01*
X0226420Y0225959D01*
X0226420Y0227025D01*
X0226013Y0228010D01*
X0225259Y0228764D01*
X0224274Y0229172D01*
X0223208Y0229172D01*
X0222223Y0228764D01*
X0221733Y0228273D01*
X0144085Y0228273D01*
X0142217Y0230142D01*
X0142217Y0232983D01*
X0140154Y0235046D01*
X0141802Y0235046D01*
X0142845Y0236089D01*
X0143770Y0237014D01*
X0182251Y0237014D01*
X0181770Y0236533D01*
X0181770Y0234671D01*
X0181458Y0234671D01*
X0180967Y0235161D01*
X0179983Y0235569D01*
X0178917Y0235569D01*
X0177932Y0235161D01*
X0177178Y0234408D01*
X0176770Y0233423D01*
X0176770Y0232357D01*
X0177178Y0231372D01*
X0177932Y0230618D01*
X0178917Y0230210D01*
X0179983Y0230210D01*
X0180967Y0230618D01*
X0181458Y0231109D01*
X0181770Y0231109D01*
X0181770Y0229247D01*
X0182467Y0228549D01*
X0188054Y0228549D01*
X0188261Y0228756D01*
X0188467Y0228549D01*
X0194054Y0228549D01*
X0194261Y0228756D01*
X0194467Y0228549D01*
X0200054Y0228549D01*
X0200751Y0229247D01*
X0200751Y0231109D01*
X0212668Y0231109D01*
X0216691Y0235131D01*
X0217384Y0235131D01*
X0218369Y0235539D01*
X0219123Y0236293D01*
X0219531Y0237278D01*
X0219531Y0238344D01*
X0219123Y0239329D01*
X0218369Y0240083D01*
X0217384Y0240491D01*
X0216318Y0240491D01*
X0215333Y0240083D01*
X0214580Y0239329D01*
X0214172Y0238344D01*
X0214172Y0237650D01*
X0211192Y0234671D01*
X0200751Y0234671D01*
X0200751Y0236533D01*
X0200054Y0237230D01*
X0194467Y0237230D01*
X0194261Y0237023D01*
X0194054Y0237230D01*
X0191407Y0237230D01*
X0189105Y0239533D01*
X0188061Y0240576D01*
X0142295Y0240576D01*
X0142217Y0240498D01*
X0142217Y0240951D01*
X0191150Y0240951D01*
X0191154Y0240941D01*
X0191908Y0240187D01*
X0192893Y0239780D01*
X0193959Y0239780D01*
X0194944Y0240187D01*
X0195698Y0240941D01*
X0196105Y0241926D01*
X0196105Y0242992D01*
X0195698Y0243977D01*
X0194944Y0244731D01*
X0193959Y0245139D01*
X0192893Y0245139D01*
X0191908Y0244731D01*
X0191691Y0244513D01*
X0153987Y0244513D01*
X0153987Y0244792D01*
X0154579Y0245038D01*
X0155758Y0246217D01*
X0156396Y0247757D01*
X0156396Y0255424D01*
X0155758Y0256964D01*
X0154579Y0258143D01*
X0153691Y0258511D01*
X0161914Y0258511D01*
X0161914Y0257892D01*
X0162022Y0257488D01*
X0162232Y0257125D01*
X0162528Y0256829D01*
X0162890Y0256619D01*
X0163295Y0256511D01*
X0166095Y0256511D01*
X0166095Y0258511D01*
X0167214Y0258511D01*
X0167214Y0256511D01*
X0170014Y0256511D01*
X0170418Y0256619D01*
X0170781Y0256829D01*
X0171077Y0257125D01*
X0171286Y0257488D01*
X0171395Y0257892D01*
X0171395Y0258511D01*
X0226694Y0258511D01*
X0226694Y0182662D01*
X0195717Y0182662D01*
X0208816Y0195761D01*
X0209510Y0195761D01*
X0210495Y0196169D01*
X0211249Y0196923D01*
X0211657Y0197908D01*
X0211657Y0198974D01*
X0211249Y0199959D01*
X0210495Y0200713D01*
X0209510Y0201120D01*
X0208444Y0201120D01*
X0207459Y0200713D01*
X0206706Y0199959D01*
X0206298Y0198974D01*
X0206298Y0198280D01*
X0192161Y0184143D01*
X0139806Y0184143D01*
X0139806Y0184210D01*
X0139398Y0185195D01*
X0138645Y0185949D01*
X0137660Y0186357D01*
X0136957Y0186357D01*
X0147013Y0196413D01*
X0148013Y0197413D01*
X0148554Y0198719D01*
X0148554Y0199809D01*
X0151613Y0199809D01*
X0152919Y0200350D01*
X0153918Y0201350D01*
X0154459Y0202656D01*
X0154459Y0204069D01*
X0153918Y0205375D01*
X0152919Y0206374D01*
X0152081Y0206721D01*
X0190304Y0206721D01*
X0198424Y0198602D01*
X0198424Y0197908D01*
X0198832Y0196923D01*
X0199585Y0196169D01*
X0200570Y0195761D01*
X0201636Y0195761D01*
X0202621Y0196169D01*
X0203375Y0196923D01*
X0203783Y0197908D01*
X0203783Y0198974D01*
X0203375Y0199959D01*
X0202621Y0200713D01*
X0201636Y0201120D01*
X0200942Y0201120D01*
X0192823Y0209240D01*
X0191779Y0210283D01*
X0137498Y0210283D01*
X0137006Y0210776D01*
X0133311Y0210776D01*
X0132818Y0210283D01*
X0088955Y0210283D01*
X0082805Y0216433D01*
X0082805Y0229897D01*
X0083296Y0230388D01*
X0083704Y0231373D01*
X0083704Y0232438D01*
X0083296Y0233423D01*
X0082658Y0234061D01*
X0087977Y0234061D01*
X0087391Y0233476D01*
X0087391Y0230335D01*
X0089612Y0228115D01*
X0092752Y0228115D01*
X0094635Y0229998D01*
X0094635Y0229843D01*
X0096856Y0227623D01*
X0099996Y0227623D01*
X0102217Y0229843D01*
X0102217Y0232983D01*
X0101139Y0234061D01*
X0102007Y0233193D02*
X0124462Y0233193D01*
X0125642Y0232013D02*
X0102217Y0232013D01*
X0102217Y0230834D02*
X0126821Y0230834D01*
X0128001Y0229654D02*
X0102027Y0229654D01*
X0100848Y0228475D02*
X0136004Y0228475D01*
X0135938Y0224936D02*
X0100914Y0224936D01*
X0099996Y0225854D02*
X0096856Y0225854D01*
X0094804Y0223802D01*
X0092752Y0225854D01*
X0089612Y0225854D01*
X0087391Y0223633D01*
X0087391Y0220493D01*
X0089612Y0218272D01*
X0092752Y0218272D01*
X0094804Y0220324D01*
X0096856Y0218272D01*
X0099996Y0218272D01*
X0102217Y0220493D01*
X0102217Y0223633D01*
X0099996Y0225854D01*
X0102094Y0223756D02*
X0134758Y0223756D01*
X0134635Y0222576D02*
X0102217Y0222576D01*
X0102217Y0221397D02*
X0134635Y0221397D01*
X0134911Y0220217D02*
X0114248Y0220217D01*
X0115333Y0219038D02*
X0136091Y0219038D01*
X0138426Y0222063D02*
X0140394Y0220094D01*
X0185355Y0220094D01*
X0187818Y0219038D02*
X0221847Y0219038D01*
X0223741Y0217142D02*
X0112917Y0217142D01*
X0112917Y0217869D01*
X0110237Y0217858D02*
X0082805Y0217858D01*
X0082805Y0216678D02*
X0110509Y0216678D01*
X0109178Y0215499D02*
X0083739Y0215499D01*
X0084919Y0214319D02*
X0108857Y0214319D01*
X0109071Y0213140D02*
X0086099Y0213140D01*
X0087278Y0211960D02*
X0109976Y0211960D01*
X0111536Y0214189D02*
X0216578Y0214189D01*
X0216851Y0214462D01*
X0215890Y0211960D02*
X0113097Y0211960D01*
X0110500Y0219038D02*
X0100761Y0219038D01*
X0101941Y0220217D02*
X0111585Y0220217D01*
X0096091Y0219038D02*
X0093517Y0219038D01*
X0094697Y0220217D02*
X0094911Y0220217D01*
X0095938Y0224936D02*
X0093670Y0224936D01*
X0093112Y0228475D02*
X0096004Y0228475D01*
X0094825Y0229654D02*
X0094291Y0229654D01*
X0089252Y0228475D02*
X0082805Y0228475D01*
X0082805Y0229654D02*
X0088073Y0229654D01*
X0087391Y0230834D02*
X0083481Y0230834D01*
X0083704Y0232013D02*
X0087391Y0232013D01*
X0087391Y0233193D02*
X0083391Y0233193D01*
X0081024Y0231906D02*
X0081024Y0215695D01*
X0088217Y0208502D01*
X0133556Y0208502D01*
X0134048Y0208994D01*
X0136268Y0208994D01*
X0136760Y0208502D01*
X0191042Y0208502D01*
X0201103Y0198441D01*
X0199130Y0196625D02*
X0147225Y0196625D01*
X0148175Y0197805D02*
X0198466Y0197805D01*
X0198041Y0198984D02*
X0148554Y0198984D01*
X0152468Y0200164D02*
X0196861Y0200164D01*
X0195682Y0201343D02*
X0153912Y0201343D01*
X0154404Y0202523D02*
X0194502Y0202523D01*
X0193323Y0203703D02*
X0154459Y0203703D01*
X0154122Y0204882D02*
X0192143Y0204882D01*
X0190963Y0206062D02*
X0153231Y0206062D01*
X0146045Y0195445D02*
X0203463Y0195445D01*
X0203077Y0196625D02*
X0204642Y0196625D01*
X0203740Y0197805D02*
X0205822Y0197805D01*
X0206302Y0198984D02*
X0203778Y0198984D01*
X0203170Y0200164D02*
X0206911Y0200164D01*
X0208977Y0198441D02*
X0192898Y0182362D01*
X0138442Y0182362D01*
X0137127Y0183677D01*
X0139550Y0184829D02*
X0192846Y0184829D01*
X0194026Y0186008D02*
X0138500Y0186008D01*
X0137788Y0187188D02*
X0195205Y0187188D01*
X0196385Y0188368D02*
X0138968Y0188368D01*
X0140147Y0189547D02*
X0197565Y0189547D01*
X0198744Y0190727D02*
X0141327Y0190727D01*
X0142506Y0191907D02*
X0199924Y0191907D01*
X0201104Y0193086D02*
X0143686Y0193086D01*
X0144866Y0194266D02*
X0202283Y0194266D01*
X0204962Y0191907D02*
X0226694Y0191907D01*
X0226694Y0193086D02*
X0206141Y0193086D01*
X0207321Y0194266D02*
X0226694Y0194266D01*
X0226694Y0195445D02*
X0208500Y0195445D01*
X0210951Y0196625D02*
X0226694Y0196625D01*
X0226694Y0197805D02*
X0211614Y0197805D01*
X0211652Y0198984D02*
X0226694Y0198984D01*
X0226694Y0200164D02*
X0211044Y0200164D01*
X0200720Y0201343D02*
X0226694Y0201343D01*
X0226694Y0202523D02*
X0199540Y0202523D01*
X0198360Y0203703D02*
X0226694Y0203703D01*
X0226694Y0204882D02*
X0197181Y0204882D01*
X0196001Y0206062D02*
X0226694Y0206062D01*
X0226694Y0207241D02*
X0194821Y0207241D01*
X0193642Y0208421D02*
X0226694Y0208421D01*
X0226694Y0209601D02*
X0192462Y0209601D01*
X0192823Y0209240D02*
X0192823Y0209240D01*
X0188035Y0220217D02*
X0226694Y0220217D01*
X0226694Y0219038D02*
X0225634Y0219038D01*
X0226345Y0217858D02*
X0226694Y0217858D01*
X0226694Y0216678D02*
X0226420Y0216678D01*
X0226694Y0215499D02*
X0225887Y0215499D01*
X0226694Y0214319D02*
X0219531Y0214319D01*
X0219204Y0213140D02*
X0226694Y0213140D01*
X0226694Y0211960D02*
X0217812Y0211960D01*
X0226694Y0210780D02*
X0088458Y0210780D01*
X0087107Y0205823D02*
X0126940Y0205823D01*
X0135232Y0197530D01*
X0132707Y0196625D02*
X0125900Y0196625D01*
X0125900Y0196899D02*
X0130431Y0196899D01*
X0130431Y0199812D01*
X0132553Y0197691D01*
X0132553Y0196997D01*
X0132960Y0196013D01*
X0133714Y0195259D01*
X0134699Y0194851D01*
X0135402Y0194851D01*
X0128765Y0188214D01*
X0127603Y0188214D01*
X0127997Y0188415D01*
X0128648Y0188888D01*
X0129218Y0189457D01*
X0129691Y0190109D01*
X0130057Y0190826D01*
X0130305Y0191592D01*
X0130431Y0192387D01*
X0130431Y0195730D01*
X0125900Y0195730D01*
X0125900Y0196899D01*
X0124731Y0196899D02*
X0124731Y0195730D01*
X0120200Y0195730D01*
X0120200Y0192387D01*
X0120326Y0191592D01*
X0120575Y0190826D01*
X0120941Y0190109D01*
X0121414Y0189457D01*
X0121983Y0188888D01*
X0122635Y0188415D01*
X0123028Y0188214D01*
X0106906Y0188214D01*
X0108302Y0188792D01*
X0109628Y0190119D01*
X0110346Y0191852D01*
X0110346Y0200778D01*
X0109628Y0202511D01*
X0108302Y0203838D01*
X0107809Y0204042D01*
X0122396Y0204042D01*
X0121983Y0203742D01*
X0121414Y0203173D01*
X0120941Y0202521D01*
X0120575Y0201804D01*
X0120326Y0201038D01*
X0120200Y0200243D01*
X0120200Y0196899D01*
X0124731Y0196899D01*
X0124731Y0196625D02*
X0110346Y0196625D01*
X0110346Y0197805D02*
X0120200Y0197805D01*
X0120200Y0198984D02*
X0110346Y0198984D01*
X0110346Y0200164D02*
X0120200Y0200164D01*
X0120425Y0201343D02*
X0110112Y0201343D01*
X0109616Y0202523D02*
X0120942Y0202523D01*
X0121944Y0203703D02*
X0108437Y0203703D01*
X0103452Y0204042D02*
X0102960Y0203838D01*
X0101633Y0202511D01*
X0100915Y0200778D01*
X0100915Y0191852D01*
X0101633Y0190119D01*
X0102960Y0188792D01*
X0104355Y0188214D01*
X0099071Y0188214D01*
X0090661Y0196624D01*
X0090661Y0200778D01*
X0089943Y0202511D01*
X0088617Y0203838D01*
X0088124Y0204042D01*
X0103452Y0204042D01*
X0102825Y0203703D02*
X0088752Y0203703D01*
X0089931Y0202523D02*
X0101645Y0202523D01*
X0101149Y0201343D02*
X0090427Y0201343D01*
X0090661Y0200164D02*
X0100915Y0200164D01*
X0100915Y0198984D02*
X0090661Y0198984D01*
X0090661Y0197805D02*
X0100915Y0197805D01*
X0100915Y0196625D02*
X0090661Y0196625D01*
X0091840Y0195445D02*
X0100915Y0195445D01*
X0100915Y0194266D02*
X0093019Y0194266D01*
X0094199Y0193086D02*
X0100915Y0193086D01*
X0100915Y0191907D02*
X0095378Y0191907D01*
X0096558Y0190727D02*
X0101381Y0190727D01*
X0102205Y0189547D02*
X0097738Y0189547D01*
X0098917Y0188368D02*
X0103985Y0188368D01*
X0107277Y0188368D02*
X0122727Y0188368D01*
X0121348Y0189547D02*
X0109057Y0189547D01*
X0109880Y0190727D02*
X0120626Y0190727D01*
X0120276Y0191907D02*
X0110346Y0191907D01*
X0110346Y0193086D02*
X0120200Y0193086D01*
X0120200Y0194266D02*
X0110346Y0194266D01*
X0110346Y0195445D02*
X0120200Y0195445D01*
X0127904Y0188368D02*
X0128919Y0188368D01*
X0129283Y0189547D02*
X0130099Y0189547D01*
X0130006Y0190727D02*
X0131278Y0190727D01*
X0130355Y0191907D02*
X0132458Y0191907D01*
X0133637Y0193086D02*
X0130431Y0193086D01*
X0130431Y0194266D02*
X0134817Y0194266D01*
X0133528Y0195445D02*
X0130431Y0195445D01*
X0130431Y0197805D02*
X0132439Y0197805D01*
X0131259Y0198984D02*
X0130431Y0198984D01*
X0133938Y0201343D02*
X0136090Y0201343D01*
X0136083Y0201350D02*
X0137083Y0200350D01*
X0138389Y0199809D01*
X0140361Y0199809D01*
X0137912Y0197360D01*
X0137912Y0198063D01*
X0137504Y0199048D01*
X0136750Y0199802D01*
X0135765Y0200210D01*
X0135071Y0200210D01*
X0128560Y0206721D01*
X0134294Y0206721D01*
X0134786Y0207213D01*
X0135530Y0207213D01*
X0136023Y0206721D01*
X0137921Y0206721D01*
X0137083Y0206374D01*
X0136083Y0205375D01*
X0135543Y0204069D01*
X0135543Y0202656D01*
X0136083Y0201350D01*
X0135877Y0200164D02*
X0137533Y0200164D01*
X0137530Y0198984D02*
X0139535Y0198984D01*
X0138356Y0197805D02*
X0137912Y0197805D01*
X0135597Y0202523D02*
X0132758Y0202523D01*
X0131579Y0203703D02*
X0135543Y0203703D01*
X0135879Y0204882D02*
X0130399Y0204882D01*
X0129219Y0206062D02*
X0136771Y0206062D01*
X0142217Y0222576D02*
X0149125Y0222576D01*
X0149191Y0223756D02*
X0142094Y0223756D01*
X0142385Y0224936D02*
X0140914Y0224936D01*
X0141205Y0226115D02*
X0082805Y0226115D01*
X0082805Y0224936D02*
X0088694Y0224936D01*
X0087514Y0223756D02*
X0082805Y0223756D01*
X0082805Y0222576D02*
X0087391Y0222576D01*
X0087391Y0221397D02*
X0082805Y0221397D01*
X0082805Y0220217D02*
X0087667Y0220217D01*
X0088847Y0219038D02*
X0082805Y0219038D01*
X0079243Y0219038D02*
X0076411Y0219038D01*
X0075232Y0220217D02*
X0079243Y0220217D01*
X0079243Y0221397D02*
X0074052Y0221397D01*
X0072872Y0222576D02*
X0079243Y0222576D01*
X0079243Y0223756D02*
X0071693Y0223756D01*
X0070513Y0224936D02*
X0079243Y0224936D01*
X0079243Y0226115D02*
X0069333Y0226115D01*
X0068154Y0227295D02*
X0079243Y0227295D01*
X0079243Y0228475D02*
X0066974Y0228475D01*
X0065795Y0229654D02*
X0079243Y0229654D01*
X0078568Y0230834D02*
X0064615Y0230834D01*
X0063435Y0232013D02*
X0078345Y0232013D01*
X0078657Y0233193D02*
X0062256Y0233193D01*
X0061076Y0234373D02*
X0078007Y0234373D01*
X0076827Y0235552D02*
X0059897Y0235552D01*
X0058717Y0236732D02*
X0075648Y0236732D01*
X0074468Y0237911D02*
X0057537Y0237911D01*
X0056358Y0239091D02*
X0073288Y0239091D01*
X0079056Y0235843D02*
X0124331Y0235843D01*
X0128761Y0231413D01*
X0138426Y0231413D01*
X0143347Y0226492D01*
X0223741Y0226492D01*
X0225548Y0228475D02*
X0226694Y0228475D01*
X0226694Y0229654D02*
X0200751Y0229654D01*
X0200751Y0230834D02*
X0226694Y0230834D01*
X0226694Y0232013D02*
X0213572Y0232013D01*
X0214752Y0233193D02*
X0226694Y0233193D01*
X0226694Y0234373D02*
X0215932Y0234373D01*
X0218382Y0235552D02*
X0226694Y0235552D01*
X0226694Y0236732D02*
X0219304Y0236732D01*
X0219531Y0237911D02*
X0226694Y0237911D01*
X0226694Y0239091D02*
X0219221Y0239091D01*
X0217915Y0240271D02*
X0226694Y0240271D01*
X0226694Y0241450D02*
X0210500Y0241450D01*
X0210495Y0241445D02*
X0211249Y0242199D01*
X0211657Y0243184D01*
X0211657Y0244250D01*
X0211249Y0245234D01*
X0210495Y0245988D01*
X0209510Y0246396D01*
X0208816Y0246396D01*
X0201841Y0253372D01*
X0166694Y0253372D01*
X0166204Y0253862D01*
X0165219Y0254270D01*
X0164153Y0254270D01*
X0163168Y0253862D01*
X0162414Y0253108D01*
X0162006Y0252124D01*
X0162006Y0251058D01*
X0162414Y0250073D01*
X0163168Y0249319D01*
X0164153Y0248911D01*
X0165219Y0248911D01*
X0166204Y0249319D01*
X0166694Y0249809D01*
X0200365Y0249809D01*
X0206298Y0243877D01*
X0206298Y0243184D01*
X0206706Y0242199D01*
X0207459Y0241445D01*
X0208444Y0241037D01*
X0209510Y0241037D01*
X0210495Y0241445D01*
X0211427Y0242630D02*
X0226694Y0242630D01*
X0226694Y0243810D02*
X0211657Y0243810D01*
X0211350Y0244989D02*
X0226694Y0244989D01*
X0226694Y0246169D02*
X0210059Y0246169D01*
X0207864Y0247348D02*
X0226694Y0247348D01*
X0226694Y0248528D02*
X0206685Y0248528D01*
X0205505Y0249708D02*
X0226694Y0249708D01*
X0226694Y0250887D02*
X0204325Y0250887D01*
X0203146Y0252067D02*
X0226694Y0252067D01*
X0226694Y0253246D02*
X0201966Y0253246D01*
X0201103Y0251591D02*
X0208977Y0243717D01*
X0206527Y0242630D02*
X0196105Y0242630D01*
X0195908Y0241450D02*
X0201937Y0241450D01*
X0201784Y0241297D02*
X0201376Y0240313D01*
X0201376Y0239247D01*
X0201784Y0238262D01*
X0202538Y0237508D01*
X0203523Y0237100D01*
X0204589Y0237100D01*
X0205574Y0237508D01*
X0206327Y0238262D01*
X0206735Y0239247D01*
X0206735Y0240313D01*
X0206327Y0241297D01*
X0205574Y0242051D01*
X0204589Y0242459D01*
X0203523Y0242459D01*
X0202538Y0242051D01*
X0201784Y0241297D01*
X0201376Y0240271D02*
X0195027Y0240271D01*
X0193426Y0242459D02*
X0193153Y0242732D01*
X0152206Y0242732D01*
X0139410Y0242732D01*
X0138426Y0241748D01*
X0135722Y0239091D02*
X0135413Y0239091D01*
X0134635Y0240271D02*
X0134233Y0240271D01*
X0134635Y0241450D02*
X0133054Y0241450D01*
X0131874Y0242630D02*
X0134635Y0242630D01*
X0135127Y0243810D02*
X0130694Y0243810D01*
X0129950Y0244989D02*
X0124461Y0244989D01*
X0125710Y0246169D02*
X0128701Y0246169D01*
X0128184Y0247348D02*
X0126227Y0247348D01*
X0126396Y0248528D02*
X0128015Y0248528D01*
X0128015Y0249708D02*
X0126396Y0249708D01*
X0126396Y0250887D02*
X0128015Y0250887D01*
X0128015Y0252067D02*
X0126396Y0252067D01*
X0126396Y0253246D02*
X0128015Y0253246D01*
X0128015Y0254426D02*
X0126396Y0254426D01*
X0126321Y0255606D02*
X0128090Y0255606D01*
X0128579Y0256785D02*
X0125832Y0256785D01*
X0124757Y0257965D02*
X0129654Y0257965D01*
X0134757Y0257965D02*
X0139088Y0257965D01*
X0138172Y0256785D02*
X0135832Y0256785D01*
X0136321Y0255606D02*
X0137719Y0255606D01*
X0137615Y0254426D02*
X0136396Y0254426D01*
X0136396Y0253246D02*
X0137615Y0253246D01*
X0137615Y0252067D02*
X0136396Y0252067D01*
X0136396Y0250887D02*
X0137615Y0250887D01*
X0137615Y0249708D02*
X0136396Y0249708D01*
X0136396Y0248528D02*
X0137615Y0248528D01*
X0137782Y0247348D02*
X0136227Y0247348D01*
X0135710Y0246169D02*
X0138291Y0246169D01*
X0136306Y0244989D02*
X0134461Y0244989D01*
X0129745Y0242240D02*
X0108091Y0242240D01*
X0103662Y0246669D01*
X0093820Y0246669D01*
X0088898Y0251591D01*
X0085083Y0253246D02*
X0082872Y0253246D01*
X0082582Y0253946D02*
X0081412Y0255116D01*
X0079883Y0255750D01*
X0078229Y0255750D01*
X0076700Y0255116D01*
X0075530Y0253946D01*
X0074897Y0252418D01*
X0074897Y0250763D01*
X0075530Y0249235D01*
X0076700Y0248065D01*
X0078229Y0247431D01*
X0079883Y0247431D01*
X0081412Y0248065D01*
X0082582Y0249235D01*
X0083215Y0250763D01*
X0083215Y0252418D01*
X0082582Y0253946D01*
X0082102Y0254426D02*
X0085852Y0254426D01*
X0087724Y0255606D02*
X0080231Y0255606D01*
X0078842Y0256785D02*
X0093705Y0256785D01*
X0093016Y0257965D02*
X0079531Y0257965D01*
X0077881Y0255606D02*
X0069546Y0255606D01*
X0069546Y0254426D02*
X0076010Y0254426D01*
X0075240Y0253246D02*
X0069546Y0253246D01*
X0069546Y0252067D02*
X0074897Y0252067D01*
X0074897Y0250887D02*
X0069546Y0250887D01*
X0069546Y0249708D02*
X0075334Y0249708D01*
X0076237Y0248528D02*
X0069457Y0248528D01*
X0065355Y0249543D02*
X0079056Y0235843D01*
X0082805Y0227295D02*
X0140026Y0227295D01*
X0142704Y0229654D02*
X0181770Y0229654D01*
X0181770Y0230834D02*
X0181183Y0230834D01*
X0179450Y0232890D02*
X0185261Y0232890D01*
X0181770Y0235552D02*
X0180024Y0235552D01*
X0178875Y0235552D02*
X0142308Y0235552D01*
X0143488Y0236732D02*
X0181969Y0236732D01*
X0177164Y0234373D02*
X0140827Y0234373D01*
X0142007Y0233193D02*
X0176770Y0233193D01*
X0176912Y0232013D02*
X0142217Y0232013D01*
X0142217Y0230834D02*
X0177716Y0230834D01*
X0176244Y0223756D02*
X0226694Y0223756D01*
X0226694Y0222576D02*
X0186365Y0222576D01*
X0187716Y0221397D02*
X0226694Y0221397D01*
X0226694Y0224936D02*
X0225974Y0224936D01*
X0226420Y0226115D02*
X0226694Y0226115D01*
X0226694Y0227295D02*
X0226309Y0227295D01*
X0221934Y0228475D02*
X0143884Y0228475D01*
X0141064Y0236827D02*
X0135158Y0236827D01*
X0129745Y0242240D01*
X0130948Y0238518D02*
X0133377Y0236089D01*
X0134421Y0235046D01*
X0136698Y0235046D01*
X0134846Y0233194D01*
X0129498Y0233194D01*
X0126113Y0236580D01*
X0126072Y0236620D01*
X0126654Y0236620D01*
X0126751Y0236524D01*
X0127736Y0236116D01*
X0128801Y0236116D01*
X0129786Y0236524D01*
X0130540Y0237277D01*
X0130948Y0238262D01*
X0130948Y0238518D01*
X0130803Y0237911D02*
X0131555Y0237911D01*
X0132734Y0236732D02*
X0129994Y0236732D01*
X0128320Y0234373D02*
X0136025Y0234373D01*
X0133914Y0235552D02*
X0127141Y0235552D01*
X0119950Y0244989D02*
X0114461Y0244989D01*
X0115710Y0246169D02*
X0118701Y0246169D01*
X0118184Y0247348D02*
X0116227Y0247348D01*
X0116396Y0248528D02*
X0118015Y0248528D01*
X0118015Y0249708D02*
X0116396Y0249708D01*
X0116396Y0250887D02*
X0118015Y0250887D01*
X0118015Y0252067D02*
X0116396Y0252067D01*
X0116396Y0253246D02*
X0118015Y0253246D01*
X0118015Y0254426D02*
X0116396Y0254426D01*
X0116321Y0255606D02*
X0118090Y0255606D01*
X0118579Y0256785D02*
X0115832Y0256785D01*
X0114757Y0257965D02*
X0119654Y0257965D01*
X0109950Y0244989D02*
X0107861Y0244989D01*
X0108701Y0246169D02*
X0106682Y0246169D01*
X0105502Y0247348D02*
X0108184Y0247348D01*
X0108015Y0248528D02*
X0102126Y0248528D01*
X0102898Y0249708D02*
X0108015Y0249708D01*
X0108015Y0250887D02*
X0103245Y0250887D01*
X0103281Y0252067D02*
X0108015Y0252067D01*
X0108015Y0253246D02*
X0102997Y0253246D01*
X0102316Y0254426D02*
X0108015Y0254426D01*
X0108090Y0255606D02*
X0100903Y0255606D01*
X0101808Y0256785D02*
X0108579Y0256785D01*
X0109654Y0257965D02*
X0102497Y0257965D01*
X0099135Y0255606D02*
X0098347Y0255606D01*
X0098347Y0256144D02*
X0097673Y0256037D01*
X0096991Y0255816D01*
X0096351Y0255490D01*
X0095771Y0255068D01*
X0095263Y0254561D01*
X0094842Y0253980D01*
X0094516Y0253341D01*
X0094294Y0252658D01*
X0094187Y0251984D01*
X0098347Y0251984D01*
X0098347Y0256144D01*
X0098316Y0256785D02*
X0097197Y0256785D01*
X0097197Y0257965D02*
X0098316Y0257965D01*
X0096579Y0255606D02*
X0090073Y0255606D01*
X0091945Y0254426D02*
X0095166Y0254426D01*
X0094485Y0253246D02*
X0092714Y0253246D01*
X0093057Y0252067D02*
X0094200Y0252067D01*
X0094236Y0250887D02*
X0093057Y0250887D01*
X0093300Y0249708D02*
X0094584Y0249708D01*
X0094480Y0248528D02*
X0095356Y0248528D01*
X0098347Y0252067D02*
X0099135Y0252067D01*
X0099135Y0253246D02*
X0098347Y0253246D01*
X0098347Y0254426D02*
X0099135Y0254426D01*
X0098316Y0268292D02*
X0097197Y0268292D01*
X0097197Y0270292D01*
X0094397Y0270292D01*
X0093993Y0270184D01*
X0093630Y0269974D01*
X0093334Y0269678D01*
X0093125Y0269316D01*
X0093016Y0268911D01*
X0093016Y0268292D01*
X0079531Y0268292D01*
X0079531Y0268911D01*
X0079423Y0269316D01*
X0079214Y0269678D01*
X0078917Y0269974D01*
X0078555Y0270184D01*
X0078150Y0270292D01*
X0075350Y0270292D01*
X0075350Y0268292D01*
X0074231Y0268292D01*
X0074231Y0270292D01*
X0071431Y0270292D01*
X0071027Y0270184D01*
X0070664Y0269974D01*
X0070368Y0269678D01*
X0070159Y0269316D01*
X0070050Y0268911D01*
X0070050Y0268292D01*
X0048948Y0268292D01*
X0048948Y0269242D01*
X0048250Y0269939D01*
X0047766Y0269939D01*
X0047766Y0302416D01*
X0047285Y0303577D01*
X0032617Y0318245D01*
X0031456Y0318726D01*
X0030199Y0318726D01*
X0029038Y0318245D01*
X0028149Y0317356D01*
X0027669Y0316195D01*
X0027669Y0314939D01*
X0028149Y0313777D01*
X0041448Y0300479D01*
X0041448Y0269939D01*
X0040964Y0269939D01*
X0040267Y0269242D01*
X0040267Y0268292D01*
X0033928Y0268292D01*
X0033928Y0268911D01*
X0033819Y0269316D01*
X0033610Y0269678D01*
X0033314Y0269974D01*
X0032951Y0270184D01*
X0032547Y0270292D01*
X0029747Y0270292D01*
X0029747Y0268292D01*
X0028628Y0268292D01*
X0028628Y0270292D01*
X0026268Y0270292D01*
X0026268Y0272118D01*
X0020347Y0272118D01*
X0020347Y0273299D01*
X0019166Y0273299D01*
X0019166Y0272118D01*
X0013245Y0272118D01*
X0013245Y0268292D01*
X0012780Y0268292D01*
X0012780Y0345425D01*
X0013645Y0345425D01*
X0013645Y0335294D01*
X0014342Y0334597D01*
X0025171Y0334597D01*
X0025868Y0335294D01*
X0025868Y0345425D01*
X0034862Y0345425D01*
X0034312Y0345108D01*
X0032358Y0343153D01*
X0030976Y0340760D01*
X0030261Y0338090D01*
X0030261Y0335327D01*
X0030976Y0332657D01*
X0032358Y0330264D01*
X0034312Y0328310D01*
X0036705Y0326928D01*
X0039375Y0326213D01*
X0042139Y0326213D01*
X0044808Y0326928D01*
X0047201Y0328310D01*
X0049156Y0330264D01*
X0050537Y0332657D01*
X0051253Y0335327D01*
X0051253Y0338090D01*
X0050537Y0340760D01*
X0049156Y0343153D01*
X0047201Y0345108D01*
X0046651Y0345425D01*
X0169645Y0345425D01*
X0169645Y0335294D01*
X0170342Y0334597D01*
X0181171Y0334597D01*
X0181868Y0335294D01*
X0181868Y0345425D01*
X0183387Y0345425D01*
X0183387Y0268292D01*
X0182268Y0268292D01*
X0182268Y0272118D01*
X0176347Y0272118D01*
X0176347Y0273299D01*
X0175166Y0273299D01*
X0175166Y0272118D01*
X0169245Y0272118D01*
X0169245Y0270292D01*
X0167214Y0270292D01*
X0167214Y0268292D01*
X0166095Y0268292D01*
X0166095Y0270203D01*
X0166156Y0270264D01*
X0167537Y0272657D01*
X0168253Y0275327D01*
X0168253Y0278090D01*
X0167537Y0280760D01*
X0166156Y0283153D01*
X0164201Y0285108D01*
X0161808Y0286489D01*
X0159139Y0287205D01*
X0156375Y0287205D01*
X0153705Y0286489D01*
X0151312Y0285108D01*
X0149358Y0283153D01*
X0147976Y0280760D01*
X0147261Y0278090D01*
X0147261Y0275327D01*
X0147976Y0272657D01*
X0149358Y0270264D01*
X0151312Y0268310D01*
X0151342Y0268292D01*
X0102497Y0268292D01*
X0102497Y0268911D01*
X0102389Y0269316D01*
X0102179Y0269678D01*
X0101883Y0269974D01*
X0101521Y0270184D01*
X0101116Y0270292D01*
X0098316Y0270292D01*
X0098316Y0268292D01*
X0098316Y0268581D02*
X0097197Y0268581D01*
X0097197Y0269761D02*
X0098316Y0269761D01*
X0093417Y0269761D02*
X0079131Y0269761D01*
X0079531Y0268581D02*
X0093016Y0268581D01*
X0102097Y0269761D02*
X0149861Y0269761D01*
X0148967Y0270941D02*
X0047766Y0270941D01*
X0047766Y0272120D02*
X0148286Y0272120D01*
X0147804Y0273300D02*
X0047766Y0273300D01*
X0047766Y0274479D02*
X0147488Y0274479D01*
X0147261Y0275659D02*
X0047766Y0275659D01*
X0047766Y0276839D02*
X0147261Y0276839D01*
X0147261Y0278018D02*
X0047766Y0278018D01*
X0047766Y0279198D02*
X0147557Y0279198D01*
X0147873Y0280378D02*
X0047766Y0280378D01*
X0047766Y0281557D02*
X0148436Y0281557D01*
X0149117Y0282737D02*
X0047766Y0282737D01*
X0047766Y0283916D02*
X0150121Y0283916D01*
X0151300Y0285096D02*
X0047766Y0285096D01*
X0047766Y0286276D02*
X0153335Y0286276D01*
X0162178Y0286276D02*
X0183387Y0286276D01*
X0183387Y0287455D02*
X0047766Y0287455D01*
X0047766Y0288635D02*
X0183387Y0288635D01*
X0183387Y0289814D02*
X0047766Y0289814D01*
X0047766Y0290994D02*
X0183387Y0290994D01*
X0183387Y0292174D02*
X0047766Y0292174D01*
X0047766Y0293353D02*
X0183387Y0293353D01*
X0183387Y0294533D02*
X0047766Y0294533D01*
X0047766Y0295713D02*
X0183387Y0295713D01*
X0183387Y0296892D02*
X0047766Y0296892D01*
X0047766Y0298072D02*
X0183387Y0298072D01*
X0183387Y0299251D02*
X0047766Y0299251D01*
X0047766Y0300431D02*
X0183387Y0300431D01*
X0183387Y0301611D02*
X0047766Y0301611D01*
X0047611Y0302790D02*
X0183387Y0302790D01*
X0183387Y0303970D02*
X0046892Y0303970D01*
X0045713Y0305149D02*
X0183387Y0305149D01*
X0183387Y0306329D02*
X0044533Y0306329D01*
X0043353Y0307509D02*
X0183387Y0307509D01*
X0183387Y0308688D02*
X0042174Y0308688D01*
X0040994Y0309868D02*
X0183387Y0309868D01*
X0183387Y0311048D02*
X0039815Y0311048D01*
X0038635Y0312227D02*
X0183387Y0312227D01*
X0183387Y0313407D02*
X0037455Y0313407D01*
X0036276Y0314586D02*
X0183387Y0314586D01*
X0183387Y0315766D02*
X0035096Y0315766D01*
X0033916Y0316946D02*
X0183387Y0316946D01*
X0183387Y0318125D02*
X0032737Y0318125D01*
X0028918Y0318125D02*
X0012780Y0318125D01*
X0012780Y0316946D02*
X0027979Y0316946D01*
X0027669Y0315766D02*
X0012780Y0315766D01*
X0012780Y0314586D02*
X0027814Y0314586D01*
X0028520Y0313407D02*
X0012780Y0313407D01*
X0012780Y0312227D02*
X0029700Y0312227D01*
X0030879Y0311048D02*
X0012780Y0311048D01*
X0012780Y0309868D02*
X0032059Y0309868D01*
X0033239Y0308688D02*
X0012780Y0308688D01*
X0012780Y0307509D02*
X0034418Y0307509D01*
X0035598Y0306329D02*
X0012780Y0306329D01*
X0012780Y0305149D02*
X0036777Y0305149D01*
X0037957Y0303970D02*
X0012780Y0303970D01*
X0012780Y0302790D02*
X0039137Y0302790D01*
X0040316Y0301611D02*
X0012780Y0301611D01*
X0012780Y0300431D02*
X0041448Y0300431D01*
X0041448Y0299251D02*
X0012780Y0299251D01*
X0012780Y0298072D02*
X0041448Y0298072D01*
X0041448Y0296892D02*
X0012780Y0296892D01*
X0012780Y0295713D02*
X0041448Y0295713D01*
X0041448Y0294533D02*
X0012780Y0294533D01*
X0012780Y0293353D02*
X0041448Y0293353D01*
X0041448Y0292174D02*
X0012780Y0292174D01*
X0012780Y0290994D02*
X0041448Y0290994D01*
X0041448Y0289814D02*
X0012780Y0289814D01*
X0012780Y0288635D02*
X0041448Y0288635D01*
X0041448Y0287455D02*
X0012780Y0287455D01*
X0012780Y0286276D02*
X0041448Y0286276D01*
X0041448Y0285096D02*
X0012780Y0285096D01*
X0012780Y0283916D02*
X0041448Y0283916D01*
X0041448Y0282737D02*
X0012780Y0282737D01*
X0012780Y0281557D02*
X0041448Y0281557D01*
X0041448Y0280378D02*
X0012780Y0280378D01*
X0012780Y0279198D02*
X0014542Y0279198D01*
X0014626Y0279220D02*
X0014221Y0279112D01*
X0013859Y0278903D01*
X0013563Y0278607D01*
X0013353Y0278244D01*
X0013245Y0277839D01*
X0013245Y0273299D01*
X0019166Y0273299D01*
X0019166Y0279220D01*
X0014626Y0279220D01*
X0013293Y0278018D02*
X0012780Y0278018D01*
X0012780Y0276839D02*
X0013245Y0276839D01*
X0013245Y0275659D02*
X0012780Y0275659D01*
X0012780Y0274479D02*
X0013245Y0274479D01*
X0013245Y0273300D02*
X0012780Y0273300D01*
X0012780Y0272120D02*
X0019166Y0272120D01*
X0019166Y0273300D02*
X0020347Y0273300D01*
X0020347Y0273299D02*
X0020347Y0279220D01*
X0024887Y0279220D01*
X0025292Y0279112D01*
X0025655Y0278903D01*
X0025951Y0278607D01*
X0026160Y0278244D01*
X0026268Y0277839D01*
X0026268Y0273299D01*
X0020347Y0273299D01*
X0020347Y0272120D02*
X0041448Y0272120D01*
X0041448Y0270941D02*
X0026268Y0270941D01*
X0026268Y0273300D02*
X0041448Y0273300D01*
X0041448Y0274479D02*
X0026268Y0274479D01*
X0026268Y0275659D02*
X0041448Y0275659D01*
X0041448Y0276839D02*
X0026268Y0276839D01*
X0026221Y0278018D02*
X0041448Y0278018D01*
X0041448Y0279198D02*
X0024971Y0279198D01*
X0020347Y0279198D02*
X0019166Y0279198D01*
X0019166Y0278018D02*
X0020347Y0278018D01*
X0020347Y0276839D02*
X0019166Y0276839D01*
X0019166Y0275659D02*
X0020347Y0275659D01*
X0020347Y0274479D02*
X0019166Y0274479D01*
X0013245Y0270941D02*
X0012780Y0270941D01*
X0012780Y0269761D02*
X0013245Y0269761D01*
X0013245Y0268581D02*
X0012780Y0268581D01*
X0023607Y0257965D02*
X0024447Y0257965D01*
X0025136Y0256785D02*
X0023607Y0256785D01*
X0023527Y0255606D02*
X0033574Y0255606D01*
X0033574Y0256785D02*
X0033238Y0256785D01*
X0033574Y0254426D02*
X0023038Y0254426D01*
X0022549Y0253246D02*
X0032937Y0253246D01*
X0037154Y0248528D02*
X0039480Y0248528D01*
X0039480Y0249708D02*
X0038333Y0249708D01*
X0039453Y0250887D02*
X0039480Y0250887D01*
X0039480Y0247348D02*
X0037021Y0247348D01*
X0036794Y0246169D02*
X0039480Y0246169D01*
X0039480Y0244989D02*
X0036306Y0244989D01*
X0035130Y0243810D02*
X0039480Y0243810D01*
X0039480Y0242630D02*
X0012780Y0242630D01*
X0012780Y0243810D02*
X0022431Y0243810D01*
X0021255Y0244989D02*
X0012780Y0244989D01*
X0012780Y0246169D02*
X0020766Y0246169D01*
X0020540Y0247348D02*
X0012780Y0247348D01*
X0012780Y0248528D02*
X0020540Y0248528D01*
X0021002Y0249708D02*
X0018560Y0249708D01*
X0020530Y0250887D02*
X0021820Y0250887D01*
X0021710Y0252067D02*
X0023588Y0252067D01*
X0028628Y0256785D02*
X0029747Y0256785D01*
X0029747Y0257965D02*
X0028628Y0257965D01*
X0028628Y0268581D02*
X0029747Y0268581D01*
X0029747Y0269761D02*
X0028628Y0269761D01*
X0033527Y0269761D02*
X0040786Y0269761D01*
X0040267Y0268581D02*
X0033928Y0268581D01*
X0048429Y0269761D02*
X0070451Y0269761D01*
X0070050Y0268581D02*
X0048948Y0268581D01*
X0048948Y0258511D02*
X0051814Y0258511D01*
X0051429Y0257981D01*
X0051101Y0257337D01*
X0050878Y0256650D01*
X0050765Y0255936D01*
X0050765Y0252984D01*
X0054946Y0252984D01*
X0054946Y0252165D01*
X0051279Y0252165D01*
X0051222Y0252301D01*
X0050334Y0253190D01*
X0048948Y0254576D01*
X0048948Y0257242D01*
X0048741Y0257449D01*
X0048948Y0257656D01*
X0048948Y0258511D01*
X0048948Y0257965D02*
X0051421Y0257965D01*
X0050922Y0256785D02*
X0048948Y0256785D01*
X0048948Y0255606D02*
X0050765Y0255606D01*
X0050765Y0254426D02*
X0049097Y0254426D01*
X0050277Y0253246D02*
X0050765Y0253246D01*
X0054946Y0252067D02*
X0055765Y0252067D01*
X0055765Y0252165D02*
X0055765Y0244992D01*
X0056430Y0245097D01*
X0057117Y0245321D01*
X0057761Y0245649D01*
X0058346Y0246073D01*
X0058857Y0246584D01*
X0059281Y0247169D01*
X0059609Y0247813D01*
X0059833Y0248500D01*
X0059946Y0249214D01*
X0059946Y0252165D01*
X0055765Y0252165D01*
X0055765Y0250887D02*
X0054946Y0250887D01*
X0054946Y0249708D02*
X0055765Y0249708D01*
X0055765Y0248528D02*
X0054946Y0248528D01*
X0054946Y0247348D02*
X0055765Y0247348D01*
X0055765Y0246169D02*
X0054946Y0246169D01*
X0052269Y0246169D02*
X0050543Y0246169D01*
X0051182Y0241748D02*
X0087107Y0205823D01*
X0085529Y0204882D02*
X0067126Y0204882D01*
X0066845Y0204882D02*
X0065676Y0204882D01*
X0065676Y0203703D02*
X0066845Y0203703D01*
X0066845Y0202523D02*
X0065676Y0202523D01*
X0065676Y0201343D02*
X0066845Y0201343D01*
X0066845Y0200164D02*
X0065676Y0200164D01*
X0065676Y0198984D02*
X0066845Y0198984D01*
X0066845Y0197805D02*
X0065676Y0197805D01*
X0065676Y0196625D02*
X0051291Y0196625D01*
X0065676Y0195445D02*
X0066845Y0195445D01*
X0066845Y0194266D02*
X0065676Y0194266D01*
X0065676Y0193086D02*
X0066845Y0193086D01*
X0066845Y0191907D02*
X0065676Y0191907D01*
X0065676Y0190727D02*
X0066845Y0190727D01*
X0066845Y0189547D02*
X0065676Y0189547D01*
X0065676Y0188368D02*
X0066845Y0188368D01*
X0068849Y0188368D02*
X0072974Y0188368D01*
X0074154Y0189547D02*
X0070228Y0189547D01*
X0070951Y0190727D02*
X0075333Y0190727D01*
X0076513Y0191907D02*
X0071300Y0191907D01*
X0071376Y0193086D02*
X0077692Y0193086D01*
X0078872Y0194266D02*
X0071376Y0194266D01*
X0071376Y0195445D02*
X0080052Y0195445D01*
X0081230Y0196625D02*
X0066845Y0196625D01*
X0071151Y0201343D02*
X0081464Y0201343D01*
X0081230Y0200164D02*
X0071376Y0200164D01*
X0071376Y0198984D02*
X0081230Y0198984D01*
X0081230Y0197805D02*
X0071376Y0197805D01*
X0070634Y0202523D02*
X0081960Y0202523D01*
X0083140Y0203703D02*
X0069632Y0203703D01*
X0078770Y0216678D02*
X0079243Y0216678D01*
X0079243Y0217858D02*
X0077591Y0217858D01*
X0093886Y0239091D02*
X0095722Y0239091D01*
X0086079Y0248528D02*
X0081875Y0248528D01*
X0082778Y0249708D02*
X0085177Y0249708D01*
X0084739Y0250887D02*
X0083215Y0250887D01*
X0083215Y0252067D02*
X0084739Y0252067D01*
X0075350Y0256785D02*
X0074231Y0256785D01*
X0074231Y0257965D02*
X0075350Y0257965D01*
X0070740Y0256785D02*
X0069390Y0256785D01*
X0068891Y0257965D02*
X0070050Y0257965D01*
X0065355Y0252575D02*
X0065355Y0249543D01*
X0061165Y0249708D02*
X0059946Y0249708D01*
X0059946Y0250887D02*
X0061165Y0250887D01*
X0061165Y0252067D02*
X0059946Y0252067D01*
X0059946Y0253246D02*
X0061165Y0253246D01*
X0061165Y0254426D02*
X0059946Y0254426D01*
X0059946Y0255606D02*
X0061165Y0255606D01*
X0061321Y0256785D02*
X0059789Y0256785D01*
X0059289Y0257965D02*
X0061819Y0257965D01*
X0061253Y0248528D02*
X0059837Y0248528D01*
X0059373Y0247348D02*
X0061742Y0247348D01*
X0062835Y0246169D02*
X0058441Y0246169D01*
X0047391Y0242630D02*
X0047004Y0242630D01*
X0047391Y0241450D02*
X0046105Y0241450D01*
X0047284Y0240271D02*
X0047391Y0240271D01*
X0048464Y0239091D02*
X0048478Y0239091D01*
X0044247Y0234373D02*
X0012780Y0234373D01*
X0012780Y0235552D02*
X0043068Y0235552D01*
X0041888Y0236732D02*
X0012780Y0236732D01*
X0012780Y0237911D02*
X0040708Y0237911D01*
X0039782Y0239091D02*
X0012780Y0239091D01*
X0012780Y0240271D02*
X0039480Y0240271D01*
X0039480Y0241450D02*
X0012780Y0241450D01*
X0012780Y0233193D02*
X0045427Y0233193D01*
X0046606Y0232013D02*
X0035441Y0232013D01*
X0036547Y0230834D02*
X0047391Y0230834D01*
X0048073Y0229654D02*
X0037136Y0229654D01*
X0029365Y0229654D02*
X0028196Y0229654D01*
X0028196Y0228475D02*
X0012780Y0228475D01*
X0012780Y0229654D02*
X0020424Y0229654D01*
X0021014Y0230834D02*
X0012780Y0230834D01*
X0012780Y0232013D02*
X0022120Y0232013D01*
X0020169Y0227384D02*
X0020266Y0226771D01*
X0020515Y0226005D01*
X0020880Y0225287D01*
X0021353Y0224636D01*
X0021923Y0224067D01*
X0022574Y0223593D01*
X0023292Y0223228D01*
X0024057Y0222979D01*
X0024853Y0222853D01*
X0028196Y0222853D01*
X0028196Y0227384D01*
X0020169Y0227384D01*
X0020183Y0227295D02*
X0012780Y0227295D01*
X0012780Y0226115D02*
X0020479Y0226115D01*
X0021136Y0224936D02*
X0012780Y0224936D01*
X0012780Y0223756D02*
X0022350Y0223756D01*
X0028196Y0223756D02*
X0029365Y0223756D01*
X0029365Y0224936D02*
X0028196Y0224936D01*
X0028196Y0226115D02*
X0029365Y0226115D01*
X0029365Y0227295D02*
X0028196Y0227295D01*
X0029365Y0228475D02*
X0049252Y0228475D01*
X0047391Y0222576D02*
X0012780Y0222576D01*
X0012780Y0221397D02*
X0047391Y0221397D01*
X0047667Y0220217D02*
X0012780Y0220217D01*
X0012780Y0219038D02*
X0048847Y0219038D01*
X0029365Y0230834D02*
X0028196Y0230834D01*
X0028196Y0232013D02*
X0029365Y0232013D01*
X0074231Y0268581D02*
X0075350Y0268581D01*
X0075350Y0269761D02*
X0074231Y0269761D01*
X0102497Y0268581D02*
X0151040Y0268581D01*
X0150720Y0258511D02*
X0144619Y0258511D01*
X0145196Y0258092D01*
X0145707Y0257581D01*
X0146132Y0256997D01*
X0146460Y0256353D01*
X0146683Y0255666D01*
X0146796Y0254952D01*
X0146796Y0252000D01*
X0142615Y0252000D01*
X0142615Y0251181D01*
X0146796Y0251181D01*
X0146796Y0248229D01*
X0146683Y0247516D01*
X0146460Y0246828D01*
X0146132Y0246185D01*
X0145707Y0245600D01*
X0145196Y0245089D01*
X0144611Y0244664D01*
X0144315Y0244513D01*
X0150424Y0244513D01*
X0150424Y0244792D01*
X0149832Y0245038D01*
X0148653Y0246217D01*
X0148015Y0247757D01*
X0148015Y0255424D01*
X0148653Y0256964D01*
X0149832Y0258143D01*
X0150720Y0258511D01*
X0149654Y0257965D02*
X0145323Y0257965D01*
X0146239Y0256785D02*
X0148579Y0256785D01*
X0148090Y0255606D02*
X0146693Y0255606D01*
X0146796Y0254426D02*
X0148015Y0254426D01*
X0148015Y0253246D02*
X0146796Y0253246D01*
X0146796Y0252067D02*
X0148015Y0252067D01*
X0148015Y0250887D02*
X0146796Y0250887D01*
X0146796Y0249708D02*
X0148015Y0249708D01*
X0148015Y0248528D02*
X0146796Y0248528D01*
X0146629Y0247348D02*
X0148184Y0247348D01*
X0148701Y0246169D02*
X0146120Y0246169D01*
X0145058Y0244989D02*
X0149950Y0244989D01*
X0152206Y0242732D02*
X0152206Y0251591D01*
X0156227Y0247348D02*
X0202826Y0247348D01*
X0201647Y0248528D02*
X0156396Y0248528D01*
X0156396Y0249708D02*
X0162779Y0249708D01*
X0162077Y0250887D02*
X0156396Y0250887D01*
X0156396Y0252067D02*
X0162006Y0252067D01*
X0162552Y0253246D02*
X0156396Y0253246D01*
X0156396Y0254426D02*
X0226694Y0254426D01*
X0226694Y0255606D02*
X0156321Y0255606D01*
X0155832Y0256785D02*
X0162603Y0256785D01*
X0161914Y0257965D02*
X0154757Y0257965D01*
X0155710Y0246169D02*
X0204006Y0246169D01*
X0205186Y0244989D02*
X0194320Y0244989D01*
X0192532Y0244989D02*
X0154461Y0244989D01*
X0164686Y0251591D02*
X0201103Y0251591D01*
X0200467Y0249708D02*
X0166592Y0249708D01*
X0166095Y0256785D02*
X0167214Y0256785D01*
X0167214Y0257965D02*
X0166095Y0257965D01*
X0170706Y0256785D02*
X0226694Y0256785D01*
X0226694Y0257965D02*
X0171395Y0257965D01*
X0167214Y0268581D02*
X0166095Y0268581D01*
X0166095Y0269761D02*
X0167214Y0269761D01*
X0166546Y0270941D02*
X0169245Y0270941D01*
X0167227Y0272120D02*
X0175166Y0272120D01*
X0175166Y0273299D02*
X0169245Y0273299D01*
X0169245Y0277839D01*
X0169353Y0278244D01*
X0169563Y0278607D01*
X0169859Y0278903D01*
X0170221Y0279112D01*
X0170626Y0279220D01*
X0175166Y0279220D01*
X0175166Y0273299D01*
X0175166Y0273300D02*
X0176347Y0273300D01*
X0176347Y0273299D02*
X0176347Y0279220D01*
X0180887Y0279220D01*
X0181292Y0279112D01*
X0181655Y0278903D01*
X0181951Y0278607D01*
X0182160Y0278244D01*
X0182268Y0277839D01*
X0182268Y0273299D01*
X0176347Y0273299D01*
X0176347Y0272120D02*
X0183387Y0272120D01*
X0183387Y0270941D02*
X0182268Y0270941D01*
X0182268Y0269761D02*
X0183387Y0269761D01*
X0183387Y0268581D02*
X0182268Y0268581D01*
X0182268Y0273300D02*
X0183387Y0273300D01*
X0183387Y0274479D02*
X0182268Y0274479D01*
X0182268Y0275659D02*
X0183387Y0275659D01*
X0183387Y0276839D02*
X0182268Y0276839D01*
X0182221Y0278018D02*
X0183387Y0278018D01*
X0183387Y0279198D02*
X0180971Y0279198D01*
X0183387Y0280378D02*
X0167640Y0280378D01*
X0167956Y0279198D02*
X0170542Y0279198D01*
X0169293Y0278018D02*
X0168253Y0278018D01*
X0168253Y0276839D02*
X0169245Y0276839D01*
X0169245Y0275659D02*
X0168253Y0275659D01*
X0168026Y0274479D02*
X0169245Y0274479D01*
X0169245Y0273300D02*
X0167710Y0273300D01*
X0175166Y0274479D02*
X0176347Y0274479D01*
X0176347Y0275659D02*
X0175166Y0275659D01*
X0175166Y0276839D02*
X0176347Y0276839D01*
X0176347Y0278018D02*
X0175166Y0278018D01*
X0175166Y0279198D02*
X0176347Y0279198D01*
X0183387Y0281557D02*
X0167077Y0281557D01*
X0166396Y0282737D02*
X0183387Y0282737D01*
X0183387Y0283916D02*
X0165393Y0283916D01*
X0164213Y0285096D02*
X0183387Y0285096D01*
X0183387Y0319305D02*
X0012780Y0319305D01*
X0012780Y0320484D02*
X0183387Y0320484D01*
X0183387Y0321664D02*
X0012780Y0321664D01*
X0012780Y0322844D02*
X0183387Y0322844D01*
X0183387Y0324023D02*
X0012780Y0324023D01*
X0012780Y0325203D02*
X0183387Y0325203D01*
X0183387Y0326382D02*
X0042773Y0326382D01*
X0045906Y0327562D02*
X0183387Y0327562D01*
X0183387Y0328742D02*
X0047633Y0328742D01*
X0048813Y0329921D02*
X0183387Y0329921D01*
X0183387Y0331101D02*
X0049639Y0331101D01*
X0050320Y0332281D02*
X0183387Y0332281D01*
X0183387Y0333460D02*
X0050753Y0333460D01*
X0051069Y0334640D02*
X0170299Y0334640D01*
X0169645Y0335819D02*
X0051253Y0335819D01*
X0051253Y0336999D02*
X0169645Y0336999D01*
X0169645Y0338179D02*
X0051229Y0338179D01*
X0050913Y0339358D02*
X0169645Y0339358D01*
X0169645Y0340538D02*
X0050597Y0340538D01*
X0049985Y0341717D02*
X0169645Y0341717D01*
X0169645Y0342897D02*
X0049304Y0342897D01*
X0048232Y0344077D02*
X0169645Y0344077D01*
X0169645Y0345256D02*
X0046944Y0345256D01*
X0034570Y0345256D02*
X0025868Y0345256D01*
X0025868Y0344077D02*
X0033281Y0344077D01*
X0032210Y0342897D02*
X0025868Y0342897D01*
X0025868Y0341717D02*
X0031529Y0341717D01*
X0030916Y0340538D02*
X0025868Y0340538D01*
X0025868Y0339358D02*
X0030600Y0339358D01*
X0030284Y0338179D02*
X0025868Y0338179D01*
X0025868Y0336999D02*
X0030261Y0336999D01*
X0030261Y0335819D02*
X0025868Y0335819D01*
X0025214Y0334640D02*
X0030445Y0334640D01*
X0030761Y0333460D02*
X0012780Y0333460D01*
X0012780Y0332281D02*
X0031193Y0332281D01*
X0031874Y0331101D02*
X0012780Y0331101D01*
X0012780Y0329921D02*
X0032700Y0329921D01*
X0033880Y0328742D02*
X0012780Y0328742D01*
X0012780Y0327562D02*
X0035607Y0327562D01*
X0038741Y0326382D02*
X0012780Y0326382D01*
X0012780Y0334640D02*
X0014299Y0334640D01*
X0013645Y0335819D02*
X0012780Y0335819D01*
X0012780Y0336999D02*
X0013645Y0336999D01*
X0013645Y0338179D02*
X0012780Y0338179D01*
X0012780Y0339358D02*
X0013645Y0339358D01*
X0013645Y0340538D02*
X0012780Y0340538D01*
X0012780Y0341717D02*
X0013645Y0341717D01*
X0013645Y0342897D02*
X0012780Y0342897D01*
X0012780Y0344077D02*
X0013645Y0344077D01*
X0013645Y0345256D02*
X0012780Y0345256D01*
X0083397Y0188742D02*
X0085008Y0188074D01*
X0086884Y0188074D01*
X0088495Y0188742D01*
X0094574Y0182662D01*
X0077317Y0182662D01*
X0083397Y0188742D01*
X0083023Y0188368D02*
X0084300Y0188368D01*
X0081843Y0187188D02*
X0090048Y0187188D01*
X0088869Y0188368D02*
X0087592Y0188368D01*
X0091228Y0186008D02*
X0080663Y0186008D01*
X0079484Y0184829D02*
X0092407Y0184829D01*
X0093587Y0183649D02*
X0078304Y0183649D01*
X0014279Y0162416D02*
X0012780Y0162416D01*
X0012780Y0163596D02*
X0013645Y0163596D01*
X0013645Y0164775D02*
X0012780Y0164775D01*
X0012780Y0165955D02*
X0013645Y0165955D01*
X0013645Y0167135D02*
X0012780Y0167135D01*
X0012780Y0168314D02*
X0013645Y0168314D01*
X0013645Y0169494D02*
X0012780Y0169494D01*
X0012780Y0170673D02*
X0013645Y0170673D01*
X0013645Y0171853D02*
X0012780Y0171853D01*
X0083397Y0016498D02*
X0085008Y0015830D01*
X0086884Y0015830D01*
X0088495Y0016498D01*
X0094587Y0010405D01*
X0094874Y0010118D01*
X0077017Y0010118D01*
X0083397Y0016498D01*
X0083043Y0016144D02*
X0084250Y0016144D01*
X0081864Y0014964D02*
X0090028Y0014964D01*
X0091207Y0013785D02*
X0080684Y0013785D01*
X0079504Y0012605D02*
X0092387Y0012605D01*
X0093567Y0011426D02*
X0078325Y0011426D01*
X0077145Y0010246D02*
X0094746Y0010246D01*
X0094587Y0010405D02*
X0094587Y0010405D01*
X0088848Y0016144D02*
X0087641Y0016144D01*
X0166613Y0077484D02*
X0200447Y0077484D01*
X0185261Y0060646D02*
X0179450Y0060646D01*
X0181204Y0058610D02*
X0181770Y0058610D01*
X0167214Y0096358D02*
X0166095Y0096358D01*
X0166095Y0097537D02*
X0167214Y0097537D01*
X0166558Y0098717D02*
X0169245Y0098717D01*
X0196704Y0183649D02*
X0226694Y0183649D01*
X0226694Y0184829D02*
X0197884Y0184829D01*
X0199064Y0186008D02*
X0226694Y0186008D01*
X0226694Y0187188D02*
X0200243Y0187188D01*
X0201423Y0188368D02*
X0226694Y0188368D01*
X0226694Y0189547D02*
X0202602Y0189547D01*
X0203782Y0190727D02*
X0226694Y0190727D01*
X0211930Y0232890D02*
X0197261Y0232890D01*
X0200751Y0235552D02*
X0212074Y0235552D01*
X0213253Y0236732D02*
X0200552Y0236732D01*
X0202135Y0237911D02*
X0190726Y0237911D01*
X0189547Y0239091D02*
X0201441Y0239091D01*
X0205977Y0237911D02*
X0214172Y0237911D01*
X0214481Y0239091D02*
X0206671Y0239091D01*
X0206735Y0240271D02*
X0215787Y0240271D01*
X0216851Y0237811D02*
X0211930Y0232890D01*
X0207454Y0241450D02*
X0206175Y0241450D01*
X0206298Y0243810D02*
X0195767Y0243810D01*
X0191825Y0240271D02*
X0188367Y0240271D01*
X0187324Y0238795D02*
X0143032Y0238795D01*
X0141064Y0236827D01*
X0176309Y0222576D02*
X0184345Y0222576D01*
X0191261Y0232890D02*
X0191261Y0234858D01*
X0187324Y0238795D01*
X0183387Y0334640D02*
X0181214Y0334640D01*
X0181868Y0335819D02*
X0183387Y0335819D01*
X0183387Y0336999D02*
X0181868Y0336999D01*
X0181868Y0338179D02*
X0183387Y0338179D01*
X0183387Y0339358D02*
X0181868Y0339358D01*
X0181868Y0340538D02*
X0183387Y0340538D01*
X0183387Y0341717D02*
X0181868Y0341717D01*
X0181868Y0342897D02*
X0183387Y0342897D01*
X0183387Y0344077D02*
X0181868Y0344077D01*
X0181868Y0345256D02*
X0183387Y0345256D01*
D18*
X0117442Y0257496D03*
X0127284Y0245685D03*
X0128269Y0238795D03*
X0132206Y0234858D03*
X0151891Y0223047D03*
X0150906Y0203362D03*
X0158780Y0192535D03*
X0175513Y0200409D03*
X0185355Y0220094D03*
X0179450Y0232890D03*
X0173544Y0223047D03*
X0160749Y0246669D03*
X0164686Y0251591D03*
X0160749Y0254543D03*
X0193426Y0242459D03*
X0204056Y0239780D03*
X0208977Y0243717D03*
X0216851Y0237811D03*
X0223741Y0226492D03*
X0216851Y0223047D03*
X0216851Y0214462D03*
X0223741Y0217142D03*
X0210946Y0204346D03*
X0208977Y0198441D03*
X0201103Y0198441D03*
X0199135Y0209268D03*
X0201103Y0222063D03*
X0139095Y0203362D03*
X0135158Y0206315D03*
X0135232Y0197530D03*
X0132206Y0194504D03*
X0137127Y0183677D03*
X0114489Y0201394D03*
X0111536Y0189583D03*
X0097757Y0193520D03*
X0095788Y0199425D03*
X0090867Y0214189D03*
X0094804Y0226984D03*
X0081024Y0231906D03*
X0080040Y0242732D03*
X0060355Y0240764D03*
X0048544Y0248638D03*
X0042639Y0248638D03*
X0027875Y0239780D03*
X0015080Y0247654D03*
X0023938Y0217142D03*
X0037717Y0200409D03*
X0024922Y0184661D03*
X0017048Y0194504D03*
X0056418Y0195488D03*
X0055434Y0213205D03*
X0075119Y0206315D03*
X0081024Y0183677D03*
X0089883Y0183677D03*
X0111536Y0214189D03*
X0112917Y0217869D03*
X0110552Y0226000D03*
X0110552Y0231906D03*
X0030828Y0315567D03*
X0030828Y0143323D03*
X0042639Y0076394D03*
X0048544Y0076394D03*
X0060355Y0068520D03*
X0080040Y0070488D03*
X0081024Y0059661D03*
X0094804Y0054740D03*
X0090867Y0041945D03*
X0095788Y0027181D03*
X0097757Y0021276D03*
X0089883Y0011433D03*
X0081024Y0011433D03*
X0075119Y0034071D03*
X0055434Y0040961D03*
X0056418Y0023244D03*
X0037717Y0028165D03*
X0024922Y0012417D03*
X0017048Y0022260D03*
X0023938Y0044898D03*
X0027875Y0067535D03*
X0015080Y0075409D03*
X0110552Y0059661D03*
X0110552Y0053756D03*
X0112917Y0045625D03*
X0111536Y0041945D03*
X0114489Y0029150D03*
X0111536Y0017339D03*
X0132206Y0022260D03*
X0135232Y0025286D03*
X0139095Y0031118D03*
X0135158Y0034071D03*
X0150906Y0031118D03*
X0158780Y0020291D03*
X0175513Y0028165D03*
X0185355Y0047850D03*
X0179450Y0060646D03*
X0173544Y0050803D03*
X0160749Y0074425D03*
X0164686Y0079346D03*
X0160749Y0082299D03*
X0151891Y0050803D03*
X0132206Y0062614D03*
X0128269Y0066551D03*
X0127284Y0073441D03*
X0117442Y0085252D03*
X0137127Y0011433D03*
X0193426Y0070215D03*
X0204056Y0067535D03*
X0208977Y0071472D03*
X0216851Y0065567D03*
X0223741Y0054248D03*
X0216851Y0050803D03*
X0223741Y0044898D03*
X0216851Y0042218D03*
X0210946Y0032102D03*
X0208977Y0026197D03*
X0201103Y0026197D03*
X0199135Y0037024D03*
X0201103Y0049819D03*
D19*
X0150906Y0031118D02*
X0145001Y0031118D01*
X0145001Y0027181D01*
X0130237Y0012417D01*
X0097599Y0012417D01*
X0085946Y0024071D01*
X0073765Y0011890D01*
X0036733Y0011890D01*
X0026891Y0021732D01*
X0026891Y0024071D01*
X0139095Y0031118D02*
X0145001Y0031118D01*
X0130237Y0184661D02*
X0097599Y0184661D01*
X0085946Y0196315D01*
X0073765Y0184134D01*
X0036733Y0184134D01*
X0026891Y0193976D01*
X0026891Y0196315D01*
X0130237Y0184661D02*
X0145001Y0199425D01*
X0145001Y0203362D01*
X0139095Y0203362D01*
X0145001Y0203362D02*
X0150906Y0203362D01*
D20*
X0051182Y0231906D02*
X0042639Y0240449D01*
X0042639Y0242732D01*
X0048544Y0248638D01*
X0042639Y0248638D01*
X0042639Y0242732D01*
X0042639Y0248638D02*
X0042639Y0252480D01*
X0044607Y0254449D01*
X0048544Y0250512D01*
X0048544Y0248638D01*
X0044607Y0260449D02*
X0038702Y0260449D01*
X0036733Y0258480D01*
X0036733Y0252575D01*
X0031812Y0247654D01*
X0028780Y0247654D01*
X0044607Y0266449D02*
X0044607Y0301787D01*
X0030828Y0315567D01*
X0030828Y0143323D02*
X0044607Y0129543D01*
X0044607Y0094205D01*
X0044607Y0088205D02*
X0038702Y0088205D01*
X0036733Y0086236D01*
X0036733Y0080331D01*
X0031812Y0075409D01*
X0028780Y0075409D01*
X0042639Y0076394D02*
X0042639Y0070488D01*
X0042639Y0068205D01*
X0051182Y0059661D01*
X0042639Y0070488D02*
X0048544Y0076394D01*
X0042639Y0076394D01*
X0042639Y0080236D01*
X0044607Y0082205D01*
X0048544Y0078268D01*
X0048544Y0076394D01*
D21*
X0151891Y0050803D02*
X0173544Y0050803D01*
X0173544Y0223047D02*
X0151891Y0223047D01*
D22*
X0128269Y0238795D02*
X0101379Y0238795D01*
X0098426Y0241748D01*
X0098426Y0069504D02*
X0101379Y0066551D01*
X0128269Y0066551D01*
M02*
