%
M48
M72
T01C0.01378
T02C0.03200
T03C0.03937
T04C0.04000
T05C0.04700
T06C0.05906
T07C0.07874
T08C0.11811
%
T01
X17048Y22260
X24922Y12417
X37717Y28165
X23938Y44898
X27875Y67535
X15080Y75409
X42639Y76394
X48544Y76394
X60355Y68520
X80040Y70488
X81024Y59661
X94804Y54740
X90867Y41945
X95788Y27181
X97757Y21276
X89883Y11433
X81024Y11433
X75119Y34071
X55434Y40961
X56418Y23244
X111536Y17339
X114489Y29150
X111536Y41945
X112917Y45625
X110552Y53756
X110552Y59661
X128269Y66551
X132206Y62614
X127284Y73441
X117442Y85252
X151891Y50803
X150906Y31118
X158780Y20291
X175513Y28165
X185355Y47850
X179450Y60646
X173544Y50803
X160749Y74425
X164686Y79346
X160749Y82299
X193426Y70215
X204056Y67535
X208977Y71472
X216851Y65567
X223741Y54248
X216851Y50803
X223741Y44898
X216851Y42218
X210946Y32102
X208977Y26197
X201103Y26197
X199135Y37024
X201103Y49819
X139095Y31118
X135158Y34071
X135232Y25286
X132206Y22260
X137127Y11433
X30828Y143323
X24922Y184661
X17048Y194504
X23938Y217142
X37717Y200409
X56418Y195488
X55434Y213205
X75119Y206315
X90867Y214189
X94804Y226984
X81024Y231906
X80040Y242732
X60355Y240764
X48544Y248638
X42639Y248638
X27875Y239780
X15080Y247654
X30828Y315567
X110552Y231906
X110552Y226000
X112917Y217869
X111536Y214189
X114489Y201394
X111536Y189583
X97757Y193520
X95788Y199425
X89883Y183677
X81024Y183677
X128269Y238795
X132206Y234858
X127284Y245685
X117442Y257496
X151891Y223047
X150906Y203362
X158780Y192535
X175513Y200409
X185355Y220094
X179450Y232890
X173544Y223047
X160749Y246669
X164686Y251591
X160749Y254543
X193426Y242459
X204056Y239780
X208977Y243717
X216851Y237811
X223741Y226492
X216851Y223047
X216851Y214462
X223741Y217142
X210946Y204346
X208977Y198441
X201103Y198441
X199135Y209268
X201103Y222063
X139095Y203362
X135158Y206315
X135232Y197530
X132206Y194504
X137127Y183677
T02
X138426Y222063
X138426Y231413
X138426Y241748
X98426Y241748
X91182Y241748
X91182Y231906
X98426Y231413
X98426Y222063
X91182Y222063
X51182Y222063
X51182Y231906
X51182Y241748
X51182Y69504
X51182Y59661
X51182Y49819
X91182Y49819
X98426Y49819
X98426Y59169
X91182Y59661
X91182Y69504
X98426Y69504
X138426Y69504
X138426Y59169
X138426Y49819
T03
X98741Y79346
X88898Y79346
X79056Y79346
X79056Y251591
X88898Y251591
X98741Y251591
T04
X112206Y251591
X122206Y251591
X132206Y251591
X142206Y251591
X152206Y251591
X65355Y252575
X55355Y252575
X55355Y80331
X65355Y80331
X112206Y79346
X122206Y79346
X132206Y79346
X142206Y79346
X152206Y79346
T05
X125316Y24071
X105631Y24071
X85946Y24071
X66261Y24071
X46576Y24071
X26891Y24071
X28780Y55724
X28780Y75409
X26891Y196315
X46576Y196315
X66261Y196315
X85946Y196315
X105631Y196315
X125316Y196315
X28780Y227969
X28780Y247654
T06
X19757Y272709
X19757Y340709
X19757Y168465
X19757Y100465
X175757Y100465
X175757Y168465
X175757Y272709
X175757Y340709
T07
X15080Y11433
X15080Y85252
X15080Y183677
X15080Y257496
X257206Y257496
X257206Y183677
X257206Y85252
X257206Y11433
T08
X157757Y104465
X40757Y164465
X157757Y276709
X40757Y336709
M30
